<?xml version="1.0" standalone="no"?>
<!DOCTYPE svg PUBLIC "-//W3C//DTD SVG 1.1//EN" "http://www.w3.org/Graphics/SVG/1.1/DTD/svg11.dtd" >
<svg xmlns="http://www.w3.org/2000/svg" xmlns:xlink="http://www.w3.org/1999/xlink" version="1.1">
<metadata>
Created by FontForge 20200511 at Mon Feb  3 19:33:22 2014
 By convertio
Copyright (c) 2013 by The Entente (AS&#38;EH). All rights reserved.
</metadata>
<defs>
<font id="Value" horiz-adv-x="1120" >
  <font-face 
    font-family="Value"
    font-weight="400"
    font-stretch="normal"
    units-per-em="2048"
    panose-1="2 11 5 3 3 2 4 2 2 3"
    ascent="1638"
    descent="-410"
    x-height="1012"
    cap-height="1434"
    bbox="-285 -590 2220 2134"
    underline-thickness="102"
    underline-position="-408"
    unicode-range="U+000D-FB02"
  />
<missing-glyph horiz-adv-x="645" 
 />
    <glyph glyph-name="fi" unicode="fi" horiz-adv-x="1157" 
d="M223 864h-133v148h133v151q0 127 81 213t196 86q91 0 170 -43l6 -157h-17q-25 25 -61.5 39t-69.5 14q-66 0 -103.5 -42.5t-37.5 -119.5v-141h180v-148h-180v-864h-164v864zM853 1238q-34 34 -34 81t34 81t81 34t81 -34t34 -81t-34 -81t-81 -34t-81 34zM1016 0h-164v1012
h164v-1012z" />
    <glyph glyph-name="fl" unicode="fl" horiz-adv-x="1136" 
d="M223 864h-133v148h133v151q0 127 81 213t196 86q91 0 170 -43l6 -157h-17q-25 25 -61.5 39t-69.5 14q-66 0 -103.5 -42.5t-37.5 -119.5v-141h180v-148h-180v-864h-164v864zM1006 0h-164v1475h164v-1475z" />
    <glyph glyph-name=".notdef" horiz-adv-x="645" 
 />
    <glyph glyph-name=".null" horiz-adv-x="0" 
 />
    <glyph glyph-name="nonmarkingreturn" horiz-adv-x="682" 
 />
    <glyph glyph-name="NULL" horiz-adv-x="0" 
 />
    <glyph glyph-name="NULL" horiz-adv-x="0" 
 />
    <glyph glyph-name="CR" unicode="&#xd;" horiz-adv-x="0" 
 />
    <glyph glyph-name="space" unicode=" " horiz-adv-x="645" 
 />
    <glyph glyph-name="exclam" unicode="!" horiz-adv-x="520" 
d="M179 24q-36 36 -36 89t36 89q37 36 89 36t88 -36q37 -36 37 -89t-37 -89q-36 -36 -88 -36t-89 36zM350 410h-164v1024h164v-1024z" />
    <glyph glyph-name="quotedbl" unicode="&#x22;" horiz-adv-x="692" 
d="M127 983l-45 451h201l-45 -451h-111zM455 983l-45 451h200l-45 -451h-110z" />
    <glyph glyph-name="numbersign" unicode="#" horiz-adv-x="1398" 
d="M311 408h-250l31 139h246l63 340h-258l31 139h252l76 408h151l-75 -408h358l76 408h151l-76 -408h250l-30 -139h-246l-64 -340h258l-30 -139h-252l-76 -408h-152l76 408h-358l-76 -408h-151zM553 887l-64 -340h357l63 340h-356z" />
    <glyph glyph-name="dollar" unicode="$" horiz-adv-x="1060" 
d="M109 135l12 213h20q45 -56 90 -100q46 -43 110 -77q67 -34 140 -42v567q-161 69 -259 175q-95 106 -95 241q0 145 100 238q100 94 254 108v131h119v-131q158 -17 268 -110l9 -197h-27q-119 131 -250 158v-486q375 -160 375 -422q0 -163 -105 -282q-103 -116 -270 -142
v-133h-119v129q-221 11 -372 162zM291 1118q0 -69 47 -125.5t143 -111.5v430q-85 -12 -138 -66q-52 -52 -52 -127zM600 639v-504q89 20 140 84t51 158q0 82 -47 144.5t-144 117.5z" />
    <glyph glyph-name="percent" unicode="%" horiz-adv-x="1318" 
d="M172 908q-96 94 -96 231t96 230q98 93 236 93q139 0 235 -93t96 -230t-96 -231q-96 -93 -235 -93q-138 0 -236 93zM190 418l-51 100l961 498l51 -101zM265 1287q-58 -55 -58 -148q0 -92 58 -149q59 -56 143 -56t142 56q58 57 58 149q0 93 -58 148q-58 56 -142 56
t-143 -56zM663 64q-96 94 -96 231t96 230q97 93 236 93t235 -93q97 -93 97 -230t-97 -231q-96 -93 -235 -93t-236 93zM756 443q-58 -55 -58 -148q0 -92 58 -149q59 -56 143 -56t143 56q58 57 58 149q0 93 -58 148q-58 57 -143 57t-143 -57z" />
    <glyph glyph-name="ampersand" unicode="&#x26;" horiz-adv-x="1296" 
d="M78 387q0 122 76.5 231.5t226.5 188.5q-137 173 -137 313q0 108 55 187q53 78 134 116.5t175 38.5q148 0 252 -89q103 -88 103 -216q0 -239 -332 -397l303 -369q91 128 149 299h17l49 -201q-51 -126 -117 -219l223 -270h-206l-123 147q-185 -176 -418 -176
q-186 0 -308 116q-122 117 -122 300zM262 395q0 -121 74 -195q74 -73 194 -73q154 0 299 139l-350 422q-108 -55 -162.5 -131t-54.5 -162zM416 1120q0 -95 119 -241q151 66 207 128q57 61 57 136q0 73 -54 122q-53 50 -137 50t-138 -54t-54 -141z" />
    <glyph glyph-name="quotesingle" unicode="'" horiz-adv-x="364" 
d="M127 983l-45 451h201l-45 -451h-111z" />
    <glyph glyph-name="parenleft" unicode="(" horiz-adv-x="595" 
d="M414 1434h141q-289 -481 -289 -949q0 -467 289 -948h-141q-138 183 -225 421q-87 239 -87 527t87 527t225 422z" />
    <glyph glyph-name="parenright" unicode=")" horiz-adv-x="595" 
d="M182 -463h-141q289 481 289 948q0 468 -289 949h141q138 -183 225 -422q87 -238 87 -527q0 -288 -87 -527q-87 -238 -225 -421z" />
    <glyph glyph-name="asterisk" unicode="*" horiz-adv-x="774" 
d="M160 920l-70 118l4 19l242 73l-242 74l-4 19l70 118l16 7l186 -172l-57 245l12 13h140l12 -13l-57 -245l186 172l16 -7l70 -118l-4 -19l-242 -74l242 -73l4 -19l-70 -118l-16 -7l-186 172l57 -245l-12 -13h-140l-12 13l57 245l-186 -172z" />
    <glyph glyph-name="plus" unicode="+" horiz-adv-x="1011" 
d="M438 684h-340v135h340v340h135v-340h340v-135h-340v-340h-135v340z" />
    <glyph glyph-name="comma" unicode="," horiz-adv-x="413" 
d="M90 100q0 51 33 86t82 35q51 0 85 -36t34 -87q0 -104 -55 -186.5t-148 -132.5l-15 39q93 61 99 170q-46 0 -81 32q-34 31 -34 80z" />
    <glyph glyph-name="hyphen" unicode="-" horiz-adv-x="802" 
d="M717 582h-631v135h631v-135z" />
    <glyph glyph-name="period" unicode="." horiz-adv-x="413" 
d="M90 102q0 50 34 84q35 35 81 35q49 0 84 -35t35 -84q0 -46 -35 -81q-35 -33 -84 -33q-47 0 -81 33q-34 34 -34 81z" />
    <glyph glyph-name="slash" unicode="/" horiz-adv-x="1054" 
d="M207 0h-176l817 1434h176z" />
    <glyph glyph-name="zero" unicode="0" horiz-adv-x="1425" 
d="M713 1462q138 0 254 -55.5t194 -156.5q162 -206 162 -533q0 -217 -72.5 -384.5t-211.5 -264.5t-326 -97t-326 97t-213 266q-72 169 -72 383t72 382q73 168 213 266q139 97 326 97zM406 1148q-119 -158 -119 -431q0 -272 119 -432q119 -158 307 -158t307 158
q119 160 119 432q0 273 -119 431q-119 159 -307 159q-189 0 -307 -159z" />
    <glyph glyph-name="one" unicode="1" horiz-adv-x="471" 
d="M328 0h-185v1337l142 97h43v-1434z" />
    <glyph glyph-name="two" unicode="2" horiz-adv-x="1130" 
d="M1026 0h-948v20l561 685q83 103 116 179q36 80 36 171q0 117 -78 184q-77 68 -191 68q-106 0 -204 -60q-96 -59 -158 -160h-19l13 213q73 75 172 118q100 44 200 44q195 0 318 -114t123 -283q0 -112 -48.5 -215.5t-144.5 -222.5l-387 -471h639v-156z" />
    <glyph glyph-name="three" unicode="3" horiz-adv-x="1161" 
d="M682 1278h-563v156h864v-21l-367 -473q179 -23 302 -131q64 -56 99.5 -141t35.5 -191q0 -227 -146 -367q-145 -139 -381 -139q-109 0 -195 26q-83 25 -167 71l-23 194h17q172 -135 377 -135q151 0 246 93q96 94 96 243q0 106 -52 185q-51 77 -131 116t-178 39
q-74 0 -162 -21l-18 37z" />
    <glyph glyph-name="four" unicode="4" horiz-adv-x="1124" 
d="M698 356h-659v82l801 996h43v-922h159v-156h-159v-356h-185v356zM698 1016l-407 -504h407v504z" />
    <glyph glyph-name="five" unicode="5" horiz-adv-x="1134" 
d="M152 57l-39 203h16q178 -133 387 -133q139 0 242 88q51 44 80.5 113.5t29.5 152.5q0 169 -101 261t-251 92q-174 0 -358 -129l-35 6l88 723h764v-156h-629l-51 -373q131 64 270 64q205 4 342.5 -131.5t136.5 -356.5q0 -226 -150 -368q-149 -142 -380 -142q-97 0 -180 20
q-82 20 -182 66z" />
    <glyph glyph-name="six" unicode="6" horiz-adv-x="1216" 
d="M98 647q0 128 24 247t74 222.5t121.5 180t172.5 121t221 44.5q144 0 260 -65l18 -185h-24q-68 53 -126.5 74t-127.5 21q-183 0 -296 -141t-132 -408q73 85 175 128q105 44 204 44q209 0 337 -132q127 -130 127 -343q0 -128 -66 -239q-65 -110 -182 -178
q-115 -67 -253 -67q-112 0 -207.5 42t-161.5 118q-158 182 -158 516zM389 689q-90 -93 -90 -234t90 -235q91 -93 234 -93t231 93q88 92 88 235t-88 234q-88 93 -231 93t-234 -93z" />
    <glyph glyph-name="seven" unicode="7" horiz-adv-x="1095" 
d="M819 1278h-708v156h952v-21l-711 -1413h-184z" />
    <glyph glyph-name="eight" unicode="8" horiz-adv-x="1142" 
d="M102 410q0 128 64 225q65 99 166 153q-170 116 -170 297q0 163 114 269q115 108 295 108q179 0 295 -108q115 -108 115 -269q0 -181 -170 -297q102 -54 165 -153q64 -97 64 -225q0 -159 -117 -295q-58 -66 -150.5 -105t-201.5 -39t-201.5 39t-150.5 105
q-117 136 -117 295zM364 628q-85 -79 -85 -210q0 -130 85 -211q86 -80 207 -80t207 80q86 81 86 211t-86 210q-86 81 -207 81t-207 -81zM571 856q105 0 175 64q71 65 71 165t-71 165t-175 65t-175 -65q-70 -64 -70 -165t70 -165t175 -64z" />
    <glyph glyph-name="nine" unicode="9" horiz-adv-x="1216" 
d="M90 979q0 128 65 238q64 109 181 178q115 67 256 67q113 0 210 -42t163 -117q153 -176 153 -517q0 -128 -24 -246.5t-74 -222t-121 -180.5t-172 -121.5t-221 -44.5q-141 0 -260 66l-19 184h25q72 -55 128 -74q60 -20 126 -20q184 0 296 141t132 408q-142 -172 -379 -172
q-205 0 -335 132q-130 133 -130 343zM362 1214q-88 -92 -88 -235t88 -235q89 -93 232 -93t233 93q91 94 91 235q0 142 -91 234q-90 94 -233 94q-144 0 -232 -93z" />
    <glyph glyph-name="colon" unicode=":" horiz-adv-x="413" 
d="M90 102q0 50 34 84q35 35 81 35q49 0 84 -35t35 -84q0 -46 -35 -81q-35 -33 -84 -33q-47 0 -81 33q-34 34 -34 81zM90 856q0 50 34 84q35 35 81 35q49 0 84 -35t35 -84q0 -46 -35 -81q-34 -34 -84 -34q-47 0 -81 34t-34 81z" />
    <glyph glyph-name="semicolon" unicode=";" horiz-adv-x="413" 
d="M90 100q0 51 33 86t82 35q51 0 85 -36t34 -87q0 -104 -55 -186.5t-148 -132.5l-15 39q93 61 99 170q-46 0 -81 32q-34 31 -34 80zM90 856q0 50 34 84q35 35 81 35q49 0 84 -35t35 -84q0 -46 -35 -81q-34 -34 -84 -34q-47 0 -81 34t-34 81z" />
    <glyph glyph-name="less" unicode="&#x3c;" horiz-adv-x="835" 
d="M717 201l-619 438v143l619 439h20v-166l-489 -344l489 -344v-166h-20z" />
    <glyph glyph-name="equal" unicode="=" horiz-adv-x="1011" 
d="M913 397h-815v135h815v-135zM913 848h-815v135h815v-135z" />
    <glyph glyph-name="greater" unicode="&#x3e;" horiz-adv-x="835" 
d="M119 201h-21v166l490 344l-490 344v166h21l618 -439v-143z" />
    <glyph glyph-name="question" unicode="?" horiz-adv-x="999" 
d="M131 1163h-18l12 176q63 51 151 86q89 37 177 37q173 0 282 -91q111 -90 111 -241q0 -162 -113 -286q-15 -16 -54 -57.5t-58 -64.5t-45 -60t-37 -73t-11 -75v-88h-163v63q0 70 23 134q15 40 40.5 79t39 55.5t55.5 64.5l77 86q82 92 82 206q0 96 -66 155q-64 58 -172 58
q-92 0 -178 -50q-86 -49 -135 -114zM366 24q-36 36 -36 89t36 89t89 36t89 -36t36 -89t-36 -89t-89 -36t-89 36z" />
    <glyph glyph-name="at" unicode="@" horiz-adv-x="1806" 
d="M102 645q0 172 65 326q65 153 177 260q112 108 260 169q151 62 314 62q165 0 312 -59q146 -58 250 -159t164 -243q60 -143 60 -303q0 -202 -93 -317t-227 -115q-84 0 -144 43t-87 117q-124 -160 -299 -160q-142 0 -249 101q-52 50 -82.5 125t-30.5 161q0 87 31 161.5
t84 123.5q111 102 259 102q69 0 137 -31.5t111 -82.5v94h137v-422q0 -105 37.5 -159t106.5 -54t119 84q51 84 51 213q0 251 -135 412q-93 113 -227.5 173t-284.5 60q-123 0 -240 -46t-211 -131q-93 -83 -152 -216q-57 -130 -57 -289q0 -156 53.5 -288t147.5 -218
q93 -85 211.5 -131.5t247.5 -46.5q210 0 374 121h19l-8 -152q-181 -104 -385 -104q-172 0 -324.5 61t-262.5 171q-106 108 -168 260q-61 150 -61 327zM874 385q110 0 177 75q69 75 69 193q0 119 -69 194q-67 75 -177 75q-108 0 -176 -75q-67 -74 -67 -194t67 -194
q68 -74 176 -74z" />
    <glyph glyph-name="A" unicode="A" horiz-adv-x="1368" 
d="M219 0h-184l622 1434h54l622 -1434h-184l-123 291h-684zM684 1090l-274 -644h548z" />
    <glyph glyph-name="B" unicode="B" horiz-adv-x="1210" 
d="M664 0h-521v1434h465q214 0 338 -100q125 -99 125 -255q0 -224 -209 -325q130 -41 206 -130q77 -91 77 -218q0 -99 -41 -179t-112 -129q-141 -98 -328 -98zM328 659v-503h329q143 0 223 68q81 69 81 184q0 116 -81 183q-80 68 -223 68h-329zM328 1278v-463h297
q127 0 198 63q72 64 72 169q0 106 -72 168.5t-198 62.5h-297z" />
    <glyph glyph-name="C" unicode="C" horiz-adv-x="1359" 
d="M817 1462q237 0 418 -123l12 -202h-20q-185 170 -418 170q-108 0 -206 -40.5t-174 -115.5q-76 -76 -119.5 -188.5t-43.5 -245.5t43.5 -245.5t119.5 -188.5q76 -75 174 -115.5t206 -40.5q233 0 418 170h20l-12 -203q-181 -123 -424 -123q-149 0 -283.5 55.5t-234.5 153.5
q-97 97 -154 237q-57 139 -57 300q0 158 57 297.5t157 237.5q101 99 234 154q138 56 287 56z" />
    <glyph glyph-name="D" unicode="D" horiz-adv-x="1280" 
d="M463 0h-320v1434h320q146 0 279 -49t235 -140q101 -90 161 -227t60 -301q0 -165 -60 -301q-60 -137 -161 -227q-102 -91 -235 -140t-279 -49zM328 1278v-1122h139q232 0 387 144q76 71 118 179t42 238q0 131 -42 238.5t-118 177.5q-154 145 -387 145h-139z" />
    <glyph glyph-name="E" unicode="E" horiz-adv-x="1062" 
d="M971 0h-828v1434h820v-156h-635v-463h612v-156h-612v-503h643v-156z" />
    <glyph glyph-name="F" unicode="F" horiz-adv-x="1105" 
d="M328 0h-185v1434h852v-156h-667v-514h645v-156h-645v-608z" />
    <glyph glyph-name="G" unicode="G" horiz-adv-x="1499" 
d="M836 1462q276 0 458 -133l13 -188h-25q-114 91 -218 129q-102 37 -226 37q-223 0 -391 -146q-84 -73 -132.5 -188.5t-48.5 -255.5t45.5 -255.5t125.5 -188.5q160 -146 376 -146q227 0 391 158v362h-454v156h639v-576q-256 -256 -582 -256q-146 0 -279 54t-233 151
q-97 98 -156 237q-57 141 -57 304t60 303q62 143 164 237q104 97 241.5 151t288.5 54z" />
    <glyph glyph-name="H" unicode="H" horiz-adv-x="1331" 
d="M328 0h-185v1434h185v-600h676v600h184v-1434h-184v678h-676v-678z" />
    <glyph glyph-name="I" unicode="I" horiz-adv-x="471" 
d="M328 0h-185v1434h185v-1434z" />
    <glyph glyph-name="J" unicode="J" horiz-adv-x="774" 
d="M111 0l-19 174h27q89 -47 170 -47q168 0 168 190v1117h184v-1096q0 -166 -89 -267q-88 -100 -249 -100q-90 0 -192 29z" />
    <glyph glyph-name="K" unicode="K" horiz-adv-x="1161" 
d="M328 0h-185v1434h185v-699l542 699h215l-561 -705l611 -729h-215l-592 707v-707z" />
    <glyph glyph-name="L" unicode="L" horiz-adv-x="1138" 
d="M1065 0h-922v1434h185v-1278h737v-156z" />
    <glyph glyph-name="M" unicode="M" horiz-adv-x="1789" 
d="M229 0h-184l373 1434h61l416 -1049l416 1049h61l373 -1434h-184l-248 961l-398 -961h-41l-397 961z" />
    <glyph glyph-name="N" unicode="N" horiz-adv-x="1382" 
d="M328 0h-185v1434h70l842 -1008v1008h184v-1434h-70l-841 1012v-1012z" />
    <glyph glyph-name="O" unicode="O" horiz-adv-x="1658" 
d="M82 717q0 159 58 296q58 139 158 237q102 100 238 155q138 57 293 57t293 -57q136 -55 238 -155q99 -96 158 -237q59 -139 59 -296q0 -210 -100 -382q-99 -170 -270 -268q-171 -96 -378 -96t-378 96q-171 98 -270 268q-99 172 -99 382zM829 127q156 0 284 69
q127 70 203 206q77 137 77 315t-77 315q-75 134 -201.5 204.5t-285.5 70.5q-237 0 -399 -156q-77 -76 -120.5 -188.5t-43.5 -245.5t43.5 -245.5t120.5 -188.5q162 -156 399 -156z" />
    <glyph glyph-name="P" unicode="P" horiz-adv-x="1048" 
d="M328 0h-185v1434h365q117 0 213.5 -35t160.5 -97q128 -123 128 -303q0 -178 -128 -303q-64 -61 -160.5 -96t-213.5 -35h-180v-565zM328 1278v-557h182q142 0 228 71q87 70 87 207t-87 207q-86 72 -228 72h-182z" />
    <glyph glyph-name="Q" unicode="Q" horiz-adv-x="1658" 
d="M82 717q0 159 58 296q58 139 158 237q102 100 238 155q138 57 293 57t293 -57q136 -55 238 -155q99 -96 158 -237q59 -139 59 -296q0 -285 -172 -484l192 -192l-112 -117l-197 195q-199 -148 -459 -148q-207 0 -378 96q-171 98 -270 268q-99 172 -99 382zM829 127
q200 0 345 109l-193 194l115 115l190 -193q107 157 107 365q0 178 -77 315q-75 134 -201.5 204.5t-285.5 70.5q-237 0 -399 -156q-77 -76 -120.5 -188.5t-43.5 -245.5t43.5 -245.5t120.5 -188.5q162 -156 399 -156z" />
    <glyph glyph-name="R" unicode="R" horiz-adv-x="1124" 
d="M328 0h-185v1434h379q214 0 347 -108q135 -108 135 -294q0 -143 -88 -239.5t-220 -137.5l396 -655h-201l-381 631h-182v-631zM328 1278v-492h198q141 0 217 63.5t76 182.5t-76 182.5t-217 63.5h-198z" />
    <glyph glyph-name="S" unicode="S" horiz-adv-x="1060" 
d="M109 135l12 213h20q77 -98 168 -160q91 -61 209 -61q125 0 199 68t74 182q0 113 -87 188q-71 63 -219 129q-165 71 -261 176q-97 106 -97 242q0 158 118 254q119 96 290 96q199 0 333 -114l9 -197h-27q-140 164 -322 164q-103 0 -171 -56q-66 -55 -66 -141
q0 -88 75.5 -157.5t231.5 -135.5q187 -79 282 -183t95 -241q0 -184 -130 -307q-129 -123 -327 -123q-240 0 -409 164z" />
    <glyph glyph-name="T" unicode="T" horiz-adv-x="1101" 
d="M459 1278h-377v156h938v-156h-377v-1278h-184v1278z" />
    <glyph glyph-name="U" unicode="U" horiz-adv-x="1306" 
d="M123 535v899h184v-930q0 -96 29.5 -171.5t80.5 -119.5q103 -86 236 -86q134 0 235 86q52 44 81.5 119.5t29.5 171.5v930h185v-899q0 -267 -146 -416q-145 -148 -385 -148q-239 0 -384 147q-146 149 -146 417z" />
    <glyph glyph-name="V" unicode="V" horiz-adv-x="1400" 
d="M662 0l-631 1434h184l485 -1125l486 1125h184l-631 -1434h-77z" />
    <glyph glyph-name="W" unicode="W" horiz-adv-x="1933" 
d="M524 0l-479 1434h184l322 -1012l387 1012h57l387 -1012l322 1012h184l-479 -1434h-45l-397 1051l-398 -1051h-45z" />
    <glyph glyph-name="X" unicode="X" horiz-adv-x="1206" 
d="M233 0h-184l471 774l-395 660h184l299 -512l305 512h185l-400 -658l459 -776h-184l-367 625z" />
    <glyph glyph-name="Y" unicode="Y" horiz-adv-x="1200" 
d="M508 623l-479 811h196l375 -652l375 652h196l-479 -811v-623h-184v623z" />
    <glyph glyph-name="Z" unicode="Z" horiz-adv-x="1218" 
d="M1147 0h-1090v20l779 1258h-717v156h995v-21l-786 -1257h819v-156z" />
    <glyph glyph-name="bracketleft" unicode="[" horiz-adv-x="559" 
d="M487 -463h-364v1897h364v-156h-200v-1585h200v-156z" />
    <glyph glyph-name="backslash" unicode="\" horiz-adv-x="1054" 
d="M848 0l-817 1434h176l817 -1434h-176z" />
    <glyph glyph-name="bracketright" unicode="]" horiz-adv-x="559" 
d="M72 -463v156h200v1585h-200v156h364v-1897h-364z" />
    <glyph glyph-name="asciicircum" unicode="^" horiz-adv-x="1032" 
d="M223 811h-151v20l391 603h106l392 -603v-20h-152l-293 446z" />
    <glyph glyph-name="underscore" unicode="_" horiz-adv-x="1028" 
d="M45 -135v135h938v-135h-938z" />
    <glyph glyph-name="grave" unicode="`" horiz-adv-x="577" 
d="M365 1153l-291 281h241l189 -281h-139z" />
    <glyph glyph-name="a" unicode="a" horiz-adv-x="1255" 
d="M606 1040q108 0 201.5 -42.5t153.5 -112.5v127h163v-1012h-163v127q-60 -70 -153.5 -113t-201.5 -43q-148 0 -270 72q-120 71 -190 194q-68 124 -68 269q0 146 68 268q70 124 190 194q122 72 270 72zM342 781q-100 -112 -100 -275t100 -275t264 -112t264 112
q101 113 101 275t-101 275q-100 112 -264 112t-264 -112z" />
    <glyph glyph-name="b" unicode="b" horiz-adv-x="1263" 
d="M295 0h-164v1475h164v-611q65 73 165 124q98 52 216 52q103 0 196.5 -39t163.5 -110q70 -70 110 -170.5t40 -214.5q0 -155 -70 -277q-69 -123 -187.5 -190.5t-262.5 -67.5q-112 0 -207.5 45t-163.5 121v-137zM386 781q-101 -113 -101 -275t101 -275q102 -112 267 -112
t267 112q102 113 102 275t-102 275q-102 112 -267 112t-267 -112z" />
    <glyph glyph-name="c" unicode="c" horiz-adv-x="1011" 
d="M606 1040q178 0 293 -90l6 -164h-18q-67 57 -131 82q-63 25 -150 25q-161 0 -263 -109q-101 -110 -101 -278q0 -172 97 -279q97 -108 267 -108q84 0 147.5 24.5t129.5 81.5h18l-6 -164q-111 -90 -289 -90q-146 0 -264 63q-119 65 -192 187q-72 125 -72 285t74 284
q74 122 192.5 186t261.5 64z" />
    <glyph glyph-name="d" unicode="d" horiz-adv-x="1263" 
d="M78 506q0 228 153 381t379 153q114 0 207 -46q97 -46 152 -115v596h164v-1475h-164v137q-145 -166 -371 -166q-218 0 -369 154t-151 381zM343 781q-101 -113 -101 -275t101 -275q102 -112 267 -112t267 112q102 113 102 275t-102 275q-102 112 -267 112t-267 -112z" />
    <glyph glyph-name="e" unicode="e" horiz-adv-x="1157" 
d="M78 506q0 110 40 210.5t109 171.5q70 71 163 111.5t192 40.5q216 0 352 -136q137 -135 137 -359v-82h-829q9 -108 65 -188q109 -156 297 -156q108 0 193 36q88 38 186 128h16l-6 -179q-92 -68 -184 -100.5t-203 -32.5q-148 0 -270 71q-120 70 -190 193q-68 124 -68 271z
M250 598h672q-15 136 -108 222q-92 85 -232 85q-118 0 -212 -81q-94 -79 -120 -226z" />
    <glyph glyph-name="f" unicode="f" horiz-adv-x="708" 
d="M223 864h-133v148h133v151q0 127 81 213t196 86q91 0 170 -43l6 -157h-17q-25 25 -61.5 39t-69.5 14q-66 0 -103.5 -42.5t-37.5 -119.5v-141h180v-148h-180v-864h-164v864z" />
    <glyph glyph-name="g" unicode="g" horiz-adv-x="1241" 
d="M78 520q0 115 42.5 214.5t115.5 166.5q152 139 360 139q109 0 202 -41.5t148 -111.5v125h164v-920q0 -303 -141 -443q-141 -141 -396 -141q-170 0 -319 89l-6 163h26q72 -52 144 -77q74 -27 178 -27q154 0 252 90t98 258v156q-62 -78 -156 -119t-204 -41q-208 0 -356 138
q-71 67 -111.5 166.5t-40.5 215.5zM281 702q-39 -82 -39 -182q0 -215 162 -319q84 -54 198 -54q113 0 198 53q84 54 123 137q40 83 40 183q0 216 -163 319q-84 54 -198 54t-198 -54t-123 -137z" />
    <glyph glyph-name="h" unicode="h" horiz-adv-x="1136" 
d="M295 0h-164v1475h164v-619q56 80 154 132q100 52 204 52q163 0 264 -96q101 -95 101 -258v-686h-164v651q0 112 -71 177t-181 65q-127 0 -217 -95q-90 -94 -90 -235v-563z" />
    <glyph glyph-name="i" unicode="i" horiz-adv-x="446" 
d="M142 1238q-33 34 -33 81t33 81q34 34 81 34t81 -34t34 -81t-34 -81t-81 -34t-81 34zM305 0h-164v1012h164v-1012z" />
    <glyph glyph-name="j" unicode="j" horiz-adv-x="460" 
d="M-78 -457l-16 152h20q59 -39 109 -39q123 0 123 147v1209h164v-1178q0 -158 -67.5 -242t-195.5 -84q-81 0 -137 35zM125 1317q0 47 33 82q35 35 80 35q46 0 81 -35t35 -82q0 -45 -35 -80q-35 -33 -81 -33t-80 33q-33 35 -33 80z" />
    <glyph glyph-name="k" unicode="k" horiz-adv-x="909" 
d="M295 0h-164v1475h164v-928l395 465h174l-405 -475l415 -537h-176l-403 518v-518z" />
    <glyph glyph-name="l" unicode="l" horiz-adv-x="425" 
d="M295 0h-164v1475h164v-1475z" />
    <glyph glyph-name="m" unicode="m" horiz-adv-x="1579" 
d="M295 0h-164v1012h164v-125q46 71 123.5 112t167.5 41q187 0 260 -166q46 72 133 119q88 47 178 47q148 0 225.5 -84.5t77.5 -236.5v-719h-164v696q0 92 -52.5 144.5t-143.5 52.5t-154 -69t-63 -177v-647h-164v694q0 96 -58 147q-56 52 -141 52q-101 0 -163 -80t-62 -217
v-596z" />
    <glyph glyph-name="n" unicode="n" 
d="M295 0h-164v1012h164v-152q57 81 150 130q95 50 200 50q159 0 257 -96q99 -96 99 -258v-686h-163v651q0 113 -67 177q-68 65 -177 65q-126 0 -213 -95q-86 -95 -86 -235v-563z" />
    <glyph glyph-name="o" unicode="o" horiz-adv-x="1216" 
d="M230 122q-152 152 -152 384q0 231 152 383q152 151 378 151t378 -151q153 -151 153 -383t-153 -384q-152 -151 -378 -151t-378 151zM608 119q160 0 263 108q104 109 104 279t-104 279q-103 108 -263 108q-158 0 -262 -108q-104 -109 -104 -279t104 -279
q103 -108 262 -108z" />
    <glyph glyph-name="p" unicode="p" horiz-adv-x="1263" 
d="M295 -463h-164v1475h164v-152q69 77 164 128q95 52 211 52q219 0 367 -151q149 -151 149 -383q0 -114 -40 -215t-110 -172q-70 -70 -163.5 -109t-196.5 -39q-123 0 -222 49t-159 127v-610zM390 780q-105 -112 -105 -274t105 -274q105 -113 263 -113t263 113
q106 113 106 274t-106 273q-105 114 -263 114t-263 -113z" />
    <glyph glyph-name="q" unicode="q" horiz-adv-x="1263" 
d="M78 506q0 155 70 277q70 121 190 190q119 67 264 67q117 0 216 -51q97 -49 151 -121v144h164v-1475h-164v610q-69 -82 -166.5 -129t-214.5 -47q-103 0 -196.5 39t-163.5 109q-70 71 -110 172t-40 215zM347 780q-105 -112 -105 -274t105 -274q105 -113 263 -113t263 113
q106 113 106 274t-106 273q-105 114 -263 114t-263 -113z" />
    <glyph glyph-name="r" unicode="r" horiz-adv-x="806" 
d="M295 0h-164v1012h164v-148q50 86 128 131q80 45 161 45q90 0 155 -47l11 -166h-19q-69 66 -172 66q-100 0 -178 -71q-86 -78 -86 -244v-578z" />
    <glyph glyph-name="s" unicode="s" horiz-adv-x="864" 
d="M82 74l39 155h12q142 -110 289 -110q95 0 150 41t55 110q0 72 -56 113q-54 40 -180 82q-119 40 -195 104q-87 76 -87 199q0 111 95 191q96 81 234 81q151 0 281 -77l6 -156h-14q-128 98 -273 98q-80 0 -131 -35.5t-51 -97.5q0 -67 58 -107q62 -43 182 -85
q140 -48 215 -113q80 -68 80 -188q0 -132 -109 -220t-262 -88q-181 0 -338 103z" />
    <glyph glyph-name="t" unicode="t" horiz-adv-x="763" 
d="M229 864h-194v148h194v213l164 78v-291h289v-148h-289v-620q0 -62 39 -94q40 -31 92 -31q72 0 152 59h18l-12 -155q-60 -31 -95 -40q-39 -12 -95 -12q-120 0 -192 73q-71 74 -71 204v616z" />
    <glyph glyph-name="u" unicode="u" 
d="M119 326v686h164v-652q0 -112 66 -177q67 -64 177 -64q127 0 212 94q87 95 87 236v563h164v-1012h-164v152q-56 -80 -150 -131q-95 -50 -200 -50q-159 0 -258 96q-98 98 -98 259z" />
    <glyph glyph-name="v" unicode="v" horiz-adv-x="1064" 
d="M520 0l-493 1012h184l321 -688l322 688h184l-493 -1012h-25z" />
    <glyph glyph-name="w" unicode="w" horiz-adv-x="1568" 
d="M473 0l-440 1012h172l287 -676l268 676h49l268 -676l287 676h172l-440 -1012h-45l-267 692l-266 -692h-45z" />
    <glyph glyph-name="x" unicode="x" horiz-adv-x="948" 
d="M231 0h-180l338 522l-317 490h182l225 -367l223 367h177l-306 -486l324 -526h-176l-246 393z" />
    <glyph glyph-name="y" unicode="y" horiz-adv-x="1021" 
d="M410 182l-404 830h184l306 -650l313 650h166l-713 -1475h-164z" />
    <glyph glyph-name="z" unicode="z" horiz-adv-x="976" 
d="M889 0h-817v20l546 844h-507v148h763v-21l-540 -844h555v-147z" />
    <glyph glyph-name="braceleft" unicode="{" horiz-adv-x="647" 
d="M104 408h-43v155h43q55 0 81 26t26 87v526q0 108 61.5 170t173.5 62h129v-156h-112q-88 0 -88 -102v-514q0 -146 -135 -177q135 -31 135 -176v-514q0 -102 88 -102h112v-156h-129q-112 0 -173.5 62t-61.5 170v526q0 61 -26 87t-81 26z" />
    <glyph glyph-name="bar" unicode="|" horiz-adv-x="409" 
d="M287 -463h-164v1897h164v-1897z" />
    <glyph glyph-name="braceright" unicode="}" horiz-adv-x="647" 
d="M72 -463v156h112q88 0 88 102v514q0 145 136 176q-136 31 -136 177v514q0 102 -88 102h-112v156h129q112 0 173.5 -62t61.5 -170v-526q0 -61 26 -87t81 -26h43v-155h-43q-55 0 -81 -26t-26 -87v-526q0 -108 -61.5 -170t-173.5 -62h-129z" />
    <glyph glyph-name="asciitilde" unicode="~" horiz-adv-x="983" 
d="M111 584h-13l13 149q86 86 194 86q52 0 107 -18t95 -43q106 -60 183 -60q94 0 182 88h13l-13 -149q-86 -86 -194 -86q-97 0 -203 60q-96 61 -182 61q-94 0 -182 -88z" />
    <glyph glyph-name="uni00A0" unicode="&#xa0;" horiz-adv-x="645" 
 />
    <glyph glyph-name="exclamdown" unicode="&#xa1;" horiz-adv-x="520" 
d="M179 810q-36 36 -36 89t36 89q38 36 89 36q52 0 88 -36q37 -36 37 -89t-37 -89q-36 -36 -88 -36t-89 36zM350 -422h-164v1024h164v-1024z" />
    <glyph glyph-name="cent" unicode="&#xa2;" horiz-adv-x="991" 
d="M78 506q0 219 130 361q132 144 327 169v254h118v-252q145 -9 246 -88l6 -164h-18q-57 51 -111 75t-123 30v-770q123 10 230 104h18l-6 -164q-106 -82 -242 -88v-252h-118v254q-198 25 -327.5 167t-129.5 364zM242 506q0 -151 77 -255q77 -103 216 -126v762
q-133 -25 -213 -129t-80 -252z" />
    <glyph glyph-name="sterling" unicode="&#xa3;" horiz-adv-x="1062" 
d="M131 696h-141v135h151l9 89q13 164 81.5 289t176 190t235.5 63q158 0 291 -80l20 -188l-24 -6q-151 119 -287 119q-121 0 -211 -93q-89 -93 -108 -286l-11 -97h377v-135h-389l-53 -540h743v-156h-919z" />
    <glyph glyph-name="currency" unicode="&#xa4;" horiz-adv-x="1187" 
d="M215 238l-100 100l125 125q-88 115 -88 254t88 254l-125 125l100 100l129 -127q113 74 250 74t250 -74l129 127l100 -100l-125 -125q88 -115 88 -254t-88 -254l125 -125l-100 -100l-129 127q-113 -74 -250 -74t-250 74zM391 923q-84 -81 -84 -206t84 -206q86 -81 203 -81
q118 0 202 81q85 81 85 206t-85 206q-84 81 -202 81t-203 -81z" />
    <glyph glyph-name="yen" unicode="&#xa5;" horiz-adv-x="1200" 
d="M428 758l-399 676h196l375 -652l375 652h196l-399 -676h236v-135h-316v-131h316v-136h-316v-356h-184v356h-315v136h315v131h-315v135h235z" />
    <glyph glyph-name="brokenbar" unicode="&#xa6;" horiz-adv-x="409" 
d="M123 -463v819h164v-819h-164zM287 614h-164v820h164v-820z" />
    <glyph glyph-name="section" unicode="&#xa7;" horiz-adv-x="987" 
d="M72 547q0 178 172 295q-135 117 -135 268q-2 96 56 179t151.5 129t195.5 44q203 0 336 -119l8 -182h-14q-153 166 -338 166q-103 0 -172 -60q-68 -60 -68 -155q0 -80 69 -149q70 -68 247 -154q342 -162 342 -385q0 -177 -172 -297q135 -117 135 -266q0 -99 -58 -181
q-56 -82 -150 -127q-91 -45 -196 -45q-203 0 -336 119l-8 183h15q153 -166 337 -166q103 0 171 60q69 60 69 155q0 80 -69 149q-68 68 -246 154q-342 162 -342 385zM221 557q0 -78 72 -146.5t221 -138.5q99 -50 123 -65q62 40 98.5 94t36.5 113q0 78 -72 146t-221 138
q-81 37 -125 64q-60 -38 -96.5 -92.5t-36.5 -112.5z" />
    <glyph glyph-name="dieresis" unicode="&#xa8;" horiz-adv-x="710" 
d="M61 1284q0 45 32 79q33 34 77 34q46 0 79 -34q34 -33 34 -79q0 -45 -34 -76q-34 -32 -79 -32q-43 0 -77 32q-32 32 -32 76zM428 1284q0 45 32 79q33 34 77 34q46 0 79 -34q33 -33 33 -79q0 -44 -33 -76q-34 -32 -79 -32q-43 0 -77 32q-32 32 -32 76z" />
    <glyph glyph-name="copyright" unicode="&#xa9;" horiz-adv-x="1646" 
d="M78 717q0 155 55 290q113 283 388 396q141 59 302 59t302 -59t237 -159q96 -99 152 -237q55 -135 55 -290t-55 -290q-57 -140 -152 -238q-96 -101 -237 -159q-141 -59 -302 -59q-216 0 -388 100q-170 100 -264 271q-93 170 -93 375zM823 70q136 0 255.5 50.5t201.5 138.5
q83 89 128.5 208t45.5 250q0 132 -45.5 250.5t-128.5 206.5q-82 89 -201.5 139.5t-255.5 50.5q-184 0 -329 -88q-145 -87 -223 -234t-78 -325t78 -325t223 -235q146 -87 329 -87zM473 717q0 174 112 279q112 106 269 106q128 0 211 -66l4 -116h-12q-88 75 -203 75
q-116 0 -189 -79q-73 -77 -73 -199q0 -125 70 -202q71 -77 192 -77q60 0 105.5 17.5t93.5 58.5h14l-6 -117q-76 -65 -207 -65q-162 0 -271 105q-110 105 -110 280z" />
    <glyph glyph-name="ordfeminine" unicode="&#xaa;" horiz-adv-x="872" 
d="M55 1073q0 155 107 265t264 110q76 0 141.5 -30.5t106.5 -78.5v88h117v-710h-117v90q-41 -49 -106.5 -80t-141.5 -31q-158 0 -264 109q-107 110 -107 268zM170 1073q0 -117 70 -194q70 -78 186 -78t186 78q70 77 70 194q0 113 -71 193t-185 80q-115 0 -186 -80
q-70 -79 -70 -193z" />
    <glyph glyph-name="guillemotleft" unicode="&#xab;" horiz-adv-x="1015" 
d="M535 262l-469 406v86l469 405h22v-168l-330 -280l330 -281v-168h-22zM911 262l-469 406v86l469 405h23v-168l-330 -280l330 -281v-168h-23z" />
    <glyph glyph-name="logicalnot" unicode="&#xac;" horiz-adv-x="937" 
d="M676 639h-570v147h725v-440h-155v293z" />
    <glyph glyph-name="uni00AD" unicode="&#xad;" horiz-adv-x="802" 
d="M717 582h-631v135h631v-135z" />
    <glyph glyph-name="registered" unicode="&#xae;" horiz-adv-x="1646" 
d="M78 717q0 155 55 290q113 283 388 396q141 59 302 59t302 -59t237 -159q96 -99 152 -237q55 -135 55 -290t-55 -290q-57 -140 -152 -238q-96 -101 -237 -159q-141 -59 -302 -59q-216 0 -388 100q-170 100 -264 271q-93 170 -93 375zM823 70q136 0 255.5 50.5t201.5 138.5
q83 89 128.5 208t45.5 250q0 132 -45.5 250.5t-128.5 206.5q-82 89 -201.5 139.5t-255.5 50.5q-184 0 -329 -88q-145 -87 -223 -234t-78 -325t78 -325t223 -235q146 -87 329 -87zM707 352h-105v762h221q111 0 182 -59q70 -58 70 -158q0 -77 -49 -129q-51 -54 -119 -76
l211 -340h-119l-200 328h-92v-328zM707 1016v-238h112q142 0 142 119q0 58 -36.5 88.5t-105.5 30.5h-112z" />
    <glyph glyph-name="overscore" unicode="&#xaf;" horiz-adv-x="593" 
d="M532 1208h-471v131h471v-131z" />
    <glyph glyph-name="degree" unicode="&#xb0;" horiz-adv-x="620" 
d="M132 1035q-73 72 -73 177t73 177q73 73 181 73t181 -73q73 -72 73 -177t-73 -177t-181 -72q-107 0 -181 72zM200 1327q-42 -45 -42 -115t42 -115q42 -44 113 -44t113 44q43 44 43 115t-43 115q-42 45 -113 45t-113 -45z" />
    <glyph glyph-name="plusminus" unicode="&#xb1;" horiz-adv-x="1011" 
d="M913 0h-815v135h815v-135zM438 684h-340v135h340v340h135v-340h340v-135h-340v-340h-135v340z" />
    <glyph glyph-name="twosuperior" unicode="&#xb2;" horiz-adv-x="575" 
d="M532 717h-503v16l284 336q74 89 74 168q0 46 -35.5 77.5t-87.5 31.5q-103 0 -184 -113h-19l9 129q39 39 93 62.5t107 23.5q101 0 168 -59q66 -59 66 -152q0 -108 -121 -244l-152 -174h301v-102z" />
    <glyph glyph-name="threesuperior" unicode="&#xb3;" horiz-adv-x="581" 
d="M68 756l-13 127h15q90 -78 190 -78q64 0 109 39q45 40 45 110t-47 112t-111 42q-40 0 -78 -12l-16 32l153 203h-256v103h445v-13l-178 -231q88 -10 150 -71q61 -60 61 -150q0 -126 -80 -197q-79 -70 -193 -70q-108 0 -196 54z" />
    <glyph glyph-name="acute" unicode="&#xb4;" horiz-adv-x="577" 
d="M213 1153h-139l188 281h242z" />
    <glyph glyph-name="mu" unicode="&#xb5;" 
d="M283 -463h-164v1475h164v-652q0 -112 66 -177q67 -64 177 -64q127 0 212 94q87 95 87 236v563h164v-1012h-164v152q-56 -80 -150 -131q-95 -50 -200 -50q-109 0 -192 45v-479z" />
    <glyph glyph-name="paragraph" unicode="&#xb6;" horiz-adv-x="1185" 
d="M422 1434h641v-1897h-176v1741h-260v-1741h-176v1258h-29q-171 0 -272 89q-101 90 -101 230t101 230t272 90z" />
    <glyph glyph-name="middot" unicode="&#xb7;" horiz-adv-x="391" 
d="M90 717q0 50 34 84q35 35 81 35q49 0 84 -35t35 -84q0 -46 -35 -81q-34 -34 -84 -34q-47 0 -81 34t-34 81z" />
    <glyph glyph-name="cedilla" unicode="&#xb8;" horiz-adv-x="665" 
d="M131 -459l-16 103l14 6q80 -45 152 -45q53 0 86.5 27.5t33.5 76.5t-33 76t-83 27q-57 0 -123 -29l-10 12l133 299l96 -35l-121 -186q60 23 121 23q74 0 122 -53t48 -130q0 -89 -69 -147q-68 -58 -185 -58q-93 0 -166 33z" />
    <glyph glyph-name="onesuperior" unicode="&#xb9;" horiz-adv-x="245" 
d="M184 717h-123v649l97 68h26v-717z" />
    <glyph glyph-name="ordmasculine" unicode="&#xba;" horiz-adv-x="856" 
d="M55 1073q0 162 107 269q107 106 266 106t265 -106q108 -106 108 -269q0 -165 -108 -271q-106 -106 -265 -106t-266 106q-107 107 -107 271zM170 1073q0 -121 73 -197q73 -75 185 -75q110 0 183 75q73 76 73 197q0 120 -73 196q-74 77 -183 77q-111 0 -185 -77
q-73 -76 -73 -196z" />
    <glyph glyph-name="guillemotright" unicode="&#xbb;" horiz-adv-x="1015" 
d="M104 262h-22v168l330 281l-330 280v168h22l469 -405v-86zM481 262h-22v168l329 281l-329 280v168h22l469 -405v-86z" />
    <glyph glyph-name="onequarter" unicode="&#xbc;" horiz-adv-x="1064" 
d="M78 213l-51 100l960 498l51 -100zM389 717h-123v649l96 68h27v-717zM307 -299v68l395 485h52v-451h98v-102h-98v-164h-123v164h-324zM631 12l-172 -209h172v209z" />
    <glyph glyph-name="onehalf" unicode="&#xbd;" horiz-adv-x="1064" 
d="M78 213l-51 100l960 498l51 -100zM389 717h-123v649l96 68h27v-717zM401 -463v17l285 335q74 89 74 168q0 46 -35.5 77.5t-87.5 31.5q-103 0 -184 -113h-19l8 129q39 39 93 62.5t108 23.5q101 0 168 -59q66 -58 66 -152q0 -107 -121 -243l-152 -174h301v-103h-504z" />
    <glyph glyph-name="threequarters" unicode="&#xbe;" horiz-adv-x="1064" 
d="M78 213l-51 100l960 498l51 -100zM55 756l-12 127h14q90 -78 191 -78q66 0 109.5 40.5t43.5 108.5q0 72 -46 112q-47 42 -111 42q-40 0 -78 -12l-16 32l153 203h-256v103h445v-13l-179 -231q88 -10 150 -71q61 -60 61 -150q0 -126 -80 -197q-79 -70 -192 -70
q-109 0 -197 54zM307 -299v68l395 485h52v-451h98v-102h-98v-164h-123v164h-324zM631 12l-172 -209h172v209z" />
    <glyph glyph-name="questiondown" unicode="&#xbf;" horiz-adv-x="884" 
d="M90 -119q0 159 112 286q14 15 46 49t48.5 52t41.5 50.5t37.5 57t22.5 57t10 65.5v88h163v-64q0 -62 -17.5 -117t-45.5 -97t-62 -80.5t-67.5 -75.5t-61.5 -74t-45.5 -83t-17.5 -97q0 -96 65 -155q65 -58 173 -58q92 0 178 50q85 49 135 113h18l-12 -176q-63 -51 -151 -86
q-89 -37 -177 -37q-173 0 -283 91q-110 90 -110 241zM392 810q-36 36 -36 89t36 89t89 36t89 -36t36 -89t-36 -89t-89 -36t-89 36z" />
    <glyph glyph-name="Agrave" unicode="&#xc0;" horiz-adv-x="1368" 
d="M219 0h-184l622 1434h54l622 -1434h-184l-123 291h-684zM600 1575l-291 280h242l188 -280h-139zM684 1090l-274 -644h548z" />
    <glyph glyph-name="Aacute" unicode="&#xc1;" horiz-adv-x="1368" 
d="M219 0h-184l622 1434h54l622 -1434h-184l-123 291h-684zM684 1090l-274 -644h548zM768 1575h-139l188 280h242z" />
    <glyph glyph-name="Acircumflex" unicode="&#xc2;" horiz-adv-x="1368" 
d="M219 0h-184l622 1434h54l622 -1434h-184l-123 291h-684zM500 1575h-123l205 280h215l204 -280h-122l-191 182zM684 1090l-274 -644h548z" />
    <glyph glyph-name="Atilde" unicode="&#xc3;" horiz-adv-x="1368" 
d="M219 0h-184l622 1434h54l622 -1434h-184l-123 291h-684zM334 1602h-10l14 147q92 86 203 86q91 0 172 -59q83 -58 145 -58q88 0 178 99h11l-15 -148q-92 -86 -203 -86q-89 0 -172 58q-81 59 -145 59q-89 0 -178 -98zM684 1090l-274 -644h548z" />
    <glyph glyph-name="Adieresis" unicode="&#xc4;" horiz-adv-x="1368" 
d="M219 0h-184l622 1434h54l622 -1434h-184l-123 291h-684zM391 1706q0 45 32 79q33 34 77 34q46 0 79 -34q33 -33 33 -79q0 -44 -33 -77q-34 -32 -79 -32q-43 0 -77 32q-32 34 -32 77zM684 1090l-274 -644h548zM758 1706q0 45 32 79q31 34 76 34q46 0 79 -34q34 -33 34 -79
q0 -44 -34 -77q-34 -32 -79 -32q-44 0 -76 32q-32 34 -32 77z" />
    <glyph glyph-name="Aring" unicode="&#xc5;" horiz-adv-x="1368" 
d="M219 0h-184l596 1370q-72 20 -114 74q-44 56 -44 127q0 87 61 147q62 60 150 60t150 -60q61 -60 61 -147q0 -71 -44 -127q-42 -54 -114 -74l596 -1370h-184l-123 291h-684zM684 1090l-274 -644h548zM591 1662q-36 -38 -36 -91q0 -55 36 -92t93 -37t93 37t36 92
q0 53 -36 91t-93 38t-93 -38z" />
    <glyph glyph-name="AE" unicode="&#xc6;" horiz-adv-x="1994" 
d="M219 0h-184l622 1434h666l70 -156h-623l207 -463h571l66 -156h-570l222 -503h626l68 -156h-811l-123 291h-684zM684 1090l-272 -644h546z" />
    <glyph glyph-name="Ccedilla" unicode="&#xc7;" horiz-adv-x="1353" 
d="M82 717q0 158 57 297.5t157 237.5q101 99 234 154q138 56 287 56q237 0 418 -123l12 -202h-20q-185 170 -418 170q-108 0 -206 -40.5t-174 -115.5q-76 -76 -119.5 -188.5t-43.5 -245.5t43.5 -245.5t119.5 -188.5q76 -75 174 -115.5t206 -40.5q233 0 418 170h20l-12 -203
q-177 -120 -418 -123l-63 -98q60 23 120 23q78 0 124 -52t46 -131q0 -89 -66 -147q-65 -58 -181 -58q-99 0 -172 33l-17 103l15 6q79 -45 151 -45q50 0 85.5 29t35.5 79q0 49 -33.5 74t-87.5 25q-53 0 -119 -29l-10 12l80 182q-135 15 -254 75.5t-206 157.5
q-86 98 -134.5 229.5t-48.5 277.5z" />
    <glyph glyph-name="Egrave" unicode="&#xc8;" horiz-adv-x="1062" 
d="M971 0h-828v1434h820v-156h-635v-463h612v-156h-612v-503h643v-156zM590 1575l-291 280h242l188 -280h-139z" />
    <glyph glyph-name="Eacute" unicode="&#xc9;" horiz-adv-x="1062" 
d="M971 0h-828v1434h820v-156h-635v-463h612v-156h-612v-503h643v-156zM537 1575h-140l189 280h241z" />
    <glyph glyph-name="Ecircumflex" unicode="&#xca;" horiz-adv-x="1062" 
d="M971 0h-828v1434h820v-156h-635v-463h612v-156h-612v-503h643v-156zM373 1575h-123l205 280h215l204 -280h-122l-191 182z" />
    <glyph glyph-name="Edieresis" unicode="&#xcb;" horiz-adv-x="1062" 
d="M971 0h-828v1434h820v-156h-635v-463h612v-156h-612v-503h643v-156zM287 1706q0 45 32 79q31 34 76 34q46 0 79 -34q34 -33 34 -79q0 -44 -34 -77q-34 -32 -79 -32q-44 0 -76 32q-32 34 -32 77zM653 1706q0 45 32 79q33 34 77 34q46 0 79 -34q33 -33 33 -79
q0 -44 -33 -77q-34 -32 -79 -32q-43 0 -77 32q-32 34 -32 77z" />
    <glyph glyph-name="Igrave" unicode="&#xcc;" horiz-adv-x="471" 
d="M219 1575l-291 280h242l188 -280h-139zM328 0h-185v1434h185v-1434z" />
    <glyph glyph-name="Iacute" unicode="&#xcd;" horiz-adv-x="471" 
d="M242 1575h-140l189 280h241zM328 0h-185v1434h185v-1434z" />
    <glyph glyph-name="Icircumflex" unicode="&#xce;" horiz-adv-x="471" 
d="M47 1575h-123l205 280h215l205 -280h-123l-190 182zM328 0h-185v1434h185v-1434z" />
    <glyph glyph-name="Idieresis" unicode="&#xcf;" horiz-adv-x="471" 
d="M-57 1706q0 45 32 79q31 34 76 34q46 0 79 -34q34 -33 34 -79q0 -44 -34 -77q-34 -32 -79 -32q-44 0 -76 32q-32 34 -32 77zM328 0h-185v1434h185v-1434zM309 1706q0 45 32 79q33 34 77 34q46 0 79 -34q33 -33 33 -79q0 -44 -33 -77q-34 -32 -79 -32q-43 0 -77 32
q-32 34 -32 77z" />
    <glyph glyph-name="Eth" unicode="&#xd0;" horiz-adv-x="1296" 
d="M160 647h-160v135h160v652h319q146 0 279 -49t235 -140q101 -90 161 -227t60 -301q0 -165 -60 -301q-60 -137 -161 -227q-102 -91 -235 -140t-279 -49h-319v647zM344 647v-491h139q232 0 387 144q76 71 118 179t42 238q0 131 -42 238.5t-118 177.5q-154 145 -387 145
h-139v-496h287v-135h-287z" />
    <glyph glyph-name="Ntilde" unicode="&#xd1;" horiz-adv-x="1382" 
d="M328 0h-185v1434h70l842 -1008v1008h184v-1434h-70l-841 1012v-1012zM340 1602h-10l14 147q92 86 203 86q91 0 172 -59q83 -58 145 -58q88 0 178 99h11l-15 -148q-92 -86 -202 -86q-90 0 -173 58q-81 59 -145 59q-89 0 -178 -98z" />
    <glyph glyph-name="Ograve" unicode="&#xd2;" horiz-adv-x="1658" 
d="M82 717q0 159 58 296q58 139 158 237q102 100 238 155q138 57 293 57t293 -57q136 -55 238 -155q99 -96 158 -237q59 -139 59 -296q0 -210 -100 -382q-99 -170 -270 -268q-171 -96 -378 -96t-378 96q-171 98 -270 268q-99 172 -99 382zM829 127q156 0 284 69
q127 70 203 206q77 137 77 315t-77 315q-75 134 -201.5 204.5t-285.5 70.5q-237 0 -399 -156q-77 -76 -120.5 -188.5t-43.5 -245.5t43.5 -245.5t120.5 -188.5q162 -156 399 -156zM813 1575l-291 280h242l188 -280h-139z" />
    <glyph glyph-name="Oacute" unicode="&#xd3;" horiz-adv-x="1658" 
d="M82 717q0 159 58 296q58 139 158 237q102 100 238 155q138 57 293 57t293 -57q136 -55 238 -155q99 -96 158 -237q59 -139 59 -296q0 -210 -100 -382q-99 -170 -270 -268q-171 -96 -378 -96t-378 96q-171 98 -270 268q-99 172 -99 382zM829 127q156 0 284 69
q127 70 203 206q77 137 77 315t-77 315q-75 134 -201.5 204.5t-285.5 70.5q-237 0 -399 -156q-77 -76 -120.5 -188.5t-43.5 -245.5t43.5 -245.5t120.5 -188.5q162 -156 399 -156zM846 1575h-139l188 280h242z" />
    <glyph glyph-name="Ocircumflex" unicode="&#xd4;" horiz-adv-x="1658" 
d="M82 717q0 159 58 296q58 139 158 237q102 100 238 155q138 57 293 57t293 -57q136 -55 238 -155q99 -96 158 -237q59 -139 59 -296q0 -210 -100 -382q-99 -170 -270 -268q-171 -96 -378 -96t-378 96q-171 98 -270 268q-99 172 -99 382zM829 127q156 0 284 69
q127 70 203 206q77 137 77 315t-77 315q-75 134 -201.5 204.5t-285.5 70.5q-237 0 -399 -156q-77 -76 -120.5 -188.5t-43.5 -245.5t43.5 -245.5t120.5 -188.5q162 -156 399 -156zM641 1575h-123l205 280h215l205 -280h-123l-191 182z" />
    <glyph glyph-name="Otilde" unicode="&#xd5;" horiz-adv-x="1658" 
d="M82 717q0 159 58 296q58 139 158 237q102 100 238 155q138 57 293 57t293 -57q136 -55 238 -155q99 -96 158 -237q59 -139 59 -296q0 -210 -100 -382q-99 -170 -270 -268q-171 -96 -378 -96t-378 96q-171 98 -270 268q-99 172 -99 382zM829 127q156 0 284 69
q127 70 203 206q77 137 77 315t-77 315q-75 134 -201.5 204.5t-285.5 70.5q-237 0 -399 -156q-77 -76 -120.5 -188.5t-43.5 -245.5t43.5 -245.5t120.5 -188.5q162 -156 399 -156zM479 1602h-10l14 147q92 86 203 86q45 0 92.5 -17.5t80.5 -41.5q83 -58 145 -58q88 0 178 99
h10l-14 -148q-92 -86 -203 -86q-90 0 -173 58q-81 59 -145 59q-89 0 -178 -98z" />
    <glyph glyph-name="Odieresis" unicode="&#xd6;" horiz-adv-x="1658" 
d="M82 717q0 159 58 296q58 139 158 237q102 100 238 155q138 57 293 57t293 -57q136 -55 238 -155q99 -96 158 -237q59 -139 59 -296q0 -210 -100 -382q-99 -170 -270 -268q-171 -96 -378 -96t-378 96q-171 98 -270 268q-99 172 -99 382zM829 127q156 0 284 69
q127 70 203 206q77 137 77 315t-77 315q-75 134 -201.5 204.5t-285.5 70.5q-237 0 -399 -156q-77 -76 -120.5 -188.5t-43.5 -245.5t43.5 -245.5t120.5 -188.5q162 -156 399 -156zM537 1706q0 45 32 79q31 34 76 34q46 0 79 -34q34 -33 34 -79q0 -44 -34 -77q-34 -32 -79 -32
q-44 0 -76 32q-32 34 -32 77zM903 1706q0 45 32 79q33 34 77 34q46 0 79 -34q33 -33 33 -79q0 -44 -33 -77q-34 -32 -79 -32q-43 0 -77 32q-32 34 -32 77z" />
    <glyph glyph-name="multiply" unicode="&#xd7;" horiz-adv-x="868" 
d="M195 416l-97 96l240 240l-240 239l97 96l239 -239l240 239l96 -96l-240 -239l240 -240l-96 -96l-240 239z" />
    <glyph glyph-name="Oslash" unicode="&#xd8;" horiz-adv-x="1658" 
d="M82 717q0 159 58 296q58 139 158 237q102 100 238 155q138 57 293 57q156 0 304 -59l59 104l135 -73l-59 -107q144 -101 226 -260q83 -160 83 -350q0 -210 -100 -382q-99 -170 -270 -268q-171 -96 -378 -96q-155 0 -303 60l-59 -105l-135 74l59 106q-145 101 -227 259
q-82 160 -82 352zM266 717q0 -151 53.5 -272t151.5 -199l584 1020q-108 41 -226 41q-237 0 -399 -156q-77 -76 -120.5 -188.5t-43.5 -245.5zM1188 1188l-584 -1020q108 -41 225 -41q156 0 284 69q127 70 203 206q77 137 77 315q0 151 -53.5 272t-151.5 199z" />
    <glyph glyph-name="Ugrave" unicode="&#xd9;" horiz-adv-x="1306" 
d="M123 535v899h184v-930q0 -96 29.5 -171.5t80.5 -119.5q103 -86 236 -86q134 0 235 86q52 44 81.5 119.5t29.5 171.5v930h185v-899q0 -267 -146 -416q-145 -148 -385 -148q-239 0 -384 147q-146 149 -146 417zM688 1575l-291 280h242l188 -280h-139z" />
    <glyph glyph-name="Uacute" unicode="&#xda;" horiz-adv-x="1306" 
d="M123 535v899h184v-930q0 -96 29.5 -171.5t80.5 -119.5q103 -86 236 -86q134 0 235 86q52 44 81.5 119.5t29.5 171.5v930h185v-899q0 -267 -146 -416q-145 -148 -385 -148q-239 0 -384 147q-146 149 -146 417zM618 1575h-139l189 280h241z" />
    <glyph glyph-name="Ucircumflex" unicode="&#xdb;" horiz-adv-x="1306" 
d="M123 535v899h184v-930q0 -96 29.5 -171.5t80.5 -119.5q103 -86 236 -86q134 0 235 86q52 44 81.5 119.5t29.5 171.5v930h185v-899q0 -267 -146 -416q-145 -148 -385 -148q-239 0 -384 147q-146 149 -146 417zM465 1575h-123l205 280h215l205 -280h-123l-191 182z" />
    <glyph glyph-name="Udieresis" unicode="&#xdc;" horiz-adv-x="1306" 
d="M123 535v899h184v-930q0 -96 29.5 -171.5t80.5 -119.5q103 -86 236 -86q134 0 235 86q52 44 81.5 119.5t29.5 171.5v930h185v-899q0 -267 -146 -416q-145 -148 -385 -148q-239 0 -384 147q-146 149 -146 417zM360 1706q0 45 32 79q33 34 77 34q46 0 79 -34q34 -33 34 -79
q0 -44 -34 -77q-34 -32 -79 -32q-43 0 -77 32q-32 34 -32 77zM727 1706q0 45 32 79q33 34 77 34q46 0 79 -34q33 -33 33 -79q0 -44 -33 -77q-34 -32 -79 -32q-43 0 -77 32q-32 34 -32 77z" />
    <glyph glyph-name="Yacute" unicode="&#xdd;" horiz-adv-x="1200" 
d="M508 623l-479 811h196l375 -652l375 652h196l-479 -811v-623h-184v623zM565 1575h-139l188 280h242z" />
    <glyph glyph-name="Thorn" unicode="&#xde;" horiz-adv-x="1028" 
d="M307 0h-184v1434h184v-271h180q116 0 213.5 -37t159.5 -101q129 -129 129 -308q0 -178 -129 -309q-62 -64 -159.5 -101t-213.5 -37h-180v-270zM307 1008v-582h182q140 0 228 77q88 76 88 214t-88 214q-88 77 -228 77h-182z" />
    <glyph glyph-name="germandbls" unicode="&#xdf;" horiz-adv-x="1198" 
d="M207 864h-137v148h137v78q0 112 53 198q53 85 136.5 129.5t183.5 44.5q171 0 271 -94q101 -95 101 -242q0 -116 -63 -203.5t-172 -136.5q165 -38 282 -137q61 -51 95 -125.5t34 -163.5q0 -174 -105 -282q-105 -107 -265 -107q-83 0 -164 26.5t-141 72.5l39 159h12
q43 -46 110 -74q66 -28 127 -28q99 0 161 65q63 64 63 177q0 139 -131 228t-328 101v148q133 11 207.5 81.5t74.5 188.5q0 87 -58 146q-57 61 -150 61t-151 -61t-58 -166v-1096h-164v864z" />
    <glyph glyph-name="agrave" unicode="&#xe0;" horiz-adv-x="1255" 
d="M606 1040q108 0 201.5 -42.5t153.5 -112.5v127h163v-1012h-163v127q-60 -70 -153.5 -113t-201.5 -43q-148 0 -270 72q-120 71 -190 194q-68 124 -68 269q0 146 68 268q70 124 190 194q122 72 270 72zM342 781q-100 -112 -100 -275t100 -275t264 -112t264 112
q101 113 101 275t-101 275q-100 112 -264 112t-264 -112zM641 1153l-291 281h242l188 -281h-139z" />
    <glyph glyph-name="aacute" unicode="&#xe1;" horiz-adv-x="1255" 
d="M606 1040q108 0 201.5 -42.5t153.5 -112.5v127h163v-1012h-163v127q-60 -70 -153.5 -113t-201.5 -43q-148 0 -270 72q-120 71 -190 194q-68 124 -68 269q0 146 68 268q70 124 190 194q122 72 270 72zM342 781q-100 -112 -100 -275t100 -275t264 -112t264 112
q101 113 101 275t-101 275q-100 112 -264 112t-264 -112zM571 1153h-139l189 281h241z" />
    <glyph glyph-name="acircumflex" unicode="&#xe2;" horiz-adv-x="1255" 
d="M606 1040q108 0 201.5 -42.5t153.5 -112.5v127h163v-1012h-163v127q-60 -70 -153.5 -113t-201.5 -43q-148 0 -270 72q-120 71 -190 194q-68 124 -68 269q0 146 68 268q70 124 190 194q122 72 270 72zM342 781q-100 -112 -100 -275t100 -275t264 -112t264 112
q101 113 101 275t-101 275q-100 112 -264 112t-264 -112zM418 1153h-123l205 281h215l205 -281h-123l-191 182z" />
    <glyph glyph-name="atilde" unicode="&#xe3;" horiz-adv-x="1255" 
d="M606 1040q108 0 201.5 -42.5t153.5 -112.5v127h163v-1012h-163v127q-60 -70 -153.5 -113t-201.5 -43q-148 0 -270 72q-120 71 -190 194q-68 124 -68 269q0 146 68 268q70 124 190 194q122 72 270 72zM342 781q-100 -112 -100 -275t100 -275t264 -112t264 112
q101 113 101 275t-101 275q-100 112 -264 112t-264 -112zM266 1180h-10l14 147q92 86 203 86q45 0 92.5 -17.5t80.5 -41.5q83 -58 145 -58q88 0 178 99h10l-14 -148q-92 -86 -203 -86q-90 0 -173 58q-81 59 -145 59q-89 0 -178 -98z" />
    <glyph glyph-name="adieresis" unicode="&#xe4;" horiz-adv-x="1255" 
d="M606 1040q108 0 201.5 -42.5t153.5 -112.5v127h163v-1012h-163v127q-60 -70 -153.5 -113t-201.5 -43q-148 0 -270 72q-120 71 -190 194q-68 124 -68 269q0 146 68 268q70 124 190 194q122 72 270 72zM342 781q-100 -112 -100 -275t100 -275t264 -112t264 112
q101 113 101 275t-101 275q-100 112 -264 112t-264 -112zM313 1284q0 45 32 79q33 34 77 34q46 0 79 -34q34 -33 34 -79q0 -45 -34 -76q-34 -32 -79 -32q-43 0 -77 32q-32 32 -32 76zM680 1284q0 45 32 79q31 34 76 34q46 0 79 -34q34 -33 34 -79q0 -45 -34 -76
q-34 -32 -79 -32q-44 0 -76 32t-32 76z" />
    <glyph glyph-name="aring" unicode="&#xe5;" horiz-adv-x="1255" 
d="M606 1040q108 0 201.5 -42.5t153.5 -112.5v127h163v-1012h-163v127q-60 -70 -153.5 -113t-201.5 -43q-148 0 -270 72q-120 71 -190 194q-68 124 -68 269q0 146 68 268q70 124 190 194q122 72 270 72zM342 781q-100 -112 -100 -275t100 -275t264 -112t264 112
q101 113 101 275t-101 275q-100 112 -264 112t-264 -112zM456 1174q-61 60 -61 147t61 147q62 60 150 60t150 -60q61 -60 61 -147t-61 -147q-62 -60 -150 -60t-150 60zM513 1412q-36 -38 -36 -91q0 -55 36 -92t93 -37t93 37t36 92q0 53 -36 91t-93 38t-93 -38z" />
    <glyph glyph-name="ae" unicode="&#xe6;" horiz-adv-x="1775" 
d="M78 250q0 74 28 133.5t74.5 99t109.5 66t129 38t136 11.5h141q0 165 -76 238q-66 69 -161 69q-153 0 -279 -133h-22l16 170q53 39 136 68q82 30 165 30q109 0 200 -53t134 -141q73 92 175 143t216 51q216 0 352 -136q138 -135 138 -359v-82h-830q9 -108 65 -188
q109 -156 298 -156q107 0 193 36q88 38 186 128h16l-6 -179q-92 -68 -184 -100.5t-203 -32.5q-138 0 -253.5 61.5t-185.5 170.5q-64 -106 -166 -169q-100 -63 -214 -63q-147 0 -238 82q-90 83 -90 197zM250 268q0 -69 47 -109t125 -40q101 0 183 82q42 40 66.5 109.5
t24.5 152.5q-446 0 -446 -195zM868 598h672q-15 136 -108 222q-92 85 -232 85q-118 0 -212 -81q-94 -79 -120 -226z" />
    <glyph glyph-name="ccedilla" unicode="&#xe7;" horiz-adv-x="1011" 
d="M78 506q0 160 74 284q74 122 192.5 186t261.5 64q174 0 293 -90l6 -164h-18q-67 57 -131 82q-63 25 -150 25q-161 0 -263 -109q-101 -110 -101 -278q0 -172 97 -279q97 -108 267 -108q84 0 147.5 24.5t129.5 81.5h18l-6 -164q-115 -90 -287 -90l-63 -98q60 23 121 23
q78 0 124 -52t46 -131q0 -89 -67 -147q-65 -58 -181 -58q-98 0 -172 33l-17 103l15 6q80 -45 151 -45q50 0 85.5 29t35.5 79q0 49 -33.5 74t-87.5 25q-53 0 -119 -29l-10 12l82 185q-191 27 -316 168q-124 140 -124 358z" />
    <glyph glyph-name="egrave" unicode="&#xe8;" horiz-adv-x="1157" 
d="M78 506q0 110 40 210.5t109 171.5q70 71 163 111.5t192 40.5q216 0 352 -136q137 -135 137 -359v-82h-829q9 -108 65 -188q109 -156 297 -156q108 0 193 36q88 38 186 128h16l-6 -179q-92 -68 -184 -100.5t-203 -32.5q-148 0 -270 71q-120 70 -190 193q-68 124 -68 271z
M250 598h672q-15 136 -108 222q-92 85 -232 85q-118 0 -212 -81q-94 -79 -120 -226zM592 1153l-291 281h242l188 -281h-139z" />
    <glyph glyph-name="eacute" unicode="&#xe9;" horiz-adv-x="1157" 
d="M78 506q0 110 40 210.5t109 171.5q70 71 163 111.5t192 40.5q216 0 352 -136q137 -135 137 -359v-82h-829q9 -108 65 -188q109 -156 297 -156q108 0 193 36q88 38 186 128h16l-6 -179q-92 -68 -184 -100.5t-203 -32.5q-148 0 -270 71q-120 70 -190 193q-68 124 -68 271z
M250 598h672q-15 136 -108 222q-92 85 -232 85q-118 0 -212 -81q-94 -79 -120 -226zM563 1153h-139l188 281h242z" />
    <glyph glyph-name="ecircumflex" unicode="&#xea;" horiz-adv-x="1157" 
d="M78 506q0 110 40 210.5t109 171.5q70 71 163 111.5t192 40.5q216 0 352 -136q137 -135 137 -359v-82h-829q9 -108 65 -188q109 -156 297 -156q108 0 193 36q88 38 186 128h16l-6 -179q-92 -68 -184 -100.5t-203 -32.5q-148 0 -270 71q-120 70 -190 193q-68 124 -68 271z
M250 598h672q-15 136 -108 222q-92 85 -232 85q-118 0 -212 -81q-94 -79 -120 -226zM389 1153h-123l205 281h215l205 -281h-123l-190 182z" />
    <glyph glyph-name="edieresis" unicode="&#xeb;" horiz-adv-x="1157" 
d="M78 506q0 110 40 210.5t109 171.5q70 71 163 111.5t192 40.5q216 0 352 -136q137 -135 137 -359v-82h-829q9 -108 65 -188q109 -156 297 -156q108 0 193 36q88 38 186 128h16l-6 -179q-92 -68 -184 -100.5t-203 -32.5q-148 0 -270 71q-120 70 -190 193q-68 124 -68 271z
M250 598h672q-15 136 -108 222q-92 85 -232 85q-118 0 -212 -81q-94 -79 -120 -226zM285 1284q0 45 32 79q31 34 76 34q46 0 79 -34q34 -33 34 -79q0 -45 -34 -76q-34 -32 -79 -32q-44 0 -76 32t-32 76zM651 1284q0 45 32 79q33 34 77 34q46 0 79 -34q33 -33 33 -79
q0 -44 -33 -76q-34 -32 -79 -32q-43 0 -77 32q-32 32 -32 76z" />
    <glyph glyph-name="igrave" unicode="&#xec;" horiz-adv-x="446" 
d="M227 1153l-290 281h241l189 -281h-140zM305 0h-164v1012h164v-1012z" />
    <glyph glyph-name="iacute" unicode="&#xed;" horiz-adv-x="446" 
d="M209 1153h-139l188 281h242zM305 0h-164v1012h164v-1012z" />
    <glyph glyph-name="icircumflex" unicode="&#xee;" horiz-adv-x="446" 
d="M35 1153h-123l205 281h215l205 -281h-123l-191 182zM305 0h-164v1012h164v-1012z" />
    <glyph glyph-name="idieresis" unicode="&#xef;" horiz-adv-x="446" 
d="M-70 1284q0 46 33 79q31 34 76 34q46 0 79 -34q34 -33 34 -79q0 -45 -34 -76q-34 -32 -79 -32q-44 0 -76 32q-33 32 -33 76zM305 0h-164v1012h164v-1012zM297 1284q0 45 32 79q33 34 77 34q46 0 79 -34q33 -33 33 -79q0 -44 -33 -76q-34 -32 -79 -32q-43 0 -77 32
q-32 32 -32 76z" />
    <glyph glyph-name="eth" unicode="&#xf0;" horiz-adv-x="1169" 
d="M78 455q0 100 39.5 190.5t107.5 152.5q66 62 153 97t177 35q104 0 191 -45q87 -44 143 -115q-32 221 -201 383l-334 -137l-32 82l292 119q-104 81 -258 137v32l146 68q159 -67 278 -168l181 76l32 -82l-145 -59q235 -256 235 -646q0 -171 -64 -308q-65 -138 -183 -217
t-271 -79q-127 -3 -241.5 64t-181.5 180.5t-64 239.5zM352 684q-90 -88 -90 -229q0 -140 90 -230t219 -90t220 90q92 92 92 230q0 139 -92 229q-91 90 -220 90t-219 -90z" />
    <glyph glyph-name="ntilde" unicode="&#xf1;" 
d="M295 0h-164v1012h164v-152q57 81 150 130q95 50 200 50q159 0 257 -96q99 -96 99 -258v-686h-163v651q0 113 -67 177q-68 65 -177 65q-126 0 -213 -95q-86 -95 -86 -235v-563zM229 1180h-10l14 147q92 86 203 86q45 0 92.5 -17.5t80.5 -41.5q83 -58 145 -58q88 0 178 99
h10l-14 -148q-92 -86 -203 -86q-89 0 -172 58q-81 59 -145 59q-90 0 -179 -98z" />
    <glyph glyph-name="ograve" unicode="&#xf2;" horiz-adv-x="1216" 
d="M230 122q-152 152 -152 384q0 231 152 383q152 151 378 151t378 -151q153 -151 153 -383t-153 -384q-152 -151 -378 -151t-378 151zM608 119q160 0 263 108q104 109 104 279t-104 279q-103 108 -263 108q-158 0 -262 -108q-104 -109 -104 -279t104 -279
q103 -108 262 -108zM623 1153l-291 281h241l189 -281h-139z" />
    <glyph glyph-name="oacute" unicode="&#xf3;" horiz-adv-x="1216" 
d="M230 122q-152 152 -152 384q0 231 152 383q152 151 378 151t378 -151q153 -151 153 -383t-153 -384q-152 -151 -378 -151t-378 151zM608 119q160 0 263 108q104 109 104 279t-104 279q-103 108 -263 108q-158 0 -262 -108q-104 -109 -104 -279t104 -279
q103 -108 262 -108zM594 1153h-139l188 281h242z" />
    <glyph glyph-name="ocircumflex" unicode="&#xf4;" horiz-adv-x="1216" 
d="M230 122q-152 152 -152 384q0 231 152 383q152 151 378 151t378 -151q153 -151 153 -383t-153 -384q-152 -151 -378 -151t-378 151zM608 119q160 0 263 108q104 109 104 279t-104 279q-103 108 -263 108q-158 0 -262 -108q-104 -109 -104 -279t104 -279
q103 -108 262 -108zM420 1153h-123l205 281h215l205 -281h-123l-191 182z" />
    <glyph glyph-name="otilde" unicode="&#xf5;" horiz-adv-x="1216" 
d="M230 122q-152 152 -152 384q0 231 152 383q152 151 378 151t378 -151q153 -151 153 -383t-153 -384q-152 -151 -378 -151t-378 151zM608 119q160 0 263 108q104 109 104 279t-104 279q-103 108 -263 108q-158 0 -262 -108q-104 -109 -104 -279t104 -279
q103 -108 262 -108zM258 1180h-10l14 147q92 86 203 86q91 0 172 -59q83 -58 145 -58q89 0 179 99h10l-15 -148q-92 -86 -202 -86q-90 0 -173 58q-81 59 -145 59q-89 0 -178 -98z" />
    <glyph glyph-name="odieresis" unicode="&#xf6;" horiz-adv-x="1216" 
d="M230 122q-152 152 -152 384q0 231 152 383q152 151 378 151t378 -151q153 -151 153 -383t-153 -384q-152 -151 -378 -151t-378 151zM608 119q160 0 263 108q104 109 104 279t-104 279q-103 108 -263 108q-158 0 -262 -108q-104 -109 -104 -279t104 -279
q103 -108 262 -108zM315 1284q0 45 32 79q33 34 77 34q46 0 79 -34q34 -33 34 -79q0 -45 -34 -76q-34 -32 -79 -32q-43 0 -77 32q-32 32 -32 76zM682 1284q0 45 32 79q33 34 77 34q46 0 79 -34q33 -33 33 -79q0 -44 -33 -76q-34 -32 -79 -32q-43 0 -77 32q-32 32 -32 76z
" />
    <glyph glyph-name="divide" unicode="&#xf7;" horiz-adv-x="1011" 
d="M913 614h-815v136h815v-136zM389 307q0 50 34 84q35 35 81 35q49 0 84 -35t35 -84q0 -46 -35 -81q-34 -33 -84 -33q-46 0 -81 33q-34 34 -34 81zM389 1061q0 50 34 84q35 35 81 35q49 0 84 -35t35 -84q0 -46 -35 -81q-34 -34 -84 -34q-47 0 -81 34t-34 81z" />
    <glyph glyph-name="oslash" unicode="&#xf8;" horiz-adv-x="1216" 
d="M78 506q0 231 152 383q152 151 378 151q111 0 197 -34l45 79l135 -73l-45 -80q94 -73 146.5 -184t52.5 -242q0 -232 -153 -384q-152 -151 -378 -151q-105 0 -196 35l-45 -80l-136 74l45 80q-94 73 -146 183.5t-52 242.5zM242 506q0 -180 112 -289l377 657q-60 19 -123 19
q-158 0 -262 -108q-104 -109 -104 -279zM862 795l-377 -658q59 -18 123 -18q160 0 263 108q104 109 104 279q0 179 -113 289z" />
    <glyph glyph-name="ugrave" unicode="&#xf9;" 
d="M119 326v686h164v-652q0 -112 66 -177q67 -64 177 -64q127 0 212 94q87 95 87 236v563h164v-1012h-164v152q-56 -80 -150 -131q-95 -50 -200 -50q-159 0 -258 96q-98 98 -98 259zM553 1153l-291 281h242l188 -281h-139z" />
    <glyph glyph-name="uacute" unicode="&#xfa;" 
d="M119 326v686h164v-652q0 -112 66 -177q67 -64 177 -64q127 0 212 94q87 95 87 236v563h164v-1012h-164v152q-56 -80 -150 -131q-95 -50 -200 -50q-159 0 -258 96q-98 98 -98 259zM545 1153h-139l188 281h242z" />
    <glyph glyph-name="ucircumflex" unicode="&#xfb;" 
d="M119 326v686h164v-652q0 -112 66 -177q67 -64 177 -64q127 0 212 94q87 95 87 236v563h164v-1012h-164v152q-56 -80 -150 -131q-95 -50 -200 -50q-159 0 -258 96q-98 98 -98 259zM371 1153h-123l205 281h215l204 -281h-122l-191 182z" />
    <glyph glyph-name="udieresis" unicode="&#xfc;" 
d="M119 326v686h164v-652q0 -112 66 -177q67 -64 177 -64q127 0 212 94q87 95 87 236v563h164v-1012h-164v152q-56 -80 -150 -131q-95 -50 -200 -50q-159 0 -258 96q-98 98 -98 259zM266 1284q0 45 32 79q33 34 77 34q46 0 79 -34q33 -33 33 -79q0 -44 -33 -76
q-34 -32 -79 -32q-43 0 -77 32q-32 32 -32 76zM633 1284q0 45 32 79q31 34 76 34q46 0 79 -34q34 -33 34 -79q0 -45 -34 -76q-34 -32 -79 -32q-44 0 -76 32t-32 76z" />
    <glyph glyph-name="yacute" unicode="&#xfd;" horiz-adv-x="1038" 
d="M438 182l-403 830h184l305 -650l314 650h166l-713 -1475h-164zM504 1153h-139l188 281h242z" />
    <glyph glyph-name="thorn" unicode="&#xfe;" horiz-adv-x="1263" 
d="M295 -463h-164v1897h164v-574q69 77 164 128q95 52 211 52q219 0 367 -151q149 -151 149 -383q0 -114 -40 -215t-110 -172q-70 -70 -163.5 -109t-196.5 -39q-123 0 -222 49t-159 127v-610zM390 780q-105 -112 -105 -274t105 -274q105 -113 263 -113t263 113
q106 113 106 274t-106 273q-105 114 -263 114t-263 -113z" />
    <glyph glyph-name="ydieresis" unicode="&#xff;" horiz-adv-x="1038" 
d="M438 182l-403 830h184l305 -650l314 650h166l-713 -1475h-164zM225 1284q0 45 32 79q33 34 77 34q46 0 79 -34q33 -33 33 -79q0 -44 -33 -76q-34 -32 -79 -32q-43 0 -77 32q-32 32 -32 76zM592 1284q0 45 32 79q31 34 76 34q46 0 79 -34q34 -33 34 -79q0 -45 -34 -76
q-34 -32 -79 -32q-44 0 -76 32t-32 76z" />
    <glyph glyph-name="Amacron" unicode="&#x100;" horiz-adv-x="1368" 
d="M219 0h-184l622 1434h54l622 -1434h-184l-123 291h-684zM684 1090l-274 -644h548zM920 1630h-471v131h471v-131z" />
    <glyph glyph-name="amacron" unicode="&#x101;" horiz-adv-x="1255" 
d="M606 1040q108 0 201.5 -42.5t153.5 -112.5v127h163v-1012h-163v127q-60 -70 -153.5 -113t-201.5 -43q-148 0 -270 72q-120 71 -190 194q-68 124 -68 269q0 146 68 268q70 124 190 194q122 72 270 72zM342 781q-100 -112 -100 -275t100 -275t264 -112t264 112
q101 113 101 275t-101 275q-100 112 -264 112t-264 -112zM862 1208h-471v131h471v-131z" />
    <glyph glyph-name="Abreve" unicode="&#x102;" horiz-adv-x="1368" 
d="M219 0h-184l622 1434h54l622 -1434h-184l-123 291h-684zM684 1090l-274 -644h548zM444 1774h127q0 -64 29 -100t84 -36t84 36t29 100h127q0 -105 -67 -172q-66 -66 -173 -66q-106 0 -174 66q-66 67 -66 172z" />
    <glyph glyph-name="abreve" unicode="&#x103;" horiz-adv-x="1255" 
d="M606 1040q108 0 201.5 -42.5t153.5 -112.5v127h163v-1012h-163v127q-60 -70 -153.5 -113t-201.5 -43q-148 0 -270 72q-120 71 -190 194q-68 124 -68 269q0 146 68 268q70 124 190 194q122 72 270 72zM342 781q-100 -112 -100 -275t100 -275t264 -112t264 112
q101 113 101 275t-101 275q-100 112 -264 112t-264 -112zM387 1393h127q0 -64 29 -100t84 -36t83.5 36t28.5 100h127q0 -105 -66 -172q-66 -66 -173 -66t-174 66q-66 67 -66 172z" />
    <glyph glyph-name="Aogonek" unicode="&#x104;" horiz-adv-x="1394" 
d="M219 0h-184l622 1434h54l622 -1434q-149 -124 -149 -244q0 -64 42.5 -104.5t108.5 -40.5q94 0 158 49l14 -6l-16 -107q-82 -39 -178 -39q-113 0 -187 66q-73 64 -73 170q0 78 42 145t119 111h-65l-123 291h-684zM684 1090l-274 -644h548z" />
    <glyph glyph-name="aogonek" unicode="&#x105;" horiz-adv-x="1255" 
d="M606 1040q108 0 201.5 -42.5t153.5 -112.5v127h163v-1012q-149 -124 -149 -244q0 -64 42.5 -104.5t108.5 -40.5q94 0 158 49l14 -6l-16 -107q-82 -39 -178 -39q-114 0 -187 66q-73 64 -73 170q0 78 42.5 145t119.5 111h-45v127q-60 -70 -153.5 -113t-201.5 -43
q-148 0 -270 72q-120 71 -190 194q-68 124 -68 269q0 146 68 268q70 124 190 194q122 72 270 72zM342 781q-100 -112 -100 -275t100 -275t264 -112t264 112q101 113 101 275t-101 275q-100 112 -264 112t-264 -112z" />
    <glyph glyph-name="Cacute" unicode="&#x106;" horiz-adv-x="1353" 
d="M817 1462q237 0 418 -123l12 -202h-20q-185 170 -418 170q-108 0 -206 -40.5t-174 -115.5q-76 -76 -119.5 -188.5t-43.5 -245.5t43.5 -245.5t119.5 -188.5q76 -75 174 -115.5t206 -40.5q233 0 418 170h20l-12 -203q-181 -123 -424 -123q-149 0 -283.5 55.5t-234.5 153.5
q-97 97 -154 237q-57 139 -57 300q0 158 57 297.5t157 237.5q101 99 234 154q138 56 287 56zM805 1575h-139l188 280h242z" />
    <glyph glyph-name="cacute" unicode="&#x107;" horiz-adv-x="1011" 
d="M606 1040q178 0 293 -90l6 -164h-18q-67 57 -131 82q-63 25 -150 25q-161 0 -263 -109q-101 -110 -101 -278q0 -172 97 -279q97 -108 267 -108q84 0 147.5 24.5t129.5 81.5h18l-6 -164q-111 -90 -289 -90q-146 0 -264 63q-119 65 -192 187q-72 125 -72 285t74 284
q74 122 192.5 186t261.5 64zM573 1153h-139l189 281h241z" />
    <glyph glyph-name="Ccircumflex" unicode="&#x108;" horiz-adv-x="1353" 
d="M817 1462q237 0 418 -123l12 -202h-20q-185 170 -418 170q-108 0 -206 -40.5t-174 -115.5q-76 -76 -119.5 -188.5t-43.5 -245.5t43.5 -245.5t119.5 -188.5q76 -75 174 -115.5t206 -40.5q233 0 418 170h20l-12 -203q-181 -123 -424 -123q-149 0 -283.5 55.5t-234.5 153.5
q-97 97 -154 237q-57 139 -57 300q0 158 57 297.5t157 237.5q101 99 234 154q138 56 287 56zM610 1575h-123l205 280h215l205 -280h-123l-190 182z" />
    <glyph glyph-name="ccircumflex" unicode="&#x109;" horiz-adv-x="1011" 
d="M606 1040q178 0 293 -90l6 -164h-18q-67 57 -131 82q-63 25 -150 25q-161 0 -263 -109q-101 -110 -101 -278q0 -172 97 -279q97 -108 267 -108q84 0 147.5 24.5t129.5 81.5h18l-6 -164q-111 -90 -289 -90q-146 0 -264 63q-119 65 -192 187q-72 125 -72 285t74 284
q74 122 192.5 186t261.5 64zM399 1153h-123l205 281h215l205 -281h-123l-190 182z" />
    <glyph glyph-name="Cdotaccent" unicode="&#x10a;" horiz-adv-x="1353" 
d="M817 1462q237 0 418 -123l12 -202h-20q-185 170 -418 170q-108 0 -206 -40.5t-174 -115.5q-76 -76 -119.5 -188.5t-43.5 -245.5t43.5 -245.5t119.5 -188.5q76 -75 174 -115.5t206 -40.5q233 0 418 170h20l-12 -203q-181 -123 -424 -123q-149 0 -283.5 55.5t-234.5 153.5
q-97 97 -154 237q-57 139 -57 300q0 158 57 297.5t157 237.5q101 99 234 154q138 56 287 56zM718 1660q-34 34 -34 81t34 80q34 34 81 34t80 -34q34 -33 34 -80t-34 -81q-33 -34 -80 -34t-81 34z" />
    <glyph glyph-name="cdotaccent" unicode="&#x10b;" horiz-adv-x="1011" 
d="M606 1040q178 0 293 -90l6 -164h-18q-67 57 -131 82q-63 25 -150 25q-161 0 -263 -109q-101 -110 -101 -278q0 -172 97 -279q97 -108 267 -108q84 0 147.5 24.5t129.5 81.5h18l-6 -164q-111 -90 -289 -90q-146 0 -264 63q-119 65 -192 187q-72 125 -72 285t74 284
q74 122 192.5 186t261.5 64zM507 1238q-34 34 -34 81t34 81t81 34t80 -34q34 -34 34 -81t-34 -81q-33 -34 -80 -34t-81 34z" />
    <glyph glyph-name="Ccaron" unicode="&#x10c;" horiz-adv-x="1353" 
d="M817 1462q237 0 418 -123l12 -202h-20q-185 170 -418 170q-108 0 -206 -40.5t-174 -115.5q-76 -76 -119.5 -188.5t-43.5 -245.5t43.5 -245.5t119.5 -188.5q76 -75 174 -115.5t206 -40.5q233 0 418 170h20l-12 -203q-181 -123 -424 -123q-149 0 -283.5 55.5t-234.5 153.5
q-97 97 -154 237q-57 139 -57 300q0 158 57 297.5t157 237.5q101 99 234 154q138 56 287 56zM692 1575l-205 280h123l189 -182l190 182h123l-205 -280h-215z" />
    <glyph glyph-name="ccaron" unicode="&#x10d;" horiz-adv-x="1011" 
d="M606 1040q178 0 293 -90l6 -164h-18q-67 57 -131 82q-63 25 -150 25q-161 0 -263 -109q-101 -110 -101 -278q0 -172 97 -279q97 -108 267 -108q84 0 147.5 24.5t129.5 81.5h18l-6 -164q-111 -90 -289 -90q-146 0 -264 63q-119 65 -192 187q-72 125 -72 285t74 284
q74 122 192.5 186t261.5 64zM481 1153l-205 281h123l189 -183l190 183h123l-205 -281h-215z" />
    <glyph glyph-name="Dcaron" unicode="&#x10e;" horiz-adv-x="1280" 
d="M463 0h-320v1434h320q146 0 279 -49t235 -140q101 -90 161 -227t60 -301q0 -165 -60 -301q-60 -137 -161 -227q-102 -91 -235 -140t-279 -49zM432 1575l-205 280h123l189 -182l190 182h123l-205 -280h-215zM328 1278v-1122h139q232 0 387 144q76 71 118 179t42 238
q0 131 -42 238.5t-118 177.5q-154 145 -387 145h-139z" />
    <glyph glyph-name="dcaron" unicode="&#x10f;" horiz-adv-x="1552" 
d="M78 506q0 228 153 381t379 153q114 0 207 -46q97 -46 152 -115v596h164v-1475h-164v137q-145 -166 -371 -166q-218 0 -369 154t-151 381zM343 781q-101 -113 -101 -275t101 -275q102 -112 267 -112t267 112q102 113 102 275t-102 275q-102 112 -267 112t-267 -112z
M1245 1333q0 51 33 86t82 35q51 0 85 -36t34 -87q0 -95 -49.5 -175.5t-133.5 -137.5l-34 33q94 77 98 170q-46 0 -81 32q-34 31 -34 80z" />
    <glyph glyph-name="Dcroat" unicode="&#x110;" horiz-adv-x="1296" 
d="M160 647h-160v135h160v652h319q146 0 279 -49t235 -140q101 -90 161 -227t60 -301q0 -165 -60 -301q-60 -137 -161 -227q-102 -91 -235 -140t-279 -49h-319v647zM344 647v-491h139q232 0 387 144q76 71 118 179t42 238q0 131 -42 238.5t-118 177.5q-154 145 -387 145
h-139v-496h287v-135h-287z" />
    <glyph glyph-name="dslash" unicode="&#x111;" horiz-adv-x="1263" 
d="M78 506q0 228 153 381t379 153q114 0 207 -46q97 -46 152 -115v305h-332v119h332v172h164v-172h135v-119h-135v-1184h-164v137q-145 -166 -371 -166q-218 0 -369 154t-151 381zM343 781q-101 -113 -101 -275t101 -275q102 -112 267 -112t267 112q102 113 102 275
t-102 275q-102 112 -267 112t-267 -112z" />
    <glyph glyph-name="Emacron" unicode="&#x112;" horiz-adv-x="1062" 
d="M971 0h-828v1434h820v-156h-635v-463h612v-156h-612v-503h643v-156zM827 1630h-471v131h471v-131z" />
    <glyph glyph-name="emacron" unicode="&#x113;" horiz-adv-x="1157" 
d="M78 506q0 110 40 210.5t109 171.5q70 71 163 111.5t192 40.5q216 0 352 -136q137 -135 137 -359v-82h-829q9 -108 65 -188q109 -156 297 -156q108 0 193 36q88 38 186 128h16l-6 -179q-92 -68 -184 -100.5t-203 -32.5q-148 0 -270 71q-120 70 -190 193q-68 124 -68 271z
M250 598h672q-15 136 -108 222q-92 85 -232 85q-118 0 -212 -81q-94 -79 -120 -226zM813 1208h-471v131h471v-131z" />
    <glyph glyph-name="Ebreve" unicode="&#x114;" horiz-adv-x="1062" 
d="M971 0h-828v1434h820v-156h-635v-463h612v-156h-612v-503h643v-156zM352 1774h127q0 -64 29 -100t84 -36t84 36t29 100h126q0 -104 -66 -172q-66 -66 -173 -66q-106 0 -174 66q-66 68 -66 172z" />
    <glyph glyph-name="ebreve" unicode="&#x115;" horiz-adv-x="1157" 
d="M78 506q0 110 40 210.5t109 171.5q70 71 163 111.5t192 40.5q216 0 352 -136q137 -135 137 -359v-82h-829q9 -108 65 -188q109 -156 297 -156q108 0 193 36q88 38 186 128h16l-6 -179q-92 -68 -184 -100.5t-203 -32.5q-148 0 -270 71q-120 70 -190 193q-68 124 -68 271z
M250 598h672q-15 136 -108 222q-92 85 -232 85q-118 0 -212 -81q-94 -79 -120 -226zM338 1393h127q0 -64 29 -100t84 -36t83.5 36t28.5 100h127q0 -105 -66 -172q-66 -66 -173 -66q-106 0 -174 66q-66 67 -66 172z" />
    <glyph glyph-name="Edotaccent" unicode="&#x116;" horiz-adv-x="1062" 
d="M971 0h-828v1434h820v-156h-635v-463h612v-156h-612v-503h643v-156zM490 1660q-33 34 -33 81t33 80q34 34 81 34t81 -34q34 -33 34 -80t-34 -81t-81 -34t-81 34z" />
    <glyph glyph-name="edotaccent" unicode="&#x117;" horiz-adv-x="1157" 
d="M78 506q0 110 40 210.5t109 171.5q70 71 163 111.5t192 40.5q216 0 352 -136q137 -135 137 -359v-82h-829q9 -108 65 -188q109 -156 297 -156q108 0 193 36q88 38 186 128h16l-6 -179q-92 -68 -184 -100.5t-203 -32.5q-148 0 -270 71q-120 70 -190 193q-68 124 -68 271z
M250 598h672q-15 136 -108 222q-92 85 -232 85q-118 0 -212 -81q-94 -79 -120 -226zM517 1238q-34 34 -34 81t34 81t81 34t81 -34t34 -81t-34 -81t-81 -34t-81 34z" />
    <glyph glyph-name="Eogonek" unicode="&#x118;" horiz-adv-x="1062" 
d="M852 0h-709v1434h820v-156h-635v-463h612v-156h-612v-503h643v-156q-75 -63 -112.5 -121.5t-37.5 -122.5t43 -104.5t109 -40.5q93 0 157 49l15 -6l-17 -107q-82 -39 -178 -39q-114 0 -187 66q-73 64 -73 170q0 78 42.5 145t119.5 111z" />
    <glyph glyph-name="eogonek" unicode="&#x119;" horiz-adv-x="1157" 
d="M78 506q0 110 40 210.5t109 171.5q70 71 163 111.5t192 40.5q216 0 352 -136q137 -135 137 -359v-82h-829q9 -108 65 -188q109 -156 297 -156q108 0 193 36q88 38 186 128h16l-6 -179q-97 -73 -194 -104q-75 -63 -112.5 -121.5t-37.5 -122.5t43 -104.5t109 -40.5
q93 0 157 49l15 -6l-17 -107q-82 -39 -178 -39q-114 0 -187 66q-73 64 -73 170q0 133 121 227h-33q-148 0 -270 71q-120 70 -190 193q-68 124 -68 271zM250 598h672q-15 136 -108 222q-92 85 -232 85q-118 0 -212 -81q-94 -79 -120 -226z" />
    <glyph glyph-name="Ecaron" unicode="&#x11a;" horiz-adv-x="1062" 
d="M971 0h-828v1434h820v-156h-635v-463h612v-156h-612v-503h643v-156zM465 1575l-205 280h123l188 -182l191 182h123l-205 -280h-215z" />
    <glyph glyph-name="ecaron" unicode="&#x11b;" horiz-adv-x="1157" 
d="M78 506q0 110 40 210.5t109 171.5q70 71 163 111.5t192 40.5q216 0 352 -136q137 -135 137 -359v-82h-829q9 -108 65 -188q109 -156 297 -156q108 0 193 36q88 38 186 128h16l-6 -179q-92 -68 -184 -100.5t-203 -32.5q-148 0 -270 71q-120 70 -190 193q-68 124 -68 271z
M250 598h672q-15 136 -108 222q-92 85 -232 85q-118 0 -212 -81q-94 -79 -120 -226zM471 1153l-205 281h123l189 -183l190 183h123l-205 -281h-215z" />
    <glyph glyph-name="Gcircumflex" unicode="&#x11c;" horiz-adv-x="1499" 
d="M836 1462q276 0 458 -133l13 -188h-25q-114 91 -218 129q-102 37 -226 37q-223 0 -391 -146q-84 -73 -132.5 -188.5t-48.5 -255.5t45.5 -255.5t125.5 -188.5q160 -146 376 -146q227 0 391 158v362h-454v156h639v-576q-256 -256 -582 -256q-146 0 -279 54t-233 151
q-97 98 -156 237q-57 141 -57 304t60 303q62 143 164 237q104 97 241.5 151t288.5 54zM647 1575h-123l205 280h215l205 -280h-123l-190 182z" />
    <glyph glyph-name="gcircumflex" unicode="&#x11d;" horiz-adv-x="1241" 
d="M78 520q0 115 42.5 214.5t115.5 166.5q152 139 360 139q109 0 202 -41.5t148 -111.5v125h164v-920q0 -303 -141 -443q-141 -141 -396 -141q-170 0 -319 89l-6 163h26q72 -52 144 -77q74 -27 178 -27q154 0 252 90t98 258v156q-62 -78 -156 -119t-204 -41q-208 0 -356 138
q-71 67 -111.5 166.5t-40.5 215.5zM281 702q-39 -82 -39 -182q0 -215 162 -319q84 -54 198 -54q113 0 198 53q84 54 123 137q40 83 40 183q0 216 -163 319q-84 54 -198 54t-198 -54t-123 -137zM424 1153h-123l205 281h215l205 -281h-123l-191 182z" />
    <glyph glyph-name="Gbreve" unicode="&#x11e;" horiz-adv-x="1499" 
d="M836 1462q276 0 458 -133l13 -188h-25q-114 91 -218 129q-102 37 -226 37q-223 0 -391 -146q-84 -73 -132.5 -188.5t-48.5 -255.5t45.5 -255.5t125.5 -188.5q160 -146 376 -146q227 0 391 158v362h-454v156h639v-576q-256 -256 -582 -256q-146 0 -279 54t-233 151
q-97 98 -156 237q-57 141 -57 304t60 303q62 143 164 237q104 97 241.5 151t288.5 54zM592 1815h127q0 -64 28.5 -100t83.5 -36t84 36t29 100h127q0 -105 -67 -172q-66 -66 -173 -66t-173 66q-66 68 -66 172z" />
    <glyph glyph-name="gbreve" unicode="&#x11f;" horiz-adv-x="1241" 
d="M78 520q0 115 42.5 214.5t115.5 166.5q152 139 360 139q109 0 202 -41.5t148 -111.5v125h164v-920q0 -303 -141 -443q-141 -141 -396 -141q-170 0 -319 89l-6 163h26q72 -52 144 -77q74 -27 178 -27q154 0 252 90t98 258v156q-62 -78 -156 -119t-204 -41q-208 0 -356 138
q-71 67 -111.5 166.5t-40.5 215.5zM281 702q-39 -82 -39 -182q0 -215 162 -319q84 -54 198 -54q113 0 198 53q84 54 123 137q40 83 40 183q0 216 -163 319q-84 54 -198 54t-198 -54t-123 -137zM360 1393h127q0 -64 29 -100t84 -36t84 36t29 100h127q0 -105 -67 -172
q-66 -66 -173 -66q-106 0 -174 66q-66 67 -66 172z" />
    <glyph glyph-name="Gdotaccent" unicode="&#x120;" horiz-adv-x="1499" 
d="M836 1462q276 0 458 -133l13 -188h-25q-114 91 -218 129q-102 37 -226 37q-223 0 -391 -146q-84 -73 -132.5 -188.5t-48.5 -255.5t45.5 -255.5t125.5 -188.5q160 -146 376 -146q227 0 391 158v362h-454v156h639v-576q-256 -256 -582 -256q-146 0 -279 54t-233 151
q-97 98 -156 237q-57 141 -57 304t60 303q62 143 164 237q104 97 241.5 151t288.5 54zM730 1660q-34 34 -34 81t34 80q34 34 81 34t81 -34q34 -33 34 -80t-34 -81t-81 -34t-81 34z" />
    <glyph glyph-name="gdotaccent" unicode="&#x121;" horiz-adv-x="1241" 
d="M78 520q0 115 42.5 214.5t115.5 166.5q152 139 360 139q109 0 202 -41.5t148 -111.5v125h164v-920q0 -303 -141 -443q-141 -141 -396 -141q-170 0 -319 89l-6 163h26q72 -52 144 -77q74 -27 178 -27q154 0 252 90t98 258v156q-62 -78 -156 -119t-204 -41q-208 0 -356 138
q-71 67 -111.5 166.5t-40.5 215.5zM281 702q-39 -82 -39 -182q0 -215 162 -319q84 -54 198 -54q113 0 198 53q84 54 123 137q40 83 40 183q0 216 -163 319q-84 54 -198 54t-198 -54t-123 -137zM519 1238q-34 34 -34 81t34 81t81 34t81 -34t34 -81t-34 -81t-81 -34t-81 34z
" />
    <glyph glyph-name="uni0122" unicode="&#x122;" horiz-adv-x="1499" 
d="M836 1462q276 0 458 -133l13 -188h-25q-114 91 -218 129q-102 37 -226 37q-223 0 -391 -146q-84 -73 -132.5 -188.5t-48.5 -255.5t45.5 -255.5t125.5 -188.5q160 -146 376 -146q227 0 391 158v362h-454v156h639v-576q-256 -256 -582 -256q-146 0 -279 54t-233 151
q-97 98 -156 237q-57 141 -57 304t60 303q62 143 164 237q104 97 241.5 151t288.5 54zM674 -268q0 51 32.5 86t81.5 35q51 0 85 -36t34 -87q0 -108 -57 -190q-56 -83 -145 -130l-15 39q92 62 98 170q-46 0 -80 33q-34 31 -34 80z" />
    <glyph glyph-name="uni0123" unicode="&#x123;" horiz-adv-x="1241" 
d="M78 520q0 115 42.5 214.5t115.5 166.5q152 139 360 139q109 0 202 -41.5t148 -111.5v125h164v-920q0 -303 -141 -443q-141 -141 -396 -141q-170 0 -319 89l-6 163h26q72 -52 144 -77q74 -27 178 -27q154 0 252 90t98 258v156q-62 -78 -156 -119t-204 -41q-208 0 -356 138
q-71 67 -111.5 166.5t-40.5 215.5zM281 702q-39 -82 -39 -182q0 -215 162 -319q84 -54 198 -54q113 0 198 53q84 54 123 137q40 83 40 183q0 216 -163 319q-84 54 -198 54t-198 -54t-123 -137zM483 1407q0 95 49.5 175.5t133.5 137.5l34 -32q-94 -77 -98 -170q46 0 80 -33
q35 -32 35 -80q0 -51 -33 -86t-82 -35q-51 0 -85 36t-34 87z" />
    <glyph glyph-name="Hcircumflex" unicode="&#x124;" horiz-adv-x="1331" 
d="M328 0h-185v1434h185v-600h676v600h184v-1434h-184v678h-676v-678zM477 1575h-123l205 280h215l205 -280h-123l-190 182z" />
    <glyph glyph-name="hcircumflex" unicode="&#x125;" horiz-adv-x="1136" 
d="M295 0h-164v1475h164v-619q56 80 154 132q100 52 204 52q163 0 264 -96q101 -95 101 -258v-686h-164v651q0 112 -71 177t-181 65q-127 0 -217 -95q-90 -94 -90 -235v-563zM369 1575h-123l205 280h215l204 -280h-122l-191 182z" />
    <glyph glyph-name="Hbar" unicode="&#x126;" horiz-adv-x="1372" 
d="M164 1073h-164v131h164v230h184v-230h676v230h184v-230h164v-131h-164v-1073h-184v678h-676v-678h-184v1073zM348 1073v-239h676v239h-676z" />
    <glyph glyph-name="hbar" unicode="&#x127;" horiz-adv-x="1150" 
d="M145 1184h-135v119h135v172h164v-172h332v-119h-332v-328q55 79 155 131q101 53 204 53q164 0 264 -96q100 -94 100 -258v-686h-164v651q0 112 -71 177t-181 65q-127 0 -217 -95q-90 -94 -90 -235v-563h-164v1184z" />
    <glyph glyph-name="Itilde" unicode="&#x128;" horiz-adv-x="471" 
d="M-115 1602h-10l14 147q92 86 203 86q45 0 92.5 -17.5t80.5 -41.5q83 -58 145 -58q88 0 178 99h10l-14 -148q-92 -86 -203 -86q-90 0 -173 58q-81 59 -145 59q-89 0 -178 -98zM328 0h-185v1434h185v-1434z" />
    <glyph glyph-name="itilde" unicode="&#x129;" horiz-adv-x="446" 
d="M-127 1180h-10l14 147q92 86 203 86q91 0 172 -59q83 -58 145 -58q88 0 178 99h11l-15 -148q-92 -86 -202 -86q-90 0 -173 58q-81 59 -145 59q-89 0 -178 -98zM305 0h-164v1012h164v-1012z" />
    <glyph glyph-name="Imacron" unicode="&#x12a;" horiz-adv-x="471" 
d="M471 1630h-471v131h471v-131zM328 0h-185v1434h185v-1434z" />
    <glyph glyph-name="imacron" unicode="&#x12b;" horiz-adv-x="446" 
d="M459 1208h-471v131h471v-131zM305 0h-164v1012h164v-1012z" />
    <glyph glyph-name="Ibreve" unicode="&#x12c;" horiz-adv-x="471" 
d="M-4 1815h127q0 -64 29 -100t84 -36t83.5 36t28.5 100h127q0 -105 -66 -172q-66 -66 -173 -66q-106 0 -174 66q-66 67 -66 172zM328 0h-185v1434h185v-1434z" />
    <glyph glyph-name="ibreve" unicode="&#x12d;" horiz-adv-x="446" 
d="M-16 1393h127q0 -64 28.5 -100t83.5 -36t84 36t29 100h127q0 -105 -67 -172q-66 -66 -173 -66t-173 66q-66 67 -66 172zM305 0h-164v1012h164v-1012z" />
    <glyph glyph-name="Iogonek" unicode="&#x12e;" horiz-adv-x="471" 
d="M47 -256q0 78 42.5 145t119.5 111h-66v1434h185v-1434q-75 -63 -112.5 -121.5t-37.5 -122.5t43 -104.5t109 -40.5q93 0 157 49l15 -6l-17 -107q-83 -39 -178 -39q-113 0 -187 66q-73 64 -73 170z" />
    <glyph glyph-name="iogonek" unicode="&#x12f;" horiz-adv-x="446" 
d="M25 -256q0 78 42 145t119 111h-45v1012h164v-1012q-149 -124 -149 -244q0 -64 42.5 -104.5t108.5 -40.5q94 0 158 49l14 -6l-16 -107q-83 -39 -178 -39q-113 0 -187 66q-73 64 -73 170zM142 1238q-33 34 -33 81t33 81q34 34 81 34t81 -34t34 -81t-34 -81t-81 -34t-81 34z
" />
    <glyph glyph-name="Idot" unicode="&#x130;" horiz-adv-x="471" 
d="M155 1660q-34 34 -34 81t34 80q34 34 81 34t80 -34q34 -33 34 -80t-34 -81q-33 -34 -80 -34t-81 34zM328 0h-185v1434h185v-1434z" />
    <glyph glyph-name="dotlessi" unicode="&#x131;" horiz-adv-x="446" 
d="M305 0h-164v1012h164v-1012z" />
    <glyph glyph-name="IJ" unicode="&#x132;" horiz-adv-x="1161" 
d="M123 893v541h184v-535q0 -129 72 -206q74 -75 188 -75q122 0 199 70q78 70 78 211v535h184v-1002q0 -208 -132 -335q-132 -126 -337 -126q-101 0 -170 11q-70 11 -147 38l-23 189h23q130 -82 309 -82q117 0 200 60q93 67 93 223v186q-47 -62 -129 -98q-84 -35 -174 -35
q-167 0 -290 107q-60 54 -94 138t-34 185z" />
    <glyph glyph-name="ij" unicode="&#x133;" horiz-adv-x="1060" 
d="M86 1317q0 47 33 82q35 35 80 35q46 0 81 -35t35 -82q0 -45 -35 -80q-34 -33 -81 -33q-45 0 -80 33q-33 35 -33 80zM117 326v686h164v-652q0 -112 65 -177q64 -64 170 -64q121 0 190 88q70 88 70 242v563h164v-989q0 -238 -129 -376q-129 -139 -334 -139q-171 0 -323 80
l-7 172h27q78 -54 142 -75q65 -21 151 -21q151 0 230 87t79 255v107q-109 -142 -303 -142q-91 0 -172 42q-79 42 -132 125q-52 82 -52 188zM745 1317q0 47 33 82q35 35 80 35q47 0 82 -35t35 -82q0 -45 -35 -80q-34 -33 -82 -33q-46 0 -80 33q-33 35 -33 80z" />
    <glyph glyph-name="Jcircumflex" unicode="&#x134;" horiz-adv-x="774" 
d="M111 0l-19 174h27q89 -47 170 -47q168 0 168 190v1117h184v-1096q0 -166 -89 -267q-88 -100 -249 -100q-90 0 -192 29zM362 1575h-122l204 280h215l205 -280h-123l-190 182z" />
    <glyph glyph-name="jcircumflex" unicode="&#x135;" horiz-adv-x="460" 
d="M-78 -457l-16 152h20q59 -39 109 -39q123 0 123 147v1209h164v-1178q0 -158 -67.5 -242t-195.5 -84q-81 0 -137 35zM59 1153h-122l204 281h215l205 -281h-123l-190 182z" />
    <glyph glyph-name="uni0136" unicode="&#x136;" horiz-adv-x="1161" 
d="M328 0h-185v1434h185v-699l542 699h215l-561 -705l611 -729h-215l-592 707v-707zM479 -268q0 51 33 86t82 35q51 0 85 -36t34 -87q0 -104 -55 -187t-148 -133l-14 39q92 62 98 170q-46 0 -81 33q-34 31 -34 80z" />
    <glyph glyph-name="uni0137" unicode="&#x137;" horiz-adv-x="909" 
d="M295 0h-164v1475h164v-928l395 465h174l-405 -475l415 -537h-176l-403 518v-518zM338 -268q0 51 33 86t82 35q51 0 84.5 -35.5t33.5 -87.5q0 -108 -57 -190q-56 -83 -145 -130l-15 39q93 61 99 170q-47 0 -81 33q-34 31 -34 80z" />
    <glyph glyph-name="kgreenlandic" unicode="&#x138;" horiz-adv-x="909" 
d="M295 0h-164v1012h164v-465l395 465h174l-405 -475l415 -537h-176l-403 518v-518z" />
    <glyph glyph-name="Lacute" unicode="&#x139;" horiz-adv-x="1138" 
d="M1065 0h-922v1434h185v-1278h737v-156zM289 1575h-139l188 280h242z" />
    <glyph glyph-name="lacute" unicode="&#x13a;" horiz-adv-x="425" 
d="M240 1575h-140l189 280h241zM295 0h-164v1475h164v-1475z" />
    <glyph glyph-name="uni013B" unicode="&#x13b;" horiz-adv-x="1138" 
d="M1065 0h-922v1434h185v-1278h737v-156zM492 -268q0 51 32.5 86t81.5 35q51 0 85 -36t34 -87q0 -104 -55 -187t-148 -133l-14 39q92 62 98 170q-46 0 -80 33q-34 31 -34 80z" />
    <glyph glyph-name="uni013C" unicode="&#x13c;" horiz-adv-x="425" 
d="M88 -268q0 51 33 86t82 35q51 0 85 -36t34 -87q0 -104 -55 -187t-148 -133l-15 39q93 61 99 170q-47 0 -81 33q-34 31 -34 80zM295 0h-164v1475h164v-1475z" />
    <glyph glyph-name="Lcaron" unicode="&#x13d;" horiz-adv-x="1138" 
d="M1065 0h-922v1434h185v-1278h737v-156zM848 1333q0 51 33 86t82 35q51 0 84.5 -35.5t33.5 -87.5q0 -95 -49 -175.5t-133 -137.5l-35 33q94 76 99 170q-46 0 -81 32q-34 31 -34 80z" />
    <glyph glyph-name="lcaron" unicode="&#x13e;" horiz-adv-x="733" 
d="M295 0h-164v1475h164v-1475zM459 1333q0 51 32.5 86t81.5 35q51 0 85 -36t34 -87q0 -95 -49 -175.5t-133 -137.5l-35 33q94 77 98 170q-45 0 -80 32q-34 31 -34 80z" />
    <glyph glyph-name="Ldot" unicode="&#x13f;" horiz-adv-x="1138" 
d="M1065 0h-922v1434h185v-1278h737v-156zM684 729q0 50 34 84q35 35 81 35q49 0 84 -35t35 -84q0 -46 -35 -81q-34 -34 -84 -34q-47 0 -81 34t-34 81z" />
    <glyph glyph-name="ldot" unicode="&#x140;" horiz-adv-x="675" 
d="M295 0h-164v1475h164v-1475zM438 729q0 50 34 84q35 35 81 35q49 0 84 -35t35 -84q0 -46 -35 -81q-34 -34 -84 -34q-47 0 -81 34t-34 81z" />
    <glyph glyph-name="Lslash" unicode="&#x141;" horiz-adv-x="1171" 
d="M176 418l-176 -103v166l176 103v850h184v-744l345 201v-166l-345 -201v-368h738v-156h-922v418z" />
    <glyph glyph-name="lslash" unicode="&#x142;" horiz-adv-x="536" 
d="M186 496l-174 -101v166l174 101v813h164v-717l174 102v-166l-174 -102v-592h-164v496z" />
    <glyph glyph-name="Nacute" unicode="&#x143;" horiz-adv-x="1382" 
d="M328 0h-185v1434h70l842 -1008v1008h184v-1434h-70l-841 1012v-1012zM676 1575h-139l188 280h242z" />
    <glyph glyph-name="nacute" unicode="&#x144;" 
d="M295 0h-164v1012h164v-152q57 81 150 130q95 50 200 50q159 0 257 -96q99 -96 99 -258v-686h-163v651q0 113 -67 177q-68 65 -177 65q-126 0 -213 -95q-86 -95 -86 -235v-563zM565 1153h-139l188 281h242z" />
    <glyph glyph-name="uni0145" unicode="&#x145;" horiz-adv-x="1382" 
d="M328 0h-185v1434h70l842 -1008v1008h184v-1434h-70l-841 1012v-1012zM573 -268q0 51 33 86t82 35q51 0 85 -36t34 -87q0 -104 -55 -187t-148 -133l-14 39q92 62 98 170q-46 0 -81 33q-34 31 -34 80z" />
    <glyph glyph-name="uni0146" unicode="&#x146;" 
d="M295 0h-164v1012h164v-152q57 81 150 130q95 50 200 50q159 0 257 -96q99 -96 99 -258v-686h-163v651q0 113 -67 177q-68 65 -177 65q-126 0 -213 -95q-86 -95 -86 -235v-563zM434 -268q0 51 33 86t82 35q51 0 85 -36t34 -87q0 -104 -55 -187t-148 -133l-14 39
q92 62 98 170q-47 0 -81 33q-34 31 -34 80z" />
    <glyph glyph-name="Ncaron" unicode="&#x147;" horiz-adv-x="1382" 
d="M328 0h-185v1434h70l842 -1008v1008h184v-1434h-70l-841 1012v-1012zM584 1575l-205 280h123l188 -182l191 182h123l-205 -280h-215z" />
    <glyph glyph-name="ncaron" unicode="&#x148;" 
d="M295 0h-164v1012h164v-152q57 81 150 130q95 50 200 50q159 0 257 -96q99 -96 99 -258v-686h-163v651q0 113 -67 177q-68 65 -177 65q-126 0 -213 -95q-86 -95 -86 -235v-563zM483 1153l-204 281h122l189 -183l190 183h123l-205 -281h-215z" />
    <glyph glyph-name="napostrophe" unicode="&#x149;" horiz-adv-x="1296" 
d="M25 1333q0 51 32.5 86t81.5 35q51 0 85 -36t34 -87q0 -95 -49 -175.5t-133 -137.5l-35 33q94 77 98 170q-45 0 -80 32q-34 31 -34 80zM471 0h-164v1012h164v-152q57 81 150 130q95 50 200 50q159 0 258 -96t99 -258v-686h-164v651q0 113 -67 177q-68 65 -177 65
q-126 0 -213 -95q-86 -95 -86 -235v-563z" />
    <glyph glyph-name="Eng" unicode="&#x14a;" horiz-adv-x="1382" 
d="M328 0h-185v1434h70l842 -1141v1141h184v-1559q0 -166 -89 -267q-88 -100 -249 -100q-90 0 -192 29l-19 174h27q89 -47 170 -47q168 0 168 191v145l-727 971v-971z" />
    <glyph glyph-name="eng" unicode="&#x14b;" 
d="M295 0h-164v1012h164v-152q57 81 150 130q95 50 200 50q159 0 257 -96q99 -96 99 -258v-852q0 -159 -67 -242.5t-195 -83.5q-81 0 -137 35l-16 152h20q58 -39 109 -39q123 0 123 147v848q0 113 -67 177q-68 65 -177 65q-126 0 -213 -95q-86 -95 -86 -235v-563z" />
    <glyph glyph-name="Omacron" unicode="&#x14c;" horiz-adv-x="1658" 
d="M82 717q0 159 58 296q58 139 158 237q102 100 238 155q138 57 293 57t293 -57q136 -55 238 -155q99 -96 158 -237q59 -139 59 -296q0 -210 -100 -382q-99 -170 -270 -268q-171 -96 -378 -96t-378 96q-171 98 -270 268q-99 172 -99 382zM829 127q156 0 284 69
q127 70 203 206q77 137 77 315t-77 315q-75 134 -201.5 204.5t-285.5 70.5q-237 0 -399 -156q-77 -76 -120.5 -188.5t-43.5 -245.5t43.5 -245.5t120.5 -188.5q162 -156 399 -156zM1065 1630h-471v131h471v-131z" />
    <glyph glyph-name="omacron" unicode="&#x14d;" horiz-adv-x="1216" 
d="M230 122q-152 152 -152 384q0 231 152 383q152 151 378 151t378 -151q153 -151 153 -383t-153 -384q-152 -151 -378 -151t-378 151zM608 119q160 0 263 108q104 109 104 279t-104 279q-103 108 -263 108q-158 0 -262 -108q-104 -109 -104 -279t104 -279
q103 -108 262 -108zM844 1208h-471v131h471v-131z" />
    <glyph glyph-name="Obreve" unicode="&#x14e;" horiz-adv-x="1658" 
d="M82 717q0 159 58 296q58 139 158 237q102 100 238 155q138 57 293 57t293 -57q136 -55 238 -155q99 -96 158 -237q59 -139 59 -296q0 -210 -100 -382q-99 -170 -270 -268q-171 -96 -378 -96t-378 96q-171 98 -270 268q-99 172 -99 382zM829 127q156 0 284 69
q127 70 203 206q77 137 77 315t-77 315q-75 134 -201.5 204.5t-285.5 70.5q-237 0 -399 -156q-77 -76 -120.5 -188.5t-43.5 -245.5t43.5 -245.5t120.5 -188.5q162 -156 399 -156zM590 1815h127q0 -64 28.5 -100t83.5 -36t84 36t29 100h127q0 -105 -67 -172q-66 -66 -173 -66
t-173 66q-66 68 -66 172z" />
    <glyph glyph-name="obreve" unicode="&#x14f;" horiz-adv-x="1216" 
d="M230 122q-152 152 -152 384q0 231 152 383q152 151 378 151t378 -151q153 -151 153 -383t-153 -384q-152 -151 -378 -151t-378 151zM608 119q160 0 263 108q104 109 104 279t-104 279q-103 108 -263 108q-158 0 -262 -108q-104 -109 -104 -279t104 -279
q103 -108 262 -108zM369 1393h127q0 -64 28.5 -100t83.5 -36t84 36t29 100h127q0 -105 -67 -172q-66 -66 -173 -66t-173 66q-66 67 -66 172z" />
    <glyph glyph-name="Ohungarumlaut" unicode="&#x150;" horiz-adv-x="1658" 
d="M82 717q0 159 58 296q58 139 158 237q102 100 238 155q138 57 293 57t293 -57q136 -55 238 -155q99 -96 158 -237q59 -139 59 -296q0 -210 -100 -382q-99 -170 -270 -268q-171 -96 -378 -96t-378 96q-171 98 -270 268q-99 172 -99 382zM829 127q156 0 284 69
q127 70 203 206q77 137 77 315t-77 315q-75 134 -201.5 204.5t-285.5 70.5q-237 0 -399 -156q-77 -76 -120.5 -188.5t-43.5 -245.5t43.5 -245.5t120.5 -188.5q162 -156 399 -156zM651 1575h-139l188 280h242zM1004 1575h-140l189 280h241z" />
    <glyph glyph-name="ohungarumlaut" unicode="&#x151;" horiz-adv-x="1216" 
d="M230 122q-152 152 -152 384q0 231 152 383q152 151 378 151t378 -151q153 -151 153 -383t-153 -384q-152 -151 -378 -151t-378 151zM608 119q160 0 263 108q104 109 104 279t-104 279q-103 108 -263 108q-158 0 -262 -108q-104 -109 -104 -279t104 -279
q103 -108 262 -108zM422 1153h-139l188 281h242zM774 1153h-139l188 281h242z" />
    <glyph glyph-name="OE" unicode="&#x152;" horiz-adv-x="2312" 
d="M82 717q0 159 58 296q58 139 158 237q102 100 238 155q138 57 293 57q166 0 313 -65q148 -65 251 -180v217h819v-156h-635v-463h612v-156h-612v-503h643v-156h-827v217q-105 -118 -251.5 -182t-312.5 -64q-207 0 -378 96q-171 98 -270 268q-99 172 -99 382zM829 127
q156 0 284 69q127 70 203 206q77 137 77 315t-77 315q-75 134 -201.5 204.5t-285.5 70.5q-237 0 -399 -156q-77 -76 -120.5 -188.5t-43.5 -245.5t43.5 -245.5t120.5 -188.5q162 -156 399 -156z" />
    <glyph glyph-name="oe" unicode="&#x153;" horiz-adv-x="2054" 
d="M608 1040q142 0 260 -64t189 -177q68 112 180 176q113 65 242 65q216 0 352 -136q137 -135 137 -359v-82h-829q9 -108 65 -188q109 -156 297 -156q109 0 194 36q86 38 185 128h16l-6 -179q-92 -68 -184 -100.5t-203 -32.5q-141 0 -259 65q-116 64 -187 177
q-70 -114 -188 -178t-261 -64q-226 0 -378 151q-152 152 -152 384q0 231 152 383q152 151 378 151zM608 119q160 0 263 108q104 109 104 279t-104 279q-103 108 -263 108q-158 0 -262 -108q-104 -109 -104 -279t104 -279q103 -108 262 -108zM1147 598h672q-15 136 -108 222
q-92 85 -232 85q-117 0 -212 -81q-94 -79 -120 -226z" />
    <glyph glyph-name="Racute" unicode="&#x154;" horiz-adv-x="1124" 
d="M328 0h-185v1434h379q214 0 347 -108q135 -108 135 -294q0 -143 -88 -239.5t-220 -137.5l396 -655h-201l-381 631h-182v-631zM328 1278v-492h198q141 0 217 63.5t76 182.5t-76 182.5t-217 63.5h-198zM526 1575h-139l188 280h242z" />
    <glyph glyph-name="racute" unicode="&#x155;" horiz-adv-x="806" 
d="M295 0h-164v1012h164v-148q50 86 128 131q80 45 161 45q90 0 155 -47l11 -166h-19q-69 66 -172 66q-100 0 -178 -71q-86 -78 -86 -244v-578zM430 1153h-139l188 281h242z" />
    <glyph glyph-name="uni0156" unicode="&#x156;" horiz-adv-x="1124" 
d="M328 0h-185v1434h379q214 0 347 -108q135 -108 135 -294q0 -143 -88 -239.5t-220 -137.5l396 -655h-201l-381 631h-182v-631zM328 1278v-492h198q141 0 217 63.5t76 182.5t-76 182.5t-217 63.5h-198zM492 -268q0 51 32.5 86t81.5 35q51 0 85 -36t34 -87q0 -104 -55 -187
t-148 -133l-14 39q92 62 98 170q-46 0 -80 33q-34 31 -34 80z" />
    <glyph glyph-name="uni0157" unicode="&#x157;" horiz-adv-x="806" 
d="M92 -268q0 51 33 86t82 35q51 0 85 -36t34 -87q0 -104 -55 -187t-148 -133l-14 39q92 62 98 170q-47 0 -81 33q-34 31 -34 80zM295 0h-164v1012h164v-148q50 86 128 131q80 45 161 45q90 0 155 -47l11 -166h-19q-69 66 -172 66q-100 0 -178 -71q-86 -78 -86 -244v-578z
" />
    <glyph glyph-name="Rcaron" unicode="&#x158;" horiz-adv-x="1124" 
d="M328 0h-185v1434h379q214 0 347 -108q135 -108 135 -294q0 -143 -88 -239.5t-220 -137.5l396 -655h-201l-381 631h-182v-631zM434 1575l-205 280h123l189 -182l190 182h123l-205 -280h-215zM328 1278v-492h198q141 0 217 63.5t76 182.5t-76 182.5t-217 63.5h-198z" />
    <glyph glyph-name="rcaron" unicode="&#x159;" horiz-adv-x="804" 
d="M315 1153l-204 281h122l189 -183l190 183h123l-205 -281h-215zM295 0h-164v1012h164v-148q50 86 128 131q80 45 161 45q90 0 155 -47l11 -166h-19q-69 66 -172 66q-100 0 -178 -71q-86 -78 -86 -244v-578z" />
    <glyph glyph-name="Sacute" unicode="&#x15a;" horiz-adv-x="1060" 
d="M109 135l12 213h20q77 -98 168 -160q91 -61 209 -61q125 0 199 68t74 182q0 113 -87 188q-71 63 -219 129q-165 71 -261 176q-97 106 -97 242q0 158 118 254q119 96 290 96q199 0 333 -114l9 -197h-27q-140 164 -322 164q-103 0 -171 -56q-66 -55 -66 -141
q0 -88 75.5 -157.5t231.5 -135.5q187 -79 282 -183t95 -241q0 -184 -130 -307q-129 -123 -327 -123q-240 0 -409 164zM516 1575h-139l188 280h242z" />
    <glyph glyph-name="sacute" unicode="&#x15b;" horiz-adv-x="864" 
d="M82 74l39 155h12q142 -110 289 -110q95 0 150 41t55 110q0 72 -56 113q-54 40 -180 82q-119 40 -195 104q-87 76 -87 199q0 111 95 191q96 81 234 81q151 0 281 -77l6 -156h-14q-128 98 -273 98q-80 0 -131 -35.5t-51 -97.5q0 -67 58 -107q62 -43 182 -85
q140 -48 215 -113q80 -68 80 -188q0 -132 -109 -220t-262 -88q-181 0 -338 103zM418 1153h-139l188 281h242z" />
    <glyph glyph-name="Scircumflex" unicode="&#x15c;" horiz-adv-x="1060" 
d="M109 135l12 213h20q77 -98 168 -160q91 -61 209 -61q125 0 199 68t74 182q0 113 -87 188q-71 63 -219 129q-165 71 -261 176q-97 106 -97 242q0 158 118 254q119 96 290 96q199 0 333 -114l9 -197h-27q-140 164 -322 164q-103 0 -171 -56q-66 -55 -66 -141
q0 -88 75.5 -157.5t231.5 -135.5q187 -79 282 -183t95 -241q0 -184 -130 -307q-129 -123 -327 -123q-240 0 -409 164zM342 1575h-123l205 280h215l205 -280h-123l-191 182z" />
    <glyph glyph-name="scircumflex" unicode="&#x15d;" horiz-adv-x="864" 
d="M82 74l39 155h12q142 -110 289 -110q95 0 150 41t55 110q0 72 -56 113q-54 40 -180 82q-119 40 -195 104q-87 76 -87 199q0 111 95 191q96 81 234 81q151 0 281 -77l6 -156h-14q-128 98 -273 98q-80 0 -131 -35.5t-51 -97.5q0 -67 58 -107q62 -43 182 -85
q140 -48 215 -113q80 -68 80 -188q0 -132 -109 -220t-262 -88q-181 0 -338 103zM244 1153h-123l205 281h215l204 -281h-122l-191 182z" />
    <glyph glyph-name="Scedilla" unicode="&#x15e;" horiz-adv-x="1060" 
d="M109 135l12 213h20q77 -98 168 -160q91 -61 209 -61q125 0 199 68t74 182q0 113 -87 188q-71 63 -219 129q-165 71 -261 176q-97 106 -97 242q0 158 119 254q118 96 289 96q199 0 333 -114l9 -197h-27q-140 164 -322 164q-103 0 -171 -56q-66 -55 -66 -141
q0 -88 75.5 -157.5t231.5 -135.5q187 -79 282 -183t95 -241q0 -177 -122 -299t-310 -131l-64 -98q60 23 121 23q74 0 122 -53t48 -130q0 -89 -69 -147q-68 -58 -185 -58q-92 0 -166 33l-16 103l14 6q80 -45 152 -45q53 0 87 27.5t34 76.5t-33 76t-84 27q-57 0 -123 -29
l-10 12l80 180q-197 19 -342 160z" />
    <glyph glyph-name="scedilla" unicode="&#x15f;" horiz-adv-x="864" 
d="M82 74l39 155h12q142 -110 289 -110q95 0 150 41t55 110q0 72 -56 113q-54 40 -180 82q-119 40 -195 104q-87 76 -87 199q0 111 95 191q96 81 234 81q151 0 281 -77l6 -156h-14q-128 98 -273 98q-80 0 -131 -35.5t-51 -97.5q0 -67 58 -107q62 -43 182 -85
q140 -48 215 -113q80 -68 80 -188q0 -127 -104 -216q-104 -88 -251 -92l-63 -98q60 23 121 23q74 0 122 -53t48 -130q0 -89 -69 -147q-68 -58 -185 -58q-92 0 -166 33l-17 103l15 6q80 -45 151 -45q53 0 87 27.5t34 76.5t-33 76t-84 27q-57 0 -123 -29l-10 12l80 180
q-136 16 -262 99z" />
    <glyph glyph-name="Scaron" unicode="&#x160;" horiz-adv-x="1060" 
d="M109 135l12 213h20q77 -98 168 -160q91 -61 209 -61q125 0 199 68t74 182q0 113 -87 188q-71 63 -219 129q-165 71 -261 176q-97 106 -97 242q0 158 118 254q119 96 290 96q199 0 333 -114l9 -197h-27q-140 164 -322 164q-103 0 -171 -56q-66 -55 -66 -141
q0 -88 75.5 -157.5t231.5 -135.5q187 -79 282 -183t95 -241q0 -184 -130 -307q-129 -123 -327 -123q-240 0 -409 164zM424 1575l-205 280h123l188 -182l191 182h123l-205 -280h-215z" />
    <glyph glyph-name="scaron" unicode="&#x161;" horiz-adv-x="864" 
d="M82 74l39 155h12q142 -110 289 -110q95 0 150 41t55 110q0 72 -56 113q-54 40 -180 82q-119 40 -195 104q-87 76 -87 199q0 111 95 191q96 81 234 81q151 0 281 -77l6 -156h-14q-128 98 -273 98q-80 0 -131 -35.5t-51 -97.5q0 -67 58 -107q62 -43 182 -85
q140 -48 215 -113q80 -68 80 -188q0 -132 -109 -220t-262 -88q-181 0 -338 103zM326 1153l-205 281h123l188 -183l191 183h122l-204 -281h-215z" />
    <glyph glyph-name="uni0162" unicode="&#x162;" horiz-adv-x="1101" 
d="M459 1278h-377v156h938v-156h-377v-1278h-184v1278zM428 -268q0 51 33 86t82 35q51 0 85 -36t34 -87q0 -104 -55 -187t-148 -133l-15 39q93 61 99 170q-47 0 -81 33q-34 31 -34 80z" />
    <glyph glyph-name="uni0163" unicode="&#x163;" horiz-adv-x="763" 
d="M229 864h-194v148h194v213l164 78v-291h289v-148h-289v-620q0 -62 39 -94q40 -31 92 -31q72 0 152 59h18l-12 -155q-60 -31 -95 -40q-39 -12 -95 -12q-120 0 -192 73q-71 74 -71 204v616zM334 -268q0 51 33 86t82 35q51 0 84.5 -35.5t33.5 -87.5q0 -108 -57 -190
q-56 -83 -145 -130l-15 39q93 61 99 170q-47 0 -81 33q-34 31 -34 80z" />
    <glyph glyph-name="Tcaron" unicode="&#x164;" horiz-adv-x="1101" 
d="M459 1278h-377v156h938v-156h-377v-1278h-184v1278zM444 1575l-204 280h122l189 -182l190 182h123l-205 -280h-215z" />
    <glyph glyph-name="tcaron" unicode="&#x165;" horiz-adv-x="1032" 
d="M229 864h-194v148h194v213l164 78v-291h289v-148h-289v-620q0 -62 39 -94q40 -31 92 -31q72 0 152 59h18l-12 -155q-60 -31 -95 -40q-39 -12 -95 -12q-120 0 -192 73q-71 74 -71 204v616zM762 1333q0 51 33 86t82 35q51 0 84.5 -35.5t33.5 -87.5q0 -95 -49 -175.5
t-133 -137.5l-35 33q94 76 99 170q-46 0 -81 32q-34 31 -34 80z" />
    <glyph glyph-name="Tbar" unicode="&#x166;" horiz-adv-x="1101" 
d="M459 1278h-377v156h938v-156h-377v-389h291v-131h-291v-758h-184v758h-291v131h291v389z" />
    <glyph glyph-name="tbar" unicode="&#x167;" horiz-adv-x="763" 
d="M229 864h-194v148h194v213l164 78v-291h289v-148h-289v-278h273v-119h-273v-223q0 -62 39 -94q40 -31 92 -31q72 0 152 59h18l-12 -155q-60 -31 -95 -40q-39 -12 -95 -12q-120 0 -192 73q-71 74 -71 204v219h-170v119h170v278z" />
    <glyph glyph-name="Utilde" unicode="&#x168;" horiz-adv-x="1306" 
d="M123 535v899h184v-930q0 -96 29.5 -171.5t80.5 -119.5q103 -86 236 -86q134 0 235 86q52 44 81.5 119.5t29.5 171.5v930h185v-899q0 -267 -146 -416q-145 -148 -385 -148q-239 0 -384 147q-146 149 -146 417zM303 1602h-10l14 147q92 86 203 86q91 0 172 -59
q83 -58 145 -58q89 0 179 99h10l-15 -148q-92 -86 -202 -86q-90 0 -173 58q-81 59 -145 59q-89 0 -178 -98z" />
    <glyph glyph-name="utilde" unicode="&#x169;" 
d="M119 326v686h164v-652q0 -112 66 -177q67 -64 177 -64q127 0 212 94q87 95 87 236v563h164v-1012h-164v152q-56 -80 -150 -131q-95 -50 -200 -50q-159 0 -258 96q-98 98 -98 259zM209 1180h-10l14 147q92 86 203 86q91 0 172 -59q83 -58 145 -58q88 0 178 99h11l-15 -148
q-92 -86 -202 -86q-90 0 -173 58q-81 59 -145 59q-89 0 -178 -98z" />
    <glyph glyph-name="Umacron" unicode="&#x16a;" horiz-adv-x="1306" 
d="M123 535v899h184v-930q0 -96 29.5 -171.5t80.5 -119.5q103 -86 236 -86q134 0 235 86q52 44 81.5 119.5t29.5 171.5v930h185v-899q0 -267 -146 -416q-145 -148 -385 -148q-239 0 -384 147q-146 149 -146 417zM889 1630h-471v131h471v-131z" />
    <glyph glyph-name="umacron" unicode="&#x16b;" 
d="M119 326v686h164v-652q0 -112 66 -177q67 -64 177 -64q127 0 212 94q87 95 87 236v563h164v-1012h-164v152q-56 -80 -150 -131q-95 -50 -200 -50q-159 0 -258 96q-98 98 -98 259zM793 1208h-471v131h471v-131z" />
    <glyph glyph-name="Ubreve" unicode="&#x16c;" horiz-adv-x="1306" 
d="M123 535v899h184v-930q0 -96 29.5 -171.5t80.5 -119.5q103 -86 236 -86q134 0 235 86q52 44 81.5 119.5t29.5 171.5v930h185v-899q0 -267 -146 -416q-145 -148 -385 -148q-239 0 -384 147q-146 149 -146 417zM414 1815h127q0 -64 28.5 -100t83.5 -36t84 36t29 100h127
q0 -105 -67 -172q-66 -66 -173 -66t-173 66q-66 68 -66 172z" />
    <glyph glyph-name="ubreve" unicode="&#x16d;" 
d="M119 326v686h164v-652q0 -112 66 -177q67 -64 177 -64q127 0 212 94q87 95 87 236v563h164v-1012h-164v152q-56 -80 -150 -131q-95 -50 -200 -50q-159 0 -258 96q-98 98 -98 259zM319 1393h127q0 -64 29 -100t84 -36t84 36t29 100h127q0 -105 -67 -172q-66 -66 -173 -66
t-174 66q-66 67 -66 172z" />
    <glyph glyph-name="Uring" unicode="&#x16e;" horiz-adv-x="1306" 
d="M123 535v899h184v-930q0 -96 29.5 -171.5t80.5 -119.5q103 -86 236 -86q134 0 235 86q52 44 81.5 119.5t29.5 171.5v930h185v-899q0 -267 -146 -416q-145 -148 -385 -148q-239 0 -384 147q-146 149 -146 417zM503 1596q-61 60 -61 147t61 147t150 60t150 -60t61 -147
t-61 -147t-150 -60t-150 60zM560 1834q-36 -38 -36 -91q0 -55 36 -92t93 -37t93 37t36 92q0 53 -36 91t-93 38t-93 -38z" />
    <glyph glyph-name="uring" unicode="&#x16f;" 
d="M119 326v686h164v-652q0 -112 66 -177q67 -64 177 -64q127 0 212 94q87 95 87 236v563h164v-1012h-164v152q-56 -80 -150 -131q-95 -50 -200 -50q-159 0 -258 96q-98 98 -98 259zM409 1174q-61 60 -61 147t61 147t150 60t150 -60t61 -147t-61 -147t-150 -60t-150 60z
M466 1412q-36 -38 -36 -91q0 -55 36 -92t93 -37t93 37t36 92q0 53 -36 91t-93 38t-93 -38z" />
    <glyph glyph-name="Uhungarumlaut" unicode="&#x170;" horiz-adv-x="1306" 
d="M123 535v899h184v-930q0 -96 29.5 -171.5t80.5 -119.5q103 -86 236 -86q134 0 235 86q52 44 81.5 119.5t29.5 171.5v930h185v-899q0 -267 -146 -416q-145 -148 -385 -148q-239 0 -384 147q-146 149 -146 417zM481 1575h-139l188 280h242zM834 1575h-140l189 280h241z" />
    <glyph glyph-name="uhungarumlaut" unicode="&#x171;" 
d="M119 326v686h164v-652q0 -112 66 -177q67 -64 177 -64q127 0 212 94q87 95 87 236v563h164v-1012h-164v152q-56 -80 -150 -131q-95 -50 -200 -50q-159 0 -258 96q-98 98 -98 259zM348 1153h-139l188 281h242zM700 1153h-139l189 281h241z" />
    <glyph glyph-name="Uogonek" unicode="&#x172;" horiz-adv-x="1306" 
d="M123 535v899h184v-930q0 -96 29.5 -171.5t80.5 -119.5q103 -86 236 -86q134 0 235 86q52 44 81.5 119.5t29.5 171.5v930h185v-899q0 -211 -91 -347q-92 -137 -249 -188q-75 -63 -112.5 -121.5t-37.5 -122.5t43 -104.5t109 -40.5q94 0 158 49l14 -6l-17 -107
q-82 -39 -178 -39q-113 0 -187 66q-73 64 -73 170q0 135 119 227h-29q-239 0 -384 147q-146 149 -146 417z" />
    <glyph glyph-name="uogonek" unicode="&#x173;" 
d="M119 326v686h164v-652q0 -112 66 -177q67 -64 177 -64q127 0 212 94q87 95 87 236v563h164v-1012q-149 -124 -149 -244q0 -64 42.5 -104.5t108.5 -40.5q94 0 158 49l14 -6l-16 -107q-83 -39 -178 -39q-113 0 -187 66q-73 64 -73 170q0 78 42 145t119 111h-45v152
q-56 -80 -150 -131q-95 -50 -200 -50q-159 0 -258 96q-98 98 -98 259z" />
    <glyph glyph-name="Wcircumflex" unicode="&#x174;" horiz-adv-x="1933" 
d="M524 0l-479 1434h184l322 -1012l387 1012h57l387 -1012l322 1012h184l-479 -1434h-45l-397 1051l-398 -1051h-45zM778 1575h-123l205 280h215l205 -280h-123l-190 182z" />
    <glyph glyph-name="wcircumflex" unicode="&#x175;" horiz-adv-x="1568" 
d="M473 0l-440 1012h172l287 -676l268 676h49l268 -676l287 676h172l-440 -1012h-45l-267 692l-266 -692h-45zM596 1153h-123l205 281h215l205 -281h-123l-191 182z" />
    <glyph glyph-name="Ycircumflex" unicode="&#x176;" horiz-adv-x="1200" 
d="M508 623l-479 811h196l375 -652l375 652h196l-479 -811v-623h-184v623zM412 1575h-123l205 280h215l204 -280h-122l-191 182z" />
    <glyph glyph-name="ycircumflex" unicode="&#x177;" horiz-adv-x="1021" 
d="M410 182l-404 830h184l306 -650l313 650h166l-713 -1475h-164zM322 1153h-123l204 281h215l205 -281h-123l-190 182z" />
    <glyph glyph-name="Ydieresis" unicode="&#x178;" horiz-adv-x="1200" 
d="M508 623l-479 811h196l375 -652l375 652h196l-479 -811v-623h-184v623zM307 1706q0 45 32 79q33 34 77 34q46 0 79 -34q33 -33 33 -79q0 -44 -33 -77q-34 -32 -79 -32q-43 0 -77 32q-32 34 -32 77zM674 1706q0 45 32 79q31 34 76 34q46 0 79 -34q34 -33 34 -79
q0 -44 -34 -77q-34 -32 -79 -32q-44 0 -76 32q-32 34 -32 77z" />
    <glyph glyph-name="Zacute" unicode="&#x179;" horiz-adv-x="1218" 
d="M1147 0h-1090v20l779 1258h-717v156h995v-21l-786 -1257h819v-156zM573 1575h-139l189 280h241z" />
    <glyph glyph-name="zacute" unicode="&#x17a;" horiz-adv-x="976" 
d="M889 0h-817v20l546 844h-507v148h763v-21l-540 -844h555v-147zM473 1153h-139l188 281h242z" />
    <glyph glyph-name="Zdotaccent" unicode="&#x17b;" horiz-adv-x="1218" 
d="M1147 0h-1090v20l779 1258h-717v156h995v-21l-786 -1257h819v-156zM544 1660q-34 34 -34 81t34 80q34 34 81 34t80 -34q34 -33 34 -80t-34 -81q-33 -34 -80 -34t-81 34z" />
    <glyph glyph-name="zdotaccent" unicode="&#x17c;" horiz-adv-x="976" 
d="M889 0h-817v20l546 844h-507v148h763v-21l-540 -844h555v-147zM406 1238q-33 34 -33 81t33 81q34 34 81 34t81 -34t34 -81t-34 -81t-81 -34t-81 34z" />
    <glyph glyph-name="Zcaron" unicode="&#x17d;" horiz-adv-x="1218" 
d="M1147 0h-1090v20l779 1258h-717v156h995v-21l-786 -1257h819v-156zM508 1575l-205 280h123l188 -182l191 182h123l-205 -280h-215z" />
    <glyph glyph-name="zcaron" unicode="&#x17e;" horiz-adv-x="976" 
d="M889 0h-817v20l546 844h-507v148h763v-21l-540 -844h555v-147zM381 1153l-205 281h123l188 -183l191 183h123l-205 -281h-215z" />
    <glyph glyph-name="longs" unicode="&#x17f;" horiz-adv-x="708" 
d="M223 864h-133v148h133v151q0 127 81 213t196 86q91 0 170 -43l6 -157h-17q-25 25 -61.5 39t-69.5 14q-67 0 -104 -41.5t-37 -118.5v-1155h-164v864z" />
    <glyph glyph-name="uni018E" unicode="&#x18e;" horiz-adv-x="1062" 
d="M735 1278h-643v156h828v-1434h-820v156h635v462h-612v156h612v504z" />
    <glyph glyph-name="uni018F" unicode="&#x18f;" horiz-adv-x="1157" 
d="M86 467v82h829q-9 108 -65 188q-109 156 -297 156q-110 0 -194 -37q-85 -36 -185 -127h-16l6 178q92 68 184 100.5t203 32.5q224 0 376 -154.5t152 -379.5q0 -148 -69 -273q-68 -122 -185 -193q-115 -69 -250 -69q-216 0 -352 136q-137 137 -137 360zM907 414h-671
q15 -137 107 -223q92 -85 232 -85q117 0 211 81q95 80 121 227z" />
    <glyph glyph-name="florin" unicode="&#x192;" horiz-adv-x="790" 
d="M-285 -399l25 155h16q51 -51 121 -51q64 0 106 36.5t54 100.5l205 1022h-133l30 148h133l35 174q25 126 108 201t206 75q100 0 170 -43l-25 -155h-16q-51 51 -121 51q-64 0 -106 -36.5t-54 -100.5l-33 -166h180l-30 -148h-180l-207 -1030q-25 -126 -108 -201
q-82 -75 -206 -75q-100 0 -170 43z" />
    <glyph glyph-name="uni01B5" unicode="&#x1b5;" horiz-adv-x="1218" 
d="M1147 0h-1090v20l394 635h-312v131h391l306 492h-717v156h995v-21l-393 -627h348v-131h-430l-311 -499h819v-156z" />
    <glyph glyph-name="uni01B6" unicode="&#x1b6;" horiz-adv-x="976" 
d="M889 0h-817v20l280 435h-213v118h291l188 291h-507v148h763v-21l-268 -418h238v-118h-314l-196 -308h555v-147z" />
    <glyph glyph-name="Aringacute" unicode="&#x1fa;" horiz-adv-x="1368" 
d="M219 0h-184l596 1370q-72 20 -114 74q-44 56 -44 127q0 87 61 147q62 60 150 60t150 -60q61 -60 61 -147q0 -71 -44 -127q-42 -54 -114 -74l596 -1370h-184l-123 291h-684zM684 1090l-274 -644h548zM670 1853h-140l189 281h242zM591 1662q-36 -38 -36 -91q0 -55 36 -92
t93 -37t93 37t36 92q0 53 -36 91t-93 38t-93 -38z" />
    <glyph glyph-name="aringacute" unicode="&#x1fb;" horiz-adv-x="1255" 
d="M606 1040q108 0 201.5 -42.5t153.5 -112.5v127h163v-1012h-163v127q-60 -70 -153.5 -113t-201.5 -43q-148 0 -270 72q-120 71 -190 194q-68 124 -68 269q0 146 68 268q70 124 190 194q122 72 270 72zM342 781q-100 -112 -100 -275t100 -275t264 -112t264 112
q101 113 101 275t-101 275q-100 112 -264 112t-264 -112zM450 1174q-61 60 -61 147t61 147q62 60 150 60t150 -60q61 -60 61 -147t-61 -147q-62 -60 -150 -60t-150 60zM507 1412q-36 -38 -36 -91q0 -55 36 -92t93 -37t93 37t36 92q0 53 -36 91t-93 38t-93 -38zM612 1604
h-139l189 280h241z" />
    <glyph glyph-name="AEacute" unicode="&#x1fc;" horiz-adv-x="1994" 
d="M219 0h-184l622 1434h666l70 -156h-623l207 -463h571l66 -156h-570l222 -503h626l68 -156h-811l-123 291h-684zM684 1090l-272 -644h546zM942 1575h-139l188 280h242z" />
    <glyph glyph-name="aeacute" unicode="&#x1fd;" horiz-adv-x="1775" 
d="M78 250q0 74 28 133.5t74.5 99t109.5 66t129 38t136 11.5h141q0 165 -76 238q-66 69 -161 69q-153 0 -279 -133h-22l16 170q53 39 136 68q82 30 165 30q109 0 200 -53t134 -141q73 92 175 143t216 51q216 0 352 -136q138 -135 138 -359v-82h-830q9 -108 65 -188
q109 -156 298 -156q107 0 193 36q88 38 186 128h16l-6 -179q-92 -68 -184 -100.5t-203 -32.5q-138 0 -253.5 61.5t-185.5 170.5q-64 -106 -166 -169q-100 -63 -214 -63q-147 0 -238 82q-90 83 -90 197zM250 268q0 -69 47 -109t125 -40q101 0 183 82q42 40 66.5 109.5
t24.5 152.5q-446 0 -446 -195zM893 1153h-139l188 281h242zM868 598h672q-15 136 -108 222q-92 85 -232 85q-118 0 -212 -81q-94 -79 -120 -226z" />
    <glyph glyph-name="circumflex" unicode="&#x2c6;" horiz-adv-x="780" 
d="M201 1153h-123l205 281h215l204 -281h-122l-191 182z" />
    <glyph glyph-name="caron" unicode="&#x2c7;" horiz-adv-x="780" 
d="M283 1153l-205 281h123l188 -183l191 183h122l-204 -281h-215z" />
    <glyph glyph-name="breve" unicode="&#x2d8;" horiz-adv-x="577" 
d="M49 1393h127q0 -64 29 -100t84 -36t83.5 36t28.5 100h127q0 -105 -66 -172q-66 -66 -173 -66t-174 66q-66 67 -66 172z" />
    <glyph glyph-name="dotaccent" unicode="&#x2d9;" horiz-adv-x="409" 
d="M124 1238q-34 34 -34 81t34 81t81 34t80 -34q34 -34 34 -81t-34 -81q-33 -34 -80 -34t-81 34z" />
    <glyph glyph-name="ring" unicode="&#x2da;" horiz-adv-x="995" 
d="M348 1174q-61 60 -61 147t61 147q62 60 150 60t150 -60q61 -60 61 -147t-61 -147q-62 -60 -150 -60t-150 60zM405 1412q-36 -38 -36 -91q0 -55 36 -92t93 -37t93 37t36 92q0 53 -36 91t-93 38t-93 -38z" />
    <glyph glyph-name="ogonek" unicode="&#x2db;" horiz-adv-x="659" 
d="M131 -256q0 92 59.5 168t163.5 119l58 -31q-75 -63 -112.5 -121.5t-37.5 -122.5t43 -104.5t109 -40.5q93 0 157 49l15 -6l-17 -107q-82 -39 -178 -39q-113 0 -187 66q-73 64 -73 170z" />
    <glyph glyph-name="tilde" unicode="&#x2dc;" horiz-adv-x="1071" 
d="M184 1180h-10l14 147q92 86 203 86q45 0 92.5 -17.5t80.5 -41.5q83 -58 145 -58q88 0 178 99h10l-14 -148q-92 -86 -203 -86q-90 0 -173 58q-81 59 -145 59q-89 0 -178 -98z" />
    <glyph glyph-name="hungarumlaut" unicode="&#x2dd;" horiz-adv-x="929" 
d="M213 1153h-139l188 281h242zM565 1153h-139l188 281h242z" />
    <glyph glyph-name="pi" unicode="&#x3c0;" horiz-adv-x="1193" 
d="M197 868h-174v144h1148v-144h-174v-868h-163v868h-474v-868h-163v868z" />
    <glyph glyph-name="uni2000" unicode="&#x2000;" horiz-adv-x="1067" 
 />
    <glyph glyph-name="uni2001" unicode="&#x2001;" horiz-adv-x="2134" 
 />
    <glyph glyph-name="uni2002" unicode="&#x2002;" horiz-adv-x="1067" 
 />
    <glyph glyph-name="uni2003" unicode="&#x2003;" horiz-adv-x="2134" 
 />
    <glyph glyph-name="uni2004" unicode="&#x2004;" horiz-adv-x="711" 
 />
    <glyph glyph-name="uni2005" unicode="&#x2005;" horiz-adv-x="533" 
 />
    <glyph glyph-name="uni2006" unicode="&#x2006;" horiz-adv-x="355" 
 />
    <glyph glyph-name="uni2007" unicode="&#x2007;" horiz-adv-x="355" 
 />
    <glyph glyph-name="uni2008" unicode="&#x2008;" horiz-adv-x="266" 
 />
    <glyph glyph-name="uni2009" unicode="&#x2009;" horiz-adv-x="426" 
 />
    <glyph glyph-name="uni200A" unicode="&#x200a;" horiz-adv-x="118" 
 />
    <glyph glyph-name="uni2010" unicode="&#x2010;" horiz-adv-x="802" 
d="M717 582h-631v135h631v-135z" />
    <glyph glyph-name="uni2011" unicode="&#x2011;" horiz-adv-x="802" 
d="M717 582h-631v135h631v-135z" />
    <glyph glyph-name="figuredash" unicode="&#x2012;" horiz-adv-x="802" 
d="M717 582h-631v135h631v-135z" />
    <glyph glyph-name="endash" unicode="&#x2013;" horiz-adv-x="1110" 
d="M1024 582h-938v135h938v-135z" />
    <glyph glyph-name="emdash" unicode="&#x2014;" horiz-adv-x="1785" 
d="M1700 582h-1614v135h1614v-135z" />
    <glyph glyph-name="quoteleft" unicode="&#x2018;" horiz-adv-x="397" 
d="M82 1141q0 95 49 175.5t133 137.5l35 -33q-94 -77 -98 -170q45 0 80 -32q34 -31 34 -80q0 -51 -32.5 -86t-81.5 -35q-51 0 -85 36t-34 87z" />
    <glyph glyph-name="quoteright" unicode="&#x2019;" horiz-adv-x="397" 
d="M82 1333q0 51 33 86t82 35q51 0 84.5 -35.5t33.5 -87.5q0 -95 -49 -175.5t-133 -137.5l-35 33q94 76 99 170q-46 0 -81 32q-34 31 -34 80z" />
    <glyph glyph-name="quotesinglbase" unicode="&#x201a;" horiz-adv-x="413" 
d="M90 113q0 51 33 85.5t82 34.5q51 0 85 -35.5t34 -86.5q0 -95 -49.5 -176t-133.5 -138l-35 33q94 76 99 170q-46 0 -81 32q-34 33 -34 81z" />
    <glyph glyph-name="quotedblleft" unicode="&#x201c;" horiz-adv-x="688" 
d="M82 1141q0 95 49 175.5t133 137.5l35 -33q-94 -77 -98 -170q45 0 80 -32q34 -31 34 -80q0 -51 -32.5 -86t-81.5 -35q-51 0 -85 36t-34 87zM373 1141q0 95 49 175.5t133 137.5l35 -33q-94 -77 -98 -170q45 0 80 -32q34 -31 34 -80q0 -51 -32.5 -86t-81.5 -35q-51 0 -85 36
t-34 87z" />
    <glyph glyph-name="quotedblright" unicode="&#x201d;" horiz-adv-x="688" 
d="M82 1333q0 51 33 86t82 35q51 0 84.5 -35.5t33.5 -87.5q0 -95 -49 -175.5t-133 -137.5l-35 33q94 76 99 170q-46 0 -81 32q-34 31 -34 80zM373 1333q0 51 32.5 86t81.5 35q51 0 85 -36t34 -87q0 -95 -49 -175.5t-133 -137.5l-35 33q94 77 98 170q-45 0 -80 32
q-34 31 -34 80z" />
    <glyph glyph-name="quotedblbase" unicode="&#x201e;" horiz-adv-x="704" 
d="M90 113q0 51 33 85.5t82 34.5q51 0 85 -35.5t34 -86.5q0 -95 -49.5 -176t-133.5 -138l-35 33q94 76 99 170q-46 0 -81 32q-34 33 -34 81zM381 113q0 51 33 85.5t82 34.5q51 0 84.5 -35.5t33.5 -86.5q0 -95 -49 -176t-133 -138l-35 33q94 76 99 170q-46 0 -81 32
q-34 33 -34 81z" />
    <glyph glyph-name="dagger" unicode="&#x2020;" horiz-adv-x="778" 
d="M305 864h-272v148h272v422h164v-422h276v-148h-276v-1327h-164v1327z" />
    <glyph glyph-name="daggerdbl" unicode="&#x2021;" horiz-adv-x="778" 
d="M305 0h-272v147h272v717h-272v148h272v422h164v-422h276v-148h-276v-717h276v-147h-276v-463h-164v463z" />
    <glyph glyph-name="bullet" unicode="&#x2022;" horiz-adv-x="585" 
d="M178 622q-47 49 -47 115q0 67 47 114q48 48 115 48t114 -48q48 -47 48 -114t-48 -115q-47 -47 -114 -47q-66 0 -115 47z" />
    <glyph glyph-name="ellipsis" unicode="&#x2026;" horiz-adv-x="1277" 
d="M90 102q0 50 34 84q35 35 81 35q49 0 84 -35t35 -84q0 -46 -35 -81q-35 -33 -84 -33q-47 0 -81 33q-34 34 -34 81zM522 102q0 50 34 84q35 35 81 35q49 0 84 -35t35 -84q0 -46 -35 -81q-35 -33 -84 -33q-47 0 -81 33q-34 34 -34 81zM954 102q0 50 34 84q35 35 81 35
q49 0 84 -35t35 -84q0 -46 -35 -81q-35 -33 -84 -33q-47 0 -81 33q-34 34 -34 81z" />
    <glyph glyph-name="uni202F" unicode="&#x202f;" horiz-adv-x="426" 
 />
    <glyph glyph-name="perthousand" unicode="&#x2030;" horiz-adv-x="2035" 
d="M172 908q-96 94 -96 231t96 230q98 93 236 93q139 0 235 -93t96 -230t-96 -231q-96 -93 -235 -93q-138 0 -236 93zM190 418l-51 100l961 498l51 -101zM265 1287q-58 -55 -58 -148q0 -92 58 -149q59 -56 143 -56t142 56q58 57 58 149q0 93 -58 148q-58 56 -142 56
t-143 -56zM663 64q-96 94 -96 231t96 230q97 93 236 93t235 -93q97 -93 97 -230t-97 -231q-96 -93 -235 -93t-236 93zM756 443q-58 -55 -58 -148q0 -92 58 -149q59 -56 143 -56t143 56q58 57 58 149q0 93 -58 148q-58 57 -143 57t-143 -57zM1401 64q-96 94 -96 231t96 230
t235 93t235 -93q97 -93 97 -230t-97 -231q-96 -93 -235 -93t-235 93zM1493 443q-57 -56 -57 -148t57 -149q59 -56 143 -56t143 56q58 57 58 149q0 93 -58 148q-59 57 -143 57t-143 -57z" />
    <glyph glyph-name="guilsinglleft" unicode="&#x2039;" horiz-adv-x="638" 
d="M535 262l-469 406v86l469 405h22v-168l-330 -280l330 -281v-168h-22z" />
    <glyph glyph-name="guilsinglright" unicode="&#x203a;" horiz-adv-x="638" 
d="M104 262h-22v168l330 281l-330 280v168h22l469 -405v-86z" />
    <glyph glyph-name="fraction" unicode="&#x2044;" horiz-adv-x="1298" 
d="M195 418l-52 100l961 498l51 -101z" />
    <glyph glyph-name="uni205F" unicode="&#x205f;" horiz-adv-x="533" 
 />
    <glyph glyph-name="zerosuperior" unicode="&#x2070;" horiz-adv-x="724" 
d="M134 807q-87 105 -87 268t87 268t228 105t228 -105q88 -104 88 -268t-88 -268q-87 -105 -228 -105t-228 105zM223 1273q-53 -74 -53 -198t53 -198q54 -72 139 -72t139 72q54 73 54 198t-54 198t-139 73t-139 -73z" />
    <glyph glyph-name="foursuperior" unicode="&#x2074;" horiz-adv-x="591" 
d="M344 881h-324v67l396 486h51v-451h98v-102h-98v-164h-123v164zM344 1192l-172 -209h172v209z" />
    <glyph glyph-name="fivesuperior" unicode="&#x2075;" horiz-adv-x="565" 
d="M72 741l-25 131h14q94 -67 193 -67q70 0 112 41t42 112q0 70 -40.5 109t-111.5 39q-87 0 -176 -47l-25 6l45 369h385v-103h-295l-26 -157q55 26 127 26q105 0 172 -65q67 -64 67 -177q0 -115 -80 -186q-79 -70 -192 -70q-98 0 -186 39z" />
    <glyph glyph-name="sixsuperior" unicode="&#x2076;" horiz-adv-x="595" 
d="M41 1049q0 105 35 196q34 90 106 146q70 57 164 57q82 0 137 -39l13 -115h-13q-55 52 -141 52q-75 0 -121.5 -60t-52.5 -172q30 30 75 48t87 18q102 0 166 -66q65 -65 65 -166q0 -99 -77 -173q-76 -73 -177 -73q-61 0 -115 27.5t-88 75.5q-63 85 -63 244zM174 944
q0 -59 37 -99t94 -40t97 40t40 99q0 58 -40 95q-41 38 -97 38q-57 0 -94 -38t-37 -95z" />
    <glyph glyph-name="sevensuperior" unicode="&#x2077;" horiz-adv-x="569" 
d="M389 1331h-354v103h514v-19l-342 -698h-129z" />
    <glyph glyph-name="eightsuperior" unicode="&#x2078;" horiz-adv-x="573" 
d="M41 926q0 62 33 111q34 49 80 71q-84 63 -84 149q0 80 61 135q62 56 156 56t156 -56q61 -55 61 -135q0 -86 -84 -149q47 -23 79 -71q33 -49 33 -111q0 -90 -68 -158q-68 -66 -177 -66q-111 0 -178 67q-68 68 -68 157zM191 1026q-39 -36 -39 -92t39 -93q41 -36 96 -36
q56 0 95 36q40 37 40 93t-40 92q-38 37 -95 37q-56 0 -96 -37zM208 1326q-32 -29 -32 -73t32 -73q31 -27 79 -27q47 0 78 27q32 29 32 73t-32 73q-31 28 -78 28q-48 0 -79 -28z" />
    <glyph glyph-name="ninesuperior" unicode="&#x2079;" horiz-adv-x="595" 
d="M35 1206q0 98 75 170q76 72 179 72q129 0 203 -102q63 -86 63 -244q0 -105 -35 -196q-34 -89 -106 -147q-70 -57 -164 -57q-82 0 -137 39l-13 115h13q53 -51 141 -51q75 0 121.5 60.5t52.5 170.5q-30 -30 -74 -47.5t-88 -17.5q-96 0 -164 66q-67 67 -67 169zM154 1206
q0 -58 40 -95q41 -38 97 -38q57 0 94 38t37 95q0 58 -38 99t-93 41q-56 0 -97 -41q-40 -40 -40 -99z" />
    <glyph glyph-name="zeroinferior" unicode="&#x2080;" horiz-adv-x="724" 
d="M134 -372q-87 105 -87 268q0 164 87 267q87 105 228 105t228 -105q88 -103 88 -267t-88 -268q-87 -105 -228 -105t-228 105zM223 93q-53 -73 -53 -197t53 -198q54 -73 139 -73t139 73q54 74 54 198q0 125 -54 197q-54 73 -139 73t-139 -73z" />
    <glyph glyph-name="oneinferior" unicode="&#x2081;" horiz-adv-x="245" 
d="M61 -463v649l97 68h26v-717h-123z" />
    <glyph glyph-name="twoinferior" unicode="&#x2082;" horiz-adv-x="575" 
d="M29 -463v17l284 335q74 89 74 168q0 46 -35.5 77.5t-87.5 31.5q-103 0 -184 -113h-19l9 129q39 39 93 62.5t107 23.5q101 0 168 -59q66 -58 66 -152q0 -107 -121 -243l-152 -174h301v-103h-503z" />
    <glyph glyph-name="threeinferior" unicode="&#x2083;" horiz-adv-x="581" 
d="M68 -424l-13 127h15q90 -78 190 -78q65 0 109 40q45 41 45 110q0 70 -47 112q-47 41 -111 41q-40 0 -78 -12l-16 33l153 203h-256v102h445v-12l-178 -232q88 -10 150 -71q61 -60 61 -150q0 -124 -80 -195t-193 -71q-110 0 -196 53z" />
    <glyph glyph-name="fourinferior" unicode="&#x2084;" horiz-adv-x="591" 
d="M20 -299v68l396 485h51v-451h98v-102h-98v-164h-123v164h-324zM344 12l-172 -209h172v209z" />
    <glyph glyph-name="fiveinferior" unicode="&#x2085;" horiz-adv-x="565" 
d="M72 -438l-25 131h14q97 -68 193 -68q70 0 112 41.5t42 112.5q0 70 -40.5 108.5t-111.5 38.5q-87 0 -176 -47l-25 6l45 369h385v-102h-295l-26 -158q55 26 127 26q107 0 172 -64q67 -64 67 -177q0 -114 -80 -185t-192 -71q-98 0 -186 39z" />
    <glyph glyph-name="sixinferior" unicode="&#x2086;" horiz-adv-x="595" 
d="M41 -131q0 105 35 196q34 90 106 146q70 57 164 57q82 0 137 -39l13 -114h-13q-53 51 -141 51q-75 0 -121.5 -60t-52.5 -172q30 30 75 48t87 18q101 0 166 -65t65 -166q0 -99 -77 -173q-76 -73 -177 -73q-61 0 -115 27.5t-88 74.5q-63 85 -63 244zM174 -236q0 -59 37 -99
t94 -40q56 0 97 41q40 40 40 98q0 57 -40 96q-41 38 -97 38q-57 0 -94 -38.5t-37 -95.5z" />
    <glyph glyph-name="seveninferior" unicode="&#x2087;" horiz-adv-x="569" 
d="M389 152h-354v102h514v-18l-342 -699h-129z" />
    <glyph glyph-name="eightinferior" unicode="&#x2088;" horiz-adv-x="573" 
d="M41 -254q0 62 33 111q34 49 80 71q-84 63 -84 150q0 79 61 134q62 56 156 56t156 -56q61 -55 61 -134q0 -87 -84 -150q47 -23 79 -71q33 -49 33 -111q0 -90 -68 -156q-67 -67 -177 -67q-111 0 -178 67q-68 66 -68 156zM191 -153q-39 -37 -39 -93t39 -92q40 -37 96 -37
q57 0 95 37q40 36 40 92t-40 93q-39 36 -95 36q-55 0 -96 -36zM208 146q-32 -27 -32 -72q0 -44 32 -73q31 -28 79 -28q47 0 78 28q32 29 32 73q0 45 -32 72q-31 28 -78 28q-48 0 -79 -28z" />
    <glyph glyph-name="nineinferior" unicode="&#x2089;" horiz-adv-x="595" 
d="M35 27q0 99 75 169q76 72 179 72q129 0 203 -102q63 -86 63 -244q0 -105 -35 -196q-34 -90 -106 -146q-70 -57 -164 -57q-82 0 -137 39l-13 114h13q53 -51 141 -51q75 0 121.5 60t52.5 172q-30 -30 -74.5 -48t-87.5 -18q-97 0 -164 67t-67 169zM154 27q0 -58 40 -95
q41 -38 97 -38q57 0 94 38t37 95q0 59 -37 99t-94 40q-56 0 -97 -41q-40 -40 -40 -98z" />
    <glyph glyph-name="Euro" unicode="&#x20ac;" horiz-adv-x="1286" 
d="M172 504h-147l45 127h80q-5 40 -5 86t5 86h-125l45 127h102q62 234 237 382q175 150 416 150q207 0 334 -96l15 -176h-21q-80 66 -154 91q-76 26 -178 26q-156 0 -283 -103q-126 -102 -178 -274h601l-46 -127h-581q-4 -48 -4 -86t4 -86h627l-46 -127h-555
q53 -174 178 -275q126 -102 283 -102q102 0 178 26q74 25 154 91h21l-15 -176q-128 -97 -334 -97q-241 0 -416 150t-237 383z" />
    <glyph glyph-name="trademark" unicode="&#x2122;" horiz-adv-x="1433" 
d="M225 1331h-184v103h491v-103h-184v-614h-123v614zM643 717h-115l199 717h21l213 -478l213 478h20l199 -717h-115l-115 436l-194 -436h-17l-194 436z" />
    <glyph glyph-name="Omega" unicode="&#x2126;" horiz-adv-x="1626" 
d="M111 797q0 139 54.5 263t149.5 213t225 139t273 50q193 0 354 -86t255 -238t94 -341q0 -176 -94 -355q-93 -180 -238 -286h305v-156h-571v119q125 82 224 191q55 63 97 132q92 160 92 344q0 223 -146 372t-372 149t-372 -149t-146 -372q0 -233 139 -415
q121 -151 275 -252v-119h-572v156h305q-145 106 -238 286t-93 355z" />
    <glyph glyph-name="onethird" unicode="&#x2153;" horiz-adv-x="1064" 
d="M78 213l-51 100l960 498l51 -100zM389 717h-123v649l96 68h27v-717zM477 -424l-12 127h14q90 -78 191 -78q66 0 109.5 41t43.5 109q0 70 -46 112q-47 41 -111 41q-40 0 -78 -12l-17 33l154 203h-256v102h444v-12l-178 -232q88 -10 150 -71q61 -60 61 -150
q0 -125 -80 -196q-79 -70 -192 -70q-111 0 -197 53z" />
    <glyph glyph-name="twothirds" unicode="&#x2154;" horiz-adv-x="1099" 
d="M530 717h-503v16l284 336q74 89 74 168q0 46 -35.5 77.5t-87.5 31.5q-103 0 -184 -113h-19l9 129q39 39 93 62.5t107 23.5q101 0 168 -59q66 -59 66 -152q0 -108 -121 -244l-152 -174h301v-102zM113 213l-52 100l961 498l51 -100zM512 -424l-12 127h14q90 -78 191 -78
q66 0 109.5 41t43.5 109q0 70 -47 112q-47 41 -111 41q-40 0 -77 -12l-17 33l154 203h-256v102h444v-12l-178 -232q88 -10 150 -71q61 -60 61 -150q0 -125 -80 -196q-79 -70 -192 -70q-111 0 -197 53z" />
    <glyph glyph-name="oneeighth" unicode="&#x215b;" horiz-adv-x="1064" 
d="M78 213l-51 100l960 498l51 -100zM389 717h-123v649l96 68h27v-717zM430 -254q0 62 33 111q34 49 80 71q-84 63 -84 150q0 79 61 134q62 56 156 56t156 -56q61 -55 61 -134q0 -87 -84 -150q47 -23 79 -71q34 -49 34 -111q0 -90 -68 -156q-67 -67 -178 -67t-178 67
q-68 66 -68 156zM580 -153q-39 -37 -39 -93t39 -92q40 -37 96 -37q57 0 95 37q40 36 40 92t-40 93q-39 36 -95 36t-96 -36zM597 146q-32 -27 -32 -72q0 -44 32 -73q31 -28 79 -28q47 0 78 28q32 29 32 73q0 45 -32 72q-31 28 -78 28q-48 0 -79 -28z" />
    <glyph glyph-name="threeeighths" unicode="&#x215c;" horiz-adv-x="1064" 
d="M78 213l-51 100l960 498l51 -100zM68 756l-13 127h15q90 -78 190 -78q64 0 109 39q45 40 45 110t-47 112t-111 42q-40 0 -78 -12l-16 32l153 203h-256v103h445v-13l-178 -231q88 -10 150 -71q61 -60 61 -150q0 -126 -80 -197q-79 -70 -193 -70q-108 0 -196 54zM430 -254
q0 62 33 111q34 49 80 71q-84 63 -84 150q0 79 61 134q62 56 156 56t156 -56q61 -55 61 -134q0 -87 -84 -150q47 -23 79 -71q34 -49 34 -111q0 -90 -68 -156q-67 -67 -178 -67t-178 67q-68 66 -68 156zM580 -153q-39 -37 -39 -93t39 -92q40 -37 96 -37q57 0 95 37
q40 36 40 92t-40 93q-39 36 -95 36t-96 -36zM597 146q-32 -27 -32 -72q0 -44 32 -73q31 -28 79 -28q47 0 78 28q32 29 32 73q0 45 -32 72q-31 28 -78 28q-48 0 -79 -28z" />
    <glyph glyph-name="fiveeighths" unicode="&#x215d;" horiz-adv-x="1064" 
d="M78 213l-51 100l960 498l51 -100zM72 741l-25 131h14q94 -67 193 -67q70 0 112 41t42 112q0 70 -40.5 109t-111.5 39q-87 0 -176 -47l-25 6l45 369h385v-103h-295l-26 -157q55 26 127 26q105 0 172 -65q67 -64 67 -177q0 -115 -80 -186q-79 -70 -192 -70q-98 0 -186 39z
M430 -254q0 62 33 111q34 49 80 71q-84 63 -84 150q0 79 61 134q62 56 156 56t156 -56q61 -55 61 -134q0 -87 -84 -150q47 -23 79 -71q34 -49 34 -111q0 -90 -68 -156q-67 -67 -178 -67t-178 67q-68 66 -68 156zM580 -153q-39 -37 -39 -93t39 -92q40 -37 96 -37q57 0 95 37
q40 36 40 92t-40 93q-39 36 -95 36t-96 -36zM597 146q-32 -27 -32 -72q0 -44 32 -73q31 -28 79 -28q47 0 78 28q32 29 32 73q0 45 -32 72q-31 28 -78 28q-48 0 -79 -28z" />
    <glyph glyph-name="seveneighths" unicode="&#x215e;" horiz-adv-x="1064" 
d="M78 213l-51 100l960 498l51 -100zM492 1331h-355v103h514v-19l-342 -698h-129zM430 -254q0 62 33 111q34 49 80 71q-84 63 -84 150q0 79 61 134q62 56 156 56t156 -56q61 -55 61 -134q0 -87 -84 -150q47 -23 79 -71q34 -49 34 -111q0 -90 -68 -156q-67 -67 -178 -67
t-178 67q-68 66 -68 156zM580 -153q-39 -37 -39 -93t39 -92q40 -37 96 -37q57 0 95 37q40 36 40 92t-40 93q-39 36 -95 36t-96 -36zM597 146q-32 -27 -32 -72q0 -44 32 -73q31 -28 79 -28q47 0 78 28q32 29 32 73q0 45 -32 72q-31 28 -78 28q-48 0 -79 -28z" />
    <glyph glyph-name="partialdiff" unicode="&#x2202;" horiz-adv-x="1161" 
d="M78 455q0 100 39.5 190.5t107.5 152.5q66 62 153 97t177 35q94 0 178.5 -37t149.5 -102q-9 144 -71 262q-60 117 -155 182t-204 65q-69 0 -115 -13q-46 -12 -100 -38l-21 13l41 172q116 28 207 28q148 0 267 -71q119 -70 195 -193q156 -249 156 -608q0 -277 -143 -449
q-143 -170 -375 -170q-135 0 -248 65q-111 65 -176 177q-63 111 -63 242zM571 135q128 0 220 92q92 94 92 228q0 135 -92 227t-220 92q-126 0 -218 -92q-91 -91 -91 -227t91 -228q92 -92 218 -92z" />
    <glyph glyph-name="increment" unicode="&#x2206;" horiz-adv-x="1335" 
d="M1278 0h-1221v74l512 1360h199l510 -1360v-74zM668 1260l-408 -1113h815z" />
    <glyph glyph-name="product" unicode="&#x220f;" horiz-adv-x="1253" 
d="M328 -463h-185v1897h967v-1897h-184v1741h-598v-1741z" />
    <glyph glyph-name="summation" unicode="&#x2211;" horiz-adv-x="1179" 
d="M1108 0h-1036v41l477 717l-445 635v41h963v-156h-686l352 -520l-397 -602h772v-156z" />
    <glyph glyph-name="minus" unicode="&#x2212;" horiz-adv-x="987" 
d="M901 684h-815v135h815v-135z" />
    <glyph glyph-name="radical" unicode="&#x221a;" horiz-adv-x="1028" 
d="M205 623h-170v135h287l184 -533l319 1209h156l-391 -1434h-160z" />
    <glyph glyph-name="infinity" unicode="&#x221e;" horiz-adv-x="1163" 
d="M113 410q0 128 63 225q65 99 166 153q-170 116 -170 297q0 134 81 233q81 100 216 132v139h70v-129q43 5 86 0v129h69v-139q134 -32 215 -132q82 -100 82 -233q0 -181 -170 -297q101 -54 166 -153q64 -97 64 -225q0 -91 -39 -178q-38 -85 -122 -157q-81 -68 -196 -91
v-140h-69v129q-5 0 -22 -1t-21 -1t-21 1t-22 1v-129h-70v140q-116 23 -197 92q-159 133 -159 334zM289 418q0 -97 49 -168.5t131 -102.5v541q-83 -33 -131.5 -104t-48.5 -166zM469 879v411q-62 -27 -97.5 -81t-35.5 -124t35.5 -124.5t97.5 -81.5zM539 705v-576q43 -5 86 0
v576q-43 8 -86 0zM539 1311v-453q18 -2 43 -2t43 2v453q-43 7 -86 0zM694 688v-541q82 31 131 102.5t49 168.5q0 95 -48.5 166t-131.5 104zM694 1290v-411q62 27 97.5 81.5t35.5 124.5t-35.5 124t-97.5 81z" />
    <glyph glyph-name="integral" unicode="&#x222b;" horiz-adv-x="790" 
d="M-285 -399l25 155h16q53 -53 121 -53q63 0 105.5 37.5t54.5 101.5l270 1344q25 126 108 201t206 75q100 0 170 -43l-25 -155h-16q-53 53 -121 53q-63 0 -105.5 -37.5t-54.5 -101.5l-270 -1344q-25 -126 -108 -201q-82 -75 -206 -75q-100 0 -170 43z" />
    <glyph glyph-name="approxequal" unicode="&#x2248;" horiz-adv-x="983" 
d="M111 440h-13l13 150q86 86 194 86q52 0 107 -18t95 -43q106 -60 183 -60q94 0 182 88h13l-13 -149q-86 -86 -194 -86q-97 0 -203 60q-101 60 -182 60q-94 0 -182 -88zM111 748h-13l13 149q86 86 194 86q52 0 107 -18t95 -43q106 -60 183 -60q94 0 182 88h13l-13 -149
q-86 -86 -194 -86q-97 0 -203 60q-96 61 -182 61q-94 0 -182 -88z" />
    <glyph glyph-name="notequal" unicode="&#x2260;" horiz-adv-x="1011" 
d="M274 397h-176v135h248l168 316h-416v135h490l102 193h152l-105 -193h176v-135h-247l-168 -316h415v-135h-489l-102 -192h-152z" />
    <glyph glyph-name="lessequal" unicode="&#x2264;" horiz-adv-x="1011" 
d="M913 0h-815v135h815v-135zM776 365l-618 438v143l618 438h21v-165l-490 -345l490 -344v-165h-21z" />
    <glyph glyph-name="greaterequal" unicode="&#x2265;" horiz-adv-x="1011" 
d="M913 0h-815v135h815v-135zM178 365h-20v165l489 344l-489 345v165h20l619 -438v-143z" />
    <glyph glyph-name="lozenge" unicode="&#x25ca;" horiz-adv-x="1110" 
d="M459 0l-434 717l434 717h192l434 -717l-434 -717h-192zM555 1292l-346 -575l346 -576l346 576z" />
    <glyph glyph-name="uniE000" unicode="&#xe000;" horiz-adv-x="1013" 
d="M1014 0h-1014v1014h1014v-1014z" />
    <glyph glyph-name="apple" unicode="&#xf8ff;" horiz-adv-x="1597" 
d="M193 45v1219q0 33 32 45l553 159q17 5 21 5q3 0 20 -5l553 -159q33 -12 33 -45v-1219q0 -19 -12.5 -32t-32.5 -13q-4 0 -14 2l-547 158l-547 -158q-10 -2 -14 -2q-20 0 -32.5 13t-12.5 32zM281 948v-844l473 138v417q-149 12 -274 89q-126 77 -199 200zM754 1370
l-471 -137q12 -192 146 -329t325 -154v620zM844 659v-417l473 -138v844q-78 -125 -200 -200q-125 -77 -273 -89zM844 1370v-620q191 17 325 154t146 329z" />
    <glyph glyph-name="CR.001" horiz-adv-x="682" 
 />
    <glyph glyph-name="zero.tn" horiz-adv-x="1331" 
d="M666 1462q138 0 254 -55.5t194 -156.5q162 -206 162 -533q0 -217 -72.5 -384.5t-211.5 -264.5t-326 -97t-326 97t-213 266q-72 169 -72 383t72 382q73 168 213 266q139 97 326 97zM359 1148q-119 -158 -119 -431q0 -272 119 -432q119 -158 307 -158t307 158
q119 160 119 432q0 273 -119 431q-119 159 -307 159t-307 -159z" />
    <glyph glyph-name="one.tn" horiz-adv-x="1331" 
d="M758 0h-185v1337l142 97h43v-1434z" />
    <glyph glyph-name="two.tn" horiz-adv-x="1331" 
d="M1141 0h-948v20l561 685q83 105 115 179q36 80 36 171q0 116 -77 184t-191 68q-107 0 -205 -60q-96 -59 -158 -160h-18l12 213q73 75 172 118q102 44 201 44q195 0 317 -114q123 -114 123 -283q0 -112 -48.5 -217t-143.5 -221l-387 -471h639v-156z" />
    <glyph glyph-name="three.tn" horiz-adv-x="1331" 
d="M762 1278h-563v156h864v-21l-367 -473q179 -23 302 -131q64 -56 99.5 -141t35.5 -191q0 -227 -146 -367q-145 -139 -381 -139q-109 0 -195 26q-83 25 -167 71l-23 194h17q172 -135 376 -135q152 0 246 93q96 94 96 243q0 158 -106 249t-254 91q-74 0 -162 -21l-18 37z
" />
    <glyph glyph-name="four.tn" horiz-adv-x="1331" 
d="M823 356h-659v82l801 996h43v-922h159v-156h-159v-356h-185v356zM823 1016l-407 -504h407v504z" />
    <glyph glyph-name="five.tn" horiz-adv-x="1331" 
d="M240 57l-39 203h16q178 -133 387 -133q139 0 242 88q51 44 80.5 113.5t29.5 152.5q0 169 -101 261t-251 92q-174 0 -358 -129l-35 6l88 723h764v-156h-629l-51 -373q131 64 270 64q208 0 344 -133q136 -132 136 -355q0 -226 -151 -368q-149 -142 -380 -142q-97 0 -180 20
q-82 20 -182 66z" />
    <glyph glyph-name="six.tn" horiz-adv-x="1331" 
d="M152 647q0 128 24 246.5t74 222t121 180.5t172 121.5t221 44.5q144 0 260 -65l18 -185h-24q-68 53 -126.5 74t-127.5 21q-184 0 -296 -141t-132 -408q73 85 175 128q105 44 204 44q209 0 337 -132q128 -131 128 -343q0 -94 -39 -183t-107 -156q-67 -67 -161 -106
t-195 -39q-112 0 -207.5 42t-161.5 118q-157 179 -157 516zM442 689q-90 -93 -90 -234t90 -235q92 -93 234 -93t231 93q88 92 88 235t-88 234q-89 93 -231 93t-234 -93z" />
    <glyph glyph-name="seven.tn" horiz-adv-x="1331" 
d="M899 1278h-709v156h953v-21l-711 -1413h-184z" />
    <glyph glyph-name="eight.tn" horiz-adv-x="1331" 
d="M197 410q0 128 63 225q65 99 166 153q-170 116 -170 297q0 161 115 269t295 108t294 -108q115 -106 115 -269q0 -181 -170 -297q101 -54 166 -153q64 -97 64 -225q0 -159 -117 -295q-58 -66 -150.5 -105t-201.5 -39t-201.5 39t-150.5 105q-117 136 -117 295zM458 628
q-85 -79 -85 -210q0 -130 85 -211q86 -80 208 -80q121 0 207 80q85 81 85 211q0 131 -85 210q-85 81 -207 81t-208 -81zM666 856q104 0 174 64q71 65 71 165t-71 165t-174 65q-104 0 -175 -65t-71 -165q0 -101 70 -165t176 -64z" />
    <glyph glyph-name="nine.tn" horiz-adv-x="1331" 
d="M152 979q0 129 64 238t181 178q115 67 256 67q113 0 210 -42t163 -117q154 -175 154 -517q0 -128 -24 -247t-74 -222.5t-121.5 -180t-172.5 -121t-221 -44.5q-141 0 -260 66l-18 184h24q72 -55 128 -74q60 -20 126 -20q183 0 296 141t132 408q-142 -172 -379 -172
q-204 0 -334 132q-130 133 -130 343zM424 1214q-88 -92 -88 -235t88 -235q88 -93 231 -93t233 93q91 94 91 235q0 142 -91 234q-90 94 -233 94t-231 -93z" />
    </font>
</defs>
</svg>
