<?xml version="1.0" standalone="no"?>
<!DOCTYPE svg PUBLIC "-//W3C//DTD SVG 1.1//EN" "http://www.w3.org/Graphics/SVG/1.1/DTD/svg11.dtd" >
<svg xmlns="http://www.w3.org/2000/svg" xmlns:xlink="http://www.w3.org/1999/xlink" version="1.1">
<metadata>
Created by FontForge 20200511 at Mon Feb  3 19:33:59 2014
 By convertio
Copyright (c) 2012 by The Entente (AS&#38;EH). All rights reserved.
</metadata>
<defs>
<font id="Value-Italic" horiz-adv-x="1120" >
  <font-face 
    font-family="Value"
    font-weight="400"
    font-style="italic"
    font-stretch="normal"
    units-per-em="2048"
    panose-1="2 11 5 3 3 2 4 9 2 3"
    ascent="1638"
    descent="-410"
    x-height="1012"
    cap-height="1434"
    bbox="-260 -590 2310 2134"
    underline-thickness="102"
    underline-position="-408"
    slope="-9"
    unicode-range="U+000D-FB02"
  />
<missing-glyph horiz-adv-x="645" 
 />
    <glyph glyph-name="fi" unicode="fi" horiz-adv-x="1150" 
d="M272 0h-163l137 864h-133l22 148h133l25 151q23 136 110 217q88 82 213 82q88 0 164 -43l-18 -155h-17q-21 24 -55.5 37.5t-66.5 13.5q-66 0 -111 -42t-57 -118l-23 -143h180l-22 -148h-180zM897 0h-164l160 1012h164zM911 1317q0 47 33 82q35 35 80 35q47 0 82 -35
t35 -82q0 -45 -35 -80q-34 -33 -82 -33q-46 0 -80 33q-33 35 -33 80z" />
    <glyph glyph-name="fl" unicode="fl" horiz-adv-x="1136" 
d="M272 0h-163l137 864h-133l22 148h133l25 151q23 136 110 217q88 82 213 82q88 0 164 -43l-18 -155h-17q-21 24 -55.5 37.5t-66.5 13.5q-66 0 -111 -42t-57 -118l-23 -143h180l-22 -148h-180zM891 0h-164l236 1475h163z" />
    <glyph glyph-name=".notdef" horiz-adv-x="645" 
 />
    <glyph glyph-name=".null" horiz-adv-x="0" 
 />
    <glyph glyph-name="nonmarkingreturn" horiz-adv-x="682" 
 />
    <glyph glyph-name="NULL" horiz-adv-x="0" 
 />
    <glyph glyph-name="NULL" horiz-adv-x="0" 
 />
    <glyph glyph-name="CR" unicode="&#xd;" horiz-adv-x="0" 
 />
    <glyph glyph-name="space" unicode=" " horiz-adv-x="645" 
 />
    <glyph glyph-name="exclam" unicode="!" horiz-adv-x="520" 
d="M83 24q-36 36 -36 89t36 89q37 36 89 36t88 -36q37 -36 37 -89t-37 -89q-36 -36 -88 -36t-89 36zM301 410h-164l162 1024h164z" />
    <glyph glyph-name="quotedbl" unicode="&#x22;" horiz-adv-x="692" 
d="M262 983h-110l26 451h201zM590 983h-111l27 451h201z" />
    <glyph glyph-name="numbersign" unicode="#" horiz-adv-x="1400" 
d="M264 408h-250l52 139h245l117 340h-256l51 139h252l141 408h152l-141 -408h358l141 408h152l-141 -408h249l-51 -139h-245l-117 -340h256l-51 -139h-252l-142 -408h-151l141 408h-358l-142 -408h-151zM580 887l-117 -340h358l117 340h-358z" />
    <glyph glyph-name="dollar" unicode="$" horiz-adv-x="1046" 
d="M33 135l45 205h20q42 -74 122 -135q82 -59 167 -74l90 576q-125 60 -208 154q-81 93 -81 212q0 165 118 271q119 107 292 116l20 129h119l-22 -135q140 -23 252 -106l-23 -187h-26q-110 122 -226 146l-78 -488q318 -155 318 -389q0 -185 -128 -311q-128 -125 -323 -144
l-20 -131h-119l20 131q-107 9 -194.5 53t-134.5 107zM360 1092q0 -123 146 -213l67 432q-92 -14 -152 -71q-61 -58 -61 -148zM588 649l-82 -516q106 21 171 95q66 74 66 182q0 140 -155 239z" />
    <glyph glyph-name="percent" unicode="%" horiz-adv-x="1320" 
d="M154 424l-50 94l1014 481l49 -94zM127 1102q0 91 44 173q43 82 131 135q87 54 198 54q128 0 213 -81q86 -81 86 -209q0 -146 -108 -253q-107 -106 -269 -106q-115 0 -206 83q-89 83 -89 204zM258 1112q0 -83 52 -131q53 -47 128 -47q92 0 160 67q70 67 70 162
q0 80 -50 130t-126 50q-97 0 -166 -70q-68 -70 -68 -161zM485 258q0 139 99 249q49 52 120.5 83t153.5 31q128 0 213 -82q86 -81 86 -209q0 -146 -108 -253q-107 -106 -269 -106q-115 0 -206 83q-89 83 -89 204zM616 268q0 -82 53 -130t128 -48q92 0 160 67q69 67 69 162
q0 81 -50 131t-126 50q-97 0 -166 -70q-68 -71 -68 -162z" />
    <glyph glyph-name="ampersand" unicode="&#x26;" horiz-adv-x="1312" 
d="M41 344q0 309 371 467q-90 151 -90 283q0 151 102 258q49 52 125 81t166 29q149 0 243 -82q95 -81 95 -215q0 -131 -99 -229.5t-297 -179.5l242 -369q93 111 199 309h16l23 -211q-64 -126 -150 -229l170 -256h-203l-90 135q-102 -86 -201 -125q-101 -39 -227 -39
q-166 0 -281 108q-114 108 -114 265zM465 127q158 0 313 135l-282 426q-133 -64 -202 -142t-69 -181q0 -107 68 -173q68 -65 172 -65zM498 1098q0 -102 77 -221q130 49 210 107q96 69 96 167q0 75 -53 122q-52 46 -130 46q-88 0 -144 -62t-56 -159z" />
    <glyph glyph-name="quotesingle" unicode="'" horiz-adv-x="364" 
d="M283 983h-111l27 451h200z" />
    <glyph glyph-name="parenleft" unicode="(" horiz-adv-x="602" 
d="M57 252q0 350 123 637q124 288 361 545h141q-224 -282 -344 -569q-117 -283 -117 -597q0 -371 160 -731h-141q-78 147 -130 335q-53 192 -53 380z" />
    <glyph glyph-name="parenright" unicode=")" horiz-adv-x="602" 
d="M0 -463h-141q225 286 342 568q118 282 118 597q0 374 -159 732h141q76 -143 129 -335t53 -380q0 -351 -123 -638q-122 -288 -360 -544z" />
    <glyph glyph-name="asterisk" unicode="*" horiz-adv-x="774" 
d="M186 920l-51 118l8 19l252 71l-229 76v19l88 118l16 7l158 -177l-16 250l14 13h139l10 -13l-96 -250l213 177l17 -7l51 -118l-8 -19l-254 -76l231 -71v-19l-88 -118l-16 -7l-160 172l18 -245l-14 -13h-139l-11 13l95 245l-211 -172z" />
    <glyph glyph-name="plus" unicode="+" horiz-adv-x="1011" 
d="M432 684h-340l23 135h340l53 340h135l-53 -340h340l-23 -135h-340l-53 -340h-135z" />
    <glyph glyph-name="comma" unicode="," horiz-adv-x="413" 
d="M-29 -221l-8 39q104 61 127 170q-34 0 -66 33q-32 34 -32 79q0 51 32.5 86t81.5 35q51 0 85 -36t34 -87q0 -103 -74 -185q-72 -81 -180 -134z" />
    <glyph glyph-name="hyphen" unicode="-" horiz-adv-x="802" 
d="M694 582h-631l23 135h631z" />
    <glyph glyph-name="period" unicode="." horiz-adv-x="413" 
d="M-8 102q0 50 33 84q35 35 81 35q49 0 84 -35t35 -84q0 -46 -35 -81q-34 -33 -84 -33q-46 0 -81 33q-33 35 -33 81z" />
    <glyph glyph-name="slash" unicode="/" horiz-adv-x="1064" 
d="M102 0h-184l1043 1434h186z" />
    <glyph glyph-name="zero" unicode="0" horiz-adv-x="1433" 
d="M92 584q0 248 117 472q63 118 145 206q86 92 208.5 146t260.5 54q236 0 377 -164t141 -442q0 -259 -121 -488q-63 -117 -146 -203q-86 -89 -204 -141q-120 -53 -256 -53q-225 0 -374 167q-148 167 -148 446zM276 598q0 -226 99 -349q101 -122 258 -122q94 0 180 43
t148 117q92 105 145 255.5t51 291.5q0 230 -94 351q-93 122 -254 122q-123 0 -224 -68t-173 -181q-66 -103 -101 -226.5t-35 -233.5z" />
    <glyph glyph-name="one" unicode="1" horiz-adv-x="471" 
d="M215 0h-184l211 1337l157 97h43z" />
    <glyph glyph-name="two" unicode="2" horiz-adv-x="1136" 
d="M922 0h-947l5 20l677 705q97 101 144 180q47 80 47 176q0 97 -69 161q-70 65 -173 65q-201 0 -379 -220h-18l51 224q76 71 173 111t200 40q172 0 281 -100q110 -101 110 -262q0 -111 -62 -224q-61 -110 -194 -249l-449 -471h627z" />
    <glyph glyph-name="three" unicode="3" horiz-adv-x="1163" 
d="M72 68l8 194h16q152 -135 363 -135q160 0 275 109q116 110 116 266q0 142 -93 221q-92 80 -225 80q-62 0 -155 -21l-12 37l415 459h-561l25 156h864l-4 -21l-440 -473q147 -23 254 -121q116 -105 116 -291q0 -158 -79 -285q-80 -128 -216 -200q-137 -72 -303 -72
q-120 0 -204 26q-85 26 -160 71z" />
    <glyph glyph-name="four" unicode="4" horiz-adv-x="1132" 
d="M649 356h-672l13 82l971 996h43l-146 -922h160l-25 -156h-159l-58 -356h-184zM754 1012l-496 -500h416z" />
    <glyph glyph-name="five" unicode="5" horiz-adv-x="1128" 
d="M47 66l-8 194h16q157 -133 367 -133q174 0 293 115q121 115 121 284q0 137 -86 223q-85 85 -215 85q-185 0 -379 -129l-35 6l203 723h763l-24 -156h-629l-110 -373q143 64 280 64q179 0 294 -112q116 -113 116 -304q0 -163 -81 -297q-79 -133 -218 -210
q-137 -75 -301 -75q-210 0 -367 95z" />
    <glyph glyph-name="six" unicode="6" horiz-adv-x="1206" 
d="M82 520q0 156 47.5 322t137.5 299q65 95 144 165q82 73 189.5 114.5t226.5 41.5q147 0 260 -65l-10 -185h-24q-61 55 -119 75t-133 20q-181 0 -317 -144q-138 -145 -187 -405q68 78 173 124q102 46 206 46q176 0 301 -117q125 -116 125 -301q0 -146 -71 -271
q-70 -121 -199 -196q-128 -72 -283 -72q-106 0 -195.5 42.5t-149.5 118.5q-122 158 -122 388zM283 412q0 -122 81 -204q82 -81 203 -81q149 0 249 105q102 106 102 264q0 126 -81 205q-79 79 -208 79q-151 0 -249 -104q-97 -103 -97 -264z" />
    <glyph glyph-name="seven" unicode="7" horiz-adv-x="1101" 
d="M246 0h-189l850 1278h-700l24 156h953l-4 -21z" />
    <glyph glyph-name="eight" unicode="8" horiz-adv-x="1146" 
d="M63 373q0 142 78.5 251t223.5 173q-59 39 -96 111q-38 73 -38 149q0 165 126 285q127 120 315 120q174 0 280 -97q107 -98 107 -239q0 -113 -53.5 -197t-161.5 -155q76 -45 123 -126t47 -189q0 -141 -70 -253q-69 -111 -186.5 -173t-259.5 -62q-95 0 -179 34t-140 92
q-55 58 -85.5 130t-30.5 146zM244 391q0 -123 77 -194q76 -70 191 -70q136 0 231 90q95 92 95 236q0 116 -74 188t-189 72q-136 0 -234 -98q-97 -97 -97 -224zM399 1059q0 -84 65 -146q65 -61 157 -61q122 0 195 70q75 70 75 184q0 93 -66 153t-159 60q-116 0 -192 -76
q-75 -77 -75 -184z" />
    <glyph glyph-name="nine" unicode="9" horiz-adv-x="1206" 
d="M102 930q0 106 41 203t113 170q73 74 177.5 116.5t221.5 42.5q220 0 343 -153q124 -152 124 -396q0 -275 -116 -513q-60 -123 -144 -219q-82 -94 -203 -153q-120 -57 -260 -57q-161 0 -276 66l10 184h25q62 -54 118 -74q58 -20 134 -20q179 0 313 143q135 145 184 406
q-148 -172 -370 -172q-162 0 -295 109q-65 55 -102.5 137.5t-37.5 179.5zM287 938q0 -127 77 -207q78 -80 205 -80q151 0 255 110t104 271q0 121 -82 197q-81 78 -201 78q-151 0 -255 -108q-103 -107 -103 -261z" />
    <glyph glyph-name="colon" unicode=":" horiz-adv-x="413" 
d="M-8 102q0 50 33 84q35 35 81 35q49 0 84 -35t35 -84q0 -46 -35 -81q-34 -33 -84 -33q-46 0 -81 33q-33 35 -33 81zM111 856q0 50 33 84q35 35 81 35q49 0 84 -35t35 -84q0 -46 -35 -81q-34 -34 -84 -34q-47 0 -81 34q-33 35 -33 81z" />
    <glyph glyph-name="semicolon" unicode=";" horiz-adv-x="413" 
d="M-29 -221l-8 39q104 61 127 170q-34 0 -66 33q-32 34 -32 79q0 51 32.5 86t81.5 35q51 0 85 -36t34 -87q0 -103 -74 -185q-72 -81 -180 -134zM111 856q0 50 33 84q35 35 81 35q49 0 84 -35t35 -84q0 -46 -35 -81q-34 -34 -84 -34q-47 0 -81 34q-33 35 -33 81z" />
    <glyph glyph-name="less" unicode="&#x3c;" horiz-adv-x="837" 
d="M635 201l-549 438l23 143l688 439h20l-29 -174l-542 -345l434 -344l-25 -157h-20z" />
    <glyph glyph-name="equal" unicode="=" horiz-adv-x="1011" 
d="M879 397h-816l21 135h815zM950 848h-815l21 135h815z" />
    <glyph glyph-name="greater" unicode="&#x3e;" horiz-adv-x="839" 
d="M41 201h-21l29 174l543 344l-434 344l24 158h21l549 -439l-23 -143z" />
    <glyph glyph-name="question" unicode="?" horiz-adv-x="1007" 
d="M205 1163h-19l41 176q67 51 161 87q93 36 179 36q163 0 258 -80t95 -219q0 -164 -154 -314q-29 -29 -85.5 -81.5t-81.5 -77.5q-87 -90 -99 -176l-15 -88h-163l12 76q24 152 185 301q14 14 55 52.5t57 54.5t45.5 50t41.5 57t23 55.5t11 64.5q0 89 -55 137.5t-152 48.5
q-94 0 -186 -49q-92 -47 -154 -111zM274 24q-36 36 -36 89t36 89t88 36t88 -36q37 -36 37 -89t-37 -89q-36 -36 -88 -36t-88 36z" />
    <glyph glyph-name="at" unicode="@" horiz-adv-x="1814" 
d="M92 563q0 179 62 342.5t175 287.5q111 123 283 196q168 73 373 73q150 0 283.5 -48.5t233.5 -136.5q101 -88 157.5 -218t56.5 -281q0 -175 -96 -335q-47 -79 -126 -128t-177 -49q-69 0 -125 45q-55 46 -76 115q-127 -160 -319 -160q-114 0 -214 84q-47 43 -75.5 108
t-28.5 140q0 116 54 216q56 102 156 163q101 63 224 63q71 0 141 -32q69 -31 103 -82l17 94h131l-68 -422q-6 -37 -6 -68q0 -141 117 -141q58 0 104 39.5t72 103.5q49 123 49 244q0 168 -84 296q-82 127 -217 193t-301 66q-159 0 -294 -61t-230 -165q-95 -106 -148 -246.5
t-53 -293.5q0 -113 33 -213t91 -173q85 -107 207 -164.5t252 -57.5q217 0 408 125h18l-34 -158q-181 -98 -414 -98q-231 0 -414 133q-138 97 -220 255.5t-81 348.5zM625 610q0 -103 58 -162q59 -59 153 -59q118 0 203 94t85 222q0 95 -62 154t-159 59q-121 0 -200 -93
q-78 -93 -78 -215z" />
    <glyph glyph-name="A" unicode="A" horiz-adv-x="1366" 
d="M115 0h-193l848 1434h53l396 -1434h-175l-79 287h-682zM750 1090l-373 -639h545z" />
    <glyph glyph-name="B" unicode="B" horiz-adv-x="1204" 
d="M551 0h-520l227 1434h465q190 0 301 -93t111 -231q0 -247 -250 -362q102 -44 158.5 -122t56.5 -184q0 -127 -80 -231q-79 -103 -204 -157q-124 -54 -265 -54zM319 659l-79 -503h329q145 0 246 75q100 76 100 203q0 105 -71.5 165t-194.5 60h-330zM418 1278l-74 -463h297
q123 0 216 72q93 74 93 190q0 96 -60.5 148.5t-174.5 52.5h-297z" />
    <glyph glyph-name="C" unicode="C" horiz-adv-x="1359" 
d="M76 621q0 167 64 319q64 154 175 269q110 114 272 184q161 69 345 69q232 0 405 -123l-20 -202h-21q-156 170 -391 170q-183 0 -333 -96q-148 -95 -231 -249q-81 -153 -81 -327q0 -119 36.5 -217.5t100.5 -161.5q132 -129 322 -129q124 0 230.5 42.5t213.5 127.5h21
l-45 -203q-198 -123 -432 -123q-119 0 -231.5 44t-202.5 125q-89 81 -143 206q-54 126 -54 275z" />
    <glyph glyph-name="D" unicode="D" horiz-adv-x="1290" 
d="M350 0h-319l227 1434h305q133 0 249 -41.5t205.5 -120.5t141 -203.5t51.5 -280.5q0 -166 -63 -312.5t-176 -252.5q-113 -104 -273 -164q-162 -59 -348 -59zM418 1278l-178 -1122h139q141 0 262.5 48.5t206.5 134.5t131.5 202t46.5 247q0 243 -131 366q-130 124 -352 124
h-125z" />
    <glyph glyph-name="E" unicode="E" horiz-adv-x="1062" 
d="M858 0h-827l227 1434h819l-24 -156h-635l-74 -463h612l-24 -156h-613l-79 -503h643z" />
    <glyph glyph-name="F" unicode="F" horiz-adv-x="1105" 
d="M213 -2h-184l227 1436h852l-25 -156h-667l-82 -516h645l-25 -156h-645z" />
    <glyph glyph-name="G" unicode="G" horiz-adv-x="1501" 
d="M76 608q0 284 155 500q74 103 181 185q106 81 244 125t290 44q139 0 255 -36t194 -97l-19 -188h-24q-187 166 -418 166q-191 0 -347 -93q-156 -94 -241 -250q-86 -157 -86 -341q0 -111 37 -206t102 -159q64 -63 148 -97t176 -34q226 0 416 162l57 358h-455l25 156h639
l-90 -576q-133 -130 -282.5 -193t-334.5 -63q-120 0 -233 47t-200 131q-83 80 -137 203q-52 119 -52 256z" />
    <glyph glyph-name="H" unicode="H" horiz-adv-x="1333" 
d="M215 -2h-184l227 1436h184l-94 -603h676l94 603h185l-228 -1436h-184l106 678h-675z" />
    <glyph glyph-name="I" unicode="I" horiz-adv-x="473" 
d="M215 0h-184l227 1434h184z" />
    <glyph glyph-name="J" unicode="J" horiz-adv-x="774" 
d="M-4 0l10 176h27q83 -49 162 -49q85 0 134 46t64 144l176 1117h185l-176 -1112q-27 -169 -128.5 -260t-265.5 -91q-98 0 -188 29z" />
    <glyph glyph-name="K" unicode="K" horiz-adv-x="1153" 
d="M215 0h-184l227 1434h184l-110 -699l639 699h225l-672 -715l475 -719h-206l-465 707z" />
    <glyph glyph-name="L" unicode="L" horiz-adv-x="1138" 
d="M952 0h-921l227 1434h184l-202 -1278h737z" />
    <glyph glyph-name="M" unicode="M" horiz-adv-x="1787" 
d="M117 0h-185l598 1434h62l250 -1049l581 1049h62l145 -1434h-176l-96 965l-553 -965h-41l-246 965z" />
    <glyph glyph-name="N" unicode="N" horiz-adv-x="1384" 
d="M215 0h-184l227 1434h70l680 -1022l161 1022h185l-228 -1434h-69l-680 1024z" />
    <glyph glyph-name="O" unicode="O" horiz-adv-x="1636" 
d="M78 641q0 263 147 473q72 103 169 181q98 80 225.5 123.5t267.5 43.5q134 0 257.5 -49.5t214.5 -137.5q92 -88 144.5 -211t52.5 -259q0 -258 -139 -472q-68 -105 -165 -187q-98 -83 -230 -129t-279 -46q-131 0 -253 51t-213 139q-89 88 -145 213q-54 126 -54 267z
M262 647q0 -113 41 -212.5t111 -167.5q69 -66 159.5 -103t186.5 -37q131 0 247.5 53.5t195.5 145.5q80 92 124.5 213t44.5 252q0 113 -40.5 211.5t-110.5 164.5q-69 66 -160.5 103t-190.5 37q-167 0 -309 -92q-141 -93 -220 -243q-79 -151 -79 -325z" />
    <glyph glyph-name="P" unicode="P" horiz-adv-x="1058" 
d="M215 0h-184l227 1434h365q198 0 317 -110t119 -282q0 -146 -78 -256q-77 -108 -205 -164.5t-291 -56.5h-180zM418 1278l-88 -557h182q155 -3 258.5 79t103.5 230q0 126 -76 187q-74 61 -198 61h-182z" />
    <glyph glyph-name="Q" unicode="Q" horiz-adv-x="1634" 
d="M78 641q0 263 147 473q72 103 169 181q98 80 225.5 123.5t267.5 43.5q134 0 257.5 -49.5t214.5 -137.5q92 -88 144.5 -211t52.5 -259q0 -162 -58.5 -314.5t-166.5 -271.5l150 -178l-131 -117l-152 180q-197 -133 -455 -133q-131 0 -253 51t-213 139q-89 88 -145 213
q-54 126 -54 267zM262 647q0 -113 41 -212.5t111 -167.5q69 -66 159.5 -103t186.5 -37q188 0 334 102l-168 201l133 115l164 -197q71 90 110 205t39 238q0 113 -40.5 211.5t-110.5 164.5q-69 66 -160.5 103t-190.5 37q-167 0 -309 -92q-141 -93 -220 -243q-79 -151 -79 -325
z" />
    <glyph glyph-name="R" unicode="R" horiz-adv-x="1132" 
d="M215 0h-184l227 1434h379q119 0 214 -42q96 -42 152 -128t56 -201q0 -146 -106 -264t-263 -152l289 -647h-193l-280 631h-191zM418 1278l-78 -492h199q89 0 163 31q78 33 125 96.5t47 143.5q0 221 -258 221h-198z" />
    <glyph glyph-name="S" unicode="S" horiz-adv-x="1046" 
d="M33 135l45 205h20q50 -87 146 -150q98 -63 192 -63q134 0 222 79q90 80 90 204q0 173 -248 286q-126 58 -216 148q-96 101 -96 229q0 170 128 280q128 109 315 109q188 0 336 -114l-23 -187h-26q-74 82 -145.5 118t-154.5 36q-104 0 -181 -61q-77 -62 -77 -162
q0 -82 61.5 -145.5t190.5 -125.5q320 -153 320 -391q0 -198 -147 -329q-145 -130 -363 -130q-127 0 -232 47q-103 48 -157 117z" />
    <glyph glyph-name="T" unicode="T" horiz-adv-x="1101" 
d="M547 1278h-377l25 156h938l-25 -156h-377l-203 -1278h-184z" />
    <glyph glyph-name="U" unicode="U" horiz-adv-x="1306" 
d="M86 418q0 54 10 123l140 893h184l-148 -930q-8 -56 -8 -90q0 -146 82 -216q83 -71 207 -71q159 0 272 101t140 276l147 930h184l-141 -899q-42 -267 -201 -415q-160 -149 -419 -149q-206 0 -328 120q-121 121 -121 327z" />
    <glyph glyph-name="V" unicode="V" horiz-adv-x="1400" 
d="M549 0l-406 1434h185l305 -1137l667 1137h185l-858 -1434h-78z" />
    <glyph glyph-name="W" unicode="W" horiz-adv-x="1933" 
d="M412 0l-252 1434h180l168 -1010l541 1010h57l225 -1006l484 1006h188l-707 -1434h-45l-231 1051l-563 -1051h-45z" />
    <glyph glyph-name="X" unicode="X" horiz-adv-x="1216" 
d="M143 0h-196l592 786l-291 648h184l215 -506l377 506h197l-502 -662l334 -772h-179l-270 625z" />
    <glyph glyph-name="Y" unicode="Y" horiz-adv-x="1200" 
d="M494 623l-351 811h191l272 -652l477 652h203l-608 -811l-98 -623h-185z" />
    <glyph glyph-name="Z" unicode="Z" horiz-adv-x="1222" 
d="M1038 0h-1087l4 20l963 1258h-705l25 156h987l-4 -21l-973 -1257h815z" />
    <glyph glyph-name="bracketleft" unicode="[" horiz-adv-x="559" 
d="M301 -463h-364l301 1897h364l-24 -156h-201l-252 -1585h201z" />
    <glyph glyph-name="backslash" unicode="\" horiz-adv-x="1048" 
d="M733 0l-590 1434h170l590 -1434h-170z" />
    <glyph glyph-name="bracketright" unicode="]" horiz-adv-x="559" 
d="M250 -463h-363l25 156h199l251 1585h-200l24 156h365z" />
    <glyph glyph-name="asciicircum" unicode="^" horiz-adv-x="1032" 
d="M236 811h-158l4 20l487 603h107l295 -603l-4 -20h-146l-221 446z" />
    <glyph glyph-name="underscore" unicode="_" horiz-adv-x="1028" 
d="M850 -135h-938l22 135h938z" />
    <glyph glyph-name="grave" unicode="`" horiz-adv-x="585" 
d="M432 1153l-248 281h238l145 -281h-135z" />
    <glyph glyph-name="a" unicode="a" horiz-adv-x="1269" 
d="M55 436q0 167 74 304q76 138 214 218q139 82 316 82q107 0 198 -46q92 -45 144 -109l21 127h164l-162 -1012h-164l21 127q-146 -156 -369 -156q-123 0 -228 60q-104 62 -167 168q-62 109 -62 237zM219 440q0 -138 89 -230q90 -91 222 -91q178 0 302 135q126 135 126 324
q0 136 -86 225q-86 90 -225 90q-124 0 -225 -65q-98 -63 -150.5 -165t-52.5 -223z" />
    <glyph glyph-name="b" unicode="b" horiz-adv-x="1253" 
d="M182 0h-164l234 1475h164l-99 -611q74 81 178 128.5t220 47.5q189 0 315 -131q127 -130 127 -331q0 -171 -79 -310t-215 -218t-300 -79q-107 0 -202 44t-158 122zM246 442q0 -137 94 -230t225 -93q179 0 303 126q125 128 125 316q0 144 -89 238q-88 94 -230 94
q-115 3 -215 -59.5t-157.5 -168t-55.5 -223.5z" />
    <glyph glyph-name="c" unicode="c" horiz-adv-x="1021" 
d="M51 434q0 123 45.5 234.5t126.5 193.5q82 83 197 130.5t244 47.5q170 0 288 -96l-22 -162h-19q-58 58 -122 84.5t-148 26.5q-171 0 -298 -130q-128 -130 -128 -319q0 -144 86 -235q87 -90 225 -90q83 0 149 25t144 85h19l-31 -166q-125 -92 -305 -92q-122 0 -223 55
t-165 163q-63 107 -63 245z" />
    <glyph glyph-name="d" unicode="d" horiz-adv-x="1277" 
d="M53 440q0 118 43 226.5t121 192.5q79 85 195.5 133t251.5 48q106 0 199 -44q91 -44 147 -117l94 596h164l-234 -1475h-164l21 137q-160 -166 -381 -166q-119 0 -223 61q-107 62 -170 170q-64 109 -64 238zM217 442q0 -136 89 -230q90 -93 235 -93q110 0 207 53
q95 52 157 159t62 244q0 136 -89 227q-88 91 -239 91q-113 2 -212 -60t-156 -167.5t-54 -223.5z" />
    <glyph glyph-name="e" unicode="e" horiz-adv-x="1159" 
d="M51 453q0 178 100 330q75 116 198.5 187t275.5 70q188 0 310 -119t122 -303q0 -50 -8 -96l-11 -55h-823v-18q0 -77 26.5 -142t71.5 -106q95 -82 211 -82q107 0 199 36q93 38 205 128h16l-35 -179q-91 -69 -186.5 -101t-212.5 -32q-120 0 -223 57q-105 59 -170 170
q-66 112 -66 255zM238 598h673q0 142 -84 224q-83 83 -217 83q-135 0 -234 -87q-97 -85 -138 -220z" />
    <glyph glyph-name="f" unicode="f" horiz-adv-x="708" 
d="M272 0h-163l137 864h-133l22 148h133l25 151q23 136 110 217q88 82 213 82q88 0 164 -43l-18 -155h-17q-21 24 -55.5 37.5t-66.5 13.5q-66 0 -111 -42t-57 -118l-23 -143h180l-22 -148h-180z" />
    <glyph glyph-name="g" unicode="g" horiz-adv-x="1257" 
d="M55 453q0 154 74 288q73 133 211 216q139 83 309 83q99 0 192 -41q94 -41 148 -112l21 125h164l-148 -920q-50 -308 -201 -446t-403 -138q-95 0 -185 26q-88 25 -145 63l21 163h26q128 -104 305 -104q160 0 259 90t137 258l34 156q-142 -160 -374 -160q-189 0 -317 131
q-128 133 -128 322zM219 453q0 -126 94 -216q95 -90 234 -90q169 0 294 119q124 120 124 297q0 143 -86 237q-85 93 -228 93q-114 0 -214 -58q-99 -59 -159 -160q-59 -103 -59 -222z" />
    <glyph glyph-name="h" unicode="h" horiz-adv-x="1134" 
d="M180 0h-164l236 1475h164l-99 -619q67 87 164 135.5t207 48.5q142 0 234 -84q92 -83 92 -229q0 -37 -6 -80l-105 -647h-164l103 633q4 28 4 49q0 94 -60 153q-58 58 -159 58q-131 0 -233 -96q-100 -94 -126 -244z" />
    <glyph glyph-name="i" unicode="i" horiz-adv-x="446" 
d="M193 0h-164l159 1012h164zM207 1317q0 47 33 82t79 35q47 0 82 -35t35 -82q0 -45 -35 -80q-35 -33 -82 -33q-46 0 -79 33q-33 35 -33 80z" />
    <glyph glyph-name="j" unicode="j" horiz-adv-x="460" 
d="M-260 -457l6 152h21l32 -21q30 -18 70 -18q123 0 145 147l191 1209h164l-189 -1192q-26 -161 -101 -236.5t-208 -75.5q-69 0 -131 35zM221 1317q0 47 33 82q35 35 80 35q47 0 82 -35t35 -82q0 -45 -35 -80q-34 -33 -82 -33q-46 0 -80 33q-33 35 -33 80z" />
    <glyph glyph-name="k" unicode="k" horiz-adv-x="927" 
d="M180 0h-164l236 1475h164l-148 -928l465 465h197l-496 -488l324 -524h-174l-320 518z" />
    <glyph glyph-name="l" unicode="l" horiz-adv-x="425" 
d="M180 0h-164l236 1475h164z" />
    <glyph glyph-name="m" unicode="m" horiz-adv-x="1583" 
d="M180 0h-164l162 1012h164l-20 -125q58 73 137.5 113t167.5 40q81 0 148 -44q66 -43 91 -113q57 72 145 114q87 43 173 43q132 0 205 -75q75 -73 75 -195q0 -16 -6 -63l-112 -707h-164l110 696q4 25 4 39q0 72 -46 115t-124 43q-92 0 -165 -69q-73 -68 -91 -177l-102 -647
h-164l107 678q4 28 4 45q0 79 -45.5 124.5t-122.5 45.5q-101 0 -177 -81q-75 -80 -96 -216z" />
    <glyph glyph-name="n" unicode="n" horiz-adv-x="1116" 
d="M180 0h-164l162 1012h164l-25 -152q70 83 163.5 131.5t191.5 48.5q148 0 236 -85q89 -84 89 -226q0 -31 -6 -65l-104 -664h-164l102 639q4 25 4 49q0 95 -59 150t-158 55q-128 0 -225 -96q-97 -95 -119 -246z" />
    <glyph glyph-name="o" unicode="o" horiz-adv-x="1218" 
d="M51 446q0 110 41 215.5t116 190.5q77 87 191 137.5t244 50.5q129 3 239.5 -55.5t176 -166.5t63.5 -240q0 -165 -77 -305q-76 -137 -213 -220q-136 -82 -304 -82q-121 0 -231 59q-108 59 -178 170q-68 112 -68 246zM215 453q0 -144 95 -239q97 -95 235 -95q114 -2 211 60
t151 164.5t51 217.5q0 152 -94 242q-93 90 -235 90q-184 0 -299 -127t-115 -313z" />
    <glyph glyph-name="p" unicode="p" horiz-adv-x="1257" 
d="M109 -463h-164l233 1475h164l-20 -140q73 79 170.5 123.5t205.5 44.5q201 0 332 -131t131 -338q0 -119 -42.5 -229t-118.5 -192q-77 -83 -189.5 -131t-239.5 -48q-111 0 -211 51q-102 53 -153 125zM246 461q0 -147 98 -245q97 -97 240 -97q176 0 294 121q119 122 119 311
q0 138 -96 240t-239 102q-174 0 -295 -127q-121 -125 -121 -305z" />
    <glyph glyph-name="q" unicode="q" horiz-adv-x="1282" 
d="M55 436q0 117 43.5 226.5t121.5 193.5q79 86 193 135t244 49q115 0 207 -45.5t148 -126.5l22 144h164l-233 -1475h-164l98 610q-150 -176 -393 -176q-122 0 -225 57q-102 57 -164 164q-62 109 -62 244zM219 440q0 -137 92 -229t236 -92q108 0 206 56q97 57 157 160
q61 103 61 228q0 145 -91 237q-90 93 -237 93q-121 0 -219 -64q-98 -63 -152 -167q-53 -104 -53 -222z" />
    <glyph glyph-name="r" unicode="r" horiz-adv-x="808" 
d="M180 0h-164l162 1012h164l-25 -148q55 85 137.5 130.5t170.5 45.5q92 0 157 -47l-16 -166h-18q-63 66 -162 66q-103 0 -197 -85q-95 -86 -117 -230z" />
    <glyph glyph-name="s" unicode="s" horiz-adv-x="866" 
d="M4 80l64 156h12q124 -117 262 -117q52 0 100 17q50 18 82.5 58.5t32.5 94.5q0 69 -58 107q-30 20 -61 34q-37 17 -88 35q-112 41 -174.5 111t-62.5 167q0 133 106 215t264 82q143 0 262 -77l-18 -156h-14q-60 52 -118.5 75t-133.5 23q-73 0 -137 -38q-62 -38 -62 -109
q0 -60 48 -99.5t159 -80.5q129 -47 192.5 -113t63.5 -162q0 -146 -111 -239q-110 -93 -280 -93q-182 0 -330 109z" />
    <glyph glyph-name="t" unicode="t" horiz-adv-x="763" 
d="M252 864h-195l23 148h194l35 213l176 78l-47 -291h289l-22 -148h-289l-99 -604q-2 -16 -2 -33q0 -53 31.5 -80.5t81.5 -27.5q76 0 162 57h18l-37 -153q-56 -31 -94 -40q-42 -12 -104 -12q-94 0 -158 61q-63 62 -63 169q0 36 4 57z" />
    <glyph glyph-name="u" unicode="u" 
d="M57 295q0 31 6 74l103 643h164l-105 -637q-4 -32 -4 -53q0 -95 62 -149q63 -54 155 -54q130 0 224 87t120 243l90 563h164l-162 -1012h-163l24 152q-68 -90 -149 -136q-79 -45 -199 -45q-124 0 -224 81q-49 40 -77.5 103.5t-28.5 139.5z" />
    <glyph glyph-name="v" unicode="v" horiz-adv-x="1064" 
d="M406 0l-332 1012h176l215 -688l432 688h188l-655 -1012h-24z" />
    <glyph glyph-name="w" unicode="w" horiz-adv-x="1566" 
d="M358 0l-278 1012h170l176 -676l377 676h49l160 -676l393 676h174l-598 -1012h-45l-154 692l-379 -692h-45z" />
    <glyph glyph-name="x" unicode="x" horiz-adv-x="958" 
d="M127 0h-193l420 528l-239 484h184l168 -363l283 363h184l-395 -502l241 -510h-176l-180 387z" />
    <glyph glyph-name="y" unicode="y" horiz-adv-x="1030" 
d="M86 -463h-178l420 658l-275 817h185l198 -654l420 654h172z" />
    <glyph glyph-name="z" unicode="z" horiz-adv-x="976" 
d="M772 0h-817l4 20l674 844h-502l25 148h764l-5 -21l-667 -844h549z" />
    <glyph glyph-name="braceleft" unicode="{" horiz-adv-x="647" 
d="M55 408h-43l27 155h43q55 0 84 26t39 87l84 526q18 109 89 170.5t183 61.5h129l-24 -156h-113q-89 0 -104 -102l-82 -514q-21 -148 -162 -177q108 -23 108 -139q0 -13 -2 -37l-82 -514q-2 -18 -2 -28q0 -74 74 -74h113l-25 -156h-129q-87 0 -143 53t-56 146q0 17 5 57
l79 502q5 33 5 37q0 41 -23 58.5t-72 17.5z" />
    <glyph glyph-name="bar" unicode="|" horiz-adv-x="409" 
d="M102 -463h-163l301 1897h163z" />
    <glyph glyph-name="braceright" unicode="}" horiz-adv-x="647" 
d="M14 -463h-129l25 156h113q89 0 104 102l82 514q21 147 162 176q-109 23 -109 140q0 13 2 37l82 514q2 18 2 28q0 74 -74 74h-112l24 156h129q87 0 143 -53t56 -146q0 -32 -4 -57l-80 -502q-4 -21 -4 -37q0 -41 22.5 -58.5t71.5 -17.5h43l-26 -155h-43q-55 0 -84 -26
t-39 -87l-84 -526q-18 -108 -89.5 -170t-183.5 -62z" />
    <glyph glyph-name="asciitilde" unicode="~" horiz-adv-x="991" 
d="M104 584h-12l35 149q93 84 201 84q56 0 109 -19q55 -20 89 -42q99 -60 174 -60q94 0 197 90h12l-35 -149q-54 -46 -100 -65t-100 -19q-99 0 -200 60q-94 61 -173 61q-93 0 -197 -90z" />
    <glyph glyph-name="uni00A0" unicode="&#xa0;" horiz-adv-x="645" 
 />
    <glyph glyph-name="exclamdown" unicode="&#xa1;" horiz-adv-x="520" 
d="M166 -422h-164l162 1024h164zM204 810q-36 36 -36 89t36 89t89 36t89 -36t36 -89t-36 -89t-89 -36t-89 36z" />
    <glyph glyph-name="cent" unicode="&#xa2;" horiz-adv-x="978" 
d="M49 434q0 156 67 286q68 131 192 215q123 84 282 101l41 254h119l-39 -252q145 -15 239 -94l-22 -162h-19q-102 96 -223 109l-121 -772q67 6 124.5 31.5t127.5 78.5h19l-31 -166q-109 -81 -264 -90l-39 -252h-119l39 256q-160 25 -267 149q-106 124 -106 308zM213 444
q0 -122 63 -207q62 -84 170 -110l119 760q-146 -28 -250 -152q-102 -123 -102 -291z" />
    <glyph glyph-name="sterling" unicode="&#xa3;" horiz-adv-x="1062" 
d="M877 0h-918l168 696h-141l20 135h152l22 89q63 262 209 402q148 140 359 140q81 0 161 -24q78 -22 129 -56l-10 -184l-24 -6q-133 115 -279 115q-268 0 -365 -379l-24 -97h371l-21 -135h-385l-139 -540h739z" />
    <glyph glyph-name="currency" unicode="&#xa4;" horiz-adv-x="1187" 
d="M215 238l-100 100l125 127q-88 112 -88 252t88 252l-125 127l100 100l129 -129q115 76 250 76t250 -76l129 129l100 -100l-125 -127q88 -112 88 -252t-88 -252l125 -127l-100 -100l-129 129q-115 -76 -250 -76t-250 76zM391 923q-84 -81 -84 -206t84 -206q86 -81 203 -81
q118 0 202 81q85 81 85 206t-85 206q-84 81 -202 81t-203 -81z" />
    <glyph glyph-name="yen" unicode="&#xa5;" horiz-adv-x="1200" 
d="M449 356h-314l21 136h315l21 131h-316l23 135h233l-291 676h193l272 -652l477 652h201l-508 -676h238l-23 -135h-315l-21 -131h316l-21 -136h-317l-55 -356h-185z" />
    <glyph glyph-name="brokenbar" unicode="&#xa6;" horiz-adv-x="409" 
d="M100 -463h-163l131 819h163zM270 614h-164l132 820h163z" />
    <glyph glyph-name="section" unicode="&#xa7;" horiz-adv-x="1001" 
d="M-14 -373l20 183h14q127 -166 312 -166q112 0 194 65q82 64 82 160q0 83 -60 148q-59 65 -210 145q-285 148 -285 366q0 186 226 322q-97 109 -97 231q0 161 123 270q125 111 318 111q111 0 200 -33.5t140 -85.5l-21 -182h-14q-127 166 -312 166q-112 0 -195 -65
q-81 -64 -81 -160q0 -83 60 -149q60 -65 210 -144q285 -149 285 -367q0 -186 -227 -323q98 -106 98 -230q0 -161 -123 -270q-123 -111 -317 -111q-111 0 -200 33.5t-140 85.5zM207 543q0 -83 60 -144q61 -61 190 -127q48 -25 110 -65q75 41 123 98q51 59 51 123
q0 78 -55.5 138.5t-177.5 123.5q-78 39 -127 74q-79 -44 -126.5 -101.5t-47.5 -119.5z" />
    <glyph glyph-name="dieresis" unicode="&#xa8;" horiz-adv-x="808" 
d="M152 1284q0 45 32 79q31 34 76 34q46 0 79 -34q34 -33 34 -79q0 -45 -34 -76q-34 -32 -79 -32q-44 0 -76 32t-32 76zM518 1284q0 45 32 79q33 34 77 34q46 0 79 -34q33 -33 33 -79q0 -44 -33 -76q-34 -32 -79 -32q-43 0 -77 32q-32 32 -32 76z" />
    <glyph glyph-name="copyright" unicode="&#xa9;" horiz-adv-x="1679" 
d="M175 342q-97 170 -97 375t97 374q97 170 273 271q175 100 392 100q216 0 391 -100q176 -101 273 -271q98 -170 98 -374q0 -203 -98 -375q-98 -171 -273 -271t-391 -100q-217 0 -392 100t-273 271zM284 1041q-79 -146 -79 -324q0 -177 79 -325q79 -146 225 -235
q147 -87 331 -87t330 87q147 88 226 235q79 148 79 325q0 178 -79 324q-79 148 -226 235q-145 88 -330 88t-331 -88q-146 -87 -225 -235zM496 666q0 184 124 309q124 127 316 127q123 0 209 -70l-17 -117h-14q-77 80 -194 80q-124 0 -215 -93q-91 -91 -91 -230
q0 -102 62 -169q63 -65 162 -65q58 0 106.5 18.5t104.5 61.5h12l-23 -121q-86 -65 -219 -65q-134 0 -229 92q-94 93 -94 242z" />
    <glyph glyph-name="ordfeminine" unicode="&#xaa;" horiz-adv-x="872" 
d="M94 1024q0 179 118 301q118 123 306 123q74 0 139 -33q65 -32 103 -76l14 88h115l-115 -710h-115l15 90q-100 -111 -258 -111q-132 0 -227 95t-95 233zM209 1026q0 -96 63 -161q63 -64 156 -64q124 0 212 94q89 95 89 227q0 96 -61 160q-60 64 -158 64q-132 0 -217 -96
q-84 -94 -84 -224z" />
    <glyph glyph-name="guillemotleft" unicode="&#xab;" horiz-adv-x="995" 
d="M461 262l-406 406l15 86l532 405h23l-27 -176l-373 -281l285 -280l-27 -160h-22zM809 262l-406 406l15 86l532 405h23l-27 -176l-373 -281l285 -280l-27 -160h-22z" />
    <glyph glyph-name="logicalnot" unicode="&#xac;" horiz-adv-x="937" 
d="M664 639h-570l25 147h725l-72 -440h-156z" />
    <glyph glyph-name="uni00AD" unicode="&#xad;" horiz-adv-x="802" 
d="M694 582h-631l23 135h631z" />
    <glyph glyph-name="registered" unicode="&#xae;" horiz-adv-x="1679" 
d="M175 342q-97 170 -97 375t97 374q97 170 273 271q175 100 392 100q216 0 391 -100q176 -101 273 -271q98 -170 98 -374q0 -203 -98 -375q-98 -171 -273 -271t-391 -100q-217 0 -392 100t-273 271zM284 1041q-79 -146 -79 -324q0 -177 79 -325q79 -146 225 -235
q147 -87 331 -87t330 87q147 88 226 235q79 148 79 325q0 178 -79 324q-79 148 -226 235q-145 88 -330 88t-331 -88q-146 -87 -225 -235zM662 352h-105l121 762h221q101 0 160 -48t59 -132q0 -91 -60 -154q-59 -62 -143 -88l158 -340h-119l-149 328h-92zM766 1016l-37 -238
h113q77 0 119.5 37.5t42.5 106.5q0 94 -125 94h-113z" />
    <glyph glyph-name="overscore" unicode="&#xaf;" horiz-adv-x="634" 
d="M541 1208h-471l22 131h471z" />
    <glyph glyph-name="degree" unicode="&#xb0;" horiz-adv-x="620" 
d="M218 1035q-73 72 -73 177t73 177q73 73 181 73t181 -73q73 -72 73 -177t-73 -177q-74 -72 -181 -72t-181 72zM286 1327q-42 -45 -42 -115t42 -115q42 -44 113 -44t113 44q43 44 43 115t-43 115q-42 45 -113 45t-113 -45z" />
    <glyph glyph-name="plusminus" unicode="&#xb1;" horiz-adv-x="1011" 
d="M805 0h-815l22 135h815zM432 684h-340l23 135h340l53 340h135l-53 -340h340l-23 -135h-340l-53 -340h-135z" />
    <glyph glyph-name="twosuperior" unicode="&#xb2;" horiz-adv-x="575" 
d="M535 717h-498l2 16l328 336q56 56 81 95.5t25 82.5q0 45 -30.5 72t-82.5 27q-95 0 -196 -113h-19l29 129q35 38 91 62q57 24 110 24q96 0 155 -52q60 -52 60 -132q0 -65 -33 -123t-100 -125l-195 -197h289z" />
    <glyph glyph-name="threesuperior" unicode="&#xb3;" horiz-adv-x="581" 
d="M82 756l8 127h14q78 -78 179 -78q72 0 125 46q55 46 55 118q0 66 -42 102q-40 37 -97 37q-42 0 -80 -12l-13 32l187 203h-252l16 103h445l-2 -13l-215 -231q78 -14 127 -66q51 -52 51 -133q0 -122 -85 -206q-85 -83 -222 -83q-119 0 -199 54z" />
    <glyph glyph-name="acute" unicode="&#xb4;" horiz-adv-x="667" 
d="M236 1153h-144l232 281h245z" />
    <glyph glyph-name="mu" unicode="&#xb5;" 
d="M96 -463h-164l234 1475h164l-103 -637q-4 -32 -4 -53q0 -95 61 -149q62 -54 154 -54q130 0 224 87t120 243l90 563h164l-162 -1012h-163l24 152q-68 -90 -149 -136q-79 -45 -199 -45t-211 70z" />
    <glyph glyph-name="paragraph" unicode="&#xb6;" horiz-adv-x="1185" 
d="M109 1075q0 109 59 192q59 82 155 124.5t214 42.5h641l-301 -1897h-177l277 1741h-260l-277 -1741h-176l199 1258h-29q-152 0 -239 75q-86 77 -86 205z" />
    <glyph glyph-name="middot" unicode="&#xb7;" horiz-adv-x="391" 
d="M90 717q0 50 34 84q35 35 81 35q49 0 84 -35t35 -84q0 -46 -35 -81q-34 -34 -84 -34q-47 0 -81 34t-34 81z" />
    <glyph glyph-name="cedilla" unicode="&#xb8;" horiz-adv-x="716" 
d="M115 -459v103l16 6q72 -45 143 -45q55 0 99 29q43 28 43 81q0 97 -109 97q-51 0 -123 -29l-8 12l180 299l90 -35l-149 -186q64 23 111 23q71 0 114 -44.5t43 -117.5q0 -102 -80 -164t-202 -62q-101 0 -168 33z" />
    <glyph glyph-name="onesuperior" unicode="&#xb9;" horiz-adv-x="245" 
d="M184 717h-123l103 649l106 68h27z" />
    <glyph glyph-name="ordmasculine" unicode="&#xba;" horiz-adv-x="856" 
d="M104 1030q0 105 49 199q51 97 146 157q98 62 221 62q140 0 238 -92t98 -234q0 -177 -120 -302q-118 -124 -298 -124q-133 0 -233 96q-101 96 -101 238zM219 1034q0 -100 67 -167q68 -66 165 -66q125 0 207 91q83 92 83 220q0 106 -66 170q-65 64 -165 64q-128 0 -210 -90
q-81 -90 -81 -222z" />
    <glyph glyph-name="guillemotright" unicode="&#xbb;" horiz-adv-x="983" 
d="M29 262h-23l27 176l373 281l-285 280l26 160h23l405 -405l-14 -86zM377 262h-23l27 176l373 281l-285 280l27 160h22l406 -405l-15 -86z" />
    <glyph glyph-name="onequarter" unicode="&#xbc;" horiz-adv-x="1032" 
d="M-12 219l-49 94l1013 482l49 -95zM270 717h-123l103 649l106 68h27zM539 -299h-324l12 68l471 485h52l-72 -451h98l-16 -102h-98l-25 -164h-123zM590 12l-207 -209h172z" />
    <glyph glyph-name="onehalf" unicode="&#xbd;" horiz-adv-x="1052" 
d="M-12 219l-49 94l1013 482l49 -95zM291 717h-123l102 649l107 68h26zM795 -463h-498l2 17l328 335q55 55 80.5 95.5t25.5 83.5q0 45 -30 71.5t-82 26.5q-96 0 -197 -113h-18l28 129q35 38 91 62q57 24 110 24q96 0 155 -52q60 -52 60 -132q0 -65 -33 -123t-100 -125
l-195 -196h289z" />
    <glyph glyph-name="threequarters" unicode="&#xbe;" horiz-adv-x="1124" 
d="M80 219l-49 94l1013 482l50 -95zM55 756l8 127h15q78 -78 178 -78q72 0 125 46q55 46 55 118q0 66 -42 102q-40 37 -97 37q-43 0 -80 -12l-12 32l186 203h-252l17 103h444l-2 -13l-215 -231q78 -14 127 -66q51 -52 51 -133q0 -122 -85 -206q-85 -83 -222 -83
q-120 0 -199 54zM631 -299h-324l12 68l472 485h51l-72 -451h98l-16 -102h-98l-25 -164h-123zM682 12l-207 -209h172z" />
    <glyph glyph-name="questiondown" unicode="&#xbf;" horiz-adv-x="884" 
d="M-45 -152q0 92 41 167.5t112 146.5q26 26 83.5 79.5t83.5 80.5q87 87 100 176l14 88h164l-12 -76q-24 -149 -185 -302q-13 -12 -47.5 -44.5t-49 -46.5t-42 -43t-39.5 -48t-27.5 -45.5t-21.5 -52.5t-6 -53q0 -89 55 -137.5t152 -48.5q93 0 186 48q92 47 154 111h18
l-41 -176q-67 -51 -161 -87q-93 -36 -179 -36q-162 0 -257 80t-95 219zM423 810q-36 36 -36 89t36 89q37 36 89 36t88 -36q37 -36 37 -89t-37 -89q-36 -36 -88 -36t-89 36z" />
    <glyph glyph-name="Agrave" unicode="&#xc0;" horiz-adv-x="1366" 
d="M115 0h-193l848 1434h53l396 -1434h-175l-79 287h-682zM750 1090l-373 -639h545zM721 1575l-248 280h238l145 -280h-135z" />
    <glyph glyph-name="Aacute" unicode="&#xc1;" horiz-adv-x="1366" 
d="M115 0h-193l848 1434h53l396 -1434h-175l-79 287h-682zM750 1090l-373 -639h545zM893 1575h-143l231 280h246z" />
    <glyph glyph-name="Acircumflex" unicode="&#xc2;" horiz-adv-x="1366" 
d="M115 0h-193l848 1434h53l396 -1434h-175l-79 287h-682zM750 1090l-373 -639h545zM627 1575h-127l248 280h215l161 -280h-118l-162 182z" />
    <glyph glyph-name="Atilde" unicode="&#xc3;" horiz-adv-x="1366" 
d="M115 0h-193l848 1434h53l396 -1434h-175l-79 287h-682zM750 1090l-373 -639h545zM471 1602h-10l39 147q94 86 198 86q78 0 168 -59q91 -58 154 -58q82 0 188 99h11l-39 -148q-48 -47 -93 -66.5t-102 -19.5q-80 0 -171 58q-90 59 -155 59q-81 0 -188 -98z" />
    <glyph glyph-name="Adieresis" unicode="&#xc4;" horiz-adv-x="1366" 
d="M115 0h-193l848 1434h53l396 -1434h-175l-79 287h-682zM750 1090l-373 -639h545zM532 1706q0 45 32 79q33 34 77 34q46 0 79 -34q34 -33 34 -79q0 -44 -34 -77q-34 -32 -79 -32q-43 0 -77 32q-32 34 -32 77zM899 1706q0 45 32 79q33 34 77 34q46 0 79 -34q33 -33 33 -79
q0 -44 -33 -77q-34 -32 -79 -32q-43 0 -77 32q-32 34 -32 77z" />
    <glyph glyph-name="Aring" unicode="&#xc5;" horiz-adv-x="1366" 
d="M115 0h-193l811 1374q-64 20 -103.5 74.5t-39.5 122.5q0 87 61 147t150 60t150 -60t61 -147q0 -76 -48 -133q-49 -57 -122 -70l377 -1368h-175l-79 289h-682zM750 1090l-375 -641h547zM708 1662q-36 -38 -36 -91q0 -55 36 -92t93 -37t93 37t36 92q0 53 -36 91t-93 38
t-93 -38z" />
    <glyph glyph-name="AE" unicode="&#xc6;" horiz-adv-x="1992" 
d="M106 0h-184l848 1434h666l45 -156h-619l129 -463h572l41 -156h-570l142 -503h626l43 -156h-807l-77 289h-685zM745 1090l-372 -641h547z" />
    <glyph glyph-name="Ccedilla" unicode="&#xc7;" horiz-adv-x="1359" 
d="M76 621q0 166 63 319q64 153 174 269q108 114 271 184q161 69 344 69q236 0 409 -123l-20 -202h-21q-156 170 -391 170q-183 0 -333 -96q-148 -95 -231 -249q-81 -153 -81 -327q0 -119 36.5 -217.5t100.5 -161.5q132 -129 322 -129q124 0 230.5 42.5t213.5 127.5h21
l-45 -203q-198 -123 -432 -123l-78 -98q64 23 110 23q72 0 115 -45t43 -117q0 -102 -81 -164q-80 -62 -202 -62q-100 0 -168 33v103l17 6q72 -45 143 -45q55 0 99 29q43 28 43 81q0 97 -109 97q-51 0 -123 -29l-8 12l108 182q-221 31 -377 196q-76 82 -119.5 198.5
t-43.5 249.5z" />
    <glyph glyph-name="Egrave" unicode="&#xc8;" horiz-adv-x="1062" 
d="M858 0h-827l227 1434h819l-24 -156h-635l-74 -463h612l-24 -156h-613l-79 -503h643zM688 1575l-248 280h238l145 -280h-135z" />
    <glyph glyph-name="Eacute" unicode="&#xc9;" horiz-adv-x="1062" 
d="M858 0h-827l227 1434h819l-24 -156h-635l-74 -463h612l-24 -156h-613l-79 -503h643zM659 1575h-143l232 280h245z" />
    <glyph glyph-name="Ecircumflex" unicode="&#xca;" horiz-adv-x="1062" 
d="M858 0h-827l227 1434h819l-24 -156h-635l-74 -463h612l-24 -156h-613l-79 -503h643zM508 1575h-127l248 280h215l162 -280h-119l-162 182z" />
    <glyph glyph-name="Edieresis" unicode="&#xcb;" horiz-adv-x="1062" 
d="M858 0h-827l227 1434h819l-24 -156h-635l-74 -463h612l-24 -156h-613l-79 -503h643zM397 1706q0 45 32 79q33 34 77 34q46 0 79 -34q33 -33 33 -79q0 -44 -33 -77q-34 -32 -79 -32q-43 0 -77 32q-32 34 -32 77zM764 1706q0 45 32 79q31 34 76 34q46 0 79 -34
q34 -33 34 -79q0 -44 -34 -77q-34 -32 -79 -32q-44 0 -76 32q-32 34 -32 77z" />
    <glyph glyph-name="Igrave" unicode="&#xcc;" horiz-adv-x="473" 
d="M215 0h-184l227 1434h184zM332 1575l-248 280h238l145 -280h-135z" />
    <glyph glyph-name="Iacute" unicode="&#xcd;" horiz-adv-x="473" 
d="M215 0h-184l227 1434h184zM406 1575h-144l232 280h245z" />
    <glyph glyph-name="Icircumflex" unicode="&#xce;" horiz-adv-x="473" 
d="M215 0h-184l227 1434h184zM178 1575h-127l248 280h215l162 -280h-119l-162 182z" />
    <glyph glyph-name="Idieresis" unicode="&#xcf;" horiz-adv-x="473" 
d="M215 0h-184l227 1434h184zM86 1706q0 45 32 79q33 34 77 34q46 0 79 -34q33 -33 33 -79q0 -44 -33 -77q-34 -32 -79 -32q-43 0 -77 32q-32 34 -32 77zM453 1706q0 45 32 79q31 34 76 34q46 0 79 -34q34 -33 34 -79q0 -44 -34 -77q-34 -32 -79 -32q-44 0 -76 32
q-32 34 -32 77z" />
    <glyph glyph-name="Eth" unicode="&#xd0;" horiz-adv-x="1296" 
d="M139 647h-159l22 135h158l104 652h305q221 0 379 -105q126 -78 197.5 -216.5t71.5 -324.5q0 -166 -63 -312.5t-177 -252.5q-113 -104 -273 -164q-162 -59 -348 -59h-319zM324 647l-78 -491h139q141 0 262.5 48.5t206.5 134.5t131.5 202t46.5 247q0 243 -131 366
q-130 124 -352 124h-125l-80 -496h289l-23 -135h-286z" />
    <glyph glyph-name="Ntilde" unicode="&#xd1;" horiz-adv-x="1384" 
d="M215 0h-184l227 1434h70l680 -1022l161 1022h185l-228 -1434h-69l-680 1024zM451 1602h-11l39 147q94 86 199 86q80 0 167 -59q91 -58 154 -58q83 0 189 99h10l-39 -148q-48 -47 -92.5 -66.5t-101.5 -19.5q-80 0 -171 58q-90 59 -155 59q-81 0 -188 -98z" />
    <glyph glyph-name="Ograve" unicode="&#xd2;" horiz-adv-x="1636" 
d="M78 641q0 263 147 473q72 103 169 181q98 80 225.5 123.5t267.5 43.5q134 0 257.5 -49.5t214.5 -137.5q92 -88 144.5 -211t52.5 -259q0 -258 -139 -472q-68 -105 -165 -187q-98 -83 -230 -129t-279 -46q-131 0 -253 51t-213 139q-89 88 -145 213q-54 126 -54 267z
M262 647q0 -113 41 -212.5t111 -167.5q69 -66 159.5 -103t186.5 -37q131 0 247.5 53.5t195.5 145.5q80 92 124.5 213t44.5 252q0 113 -40.5 211.5t-110.5 164.5q-69 66 -160.5 103t-190.5 37q-167 0 -309 -92q-141 -93 -220 -243q-79 -151 -79 -325zM913 1575l-247 280h237
l146 -280h-136z" />
    <glyph glyph-name="Oacute" unicode="&#xd3;" horiz-adv-x="1636" 
d="M78 641q0 263 147 473q72 103 169 181q98 80 225.5 123.5t267.5 43.5q134 0 257.5 -49.5t214.5 -137.5q92 -88 144.5 -211t52.5 -259q0 -258 -139 -472q-68 -105 -165 -187q-98 -83 -230 -129t-279 -46q-131 0 -253 51t-213 139q-89 88 -145 213q-54 126 -54 267z
M262 647q0 -113 41 -212.5t111 -167.5q69 -66 159.5 -103t186.5 -37q131 0 247.5 53.5t195.5 145.5q80 92 124.5 213t44.5 252q0 113 -40.5 211.5t-110.5 164.5q-69 66 -160.5 103t-190.5 37q-167 0 -309 -92q-141 -93 -220 -243q-79 -151 -79 -325zM926 1575h-144l232 280
h246z" />
    <glyph glyph-name="Ocircumflex" unicode="&#xd4;" horiz-adv-x="1636" 
d="M78 641q0 263 147 473q72 103 169 181q98 80 225.5 123.5t267.5 43.5q134 0 257.5 -49.5t214.5 -137.5q92 -88 144.5 -211t52.5 -259q0 -258 -139 -472q-68 -105 -165 -187q-98 -83 -230 -129t-279 -46q-131 0 -253 51t-213 139q-89 88 -145 213q-54 126 -54 267z
M262 647q0 -113 41 -212.5t111 -167.5q69 -66 159.5 -103t186.5 -37q131 0 247.5 53.5t195.5 145.5q80 92 124.5 213t44.5 252q0 113 -40.5 211.5t-110.5 164.5q-69 66 -160.5 103t-190.5 37q-167 0 -309 -92q-141 -93 -220 -243q-79 -151 -79 -325zM733 1575h-127l248 280
h215l162 -280h-119l-162 182z" />
    <glyph glyph-name="Otilde" unicode="&#xd5;" horiz-adv-x="1636" 
d="M78 641q0 263 147 473q72 103 169 181q98 80 225.5 123.5t267.5 43.5q134 0 257.5 -49.5t214.5 -137.5q92 -88 144.5 -211t52.5 -259q0 -258 -139 -472q-68 -105 -165 -187q-98 -83 -230 -129t-279 -46q-131 0 -253 51t-213 139q-89 88 -145 213q-54 126 -54 267z
M262 647q0 -113 41 -212.5t111 -167.5q69 -66 159.5 -103t186.5 -37q131 0 247.5 53.5t195.5 145.5q80 92 124.5 213t44.5 252q0 113 -40.5 211.5t-110.5 164.5q-69 66 -160.5 103t-190.5 37q-167 0 -309 -92q-141 -93 -220 -243q-79 -151 -79 -325zM547 1602h-10l38 147
q94 86 199 86q78 0 168 -59q91 -58 154 -58q82 0 188 99h10l-39 -148q-48 -47 -92.5 -66.5t-101.5 -19.5q-80 0 -171 58q-90 59 -155 59q-81 0 -188 -98z" />
    <glyph glyph-name="Odieresis" unicode="&#xd6;" horiz-adv-x="1636" 
d="M78 641q0 263 147 473q72 103 169 181q98 80 225.5 123.5t267.5 43.5q134 0 257.5 -49.5t214.5 -137.5q92 -88 144.5 -211t52.5 -259q0 -258 -139 -472q-68 -105 -165 -187q-98 -83 -230 -129t-279 -46q-131 0 -253 51t-213 139q-89 88 -145 213q-54 126 -54 267z
M262 647q0 -113 41 -212.5t111 -167.5q69 -66 159.5 -103t186.5 -37q131 0 247.5 53.5t195.5 145.5q80 92 124.5 213t44.5 252q0 113 -40.5 211.5t-110.5 164.5q-69 66 -160.5 103t-190.5 37q-167 0 -309 -92q-141 -93 -220 -243q-79 -151 -79 -325zM623 1706q0 45 32 79
q31 34 76 34q46 0 79 -34q34 -33 34 -79q0 -44 -34 -77q-34 -32 -79 -32q-44 0 -76 32q-32 34 -32 77zM989 1706q0 45 32 79q33 34 77 34q46 0 79 -34q33 -33 33 -79q0 -44 -33 -77q-34 -32 -79 -32q-43 0 -77 32q-32 34 -32 77z" />
    <glyph glyph-name="multiply" unicode="&#xd7;" horiz-adv-x="868" 
d="M150 414l-84 98l282 244l-203 239l107 92l203 -239l276 239l84 -98l-276 -239l198 -238l-106 -92l-201 237z" />
    <glyph glyph-name="Oslash" unicode="&#xd8;" horiz-adv-x="1636" 
d="M78 641q0 263 147 473q72 103 169 181q98 80 225.5 123.5t267.5 43.5q170 0 327 -82l93 127l112 -88l-88 -121q109 -93 168.5 -220.5t59.5 -272.5q0 -257 -140 -472q-70 -106 -166 -187q-98 -82 -230 -128.5t-280 -46.5q-173 0 -321 82l-92 -127l-113 88l88 121
q-108 94 -167.5 224.5t-59.5 281.5zM262 647q0 -226 144 -373l708 971q-119 62 -244 62q-167 0 -309 -92q-141 -93 -220 -243q-79 -151 -79 -325zM1229 1159l-709 -971q109 -61 240 -61t247.5 53.5t196.5 145.5q81 91 125.5 212.5t44.5 252.5q0 220 -145 368z" />
    <glyph glyph-name="Ugrave" unicode="&#xd9;" horiz-adv-x="1306" 
d="M86 418q0 54 10 123l140 893h184l-148 -930q-8 -56 -8 -90q0 -146 82 -216q83 -71 207 -71q159 0 272 101t140 276l147 930h184l-141 -899q-42 -267 -201 -415q-160 -149 -419 -149q-206 0 -328 120q-121 121 -121 327zM807 1575l-248 280h238l145 -280h-135z" />
    <glyph glyph-name="Uacute" unicode="&#xda;" horiz-adv-x="1306" 
d="M86 418q0 54 10 123l140 893h184l-148 -930q-8 -56 -8 -90q0 -146 82 -216q83 -71 207 -71q159 0 272 101t140 276l147 930h184l-141 -899q-42 -267 -201 -415q-160 -149 -419 -149q-206 0 -328 120q-121 121 -121 327zM762 1575h-144l232 280h246z" />
    <glyph glyph-name="Ucircumflex" unicode="&#xdb;" horiz-adv-x="1306" 
d="M86 418q0 54 10 123l140 893h184l-148 -930q-8 -56 -8 -90q0 -146 82 -216q83 -71 207 -71q159 0 272 101t140 276l147 930h184l-141 -899q-42 -267 -201 -415q-160 -149 -419 -149q-206 0 -328 120q-121 121 -121 327zM610 1575h-127l248 280h215l162 -280h-119
l-162 182z" />
    <glyph glyph-name="Udieresis" unicode="&#xdc;" horiz-adv-x="1306" 
d="M86 418q0 54 10 123l140 893h184l-148 -930q-8 -56 -8 -90q0 -146 82 -216q83 -71 207 -71q159 0 272 101t140 276l147 930h184l-141 -899q-42 -267 -201 -415q-160 -149 -419 -149q-206 0 -328 120q-121 121 -121 327zM510 1706q0 45 32 79q31 34 76 34q46 0 79 -34
q34 -33 34 -79q0 -44 -34 -77q-34 -32 -79 -32q-44 0 -76 32q-32 34 -32 77zM877 1706q0 45 32 79q31 34 76 34q46 0 79 -34q34 -33 34 -79q0 -44 -34 -77q-34 -32 -79 -32q-44 0 -76 32q-32 34 -32 77z" />
    <glyph glyph-name="Yacute" unicode="&#xdd;" horiz-adv-x="1200" 
d="M494 623l-351 811h191l272 -652l477 652h203l-608 -811l-98 -623h-185zM709 1575h-144l232 280h245z" />
    <glyph glyph-name="Thorn" unicode="&#xde;" horiz-adv-x="1032" 
d="M195 0h-185l228 1434h184l-43 -271h180q201 0 319 -109q119 -110 119 -282q0 -146 -78 -255q-76 -109 -205 -165.5t-292 -56.5h-180zM354 1008l-88 -557h183q155 -3 259.5 79t104.5 230q0 125 -76 186q-77 62 -200 62h-183z" />
    <glyph glyph-name="germandbls" unicode="&#xdf;" horiz-adv-x="1179" 
d="M256 0h-164l137 864h-137l23 148h137l12 78q27 174 142 272q115 100 280 100q138 0 235 -84q99 -84 99 -223q0 -130 -77 -224.5t-216 -144.5q137 -43 234 -129q55 -46 85.5 -116t30.5 -154q0 -180 -119 -299q-118 -117 -313 -117q-79 0 -158 26.5t-139 72.5l66 159h12
q35 -45 101 -74q65 -28 135 -28q112 0 179 69q68 70 68 183q0 86 -60 158q-59 70 -149.5 112t-197.5 51l22 144q136 9 232 87t96 199q0 88 -49 140.5t-133 52.5q-89 0 -156 -61q-68 -62 -84 -166z" />
    <glyph glyph-name="agrave" unicode="&#xe0;" horiz-adv-x="1269" 
d="M55 436q0 167 74 304q76 138 214 218q139 82 316 82q107 0 198 -46q92 -45 144 -109l21 127h164l-162 -1012h-164l21 127q-146 -156 -369 -156q-123 0 -228 60q-104 62 -167 168q-62 109 -62 237zM219 440q0 -138 89 -230q90 -91 222 -91q178 0 302 135q126 135 126 324
q0 136 -86 225q-86 90 -225 90q-124 0 -225 -65q-98 -63 -150.5 -165t-52.5 -223zM670 1153l-248 281h237l146 -281h-135z" />
    <glyph glyph-name="aacute" unicode="&#xe1;" horiz-adv-x="1269" 
d="M55 436q0 167 74 304q76 138 214 218q139 82 316 82q107 0 198 -46q92 -45 144 -109l21 127h164l-162 -1012h-164l21 127q-146 -156 -369 -156q-123 0 -228 60q-104 62 -167 168q-62 109 -62 237zM219 440q0 -138 89 -230q90 -91 222 -91q178 0 302 135q126 135 126 324
q0 136 -86 225q-86 90 -225 90q-124 0 -225 -65q-98 -63 -150.5 -165t-52.5 -223zM662 1153h-144l232 281h245z" />
    <glyph glyph-name="acircumflex" unicode="&#xe2;" horiz-adv-x="1269" 
d="M55 436q0 167 74 304q76 138 214 218q139 82 316 82q107 0 198 -46q92 -45 144 -109l21 127h164l-162 -1012h-164l21 127q-146 -156 -369 -156q-123 0 -228 60q-104 62 -167 168q-62 109 -62 237zM219 440q0 -138 89 -230q90 -91 222 -91q178 0 302 135q126 135 126 324
q0 136 -86 225q-86 90 -225 90q-124 0 -225 -65q-98 -63 -150.5 -165t-52.5 -223zM469 1153h-127l248 281h215l162 -281h-119l-162 182z" />
    <glyph glyph-name="atilde" unicode="&#xe3;" horiz-adv-x="1269" 
d="M55 436q0 167 74 304q76 138 214 218q139 82 316 82q107 0 198 -46q92 -45 144 -109l21 127h164l-162 -1012h-164l21 127q-146 -156 -369 -156q-123 0 -228 60q-104 62 -167 168q-62 109 -62 237zM219 440q0 -138 89 -230q90 -91 222 -91q178 0 302 135q126 135 126 324
q0 136 -86 225q-86 90 -225 90q-124 0 -225 -65q-98 -63 -150.5 -165t-52.5 -223zM303 1180h-10l39 147q94 86 198 86q78 0 168 -59q91 -58 154 -58q82 0 188 99h11l-39 -148q-48 -47 -93 -66.5t-102 -19.5q-80 0 -171 58q-90 59 -154 59q-82 0 -189 -98z" />
    <glyph glyph-name="adieresis" unicode="&#xe4;" horiz-adv-x="1269" 
d="M55 436q0 167 74 304q76 138 214 218q139 82 316 82q107 0 198 -46q92 -45 144 -109l21 127h164l-162 -1012h-164l21 127q-146 -156 -369 -156q-123 0 -228 60q-104 62 -167 168q-62 109 -62 237zM219 440q0 -138 89 -230q90 -91 222 -91q178 0 302 135q126 135 126 324
q0 136 -86 225q-86 90 -225 90q-124 0 -225 -65q-98 -63 -150.5 -165t-52.5 -223zM379 1284q0 45 32 79q31 34 76 34q46 0 79 -34q34 -33 34 -79q0 -45 -34 -76q-34 -32 -79 -32q-44 0 -76 32t-32 76zM745 1284q0 45 32 79q33 34 77 34q46 0 79 -34q34 -33 34 -79
q0 -45 -34 -76q-34 -32 -79 -32q-43 0 -77 32q-32 32 -32 76z" />
    <glyph glyph-name="aring" unicode="&#xe5;" horiz-adv-x="1269" 
d="M55 436q0 167 74 304q76 138 214 218q139 82 316 82q107 0 198 -46q92 -45 144 -109l21 127h164l-162 -1012h-164l21 127q-146 -156 -369 -156q-123 0 -228 60q-104 62 -167 168q-62 109 -62 237zM219 440q0 -138 89 -230q90 -91 222 -91q178 0 302 135q126 135 126 324
q0 136 -86 225q-86 90 -225 90q-124 0 -225 -65q-98 -63 -150.5 -165t-52.5 -223zM528 1174q-61 60 -61 147t61 147q62 60 150 60t150 -60q61 -60 61 -147t-61 -147q-62 -60 -150 -60t-150 60zM585 1412q-36 -38 -36 -91q0 -55 36 -92t93 -37t93 37t36 92q0 53 -36 91
t-93 38t-93 -38z" />
    <glyph glyph-name="ae" unicode="&#xe6;" horiz-adv-x="1785" 
d="M16 236q0 74 30 135t80.5 102.5t118 70t141.5 41.5t153 13h155q6 40 6 72q0 117 -61 175q-61 60 -145 60q-156 0 -289 -133h-23l35 170q56 41 136 69q82 29 163 29q99 0 189 -51q90 -50 131 -131q167 182 415 182q188 0 310 -119t122 -303q0 -50 -8 -96l-10 -55h-821v-18
q0 -77 26 -142.5t71 -105.5q95 -82 210 -82q108 0 198 36q93 38 205 128h17l-35 -179q-91 -69 -186.5 -101t-212.5 -32q-124 0 -234 65q-108 63 -170 179q-148 -244 -418 -244q-129 0 -214 79t-85 186zM193 248q0 -57 42 -93t109 -36q49 0 99 20t97 60t82.5 109.5
t49.5 158.5q-160 0 -263 -22q-67 -13 -112 -36q-104 -54 -104 -161zM864 598h674q0 142 -84 224q-83 83 -217 83q-135 0 -234 -87q-98 -85 -139 -220z" />
    <glyph glyph-name="ccedilla" unicode="&#xe7;" horiz-adv-x="983" 
d="M51 434q0 123 45.5 234.5t126.5 193.5q82 83 197 130.5t244 47.5q170 0 288 -96l-22 -162h-19q-58 58 -122 84.5t-148 26.5q-171 0 -298 -130q-128 -130 -128 -319q0 -144 86 -235q87 -90 225 -90q83 0 149 25t144 85h19l-31 -166q-125 -92 -305 -92l-78 -98
q64 23 111 23q71 0 114 -44.5t43 -117.5q0 -102 -80 -164t-202 -62q-100 0 -168 33v103l16 6q72 -45 143 -45q55 0 99 29q43 28 43 81q0 97 -109 97q-51 0 -123 -29l-8 12l111 185q-155 28 -260 151q-103 121 -103 303z" />
    <glyph glyph-name="egrave" unicode="&#xe8;" horiz-adv-x="1159" 
d="M51 453q0 178 100 330q75 116 198.5 187t275.5 70q188 0 310 -119t122 -303q0 -50 -8 -96l-11 -55h-823v-18q0 -77 26.5 -142t71.5 -106q95 -82 211 -82q107 0 199 36q93 38 205 128h16l-35 -179q-91 -69 -186.5 -101t-212.5 -32q-120 0 -223 57q-105 59 -170 170
q-66 112 -66 255zM238 598h673q0 142 -84 224q-83 83 -217 83q-135 0 -234 -87q-97 -85 -138 -220zM614 1153l-247 281h237l146 -281h-136z" />
    <glyph glyph-name="eacute" unicode="&#xe9;" horiz-adv-x="1159" 
d="M51 453q0 178 100 330q75 116 198.5 187t275.5 70q188 0 310 -119t122 -303q0 -50 -8 -96l-11 -55h-823v-18q0 -77 26.5 -142t71.5 -106q95 -82 211 -82q107 0 199 36q93 38 205 128h16l-35 -179q-91 -69 -186.5 -101t-212.5 -32q-120 0 -223 57q-105 59 -170 170
q-66 112 -66 255zM238 598h673q0 142 -84 224q-83 83 -217 83q-135 0 -234 -87q-97 -85 -138 -220zM627 1153h-144l232 281h246z" />
    <glyph glyph-name="ecircumflex" unicode="&#xea;" horiz-adv-x="1159" 
d="M51 453q0 178 100 330q75 116 198.5 187t275.5 70q188 0 310 -119t122 -303q0 -50 -8 -96l-11 -55h-823v-18q0 -77 26.5 -142t71.5 -106q95 -82 211 -82q107 0 199 36q93 38 205 128h16l-35 -179q-91 -69 -186.5 -101t-212.5 -32q-120 0 -223 57q-105 59 -170 170
q-66 112 -66 255zM238 598h673q0 142 -84 224q-83 83 -217 83q-135 0 -234 -87q-97 -85 -138 -220zM455 1153h-127l247 281h216l161 -281h-118l-162 182z" />
    <glyph glyph-name="edieresis" unicode="&#xeb;" horiz-adv-x="1159" 
d="M51 453q0 178 100 330q75 116 198.5 187t275.5 70q188 0 310 -119t122 -303q0 -50 -8 -96l-11 -55h-823v-18q0 -77 26.5 -142t71.5 -106q95 -82 211 -82q107 0 199 36q93 38 205 128h16l-35 -179q-91 -69 -186.5 -101t-212.5 -32q-120 0 -223 57q-105 59 -170 170
q-66 112 -66 255zM238 598h673q0 142 -84 224q-83 83 -217 83q-135 0 -234 -87q-97 -85 -138 -220zM344 1284q0 45 32 79q33 34 77 34q46 0 79 -34q33 -33 33 -79q0 -44 -33 -76q-34 -32 -79 -32q-43 0 -77 32q-32 32 -32 76zM711 1284q0 45 32 79q31 34 76 34q46 0 79 -34
q34 -33 34 -79q0 -45 -34 -76q-34 -32 -79 -32q-44 0 -76 32t-32 76z" />
    <glyph glyph-name="igrave" unicode="&#xec;" horiz-adv-x="446" 
d="M193 0h-164l159 1012h164zM283 1153l-248 281h237l146 -281h-135z" />
    <glyph glyph-name="iacute" unicode="&#xed;" horiz-adv-x="446" 
d="M193 0h-164l159 1012h164zM291 1153h-144l232 281h246z" />
    <glyph glyph-name="icircumflex" unicode="&#xee;" horiz-adv-x="446" 
d="M111 1153h-127l247 281h215l162 -281h-119l-161 182zM193 0h-164l159 1012h164z" />
    <glyph glyph-name="idieresis" unicode="&#xef;" horiz-adv-x="446" 
d="M23 1284q0 45 32 79q31 34 76 34q46 0 79 -34q34 -33 34 -79q0 -45 -34 -76q-34 -32 -79 -32q-44 0 -76 32t-32 76zM193 0h-164l159 1012h164zM389 1284q0 45 32 79q33 34 77 34q46 0 79 -34q33 -33 33 -79q0 -44 -33 -76q-34 -32 -79 -32q-43 0 -77 32q-32 32 -32 76z
" />
    <glyph glyph-name="eth" unicode="&#xf0;" horiz-adv-x="1196" 
d="M57 410q0 103 40 198t111 166q72 72 173.5 113t216.5 41q94 0 185 -46q91 -45 145 -118q0 217 -148 389l-352 -137l-29 80l318 121q-93 84 -234 137l6 32l156 68q155 -70 250 -168l195 76l30 -78l-168 -65q150 -193 150 -488q0 -319 -151 -535q-74 -106 -189 -165.5
t-254 -59.5q-112 0 -215 55q-102 55 -170 157q-66 103 -66 227zM246 428q0 -134 83 -214q83 -79 206 -79q81 0 157 42q78 44 128 125q52 82 52 183q0 126 -83 207q-82 82 -205 82q-144 0 -241 -103t-97 -243z" />
    <glyph glyph-name="ntilde" unicode="&#xf1;" horiz-adv-x="1112" 
d="M180 0h-164l162 1012h164l-25 -152q70 83 163.5 131.5t191.5 48.5q148 0 236 -85q89 -84 89 -226q0 -31 -6 -65l-104 -664h-164l102 639q4 25 4 49q0 95 -59 150t-158 55q-128 0 -225 -96q-97 -95 -119 -246zM293 1180h-10l39 147q94 86 198 86q78 0 168 -59
q91 -58 154 -58q82 0 188 99h10l-39 -148q-48 -47 -92.5 -66.5t-101.5 -19.5q-80 0 -171 58q-90 59 -155 59q-81 0 -188 -98z" />
    <glyph glyph-name="ograve" unicode="&#xf2;" horiz-adv-x="1218" 
d="M51 446q0 110 41 215.5t116 190.5q77 87 191 137.5t244 50.5q129 3 239.5 -55.5t176 -166.5t63.5 -240q0 -165 -77 -305q-76 -137 -213 -220q-136 -82 -304 -82q-121 0 -231 59q-108 59 -178 170q-68 112 -68 246zM215 453q0 -144 95 -239q97 -95 235 -95q114 -2 211 60
t151 164.5t51 217.5q0 152 -94 242q-93 90 -235 90q-184 0 -299 -127t-115 -313zM664 1153l-248 281h237l146 -281h-135z" />
    <glyph glyph-name="oacute" unicode="&#xf3;" horiz-adv-x="1218" 
d="M51 446q0 110 41 215.5t116 190.5q77 87 191 137.5t244 50.5q129 3 239.5 -55.5t176 -166.5t63.5 -240q0 -165 -77 -305q-76 -137 -213 -220q-136 -82 -304 -82q-121 0 -231 59q-108 59 -178 170q-68 112 -68 246zM215 453q0 -144 95 -239q97 -95 235 -95q114 -2 211 60
t151 164.5t51 217.5q0 152 -94 242q-93 90 -235 90q-184 0 -299 -127t-115 -313zM655 1153h-143l231 281h246z" />
    <glyph glyph-name="ocircumflex" unicode="&#xf4;" horiz-adv-x="1218" 
d="M51 446q0 110 41 215.5t116 190.5q77 87 191 137.5t244 50.5q129 3 239.5 -55.5t176 -166.5t63.5 -240q0 -165 -77 -305q-76 -137 -213 -220q-136 -82 -304 -82q-121 0 -231 59q-108 59 -178 170q-68 112 -68 246zM215 453q0 -144 95 -239q97 -95 235 -95q114 -2 211 60
t151 164.5t51 217.5q0 152 -94 242q-93 90 -235 90q-184 0 -299 -127t-115 -313zM483 1153h-127l248 281h215l162 -281h-119l-162 182z" />
    <glyph glyph-name="otilde" unicode="&#xf5;" horiz-adv-x="1218" 
d="M51 446q0 110 41 215.5t116 190.5q77 87 191 137.5t244 50.5q129 3 239.5 -55.5t176 -166.5t63.5 -240q0 -165 -77 -305q-76 -137 -213 -220q-136 -82 -304 -82q-121 0 -231 59q-108 59 -178 170q-68 112 -68 246zM215 453q0 -144 95 -239q97 -95 235 -95q114 -2 211 60
t151 164.5t51 217.5q0 152 -94 242q-93 90 -235 90q-184 0 -299 -127t-115 -313zM297 1180h-10l39 147q94 86 198 86q78 0 168 -59q91 -58 154 -58q82 0 188 99h10l-38 -148q-48 -47 -93 -66.5t-102 -19.5q-80 0 -171 58q-90 59 -155 59q-81 0 -188 -98z" />
    <glyph glyph-name="odieresis" unicode="&#xf6;" horiz-adv-x="1218" 
d="M51 446q0 110 41 215.5t116 190.5q77 87 191 137.5t244 50.5q129 3 239.5 -55.5t176 -166.5t63.5 -240q0 -165 -77 -305q-76 -137 -213 -220q-136 -82 -304 -82q-121 0 -231 59q-108 59 -178 170q-68 112 -68 246zM215 453q0 -144 95 -239q97 -95 235 -95q114 -2 211 60
t151 164.5t51 217.5q0 152 -94 242q-93 90 -235 90q-184 0 -299 -127t-115 -313zM373 1284q0 45 32 79q31 34 76 34q46 0 79 -34q34 -33 34 -79q0 -45 -34 -76q-34 -32 -79 -32q-44 0 -76 32t-32 76zM739 1284q0 45 32 79q33 34 77 34q46 0 79 -34q34 -33 34 -79
q0 -45 -34 -76q-34 -32 -79 -32q-43 0 -77 32q-32 32 -32 76z" />
    <glyph glyph-name="divide" unicode="&#xf7;" horiz-adv-x="1011" 
d="M897 614h-815l22 136h816zM324 307q0 49 33 84q35 35 81 35q49 0 84 -35t35 -84q0 -46 -35 -81q-34 -33 -84 -33q-46 0 -81 33q-33 34 -33 81zM442 1061q0 50 34 84q35 35 81 35q49 0 84 -35t35 -84q0 -46 -35 -81q-34 -34 -84 -34q-47 0 -81 34t-34 81z" />
    <glyph glyph-name="oslash" unicode="&#xf8;" horiz-adv-x="1218" 
d="M51 446q0 110 41 215.5t116 190.5q77 87 191 137.5t244 50.5q113 0 211 -45l66 90l118 -84l-61 -86q145 -132 145 -337q0 -165 -77 -305q-76 -137 -213 -220q-136 -82 -304 -82q-103 0 -206 47l-68 -92l-119 84l66 90q-71 66 -110.5 155.5t-39.5 190.5zM215 453
q0 -130 80 -224l467 639q-63 25 -133 25q-184 0 -299 -127t-115 -313zM881 784l-467 -639q57 -26 131 -26q114 -2 211 60t151 164.5t51 217.5q0 132 -77 223z" />
    <glyph glyph-name="ugrave" unicode="&#xf9;" 
d="M57 295q0 31 6 74l103 643h164l-105 -637q-4 -32 -4 -53q0 -95 62 -149q63 -54 155 -54q130 0 224 87t120 243l90 563h164l-162 -1012h-163l24 152q-68 -90 -149 -136q-79 -45 -199 -45q-124 0 -224 81q-49 40 -77.5 103.5t-28.5 139.5zM594 1153l-248 281h238l145 -281
h-135z" />
    <glyph glyph-name="uacute" unicode="&#xfa;" 
d="M57 295q0 31 6 74l103 643h164l-105 -637q-4 -32 -4 -53q0 -95 62 -149q63 -54 155 -54q130 0 224 87t120 243l90 563h164l-162 -1012h-163l24 152q-68 -90 -149 -136q-79 -45 -199 -45q-124 0 -224 81q-49 40 -77.5 103.5t-28.5 139.5zM606 1153h-143l231 281h246z" />
    <glyph glyph-name="ucircumflex" unicode="&#xfb;" 
d="M57 295q0 31 6 74l103 643h164l-105 -637q-4 -32 -4 -53q0 -95 62 -149q63 -54 155 -54q130 0 224 87t120 243l90 563h164l-162 -1012h-163l24 152q-68 -90 -149 -136q-79 -45 -199 -45q-124 0 -224 81q-49 40 -77.5 103.5t-28.5 139.5zM424 1153h-127l248 281h215
l162 -281h-119l-162 182z" />
    <glyph glyph-name="udieresis" unicode="&#xfc;" 
d="M57 295q0 31 6 74l103 643h164l-105 -637q-4 -32 -4 -53q0 -95 62 -149q63 -54 155 -54q130 0 224 87t120 243l90 563h164l-162 -1012h-163l24 152q-68 -90 -149 -136q-79 -45 -199 -45q-124 0 -224 81q-49 40 -77.5 103.5t-28.5 139.5zM313 1284q0 45 32 79q33 34 77 34
q46 0 79 -34q34 -33 34 -79q0 -45 -34 -76q-34 -32 -79 -32q-43 0 -77 32q-32 32 -32 76zM680 1284q0 45 32 79q31 34 76 34q46 0 79 -34q34 -33 34 -79q0 -45 -34 -76q-34 -32 -79 -32q-44 0 -76 32t-32 76z" />
    <glyph glyph-name="yacute" unicode="&#xfd;" horiz-adv-x="1030" 
d="M86 -463h-178l420 658l-275 817h185l198 -654l420 654h172zM561 1153h-143l231 281h246z" />
    <glyph glyph-name="thorn" unicode="&#xfe;" horiz-adv-x="1257" 
d="M109 -463h-164l301 1897h164l-88 -562q66 75 166 121q102 47 210 47q201 0 332 -131t131 -338q0 -119 -42.5 -229t-118.5 -192q-77 -83 -189.5 -131t-239.5 -48q-110 0 -208 50q-97 51 -156 126zM246 461q0 -147 98 -245q97 -97 240 -97q176 0 294 121q119 122 119 311
q0 138 -96 240t-239 102q-174 0 -295 -127q-121 -125 -121 -305z" />
    <glyph glyph-name="ydieresis" unicode="&#xff;" horiz-adv-x="1030" 
d="M86 -463h-178l420 658l-275 817h185l198 -654l420 654h172zM279 1284q0 45 32 79q31 34 76 34q46 0 79 -34q34 -33 34 -79q0 -45 -34 -76q-34 -32 -79 -32q-44 0 -76 32t-32 76zM645 1284q0 45 32 79q33 34 77 34q46 0 79 -34q33 -33 33 -79q0 -44 -33 -76
q-34 -32 -79 -32q-43 0 -77 32q-32 32 -32 76z" />
    <glyph glyph-name="Amacron" unicode="&#x100;" horiz-adv-x="1366" 
d="M115 0h-193l848 1434h53l396 -1434h-175l-79 287h-682zM750 1090l-373 -639h545zM1051 1630h-471l22 131h471z" />
    <glyph glyph-name="amacron" unicode="&#x101;" horiz-adv-x="1269" 
d="M55 436q0 167 74 304q76 138 214 218q139 82 316 82q107 0 198 -46q92 -45 144 -109l21 127h164l-162 -1012h-164l21 127q-146 -156 -369 -156q-123 0 -228 60q-104 62 -167 168q-62 109 -62 237zM219 440q0 -138 89 -230q90 -91 222 -91q178 0 302 135q126 135 126 324
q0 136 -86 225q-86 90 -225 90q-124 0 -225 -65q-98 -63 -150.5 -165t-52.5 -223zM936 1208h-471l22 131h471z" />
    <glyph glyph-name="Abreve" unicode="&#x102;" horiz-adv-x="1366" 
d="M115 0h-193l848 1434h53l396 -1434h-175l-79 287h-682zM750 1090l-373 -639h545zM602 1733q0 16 4 41h127q-2 -16 -2 -35q0 -46 25.5 -73.5t70.5 -27.5q53 0 87.5 37t43.5 99h127q-18 -111 -88 -174.5t-184 -63.5q-89 0 -150 55t-61 142z" />
    <glyph glyph-name="abreve" unicode="&#x103;" horiz-adv-x="1269" 
d="M55 436q0 167 74 304q76 138 214 218q139 82 316 82q107 0 198 -46q92 -45 144 -109l21 127h164l-162 -1012h-164l21 127q-146 -156 -369 -156q-123 0 -228 60q-104 62 -167 168q-62 109 -62 237zM219 440q0 -138 89 -230q90 -91 222 -91q178 0 302 135q126 135 126 324
q0 136 -86 225q-86 90 -225 90q-124 0 -225 -65q-98 -63 -150.5 -165t-52.5 -223zM469 1352q0 16 4 41h127q-2 -16 -2 -35q0 -46 25.5 -73.5t70.5 -27.5q53 0 87.5 37t43.5 99h127q-18 -111 -88 -174.5t-184 -63.5q-89 0 -150 55t-61 142z" />
    <glyph glyph-name="Aogonek" unicode="&#x104;" horiz-adv-x="1366" 
d="M115 0h-193l848 1434h53l396 -1434q-74 -54 -125 -109q-68 -76 -68 -159q0 -55 38.5 -88t94.5 -33q96 0 166 49l14 -6l-34 -107q-51 -22 -89 -30q-38 -9 -104 -9q-88 0 -152 57q-65 56 -65 148q0 86 55.5 160.5t151.5 126.5h-58l-79 289h-682zM750 1090l-375 -641h547z
" />
    <glyph glyph-name="aogonek" unicode="&#x105;" horiz-adv-x="1269" 
d="M55 436q0 167 74 304q76 138 214 218q139 82 316 82q107 0 198 -46q92 -45 144 -109l21 127h164l-162 -1012q-74 -54 -125 -109q-68 -76 -68 -159q0 -55 38 -88t96 -33q95 0 165 49l15 -6l-35 -107q-51 -22 -89 -30q-38 -9 -103 -9q-87 0 -153 57q-65 56 -65 148
q0 86 55.5 160.5t151.5 126.5h-47l21 127q-146 -156 -369 -156q-123 0 -228 60q-104 62 -167 168q-62 109 -62 237zM219 440q0 -138 89 -230q90 -91 222 -91q178 0 302 135q126 135 126 324q0 136 -86 225q-86 90 -225 90q-124 0 -225 -65q-98 -63 -150.5 -165t-52.5 -223z
" />
    <glyph glyph-name="Cacute" unicode="&#x106;" horiz-adv-x="1359" 
d="M76 621q0 167 64 319q64 154 175 269q110 114 272 184q161 69 345 69q232 0 405 -123l-20 -202h-21q-156 170 -391 170q-183 0 -333 -96q-148 -95 -231 -249q-81 -153 -81 -327q0 -119 36.5 -217.5t100.5 -161.5q132 -129 322 -129q124 0 230.5 42.5t213.5 127.5h21
l-45 -203q-198 -123 -432 -123q-119 0 -231.5 44t-202.5 125q-89 81 -143 206q-54 126 -54 275zM952 1575h-143l231 280h246z" />
    <glyph glyph-name="cacute" unicode="&#x107;" horiz-adv-x="1019" 
d="M49 434q0 123 45.5 234.5t126.5 193.5q82 83 197 130.5t244 47.5q170 0 288 -96l-22 -162h-19q-58 58 -122 84.5t-148 26.5q-171 0 -298 -130q-128 -130 -128 -319q0 -144 86 -235q87 -90 225 -90q83 0 149 25t144 85h19l-31 -166q-125 -92 -305 -92q-122 0 -223 55
t-165 163q-63 107 -63 245zM680 1153h-143l231 281h246z" />
    <glyph glyph-name="Ccircumflex" unicode="&#x108;" horiz-adv-x="1359" 
d="M76 621q0 167 64 319q64 154 175 269q110 114 272 184q161 69 345 69q232 0 405 -123l-20 -202h-21q-156 170 -391 170q-183 0 -333 -96q-148 -95 -231 -249q-81 -153 -81 -327q0 -119 36.5 -217.5t100.5 -161.5q132 -129 322 -129q124 0 230.5 42.5t213.5 127.5h21
l-45 -203q-198 -123 -432 -123q-119 0 -231.5 44t-202.5 125q-89 81 -143 206q-54 126 -54 275zM739 1575h-127l248 280h215l162 -280h-119l-162 182z" />
    <glyph glyph-name="ccircumflex" unicode="&#x109;" horiz-adv-x="1019" 
d="M49 434q0 123 45.5 234.5t126.5 193.5q82 83 197 130.5t244 47.5q170 0 288 -96l-22 -162h-19q-58 58 -122 84.5t-148 26.5q-171 0 -298 -130q-128 -130 -128 -319q0 -144 86 -235q87 -90 225 -90q83 0 149 25t144 85h19l-31 -166q-125 -92 -305 -92q-122 0 -223 55
t-165 163q-63 107 -63 245zM453 1153h-127l247 281h215l162 -281h-119l-161 182z" />
    <glyph glyph-name="Cdotaccent" unicode="&#x10a;" horiz-adv-x="1359" 
d="M76 621q0 167 64 319q64 154 175 269q110 114 272 184q161 69 345 69q232 0 405 -123l-20 -202h-21q-156 170 -391 170q-183 0 -333 -96q-148 -95 -231 -249q-81 -153 -81 -327q0 -119 36.5 -217.5t100.5 -161.5q132 -129 322 -129q124 0 230.5 42.5t213.5 127.5h21
l-45 -203q-198 -123 -432 -123q-119 0 -231.5 44t-202.5 125q-89 81 -143 206q-54 126 -54 275zM874 1739q0 47 33 81q35 35 80 35q47 0 82 -35t35 -81q0 -45 -35 -80q-35 -33 -82 -33q-45 0 -80 33q-33 34 -33 80z" />
    <glyph glyph-name="cdotaccent" unicode="&#x10b;" horiz-adv-x="1019" 
d="M49 434q0 123 45.5 234.5t126.5 193.5q82 83 197 130.5t244 47.5q170 0 288 -96l-22 -162h-19q-58 58 -122 84.5t-148 26.5q-171 0 -298 -130q-128 -130 -128 -319q0 -144 86 -235q87 -90 225 -90q83 0 149 25t144 85h19l-31 -166q-125 -92 -305 -92q-122 0 -223 55
t-165 163q-63 107 -63 245zM602 1317q0 47 33 82q35 35 80 35q46 0 81 -35t35 -82q0 -45 -35 -80q-34 -33 -81 -33q-45 0 -80 33q-33 35 -33 80z" />
    <glyph glyph-name="Ccaron" unicode="&#x10c;" horiz-adv-x="1359" 
d="M76 621q0 167 64 319q64 154 175 269q110 114 272 184q161 69 345 69q232 0 405 -123l-20 -202h-21q-156 170 -391 170q-183 0 -333 -96q-148 -95 -231 -249q-81 -153 -81 -327q0 -119 36.5 -217.5t100.5 -161.5q132 -129 322 -129q124 0 230.5 42.5t213.5 127.5h21
l-45 -203q-198 -123 -432 -123q-119 0 -231.5 44t-202.5 125q-89 81 -143 206q-54 126 -54 275zM840 1575l-162 280h119l161 -182l218 182h127l-248 -280h-215z" />
    <glyph glyph-name="ccaron" unicode="&#x10d;" horiz-adv-x="1019" 
d="M49 434q0 123 45.5 234.5t126.5 193.5q82 83 197 130.5t244 47.5q170 0 288 -96l-22 -162h-19q-58 58 -122 84.5t-148 26.5q-171 0 -298 -130q-128 -130 -128 -319q0 -144 86 -235q87 -90 225 -90q83 0 149 25t144 85h19l-31 -166q-125 -92 -305 -92q-122 0 -223 55
t-165 163q-63 107 -63 245zM559 1153l-162 281h119l162 -183l217 183h127l-248 -281h-215z" />
    <glyph glyph-name="Dcaron" unicode="&#x10e;" horiz-adv-x="1290" 
d="M350 0h-319l227 1434h305q133 0 249 -41.5t205.5 -120.5t141 -203.5t51.5 -280.5q0 -166 -63 -312.5t-176 -252.5q-113 -104 -273 -164q-162 -59 -348 -59zM418 1278l-178 -1122h139q141 0 262.5 48.5t206.5 134.5t131.5 202t46.5 247q0 243 -131 366q-130 124 -352 124
h-125zM535 1575l-162 280h119l161 -182l217 182h127l-247 -280h-215z" />
    <glyph glyph-name="dcaron" unicode="&#x10f;" horiz-adv-x="1585" 
d="M53 440q0 118 43 226.5t121 192.5q79 85 195.5 133t251.5 48q106 0 199 -44q91 -44 147 -117l94 596h164l-234 -1475h-164l21 137q-160 -166 -381 -166q-119 0 -223 61q-107 62 -170 170q-64 109 -64 238zM217 442q0 -136 89 -230q90 -93 235 -93q110 0 207 53
q95 52 157 159t62 244q0 136 -89 227q-88 91 -239 91q-113 2 -212 -60t-156 -167.5t-54 -223.5zM1415 1018l-31 33q116 83 132 170q-34 0 -69 33q-34 33 -34 79q0 51 33 86t82 35q51 0 85 -36t34 -87q0 -169 -232 -313z" />
    <glyph glyph-name="Dcroat" unicode="&#x110;" horiz-adv-x="1296" 
d="M139 647h-159l22 135h158l104 652h305q221 0 379 -105q126 -78 197.5 -216.5t71.5 -324.5q0 -166 -63 -312.5t-177 -252.5q-113 -104 -273 -164q-162 -59 -348 -59h-319zM324 647l-78 -491h139q141 0 262.5 48.5t206.5 134.5t131.5 202t46.5 247q0 243 -131 366
q-130 124 -352 124h-125l-80 -496h289l-23 -135h-286z" />
    <glyph glyph-name="dslash" unicode="&#x111;" horiz-adv-x="1277" 
d="M53 440q0 118 43 226.5t121 192.5q79 85 195.5 133t251.5 48q106 0 199 -44q91 -44 147 -117l47 305h-312l19 119h311l29 172h164l-29 -172h176l-18 -119h-176l-187 -1184h-164l21 137q-160 -166 -381 -166q-119 0 -223 61q-107 62 -170 170q-64 109 -64 238zM217 442
q0 -136 89 -230q90 -93 235 -93q110 0 207 53q95 52 157 159t62 244q0 136 -89 227q-88 91 -239 91q-113 2 -212 -60t-156 -167.5t-54 -223.5z" />
    <glyph glyph-name="Emacron" unicode="&#x112;" horiz-adv-x="1062" 
d="M858 0h-827l227 1434h819l-24 -156h-635l-74 -463h612l-24 -156h-613l-79 -503h643zM932 1630h-471l22 131h471z" />
    <glyph glyph-name="emacron" unicode="&#x113;" horiz-adv-x="1159" 
d="M51 453q0 178 100 330q75 116 198.5 187t275.5 70q188 0 310 -119t122 -303q0 -50 -8 -96l-11 -55h-823v-18q0 -77 26.5 -142t71.5 -106q95 -82 211 -82q107 0 199 36q93 38 205 128h16l-35 -179q-91 -69 -186.5 -101t-212.5 -32q-120 0 -223 57q-105 59 -170 170
q-66 112 -66 255zM238 598h673q0 142 -84 224q-83 83 -217 83q-135 0 -234 -87q-97 -85 -138 -220zM881 1208h-471l22 131h471z" />
    <glyph glyph-name="Ebreve" unicode="&#x114;" horiz-adv-x="1062" 
d="M858 0h-827l227 1434h819l-24 -156h-635l-74 -463h612l-24 -156h-613l-79 -503h643zM487 1733q0 3 5 41h126q-2 -16 -2 -35q0 -46 26 -73.5t71 -27.5q53 0 87.5 37t43.5 99h127q-18 -111 -88 -174.5t-185 -63.5q-89 0 -150 55t-61 142z" />
    <glyph glyph-name="ebreve" unicode="&#x115;" horiz-adv-x="1159" 
d="M51 453q0 178 100 330q75 116 198.5 187t275.5 70q188 0 310 -119t122 -303q0 -50 -8 -96l-11 -55h-823v-18q0 -77 26.5 -142t71.5 -106q95 -82 211 -82q107 0 199 36q93 38 205 128h16l-35 -179q-91 -69 -186.5 -101t-212.5 -32q-120 0 -223 57q-105 59 -170 170
q-66 112 -66 255zM238 598h673q0 142 -84 224q-83 83 -217 83q-135 0 -234 -87q-97 -85 -138 -220zM449 1352q0 16 4 41h127q-2 -16 -2 -35q0 -46 25.5 -73.5t70.5 -27.5q53 0 87.5 37t43.5 99h127q-18 -111 -88 -174.5t-185 -63.5q-89 0 -150 55q-60 56 -60 142z" />
    <glyph glyph-name="Edotaccent" unicode="&#x116;" horiz-adv-x="1062" 
d="M858 0h-827l227 1434h819l-24 -156h-635l-74 -463h612l-24 -156h-613l-79 -503h643zM602 1739q0 47 33 81q35 35 80 35q46 0 81 -35t35 -81q0 -45 -35 -80q-34 -33 -81 -33q-45 0 -80 33q-33 34 -33 80z" />
    <glyph glyph-name="edotaccent" unicode="&#x117;" horiz-adv-x="1159" 
d="M51 453q0 178 100 330q75 116 198.5 187t275.5 70q188 0 310 -119t122 -303q0 -50 -8 -96l-11 -55h-823v-18q0 -77 26.5 -142t71.5 -106q95 -82 211 -82q107 0 199 36q93 38 205 128h16l-35 -179q-91 -69 -186.5 -101t-212.5 -32q-120 0 -223 57q-105 59 -170 170
q-66 112 -66 255zM238 598h673q0 142 -84 224q-83 83 -217 83q-135 0 -234 -87q-97 -85 -138 -220zM559 1317q0 47 33 82q35 35 80 35q46 0 81 -35t35 -82q0 -45 -35 -80q-35 -33 -81 -33t-80 33q-33 35 -33 80z" />
    <glyph glyph-name="Eogonek" unicode="&#x118;" horiz-adv-x="1062" 
d="M741 0h-710l227 1434h819l-24 -156h-635l-74 -463h612l-24 -156h-613l-79 -503h643l-25 -156q-70 -52 -124 -109q-68 -76 -68 -159q0 -55 38.5 -88t94.5 -33q96 0 166 49l14 -6l-35 -107q-51 -22 -89 -30q-37 -9 -103 -9q-87 0 -152 57q-65 56 -65 148q0 86 55.5 160.5
t150.5 126.5z" />
    <glyph glyph-name="eogonek" unicode="&#x119;" horiz-adv-x="1159" 
d="M51 453q0 178 100 330q75 116 198.5 187t275.5 70q188 0 310 -119t122 -303q0 -50 -8 -96l-11 -55h-823v-18q0 -77 26.5 -142t71.5 -106q95 -82 211 -82q107 0 199 36q93 38 205 128h16l-35 -179q-97 -76 -198 -104q-74 -54 -125 -109q-68 -76 -68 -159q0 -55 38.5 -88
t94.5 -33q96 0 166 49l14 -6l-34 -107q-51 -22 -89 -30q-38 -9 -104 -9q-88 0 -152 57q-65 56 -65 148q0 74 43 141t119 119q-16 -2 -39 -2q-120 0 -223 57q-105 59 -170 170q-66 112 -66 255zM238 598h673q0 142 -84 224q-83 83 -217 83q-135 0 -234 -87q-97 -85 -138 -220
z" />
    <glyph glyph-name="Ecaron" unicode="&#x11a;" horiz-adv-x="1062" 
d="M858 0h-827l227 1434h819l-24 -156h-635l-74 -463h612l-24 -156h-613l-79 -503h643zM571 1575l-161 280h118l162 -182l217 182h127l-248 -280h-215z" />
    <glyph glyph-name="ecaron" unicode="&#x11b;" horiz-adv-x="1159" 
d="M51 453q0 178 100 330q75 116 198.5 187t275.5 70q188 0 310 -119t122 -303q0 -50 -8 -96l-11 -55h-823v-18q0 -77 26.5 -142t71.5 -106q95 -82 211 -82q107 0 199 36q93 38 205 128h16l-35 -179q-91 -69 -186.5 -101t-212.5 -32q-120 0 -223 57q-105 59 -170 170
q-66 112 -66 255zM238 598h673q0 142 -84 224q-83 83 -217 83q-135 0 -234 -87q-97 -85 -138 -220zM541 1153l-162 281h119l161 -183l218 183h127l-248 -281h-215z" />
    <glyph glyph-name="Gcircumflex" unicode="&#x11c;" horiz-adv-x="1501" 
d="M76 608q0 284 155 500q74 103 181 185q106 81 244 125t290 44q139 0 255 -36t194 -97l-19 -188h-24q-187 166 -418 166q-191 0 -347 -93q-156 -94 -241 -250q-86 -157 -86 -341q0 -111 37 -206t102 -159q64 -63 148 -97t176 -34q226 0 416 162l57 358h-455l25 156h639
l-90 -576q-133 -130 -282.5 -193t-334.5 -63q-120 0 -233 47t-200 131q-83 80 -137 203q-52 119 -52 256zM768 1575h-127l248 280h215l162 -280h-119l-162 182z" />
    <glyph glyph-name="gcircumflex" unicode="&#x11d;" horiz-adv-x="1257" 
d="M55 453q0 154 74 288q73 133 211 216q139 83 309 83q99 0 192 -41q94 -41 148 -112l21 125h164l-148 -920q-50 -308 -201 -446t-403 -138q-95 0 -185 26q-88 25 -145 63l21 163h26q128 -104 305 -104q160 0 259 90t137 258l34 156q-142 -160 -374 -160q-189 0 -317 131
q-128 133 -128 322zM219 453q0 -126 94 -216q95 -90 234 -90q169 0 294 119q124 120 124 297q0 143 -86 237q-85 93 -228 93q-114 0 -214 -58q-99 -59 -159 -160q-59 -103 -59 -222zM483 1153h-127l248 281h215l162 -281h-119l-162 182z" />
    <glyph glyph-name="Gbreve" unicode="&#x11e;" horiz-adv-x="1501" 
d="M76 608q0 284 155 500q74 103 181 185q106 81 244 125t290 44q139 0 255 -36t194 -97l-19 -188h-24q-187 166 -418 166q-191 0 -347 -93q-156 -94 -241 -250q-86 -157 -86 -341q0 -111 37 -206t102 -159q64 -63 148 -97t176 -34q226 0 416 162l57 358h-455l25 156h639
l-90 -576q-133 -130 -282.5 -193t-334.5 -63q-120 0 -233 47t-200 131q-83 80 -137 203q-52 119 -52 256zM743 1774q0 3 5 41h126q-2 -16 -2 -35q0 -46 26 -73.5t71 -27.5q53 0 87.5 37t43.5 99h127q-18 -111 -88 -174.5t-185 -63.5q-89 0 -150 55t-61 142z" />
    <glyph glyph-name="gbreve" unicode="&#x11f;" horiz-adv-x="1257" 
d="M55 453q0 154 74 288q73 133 211 216q139 83 309 83q99 0 192 -41q94 -41 148 -112l21 125h164l-148 -920q-50 -308 -201 -446t-403 -138q-95 0 -185 26q-88 25 -145 63l21 163h26q128 -104 305 -104q160 0 259 90t137 258l34 156q-142 -160 -374 -160q-189 0 -317 131
q-128 133 -128 322zM219 453q0 -126 94 -216q95 -90 234 -90q169 0 294 119q124 120 124 297q0 143 -86 237q-85 93 -228 93q-114 0 -214 -58q-99 -59 -159 -160q-59 -103 -59 -222zM483 1352q0 16 4 41h127q-2 -16 -2 -35q0 -46 26 -73.5t71 -27.5q53 0 87.5 37t43.5 99
h127q-18 -111 -88 -174.5t-185 -63.5q-89 0 -150 55t-61 142z" />
    <glyph glyph-name="Gdotaccent" unicode="&#x120;" horiz-adv-x="1501" 
d="M76 608q0 284 155 500q74 103 181 185q106 81 244 125t290 44q139 0 255 -36t194 -97l-19 -188h-24q-187 166 -418 166q-191 0 -347 -93q-156 -94 -241 -250q-86 -157 -86 -341q0 -111 37 -206t102 -159q64 -63 148 -97t176 -34q226 0 416 162l57 358h-455l25 156h639
l-90 -576q-133 -130 -282.5 -193t-334.5 -63q-120 0 -233 47t-200 131q-83 80 -137 203q-52 119 -52 256zM870 1739q0 47 33 81q35 35 80 35q47 0 82 -35t35 -81q0 -45 -35 -80q-35 -33 -82 -33q-45 0 -80 33q-33 34 -33 80z" />
    <glyph glyph-name="gdotaccent" unicode="&#x121;" horiz-adv-x="1257" 
d="M55 453q0 154 74 288q73 133 211 216q139 83 309 83q99 0 192 -41q94 -41 148 -112l21 125h164l-148 -920q-50 -308 -201 -446t-403 -138q-95 0 -185 26q-88 25 -145 63l21 163h26q128 -104 305 -104q160 0 259 90t137 258l34 156q-142 -160 -374 -160q-189 0 -317 131
q-128 133 -128 322zM219 453q0 -126 94 -216q95 -90 234 -90q169 0 294 119q124 120 124 297q0 143 -86 237q-85 93 -228 93q-114 0 -214 -58q-99 -59 -159 -160q-59 -103 -59 -222zM598 1317q0 47 33 82q35 35 80 35q46 0 81 -35t35 -82q0 -45 -35 -80q-34 -33 -81 -33
q-45 0 -80 33q-33 35 -33 80z" />
    <glyph glyph-name="uni0122" unicode="&#x122;" horiz-adv-x="1501" 
d="M76 608q0 284 155 500q74 103 181 185q106 81 244 125t290 44q139 0 255 -36t194 -97l-19 -188h-24q-187 166 -418 166q-191 0 -347 -93q-156 -94 -241 -250q-86 -157 -86 -341q0 -111 37 -206t102 -159q64 -63 148 -97t176 -34q226 0 416 162l57 358h-455l25 156h639
l-90 -576q-133 -130 -282.5 -193t-334.5 -63q-120 0 -233 47t-200 131q-83 80 -137 203q-52 119 -52 256zM545 -590l-8 39q104 61 127 170q-34 0 -67 34q-32 34 -32 79q0 51 33 86t82 35q51 0 85 -36t34 -87q0 -103 -74 -186q-72 -81 -180 -134z" />
    <glyph glyph-name="uni0123" unicode="&#x123;" horiz-adv-x="1257" 
d="M55 453q0 154 74 288q73 133 211 216q139 83 309 83q99 0 192 -41q94 -41 148 -112l21 125h164l-148 -920q-50 -308 -201 -446t-403 -138q-95 0 -185 26q-88 25 -145 63l21 163h26q128 -104 305 -104q160 0 259 90t137 258l34 156q-142 -160 -374 -160q-189 0 -317 131
q-128 133 -128 322zM219 453q0 -126 94 -216q95 -90 234 -90q169 0 294 119q124 120 124 297q0 143 -86 237q-85 93 -228 93q-114 0 -214 -58q-99 -59 -159 -160q-59 -103 -59 -222zM588 1407q0 169 231 313l31 -32q-114 -81 -131 -170q35 0 68 -33q34 -33 34 -80
q0 -51 -32.5 -86t-81.5 -35q-51 0 -85 36t-34 87z" />
    <glyph glyph-name="Hcircumflex" unicode="&#x124;" horiz-adv-x="1333" 
d="M215 0h-184l227 1436h184l-94 -602h676l94 602h185l-228 -1436h-184l106 678h-675zM612 1575h-127l248 280h215l162 -280h-119l-162 182z" />
    <glyph glyph-name="hcircumflex" unicode="&#x125;" horiz-adv-x="1134" 
d="M180 0h-164l236 1475h164l-99 -619q67 87 164 135.5t207 48.5q142 0 234 -84q92 -83 92 -229q0 -37 -6 -80l-105 -647h-164l103 633q4 28 4 49q0 94 -60 153q-58 58 -159 58q-131 0 -233 -96q-100 -94 -126 -244zM381 1575h-127l248 280h215l162 -280h-119l-162 182z" />
    <glyph glyph-name="Hbar" unicode="&#x126;" horiz-adv-x="1372" 
d="M221 1073h-176l23 131h174l37 230h184l-37 -230h676l37 230h184l-37 -230h174l-22 -131h-172l-170 -1073h-185l107 678h-676l-106 -678h-185zM406 1073l-37 -239h675l37 239h-675z" />
    <glyph glyph-name="hbar" unicode="&#x127;" horiz-adv-x="1134" 
d="M180 0h-164l189 1184h-174l18 119h174l29 172h164l-29 -172h293l-18 -119h-293l-52 -328q67 87 164 135.5t207 48.5q142 0 234 -84q92 -83 92 -229q0 -37 -6 -80l-105 -647h-164l103 633q4 28 4 49q0 94 -60 153q-58 58 -159 58q-131 0 -233 -96q-100 -94 -126 -244z" />
    <glyph glyph-name="Itilde" unicode="&#x128;" horiz-adv-x="473" 
d="M27 1602h-11l39 147q94 86 199 86q80 0 167 -59q91 -58 154 -58q83 0 189 99h10l-39 -148q-48 -47 -92.5 -66.5t-101.5 -19.5q-80 0 -171 58q-90 59 -155 59q-81 0 -188 -98zM215 0h-184l227 1434h184z" />
    <glyph glyph-name="itilde" unicode="&#x129;" horiz-adv-x="446" 
d="M-53 1180h-10l38 147q94 86 199 86q78 0 168 -59q91 -58 154 -58q82 0 188 99h10l-39 -148q-48 -47 -92.5 -66.5t-101.5 -19.5q-80 0 -171 58q-90 59 -155 59q-81 0 -188 -98zM193 0h-164l159 1012h164z" />
    <glyph glyph-name="Imacron" unicode="&#x12a;" horiz-adv-x="473" 
d="M215 0h-184l227 1434h184zM618 1630h-471l23 131h471z" />
    <glyph glyph-name="imacron" unicode="&#x12b;" horiz-adv-x="446" 
d="M193 0h-164l159 1012h164zM530 1208h-471l23 131h471z" />
    <glyph glyph-name="Ibreve" unicode="&#x12c;" horiz-adv-x="473" 
d="M215 0h-184l227 1434h184zM158 1774q0 16 4 41h127q-2 -16 -2 -35q0 -46 25.5 -73.5t70.5 -27.5q53 0 87.5 37t43.5 99h127q-18 -111 -88 -174.5t-184 -63.5q-89 0 -150 55t-61 142z" />
    <glyph glyph-name="ibreve" unicode="&#x12d;" horiz-adv-x="446" 
d="M193 0h-164l159 1012h164zM84 1352q0 16 4 41h127q-2 -16 -2 -35q0 -46 25.5 -73.5t70.5 -27.5q53 0 87.5 37t43.5 99h127q-18 -111 -88 -174.5t-184 -63.5q-89 0 -150 55t-61 142z" />
    <glyph glyph-name="Iogonek" unicode="&#x12e;" horiz-adv-x="473" 
d="M-109 -287q0 86 55.5 160.5t151.5 126.5h-67l227 1434h184l-227 -1434q-70 -52 -124 -109q-68 -76 -68 -159q0 -55 38.5 -88t94.5 -33q96 0 166 49l14 -6l-35 -107q-51 -22 -89 -30q-38 -9 -103 -9q-87 0 -152 57q-66 55 -66 148z" />
    <glyph glyph-name="iogonek" unicode="&#x12f;" horiz-adv-x="446" 
d="M-131 -287q0 85 55.5 159.5t151.5 127.5h-47l159 1012h164l-159 -1012q-74 -54 -125 -109q-68 -76 -68 -159q0 -55 38.5 -88t94.5 -33q96 0 166 49l14 -6l-34 -107q-51 -22 -89 -30q-37 -9 -104 -9q-88 0 -152 57q-65 56 -65 148zM207 1317q0 47 33 82t79 35q47 0 82 -35
t35 -82q0 -45 -35 -80q-35 -33 -82 -33q-46 0 -79 33q-33 35 -33 80z" />
    <glyph glyph-name="Idot" unicode="&#x130;" horiz-adv-x="473" 
d="M215 0h-184l227 1434h184zM281 1739q0 47 33 81q33 35 79 35q47 0 82 -35t35 -81q0 -45 -35 -80q-35 -33 -82 -33q-46 0 -79 33q-33 35 -33 80z" />
    <glyph glyph-name="dotlessi" unicode="&#x131;" horiz-adv-x="446" 
d="M193 0h-164l159 1012h164z" />
    <glyph glyph-name="IJ" unicode="&#x132;" horiz-adv-x="1153" 
d="M123 20l6 189h23q118 -82 297 -82q115 0 209 60q102 66 128 223l29 186q-130 -133 -313 -133q-94 0 -177 42q-82 43 -134 128t-52 194q0 39 6 86l82 521h185l-82 -535q-6 -30 -6 -61q0 -102 62 -161t157 -59q131 0 214.5 71.5t106.5 209.5l84 535h185l-158 -1002
q-34 -220 -179 -341q-144 -120 -352 -120q-183 0 -321 49z" />
    <glyph glyph-name="ij" unicode="&#x133;" horiz-adv-x="1060" 
d="M-25 -412l23 172h27q69 -54 129 -75q62 -21 147 -21q151 0 244 87t121 255l16 107q-64 -70 -136 -107q-72 -35 -179 -35q-56 0 -110 21.5t-99 61t-73 104.5t-28 145q0 37 6 78l101 631h164l-103 -652q-4 -28 -4 -47q0 -89 57 -142q58 -52 148 -52q120 0 202 87t107 243
l88 563h164l-156 -989q-40 -256 -187 -385q-145 -130 -357 -130q-175 0 -312 80zM182 1317q0 47 33 82q35 35 80 35q47 0 82 -35t35 -82q0 -45 -35 -80q-34 -33 -82 -33q-45 0 -80 33q-33 35 -33 80zM842 1317q0 47 33 82t79 35q47 0 82 -35t35 -82q0 -45 -35 -80
q-34 -33 -82 -33q-46 0 -79 33q-33 35 -33 80z" />
    <glyph glyph-name="Jcircumflex" unicode="&#x134;" horiz-adv-x="774" 
d="M-4 0l10 176h27q83 -49 162 -49q85 0 134 46t64 144l176 1117h185l-176 -1112q-27 -169 -128.5 -260t-265.5 -91q-98 0 -188 29zM477 1575h-127l248 280h215l162 -280h-119l-162 182z" />
    <glyph glyph-name="jcircumflex" unicode="&#x135;" horiz-adv-x="460" 
d="M-260 -457l6 152h21l32 -21q30 -18 70 -18q123 0 145 147l191 1209h164l-189 -1192q-26 -161 -101 -236.5t-208 -75.5q-69 0 -131 35zM115 1153h-127l248 281h215l161 -281h-118l-162 182z" />
    <glyph glyph-name="uni0136" unicode="&#x136;" horiz-adv-x="1153" 
d="M215 0h-184l227 1434h184l-110 -699l639 699h225l-672 -715l475 -719h-206l-465 707zM309 -590l-8 39q104 61 127 170q-34 0 -66 33q-32 34 -32 80q0 51 32.5 86t81.5 35q51 0 85 -36t34 -87q0 -103 -74 -186q-72 -81 -180 -134z" />
    <glyph glyph-name="uni0137" unicode="&#x137;" horiz-adv-x="927" 
d="M180 0h-164l236 1475h164l-148 -928l465 465h197l-496 -488l324 -524h-174l-320 518zM176 -590l-8 39q104 61 127 170q-35 0 -66 33q-32 34 -32 80q0 51 32.5 86t81.5 35q51 0 85 -36t34 -87q0 -103 -74 -186q-72 -81 -180 -134z" />
    <glyph glyph-name="kgreenlandic" unicode="&#x138;" horiz-adv-x="927" 
d="M180 0h-164l162 1012h164l-74 -465l465 465h197l-496 -488l324 -524h-174l-320 518z" />
    <glyph glyph-name="Lacute" unicode="&#x139;" horiz-adv-x="1138" 
d="M952 0h-921l227 1434h184l-202 -1278h737zM412 1575h-144l232 280h245z" />
    <glyph glyph-name="lacute" unicode="&#x13a;" horiz-adv-x="425" 
d="M180 0h-164l236 1475h164zM362 1575h-143l232 280h245z" />
    <glyph glyph-name="uni013B" unicode="&#x13b;" horiz-adv-x="1138" 
d="M952 0h-921l227 1434h184l-202 -1278h737zM283 -590l-9 39q104 61 127 170q-35 0 -66 33q-32 34 -32 80q0 51 33 86t82 35q51 0 85 -36t34 -87q0 -103 -74 -186q-72 -81 -180 -134z" />
    <glyph glyph-name="uni013C" unicode="&#x13c;" horiz-adv-x="425" 
d="M-74 -590l-8 39q104 61 127 170q-35 0 -66 33q-32 34 -32 80q0 51 32.5 86t81.5 35q51 0 85 -36t34 -87q0 -103 -74 -186q-72 -81 -180 -134zM180 0h-164l236 1475h164z" />
    <glyph glyph-name="Lcaron" unicode="&#x13d;" horiz-adv-x="1138" 
d="M952 0h-921l227 1434h184l-202 -1278h737zM844 1018l-31 33q114 81 131 170q-34 0 -69 32q-33 33 -33 80q0 51 32.5 86t81.5 35q51 0 85 -36t34 -87q0 -169 -231 -313z" />
    <glyph glyph-name="lcaron" unicode="&#x13e;" horiz-adv-x="745" 
d="M193 0h-164l235 1475h164zM575 1018l-30 33q114 81 131 170q-34 0 -69 33q-34 33 -34 79q0 51 33 86t82 35q51 0 85 -36t34 -87q0 -169 -232 -313z" />
    <glyph glyph-name="Ldot" unicode="&#x13f;" horiz-adv-x="1138" 
d="M952 0h-921l227 1434h184l-202 -1278h737zM696 729q0 50 34 84q35 35 81 35q49 0 84 -35t35 -84q0 -46 -35 -81q-34 -34 -84 -34q-47 0 -81 34t-34 81z" />
    <glyph glyph-name="ldot" unicode="&#x140;" horiz-adv-x="692" 
d="M193 0h-164l235 1475h164zM455 729q0 49 33 84q35 35 81 35q49 0 84 -35t35 -84q0 -46 -35 -81q-34 -34 -84 -34q-47 0 -81 34q-33 34 -33 81z" />
    <glyph glyph-name="Lslash" unicode="&#x141;" horiz-adv-x="1138" 
d="M92 395l-172 -92l31 178l170 90l137 863h184l-120 -754l397 211l-31 -178l-393 -211l-55 -346h737l-25 -156h-921z" />
    <glyph glyph-name="lslash" unicode="&#x142;" horiz-adv-x="550" 
d="M147 475l-174 -92l31 178l172 92l131 822h164l-117 -727l209 112l-31 -178l-206 -111l-90 -571h-164z" />
    <glyph glyph-name="Nacute" unicode="&#x143;" horiz-adv-x="1384" 
d="M215 0h-184l227 1434h70l680 -1022l161 1022h185l-228 -1434h-69l-680 1024zM801 1575h-144l232 280h246z" />
    <glyph glyph-name="nacute" unicode="&#x144;" horiz-adv-x="1116" 
d="M180 0h-164l162 1012h164l-25 -152q70 83 163.5 131.5t191.5 48.5q148 0 236 -85q89 -84 89 -226q0 -31 -6 -65l-104 -664h-164l102 639q4 25 4 49q0 95 -59 150t-158 55q-128 0 -225 -96q-97 -95 -119 -246zM645 1153h-143l231 281h246z" />
    <glyph glyph-name="uni0145" unicode="&#x145;" horiz-adv-x="1384" 
d="M215 0h-184l227 1434h70l680 -1022l161 1022h185l-228 -1434h-69l-680 1024zM446 -590l-8 39q104 61 127 170q-35 0 -66 33q-32 34 -32 80q0 51 33 86t82 35q51 0 84.5 -35.5t33.5 -87.5q0 -103 -74 -186q-72 -81 -180 -134z" />
    <glyph glyph-name="uni0146" unicode="&#x146;" horiz-adv-x="1118" 
d="M180 0h-164l162 1012h164l-25 -152q70 83 163.5 131.5t191.5 48.5q148 0 236 -85q89 -84 89 -226q0 -31 -6 -65l-104 -664h-164l102 639q4 25 4 49q0 95 -59 150t-158 55q-128 0 -225 -96q-97 -95 -119 -246zM293 -590l-8 39q104 61 127 170q-34 0 -67 34q-32 34 -32 79
q0 51 33 86t82 35q51 0 85 -36t34 -87q0 -103 -74 -186q-72 -81 -180 -134z" />
    <glyph glyph-name="Ncaron" unicode="&#x147;" horiz-adv-x="1384" 
d="M215 0h-184l227 1434h70l680 -1022l161 1022h185l-228 -1434h-69l-680 1024zM686 1575l-162 280h119l162 -182l217 182h127l-248 -280h-215z" />
    <glyph glyph-name="ncaron" unicode="&#x148;" horiz-adv-x="1118" 
d="M180 0h-164l162 1012h164l-25 -152q70 83 163.5 131.5t191.5 48.5q148 0 236 -85q89 -84 89 -226q0 -31 -6 -65l-104 -664h-164l102 639q4 25 4 49q0 95 -59 150t-158 55q-128 0 -225 -96q-97 -95 -119 -246zM537 1153l-162 281h119l161 -183l217 183h127l-247 -281h-215
z" />
    <glyph glyph-name="napostrophe" unicode="&#x149;" horiz-adv-x="1294" 
d="M125 1018l-31 33q114 81 131 170q-34 0 -69 32q-33 33 -33 80q0 51 33 86t82 35q51 0 84.5 -35.5t33.5 -87.5q0 -169 -231 -313zM356 0h-163l161 1012h164l-24 -152q70 84 163 132t191 48q148 0 236 -85q90 -84 90 -226q0 -27 -7 -65l-104 -664h-164l102 639q5 38 5 49
q0 94 -60 150q-59 55 -158 55q-128 0 -225 -96q-97 -95 -119 -246z" />
    <glyph glyph-name="Eng" unicode="&#x14a;" horiz-adv-x="1384" 
d="M215 0h-184l227 1434h70l659 -1147l182 1147h185l-250 -1575q-27 -169 -128 -260t-265 -91q-99 0 -189 29l10 176h27q83 -49 162 -49q173 0 199 191l20 145l-571 971z" />
    <glyph glyph-name="eng" unicode="&#x14b;" horiz-adv-x="1118" 
d="M180 0h-164l162 1012h164l-25 -152q70 83 163.5 131.5t191.5 48.5q145 0 235 -84q90 -83 90 -227q0 -27 -6 -65l-133 -844q-26 -161 -101 -236.5t-208 -75.5q-69 0 -131 35l6 152h20q32 -22 53 -30.5t50 -8.5q123 0 145 147l133 836q4 28 4 47q0 96 -59 151.5t-158 55.5
q-128 0 -225 -96q-97 -95 -119 -246z" />
    <glyph glyph-name="Omacron" unicode="&#x14c;" horiz-adv-x="1636" 
d="M78 641q0 263 147 473q72 103 169 181q98 80 225.5 123.5t267.5 43.5q134 0 257.5 -49.5t214.5 -137.5q92 -88 144.5 -211t52.5 -259q0 -258 -139 -472q-68 -105 -165 -187q-98 -83 -230 -129t-279 -46q-131 0 -253 51t-213 139q-89 88 -145 213q-54 126 -54 267z
M262 647q0 -113 41 -212.5t111 -167.5q69 -66 159.5 -103t186.5 -37q131 0 247.5 53.5t195.5 145.5q80 92 124.5 213t44.5 252q0 113 -40.5 211.5t-110.5 164.5q-69 66 -160.5 103t-190.5 37q-167 0 -309 -92q-141 -93 -220 -243q-79 -151 -79 -325zM1167 1630h-471l23 131
h471z" />
    <glyph glyph-name="omacron" unicode="&#x14d;" horiz-adv-x="1218" 
d="M51 446q0 110 41 215.5t116 190.5q77 87 191 137.5t244 50.5q129 3 239.5 -55.5t176 -166.5t63.5 -240q0 -165 -77 -305q-76 -137 -213 -220q-136 -82 -304 -82q-121 0 -231 59q-108 59 -178 170q-68 112 -68 246zM215 453q0 -144 95 -239q97 -95 235 -95q114 -2 211 60
t151 164.5t51 217.5q0 152 -94 242q-93 90 -235 90q-184 0 -299 -127t-115 -313zM909 1208h-471l23 131h471z" />
    <glyph glyph-name="Obreve" unicode="&#x14e;" horiz-adv-x="1636" 
d="M78 641q0 263 147 473q72 103 169 181q98 80 225.5 123.5t267.5 43.5q134 0 257.5 -49.5t214.5 -137.5q92 -88 144.5 -211t52.5 -259q0 -258 -139 -472q-68 -105 -165 -187q-98 -83 -230 -129t-279 -46q-131 0 -253 51t-213 139q-89 88 -145 213q-54 126 -54 267z
M262 647q0 -113 41 -212.5t111 -167.5q69 -66 159.5 -103t186.5 -37q131 0 247.5 53.5t195.5 145.5q80 92 124.5 213t44.5 252q0 113 -40.5 211.5t-110.5 164.5q-69 66 -160.5 103t-190.5 37q-167 0 -309 -92q-141 -93 -220 -243q-79 -151 -79 -325zM692 1774q0 16 4 41h127
q-2 -16 -2 -35q0 -46 26 -73.5t71 -27.5q53 0 87.5 37t43.5 99h127q-18 -111 -88 -174.5t-185 -63.5q-89 0 -150 55t-61 142z" />
    <glyph glyph-name="obreve" unicode="&#x14f;" horiz-adv-x="1218" 
d="M51 446q0 110 41 215.5t116 190.5q77 87 191 137.5t244 50.5q129 3 239.5 -55.5t176 -166.5t63.5 -240q0 -165 -77 -305q-76 -137 -213 -220q-136 -82 -304 -82q-121 0 -231 59q-108 59 -178 170q-68 112 -68 246zM215 453q0 -144 95 -239q97 -95 235 -95q114 -2 211 60
t151 164.5t51 217.5q0 152 -94 242q-93 90 -235 90q-184 0 -299 -127t-115 -313zM442 1352q0 16 4 41h127q-2 -16 -2 -35q0 -46 26 -73.5t71 -27.5q53 0 87.5 37t43.5 99h127q-18 -111 -88 -174.5t-185 -63.5q-89 0 -150 55t-61 142z" />
    <glyph glyph-name="Ohungarumlaut" unicode="&#x150;" horiz-adv-x="1636" 
d="M78 641q0 263 147 473q72 103 169 181q98 80 225.5 123.5t267.5 43.5q134 0 257.5 -49.5t214.5 -137.5q92 -88 144.5 -211t52.5 -259q0 -258 -139 -472q-68 -105 -165 -187q-98 -83 -230 -129t-279 -46q-131 0 -253 51t-213 139q-89 88 -145 213q-54 126 -54 267z
M262 647q0 -113 41 -212.5t111 -167.5q69 -66 159.5 -103t186.5 -37q131 0 247.5 53.5t195.5 145.5q80 92 124.5 213t44.5 252q0 113 -40.5 211.5t-110.5 164.5q-69 66 -160.5 103t-190.5 37q-167 0 -309 -92q-141 -93 -220 -243q-79 -151 -79 -325zM729 1575h-143l231 280
h246zM1081 1575h-143l231 280h246z" />
    <glyph glyph-name="ohungarumlaut" unicode="&#x151;" horiz-adv-x="1218" 
d="M51 446q0 110 41 215.5t116 190.5q77 87 191 137.5t244 50.5q129 3 239.5 -55.5t176 -166.5t63.5 -240q0 -165 -77 -305q-76 -137 -213 -220q-136 -82 -304 -82q-121 0 -231 59q-108 59 -178 170q-68 112 -68 246zM215 453q0 -144 95 -239q97 -95 235 -95q114 -2 211 60
t151 164.5t51 217.5q0 152 -94 242q-93 90 -235 90q-184 0 -299 -127t-115 -313zM500 1153h-144l232 281h246zM852 1153h-143l231 281h246z" />
    <glyph glyph-name="OE" unicode="&#x152;" horiz-adv-x="2287" 
d="M84 641q0 263 147 473q72 103 169 181q98 80 225.5 123.5t267.5 43.5q169 0 317 -77t240 -209l41 258h819l-24 -156h-635l-74 -463h612l-24 -156h-613l-79 -503h643l-25 -156h-827l26 174q-224 -203 -540 -203q-132 0 -253 51q-122 51 -213 139q-90 87 -146 213
q-54 126 -54 267zM268 647q0 -113 41 -212.5t111 -167.5q69 -66 159.5 -103t186.5 -37q131 0 247.5 53.5t195.5 145.5q80 92 124.5 213t44.5 252q0 113 -40 211.5t-110 164.5q-70 67 -161 103.5t-190 36.5q-126 0 -240 -54q-116 -55 -194 -145q-81 -91 -128 -211
q-47 -121 -47 -250z" />
    <glyph glyph-name="oe" unicode="&#x153;" horiz-adv-x="2060" 
d="M51 446q0 110 41 215.5t116 190.5q77 87 191 137.5t244 50.5q137 0 249 -64q113 -63 173 -173q79 111 198.5 174t262.5 63q188 0 310 -119t122 -303q0 -50 -8 -96l-11 -55h-819v-18q0 -77 26 -142t70 -106q93 -82 209 -82q107 0 199 36q93 38 205 128h16l-35 -179
q-91 -69 -186.5 -101t-212.5 -32q-124 0 -234 65q-107 64 -169 179q-80 -113 -206 -179q-125 -65 -274 -65q-121 0 -231 59q-108 59 -178 170q-68 112 -68 246zM215 453q0 -144 95 -239q97 -95 235 -95q118 0 212 61q95 60 147 160.5t52 220.5q0 152 -93 242q-91 90 -234 90
q-184 0 -299 -127t-115 -313zM1141 598h671q0 142 -84 224q-83 83 -217 83q-135 0 -233 -86q-96 -84 -137 -221z" />
    <glyph glyph-name="Racute" unicode="&#x154;" horiz-adv-x="1132" 
d="M215 0h-184l227 1434h379q119 0 214 -42q96 -42 152 -128t56 -201q0 -146 -106 -264t-263 -152l289 -647h-193l-280 631h-191zM418 1278l-78 -492h199q89 0 163 31q78 33 125 96.5t47 143.5q0 221 -258 221h-198zM633 1575h-144l232 280h246z" />
    <glyph glyph-name="racute" unicode="&#x155;" horiz-adv-x="808" 
d="M180 0h-164l162 1012h164l-25 -148q55 85 137.5 130.5t170.5 45.5q92 0 157 -47l-16 -166h-18q-63 66 -162 66q-103 0 -197 -85q-95 -86 -117 -230zM451 1153h-144l232 281h245z" />
    <glyph glyph-name="uni0156" unicode="&#x156;" horiz-adv-x="1132" 
d="M215 0h-184l227 1434h379q119 0 214 -42q96 -42 152 -128t56 -201q0 -146 -106 -264t-263 -152l289 -647h-193l-280 631h-191zM319 -590l-8 39q104 61 127 170q-34 0 -66 33q-32 34 -32 80q0 51 33 86t82 35q51 0 84.5 -35.5t33.5 -87.5q0 -103 -74 -186
q-72 -81 -180 -134zM418 1278l-78 -492h199q89 0 163 31q78 33 125 96.5t47 143.5q0 221 -258 221h-198z" />
    <glyph glyph-name="uni0157" unicode="&#x157;" horiz-adv-x="808" 
d="M-68 -590l-8 39q104 61 127 170q-35 0 -66 33q-32 34 -32 80q0 51 33 86t82 35q51 0 84.5 -35.5t33.5 -87.5q0 -103 -74 -186q-72 -81 -180 -134zM180 0h-164l162 1012h164l-25 -148q55 85 137.5 130.5t170.5 45.5q92 0 157 -47l-16 -166h-18q-63 66 -162 66
q-103 0 -197 -85q-95 -86 -117 -230z" />
    <glyph glyph-name="Rcaron" unicode="&#x158;" horiz-adv-x="1132" 
d="M215 0h-184l227 1434h379q119 0 214 -42q96 -42 152 -128t56 -201q0 -146 -106 -264t-263 -152l289 -647h-193l-280 631h-191zM418 1278l-78 -492h199q89 0 163 31q78 33 125 96.5t47 143.5q0 221 -258 221h-198zM516 1575l-162 280h119l162 -182l217 182h127l-248 -280
h-215z" />
    <glyph glyph-name="rcaron" unicode="&#x159;" horiz-adv-x="808" 
d="M180 0h-164l162 1012h164l-25 -148q55 85 137.5 130.5t170.5 45.5q92 0 157 -47l-16 -166h-18q-63 66 -162 66q-103 0 -197 -85q-95 -86 -117 -230zM391 1153l-162 281h119l162 -183l217 183h127l-248 -281h-215z" />
    <glyph glyph-name="Sacute" unicode="&#x15a;" horiz-adv-x="1046" 
d="M33 135l45 205h20q50 -87 146 -150q98 -63 192 -63q134 0 222 79q90 80 90 204q0 173 -248 286q-126 58 -216 148q-96 101 -96 229q0 170 128 280q128 109 315 109q188 0 336 -114l-23 -187h-26q-74 82 -145.5 118t-154.5 36q-104 0 -181 -61q-77 -62 -77 -162
q0 -82 61.5 -145.5t190.5 -125.5q320 -153 320 -391q0 -198 -147 -329q-145 -130 -363 -130q-127 0 -232 47q-103 48 -157 117zM651 1575h-143l231 280h246z" />
    <glyph glyph-name="sacute" unicode="&#x15b;" horiz-adv-x="866" 
d="M4 80l64 156h12q124 -117 262 -117q52 0 100 17q50 18 82.5 58.5t32.5 94.5q0 69 -58 107q-30 20 -61 34q-37 17 -88 35q-112 41 -174.5 111t-62.5 167q0 133 106 215t264 82q143 0 262 -77l-18 -156h-14q-60 52 -118.5 75t-133.5 23q-73 0 -137 -38q-62 -38 -62 -109
q0 -60 48 -99.5t159 -80.5q129 -47 192.5 -113t63.5 -162q0 -146 -111 -239q-110 -93 -280 -93q-182 0 -330 109zM500 1153h-144l232 281h246z" />
    <glyph glyph-name="Scircumflex" unicode="&#x15c;" horiz-adv-x="1046" 
d="M33 135l45 205h20q50 -87 146 -150q98 -63 192 -63q134 0 222 79q90 80 90 204q0 173 -248 286q-126 58 -216 148q-96 101 -96 229q0 170 128 280q128 109 315 109q188 0 336 -114l-23 -187h-26q-74 82 -145.5 118t-154.5 36q-104 0 -181 -61q-77 -62 -77 -162
q0 -82 61.5 -145.5t190.5 -125.5q320 -153 320 -391q0 -198 -147 -329q-145 -130 -363 -130q-127 0 -232 47q-103 48 -157 117zM471 1575h-127l248 280h215l162 -280h-119l-162 182z" />
    <glyph glyph-name="scircumflex" unicode="&#x15d;" horiz-adv-x="866" 
d="M4 80l64 156h12q124 -117 262 -117q52 0 100 17q50 18 82.5 58.5t32.5 94.5q0 69 -58 107q-30 20 -61 34q-37 17 -88 35q-112 41 -174.5 111t-62.5 167q0 133 106 215t264 82q143 0 262 -77l-18 -156h-14q-60 52 -118.5 75t-133.5 23q-73 0 -137 -38q-62 -38 -62 -109
q0 -60 48 -99.5t159 -80.5q129 -47 192.5 -113t63.5 -162q0 -146 -111 -239q-110 -93 -280 -93q-182 0 -330 109zM295 1153h-127l248 281h215l162 -281h-119l-162 182z" />
    <glyph glyph-name="Scedilla" unicode="&#x15e;" horiz-adv-x="1046" 
d="M33 135l45 205h20q50 -87 146 -150q98 -63 192 -63q132 0 219 78q88 79 88 205q0 176 -243 286q-126 58 -216 148q-96 101 -96 229q0 170 128 280q128 109 315 109q188 0 336 -114l-23 -187h-26q-74 82 -145.5 118t-154.5 36q-104 0 -181 -61q-77 -62 -77 -162
q0 -82 61.5 -145.5t190.5 -125.5q320 -153 320 -391q0 -196 -142 -325q-142 -130 -354 -134l-78 -98q64 23 111 23q72 0 115 -45t43 -117q0 -102 -81 -164q-80 -62 -202 -62q-100 0 -168 33v103l17 6q72 -45 143 -45q55 0 98 29q43 28 43 81q0 97 -108 97q-51 0 -123 -29
l-8 12l108 182q-102 17 -186.5 60t-126.5 98z" />
    <glyph glyph-name="scedilla" unicode="&#x15f;" horiz-adv-x="866" 
d="M4 80l64 156h12q124 -117 262 -117q52 0 100 17q50 18 82.5 58.5t32.5 94.5q0 69 -58 107q-30 20 -61 34q-37 17 -88 35q-112 41 -174.5 111t-62.5 167q0 133 106 215t264 82q143 0 262 -77l-18 -156h-14q-60 52 -118.5 75t-133.5 23q-73 0 -137 -38q-62 -38 -62 -109
q0 -60 48 -99.5t159 -80.5q129 -47 192.5 -113t63.5 -162q0 -140 -106 -233q-105 -93 -267 -99l-78 -98q64 23 111 23q72 0 115 -45t43 -117q0 -102 -81 -164q-80 -62 -202 -62q-100 0 -168 33v103l17 6q72 -45 143 -45q55 0 98 29q43 28 43 81q0 97 -108 97q-51 0 -123 -29
l-8 12l108 180q-142 19 -258 105z" />
    <glyph glyph-name="Scaron" unicode="&#x160;" horiz-adv-x="1046" 
d="M33 135l45 205h20q50 -87 146 -150q98 -63 192 -63q134 0 222 79q90 80 90 204q0 173 -248 286q-126 58 -216 148q-96 101 -96 229q0 170 128 280q128 109 315 109q188 0 336 -114l-23 -187h-26q-74 82 -145.5 118t-154.5 36q-104 0 -181 -61q-77 -62 -77 -162
q0 -82 61.5 -145.5t190.5 -125.5q320 -153 320 -391q0 -198 -147 -329q-145 -130 -363 -130q-127 0 -232 47q-103 48 -157 117zM555 1575l-162 280h119l162 -182l217 182h127l-248 -280h-215z" />
    <glyph glyph-name="scaron" unicode="&#x161;" horiz-adv-x="866" 
d="M4 80l64 156h12q124 -117 262 -117q52 0 100 17q50 18 82.5 58.5t32.5 94.5q0 69 -58 107q-30 20 -61 34q-37 17 -88 35q-112 41 -174.5 111t-62.5 167q0 133 106 215t264 82q143 0 262 -77l-18 -156h-14q-60 52 -118.5 75t-133.5 23q-73 0 -137 -38q-62 -38 -62 -109
q0 -60 48 -99.5t159 -80.5q129 -47 192.5 -113t63.5 -162q0 -146 -111 -239q-110 -93 -280 -93q-182 0 -330 109zM383 1153l-162 281h119l162 -183l217 183h127l-248 -281h-215z" />
    <glyph glyph-name="uni0162" unicode="&#x162;" horiz-adv-x="1101" 
d="M547 1278h-377l25 156h938l-25 -156h-377l-203 -1278h-184zM264 -590l-8 39q104 61 127 170q-35 0 -66 33q-32 34 -32 80q0 51 32.5 86t81.5 35q51 0 85 -36t34 -87q0 -103 -74 -186q-72 -81 -180 -134z" />
    <glyph glyph-name="uni0163" unicode="&#x163;" horiz-adv-x="763" 
d="M252 864h-195l23 148h194l35 213l176 78l-47 -291h289l-22 -148h-289l-99 -604q-2 -16 -2 -33q0 -53 31.5 -80.5t81.5 -27.5q76 0 162 57h18l-37 -153q-56 -31 -94 -40q-42 -12 -104 -12q-94 0 -158 61q-63 62 -63 169q0 36 4 57zM156 -590l-9 39q104 61 127 170
q-34 0 -66 33q-32 34 -32 80q0 51 33 86t82 35q51 0 85 -36t34 -87q0 -103 -74 -186q-72 -81 -180 -134z" />
    <glyph glyph-name="Tcaron" unicode="&#x164;" horiz-adv-x="1101" 
d="M547 1278h-377l25 156h938l-25 -156h-377l-203 -1278h-184zM578 1575l-162 280h119l161 -182l217 182h127l-247 -280h-215z" />
    <glyph glyph-name="tcaron" unicode="&#x165;" horiz-adv-x="997" 
d="M252 864h-195l23 148h194l35 213l176 78l-47 -291h289l-22 -148h-289l-99 -604q-2 -16 -2 -33q0 -53 31.5 -80.5t81.5 -27.5q76 0 162 57h18l-37 -153q-56 -31 -94 -40q-42 -12 -104 -12q-94 0 -158 61q-63 62 -63 169q0 36 4 57zM827 1018l-30 33q114 81 131 170
q-34 0 -69 33q-34 33 -34 79q0 51 33 86t82 35q51 0 85 -36t34 -87q0 -169 -232 -313z" />
    <glyph glyph-name="Tbar" unicode="&#x166;" horiz-adv-x="1101" 
d="M549 1278h-377l25 156h938l-25 -156h-377l-63 -389h295l-23 -131h-293l-119 -758h-184l119 758h-289l23 131h286z" />
    <glyph glyph-name="tbar" unicode="&#x167;" horiz-adv-x="763" 
d="M188 467h-161l18 119h162l45 278h-195l23 148h194l35 213l176 78l-47 -291h289l-22 -148h-289l-45 -278h280l-18 -119h-281l-30 -207q-3 -18 -3 -33q0 -53 30 -80.5t79 -27.5q76 0 162 57h18l-37 -153q-56 -31 -94 -40q-42 -12 -104 -12q-94 0 -158 61q-63 62 -63 169
q0 36 4 57z" />
    <glyph glyph-name="Utilde" unicode="&#x168;" horiz-adv-x="1306" 
d="M86 418q0 54 10 123l140 893h184l-148 -930q-8 -56 -8 -90q0 -146 82 -216q83 -71 207 -71q159 0 272 101t140 276l147 930h184l-141 -899q-42 -267 -201 -415q-160 -149 -419 -149q-206 0 -328 120q-121 121 -121 327zM442 1602h-10l39 147q94 86 199 86q80 0 167 -59
q91 -58 154 -58q83 0 189 99h10l-39 -148q-48 -47 -93 -66.5t-102 -19.5q-80 0 -171 58q-90 59 -154 59q-82 0 -189 -98z" />
    <glyph glyph-name="utilde" unicode="&#x169;" 
d="M57 295q0 31 6 74l103 643h164l-105 -637q-4 -32 -4 -53q0 -95 62 -149q63 -54 155 -54q130 0 224 87t120 243l90 563h164l-162 -1012h-163l24 152q-68 -90 -149 -136q-79 -45 -199 -45q-124 0 -224 81q-49 40 -77.5 103.5t-28.5 139.5zM272 1180h-10l39 147
q94 86 199 86q80 0 167 -59q91 -58 154 -58q83 0 189 99h10l-39 -148q-48 -47 -93 -66.5t-102 -19.5q-80 0 -171 58q-90 59 -154 59q-82 0 -189 -98z" />
    <glyph glyph-name="Umacron" unicode="&#x16a;" horiz-adv-x="1306" 
d="M86 418q0 54 10 123l140 893h184l-148 -930q-8 -56 -8 -90q0 -146 82 -216q83 -71 207 -71q159 0 272 101t140 276l147 930h184l-141 -899q-42 -267 -201 -415q-160 -149 -419 -149q-206 0 -328 120q-121 121 -121 327zM1024 1630h-471l22 131h472z" />
    <glyph glyph-name="umacron" unicode="&#x16b;" 
d="M57 295q0 31 6 74l103 643h164l-105 -637q-4 -32 -4 -53q0 -95 62 -149q63 -54 155 -54q130 0 224 87t120 243l90 563h164l-162 -1012h-163l24 152q-68 -90 -149 -136q-79 -45 -199 -45q-124 0 -224 81q-49 40 -77.5 103.5t-28.5 139.5zM868 1208h-471l23 131h471z" />
    <glyph glyph-name="Ubreve" unicode="&#x16c;" horiz-adv-x="1306" 
d="M86 418q0 54 10 123l140 893h184l-148 -930q-8 -56 -8 -90q0 -146 82 -216q83 -71 207 -71q159 0 272 101t140 276l147 930h184l-141 -899q-42 -267 -201 -415q-160 -149 -419 -149q-206 0 -328 120q-121 121 -121 327zM569 1774q0 16 4 41h127q-2 -16 -2 -35
q0 -46 26 -73.5t71 -27.5q53 0 87.5 37t43.5 99h127q-18 -111 -88 -174.5t-185 -63.5q-89 0 -150 55t-61 142z" />
    <glyph glyph-name="ubreve" unicode="&#x16d;" 
d="M57 295q0 31 6 74l103 643h164l-105 -637q-4 -32 -4 -53q0 -95 62 -149q63 -54 155 -54q130 0 224 87t120 243l90 563h164l-162 -1012h-163l24 152q-68 -90 -149 -136q-79 -45 -199 -45q-124 0 -224 81q-49 40 -77.5 103.5t-28.5 139.5zM401 1352q0 3 5 41h126
q-2 -16 -2 -35q0 -46 26 -73.5t71 -27.5q53 0 87.5 37t43.5 99h127q-18 -111 -88 -174.5t-185 -63.5q-89 0 -150 55t-61 142z" />
    <glyph glyph-name="Uring" unicode="&#x16e;" horiz-adv-x="1306" 
d="M86 418q0 54 10 123l140 893h184l-148 -930q-8 -56 -8 -90q0 -146 82 -216q83 -71 207 -71q159 0 272 101t140 276l147 930h184l-141 -899q-42 -267 -201 -415q-160 -149 -419 -149q-206 0 -328 120q-121 121 -121 327zM669 1596q-61 60 -61 147t61 147t150 60t150 -60
t61 -147t-61 -147t-150 -60t-150 60zM726 1834q-36 -38 -36 -91q0 -55 36 -92t93 -37t93 37t36 92q0 53 -36 91t-93 38t-93 -38z" />
    <glyph glyph-name="uring" unicode="&#x16f;" 
d="M57 295q0 31 6 74l103 643h164l-105 -637q-4 -32 -4 -53q0 -95 62 -149q63 -54 155 -54q130 0 224 87t120 243l90 563h164l-162 -1012h-163l24 152q-68 -90 -149 -136q-79 -45 -199 -45q-124 0 -224 81q-49 40 -77.5 103.5t-28.5 139.5zM485 1174q-61 60 -61 147t61 147
t150 60t150 -60t61 -147t-61 -147t-150 -60t-150 60zM542 1412q-36 -38 -36 -91q0 -55 36 -92t93 -37t93 37t36 92q0 53 -36 91t-93 38t-93 -38z" />
    <glyph glyph-name="Uhungarumlaut" unicode="&#x170;" horiz-adv-x="1306" 
d="M86 418q0 54 10 123l140 893h184l-148 -930q-8 -56 -8 -90q0 -146 82 -216q83 -71 207 -71q159 0 272 101t140 276l147 930h184l-141 -899q-42 -267 -201 -415q-160 -149 -419 -149q-206 0 -328 120q-121 121 -121 327zM586 1575h-144l232 280h246zM938 1575h-143
l231 280h246z" />
    <glyph glyph-name="uhungarumlaut" unicode="&#x171;" 
d="M57 295q0 31 6 74l103 643h164l-105 -637q-4 -32 -4 -53q0 -95 62 -149q63 -54 155 -54q130 0 224 87t120 243l90 563h164l-162 -1012h-163l24 152q-68 -90 -149 -136q-79 -45 -199 -45q-124 0 -224 81q-49 40 -77.5 103.5t-28.5 139.5zM408 1153h-144l232 281h245z
M760 1153h-144l232 281h246z" />
    <glyph glyph-name="Uogonek" unicode="&#x172;" horiz-adv-x="1306" 
d="M86 418q0 54 10 123l140 893h184l-148 -930q-8 -56 -8 -90q0 -146 82 -216q83 -71 207 -71q159 0 272 101t140 276l147 930h184l-141 -899q-33 -208 -139 -346t-275 -189q-70 -52 -124 -109q-68 -76 -68 -159q0 -55 38.5 -88t94.5 -33q96 0 166 49l14 -6l-35 -107
q-51 -22 -89 -30q-38 -9 -103 -9q-87 0 -152 57q-65 56 -65 148q0 151 162 260q-34 -2 -45 -2q-206 0 -328 120q-121 121 -121 327z" />
    <glyph glyph-name="uogonek" unicode="&#x173;" 
d="M57 295q0 31 6 74l103 643h164l-103 -637q-4 -32 -4 -53q0 -95 61 -149q62 -54 154 -54q130 0 224 87t120 243l90 563h164l-162 -1012q-70 -52 -124 -109q-68 -76 -68 -159q0 -55 38.5 -88t94.5 -33q96 0 166 49l14 -6l-34 -107q-51 -22 -89 -30q-38 -9 -104 -9
q-88 0 -152 57q-65 56 -65 148q0 86 55.5 160.5t151.5 126.5h-47l24 152q-68 -90 -149 -136q-79 -45 -199 -45q-124 0 -224 81q-49 40 -77.5 103.5t-28.5 139.5z" />
    <glyph glyph-name="Wcircumflex" unicode="&#x174;" horiz-adv-x="1933" 
d="M412 0l-252 1434h180l168 -1010l541 1010h57l225 -1006l484 1006h188l-707 -1434h-45l-231 1051l-563 -1051h-45zM907 1575h-127l248 280h215l162 -280h-119l-162 182z" />
    <glyph glyph-name="wcircumflex" unicode="&#x175;" horiz-adv-x="1566" 
d="M358 0l-278 1012h170l176 -676l377 676h49l160 -676l393 676h174l-598 -1012h-45l-154 692l-379 -692h-45zM649 1153h-127l248 281h215l162 -281h-119l-162 182z" />
    <glyph glyph-name="Ycircumflex" unicode="&#x176;" horiz-adv-x="1200" 
d="M494 623l-351 811h191l272 -652l477 652h203l-608 -811l-98 -623h-185zM537 1575h-127l247 280h215l162 -280h-119l-161 182z" />
    <glyph glyph-name="ycircumflex" unicode="&#x177;" horiz-adv-x="1030" 
d="M86 -463h-178l420 658l-275 817h185l198 -654l420 654h172zM369 1153h-127l247 281h216l161 -281h-118l-162 182z" />
    <glyph glyph-name="Ydieresis" unicode="&#x178;" horiz-adv-x="1200" 
d="M494 623l-351 811h191l272 -652l477 652h203l-608 -811l-98 -623h-185zM444 1706q0 45 32 79q33 34 77 34q46 0 79 -34q34 -33 34 -79q0 -44 -34 -77q-34 -32 -79 -32q-43 0 -77 32q-32 34 -32 77zM811 1706q0 45 32 79q33 34 77 34q46 0 79 -34q33 -33 33 -79
q0 -44 -33 -77q-34 -32 -79 -32q-43 0 -77 32q-32 34 -32 77z" />
    <glyph glyph-name="Zacute" unicode="&#x179;" horiz-adv-x="1222" 
d="M1038 0h-1087l4 20l963 1258h-705l25 156h987l-4 -21l-973 -1257h815zM719 1575h-144l232 280h246z" />
    <glyph glyph-name="zacute" unicode="&#x17a;" horiz-adv-x="976" 
d="M772 0h-817l4 20l674 844h-502l25 148h764l-5 -21l-667 -844h549zM535 1153h-144l232 281h245z" />
    <glyph glyph-name="Zdotaccent" unicode="&#x17b;" horiz-adv-x="1222" 
d="M1038 0h-1087l4 20l963 1258h-705l25 156h987l-4 -21l-973 -1257h815zM662 1739q0 47 33 81q33 35 79 35q47 0 82 -35t35 -81q0 -45 -35 -80q-34 -33 -82 -33q-46 0 -79 33q-33 34 -33 80z" />
    <glyph glyph-name="zdotaccent" unicode="&#x17c;" horiz-adv-x="976" 
d="M772 0h-817l4 20l674 844h-502l25 148h764l-5 -21l-667 -844h549zM467 1317q0 47 33 82q35 35 80 35q46 0 81 -35t35 -82q0 -45 -35 -80q-35 -33 -81 -33t-80 33q-33 35 -33 80z" />
    <glyph glyph-name="Zcaron" unicode="&#x17d;" horiz-adv-x="1222" 
d="M1038 0h-1087l4 20l963 1258h-705l25 156h987l-4 -21l-973 -1257h815zM618 1575l-161 280h118l162 -182l217 182h127l-247 -280h-216z" />
    <glyph glyph-name="zcaron" unicode="&#x17e;" horiz-adv-x="976" 
d="M772 0h-817l4 20l674 844h-502l25 148h764l-5 -21l-667 -844h549zM430 1153l-162 281h119l162 -183l217 183h127l-248 -281h-215z" />
    <glyph glyph-name="longs" unicode="&#x17f;" horiz-adv-x="720" 
d="M272 0h-163l137 864h-133l22 148h133l25 151q23 136 110 217q88 82 213 82q88 0 164 -43l-18 -157h-17q-21 24 -56 38.5t-66 14.5q-66 0 -111 -42t-57 -118z" />
    <glyph glyph-name="uni018E" unicode="&#x18e;" horiz-adv-x="1060" 
d="M805 0h-819l24 156h635l74 462h-613l25 156h612l80 504h-643l25 156h827z" />
    <glyph glyph-name="uni018F" unicode="&#x18f;" horiz-adv-x="1159" 
d="M51 393q0 50 8 96l11 56h823v18q0 77 -26.5 142t-72.5 105q-92 83 -210 83q-109 0 -199 -37q-92 -36 -205 -127h-16l35 178q91 69 186.5 101t212.5 32q88 0 171 -34t147 -95q65 -61 103 -153.5t38 -198.5q0 -107 -40.5 -212.5t-113.5 -189.5q-72 -82 -182 -135
q-109 -51 -238 -51q-189 0 -310 118q-122 119 -122 304zM870 414h-673q0 -142 83 -225q85 -83 218 -83q136 0 233 87q98 86 139 221z" />
    <glyph glyph-name="florin" unicode="&#x192;" horiz-adv-x="821" 
d="M-254 -399l25 157h16q53 -53 121 -53q64 0 106 36.5t54 100.5l204 1022h-133l31 148h133l35 174q26 127 107 201q83 75 206 75q100 0 170 -43l-24 -157h-17q-53 53 -121 53q-63 0 -105 -36.5t-54 -100.5l-33 -166h180l-31 -148h-180l-207 -1030q-25 -126 -108 -201
t-205 -75q-100 0 -170 43z" />
    <glyph glyph-name="uni01B5" unicode="&#x1b5;" horiz-adv-x="1222" 
d="M1038 0h-1087l4 20l485 635h-309l23 131h387l377 492h-705l25 156h987l-4 -21l-486 -627h348l-22 -131h-426l-387 -499h815z" />
    <glyph glyph-name="uni01B6" unicode="&#x1b6;" horiz-adv-x="976" 
d="M772 0h-817l4 20l346 435h-211l19 118h286l234 291h-502l25 148h764l-5 -21l-331 -418h233l-18 -118h-310l-241 -308h549z" />
    <glyph glyph-name="Aringacute" unicode="&#x1fa;" horiz-adv-x="1366" 
d="M115 0h-193l811 1374q-64 20 -103.5 74.5t-39.5 122.5q0 87 61 147t150 60t150 -60t61 -147q0 -76 -48 -133q-49 -57 -122 -70l377 -1368h-175l-79 289h-682zM750 1090l-375 -641h547zM708 1662q-36 -38 -36 -91q0 -55 36 -92t93 -37t93 37t36 92q0 53 -36 91t-93 38
t-93 -38zM852 1853h-143l231 281h246z" />
    <glyph glyph-name="aringacute" unicode="&#x1fb;" horiz-adv-x="1269" 
d="M55 436q0 167 74 304q76 138 214 218q139 82 316 82q107 0 198 -46q92 -45 144 -109l21 127h164l-162 -1012h-164l21 127q-146 -156 -369 -156q-123 0 -228 60q-104 62 -167 168q-62 109 -62 237zM219 440q0 -138 89 -230q90 -91 222 -91q178 0 302 135q126 135 126 324
q0 136 -86 225q-86 90 -225 90q-124 0 -225 -65q-98 -63 -150.5 -165t-52.5 -223zM548 1174q-61 60 -61 147t61 147q62 60 150 60t150 -60q61 -60 61 -147t-61 -147q-62 -60 -150 -60t-150 60zM605 1412q-36 -38 -36 -91q0 -55 36 -92t93 -37t93 37t36 92q0 53 -36 91
t-93 38t-93 -38zM764 1604h-143l231 280h246z" />
    <glyph glyph-name="AEacute" unicode="&#x1fc;" horiz-adv-x="1992" 
d="M106 0h-184l848 1434h666l45 -156h-619l129 -463h572l41 -156h-570l142 -503h626l43 -156h-807l-77 289h-685zM745 1090l-372 -641h547zM1022 1575h-143l231 280h246z" />
    <glyph glyph-name="aeacute" unicode="&#x1fd;" horiz-adv-x="1785" 
d="M16 236q0 74 30 135t80.5 102.5t118 70t141.5 41.5t153 13h155q6 40 6 72q0 117 -61 175q-61 60 -145 60q-156 0 -289 -133h-23l35 170q56 41 136 69q82 29 163 29q99 0 189 -51q90 -50 131 -131q167 182 415 182q188 0 310 -119t122 -303q0 -50 -8 -96l-10 -55h-821v-18
q0 -77 26 -142.5t71 -105.5q95 -82 210 -82q108 0 198 36q93 38 205 128h17l-35 -179q-91 -69 -186.5 -101t-212.5 -32q-124 0 -234 65q-108 63 -170 179q-148 -244 -418 -244q-129 0 -214 79t-85 186zM193 248q0 -57 42 -93t109 -36q49 0 99 20t97 60t82.5 109.5
t49.5 158.5q-160 0 -263 -22q-67 -13 -112 -36q-104 -54 -104 -161zM940 1153h-143l231 281h246zM864 598h674q0 142 -84 224q-83 83 -217 83q-135 0 -234 -87q-98 -85 -139 -220z" />
    <glyph glyph-name="circumflex" unicode="&#x2c6;" horiz-adv-x="829" 
d="M207 1153h-127l248 281h215l162 -281h-119l-162 182z" />
    <glyph glyph-name="caron" unicode="&#x2c7;" horiz-adv-x="829" 
d="M266 1153l-162 281h119l162 -183l217 183h127l-248 -281h-215z" />
    <glyph glyph-name="breve" unicode="&#x2d8;" horiz-adv-x="585" 
d="M68 1352q0 16 4 41h127q-2 -16 -2 -35q0 -46 25.5 -73.5t70.5 -27.5q53 0 87.5 37t43.5 99h127q-18 -111 -88 -174.5t-184 -63.5q-89 0 -150 55t-61 142z" />
    <glyph glyph-name="dotaccent" unicode="&#x2d9;" horiz-adv-x="520" 
d="M143 1317q0 47 33 82q35 35 80 35q47 0 82 -35t35 -82q0 -45 -35 -80q-34 -33 -82 -33q-46 0 -80 33q-33 35 -33 80z" />
    <glyph glyph-name="ring" unicode="&#x2da;" horiz-adv-x="995" 
d="M348 1174q-61 60 -61 147t61 147q62 60 150 60t150 -60q61 -60 61 -147t-61 -147q-62 -60 -150 -60t-150 60zM405 1412q-36 -38 -36 -91q0 -55 36 -92t93 -37t93 37t36 92q0 53 -36 91t-93 38t-93 -38z" />
    <glyph glyph-name="ogonek" unicode="&#x2db;" horiz-adv-x="675" 
d="M135 -287q0 102 77 187q79 84 196 131l51 -31q-70 -52 -124 -109q-67 -75 -67 -159q0 -55 37.5 -88t93.5 -33q96 0 166 49l15 -6l-35 -107q-51 -22 -89 -30q-37 -9 -104 -9q-88 0 -152 57q-65 56 -65 148z" />
    <glyph glyph-name="tilde" unicode="&#x2dc;" horiz-adv-x="1075" 
d="M168 1180h-10l39 147q94 86 198 86q78 0 168 -59q91 -58 154 -58q81 0 188 99h10l-38 -148q-48 -47 -93 -66.5t-102 -19.5q-80 0 -171 58q-90 59 -155 59q-81 0 -188 -98z" />
    <glyph glyph-name="hungarumlaut" unicode="&#x2dd;" horiz-adv-x="1019" 
d="M236 1153h-144l232 281h245zM588 1153h-144l232 281h246z" />
    <glyph glyph-name="pi" unicode="&#x3c0;" horiz-adv-x="1193" 
d="M221 868h-174l23 144h1149l-23 -144h-174l-139 -868h-164l139 868h-473l-139 -868h-164z" />
    <glyph glyph-name="uni2000" unicode="&#x2000;" horiz-adv-x="1067" 
 />
    <glyph glyph-name="uni2001" unicode="&#x2001;" horiz-adv-x="2134" 
 />
    <glyph glyph-name="uni2002" unicode="&#x2002;" horiz-adv-x="1067" 
 />
    <glyph glyph-name="uni2003" unicode="&#x2003;" horiz-adv-x="2134" 
 />
    <glyph glyph-name="uni2004" unicode="&#x2004;" horiz-adv-x="711" 
 />
    <glyph glyph-name="uni2005" unicode="&#x2005;" horiz-adv-x="533" 
 />
    <glyph glyph-name="uni2006" unicode="&#x2006;" horiz-adv-x="355" 
 />
    <glyph glyph-name="uni2007" unicode="&#x2007;" horiz-adv-x="355" 
 />
    <glyph glyph-name="uni2008" unicode="&#x2008;" horiz-adv-x="266" 
 />
    <glyph glyph-name="uni2009" unicode="&#x2009;" horiz-adv-x="426" 
 />
    <glyph glyph-name="uni200A" unicode="&#x200a;" horiz-adv-x="118" 
 />
    <glyph glyph-name="uni2010" unicode="&#x2010;" horiz-adv-x="802" 
d="M694 582h-631l23 135h631z" />
    <glyph glyph-name="uni2011" unicode="&#x2011;" horiz-adv-x="802" 
d="M694 582h-631l23 135h631z" />
    <glyph glyph-name="figuredash" unicode="&#x2012;" horiz-adv-x="802" 
d="M694 582h-631l23 135h631z" />
    <glyph glyph-name="endash" unicode="&#x2013;" horiz-adv-x="1110" 
d="M1001 582h-938l23 135h938z" />
    <glyph glyph-name="emdash" unicode="&#x2014;" horiz-adv-x="1785" 
d="M1677 582h-1614l23 135h1614z" />
    <glyph glyph-name="quoteleft" unicode="&#x2018;" horiz-adv-x="397" 
d="M156 1141q0 169 231 313l31 -33q-114 -81 -131 -170q35 0 68 -33q34 -31 34 -79q0 -51 -33 -86t-82 -35q-51 0 -84.5 35.5t-33.5 87.5z" />
    <glyph glyph-name="quoteright" unicode="&#x2019;" horiz-adv-x="397" 
d="M186 1018l-30 33q114 81 131 170q-35 0 -69 33t-34 79q0 51 33 86t82 35q51 0 85 -36t34 -87q0 -169 -232 -313z" />
    <glyph glyph-name="quotesinglbase" unicode="&#x201a;" horiz-adv-x="413" 
d="M23 -203l-31 33q114 81 131 170q-35 0 -69 33t-34 80q0 51 33 85.5t82 34.5q51 0 85 -35.5t34 -86.5q0 -170 -231 -314z" />
    <glyph glyph-name="quotedblleft" unicode="&#x201c;" horiz-adv-x="688" 
d="M158 1141q0 169 231 313l31 -33q-114 -81 -131 -170q35 0 68 -33q34 -31 34 -79q0 -51 -33 -86t-82 -35q-51 0 -84.5 35.5t-33.5 87.5zM444 1141q0 169 232 313l31 -33q-116 -83 -132 -170q35 0 69 -33t34 -79q0 -51 -33 -86t-82 -35q-51 0 -85 36t-34 87z" />
    <glyph glyph-name="quotedblright" unicode="&#x201d;" horiz-adv-x="686" 
d="M168 1018l-31 33q114 81 131 170q-34 0 -69 32q-33 33 -33 80q0 51 33 86t82 35q51 0 84.5 -35.5t33.5 -87.5q0 -169 -231 -313zM455 1018l-31 33q114 81 131 170q-34 0 -69 32q-33 33 -33 80q0 51 32.5 86t81.5 35q51 0 85 -36t34 -87q0 -169 -231 -313z" />
    <glyph glyph-name="quotedblbase" unicode="&#x201e;" horiz-adv-x="704" 
d="M2 -203l-31 33q114 81 131 170q-34 0 -69 33q-33 33 -33 80q0 51 33 85.5t82 34.5q51 0 84.5 -35.5t33.5 -86.5q0 -170 -231 -314zM289 -203l-31 33q114 81 131 170q-35 0 -69 33q-33 33 -33 80q0 51 32.5 85.5t81.5 34.5q51 0 85 -35.5t34 -86.5q0 -170 -231 -314z" />
    <glyph glyph-name="dagger" unicode="&#x2020;" horiz-adv-x="778" 
d="M328 864h-273l23 148h272l68 422h164l-68 -422h277l-23 -148h-276l-211 -1327h-164z" />
    <glyph glyph-name="daggerdbl" unicode="&#x2021;" horiz-adv-x="778" 
d="M193 0h-271l23 147h270l115 717h-273l23 148h272l68 422h164l-68 -422h277l-23 -148h-276l-115 -717h276l-22 -147h-277l-73 -463h-164z" />
    <glyph glyph-name="bullet" unicode="&#x2022;" horiz-adv-x="585" 
d="M178 622q-47 49 -47 115q0 67 47 114q48 48 115 48t114 -48q48 -47 48 -114t-48 -115q-47 -47 -114 -47q-66 0 -115 47z" />
    <glyph glyph-name="ellipsis" unicode="&#x2026;" horiz-adv-x="1277" 
d="M-8 102q0 50 33 84q35 35 81 35q49 0 84 -35t35 -84q0 -46 -35 -81q-34 -33 -84 -33q-46 0 -81 33q-33 35 -33 81zM424 102q0 50 34 84q35 35 81 35q48 0 83 -35t35 -84q0 -46 -35 -81q-34 -33 -83 -33q-47 0 -81 33q-34 34 -34 81zM856 102q0 50 34 84q35 35 81 35
q49 0 84 -35t35 -84q0 -46 -35 -81q-35 -33 -84 -33q-47 0 -81 33q-34 34 -34 81z" />
    <glyph glyph-name="uni202F" unicode="&#x202f;" horiz-adv-x="426" 
 />
    <glyph glyph-name="perthousand" unicode="&#x2030;" horiz-adv-x="2037" 
d="M154 424l-50 94l1014 481l49 -94zM127 1102q0 91 44 173q43 82 131 135q87 54 198 54q128 0 213 -81q86 -81 86 -209q0 -146 -108 -253q-107 -106 -269 -106q-115 0 -206 83q-89 83 -89 204zM258 1112q0 -83 52 -131q53 -47 128 -47q92 0 160 67q70 67 70 162
q0 80 -50 130t-126 50q-97 0 -166 -70q-68 -70 -68 -161zM485 258q0 139 99 249q49 52 120.5 83t153.5 31q128 0 213 -82q86 -81 86 -209q0 -146 -108 -253q-107 -106 -269 -106q-115 0 -206 83q-89 83 -89 204zM616 268q0 -82 53 -130t128 -48q92 0 160 67q69 67 69 162
q0 81 -50 131t-126 50q-97 0 -166 -70q-68 -71 -68 -162zM1243 258q0 139 99 249q49 52 120.5 83t153.5 31q128 0 213 -82q86 -81 86 -209q0 -146 -108 -253q-107 -106 -269 -106q-115 0 -206 83q-89 83 -89 204zM1374 268q0 -83 52 -131q53 -47 128 -47q92 0 160 67
q70 67 70 162q0 81 -50 131t-126 50q-97 0 -166 -70q-68 -71 -68 -162z" />
    <glyph glyph-name="guilsinglleft" unicode="&#x2039;" horiz-adv-x="649" 
d="M463 262l-406 406l15 86l532 405h23l-27 -176l-373 -281l285 -280l-27 -160h-22z" />
    <glyph glyph-name="guilsinglright" unicode="&#x203a;" horiz-adv-x="634" 
d="M29 262h-23l27 176l373 281l-285 280l26 160h23l405 -405l-14 -86z" />
    <glyph glyph-name="fraction" unicode="&#x2044;" horiz-adv-x="1300" 
d="M158 424l-49 94l1013 481l49 -94z" />
    <glyph glyph-name="uni205F" unicode="&#x205f;" horiz-adv-x="533" 
 />
    <glyph glyph-name="zerosuperior" unicode="&#x2070;" horiz-adv-x="724" 
d="M86 1008q0 110 43 208q43 99 131 166q87 66 197 66q124 0 198 -86t74 -232q0 -102 -44 -201q-44 -97 -131 -162q-88 -65 -198 -65q-118 0 -194 84q-76 85 -76 222zM209 1020q0 -99 44 -157t112 -58q77 0 132 51q109 99 109 270q0 103 -43.5 161.5t-113.5 58.5
q-77 0 -134 -57q-106 -105 -106 -269z" />
    <glyph glyph-name="foursuperior" unicode="&#x2074;" horiz-adv-x="591" 
d="M365 881h-324l12 67l471 486h51l-71 -451h98l-16 -102h-99l-24 -164h-123zM416 1192l-207 -209h172z" />
    <glyph glyph-name="fivesuperior" unicode="&#x2075;" horiz-adv-x="565" 
d="M70 741l-7 131h15q33 -29 84.5 -48t99.5 -19q75 0 127 46q53 47 53 120q0 64 -36.5 99.5t-100.5 35.5q-79 0 -176 -47l-25 6l105 369h385l-16 -103h-295l-52 -157q60 26 131 26q88 0 146 -57q59 -56 59 -160q0 -132 -88 -207q-88 -74 -219 -74q-60 0 -101 9q-40 9 -89 30
z" />
    <glyph glyph-name="sixsuperior" unicode="&#x2076;" horiz-adv-x="593" 
d="M78 975q0 62 14.5 126.5t46 127t74.5 111t106 78.5t136 30q80 0 131 -39l-6 -115h-13q-43 52 -133 52q-75 0 -135 -63q-61 -62 -80 -171q33 30 79.5 49t88.5 19q91 0 150 -56t59 -147q0 -113 -84 -194t-199 -81q-101 0 -168 78q-67 77 -67 195zM201 928q0 -54 35 -89
q35 -34 83 -34q61 0 107 43q47 44 47 113q0 53 -32.5 84.5t-84.5 31.5q-65 0 -111 -44q-44 -44 -44 -105z" />
    <glyph glyph-name="sevensuperior" unicode="&#x2077;" horiz-adv-x="569" 
d="M215 717h-135l407 614h-348l17 103h514l-2 -19z" />
    <glyph glyph-name="eightsuperior" unicode="&#x2078;" horiz-adv-x="573" 
d="M74 909q0 133 145 203q-63 52 -63 127q0 85 69 147q71 62 170 62q87 0 143 -50t56 -126q0 -104 -111 -164q37 -22 61.5 -63t24.5 -89q0 -113 -80 -184q-79 -70 -192 -70q-89 0 -156 60t-67 147zM186 913q0 -46 37 -77t84 -31q65 0 109 42q45 42 45 105q0 49 -34 80
t-87 31q-66 0 -110 -43q-44 -42 -44 -107zM262 1239q0 -36 28.5 -61t67.5 -25q51 0 89 32q38 33 38 79q0 41 -27.5 65.5t-72.5 24.5q-47 0 -85 -31q-38 -32 -38 -84z" />
    <glyph glyph-name="ninesuperior" unicode="&#x2079;" horiz-adv-x="595" 
d="M106 1184q0 109 80 186q79 78 203 78q107 0 171 -75q65 -74 65 -197q0 -64 -14 -129.5t-44.5 -127.5t-73.5 -110t-106.5 -77.5t-138.5 -29.5q-80 0 -131 39l6 115h12q43 -51 141 -51q69 0 128 62t79 171q-58 -67 -151 -67q-92 0 -159 60t-67 153zM229 1190q0 -52 36 -85
q37 -32 81 -32q65 0 111 44q45 43 45 106q0 55 -37 89q-35 34 -86 34q-58 0 -104 -43t-46 -113z" />
    <glyph glyph-name="zeroinferior" unicode="&#x2080;" horiz-adv-x="724" 
d="M-82 -172q0 108 44 208q43 100 130 166t197 66q125 0 198 -85q74 -86 74 -232q0 -103 -44 -200q-44 -99 -131 -162q-87 -66 -198 -66q-116 0 -193 84q-77 85 -77 221zM41 -160q0 -99 44 -157t112 -58q77 0 132 52q109 98 109 270q0 102 -43.5 160.5t-113.5 58.5
q-77 0 -134 -57q-106 -105 -106 -269z" />
    <glyph glyph-name="oneinferior" unicode="&#x2081;" horiz-adv-x="245" 
d="M4 -463h-123l103 649l106 68h27z" />
    <glyph glyph-name="twoinferior" unicode="&#x2082;" horiz-adv-x="575" 
d="M358 -463h-497l2 17l327 335q56 56 81.5 96t25.5 83q0 45 -30.5 71.5t-82.5 26.5q-95 0 -196 -113h-19l29 129q35 38 91 62q57 24 110 24q96 0 155 -52q60 -52 60 -132q0 -65 -33 -123t-100 -125l-195 -196h289z" />
    <glyph glyph-name="threeinferior" unicode="&#x2083;" horiz-adv-x="581" 
d="M-102 -424l8 127h14q78 -78 178 -78q71 0 126 46t55 118q0 65 -42 103q-42 36 -98 36q-43 0 -80 -12l-12 33l186 203h-251l16 102h444l-2 -12l-215 -232q77 -14 127 -65q51 -53 51 -133q0 -123 -85 -205q-84 -84 -222 -84q-118 0 -198 53z" />
    <glyph glyph-name="fourinferior" unicode="&#x2084;" horiz-adv-x="591" 
d="M182 -299h-323l12 68l471 485h51l-71 -451h98l-17 -102h-98l-24 -164h-123zM233 12l-206 -209h172z" />
    <glyph glyph-name="fiveinferior" unicode="&#x2085;" horiz-adv-x="565" 
d="M-94 -438l-6 131h14q33 -30 84.5 -49t99.5 -19q74 0 127 47q54 46 54 119q0 64 -37 99.5t-101 35.5q-79 0 -176 -47l-24 6l104 369h385l-16 -102h-295l-51 -158q60 26 131 26q87 0 146 -56q58 -57 58 -161q0 -133 -88 -206q-88 -74 -219 -74q-61 0 -100 9q-40 9 -90 30z
" />
    <glyph glyph-name="sixinferior" unicode="&#x2086;" horiz-adv-x="595" 
d="M-104 -205q0 62 14.5 126.5t45.5 127t74.5 111t106 78.5t135.5 30q80 0 131 -39l-6 -114h-12q-43 51 -133 51q-75 0 -135 -63q-61 -62 -80 -171q33 30 79.5 49t88.5 19q92 0 150 -55q59 -56 59 -148q0 -113 -84 -193q-84 -81 -199 -81q-99 0 -167 78q-68 77 -68 194z
M18 -252q0 -54 36 -89q35 -34 83 -34q61 0 107 43q47 44 47 113q0 53 -32.5 85t-84.5 32q-65 0 -111 -44q-45 -44 -45 -106z" />
    <glyph glyph-name="seveninferior" unicode="&#x2087;" horiz-adv-x="569" 
d="M31 -463h-135l407 615h-348l16 102h514l-2 -18z" />
    <glyph glyph-name="eightinferior" unicode="&#x2088;" horiz-adv-x="573" 
d="M-115 -270q0 131 146 202q-64 54 -64 127q0 86 70 147q71 62 170 62q87 0 143 -50t56 -126q0 -104 -111 -164q37 -22 61.5 -62.5t24.5 -88.5q0 -112 -80 -183t-192 -71q-89 0 -156 60q-68 60 -68 147zM-2 -266q0 -46 37 -77q38 -32 84 -32q66 0 109 43q44 42 44 105
q0 49 -33.5 79.5t-86.5 30.5q-65 0 -110 -42q-44 -42 -44 -107zM74 59q0 -36 28.5 -61t67.5 -25q51 0 89 32q38 33 38 79q0 41 -27.5 65.5t-72.5 24.5q-47 0 -85 -31q-38 -32 -38 -84z" />
    <glyph glyph-name="nineinferior" unicode="&#x2089;" horiz-adv-x="595" 
d="M-78 4q0 109 80 186q79 78 203 78q105 0 170 -75q65 -74 65 -197q0 -82 -23 -163t-67.5 -151.5t-119 -114.5t-167.5 -44q-80 0 -131 39l7 114h12q43 -51 141 -51q70 0 128 63q59 62 79 171q-59 -68 -152 -68q-92 0 -158 60q-67 60 -67 153zM45 10q0 -51 35 -83
q36 -33 82 -33q66 0 110 44q45 44 45 105q0 53 -36 88t-86 35q-58 0 -104 -43t-46 -113z" />
    <glyph glyph-name="Euro" unicode="&#x20ac;" horiz-adv-x="1280" 
d="M147 504h-149l63 127h80q0 84 19 172h-117l66 127h84q54 147 157 268q98 116 250 191q147 73 320 73q207 0 348 -96l-15 -176h-20q-74 63 -150.5 90t-179.5 27q-173 0 -310 -105q-135 -103 -208 -272h614l-65 -127h-590q-18 -85 -18 -172h626l-65 -127h-555
q30 -182 140 -280q110 -97 273 -97q90 0 168 26q76 27 170 91h21l-43 -176q-157 -97 -348 -97q-210 0 -370 145t-196 388z" />
    <glyph glyph-name="trademark" unicode="&#x2122;" horiz-adv-x="1433" 
d="M313 1331h-184l16 103h492l-16 -103h-185l-96 -614h-123zM639 717h-119l311 717h21l137 -478l289 478h20l86 -717h-110l-45 436l-264 -436h-17l-127 436z" />
    <glyph glyph-name="Omega" unicode="&#x2126;" horiz-adv-x="1634" 
d="M594 0h-571l24 156h305q-237 215 -237 538q0 152 60 291q60 142 163 246q104 105 250 168q149 63 313 63q134 0 250.5 -42.5t201.5 -120.5q86 -79 134.5 -193.5t48.5 -249.5q0 -204 -121 -382q-120 -178 -321 -318h305l-25 -156h-571l18 115q219 133 363 301
q168 194 168 422q0 214 -132 342q-130 127 -341 127q-163 0 -296 -85t-209 -230q-75 -146 -75 -316q0 -193 102 -344q88 -126 211 -217z" />
    <glyph glyph-name="onethird" unicode="&#x2153;" horiz-adv-x="1062" 
d="M-12 219l-49 94l1013 482l49 -95zM291 717h-123l102 649l107 68h26zM385 -424l8 127h15q78 -78 178 -78q72 0 125 46q55 46 55 118q0 65 -42 103q-40 36 -97 36q-43 0 -80 -12l-12 33l186 203h-252l16 102h445l-2 -12l-215 -232q77 -14 127 -65q51 -53 51 -133
q0 -123 -85 -205q-84 -84 -222 -84q-119 0 -199 53z" />
    <glyph glyph-name="twothirds" unicode="&#x2154;" horiz-adv-x="1196" 
d="M518 717h-498l3 16l327 336q34 35 54 57q53 61 53 121q0 45 -30.5 72t-82.5 27q-96 0 -197 -113h-18l29 129q35 38 91 62q55 24 109 24q96 0 155 -52q60 -52 60 -132q0 -65 -33 -123t-100 -125l-194 -197h289zM121 219l-49 94l1013 482l50 -95zM518 -424l8 127h15
q78 -78 178 -78q72 0 125 46q55 46 55 118q0 65 -42 103q-41 36 -97 36q-42 0 -80 -12l-12 33l186 203h-252l16 102h445l-2 -12l-215 -232q77 -14 127 -65q51 -53 51 -133q0 -123 -85 -205q-84 -84 -222 -84q-119 0 -199 53z" />
    <glyph glyph-name="oneeighth" unicode="&#x215b;" horiz-adv-x="1052" 
d="M-12 219l-49 94l1013 482l49 -95zM291 717h-123l102 649l107 68h26zM348 -270q0 131 146 202q-64 54 -64 127q0 86 70 147q71 62 170 62q86 0 142 -50t56 -126q0 -104 -110 -164q37 -22 61.5 -62.5t24.5 -88.5q0 -112 -80 -183t-193 -71q-89 0 -156 60t-67 147zM461 -266
q0 -46 37 -77q38 -32 84 -32q66 0 109 43q44 42 44 105q0 49 -34 79.5t-87 30.5q-66 0 -109 -42q-44 -42 -44 -107zM537 59q0 -36 28.5 -61t67.5 -25q51 0 89 32q38 33 38 79q0 41 -28 65.5t-73 24.5q-47 0 -84 -31q-38 -32 -38 -84z" />
    <glyph glyph-name="threeeighths" unicode="&#x215c;" horiz-adv-x="1144" 
d="M80 219l-49 94l1013 482l50 -95zM68 756l8 127h14q78 -78 178 -78q71 0 126 46t55 118q0 66 -42 102q-41 37 -98 37q-43 0 -80 -12l-12 32l186 203h-251l16 103h444l-2 -13l-215 -231q78 -14 127 -66q51 -52 51 -133q0 -122 -85 -206q-85 -83 -222 -83q-118 0 -198 54z
M440 -270q0 131 146 202q-64 54 -64 127q0 86 70 147q71 62 170 62q87 0 143 -50t56 -126q0 -104 -111 -164q37 -22 61.5 -62.5t24.5 -88.5q0 -112 -80 -183t-192 -71q-90 0 -157 60t-67 147zM553 -266q0 -46 37 -77q38 -32 84 -32q66 0 109 43q44 42 44 105
q0 49 -33.5 79.5t-86.5 30.5q-65 0 -110 -42q-44 -42 -44 -107zM629 59q0 -36 28.5 -61t67.5 -25q51 0 89 32q38 33 38 79q0 41 -27.5 65.5t-72.5 24.5q-47 0 -85 -31q-38 -32 -38 -84z" />
    <glyph glyph-name="fiveeighths" unicode="&#x215d;" horiz-adv-x="1165" 
d="M100 219l-49 94l1014 482l49 -95zM78 741l-6 131h14q33 -29 84.5 -48t99.5 -19q75 0 127 46q54 47 54 120q0 64 -37 99.5t-101 35.5q-79 0 -176 -47l-24 6l104 369h385l-16 -103h-295l-51 -157q60 26 131 26q87 0 146 -57q58 -55 58 -160q0 -132 -88 -207
q-88 -74 -219 -74q-60 0 -101 9q-40 9 -89 30zM461 -270q0 133 145 202q-63 52 -63 127q0 85 69 147q71 62 170 62q87 0 143 -50t56 -126q0 -104 -111 -164q37 -22 61.5 -62.5t24.5 -88.5q0 -112 -80 -183t-192 -71q-88 0 -156 60q-67 60 -67 147zM573 -266q0 -46 37 -77
q38 -32 84 -32q66 0 109 43q45 42 45 105q0 49 -34 79.5t-87 30.5q-65 0 -110 -42q-44 -42 -44 -107zM649 59q0 -36 28.5 -61t67.5 -25q51 0 89 32q38 33 38 79q0 41 -27.5 65.5t-72.5 24.5q-47 0 -85 -31q-38 -32 -38 -84z" />
    <glyph glyph-name="seveneighths" unicode="&#x215e;" horiz-adv-x="1114" 
d="M49 219l-49 94l1014 482l49 -95zM250 717h-135l407 614h-348l16 103h515l-3 -19zM410 -270q0 133 145 202q-63 52 -63 127q0 85 69 147q71 62 170 62q87 0 143 -50t56 -126q0 -104 -111 -164q37 -22 61.5 -62.5t24.5 -88.5q0 -112 -80 -183t-192 -71q-89 0 -156 60
t-67 147zM522 -266q0 -46 37 -77q38 -32 84 -32q66 0 109 43q45 42 45 105q0 49 -34 79.5t-87 30.5q-65 0 -110 -42q-44 -42 -44 -107zM598 59q0 -36 28.5 -61t67.5 -25q51 0 89 32q38 33 38 79q0 41 -27.5 65.5t-72.5 24.5q-47 0 -85 -31q-38 -32 -38 -84z" />
    <glyph glyph-name="partialdiff" unicode="&#x2202;" horiz-adv-x="1181" 
d="M57 412q0 98 38 191.5t105 165.5q68 74 166 116.5t207 42.5q110 0 198 -43.5t142 -116.5q2 26 2 59q0 201 -96 337t-246 136q-111 0 -223 -51l-18 13l67 172q121 28 211 28q241 0 370 -183q130 -182 130 -507q0 -271 -97 -468q-72 -155 -203.5 -244t-307.5 -89
q-117 0 -219 57q-103 57 -164 159q-62 103 -62 225zM246 416q0 -123 82 -202t192 -79q142 0 247 105t105 245q0 131 -81 209t-205 78q-146 0 -243 -108q-97 -106 -97 -248z" />
    <glyph glyph-name="increment" unicode="&#x2206;" horiz-adv-x="1335" 
d="M1163 0h-1218l12 74l725 1360h199l295 -1360zM758 1260l-584 -1113h815z" />
    <glyph glyph-name="product" unicode="&#x220f;" horiz-adv-x="1253" 
d="M141 -463h-184l301 1897h967l-301 -1897h-185l277 1741h-598z" />
    <glyph glyph-name="summation" unicode="&#x2211;" horiz-adv-x="1183" 
d="M1008 0h-1035l7 41l581 729l-336 623l6 41h963l-25 -156h-688l262 -520l-475 -602h764z" />
    <glyph glyph-name="minus" unicode="&#x2212;" horiz-adv-x="987" 
d="M879 684h-816l23 135h815z" />
    <glyph glyph-name="radical" unicode="&#x221a;" horiz-adv-x="1028" 
d="M188 618h-170l23 140h278l99 -533l512 1209h164l-619 -1434h-160z" />
    <glyph glyph-name="infinity" unicode="&#x221e;" horiz-adv-x="1167" 
d="M74 373q0 142 78.5 251t222.5 173q-59 39 -96 111q-37 71 -37 149q0 145 100 258q100 114 258 141l21 133h69l-20 -127h12q40 0 74 -6l20 133h70l-23 -147q115 -34 180 -121q66 -85 66 -195q0 -113 -53.5 -197t-161.5 -155q76 -45 123 -126t47 -189q0 -189 -123 -323
q-123 -132 -311 -159l-21 -133h-69l20 127h-12q-40 0 -74 6l-20 -133h-70l23 148q-135 41 -214 147q-79 107 -79 234zM254 391q0 -83 37 -143t102 -92l86 538q-101 -35 -163 -119q-62 -85 -62 -184zM410 1059q0 -53 27 -98.5t73 -73.5l65 413q-76 -28 -120.5 -93.5
t-44.5 -147.5zM551 711l-92 -578q30 -6 63 -6h23l92 582q-28 4 -49 4q-19 0 -37 -2zM647 1317l-74 -459q27 -6 58 -6l28 2l72 459q-27 6 -55 6q-19 0 -29 -2zM702 690l-86 -551q102 28 167 112q65 85 65 202q0 81 -39.5 144t-106.5 93zM797 1286l-66 -420q79 27 124.5 90.5
t45.5 149.5q0 57 -27.5 103.5t-76.5 76.5z" />
    <glyph glyph-name="integral" unicode="&#x222b;" horiz-adv-x="821" 
d="M-254 -399l25 157h16q53 -53 121 -53q64 0 106 36.5t54 100.5l270 1344q26 127 107 201q83 75 206 75q100 0 170 -43l-24 -157h-17q-53 53 -121 53q-63 0 -105 -36.5t-54 -100.5l-271 -1344q-25 -126 -108 -201t-205 -75q-100 0 -170 43z" />
    <glyph glyph-name="approxequal" unicode="&#x2248;" horiz-adv-x="968" 
d="M57 440h-12l35 150q93 84 201 84q56 0 109 -19q55 -20 89 -42q99 -60 174 -60q93 0 197 90h12l-35 -149q-54 -46 -100 -65t-100 -19q-99 0 -200 60q-99 60 -173 60q-94 0 -197 -90zM119 748h-13l35 149q93 84 201 84q51 0 105.5 -18t93.5 -43q99 -60 174 -60q93 0 196 90
h13l-35 -149q-54 -45 -100.5 -64.5t-100.5 -19.5q-99 0 -200 60q-94 61 -173 61q-93 0 -196 -90z" />
    <glyph glyph-name="notequal" unicode="&#x2260;" horiz-adv-x="1034" 
d="M221 397h-170l21 135h243l220 316h-412l20 135h486l133 193h156l-136 -193h176l-20 -135h-250l-217 -316h416l-21 -135h-489l-133 -192h-156z" />
    <glyph glyph-name="lessequal" unicode="&#x2264;" horiz-adv-x="997" 
d="M809 0h-815l22 135h815zM719 365l-549 438l23 143l688 438h20l-29 -174l-542 -344l434 -344l-25 -157h-20z" />
    <glyph glyph-name="greaterequal" unicode="&#x2265;" horiz-adv-x="1021" 
d="M788 0h-815l23 135h815zM133 365h-20l28 174l543 344l-434 344l24 157h21l549 -438l-23 -143z" />
    <glyph glyph-name="lozenge" unicode="&#x25ca;" horiz-adv-x="1110" 
d="M344 0l-319 717l546 717h193l321 -717l-548 -717h-193zM657 1294l-452 -598l248 -557l454 596z" />
    <glyph glyph-name="uniE000" unicode="&#xe000;" horiz-adv-x="1013" 
d="M1014 0h-1014v1014h1014v-1014z" />
    <glyph glyph-name="apple" unicode="&#xf8ff;" horiz-adv-x="1597" 
d="M193 45v1219q0 33 32 45l553 159q17 5 21 5q3 0 20 -5l553 -159q33 -12 33 -45v-1219q0 -19 -12.5 -32t-32.5 -13q-4 0 -14 2l-547 158l-547 -158q-10 -2 -14 -2q-20 0 -32.5 13t-12.5 32zM281 948v-844l473 138v417q-149 12 -274 89q-126 77 -199 200zM754 1370
l-471 -137q12 -192 146 -329t325 -154v620zM844 659v-417l473 -138v844q-78 -125 -200 -200q-125 -77 -273 -89zM844 1370v-620q191 17 325 154t146 329z" />
    <glyph glyph-name="CR.001" horiz-adv-x="682" 
 />
    <glyph glyph-name="zero.tn" horiz-adv-x="1331" 
d="M41 584q0 248 117 472q63 118 145 206q86 92 208.5 146t260.5 54q236 0 377 -164t141 -442q0 -259 -121 -488q-63 -117 -146 -203q-85 -89 -204 -141q-120 -53 -256 -53q-225 0 -374 167q-148 167 -148 446zM225 598q0 -226 99 -349q101 -122 258 -122q94 0 180 43
t148 117q92 105 145 255.5t51 291.5q0 230 -94 351q-93 122 -254 122q-123 0 -224 -68t-173 -181q-66 -103 -101 -226.5t-35 -233.5z" />
    <glyph glyph-name="one.tn" horiz-adv-x="1331" 
d="M645 0h-184l211 1337l157 97h43z" />
    <glyph glyph-name="two.tn" horiz-adv-x="1331" 
d="M1040 0h-946l4 20l678 705q98 101 144 180q47 80 47 176q0 97 -69 161q-70 65 -173 65q-201 0 -379 -220h-18l51 224q76 71 173 111t200 40q172 0 281 -100q110 -101 110 -262q0 -111 -62 -224q-61 -110 -194 -249l-449 -471h627z" />
    <glyph glyph-name="three.tn" horiz-adv-x="1331" 
d="M170 68l8 194h17q151 -135 362 -135q160 0 275 109q116 110 116 266q0 141 -92 221t-225 80q-63 0 -156 -21l-12 37l416 459h-562l25 156h864l-4 -21l-440 -473q72 -11 136.5 -41.5t118 -79.5t85 -124.5t31.5 -166.5q0 -158 -79 -285q-80 -128 -216 -200t-303 -72
q-121 0 -205 26q-85 26 -160 71z" />
    <glyph glyph-name="four.tn" horiz-adv-x="1331" 
d="M768 356h-672l13 82l970 996h43l-145 -922h160l-25 -156h-160l-57 -356h-184zM872 1012l-495 -500h416z" />
    <glyph glyph-name="five.tn" horiz-adv-x="1331" 
d="M162 66l-8 194h16q157 -133 367 -133q173 0 292 115q121 115 121 284q0 137 -86 223q-85 85 -215 85q-185 0 -379 -129l-34 6l202 723h764l-24 -156h-629l-111 -373q143 64 281 64q179 0 294 -112t115 -304q0 -163 -81 -297q-79 -133 -218 -210q-137 -75 -301 -75
q-209 0 -366 95z" />
    <glyph glyph-name="six.tn" horiz-adv-x="1331" 
d="M141 520q0 157 47.5 323t138.5 298q65 95 144 165q82 73 189.5 114.5t226.5 41.5q147 0 260 -65l-10 -185h-25q-61 55 -119 75t-133 20q-180 0 -317 -144q-138 -145 -187 -405q68 78 173 124q102 46 206 46q177 0 301 -117q125 -116 125 -301q0 -146 -71 -271
q-70 -121 -199 -196q-127 -72 -283 -72q-106 0 -195.5 42.5t-149.5 118.5q-122 158 -122 388zM342 412q0 -122 82 -204q82 -81 203 -81q149 0 249 105q101 107 101 264q0 126 -81 205q-79 79 -208 79q-151 0 -249 -104q-97 -103 -97 -264z" />
    <glyph glyph-name="seven.tn" horiz-adv-x="1331" 
d="M326 0h-189l850 1278h-700l24 156h953l-4 -21z" />
    <glyph glyph-name="eight.tn" horiz-adv-x="1331" 
d="M141 373q0 142 78.5 251t222.5 173q-58 39 -96 111q-37 71 -37 149q0 165 126 285q127 120 315 120q174 0 280 -97q107 -98 107 -239q0 -113 -53.5 -197t-161.5 -155q76 -45 123 -126t47 -189q0 -141 -70 -253q-69 -113 -187 -174t-260 -61q-95 0 -179 34t-140 92
q-54 57 -84.5 129.5t-30.5 146.5zM322 391q0 -123 77 -194q76 -70 191 -70q136 0 230 90q95 92 95 236q0 116 -73 188q-74 72 -189 72q-136 0 -234 -98q-97 -97 -97 -224zM477 1059q0 -84 65 -146q64 -61 156 -61q123 0 196 70q75 70 75 184q0 93 -67 153q-66 60 -159 60
q-116 0 -191 -76q-75 -77 -75 -184z" />
    <glyph glyph-name="nine.tn" horiz-adv-x="1331" 
d="M193 930q0 106 40.5 203t113.5 170q73 74 177 116.5t221 42.5q220 0 343 -153q124 -152 124 -396q0 -275 -116 -513q-60 -123 -144 -219q-82 -94 -203 -153q-120 -57 -260 -57q-161 0 -276 66l10 184h25q62 -54 118 -74q58 -20 134 -20q179 0 313 143q135 145 184 406
q-148 -172 -370 -172q-162 0 -295 109q-64 55 -101.5 137.5t-37.5 179.5zM377 938q0 -127 77 -207q78 -80 205 -80q151 0 255 110t104 271q0 121 -82 197q-81 78 -201 78q-151 0 -255 -108q-103 -107 -103 -261z" />
    </font>
</defs>
</svg>
