<?xml version="1.0" standalone="no"?>
<!DOCTYPE svg PUBLIC "-//W3C//DTD SVG 1.1//EN" "http://www.w3.org/Graphics/SVG/1.1/DTD/svg11.dtd" >
<svg xmlns="http://www.w3.org/2000/svg" xmlns:xlink="http://www.w3.org/1999/xlink" version="1.1">
<metadata>
Created by FontForge 20191125 at Mon Feb  3 19:33:46 2014
 By convertio
Copyright (c) 2012 by The Entente (AS&#38;EH). All rights reserved.
</metadata>
<defs>
<font id="Value-MediumItalic" horiz-adv-x="1146" >
  <font-face 
    font-family="Value"
    font-weight="500"
    font-style="italic"
    font-stretch="normal"
    units-per-em="2048"
    panose-1="2 11 6 3 3 2 4 9 2 3"
    ascent="1638"
    descent="-410"
    x-height="1012"
    cap-height="1434"
    bbox="-285 -647 2308 2134"
    underline-thickness="102"
    underline-position="-408"
    slope="-9"
    unicode-range="U+000D-FB02"
  />
<missing-glyph horiz-adv-x="645" 
 />
    <glyph glyph-name="fi" unicode="fi" horiz-adv-x="1198" 
d="M305 0h-217l131 823h-123l29 189h123l20 133q26 157 125 236q101 81 234 81q85 0 168 -43l-25 -200h-16q-51 57 -129 57q-55 0 -92.5 -36t-47.5 -101l-20 -127h174l-29 -189h-174zM954 0h-217l160 1012h217zM956 1219q-41 43 -41 100q0 58 41 99q42 42 101 42t100 -41
t41 -100t-41 -100t-100 -41q-58 0 -101 41z" />
    <glyph glyph-name="fl" unicode="fl" horiz-adv-x="1179" 
d="M305 0h-217l131 823h-123l29 189h123l20 133q26 157 125 236q101 81 234 81q85 0 168 -43l-25 -200h-16q-51 57 -129 57q-55 0 -92.5 -36t-47.5 -101l-20 -127h174l-29 -189h-174zM944 0h-217l236 1475h217z" />
    <glyph glyph-name=".notdef" horiz-adv-x="645" 
 />
    <glyph glyph-name=".null" horiz-adv-x="0" 
 />
    <glyph glyph-name="nonmarkingreturn" horiz-adv-x="682" 
 />
    <glyph glyph-name="NULL" horiz-adv-x="0" 
 />
    <glyph glyph-name="NULL" horiz-adv-x="0" 
 />
    <glyph glyph-name="CR" unicode="&#xd;" horiz-adv-x="0" 
 />
    <glyph glyph-name="space" unicode=" " horiz-adv-x="645" 
 />
    <glyph glyph-name="exclam" unicode="!" horiz-adv-x="561" 
d="M94 22q-43 43 -43 103t43 102q43 43 103 43t102 -43q43 -42 43 -102t-43 -103q-42 -42 -102 -42q-59 0 -103 42zM352 430h-217l160 1004h217z" />
    <glyph glyph-name="quotedbl" unicode="&#x22;" horiz-adv-x="753" 
d="M315 969h-151l26 465h242zM664 969h-152l27 465h241z" />
    <glyph glyph-name="numbersign" unicode="#" horiz-adv-x="1445" 
d="M254 387h-246l66 180h243l103 299h-252l68 181h245l133 387h199l-133 -387h311l133 387h199l-133 -387h246l-66 -181h-244l-102 -299h252l-68 -180h-245l-134 -387h-198l133 387h-311l-134 -387h-198zM618 866l-102 -299h309l103 299h-310z" />
    <glyph glyph-name="dollar" unicode="$" horiz-adv-x="1050" 
d="M6 121l60 264h20q116 -189 297 -207l80 504q-122 57 -207 154q-86 98 -86 221q0 163 114 275q115 113 302 128l20 129h139l-22 -133q129 -15 256 -104l-31 -256h-26q-104 133 -230 166l-65 -424l14 -7q153 -75 226 -167.5t73 -223.5q0 -177 -128 -310t-323 -155l-20 -131
h-139l20 131q-111 11 -202 51q-92 41 -142 95zM387 1083q0 -91 113 -172l55 353q-76 -16 -122 -64.5t-46 -116.5zM590 612l-68 -424q78 25 126 84t48 131q0 133 -106 209z" />
    <glyph glyph-name="percent" unicode="%" horiz-adv-x="1320" 
d="M162 416l-51 110l1028 494l51 -111zM131 1108q0 89 44 169q43 79 130 132q86 53 195 53q128 0 215 -81q88 -81 88 -210q0 -143 -107 -250q-106 -106 -266 -106q-119 0 -210 83q-89 84 -89 210zM291 1120q0 -71 47 -115q48 -42 111 -42q81 0 137 55q57 56 57 139
q0 72 -46 115t-112 43q-83 0 -138 -58q-56 -59 -56 -137zM500 264q0 134 98 242q49 52 119.5 82t150.5 30q128 0 215 -81q88 -79 88 -209q0 -144 -107 -251q-106 -106 -265 -106q-119 0 -210 83q-89 84 -89 210zM659 276q0 -71 47 -115q48 -42 111 -42q81 0 137 55
q58 55 58 139q0 72 -46 115t-112 43q-82 0 -139 -58q-56 -59 -56 -137z" />
    <glyph glyph-name="ampersand" unicode="&#x26;" horiz-adv-x="1310" 
d="M25 360q0 281 352 453q-42 71 -61 130.5t-19 127.5q0 154 110 270q53 56 134 88.5t174 32.5q150 0 248 -83t98 -210q0 -138 -95 -239q-95 -99 -286 -189l203 -307q110 131 202 293h27l16 -262q-89 -130 -141 -191l182 -274h-262l-78 117q-179 -146 -393 -146
q-110 0 -203 45q-91 45 -150 135q-58 89 -58 209zM262 375q0 -83 59 -144q61 -59 152 -59q124 0 252 104l-244 375q-101 -50 -160 -121t-59 -155zM510 1083q0 -82 68 -186q71 29 115 51q41 20 83 51q76 55 76 152q0 59 -45 97q-44 38 -107 38q-80 0 -135 -58t-55 -145z" />
    <glyph glyph-name="quotesingle" unicode="'" horiz-adv-x="405" 
d="M315 969h-151l26 465h242z" />
    <glyph glyph-name="parenleft" unicode="(" horiz-adv-x="626" 
d="M66 309q0 346 142 646q134 277 339 479h170q-213 -264 -325 -548q-113 -286 -113 -626q0 -227 34 -394q34 -166 103 -329h-170q-180 282 -180 772z" />
    <glyph glyph-name="parenright" unicode=")" horiz-adv-x="622" 
d="M23 -463h-170q213 264 325 548q113 286 113 626q0 222 -35 394q-35 170 -102 329h170q180 -282 180 -772q0 -351 -143 -646q-129 -274 -338 -479z" />
    <glyph glyph-name="asterisk" unicode="*" horiz-adv-x="811" 
d="M184 885l-55 133l8 20l260 72l-237 76v20l96 133l20 4l162 -180l-22 254l18 17h152l14 -17l-104 -254l219 180l20 -4l56 -133l-9 -20l-262 -76l240 -72v-20l-96 -133l-21 -4l-162 176l23 -250l-19 -16h-151l-15 16l101 250l-215 -176z" />
    <glyph glyph-name="plus" unicode="+" horiz-adv-x="1024" 
d="M416 664h-330l27 176h329l54 329h176l-54 -329h330l-26 -176h-330l-53 -330h-177z" />
    <glyph glyph-name="comma" unicode="," horiz-adv-x="454" 
d="M-14 -248l-11 47q58 37 90.5 79t49.5 102q-42 4 -79 43q-36 37 -36 90q0 59 38 100q39 41 97 41q60 0 99 -43q40 -41 40 -100q0 -121 -93 -217q-82 -88 -195 -142z" />
    <glyph glyph-name="hyphen" unicode="-" horiz-adv-x="815" 
d="M711 561h-652l27 176h651z" />
    <glyph glyph-name="period" unicode="." horiz-adv-x="454" 
d="M40 20q-40 40 -40 97t40 97t97 40t97 -40t40 -97t-40 -97t-97 -40t-97 40z" />
    <glyph glyph-name="slash" unicode="/" horiz-adv-x="1130" 
d="M168 0h-250l1043 1434h251z" />
    <glyph glyph-name="zero" unicode="0" horiz-adv-x="1443" 
d="M88 578q0 257 117 481q62 116 145 205q86 92 206 145t255 53q248 0 395 -168q148 -167 148 -448q0 -265 -122 -487q-62 -114 -146 -199q-86 -89 -203.5 -139t-249.5 -50q-112 0 -212 43.5t-175 122.5q-74 79 -116 194t-42 247zM326 600q0 -197 96 -311q96 -113 229 -113
q88 0 165.5 40.5t132.5 110.5q80 99 124.5 237t42.5 265q0 206 -83.5 317t-235.5 111q-85 0 -161.5 -39t-134.5 -108q-82 -100 -128.5 -237.5t-46.5 -272.5z" />
    <glyph glyph-name="one" unicode="1" horiz-adv-x="503" 
d="M258 0h-238l209 1319l187 115h69z" />
    <glyph glyph-name="two" unicode="2" horiz-adv-x="1144" 
d="M926 0h-961l4 31l652 684q95 97 144 177q50 80 50 171q0 95 -59 149t-148 54q-99 0 -208 -62q-107 -61 -187 -162h-25l56 261q76 72 182 115q108 44 211 44q175 0 294 -101q118 -100 118 -265q0 -93 -35 -180q-34 -83 -87 -152q-57 -73 -149 -168l-372 -391h552z" />
    <glyph glyph-name="three" unicode="3" horiz-adv-x="1157" 
d="M61 63l15 254h22q152 -141 363 -141q149 0 249 94q101 95 101 242q0 132 -81 206q-79 73 -210 73q-65 0 -158 -21l-16 49l367 410h-508l33 205h888l-4 -31l-415 -447q132 -26 229 -123q108 -105 108 -292q0 -118 -43.5 -222.5t-123.5 -182.5q-80 -77 -194.5 -121
t-246.5 -44q-224 0 -375 92z" />
    <glyph glyph-name="four" unicode="4" horiz-adv-x="1144" 
d="M625 340h-645l14 115l971 979h69l-141 -889h154l-31 -205h-154l-55 -340h-238zM721 950l-397 -405h331z" />
    <glyph glyph-name="five" unicode="5" horiz-adv-x="1128" 
d="M55 41l-12 258h20q149 -123 365 -123q154 0 262 96q109 97 109 246q0 126 -75 196q-73 70 -198 70q-175 0 -372 -116l-52 8l213 758h793l-33 -205h-614l-99 -311q127 51 250 51q180 0 299 -110t119 -318q0 -247 -173 -409q-173 -161 -443 -161q-204 0 -359 70z" />
    <glyph glyph-name="six" unicode="6" horiz-adv-x="1204" 
d="M76 543q0 267 125 504q66 122 151 211q90 95 212.5 149.5t258.5 54.5q152 0 267 -67l-13 -228h-24q-110 90 -260 90q-164 0 -284 -129q-118 -127 -165 -350q57 66 151 108q95 42 193 42q181 0 300 -116q118 -115 118 -302q0 -107 -42 -207t-116 -174q-73 -73 -176 -115.5
t-215 -42.5q-222 0 -352 160q-129 158 -129 412zM319 424q0 -107 71 -178q71 -70 179 -70q129 0 214 90q85 91 85 223q0 110 -67 177q-66 67 -178 67q-127 0 -216 -93q-88 -91 -88 -216z" />
    <glyph glyph-name="seven" unicode="7" horiz-adv-x="1126" 
d="M283 0h-256l817 1229h-658l33 205h995l-4 -31z" />
    <glyph glyph-name="eight" unicode="8" horiz-adv-x="1159" 
d="M70 381q0 137 76 247q76 111 208 175q-59 44 -93 112t-34 148q0 167 132 282q133 117 339 117q172 0 280 -99q109 -99 109 -253q0 -99 -58.5 -183.5t-164.5 -146.5q74 -51 123 -133q51 -83 51 -192q0 -129 -69 -241q-69 -111 -191 -177t-264 -66q-126 0 -229 57
q-102 57 -158.5 150.5t-56.5 202.5zM303 406q0 -101 68 -166q68 -64 166 -64q115 0 193 78q79 79 79 205q0 103 -66 166q-65 63 -159 63q-116 0 -199 -84q-82 -82 -82 -198zM453 1055q0 -80 52 -129t126 -49q91 0 159 63t68 158q0 82 -52 128q-53 48 -130 48q-95 0 -159 -64
t-64 -155z" />
    <glyph glyph-name="nine" unicode="9" horiz-adv-x="1202" 
d="M94 924q0 147 70 269q70 123 197 196t282 73q222 0 352 -159q129 -157 129 -412q0 -274 -126 -510q-64 -120 -151 -210q-89 -93 -211.5 -146.5t-258.5 -53.5q-148 0 -266 68l12 227h24q113 -90 265 -90q166 0 287 130q120 129 167 353q-132 -153 -336 -153
q-118 0 -217 51t-159 147q-60 98 -60 220zM332 944q0 -108 69 -176q71 -68 177 -68q126 0 215 93q88 92 88 217q0 106 -71 177q-70 70 -179 70q-129 0 -214 -91q-85 -89 -85 -222z" />
    <glyph glyph-name="colon" unicode=":" horiz-adv-x="454" 
d="M40 20q-40 40 -40 97t40 97t97 40t97 -40t40 -97t-40 -97t-97 -40t-97 40zM157 745q-40 40 -40 97t40 97t97 40t97 -40t40 -97t-40 -97t-97 -40t-97 40z" />
    <glyph glyph-name="semicolon" unicode=";" horiz-adv-x="454" 
d="M-14 -248l-11 47q58 37 90.5 79t49.5 102q-42 4 -79 43q-36 37 -36 90q0 59 38 100q39 41 97 41q60 0 99 -43q40 -41 40 -100q0 -121 -93 -217q-82 -88 -195 -142zM155 745q-40 40 -40 97t40 97t97 40t97 -40t40 -97t-40 -97t-97 -40t-97 40z" />
    <glyph glyph-name="less" unicode="&#x3c;" horiz-adv-x="876" 
d="M664 193l-566 436l27 164l704 436h33l-35 -209l-516 -315l416 -316l-31 -196h-32z" />
    <glyph glyph-name="equal" unicode="=" horiz-adv-x="1036" 
d="M885 377h-836l29 176h835zM956 827h-835l29 177h835z" />
    <glyph glyph-name="greater" unicode="&#x3e;" horiz-adv-x="876" 
d="M39 193h-33l35 208l516 316l-416 315l31 197h33l565 -436l-27 -164z" />
    <glyph glyph-name="question" unicode="?" horiz-adv-x="1044" 
d="M205 1108h-21l54 240q67 52 156.5 83t176.5 31q159 0 266 -81t107 -226q0 -96 -38.5 -171t-105.5 -144q-20 -20 -63 -60t-67 -64.5t-54 -61t-47 -74t-24 -78.5l-10 -64h-222l9 51q27 180 180 316q19 18 52.5 48.5t52.5 47.5t44 45t38 51t22.5 54.5t9.5 64.5q0 74 -51 117
t-138 43q-89 0 -176 -51q-88 -51 -151 -117zM278 22q-42 44 -42 103q0 60 42 102q43 43 103 43t102 -43q43 -42 43 -102t-43 -103q-42 -42 -102 -42q-59 0 -103 42z" />
    <glyph glyph-name="at" unicode="@" horiz-adv-x="1832" 
d="M115 571q0 240 116 445q115 203 323 325q208 121 460 121q149 0 283 -52t232 -143q98 -90 153 -217q57 -128 57 -270q0 -187 -103 -345q-50 -77 -127 -123t-166 -46q-168 0 -225 156q-121 -156 -295 -156q-121 0 -221 86q-49 42 -77.5 109.5t-28.5 146.5q0 167 112 295
q55 64 137.5 100.5t176.5 36.5q69 0 130.5 -27t98.5 -73l14 80h162l-67 -422q-5 -38 -5 -57q0 -125 107 -125q88 0 140 100t52 254q0 119 -43.5 220.5t-120.5 168.5q-160 139 -391 139q-188 0 -351 -98q-160 -98 -255 -264q-94 -166 -94 -363q0 -124 42.5 -234t116.5 -187
q75 -77 174 -119.5t208 -42.5q105 0 195 29q88 30 188 92h26l-39 -181q-99 -55 -191.5 -79.5t-201.5 -24.5q-139 0 -267.5 54.5t-225.5 151.5q-95 98 -152 237q-57 141 -57 302zM670 614q0 -87 57 -142q59 -56 141 -56q105 0 177 78q73 77 73 200q0 88 -57 142
q-55 55 -137 55q-113 0 -183 -79q-71 -80 -71 -198z" />
    <glyph glyph-name="A" unicode="A" horiz-adv-x="1396" 
d="M160 0h-238l854 1434h70l401 -1434h-225l-74 266h-635zM748 995l-312 -524h455z" />
    <glyph glyph-name="B" unicode="B" horiz-adv-x="1230" 
d="M571 0h-551l228 1434h485q192 0 307 -89q115 -88 115 -243q0 -236 -231 -357q196 -87 196 -301q0 -125 -79 -228q-77 -103 -204 -160q-126 -56 -266 -56zM358 635l-67 -430h297q122 0 208 64q87 65 87 173q0 87 -62 140t-166 53h-297zM453 1229l-62 -389h256
q112 0 191 58q80 59 80 161q0 85 -50 127.5t-159 42.5h-256z" />
    <glyph glyph-name="C" unicode="C" horiz-adv-x="1351" 
d="M68 633q0 169 62 321.5t173 265.5t271 177q162 65 346 65q246 0 419 -125l-22 -245h-29q-180 165 -385 165q-126 0 -239.5 -50.5t-192.5 -137.5q-78 -86 -122 -196t-44 -224q0 -219 127 -346t320 -127q204 0 419 166h29l-59 -256q-102 -59 -202 -87q-99 -28 -228 -28
q-124 0 -240.5 47.5t-206.5 132.5q-89 85 -143 210q-53 127 -53 272z" />
    <glyph glyph-name="D" unicode="D" horiz-adv-x="1302" 
d="M358 0h-338l228 1434h338q284 0 462 -164q88 -80 136.5 -202.5t48.5 -272.5q0 -163 -63 -308.5t-177 -254.5q-114 -108 -277 -170q-166 -62 -358 -62zM453 1229l-162 -1024h102q259 0 431 161q171 162 171 410q0 228 -117 340q-118 113 -323 113h-102z" />
    <glyph glyph-name="E" unicode="E" horiz-adv-x="1089" 
d="M895 0h-875l228 1434h866l-33 -205h-628l-62 -389h606l-32 -205h-607l-67 -430h637z" />
    <glyph glyph-name="F" unicode="F" horiz-adv-x="1124" 
d="M258 0h-238l228 1434h891l-33 -205h-653l-70 -441h631l-33 -204h-631z" />
    <glyph glyph-name="G" unicode="G" horiz-adv-x="1513" 
d="M68 633q0 169 63 321q65 152 177 264q114 114 280 178q166 66 364 66q288 0 457 -131l-18 -252h-31q-93 85 -204.5 131.5t-225.5 46.5q-130 0 -248 -50q-114 -48 -199 -133q-83 -84 -130.5 -195.5t-47.5 -227.5q0 -112 35 -203.5t97 -152.5q125 -119 313 -119
q197 0 360 127l47 303h-428l33 205h665l-94 -598q-170 -134 -304 -188q-133 -54 -312 -54q-125 0 -243 47.5t-209 132.5q-90 85 -144 210q-53 127 -53 272z" />
    <glyph glyph-name="H" unicode="H" horiz-adv-x="1363" 
d="M258 0h-238l228 1434h237l-92 -576h623l92 576h238l-228 -1434h-237l104 653h-623z" />
    <glyph glyph-name="I" unicode="I" horiz-adv-x="503" 
d="M258 0h-238l228 1434h237z" />
    <glyph glyph-name="J" unicode="J" horiz-adv-x="796" 
d="M-2 0l10 223h33q76 -47 156 -47q71 0 121 51.5t65 151.5l168 1055h237l-167 -1051q-32 -201 -138 -306.5t-274 -105.5q-100 0 -211 29z" />
    <glyph glyph-name="K" unicode="K" horiz-adv-x="1230" 
d="M258 0h-238l228 1434h237l-102 -656l612 656h275l-666 -699l488 -735h-275l-452 678z" />
    <glyph glyph-name="L" unicode="L" horiz-adv-x="1163" 
d="M969 0h-949l228 1434h237l-194 -1229h710z" />
    <glyph glyph-name="M" unicode="M" horiz-adv-x="1812" 
d="M170 0h-238l603 1434h77l256 -959l559 959h78l150 -1434h-228l-92 852l-512 -852h-53l-240 852z" />
    <glyph glyph-name="N" unicode="N" horiz-adv-x="1415" 
d="M258 0h-238l228 1434h96l668 -936l147 936h238l-228 -1434h-96l-665 938z" />
    <glyph glyph-name="O" unicode="O" horiz-adv-x="1609" 
d="M68 639q0 254 135 462q66 105 163 186q97 83 229 129t282 46q133 0 256 -50q126 -51 212 -134q91 -85 143 -204q54 -119 54 -253q0 -175 -58 -332t-165 -272q-109 -118 -259 -182t-321 -64q-203 0 -378 117q-86 59 -151 137q-67 82 -104.5 189t-37.5 225zM305 649
q0 -106 38 -196.5t103 -152.5q133 -124 312 -124q118 0 223 50q103 51 174 134q71 84 110.5 191.5t39.5 220.5q0 104 -37 196t-101 156q-63 63 -142.5 98t-162.5 35q-161 0 -288 -82q-129 -82 -199 -220q-70 -137 -70 -306z" />
    <glyph glyph-name="P" unicode="P" horiz-adv-x="1103" 
d="M258 0h-238l228 1434h379q213 0 338 -108q125 -107 125 -296q0 -224 -165 -351q-163 -126 -425 -126h-154zM453 1229l-74 -471h156q137 0 227 69t90 193q0 102 -63 155.5t-181 53.5h-155z" />
    <glyph glyph-name="Q" unicode="Q" horiz-adv-x="1611" 
d="M68 639q0 254 135 462q66 105 163 186q97 83 229 129t282 46q133 0 256 -50q126 -51 212 -134q91 -85 143 -204q54 -119 54 -253q0 -170 -55 -323t-156 -267l162 -190l-164 -145l-166 194q-190 -119 -424 -119q-203 0 -378 117q-86 59 -151 137q-67 82 -104.5 189
t-37.5 225zM305 649q0 -106 38 -196.5t103 -152.5q133 -124 312 -124q149 0 270 76l-141 168l166 143l135 -162q117 163 117 371q0 104 -37 196t-101 156q-63 63 -142.5 98t-162.5 35q-161 0 -288 -82q-129 -82 -199 -220q-70 -137 -70 -306z" />
    <glyph glyph-name="R" unicode="R" horiz-adv-x="1175" 
d="M258 0h-238l228 1434h416q184 0 303 -104q118 -103 118 -259q0 -159 -93 -267.5t-267 -160.5l287 -643h-256l-275 618h-125zM453 1229l-64 -406h168q122 0 207 56q84 57 84 168q0 86 -60 134t-167 48h-168z" />
    <glyph glyph-name="S" unicode="S" horiz-adv-x="1050" 
d="M6 121l60 264h20q66 -104 148 -156.5t198 -52.5t189 66q75 66 75 161q0 100 -53 161q-53 60 -172 114q-116 53 -204 146q-97 104 -97 233q0 175 130 290t339 115q192 0 340 -110l-31 -256h-26q-133 174 -304 174q-96 0 -164 -51q-67 -49 -67 -136q0 -70 60 -128.5
t194 -123.5q153 -75 226 -167.5t73 -223.5q0 -128 -66 -235q-65 -105 -187 -170q-121 -64 -273 -64q-128 0 -239 44q-110 44 -169 106z" />
    <glyph glyph-name="T" unicode="T" horiz-adv-x="1101" 
d="M514 1229h-360l32 205h959l-33 -205h-360l-195 -1229h-238z" />
    <glyph glyph-name="U" unicode="U" horiz-adv-x="1337" 
d="M80 444q0 56 10 125l137 865h238l-141 -906q-7 -50 -7 -84q0 -72 22.5 -125.5t61.5 -83.5t85 -44.5t98 -14.5q128 0 229 76q113 84 143 276l144 906h237l-139 -881q-46 -289 -214 -436q-167 -146 -413 -146q-222 0 -357 126q-134 126 -134 347z" />
    <glyph glyph-name="V" unicode="V" horiz-adv-x="1425" 
d="M549 0l-404 1434h244l273 -1016l595 1016h252l-858 -1434h-102z" />
    <glyph glyph-name="W" unicode="W" horiz-adv-x="1984" 
d="M420 0l-266 1434h252l149 -908l494 908h106l203 -908l436 908h256l-702 -1434h-88l-226 987l-526 -987h-88z" />
    <glyph glyph-name="X" unicode="X" horiz-adv-x="1263" 
d="M197 0h-265l586 780l-287 654h242l203 -467l332 467h264l-506 -658l340 -776h-242l-250 573z" />
    <glyph glyph-name="Y" unicode="Y" horiz-adv-x="1226" 
d="M479 623l-336 811h252l232 -598l420 598h264l-594 -811l-99 -623h-237z" />
    <glyph glyph-name="Z" unicode="Z" horiz-adv-x="1247" 
d="M1055 0h-1110l4 31l903 1198h-653l32 205h1020l-4 -31l-905 -1198h745z" />
    <glyph glyph-name="bracketleft" unicode="[" horiz-adv-x="593" 
d="M336 -463h-399l299 1897h401l-33 -205h-184l-236 -1487h185z" />
    <glyph glyph-name="backslash" unicode="\" horiz-adv-x="1116" 
d="M733 0l-590 1434h238l590 -1434h-238z" />
    <glyph glyph-name="bracketright" unicode="]" horiz-adv-x="595" 
d="M287 -463h-400l33 205h182l236 1487h-184l32 205h402z" />
    <glyph glyph-name="asciicircum" unicode="^" horiz-adv-x="1069" 
d="M285 805h-205l6 31l483 598h148l295 -598l-6 -31h-191l-203 399z" />
    <glyph glyph-name="underscore" unicode="_" horiz-adv-x="1048" 
d="M856 -176h-958l26 176h959z" />
    <glyph glyph-name="grave" unicode="`" horiz-adv-x="667" 
d="M365 1153l-246 281h282l142 -281h-178z" />
    <glyph glyph-name="a" unicode="a" horiz-adv-x="1267" 
d="M51 455q0 163 72 296q75 135 205 211q134 78 301 78q104 0 194 -42q90 -41 131 -107l23 121h217l-162 -1012h-217l16 100q-132 -129 -329 -129q-86 0 -168.5 36t-145.5 99q-63 64 -100 156t-37 193zM268 469q0 -131 86 -217q87 -84 205 -84q159 0 254 107q94 107 94 268
q0 135 -81 217q-81 84 -195 84q-150 0 -257 -107q-106 -106 -106 -268z" />
    <glyph glyph-name="b" unicode="b" horiz-adv-x="1253" 
d="M225 0h-217l234 1475h217l-92 -572q55 58 152 97q96 40 186 40q199 0 328 -130q130 -130 130 -349q0 -116 -41.5 -223.5t-116.5 -189.5q-74 -82 -182.5 -129.5t-230.5 -47.5q-214 0 -344 160zM289 465q0 -127 86 -213q87 -84 205 -84q150 0 257 106q109 106 109 269
q0 135 -83 218t-214 83q-156 2 -260 -111.5t-100 -267.5z" />
    <glyph glyph-name="c" unicode="c" horiz-adv-x="1015" 
d="M45 449q0 252 176 422q175 169 443 169q180 0 290 -86l-24 -221h-25q-65 59 -125 85t-137 26q-161 0 -271 -109q-110 -108 -110 -270q0 -131 81 -214t192 -83q80 0 148 27q72 31 151 92h24l-47 -226q-133 -90 -305 -90q-175 0 -314 125q-68 62 -107.5 154.5t-39.5 198.5z
" />
    <glyph glyph-name="d" unicode="d" horiz-adv-x="1282" 
d="M55 457q0 234 148 404q73 83 186 131t246 48q105 0 194 -43q91 -43 142 -112l94 590h217l-233 -1475h-218l19 117q-68 -75 -146 -110.5t-186 -35.5q-125 0 -231 61q-105 62 -169 173q-63 113 -63 252zM272 473q0 -134 84 -220q84 -85 211 -85q158 0 258 115
q101 116 101 282q0 119 -84 199q-85 80 -213 80q-106 0 -189 -53q-82 -52 -125 -135.5t-43 -182.5z" />
    <glyph glyph-name="e" unicode="e" horiz-adv-x="1173" 
d="M49 457q0 108 40 211.5t113 187.5q75 84 186 133q112 51 247 51q195 0 320 -119q126 -119 126 -292q0 -53 -8 -99l-12 -79h-795q4 -129 89.5 -209.5t195.5 -77.5q106 0 199 33t192 110h23l-43 -217q-98 -66 -178 -92q-80 -27 -203 -27q-89 0 -177 34t-158 94
q-72 63 -114.5 157t-42.5 201zM287 606h585q0 124 -66 193t-190 69q-117 0 -205 -74q-87 -73 -124 -188z" />
    <glyph glyph-name="f" unicode="f" horiz-adv-x="720" 
d="M305 0h-217l131 823h-123l29 189h123l20 133q26 157 125 236q101 81 234 81q85 0 168 -43l-25 -200h-16q-51 57 -129 57q-55 0 -92.5 -36t-47.5 -101l-20 -127h174l-29 -189h-174z" />
    <glyph glyph-name="g" unicode="g" horiz-adv-x="1253" 
d="M51 463q-3 159 73.5 293t212 210.5t296.5 73.5q101 0 183 -37.5t128 -101.5l19 111h217l-152 -944q-48 -299 -201 -430q-151 -130 -424 -130q-192 0 -321 84l27 218h41q48 -48 121.5 -76.5t158.5 -28.5q149 0 250 83t125 232l16 109q-121 -129 -305 -129q-132 0 -239 64
q-108 65 -167 170q-59 107 -59 229zM268 481q0 -122 82 -203t205 -81q155 0 254 104q100 103 100 258q0 126 -76 205q-77 80 -206 80q-151 0 -255 -107t-104 -256z" />
    <glyph glyph-name="h" unicode="h" horiz-adv-x="1161" 
d="M223 0h-217l236 1475h217l-97 -601q68 76 164 120q96 46 199 46q146 0 236 -84t90 -227q0 -33 -7 -76l-104 -653h-217l98 608q4 28 4 49q0 89 -53.5 138t-146.5 49q-117 0 -206 -83q-87 -83 -110 -220z" />
    <glyph glyph-name="i" unicode="i" horiz-adv-x="479" 
d="M236 0h-218l160 1012h217zM238 1219q-41 41 -41 100t41 100q43 41 100 41q58 0 99 -41q42 -41 42 -100t-42 -100q-41 -41 -99 -41q-57 0 -100 41z" />
    <glyph glyph-name="j" unicode="j" horiz-adv-x="483" 
d="M-258 -457l10 189h29q47 -39 100 -39q95 0 115 123l188 1196h217l-188 -1192q-49 -312 -338 -312q-77 0 -133 35zM244 1219q-41 41 -41 100t41 100q43 41 100 41q58 0 99 -41q42 -41 42 -100t-42 -100q-41 -41 -99 -41q-57 0 -100 41z" />
    <glyph glyph-name="k" unicode="k" horiz-adv-x="1007" 
d="M223 0h-217l236 1475h217l-144 -904l433 441h262l-490 -482l328 -530h-246l-301 492z" />
    <glyph glyph-name="l" unicode="l" horiz-adv-x="458" 
d="M223 0h-217l236 1475h217z" />
    <glyph glyph-name="m" unicode="m" horiz-adv-x="1669" 
d="M223 0h-217l162 1012h217l-20 -125q60 73 144 113t177 40q85 0 153 -44q68 -43 99 -115q63 75 147.5 117t176.5 42q140 0 220 -81q79 -80 79 -211q0 -14 -5 -64l-108 -684h-217l102 647q4 25 4 41q0 73 -44.5 114.5t-125.5 41.5q-89 0 -151.5 -66t-81.5 -180l-96 -598
h-217l104 653q4 21 4 37q0 69 -45.5 111.5t-120.5 42.5q-92 0 -161 -77q-70 -77 -89 -204z" />
    <glyph glyph-name="n" unicode="n" horiz-adv-x="1142" 
d="M223 0h-217l162 1012h217l-23 -138q65 76 161 121t200 45q139 0 225 -84t86 -221q0 -29 -6 -76l-104 -659h-217l98 616q4 32 4 52q0 83 -50 129.5t-136 46.5q-116 0 -204 -85q-87 -83 -110 -218z" />
    <glyph glyph-name="o" unicode="o" horiz-adv-x="1218" 
d="M51 459q0 111 42 216t118 186q78 83 190 131t238 48q211 0 351 -132q140 -131 140 -341q0 -166 -73 -302t-206 -215t-300 -79q-93 0 -182 34t-161 95q-73 62 -115 156.5t-42 202.5zM268 471q0 -139 86 -222q87 -81 209 -81q149 0 250 104q100 104 100 269q0 138 -82 220
q-83 83 -208 83q-158 0 -257 -109q-98 -109 -98 -264z" />
    <glyph glyph-name="p" unicode="p" horiz-adv-x="1253" 
d="M152 -463h-218l234 1475h217l-18 -123q139 151 346 151q196 0 323 -129q127 -127 127 -350q0 -157 -72 -290q-73 -135 -207 -217q-136 -83 -304 -83q-104 0 -196 42q-90 42 -140 104zM291 446q0 -117 86 -198q88 -80 203 -80q156 0 261 112t105 263q0 133 -81 217
q-79 84 -210 84q-150 0 -257 -116t-107 -282z" />
    <glyph glyph-name="q" unicode="q" horiz-adv-x="1280" 
d="M43 444q0 117 43 226t121 191q79 83 192.5 131t243.5 48q108 0 192 -41t134 -112l20 125h217l-233 -1475h-217l88 563q-129 -129 -342 -129q-190 0 -325 139q-134 140 -134 334zM260 469q0 -131 88 -216t207 -85q157 0 263 109q108 109 108 268q0 135 -81 217t-218 82
q-98 2 -184.5 -52t-135.5 -141.5t-47 -181.5z" />
    <glyph glyph-name="r" unicode="r" horiz-adv-x="835" 
d="M223 0h-217l162 1012h217l-20 -123q53 72 128 111.5t156 39.5q99 0 166 -47l-22 -231h-19q-70 82 -184 82q-99 0 -178 -76q-80 -76 -105 -240z" />
    <glyph glyph-name="s" unicode="s" horiz-adv-x="866" 
d="M-12 72l82 204h12q117 -108 264 -108q70 0 119 33t49 92q0 52 -42 85q-40 32 -148 75q-222 87 -222 280q0 129 104 218q106 89 263 89q163 0 276 -75l-24 -207h-14q-124 102 -250 102q-62 0 -104 -30t-42 -80q0 -49 44.5 -84.5t146.5 -75.5q233 -90 233 -277
q0 -151 -113 -247q-113 -95 -284 -95q-213 0 -350 101z" />
    <glyph glyph-name="t" unicode="t" horiz-adv-x="788" 
d="M221 823h-180l29 189h180l31 192l233 99l-47 -291h283l-29 -189h-283l-84 -526q-2 -22 -2 -33q0 -50 31.5 -77t81.5 -27q75 0 164 63h18l-53 -200q-103 -52 -205 -52q-110 0 -184 67q-74 68 -74 183q0 43 4 60z" />
    <glyph glyph-name="u" unicode="u" 
d="M51 309q0 39 6 82l99 621h217l-101 -617q-4 -28 -4 -45q0 -86 55 -134t146 -48q113 0 195 81q84 82 106 222l86 541h217l-162 -1012h-217l23 137q-135 -166 -344 -166q-140 0 -231 94t-91 244z" />
    <glyph glyph-name="v" unicode="v" horiz-adv-x="1073" 
d="M399 0l-331 1012h225l190 -602l379 602h238l-656 -1012h-45z" />
    <glyph glyph-name="w" unicode="w" horiz-adv-x="1576" 
d="M360 0l-288 1012h223l160 -592l336 592h86l147 -592l348 592h223l-600 -1012h-55l-162 647l-362 -647h-56z" />
    <glyph glyph-name="x" unicode="x" horiz-adv-x="991" 
d="M178 0h-254l414 535l-232 477h244l146 -314l237 314h238l-385 -494l239 -518h-233l-158 352z" />
    <glyph glyph-name="y" unicode="y" horiz-adv-x="1058" 
d="M133 -463h-231l432 653l-266 822h223l188 -586l373 586h233z" />
    <glyph glyph-name="z" unicode="z" horiz-adv-x="1013" 
d="M809 0h-840l6 31l598 784h-434l33 197h786l-6 -31l-602 -784h492z" />
    <glyph glyph-name="braceleft" unicode="{" horiz-adv-x="681" 
d="M57 385h-47l31 201h47q56 0 85.5 25.5t39.5 86.5l78 492q19 114 96 179t191 65h147l-33 -205h-90q-89 0 -104 -103l-70 -436q-24 -163 -172 -205q113 -33 113 -155q0 -21 -4 -49l-70 -437q-2 -22 -2 -28q0 -74 74 -74h90l-33 -205h-135q-100 0 -161 57q-60 56 -60 154
q0 21 4 53l75 471q5 33 5 35q0 78 -95 78z" />
    <glyph glyph-name="bar" unicode="|" horiz-adv-x="460" 
d="M154 -463h-217l299 1897h217z" />
    <glyph glyph-name="braceright" unicode="}" horiz-adv-x="681" 
d="M33 -463h-148l33 205h90q90 0 105 102l69 437q24 162 172 204q-112 33 -112 156q0 21 4 49l69 436q2 22 2 29q0 74 -73 74h-90l32 205h136q100 0 160 -57q61 -55 61 -154q0 -22 -4 -54l-76 -471q-4 -21 -4 -34q0 -78 94 -78h47l-31 -201h-47q-55 0 -85 -26t-40 -87
l-78 -491q-19 -114 -95.5 -179t-190.5 -65z" />
    <glyph glyph-name="asciitilde" unicode="~" horiz-adv-x="987" 
d="M86 559h-16l43 184q97 91 209 91q99 0 201 -58q106 -57 173 -57q90 0 195 92h16l-43 -184q-90 -90 -202 -90q-68 0 -137 28q-66 27 -133 57q-63 27 -112.5 28t-92 -20.5t-101.5 -70.5z" />
    <glyph glyph-name="uni00A0" unicode="&#xa0;" horiz-adv-x="645" 
 />
    <glyph glyph-name="exclamdown" unicode="&#xa1;" horiz-adv-x="561" 
d="M213 -422h-217l160 1004h217zM208 784q-42 44 -42 103q0 60 42 102q43 43 103 43t103 -43q43 -42 43 -102t-43 -103t-103 -43t-103 43z" />
    <glyph glyph-name="cent" unicode="&#xa2;" horiz-adv-x="993" 
d="M45 449q0 231 150 395q151 165 385 190l41 256h139l-41 -252q144 -12 235 -84l-24 -221h-25q-58 51 -108.5 76.5t-108.5 32.5l-106 -672q62 6 120.5 33.5t131.5 83.5h24l-47 -226q-114 -78 -260 -88l-39 -252h-139l41 261q-154 31 -262 156q-107 125 -107 311zM262 465
q0 -102 51 -177q50 -74 131 -106l103 649q-126 -32 -205 -132q-80 -101 -80 -234z" />
    <glyph glyph-name="sterling" unicode="&#xa3;" horiz-adv-x="1087" 
d="M903 0h-948l162 676h-133l26 176h150l10 39q69 285 228 427q161 144 380 144q157 0 287 -76l-10 -235l-31 -6q-74 65 -135 90q-61 27 -141 27q-121 0 -213 -93.5t-136 -273.5l-10 -43h350l-28 -176h-367l-115 -471h707z" />
    <glyph glyph-name="currency" unicode="&#xa4;" horiz-adv-x="1208" 
d="M231 227l-116 117l129 127q-82 112 -82 246t82 246l-129 127l116 116l131 -133q113 70 242 70t242 -70l131 133l117 -116l-129 -127q82 -112 82 -246t-82 -246l129 -127l-117 -117l-131 133q-112 -69 -242 -69t-242 69zM426 899q-74 -71 -74 -182t74 -183q74 -71 178 -71
t178 71q74 72 74 183t-74 182q-74 72 -178 72t-178 -72z" />
    <glyph glyph-name="yen" unicode="&#xa5;" horiz-adv-x="1228" 
d="M434 328h-299l29 176h299l18 125h-297l27 176h199l-267 629h254l234 -578l418 578h266l-469 -629h201l-27 -176h-301l-19 -125h299l-28 -176h-299l-51 -328h-238z" />
    <glyph glyph-name="brokenbar" unicode="&#xa6;" horiz-adv-x="462" 
d="M154 -463h-217l131 819h217zM324 614h-218l132 820h217z" />
    <glyph glyph-name="section" unicode="&#xa7;" horiz-adv-x="1015" 
d="M-6 -379l29 250h22q66 -86 147.5 -132t167.5 -46q98 0 162 50q64 49 64 136q0 73 -55 132q-56 60 -191 136q-285 157 -285 369q0 188 211 330q-88 103 -88 233q0 157 132 270q133 113 323 113q200 0 348 -112l-29 -250h-22q-136 178 -309 178q-92 0 -162 -52
q-70 -51 -70 -134q0 -71 55 -129q54 -57 195 -136q138 -77 209.5 -167.5t71.5 -204.5q0 -184 -205 -326q82 -97 82 -227q0 -166 -128 -280q-127 -114 -327 -114q-199 0 -348 113zM268 541q0 -75 54 -129q56 -54 180 -123q8 -4 80 -49q125 86 125 190q0 76 -55 131
q-55 58 -177 125q-35 18 -80 47q-127 -84 -127 -192z" />
    <glyph glyph-name="dieresis" unicode="&#xa8;" horiz-adv-x="808" 
d="M123 1194q-37 37 -37 92q0 54 37 91q38 38 92 38q53 0 91 -38t38 -91q0 -54 -38 -92q-37 -37 -91 -37q-55 0 -92 37zM502 1194q-37 37 -37 92q0 54 37 91q38 38 92 38q53 0 91 -38t38 -91q0 -54 -38 -92q-37 -37 -91 -37q-55 0 -92 37z" />
    <glyph glyph-name="copyright" unicode="&#xa9;" horiz-adv-x="1667" 
d="M834 1462q160 0 304 -59q143 -59 242 -159q100 -100 157 -237q58 -135 58 -290q0 -151 -57 -288t-158 -240q-99 -100 -242 -159q-144 -59 -304 -59q-217 0 -392 100t-273 271q-97 170 -97 375t97 374q97 170 273 271q175 100 392 100zM310 1023q-74 -139 -74 -306
t74 -307q75 -139 212 -222q137 -82 312 -82t311 82q139 83 212 222q75 140 75 307q0 168 -75 306q-73 138 -212 221q-137 83 -311 83q-173 0 -312 -83q-138 -83 -212 -221zM483 676q0 182 126 304q127 122 319 122q126 0 209 -62l-19 -159h-16q-46 43 -89.5 61.5t-99.5 18.5
q-116 0 -195 -79q-79 -78 -79 -194q0 -96 58 -155q59 -60 139 -60q58 0 105.5 19.5t107.5 66.5h18l-33 -162q-95 -65 -221 -65q-129 0 -230 95q-100 94 -100 249z" />
    <glyph glyph-name="ordfeminine" unicode="&#xaa;" horiz-adv-x="854" 
d="M88 1036q0 175 113 294q114 118 293 118q71 0 134 -30q64 -28 93 -75l16 84h154l-115 -710h-151l10 69q-95 -90 -232 -90q-128 0 -222 97q-93 97 -93 243zM240 1047q0 -93 60 -152q62 -59 144 -59q114 0 178 75q66 75 66 187q0 96 -57 154q-56 59 -137 59
q-106 0 -180 -75q-74 -76 -74 -189z" />
    <glyph glyph-name="guillemotleft" unicode="&#xab;" horiz-adv-x="1079" 
d="M465 244l-410 407l19 119l540 408h33l-37 -217l-340 -259l260 -258l-32 -200h-33zM879 244l-410 407l18 119l541 408h33l-37 -217l-340 -259l260 -258l-33 -200h-32z" />
    <glyph glyph-name="logicalnot" unicode="&#xac;" horiz-adv-x="968" 
d="M627 618h-545l29 189h757l-71 -461h-213z" />
    <glyph glyph-name="uni00AD" unicode="&#xad;" horiz-adv-x="815" 
d="M711 561h-652l27 176h651z" />
    <glyph glyph-name="registered" unicode="&#xae;" horiz-adv-x="1650" 
d="M72 717q0 152 56 290q116 282 393 396q144 59 304 59q161 0 303 -59t240 -159q100 -101 155 -237q56 -138 56 -290t-56 -290q-56 -137 -155 -238q-98 -101 -240 -159q-142 -59 -303 -59q-217 0 -390 100q-173 101 -268 271t-95 375zM231 717q0 -124 42.5 -236t120.5 -196
q79 -84 191 -131.5t240 -47.5t240 47.5t191 131.5q78 84 120.5 196t42.5 236q0 167 -74 306q-73 138 -210 221t-310 83q-174 0 -311 -83t-210 -221q-73 -137 -73 -306zM664 352h-148l121 762h258q105 0 164 -49t59 -135t-51.5 -151.5t-140.5 -98.5l157 -328h-159l-152 316
h-59zM766 993l-33 -205h94q62 0 102 32.5t40 88.5q0 41 -29 62.5t-80 21.5h-94z" />
    <glyph glyph-name="overscore" unicode="&#xaf;" horiz-adv-x="634" 
d="M549 1188h-492l27 162h491z" />
    <glyph glyph-name="degree" unicode="&#xb0;" horiz-adv-x="620" 
d="M206 1035q-73 72 -73 177t73 177q73 73 181 73t181 -73q73 -72 73 -177t-73 -177t-181 -72q-107 0 -181 72zM279 1321q-39 -42 -39 -109t39 -109q41 -42 108 -42t108 42q40 41 40 109t-40 109q-40 43 -108 43t-108 -43z" />
    <glyph glyph-name="plusminus" unicode="&#xb1;" horiz-adv-x="1024" 
d="M821 0h-835l26 176h836zM416 664h-330l27 176h329l54 329h176l-54 -329h330l-26 -176h-330l-53 -330h-177z" />
    <glyph glyph-name="twosuperior" unicode="&#xb2;" horiz-adv-x="587" 
d="M551 717h-514l4 24l328 336q47 49 66.5 84t19.5 74q0 41 -29 66.5t-74 25.5q-94 0 -180 -113h-33l31 152q91 82 211 82q98 0 160 -53q63 -53 63 -138q0 -63 -27.5 -116t-87.5 -117l-178 -182h260z" />
    <glyph glyph-name="threesuperior" unicode="&#xb3;" horiz-adv-x="598" 
d="M96 752l10 143h21q82 -68 174 -68q69 0 115 40q47 41 47 108q0 59 -31 90t-88 31q-44 0 -80 -11l-22 43l164 181h-238l20 125h469l-4 -19l-202 -217q74 -19 119.5 -73t45.5 -132q0 -125 -92 -208t-227 -83q-127 0 -201 50z" />
    <glyph glyph-name="acute" unicode="&#xb4;" horiz-adv-x="667" 
d="M260 1153h-186l227 281h291z" />
    <glyph glyph-name="mu" unicode="&#xb5;" 
d="M139 -463h-217l234 1475h217l-99 -617q-4 -28 -4 -45q0 -86 54 -134t145 -48q113 0 195 81q84 82 106 222l86 541h217l-162 -1012h-217l23 137q-135 -166 -344 -166q-87 0 -160 39z" />
    <glyph glyph-name="paragraph" unicode="&#xb6;" horiz-adv-x="1261" 
d="M88 1040q0 169 140 282q139 112 343 112h682l-301 -1897h-213l271 1708h-224l-270 -1708h-213l186 1176h-32q-167 0 -268 88q-101 89 -101 239z" />
    <glyph glyph-name="middot" unicode="&#xb7;" horiz-adv-x="432" 
d="M130 634q-40 40 -40 97t40 97t97 40t97 -40q41 -41 41 -97t-41 -97q-40 -40 -97 -40t-97 40z" />
    <glyph glyph-name="cedilla" unicode="&#xb8;" horiz-adv-x="716" 
d="M111 -463l-11 129l21 6q71 -47 151 -47q50 0 85 28q36 27 36 71q0 35 -27.5 57t-66.5 22q-61 0 -119 -24l-12 16l176 303l125 -45l-152 -174q59 17 107 17q67 0 110.5 -44t43.5 -118q0 -99 -85 -162q-83 -64 -210 -64q-102 0 -172 29z" />
    <glyph glyph-name="onesuperior" unicode="&#xb9;" horiz-adv-x="266" 
d="M205 717h-144l103 649l106 68h47z" />
    <glyph glyph-name="ordmasculine" unicode="&#xba;" horiz-adv-x="872" 
d="M104 1038q0 105 50 199q50 93 146 152q97 59 216 59q148 0 247 -93q99 -91 99 -239q0 -179 -115 -300q-114 -120 -292 -120q-89 0 -168 40q-78 40 -131 120q-52 79 -52 182zM256 1049q0 -98 61 -156q61 -57 146 -57q106 0 176 73t70 189q0 96 -58 154q-57 59 -145 59
q-112 0 -181 -77q-69 -76 -69 -185z" />
    <glyph glyph-name="guillemotright" unicode="&#xbb;" horiz-adv-x="1064" 
d="M35 244h-33l37 217l340 258l-260 258l33 201h32l410 -408l-19 -119zM449 244h-33l37 217l340 258l-261 258l33 201h33l410 -408l-19 -119z" />
    <glyph glyph-name="onequarter" unicode="&#xbc;" horiz-adv-x="1048" 
d="M-10 211l-51 111l1028 493l51 -110zM303 717h-143l102 649l107 68h47zM528 -311h-325l14 94l465 471h78l-70 -440h96l-18 -125h-96l-25 -152h-143zM578 0l-183 -186h152z" />
    <glyph glyph-name="onehalf" unicode="&#xbd;" horiz-adv-x="1069" 
d="M-10 211l-51 111l1028 493l51 -110zM303 717h-143l102 649l107 68h47zM803 -463h-514l4 25l328 336q46 49 66 84t20 73q0 41 -29 66.5t-74 25.5q-95 0 -180 -112h-33l31 151q91 82 211 82q98 0 160 -53q63 -53 63 -137q0 -64 -27.5 -117.5t-87.5 -116.5l-178 -182h260z
" />
    <glyph glyph-name="threequarters" unicode="&#xbe;" horiz-adv-x="1140" 
d="M82 211l-51 111l1028 493l51 -110zM51 752l10 143h21q82 -68 174 -68q69 0 115 40q47 41 47 108q0 59 -31 90t-88 31q-44 0 -80 -11l-22 43l163 181h-237l20 125h469l-4 -19l-202 -217q74 -19 119.5 -73t45.5 -132q0 -125 -92 -208t-227 -83q-127 0 -201 50zM643 -311
h-326l15 94l465 471h77l-69 -440h96l-18 -125h-97l-24 -152h-144zM692 0l-182 -186h152z" />
    <glyph glyph-name="questiondown" unicode="&#xbf;" horiz-adv-x="905" 
d="M-49 -143q0 174 144 314q24 25 78 76.5t79 78.5q82 88 98 184l10 63h222l-9 -51q-10 -69 -39 -131q-25 -55 -58.5 -97t-82.5 -88q-16 -15 -52.5 -47t-53.5 -48t-43 -45t-38 -51.5t-22 -54t-10 -64.5q0 -74 51 -117t137 -43q89 0 176 51q88 50 152 117h21l-54 -240
q-69 -53 -158 -84t-175 -31q-161 0 -267 82q-106 81 -106 226zM411 784q-42 44 -42 103q0 60 42 102q43 43 103 43t102 -43q43 -42 43 -102t-43 -103q-42 -43 -102 -43t-103 43z" />
    <glyph glyph-name="Agrave" unicode="&#xc0;" horiz-adv-x="1396" 
d="M160 0h-238l854 1434h70l401 -1434h-225l-74 266h-635zM748 995l-312 -524h455zM729 1575l-246 280h283l141 -280h-178z" />
    <glyph glyph-name="Aacute" unicode="&#xc1;" horiz-adv-x="1396" 
d="M160 0h-238l854 1434h70l401 -1434h-225l-74 266h-635zM748 995l-312 -524h455zM932 1575h-187l228 280h291z" />
    <glyph glyph-name="Acircumflex" unicode="&#xc2;" horiz-adv-x="1396" 
d="M160 0h-238l854 1434h70l401 -1434h-225l-74 266h-635zM748 995l-312 -524h455zM682 1575h-168l236 280h262l149 -280h-160l-137 151z" />
    <glyph glyph-name="Atilde" unicode="&#xc3;" horiz-adv-x="1396" 
d="M160 0h-238l854 1434h70l401 -1434h-225l-74 266h-635zM748 995l-312 -524h455zM494 1585h-17l41 170q98 90 203 90q90 0 168 -56t143 -56q84 0 185 98h16l-41 -170q-44 -47 -90 -68.5t-107 -21.5q-87 0 -169 56q-80 56 -140 56q-82 0 -192 -98z" />
    <glyph glyph-name="Adieresis" unicode="&#xc4;" horiz-adv-x="1396" 
d="M160 0h-238l854 1434h70l401 -1434h-225l-74 266h-635zM748 995l-312 -524h455zM561 1616q-37 37 -37 92q0 54 37 91q38 38 92 38q53 0 91 -38t38 -91q0 -54 -38 -92q-37 -37 -91 -37q-55 0 -92 37zM940 1616q-37 37 -37 92q0 54 37 91q38 38 92 38q53 0 91 -38t38 -91
q0 -54 -38 -92q-37 -37 -91 -37q-55 0 -92 37z" />
    <glyph glyph-name="Aring" unicode="&#xc5;" horiz-adv-x="1396" 
d="M160 0h-238l819 1376q-62 22 -99.5 75t-37.5 120q0 87 61 147t150 60t150 -60t61 -147q0 -74 -46 -130q-46 -57 -116 -73l383 -1368h-225l-74 266h-635zM748 995l-312 -524h455zM729 1655q-33 -35 -33 -84t33 -84q35 -35 86 -35q52 0 85 35q34 34 34 84t-34 84
q-33 35 -85 35q-51 0 -86 -35z" />
    <glyph glyph-name="AE" unicode="&#xc6;" horiz-adv-x="2074" 
d="M170 0h-233l854 1434h698l59 -205h-628l108 -389h582l53 -205h-578l121 -430h637l55 -205h-864l-73 264h-635zM760 995l-309 -522h452z" />
    <glyph glyph-name="Ccedilla" unicode="&#xc7;" horiz-adv-x="1351" 
d="M68 633q0 169 62 321.5t173 265.5t271 177q162 65 346 65q246 0 419 -125l-22 -245h-29q-180 165 -385 165q-126 0 -239.5 -50.5t-192.5 -137.5q-78 -86 -122 -196t-44 -224q0 -219 127 -346t320 -127q204 0 419 166h29l-59 -256q-189 -111 -406 -115l-80 -92
q59 17 107 17q68 0 110.5 -43t42.5 -119q0 -99 -84 -162q-83 -64 -210 -64q-102 0 -172 29l-11 129l21 6q71 -47 151 -47q50 0 85 28q36 27 36 71q0 35 -27.5 57t-66.5 22q-61 0 -119 -24l-12 16l106 185q-229 36 -383 207q-76 85 -118.5 200.5t-42.5 245.5z" />
    <glyph glyph-name="Egrave" unicode="&#xc8;" horiz-adv-x="1089" 
d="M895 0h-875l228 1434h866l-33 -205h-628l-62 -389h606l-32 -205h-607l-67 -430h637zM680 1575l-246 280h283l141 -280h-178z" />
    <glyph glyph-name="Eacute" unicode="&#xc9;" horiz-adv-x="1089" 
d="M895 0h-875l228 1434h866l-33 -205h-628l-62 -389h606l-32 -205h-607l-67 -430h637zM696 1575h-186l227 280h291z" />
    <glyph glyph-name="Ecircumflex" unicode="&#xca;" horiz-adv-x="1089" 
d="M895 0h-875l228 1434h866l-33 -205h-628l-62 -389h606l-32 -205h-607l-67 -430h637zM551 1575h-168l235 280h263l149 -280h-160l-137 151z" />
    <glyph glyph-name="Edieresis" unicode="&#xcb;" horiz-adv-x="1089" 
d="M895 0h-875l228 1434h866l-33 -205h-628l-62 -389h606l-32 -205h-607l-67 -430h637zM424 1616q-37 37 -37 92q0 54 37 91q38 38 92 38q53 0 91 -38t38 -91q0 -54 -38 -92q-37 -37 -91 -37q-55 0 -92 37zM803 1616q-37 37 -37 92q0 54 37 91q38 38 92 38q53 0 91 -38
t38 -91q0 -54 -38 -92q-37 -37 -91 -37q-55 0 -92 37z" />
    <glyph glyph-name="Igrave" unicode="&#xcc;" horiz-adv-x="503" 
d="M258 0h-238l228 1434h237zM326 1575l-246 280h282l142 -280h-178z" />
    <glyph glyph-name="Iacute" unicode="&#xcd;" horiz-adv-x="503" 
d="M258 0h-238l228 1434h237zM444 1575h-186l227 280h291z" />
    <glyph glyph-name="Icircumflex" unicode="&#xce;" horiz-adv-x="503" 
d="M258 0h-238l228 1434h237zM221 1575h-168l236 280h262l149 -280h-159l-138 151z" />
    <glyph glyph-name="Idieresis" unicode="&#xcf;" horiz-adv-x="503" 
d="M258 0h-238l228 1434h237zM121 1616q-37 37 -37 92q0 54 37 91q38 38 92 38q53 0 91 -38t38 -91q0 -54 -38 -92q-37 -37 -91 -37q-55 0 -92 37zM500 1616q-37 37 -37 92q0 54 37 91q38 38 92 38q53 0 91 -38t38 -91q0 -54 -38 -92q-37 -37 -91 -37q-55 0 -92 37z" />
    <glyph glyph-name="Eth" unicode="&#xd0;" horiz-adv-x="1325" 
d="M141 627h-151l24 176h156l100 631h338q284 0 462 -164q88 -80 136.5 -202.5t48.5 -272.5q0 -162 -63 -307.5t-176 -255.5q-114 -108 -277 -170q-166 -62 -358 -62h-338zM379 627l-66 -422h103q259 0 431 161q171 162 171 410q0 228 -117 340q-118 113 -323 113h-103
l-67 -426h258l-27 -176h-260z" />
    <glyph glyph-name="Ntilde" unicode="&#xd1;" horiz-adv-x="1415" 
d="M258 0h-238l228 1434h96l668 -936l147 936h238l-228 -1434h-96l-665 938zM477 1585h-16l41 170q98 90 203 90q90 0 168 -56t143 -56q83 0 184 98h17l-41 -170q-44 -47 -90 -68.5t-107 -21.5q-87 0 -169 56q-80 56 -140 56q-83 0 -193 -98z" />
    <glyph glyph-name="Ograve" unicode="&#xd2;" horiz-adv-x="1609" 
d="M68 639q0 254 135 462q66 105 163 186q97 83 229 129t282 46q133 0 256 -50q126 -51 212 -134q91 -85 143 -204q54 -119 54 -253q0 -175 -58 -332t-165 -272q-109 -118 -259 -182t-321 -64q-203 0 -378 117q-86 59 -151 137q-67 82 -104.5 189t-37.5 225zM305 649
q0 -106 38 -196.5t103 -152.5q133 -124 312 -124q118 0 223 50q103 51 174 134q71 84 110.5 191.5t39.5 220.5q0 104 -37 196t-101 156q-63 63 -142.5 98t-162.5 35q-161 0 -288 -82q-129 -82 -199 -220q-70 -137 -70 -306zM879 1575l-246 280h282l142 -280h-178z" />
    <glyph glyph-name="Oacute" unicode="&#xd3;" horiz-adv-x="1609" 
d="M68 639q0 254 135 462q66 105 163 186q97 83 229 129t282 46q133 0 256 -50q126 -51 212 -134q91 -85 143 -204q54 -119 54 -253q0 -175 -58 -332t-165 -272q-109 -118 -259 -182t-321 -64q-203 0 -378 117q-86 59 -151 137q-67 82 -104.5 189t-37.5 225zM305 649
q0 -106 38 -196.5t103 -152.5q133 -124 312 -124q118 0 223 50q103 51 174 134q71 84 110.5 191.5t39.5 220.5q0 104 -37 196t-101 156q-63 63 -142.5 98t-162.5 35q-161 0 -288 -82q-129 -82 -199 -220q-70 -137 -70 -306zM936 1575h-186l227 280h291z" />
    <glyph glyph-name="Ocircumflex" unicode="&#xd4;" horiz-adv-x="1609" 
d="M68 639q0 254 135 462q66 105 163 186q97 83 229 129t282 46q133 0 256 -50q126 -51 212 -134q91 -85 143 -204q54 -119 54 -253q0 -175 -58 -332t-165 -272q-109 -118 -259 -182t-321 -64q-203 0 -378 117q-86 59 -151 137q-67 82 -104.5 189t-37.5 225zM305 649
q0 -106 38 -196.5t103 -152.5q133 -124 312 -124q118 0 223 50q103 51 174 134q71 84 110.5 191.5t39.5 220.5q0 104 -37 196t-101 156q-63 63 -142.5 98t-162.5 35q-161 0 -288 -82q-129 -82 -199 -220q-70 -137 -70 -306zM750 1575h-168l235 280h262l150 -280h-160
l-137 151z" />
    <glyph glyph-name="Otilde" unicode="&#xd5;" horiz-adv-x="1609" 
d="M68 639q0 254 135 462q66 105 163 186q97 83 229 129t282 46q133 0 256 -50q126 -51 212 -134q91 -85 143 -204q54 -119 54 -253q0 -175 -58 -332t-165 -272q-109 -118 -259 -182t-321 -64q-203 0 -378 117q-86 59 -151 137q-67 82 -104.5 189t-37.5 225zM305 649
q0 -106 38 -196.5t103 -152.5q133 -124 312 -124q118 0 223 50q103 51 174 134q71 84 110.5 191.5t39.5 220.5q0 104 -37 196t-101 156q-63 63 -142.5 98t-162.5 35q-161 0 -288 -82q-129 -82 -199 -220q-70 -137 -70 -306zM543 1585h-17l41 170q97 90 203 90q90 0 168 -56
t143 -56q84 0 185 98h16l-41 -170q-44 -47 -90 -68.5t-107 -21.5q-87 0 -169 56q-80 56 -140 56q-82 0 -192 -98z" />
    <glyph glyph-name="Odieresis" unicode="&#xd6;" horiz-adv-x="1609" 
d="M68 639q0 254 135 462q66 105 163 186q97 83 229 129t282 46q133 0 256 -50q126 -51 212 -134q91 -85 143 -204q54 -119 54 -253q0 -175 -58 -332t-165 -272q-109 -118 -259 -182t-321 -64q-203 0 -378 117q-86 59 -151 137q-67 82 -104.5 189t-37.5 225zM305 649
q0 -106 38 -196.5t103 -152.5q133 -124 312 -124q118 0 223 50q103 51 174 134q71 84 110.5 191.5t39.5 220.5q0 104 -37 196t-101 156q-63 63 -142.5 98t-162.5 35q-161 0 -288 -82q-129 -82 -199 -220q-70 -137 -70 -306zM623 1616q-37 37 -37 92q0 54 37 91q38 38 92 38
q53 0 91 -38t38 -91q0 -54 -38 -92q-37 -37 -91 -37q-55 0 -92 37zM1002 1616q-37 37 -37 92q0 54 37 91q38 38 92 38q53 0 91 -38t38 -91q0 -54 -38 -92q-37 -37 -91 -37q-55 0 -92 37z" />
    <glyph glyph-name="multiply" unicode="&#xd7;" horiz-adv-x="905" 
d="M172 389l-111 129l277 238l-197 233l140 121l196 -233l271 233l110 -129l-270 -233l190 -230l-139 -121l-193 230z" />
    <glyph glyph-name="Oslash" unicode="&#xd8;" horiz-adv-x="1609" 
d="M68 639q0 254 135 462q66 105 163 186q97 83 229 129t282 46q161 0 299 -67l96 129l162 -115l-95 -125q97 -88 150 -208.5t53 -254.5q0 -175 -58 -332t-165 -272q-109 -118 -259 -182t-321 -64q-153 0 -303 74l-98 -135l-162 115l96 133q-204 190 -204 481zM305 649
q0 -182 103 -309l636 874q-85 43 -182 43q-161 0 -288 -82q-129 -82 -199 -220q-70 -137 -70 -306zM1198 1090l-635 -871q86 -43 195 -43q118 0 223 50q103 51 174 134q71 84 110.5 191.5t39.5 220.5q0 184 -107 318z" />
    <glyph glyph-name="Ugrave" unicode="&#xd9;" horiz-adv-x="1337" 
d="M80 444q0 56 10 125l137 865h238l-141 -906q-7 -50 -7 -84q0 -72 22.5 -125.5t61.5 -83.5t85 -44.5t98 -14.5q128 0 229 76q113 84 143 276l144 906h237l-139 -881q-46 -289 -214 -436q-167 -146 -413 -146q-222 0 -357 126q-134 126 -134 347zM793 1575l-246 280h282
l142 -280h-178z" />
    <glyph glyph-name="Uacute" unicode="&#xda;" horiz-adv-x="1337" 
d="M80 444q0 56 10 125l137 865h238l-141 -906q-7 -50 -7 -84q0 -72 22.5 -125.5t61.5 -83.5t85 -44.5t98 -14.5q128 0 229 76q113 84 143 276l144 906h237l-139 -881q-46 -289 -214 -436q-167 -146 -413 -146q-222 0 -357 126q-134 126 -134 347zM799 1575h-187l228 280
h290z" />
    <glyph glyph-name="Ucircumflex" unicode="&#xdb;" horiz-adv-x="1337" 
d="M80 444q0 56 10 125l137 865h238l-141 -906q-7 -50 -7 -84q0 -72 22.5 -125.5t61.5 -83.5t85 -44.5t98 -14.5q128 0 229 76q113 84 143 276l144 906h237l-139 -881q-46 -289 -214 -436q-167 -146 -413 -146q-222 0 -357 126q-134 126 -134 347zM653 1575h-168l236 280
h262l150 -280h-160l-137 151z" />
    <glyph glyph-name="Udieresis" unicode="&#xdc;" horiz-adv-x="1337" 
d="M80 444q0 56 10 125l137 865h238l-141 -906q-7 -50 -7 -84q0 -72 22.5 -125.5t61.5 -83.5t85 -44.5t98 -14.5q128 0 229 76q113 84 143 276l144 906h237l-139 -881q-46 -289 -214 -436q-167 -146 -413 -146q-222 0 -357 126q-134 126 -134 347zM533 1616q-37 37 -37 92
q0 54 37 91q38 38 92 38q53 0 91 -38t38 -91q0 -54 -38 -92q-37 -37 -91 -37q-55 0 -92 37zM912 1616q-38 38 -38 92q0 53 38 91t92 38q53 0 91 -38t38 -91q0 -54 -38 -92q-37 -37 -91 -37q-55 0 -92 37z" />
    <glyph glyph-name="Yacute" unicode="&#xdd;" horiz-adv-x="1226" 
d="M479 623l-336 811h252l232 -598l420 598h264l-594 -811l-99 -623h-237zM743 1575h-186l227 280h291z" />
    <glyph glyph-name="Thorn" unicode="&#xde;" horiz-adv-x="1073" 
d="M248 0h-238l228 1434h237l-43 -277h141q213 0 338 -107t125 -296q0 -224 -165 -351q-163 -127 -425 -127h-153zM399 952l-73 -471h155q137 0 227 69q91 69 91 193q0 102 -63 155.5t-181 53.5h-156z" />
    <glyph glyph-name="germandbls" unicode="&#xdf;" horiz-adv-x="1206" 
d="M297 0h-217l131 823h-125l29 189h125l10 55q35 187 150 290q117 105 292 105q162 0 259 -89q96 -89 96 -238q0 -114 -74 -203q-74 -88 -195 -137q65 -20 121 -52.5t102.5 -79t73.5 -111.5t27 -142q0 -201 -122 -320t-306 -119q-85 0 -163.5 27t-133.5 72l82 209h12
q38 -47 95 -75t114 -28q90 0 145 57q56 58 56 154q0 123 -94.5 199t-270.5 86l31 192q111 10 194 80q84 70 84 176q0 70 -42 113t-113 43q-77 0 -131.5 -54.5t-71.5 -154.5z" />
    <glyph glyph-name="agrave" unicode="&#xe0;" horiz-adv-x="1267" 
d="M51 455q0 163 72 296q75 135 205 211q134 78 301 78q104 0 194 -42q90 -41 131 -107l23 121h217l-162 -1012h-217l16 100q-132 -129 -329 -129q-86 0 -168.5 36t-145.5 99q-63 64 -100 156t-37 193zM268 469q0 -131 86 -217q87 -84 205 -84q159 0 254 107q94 107 94 268
q0 135 -81 217q-81 84 -195 84q-150 0 -257 -107q-106 -106 -106 -268zM645 1153l-246 281h283l141 -281h-178z" />
    <glyph glyph-name="aacute" unicode="&#xe1;" horiz-adv-x="1267" 
d="M51 455q0 163 72 296q75 135 205 211q134 78 301 78q104 0 194 -42q90 -41 131 -107l23 121h217l-162 -1012h-217l16 100q-132 -129 -329 -129q-86 0 -168.5 36t-145.5 99q-63 64 -100 156t-37 193zM268 469q0 -131 86 -217q87 -84 205 -84q159 0 254 107q94 107 94 268
q0 135 -81 217q-81 84 -195 84q-150 0 -257 -107q-106 -106 -106 -268zM682 1153h-186l227 281h291z" />
    <glyph glyph-name="acircumflex" unicode="&#xe2;" horiz-adv-x="1267" 
d="M51 455q0 163 72 296q75 135 205 211q134 78 301 78q104 0 194 -42q90 -41 131 -107l23 121h217l-162 -1012h-217l16 100q-132 -129 -329 -129q-86 0 -168.5 36t-145.5 99q-63 64 -100 156t-37 193zM268 469q0 -131 86 -217q87 -84 205 -84q159 0 254 107q94 107 94 268
q0 135 -81 217q-81 84 -195 84q-150 0 -257 -107q-106 -106 -106 -268zM496 1153h-168l235 281h262l150 -281h-160l-137 152z" />
    <glyph glyph-name="atilde" unicode="&#xe3;" horiz-adv-x="1267" 
d="M51 455q0 163 72 296q75 135 205 211q134 78 301 78q104 0 194 -42q90 -41 131 -107l23 121h217l-162 -1012h-217l16 100q-132 -129 -329 -129q-86 0 -168.5 36t-145.5 99q-63 64 -100 156t-37 193zM268 469q0 -131 86 -217q87 -84 205 -84q159 0 254 107q94 107 94 268
q0 135 -81 217q-81 84 -195 84q-150 0 -257 -107q-106 -106 -106 -268zM309 1163h-16l41 170q98 90 203 90q90 0 168 -56t143 -56q83 0 184 98h17l-41 -170q-44 -47 -90 -68.5t-107 -21.5q-87 0 -169 56q-79 57 -140 57q-84 0 -193 -99z" />
    <glyph glyph-name="adieresis" unicode="&#xe4;" horiz-adv-x="1267" 
d="M51 455q0 163 72 296q75 135 205 211q134 78 301 78q104 0 194 -42q90 -41 131 -107l23 121h217l-162 -1012h-217l16 100q-132 -129 -329 -129q-86 0 -168.5 36t-145.5 99q-63 64 -100 156t-37 193zM268 469q0 -131 86 -217q87 -84 205 -84q159 0 254 107q94 107 94 268
q0 135 -81 217q-81 84 -195 84q-150 0 -257 -107q-106 -106 -106 -268zM389 1194q-37 37 -37 92q0 54 37 91q38 38 92 38q53 0 91 -38t38 -91q0 -54 -38 -92q-37 -37 -91 -37q-55 0 -92 37zM768 1194q-37 37 -37 92q0 54 37 91q38 38 92 38q53 0 91 -38t38 -91
q0 -54 -38 -92q-37 -37 -91 -37q-55 0 -92 37z" />
    <glyph glyph-name="aring" unicode="&#xe5;" horiz-adv-x="1267" 
d="M51 455q0 163 72 296q75 135 205 211q134 78 301 78q104 0 194 -42q90 -41 131 -107l23 121h217l-162 -1012h-217l16 100q-132 -129 -329 -129q-86 0 -168.5 36t-145.5 99q-63 64 -100 156t-37 193zM268 469q0 -131 86 -217q87 -84 205 -84q159 0 254 107q94 107 94 268
q0 135 -81 217q-81 84 -195 84q-150 0 -257 -107q-106 -106 -106 -268zM526 1174q-61 60 -61 147t61 147q62 60 150 60t150 -60q61 -60 61 -147t-61 -147q-62 -60 -150 -60t-150 60zM590 1405q-33 -35 -33 -84t33 -84q35 -35 86 -35q52 0 85 35q34 34 34 84t-34 84
q-33 35 -85 35q-51 0 -86 -35z" />
    <glyph glyph-name="ae" unicode="&#xe6;" horiz-adv-x="1802" 
d="M37 248q0 93 45 165t125 113q153 80 373 80h116q2 18 2 43q0 102 -59 158q-59 57 -147 57q-124 0 -267 -125h-32l49 203q145 98 309 98q93 0 177 -42q82 -40 136 -109q160 151 400 151q195 0 320 -119q126 -119 126 -292q0 -53 -8 -99l-12 -79h-799q4 -129 90 -209
q87 -78 199 -78q106 0 199 33t192 110h22l-43 -217q-98 -66 -178 -92q-80 -27 -203 -27q-122 0 -235 59q-113 60 -182 167q-153 -226 -392 -226q-140 0 -232 78q-91 78 -91 199zM258 270q0 -51 39 -84.5t98 -33.5q98 0 178 78q78 77 101 221q-175 0 -288 -34
q-128 -40 -128 -147zM913 606h588q0 124 -66 193t-190 69q-118 0 -207 -74q-87 -72 -125 -188z" />
    <glyph glyph-name="ccedilla" unicode="&#xe7;" horiz-adv-x="1015" 
d="M45 449q0 252 176 422q175 169 443 169q180 0 290 -86l-24 -221h-25q-65 59 -125 85t-137 26q-161 0 -271 -109q-110 -108 -110 -270q0 -131 81 -214t192 -83q80 0 148 27q72 31 151 92h24l-47 -226q-125 -84 -283 -90l-79 -92q59 17 106 17q67 0 110.5 -44t43.5 -118
q0 -99 -85 -162q-83 -64 -210 -64q-102 0 -172 29l-11 129l21 6q71 -47 151 -47q50 0 85 28q36 27 36 71q0 35 -27.5 57t-66.5 22q-60 0 -119 -24l-12 16l109 189q-152 33 -258 157q-105 125 -105 308z" />
    <glyph glyph-name="egrave" unicode="&#xe8;" horiz-adv-x="1173" 
d="M49 457q0 108 40 211.5t113 187.5q75 84 186 133q112 51 247 51q195 0 320 -119q126 -119 126 -292q0 -53 -8 -99l-12 -79h-795q4 -129 89.5 -209.5t195.5 -77.5q106 0 199 33t192 110h23l-43 -217q-98 -66 -178 -92q-80 -27 -203 -27q-89 0 -177 34t-158 94
q-72 63 -114.5 157t-42.5 201zM287 606h585q0 124 -66 193t-190 69q-117 0 -205 -74q-87 -73 -124 -188zM598 1153l-246 281h283l141 -281h-178z" />
    <glyph glyph-name="eacute" unicode="&#xe9;" horiz-adv-x="1173" 
d="M49 457q0 108 40 211.5t113 187.5q75 84 186 133q112 51 247 51q195 0 320 -119q126 -119 126 -292q0 -53 -8 -99l-12 -79h-795q4 -129 89.5 -209.5t195.5 -77.5q106 0 199 33t192 110h23l-43 -217q-98 -66 -178 -92q-80 -27 -203 -27q-89 0 -177 34t-158 94
q-72 63 -114.5 157t-42.5 201zM287 606h585q0 124 -66 193t-190 69q-117 0 -205 -74q-87 -73 -124 -188zM655 1153h-186l227 281h291z" />
    <glyph glyph-name="ecircumflex" unicode="&#xea;" horiz-adv-x="1173" 
d="M49 457q0 108 40 211.5t113 187.5q75 84 186 133q112 51 247 51q195 0 320 -119q126 -119 126 -292q0 -53 -8 -99l-12 -79h-795q4 -129 89.5 -209.5t195.5 -77.5q106 0 199 33t192 110h23l-43 -217q-98 -66 -178 -92q-80 -27 -203 -27q-89 0 -177 34t-158 94
q-72 63 -114.5 157t-42.5 201zM287 606h585q0 124 -66 193t-190 69q-117 0 -205 -74q-87 -73 -124 -188zM489 1153h-167l235 281h262l150 -281h-160l-137 152z" />
    <glyph glyph-name="edieresis" unicode="&#xeb;" horiz-adv-x="1173" 
d="M49 457q0 108 40 211.5t113 187.5q75 84 186 133q112 51 247 51q195 0 320 -119q126 -119 126 -292q0 -53 -8 -99l-12 -79h-795q4 -129 89.5 -209.5t195.5 -77.5q106 0 199 33t192 110h23l-43 -217q-98 -66 -178 -92q-80 -27 -203 -27q-89 0 -177 34t-158 94
q-72 63 -114.5 157t-42.5 201zM287 606h585q0 124 -66 193t-190 69q-117 0 -205 -74q-87 -73 -124 -188zM363 1194q-37 37 -37 92q0 54 37 91q38 38 92 38q53 0 91 -38t38 -91q0 -54 -38 -92q-37 -37 -91 -37q-55 0 -92 37zM742 1194q-37 37 -37 92q0 54 37 91q38 38 92 38
q53 0 91 -38t38 -91q0 -54 -38 -92q-37 -37 -91 -37q-55 0 -92 37z" />
    <glyph glyph-name="igrave" unicode="&#xec;" horiz-adv-x="479" 
d="M236 0h-218l162 1012h217zM264 1153l-246 281h283l141 -281h-178z" />
    <glyph glyph-name="iacute" unicode="&#xed;" horiz-adv-x="479" 
d="M236 0h-218l162 1012h217zM330 1153h-187l228 281h291z" />
    <glyph glyph-name="icircumflex" unicode="&#xee;" horiz-adv-x="479" 
d="M152 1153h-168l235 281h262l150 -281h-160l-137 152zM236 0h-218l162 1012h217z" />
    <glyph glyph-name="idieresis" unicode="&#xef;" horiz-adv-x="479" 
d="M49 1194q-37 37 -37 92q0 54 37 91q38 38 92 38q53 0 91 -38t38 -91q0 -54 -38 -92q-37 -37 -91 -37q-55 0 -92 37zM236 0h-218l162 1012h217zM428 1194q-37 37 -37 92q0 54 37 91q38 38 92 38q53 0 91 -38t38 -91q0 -54 -38 -92q-37 -37 -91 -37q-55 0 -92 37z" />
    <glyph glyph-name="eth" unicode="&#xf0;" horiz-adv-x="1179" 
d="M53 414q0 220 145 366q145 148 371 148q94 0 174.5 -35.5t124.5 -93.5q-12 194 -125 334l-317 -123l-35 90l279 108q-82 73 -213 133l4 33l211 88q135 -73 225 -166l197 76l34 -90l-165 -65q147 -205 147 -494q0 -234 -91 -420q-47 -97 -117 -171q-71 -75 -175 -118
t-227 -43q-114 0 -215 55q-104 56 -167 158q-65 104 -65 230zM291 428q0 -108 69 -180t170 -72q124 0 212 86q87 87 87 225q0 106 -71 174t-176 68q-132 0 -212 -89q-79 -88 -79 -212z" />
    <glyph glyph-name="ntilde" unicode="&#xf1;" horiz-adv-x="1142" 
d="M223 0h-217l162 1012h217l-23 -138q65 76 161 121t200 45q139 0 225 -84t86 -221q0 -29 -6 -76l-104 -659h-217l98 616q4 32 4 52q0 83 -50 129.5t-136 46.5q-116 0 -204 -85q-87 -83 -110 -218zM309 1163h-16l41 170q98 90 203 90q90 0 168 -56t143 -56q83 0 184 98h17
l-41 -170q-44 -47 -90 -68.5t-107 -21.5q-87 0 -169 56q-79 57 -140 57q-84 0 -193 -99z" />
    <glyph glyph-name="ograve" unicode="&#xf2;" horiz-adv-x="1218" 
d="M51 459q0 111 42 216t118 186q78 83 190 131t238 48q211 0 351 -132q140 -131 140 -341q0 -166 -73 -302t-206 -215t-300 -79q-93 0 -182 34t-161 95q-73 62 -115 156.5t-42 202.5zM268 471q0 -139 86 -222q87 -81 209 -81q149 0 250 104q100 104 100 269q0 138 -82 220
q-83 83 -208 83q-158 0 -257 -109q-98 -109 -98 -264zM641 1153l-246 281h283l141 -281h-178z" />
    <glyph glyph-name="oacute" unicode="&#xf3;" horiz-adv-x="1218" 
d="M51 459q0 111 42 216t118 186q78 83 190 131t238 48q211 0 351 -132q140 -131 140 -341q0 -166 -73 -302t-206 -215t-300 -79q-93 0 -182 34t-161 95q-73 62 -115 156.5t-42 202.5zM268 471q0 -139 86 -222q87 -81 209 -81q149 0 250 104q100 104 100 269q0 138 -82 220
q-83 83 -208 83q-158 0 -257 -109q-98 -109 -98 -264zM678 1153h-186l227 281h291z" />
    <glyph glyph-name="ocircumflex" unicode="&#xf4;" horiz-adv-x="1218" 
d="M51 459q0 111 42 216t118 186q78 83 190 131t238 48q211 0 351 -132q140 -131 140 -341q0 -166 -73 -302t-206 -215t-300 -79q-93 0 -182 34t-161 95q-73 62 -115 156.5t-42 202.5zM268 471q0 -139 86 -222q87 -81 209 -81q149 0 250 104q100 104 100 269q0 138 -82 220
q-83 83 -208 83q-158 0 -257 -109q-98 -109 -98 -264zM512 1153h-168l236 281h262l149 -281h-160l-137 152z" />
    <glyph glyph-name="otilde" unicode="&#xf5;" horiz-adv-x="1218" 
d="M51 459q0 111 42 216t118 186q78 83 190 131t238 48q211 0 351 -132q140 -131 140 -341q0 -166 -73 -302t-206 -215t-300 -79q-93 0 -182 34t-161 95q-73 62 -115 156.5t-42 202.5zM268 471q0 -139 86 -222q87 -81 209 -81q149 0 250 104q100 104 100 269q0 138 -82 220
q-83 83 -208 83q-158 0 -257 -109q-98 -109 -98 -264zM305 1163h-16l41 170q98 90 202 90q91 0 169 -56t143 -56q83 0 184 98h16l-40 -170q-44 -47 -90 -68.5t-107 -21.5q-87 0 -169 56q-79 57 -140 57q-83 0 -193 -99z" />
    <glyph glyph-name="odieresis" unicode="&#xf6;" horiz-adv-x="1218" 
d="M51 459q0 111 42 216t118 186q78 83 190 131t238 48q211 0 351 -132q140 -131 140 -341q0 -166 -73 -302t-206 -215t-300 -79q-93 0 -182 34t-161 95q-73 62 -115 156.5t-42 202.5zM268 471q0 -139 86 -222q87 -81 209 -81q149 0 250 104q100 104 100 269q0 138 -82 220
q-83 83 -208 83q-158 0 -257 -109q-98 -109 -98 -264zM385 1194q-37 37 -37 92q0 54 37 91q38 38 92 38q53 0 91 -38t38 -91q0 -54 -38 -92q-37 -37 -91 -37q-55 0 -92 37zM764 1194q-37 37 -37 92q0 54 37 91q38 38 92 38q53 0 91 -38t38 -91q0 -54 -38 -92
q-37 -37 -91 -37q-55 0 -92 37z" />
    <glyph glyph-name="divide" unicode="&#xf7;" horiz-adv-x="1024" 
d="M911 594h-835l26 176h836zM351 224q-40 40 -40 98q0 57 40 97t98 40q57 0 97 -40t40 -97q0 -58 -40 -98t-97 -40q-58 0 -98 40zM468 949q-40 40 -40 98q0 57 40 97t97 40t97 -40t40 -97q0 -58 -40 -98t-97 -40t-97 40z" />
    <glyph glyph-name="oslash" unicode="&#xf8;" horiz-adv-x="1218" 
d="M51 459q0 111 42 216t118 186q78 83 190 131t238 48q109 0 195 -34l69 94l154 -111l-62 -86q135 -132 135 -336q0 -166 -73 -302t-206 -215t-300 -79q-103 0 -201 39l-71 -98l-154 111l68 92q-142 139 -142 344zM268 471q0 -101 51 -178l390 538q-42 13 -86 13
q-158 0 -257 -109q-98 -109 -98 -264zM862 721l-389 -541q43 -12 90 -12q149 0 250 104q100 104 100 269q0 99 -51 180z" />
    <glyph glyph-name="ugrave" unicode="&#xf9;" 
d="M51 309q0 39 6 82l99 621h217l-101 -617q-4 -28 -4 -45q0 -86 55 -134t146 -48q113 0 195 81q84 82 106 222l86 541h217l-162 -1012h-217l23 137q-135 -166 -344 -166q-140 0 -231 94t-91 244zM586 1153l-246 281h283l141 -281h-178z" />
    <glyph glyph-name="uacute" unicode="&#xfa;" 
d="M51 309q0 39 6 82l99 621h217l-101 -617q-4 -28 -4 -45q0 -86 55 -134t146 -48q113 0 195 81q84 82 106 222l86 541h217l-162 -1012h-217l23 137q-135 -166 -344 -166q-140 0 -231 94t-91 244zM643 1153h-186l227 281h291z" />
    <glyph glyph-name="ucircumflex" unicode="&#xfb;" 
d="M51 309q0 39 6 82l99 621h217l-101 -617q-4 -28 -4 -45q0 -86 55 -134t146 -48q113 0 195 81q84 82 106 222l86 541h217l-162 -1012h-217l23 137q-135 -166 -344 -166q-140 0 -231 94t-91 244zM467 1153h-168l236 281h262l149 -281h-160l-137 152z" />
    <glyph glyph-name="udieresis" unicode="&#xfc;" 
d="M51 309q0 39 6 82l99 621h217l-101 -617q-4 -28 -4 -45q0 -86 55 -134t146 -48q113 0 195 81q84 82 106 222l86 541h217l-162 -1012h-217l23 137q-135 -166 -344 -166q-140 0 -231 94t-91 244zM340 1194q-37 37 -37 92q0 54 37 91q38 38 92 38q53 0 91 -38t38 -91
q0 -54 -38 -92q-37 -37 -91 -37q-55 0 -92 37zM719 1194q-37 37 -37 92q0 54 37 91q38 38 92 38q53 0 91 -38t38 -91q0 -54 -38 -92q-37 -37 -91 -37q-55 0 -92 37z" />
    <glyph glyph-name="yacute" unicode="&#xfd;" horiz-adv-x="1058" 
d="M133 -463h-231l432 653l-266 822h223l188 -586l373 586h233zM598 1153h-186l227 281h291z" />
    <glyph glyph-name="thorn" unicode="&#xfe;" horiz-adv-x="1226" 
d="M141 -463h-217l301 1897h217l-86 -545q65 70 154.5 110.5t191.5 40.5q196 0 323 -129q128 -130 128 -350q0 -115 -42.5 -222.5t-118.5 -189.5q-76 -83 -187 -130.5t-236 -47.5q-105 0 -196 42q-90 42 -140 104zM281 446q0 -117 86 -198q86 -80 202 -80q156 0 261 112
q106 112 106 263q0 133 -82 216q-81 85 -209 85q-150 0 -257 -116t-107 -282z" />
    <glyph glyph-name="ydieresis" unicode="&#xff;" horiz-adv-x="1058" 
d="M133 -463h-231l432 653l-266 822h223l188 -586l373 586h233zM305 1194q-37 37 -37 92q0 54 37 91q38 38 92 38q53 0 91 -38t38 -91q0 -54 -38 -92q-37 -37 -91 -37q-55 0 -92 37zM684 1194q-37 37 -37 92q0 54 37 91q38 38 92 38q53 0 91 -38t38 -91q0 -54 -38 -92
q-37 -37 -91 -37q-55 0 -92 37z" />
    <glyph glyph-name="Amacron" unicode="&#x100;" horiz-adv-x="1396" 
d="M160 0h-238l854 1434h70l401 -1434h-225l-74 266h-635zM748 995l-312 -524h455zM1081 1610h-491l26 162h492z" />
    <glyph glyph-name="amacron" unicode="&#x101;" horiz-adv-x="1267" 
d="M51 455q0 163 72 296q75 135 205 211q134 78 301 78q104 0 194 -42q90 -41 131 -107l23 121h217l-162 -1012h-217l16 100q-132 -129 -329 -129q-86 0 -168.5 36t-145.5 99q-63 64 -100 156t-37 193zM268 469q0 -131 86 -217q87 -84 205 -84q159 0 254 107q94 107 94 268
q0 135 -81 217q-81 84 -195 84q-150 0 -257 -107q-106 -106 -106 -268zM942 1188h-491l26 162h492z" />
    <glyph glyph-name="Abreve" unicode="&#x102;" horiz-adv-x="1396" 
d="M160 0h-238l854 1434h70l401 -1434h-225l-74 266h-635zM748 995l-312 -524h455zM612 1735q0 18 4 39h152q-2 -8 -2 -21q0 -36 22.5 -59t55.5 -23q42 0 69 27.5t35 75.5h152q-18 -113 -89 -176.5t-184 -63.5q-89 0 -153 56q-62 57 -62 145z" />
    <glyph glyph-name="abreve" unicode="&#x103;" horiz-adv-x="1267" 
d="M51 455q0 163 72 296q75 135 205 211q134 78 301 78q104 0 194 -42q90 -41 131 -107l23 121h217l-162 -1012h-217l16 100q-132 -129 -329 -129q-86 0 -168.5 36t-145.5 99q-63 64 -100 156t-37 193zM268 469q0 -131 86 -217q87 -84 205 -84q159 0 254 107q94 107 94 268
q0 135 -81 217q-81 84 -195 84q-150 0 -257 -107q-106 -106 -106 -268zM465 1354q0 18 4 39h152q-3 -9 -3 -21q0 -36 22.5 -59t55.5 -23q42 0 69.5 27.5t35.5 75.5h151q-18 -113 -88.5 -176.5t-183.5 -63.5q-89 0 -153 56q-62 57 -62 145z" />
    <glyph glyph-name="Aogonek" unicode="&#x104;" horiz-adv-x="1396" 
d="M160 0h-238l854 1434h70l401 -1434q-88 -69 -132 -128t-44 -124q0 -52 33 -84.5t86 -32.5q80 0 145 45l19 -6l-39 -129q-79 -33 -176 -33q-101 0 -171 56q-69 56 -69 149q0 175 207 287h-84l-74 266h-635zM748 995l-312 -524h455z" />
    <glyph glyph-name="aogonek" unicode="&#x105;" horiz-adv-x="1267" 
d="M51 455q0 163 72 296q75 135 205 211q134 78 301 78q104 0 194 -42q90 -41 131 -107l23 121h217l-162 -1012q-88 -69 -132 -128t-44 -124q0 -52 33 -84.5t86 -32.5q81 0 145 45l19 -6l-39 -129q-80 -33 -176 -33q-101 0 -171 56q-69 56 -69 149q0 175 207 287h-76l16 100
q-132 -129 -329 -129q-86 0 -168.5 36t-145.5 99q-63 64 -100 156t-37 193zM268 469q0 -131 86 -217q87 -84 205 -84q159 0 254 107q94 107 94 268q0 135 -81 217q-81 84 -195 84q-150 0 -257 -107q-106 -106 -106 -268z" />
    <glyph glyph-name="Cacute" unicode="&#x106;" horiz-adv-x="1351" 
d="M68 633q0 169 62 321.5t173 265.5t271 177q162 65 346 65q246 0 419 -125l-22 -245h-29q-180 165 -385 165q-126 0 -239.5 -50.5t-192.5 -137.5q-78 -86 -122 -196t-44 -224q0 -219 127 -346t320 -127q204 0 419 166h29l-59 -256q-102 -59 -202 -87q-99 -28 -228 -28
q-124 0 -240.5 47.5t-206.5 132.5q-89 85 -143 210q-53 127 -53 272zM971 1575h-187l228 280h291z" />
    <glyph glyph-name="cacute" unicode="&#x107;" horiz-adv-x="1015" 
d="M45 449q0 252 176 422q175 169 443 169q180 0 290 -86l-24 -221h-25q-65 59 -125 85t-137 26q-161 0 -271 -109q-110 -108 -110 -270q0 -131 81 -214t192 -83q80 0 148 27q72 31 151 92h24l-47 -226q-133 -90 -305 -90q-175 0 -314 125q-68 62 -107.5 154.5t-39.5 198.5z
M700 1153h-186l227 281h291z" />
    <glyph glyph-name="Ccircumflex" unicode="&#x108;" horiz-adv-x="1351" 
d="M68 633q0 169 62 321.5t173 265.5t271 177q162 65 346 65q246 0 419 -125l-22 -245h-29q-180 165 -385 165q-126 0 -239.5 -50.5t-192.5 -137.5q-78 -86 -122 -196t-44 -224q0 -219 127 -346t320 -127q204 0 419 166h29l-59 -256q-102 -59 -202 -87q-99 -28 -228 -28
q-124 0 -240.5 47.5t-206.5 132.5q-89 85 -143 210q-53 127 -53 272zM764 1575h-168l235 280h263l149 -280h-160l-137 151z" />
    <glyph glyph-name="ccircumflex" unicode="&#x109;" horiz-adv-x="1015" 
d="M45 449q0 252 176 422q175 169 443 169q180 0 290 -86l-24 -221h-25q-65 59 -125 85t-137 26q-161 0 -271 -109q-110 -108 -110 -270q0 -131 81 -214t192 -83q80 0 148 27q72 31 151 92h24l-47 -226q-133 -90 -305 -90q-175 0 -314 125q-68 62 -107.5 154.5t-39.5 198.5z
M489 1153h-167l235 281h262l150 -281h-160l-137 152z" />
    <glyph glyph-name="Cdotaccent" unicode="&#x10a;" horiz-adv-x="1351" 
d="M68 633q0 169 62 321.5t173 265.5t271 177q162 65 346 65q246 0 419 -125l-22 -245h-29q-180 165 -385 165q-126 0 -239.5 -50.5t-192.5 -137.5q-78 -86 -122 -196t-44 -224q0 -219 127 -346t320 -127q204 0 419 166h29l-59 -256q-102 -59 -202 -87q-99 -28 -228 -28
q-124 0 -240.5 47.5t-206.5 132.5q-89 85 -143 210q-53 127 -53 272zM885 1640q-41 43 -41 101q0 59 41 100t100 41t100 -41t41 -100t-42 -101q-41 -41 -99 -41q-57 0 -100 41z" />
    <glyph glyph-name="cdotaccent" unicode="&#x10b;" horiz-adv-x="1015" 
d="M45 449q0 252 176 422q175 169 443 169q180 0 290 -86l-24 -221h-25q-65 59 -125 85t-137 26q-161 0 -271 -109q-110 -108 -110 -270q0 -131 81 -214t192 -83q80 0 148 27q72 31 151 92h24l-47 -226q-133 -90 -305 -90q-175 0 -314 125q-68 62 -107.5 154.5t-39.5 198.5z
M614 1219q-41 43 -41 100q0 58 41 99q42 42 101 42t100 -41t41 -100t-41 -100t-100 -41q-58 0 -101 41z" />
    <glyph glyph-name="Ccaron" unicode="&#x10c;" horiz-adv-x="1351" 
d="M68 633q0 169 62 321.5t173 265.5t271 177q162 65 346 65q246 0 419 -125l-22 -245h-29q-180 165 -385 165q-126 0 -239.5 -50.5t-192.5 -137.5q-78 -86 -122 -196t-44 -224q0 -219 127 -346t320 -127q204 0 419 166h29l-59 -256q-102 -59 -202 -87q-99 -28 -228 -28
q-124 0 -240.5 47.5t-206.5 132.5q-89 85 -143 210q-53 127 -53 272zM809 1575l-150 280h160l137 -151l183 151h168l-236 -280h-262z" />
    <glyph glyph-name="ccaron" unicode="&#x10d;" horiz-adv-x="1015" 
d="M45 449q0 252 176 422q175 169 443 169q180 0 290 -86l-24 -221h-25q-65 59 -125 85t-137 26q-161 0 -271 -109q-110 -108 -110 -270q0 -131 81 -214t192 -83q80 0 148 27q72 31 151 92h24l-47 -226q-133 -90 -305 -90q-175 0 -314 125q-68 62 -107.5 154.5t-39.5 198.5z
M532 1153l-149 281h160l137 -152l182 152h168l-235 -281h-263z" />
    <glyph glyph-name="Dcaron" unicode="&#x10e;" horiz-adv-x="1302" 
d="M358 0h-338l228 1434h338q284 0 462 -164q88 -80 136.5 -202.5t48.5 -272.5q0 -163 -63 -308.5t-177 -254.5q-114 -108 -277 -170q-166 -62 -358 -62zM453 1229l-162 -1024h102q259 0 431 161q171 162 171 410q0 228 -117 340q-118 113 -323 113h-102zM516 1575l-149 280
h159l138 -151l182 151h168l-236 -280h-262z" />
    <glyph glyph-name="dcaron" unicode="&#x10f;" horiz-adv-x="1624" 
d="M55 457q0 234 148 404q73 83 186 131t246 48q105 0 194 -43q91 -43 142 -112l94 590h217l-233 -1475h-218l19 117q-68 -75 -146 -110.5t-186 -35.5q-125 0 -231 61q-105 62 -169 173q-63 113 -63 252zM272 473q0 -134 84 -220q84 -85 211 -85q158 0 258 115
q101 116 101 282q0 119 -84 199q-85 80 -213 80q-106 0 -189 -53q-82 -52 -125 -135.5t-43 -182.5zM1403 950l-29 43q118 87 142 187q-41 4 -78 43q-35 38 -35 88q0 63 38 103t95 40q62 0 101 -42q40 -41 40 -103q0 -119 -91 -213q-69 -73 -183 -146z" />
    <glyph glyph-name="Dcroat" unicode="&#x110;" horiz-adv-x="1325" 
d="M141 627h-151l24 176h156l100 631h338q284 0 462 -164q88 -80 136.5 -202.5t48.5 -272.5q0 -162 -63 -307.5t-176 -255.5q-114 -108 -277 -170q-166 -62 -358 -62h-338zM379 627l-66 -422h103q259 0 431 161q171 162 171 410q0 228 -117 340q-118 113 -323 113h-103
l-67 -426h258l-27 -176h-260z" />
    <glyph glyph-name="dslash" unicode="&#x111;" horiz-adv-x="1282" 
d="M55 457q0 234 148 404q73 83 186 131t246 48q105 0 194 -43q91 -43 142 -112l45 284h-307l22 148h309l25 158h217l-25 -158h160l-22 -148h-162l-184 -1169h-218l19 117q-68 -75 -146 -110.5t-186 -35.5q-125 0 -231 61q-105 62 -169 173q-63 113 -63 252zM272 473
q0 -134 84 -220q84 -85 211 -85q158 0 258 115q101 116 101 282q0 119 -84 199q-85 80 -213 80q-106 0 -189 -53q-82 -52 -125 -135.5t-43 -182.5z" />
    <glyph glyph-name="Emacron" unicode="&#x112;" horiz-adv-x="1089" 
d="M895 0h-875l228 1434h866l-33 -205h-628l-62 -389h606l-32 -205h-607l-67 -430h637zM965 1610h-492l27 162h491z" />
    <glyph glyph-name="emacron" unicode="&#x113;" horiz-adv-x="1173" 
d="M49 457q0 108 40 211.5t113 187.5q75 84 186 133q112 51 247 51q195 0 320 -119q126 -119 126 -292q0 -53 -8 -99l-12 -79h-795q4 -129 89.5 -209.5t195.5 -77.5q106 0 199 33t192 110h23l-43 -217q-98 -66 -178 -92q-80 -27 -203 -27q-89 0 -177 34t-158 94
q-72 63 -114.5 157t-42.5 201zM287 606h585q0 124 -66 193t-190 69q-117 0 -205 -74q-87 -73 -124 -188zM895 1188h-492l27 162h492z" />
    <glyph glyph-name="Ebreve" unicode="&#x114;" horiz-adv-x="1089" 
d="M895 0h-875l228 1434h866l-33 -205h-628l-62 -389h606l-32 -205h-607l-67 -430h637zM500 1735q0 18 4 39h151q-2 -8 -2 -21q0 -36 22.5 -59t55.5 -23q42 0 69.5 27.5t35.5 75.5h151q-18 -113 -88.5 -176.5t-183.5 -63.5q-89 0 -153 56q-62 57 -62 145z" />
    <glyph glyph-name="ebreve" unicode="&#x115;" horiz-adv-x="1173" 
d="M49 457q0 108 40 211.5t113 187.5q75 84 186 133q112 51 247 51q195 0 320 -119q126 -119 126 -292q0 -53 -8 -99l-12 -79h-795q4 -129 89.5 -209.5t195.5 -77.5q106 0 199 33t192 110h23l-43 -217q-98 -66 -178 -92q-80 -27 -203 -27q-89 0 -177 34t-158 94
q-72 63 -114.5 157t-42.5 201zM287 606h585q0 124 -66 193t-190 69q-117 0 -205 -74q-87 -73 -124 -188zM455 1354q0 18 4 39h151q-2 -8 -2 -21q0 -36 22.5 -59t55.5 -23q42 0 69.5 27.5t35.5 75.5h151q-18 -113 -88.5 -176.5t-183.5 -63.5q-89 0 -153 56q-62 57 -62 145z
" />
    <glyph glyph-name="Edotaccent" unicode="&#x116;" horiz-adv-x="1089" 
d="M895 0h-875l228 1434h866l-33 -205h-628l-62 -389h606l-32 -205h-607l-67 -430h637zM631 1640q-41 43 -41 101q0 59 41 100t100 41t100 -41t41 -100t-42 -101q-41 -41 -99 -41q-57 0 -100 41z" />
    <glyph glyph-name="edotaccent" unicode="&#x117;" horiz-adv-x="1173" 
d="M49 457q0 108 40 211.5t113 187.5q75 84 186 133q112 51 247 51q195 0 320 -119q126 -119 126 -292q0 -53 -8 -99l-12 -79h-795q4 -129 89.5 -209.5t195.5 -77.5q106 0 199 33t192 110h23l-43 -217q-98 -66 -178 -92q-80 -27 -203 -27q-89 0 -177 34t-158 94
q-72 63 -114.5 157t-42.5 201zM287 606h585q0 124 -66 193t-190 69q-117 0 -205 -74q-87 -73 -124 -188zM580 1219q-41 41 -41 100t41 100q43 41 100 41q58 0 99 -41q42 -40 42 -100q0 -59 -42 -100q-41 -41 -99 -41q-57 0 -100 41z" />
    <glyph glyph-name="Eogonek" unicode="&#x118;" horiz-adv-x="1089" 
d="M754 0h-734l228 1434h866l-33 -205h-628l-62 -389h606l-32 -205h-607l-67 -430h637l-33 -205q-88 -69 -132 -128t-44 -124q0 -52 33 -84.5t86 -32.5q80 0 145 45l18 -6l-38 -129q-79 -33 -177 -33q-101 0 -171 56q-68 56 -68 149q0 175 207 287z" />
    <glyph glyph-name="eogonek" unicode="&#x119;" horiz-adv-x="1173" 
d="M49 457q0 108 40 211.5t113 187.5q75 84 186 133q112 51 247 51q195 0 320 -119q126 -119 126 -292q0 -53 -8 -99l-12 -79h-795q4 -129 89.5 -209.5t195.5 -77.5q106 0 199 33t192 110h23l-43 -217q-101 -68 -172 -90q-89 -68 -133 -127t-44 -125q0 -52 33 -84.5
t86 -32.5q81 0 146 45l18 -6l-39 -129q-80 -33 -176 -33q-101 0 -171 56q-69 56 -69 149q0 150 160 258h-20q-89 0 -177 34t-158 94q-72 63 -114.5 157t-42.5 201zM287 606h585q0 124 -66 193t-190 69q-117 0 -205 -74q-87 -73 -124 -188z" />
    <glyph glyph-name="Ecaron" unicode="&#x11a;" horiz-adv-x="1089" 
d="M895 0h-875l228 1434h866l-33 -205h-628l-62 -389h606l-32 -205h-607l-67 -430h637zM561 1575l-149 280h159l138 -151l182 151h168l-236 -280h-262z" />
    <glyph glyph-name="ecaron" unicode="&#x11b;" horiz-adv-x="1173" 
d="M49 457q0 108 40 211.5t113 187.5q75 84 186 133q112 51 247 51q195 0 320 -119q126 -119 126 -292q0 -53 -8 -99l-12 -79h-795q4 -129 89.5 -209.5t195.5 -77.5q106 0 199 33t192 110h23l-43 -217q-98 -66 -178 -92q-80 -27 -203 -27q-89 0 -177 34t-158 94
q-72 63 -114.5 157t-42.5 201zM287 606h585q0 124 -66 193t-190 69q-117 0 -205 -74q-87 -73 -124 -188zM518 1153l-149 281h159l138 -152l182 152h168l-236 -281h-262z" />
    <glyph glyph-name="Gcircumflex" unicode="&#x11c;" horiz-adv-x="1513" 
d="M68 633q0 169 63 321q65 152 177 264q114 114 280 178q166 66 364 66q288 0 457 -131l-18 -252h-31q-93 85 -204.5 131.5t-225.5 46.5q-130 0 -248 -50q-114 -48 -199 -133q-83 -84 -130.5 -195.5t-47.5 -227.5q0 -112 35 -203.5t97 -152.5q125 -119 313 -119
q197 0 360 127l47 303h-428l33 205h665l-94 -598q-170 -134 -304 -188q-133 -54 -312 -54q-125 0 -243 47.5t-209 132.5q-90 85 -144 210q-53 127 -53 272zM803 1575h-168l235 280h263l149 -280h-160l-137 151z" />
    <glyph glyph-name="gcircumflex" unicode="&#x11d;" horiz-adv-x="1253" 
d="M51 463q-3 159 73.5 293t212 210.5t296.5 73.5q101 0 183 -37.5t128 -101.5l19 111h217l-152 -944q-48 -299 -201 -430q-151 -130 -424 -130q-192 0 -321 84l27 218h41q48 -48 121.5 -76.5t158.5 -28.5q149 0 250 83t125 232l16 109q-121 -129 -305 -129q-132 0 -239 64
q-108 65 -167 170q-59 107 -59 229zM268 481q0 -122 82 -203t205 -81q155 0 254 104q100 103 100 258q0 126 -76 205q-77 80 -206 80q-151 0 -255 -107t-104 -256zM510 1153h-168l236 281h262l149 -281h-160l-137 152z" />
    <glyph glyph-name="Gbreve" unicode="&#x11e;" horiz-adv-x="1513" 
d="M68 633q0 169 63 321q65 152 177 264q114 114 280 178q166 66 364 66q288 0 457 -131l-18 -252h-31q-93 85 -204.5 131.5t-225.5 46.5q-130 0 -248 -50q-114 -48 -199 -133q-83 -84 -130.5 -195.5t-47.5 -227.5q0 -112 35 -203.5t97 -152.5q125 -119 313 -119
q197 0 360 127l47 303h-428l33 205h665l-94 -598q-170 -134 -304 -188q-133 -54 -312 -54q-125 0 -243 47.5t-209 132.5q-90 85 -144 210q-53 127 -53 272zM741 1776q0 18 4 39h152q-2 -8 -2 -21q0 -36 22.5 -59t55.5 -23q42 0 69 27.5t35 75.5h152q-18 -113 -89 -176.5
t-184 -63.5q-89 0 -153 56q-62 57 -62 145z" />
    <glyph glyph-name="gbreve" unicode="&#x11f;" horiz-adv-x="1253" 
d="M51 463q-3 159 73.5 293t212 210.5t296.5 73.5q101 0 183 -37.5t128 -101.5l19 111h217l-152 -944q-48 -299 -201 -430q-151 -130 -424 -130q-192 0 -321 84l27 218h41q48 -48 121.5 -76.5t158.5 -28.5q149 0 250 83t125 232l16 109q-121 -129 -305 -129q-132 0 -239 64
q-108 65 -167 170q-59 107 -59 229zM268 481q0 -122 82 -203t205 -81q155 0 254 104q100 103 100 258q0 126 -76 205q-77 80 -206 80q-151 0 -255 -107t-104 -256zM479 1354q0 18 4 39h152q-2 -8 -2 -21q0 -36 22.5 -59t55.5 -23q42 0 69 27.5t35 75.5h152
q-18 -113 -89 -176.5t-184 -63.5q-89 0 -153 56q-62 57 -62 145z" />
    <glyph glyph-name="Gdotaccent" unicode="&#x120;" horiz-adv-x="1513" 
d="M68 633q0 169 63 321q65 152 177 264q114 114 280 178q166 66 364 66q288 0 457 -131l-18 -252h-31q-93 85 -204.5 131.5t-225.5 46.5q-130 0 -248 -50q-114 -48 -199 -133q-83 -84 -130.5 -195.5t-47.5 -227.5q0 -112 35 -203.5t97 -152.5q125 -119 313 -119
q197 0 360 127l47 303h-428l33 205h665l-94 -598q-170 -134 -304 -188q-133 -54 -312 -54q-125 0 -243 47.5t-209 132.5q-90 85 -144 210q-53 127 -53 272zM887 1640q-41 43 -41 101q0 59 41 100t100 41t100 -41t41 -100t-42 -101q-41 -41 -99 -41q-57 0 -100 41z" />
    <glyph glyph-name="gdotaccent" unicode="&#x121;" horiz-adv-x="1253" 
d="M51 463q-3 159 73.5 293t212 210.5t296.5 73.5q101 0 183 -37.5t128 -101.5l19 111h217l-152 -944q-48 -299 -201 -430q-151 -130 -424 -130q-192 0 -321 84l27 218h41q48 -48 121.5 -76.5t158.5 -28.5q149 0 250 83t125 232l16 109q-121 -129 -305 -129q-132 0 -239 64
q-108 65 -167 170q-59 107 -59 229zM268 481q0 -122 82 -203t205 -81q155 0 254 104q100 103 100 258q0 126 -76 205q-77 80 -206 80q-151 0 -255 -107t-104 -256zM610 1219q-41 43 -41 100q0 58 41 99q42 42 101 42t100 -41t41 -100t-41 -100t-100 -41q-58 0 -101 41z" />
    <glyph glyph-name="uni0122" unicode="&#x122;" horiz-adv-x="1513" 
d="M68 633q0 169 63 321q65 152 177 264q114 114 280 178q166 66 364 66q288 0 457 -131l-18 -252h-31q-93 85 -204.5 131.5t-225.5 46.5q-130 0 -248 -50q-114 -48 -199 -133q-83 -84 -130.5 -195.5t-47.5 -227.5q0 -112 35 -203.5t97 -152.5q125 -119 313 -119
q197 0 360 127l47 303h-428l33 205h665l-94 -598q-170 -134 -304 -188q-133 -54 -312 -54q-125 0 -243 47.5t-209 132.5q-90 85 -144 210q-53 127 -53 272zM535 -643l-11 47q58 37 90.5 79t49.5 101q-42 4 -79 43q-36 37 -36 90q0 58 38 101q39 41 97 41q60 0 99 -42
q40 -43 40 -102q0 -121 -93 -217q-80 -86 -195 -141z" />
    <glyph glyph-name="uni0123" unicode="&#x123;" horiz-adv-x="1253" 
d="M51 463q-3 159 73.5 293t212 210.5t296.5 73.5q101 0 183 -37.5t128 -101.5l19 111h217l-152 -944q-48 -299 -201 -430q-151 -130 -424 -130q-192 0 -321 84l27 218h41q48 -48 121.5 -76.5t158.5 -28.5q149 0 250 83t125 232l16 109q-121 -129 -305 -129q-132 0 -239 64
q-108 65 -167 170q-59 107 -59 229zM268 481q0 -122 82 -203t205 -81q155 0 254 104q100 103 100 258q0 126 -76 205q-77 80 -206 80q-151 0 -255 -107t-104 -256zM561 1362q0 116 91 212q79 80 184 146l28 -43q-117 -85 -141 -186q42 -4 77 -43q36 -38 36 -88
q0 -62 -39 -103q-37 -40 -95 -40q-62 0 -102 42q-39 42 -39 103z" />
    <glyph glyph-name="Hcircumflex" unicode="&#x124;" horiz-adv-x="1363" 
d="M258 0h-238l228 1434h237l-92 -576h623l92 576h238l-228 -1434h-237l104 653h-623zM657 1575h-168l236 280h262l150 -280h-160l-137 151z" />
    <glyph glyph-name="hcircumflex" unicode="&#x125;" horiz-adv-x="1161" 
d="M223 0h-217l236 1475h217l-97 -601q68 76 164 120q96 46 199 46q146 0 236 -84t90 -227q0 -33 -7 -76l-104 -653h-217l98 608q4 28 4 49q0 89 -53.5 138t-146.5 49q-117 0 -206 -83q-87 -83 -110 -220zM422 1575h-168l235 280h263l149 -280h-160l-137 151z" />
    <glyph glyph-name="Hbar" unicode="&#x126;" horiz-adv-x="1404" 
d="M276 0h-237l168 1057h-156l27 162h153l35 215h238l-35 -215h623l34 215h238l-35 -215h154l-27 -162h-151l-168 -1057h-238l105 653h-623zM444 1057l-32 -199h622l33 199h-623z" />
    <glyph glyph-name="hbar" unicode="&#x127;" horiz-adv-x="1161" 
d="M223 0h-217l187 1169h-154l22 148h154l27 158h217l-27 -158h281l-23 -148h-280l-48 -295q68 76 164 120q96 46 199 46q146 0 236 -84t90 -227q0 -33 -7 -76l-104 -653h-217l98 608q4 28 4 49q0 89 -53.5 138t-146.5 49q-117 0 -206 -83q-87 -83 -110 -220z" />
    <glyph glyph-name="Itilde" unicode="&#x128;" horiz-adv-x="503" 
d="M258 0h-238l228 1434h237zM51 1585h-16l41 170q98 90 203 90q90 0 168 -56t143 -56q83 0 184 98h17l-41 -170q-44 -47 -90 -68.5t-107 -21.5q-87 0 -169 56q-80 56 -140 56q-83 0 -193 -98z" />
    <glyph glyph-name="itilde" unicode="&#x129;" horiz-adv-x="479" 
d="M-33 1163h-16l41 170q97 90 203 90q90 0 168 -56t143 -56q83 0 184 98h17l-41 -170q-44 -47 -90 -68.5t-107 -21.5q-87 0 -169 56q-79 57 -140 57q-84 0 -193 -99zM236 0h-218l162 1012h217z" />
    <glyph glyph-name="Imacron" unicode="&#x12a;" horiz-adv-x="503" 
d="M258 0h-238l228 1434h237zM633 1610h-492l27 162h491z" />
    <glyph glyph-name="imacron" unicode="&#x12b;" horiz-adv-x="479" 
d="M236 0h-218l162 1012h217zM557 1188h-491l26 162h492z" />
    <glyph glyph-name="Ibreve" unicode="&#x12c;" horiz-adv-x="503" 
d="M258 0h-238l228 1434h237zM170 1776q0 18 4 39h152q-2 -8 -2 -21q0 -36 22 -59t55 -23q42 0 69.5 27.5t35.5 75.5h151q-18 -113 -88.5 -176.5t-183.5 -63.5q-89 0 -153 56q-62 57 -62 145z" />
    <glyph glyph-name="ibreve" unicode="&#x12d;" horiz-adv-x="479" 
d="M236 0h-218l162 1012h217zM96 1354q0 18 4 39h152q-2 -8 -2 -21q0 -36 22.5 -59t55.5 -23q42 0 69 27.5t35 75.5h152q-18 -113 -89 -176.5t-184 -63.5q-89 0 -153 56q-62 57 -62 145z" />
    <glyph glyph-name="Iogonek" unicode="&#x12e;" horiz-adv-x="503" 
d="M-90 -287q0 175 207 287h-97l228 1434h237l-227 -1434q-88 -69 -132 -128t-44 -124q0 -52 33 -84.5t86 -32.5q81 0 145 45l19 -6l-39 -129q-80 -33 -176 -33q-101 0 -171 56q-69 56 -69 149z" />
    <glyph glyph-name="iogonek" unicode="&#x12f;" horiz-adv-x="479" 
d="M-111 -287q0 175 207 287h-76l160 1012h217l-159 -1012q-89 -68 -133 -127t-44 -125q0 -52 33 -84.5t86 -32.5q82 0 146 45l18 -6l-39 -129q-80 -33 -176 -33q-101 0 -171 56q-69 56 -69 149zM240 1219q-41 41 -41 100t41 100q43 41 100 41q58 0 99 -41q42 -41 42 -100
t-42 -100q-41 -41 -99 -41q-57 0 -100 41z" />
    <glyph glyph-name="Idot" unicode="&#x130;" horiz-adv-x="503" 
d="M258 0h-238l228 1434h237zM274 1741q0 58 41 99q42 42 101 42q58 0 99 -41q42 -40 42 -100q0 -59 -42 -101q-41 -41 -99 -41q-57 0 -100 41q-42 42 -42 101z" />
    <glyph glyph-name="dotlessi" unicode="&#x131;" horiz-adv-x="479" 
d="M233 0h-217l162 1012h217z" />
    <glyph glyph-name="IJ" unicode="&#x132;" horiz-adv-x="1202" 
d="M123 10l10 246h23q125 -80 305 -80q62 0 113.5 14t96 45t75 85t42.5 129l19 112q-124 -98 -279 -98q-168 0 -277 103q-110 104 -110 288q0 42 9 100l75 480h238l-80 -508q-4 -28 -4 -47q0 -95 60 -154q61 -57 153 -57q106 0 179 64.5t91 187.5l82 514h238l-154 -969
q-41 -249 -199 -371q-159 -123 -399 -123q-170 0 -307 39z" />
    <glyph glyph-name="ij" unicode="&#x133;" horiz-adv-x="1112" 
d="M-25 -412l25 217h39q72 -52 137 -71q68 -21 160 -21q134 0 221.5 81t110.5 226l10 66q-65 -64 -131 -89q-67 -26 -164 -26q-113 0 -215 83q-50 43 -79.5 110.5t-29.5 146.5q0 33 7 74l98 627h217l-100 -619q-5 -38 -5 -39q0 -84 55 -135t142 -51q107 0 173 70.5t87 201.5
l90 572h217l-151 -965q-44 -279 -204 -411q-152 -128 -372 -128q-189 0 -338 80zM324 1460q58 0 99 -41q42 -41 42 -100t-42 -100q-41 -41 -99 -41t-101 41q-41 43 -41 100q0 58 41 99q42 42 101 42zM881 1219q-41 41 -41 100t41 100t100 41t100 -41t41 -100t-41 -100
t-100 -41t-100 41z" />
    <glyph glyph-name="Jcircumflex" unicode="&#x134;" horiz-adv-x="817" 
d="M2 0l10 223h33q76 -47 156 -47q71 0 121 51.5t65 151.5l168 1055h238l-168 -1051q-32 -201 -138 -306.5t-274 -105.5q-100 0 -211 29zM526 1575h-168l236 280h262l150 -280h-160l-137 151z" />
    <glyph glyph-name="jcircumflex" unicode="&#x135;" horiz-adv-x="483" 
d="M-258 -457l10 189h29q47 -39 100 -39q95 0 115 123l188 1196h217l-188 -1192q-49 -312 -338 -312q-77 0 -133 35zM156 1153h-168l235 281h262l150 -281h-160l-137 152z" />
    <glyph glyph-name="uni0136" unicode="&#x136;" horiz-adv-x="1230" 
d="M258 0h-238l228 1434h237l-102 -656l612 656h275l-666 -699l488 -735h-275l-452 678zM332 -647l-10 47q58 37 90 78.5t49 101.5q-42 4 -79 43q-36 37 -36 90q0 58 38 101q39 41 97 41q60 0 100 -43t40 -101q0 -115 -84 -206q-83 -92 -205 -152z" />
    <glyph glyph-name="uni0137" unicode="&#x137;" horiz-adv-x="1007" 
d="M223 0h-217l236 1475h217l-144 -904l433 441h262l-490 -482l328 -530h-246l-301 492zM201 -647l-11 47q58 37 90.5 79t49.5 101q-42 4 -79 43q-36 37 -36 90q0 58 38 101q39 41 97 41q60 0 99 -42q40 -43 40 -102q0 -121 -93 -217q-80 -86 -195 -141z" />
    <glyph glyph-name="kgreenlandic" unicode="&#x138;" horiz-adv-x="1007" 
d="M223 0h-217l162 1012h217l-70 -441l433 441h262l-490 -482l328 -530h-246l-301 492z" />
    <glyph glyph-name="Lacute" unicode="&#x139;" horiz-adv-x="1163" 
d="M969 0h-949l228 1434h237l-194 -1229h710zM446 1575h-186l227 280h291z" />
    <glyph glyph-name="lacute" unicode="&#x13a;" horiz-adv-x="458" 
d="M223 0h-217l236 1475h217zM401 1575h-186l227 280h291z" />
    <glyph glyph-name="uni013B" unicode="&#x13b;" horiz-adv-x="1163" 
d="M969 0h-949l228 1434h237l-194 -1229h710zM279 -647l-11 47q58 37 90.5 79t49.5 101q-42 4 -79 43q-36 37 -36 90q0 58 38 101q39 41 97 41q60 0 99 -42q40 -43 40 -102q0 -121 -93 -217q-80 -86 -195 -141z" />
    <glyph glyph-name="uni013C" unicode="&#x13c;" horiz-adv-x="458" 
d="M-74 -647l-10 47q58 37 90 78.5t49 101.5q-42 4 -78 43q-36 37 -36 90q0 59 39 101q38 41 96 41q60 0 99 -42q40 -43 40 -102q0 -115 -84 -206q-83 -92 -205 -152zM223 0h-217l236 1475h217z" />
    <glyph glyph-name="Lcaron" unicode="&#x13d;" horiz-adv-x="1163" 
d="M969 0h-949l228 1434h237l-194 -1229h710zM852 950l-29 43q118 87 142 187q-41 4 -78 43q-35 38 -35 88q0 63 38 103t95 40q62 0 101 -42q40 -41 40 -103q0 -119 -91 -213q-69 -73 -183 -146z" />
    <glyph glyph-name="lcaron" unicode="&#x13e;" horiz-adv-x="825" 
d="M248 0h-217l235 1475h217zM604 950l-29 43q118 87 142 187q-41 4 -78 43q-35 38 -35 88q0 63 38 103t95 40q61 0 102 -42q40 -41 40 -103q0 -118 -92 -213q-69 -73 -183 -146z" />
    <glyph glyph-name="Ldot" unicode="&#x13f;" horiz-adv-x="1163" 
d="M969 0h-949l228 1434h237l-194 -1229h710zM745 646q-40 40 -40 97t40 97q41 41 97 41t97 -41q40 -40 40 -97t-40 -97t-97 -40t-97 40z" />
    <glyph glyph-name="ldot" unicode="&#x140;" horiz-adv-x="790" 
d="M248 0h-217l235 1475h217zM542 646q-40 40 -40 97t40 97q41 41 97 41t97 -41q40 -40 40 -97t-40 -97t-97 -40t-97 40z" />
    <glyph glyph-name="Lslash" unicode="&#x141;" horiz-adv-x="1148" 
d="M94 371l-168 -88l33 215l168 90l135 846h238l-113 -709l379 203l-33 -215l-381 -203l-47 -305h711l-33 -205h-948z" />
    <glyph glyph-name="lslash" unicode="&#x142;" horiz-adv-x="550" 
d="M129 453l-168 -91l33 216l170 90l129 807h217l-109 -682l170 92l-34 -215l-170 -92l-93 -578h-217z" />
    <glyph glyph-name="Nacute" unicode="&#x143;" horiz-adv-x="1415" 
d="M258 0h-238l228 1434h96l668 -936l147 936h238l-228 -1434h-96l-665 938zM838 1575h-187l228 280h290z" />
    <glyph glyph-name="nacute" unicode="&#x144;" horiz-adv-x="1142" 
d="M223 0h-217l162 1012h217l-23 -138q65 76 161 121t200 45q139 0 225 -84t86 -221q0 -29 -6 -76l-104 -659h-217l98 616q4 32 4 52q0 83 -50 129.5t-136 46.5q-116 0 -204 -85q-87 -83 -110 -218zM682 1153h-186l227 281h291z" />
    <glyph glyph-name="uni0145" unicode="&#x145;" horiz-adv-x="1415" 
d="M258 0h-238l228 1434h96l668 -936l147 936h238l-228 -1434h-96l-665 938zM444 -647l-10 47q58 37 90 78.5t49 101.5q-42 4 -79 43q-35 38 -35 90q0 58 38 101q39 41 97 41q60 0 99 -42q40 -43 40 -102q0 -115 -84 -206q-83 -92 -205 -152z" />
    <glyph glyph-name="uni0146" unicode="&#x146;" horiz-adv-x="1142" 
d="M223 0h-217l162 1012h217l-23 -138q65 76 161 121t200 45q139 0 225 -84t86 -221q0 -29 -6 -76l-104 -659h-217l98 616q4 32 4 52q0 83 -50 129.5t-136 46.5q-116 0 -204 -85q-87 -83 -110 -218zM289 -647l-10 47q58 37 90 78.5t49 101.5q-42 4 -79 43q-36 37 -36 90
q0 58 38 101q39 41 97 41q60 0 100 -43t40 -101q0 -115 -84 -206q-83 -92 -205 -152z" />
    <glyph glyph-name="Ncaron" unicode="&#x147;" horiz-adv-x="1415" 
d="M258 0h-238l228 1434h96l668 -936l147 936h238l-228 -1434h-96l-665 938zM684 1575l-149 280h159l137 -151l183 151h168l-236 -280h-262z" />
    <glyph glyph-name="ncaron" unicode="&#x148;" horiz-adv-x="1142" 
d="M223 0h-217l162 1012h217l-23 -138q65 76 161 121t200 45q139 0 225 -84t86 -221q0 -29 -6 -76l-104 -659h-217l98 616q4 32 4 52q0 83 -50 129.5t-136 46.5q-116 0 -204 -85q-87 -83 -110 -218zM514 1153l-149 281h159l138 -152l182 152h168l-236 -281h-262z" />
    <glyph glyph-name="napostrophe" unicode="&#x149;" horiz-adv-x="1347" 
d="M109 950l-29 43q115 85 141 187q-42 4 -77 43q-35 38 -35 88q0 63 38 103t95 40q62 0 101 -42q40 -41 40 -103q0 -119 -91 -213q-69 -73 -183 -146zM444 0h-217l162 1012h217l-22 -138q64 75 159 120q95 46 201 46q140 0 225 -84q86 -84 86 -221q0 -29 -6 -76l-104 -659
h-217l98 616q4 32 4 52q0 83 -50 129.5t-136 46.5q-116 0 -204 -85q-87 -83 -110 -218z" />
    <glyph glyph-name="Eng" unicode="&#x14a;" horiz-adv-x="1415" 
d="M258 0h-238l228 1434h96l647 -1065l168 1065h238l-240 -1514q-32 -201 -138 -306.5t-274 -105.5q-99 0 -210 29l10 223h33q76 -47 155 -47q71 0 121.5 52t65.5 151l12 84l-533 883z" />
    <glyph glyph-name="eng" unicode="&#x14b;" horiz-adv-x="1142" 
d="M223 0h-217l162 1012h217l-23 -138q65 76 161 121t200 45q139 0 225 -84t86 -221q0 -29 -6 -76l-133 -839q-49 -312 -338 -312q-77 0 -133 35l10 189h29q46 -39 100 -39q95 0 115 123l127 800q4 32 4 52q0 83 -50 129.5t-136 46.5q-116 0 -204 -85q-87 -83 -110 -218z
" />
    <glyph glyph-name="Omacron" unicode="&#x14c;" horiz-adv-x="1609" 
d="M68 639q0 254 135 462q66 105 163 186q97 83 229 129t282 46q133 0 256 -50q126 -51 212 -134q91 -85 143 -204q54 -119 54 -253q0 -175 -58 -332t-165 -272q-109 -118 -259 -182t-321 -64q-203 0 -378 117q-86 59 -151 137q-67 82 -104.5 189t-37.5 225zM305 649
q0 -106 38 -196.5t103 -152.5q133 -124 312 -124q118 0 223 50q103 51 174 134q71 84 110.5 191.5t39.5 220.5q0 104 -37 196t-101 156q-63 63 -142.5 98t-162.5 35q-161 0 -288 -82q-129 -82 -199 -220q-70 -137 -70 -306zM1143 1610h-492l27 162h491z" />
    <glyph glyph-name="omacron" unicode="&#x14d;" horiz-adv-x="1218" 
d="M51 459q0 111 42 216t118 186q78 83 190 131t238 48q211 0 351 -132q140 -131 140 -341q0 -166 -73 -302t-206 -215t-300 -79q-93 0 -182 34t-161 95q-73 62 -115 156.5t-42 202.5zM268 471q0 -139 86 -222q87 -81 209 -81q149 0 250 104q100 104 100 269q0 138 -82 220
q-83 83 -208 83q-158 0 -257 -109q-98 -109 -98 -264zM918 1188h-492l27 162h491z" />
    <glyph glyph-name="Obreve" unicode="&#x14e;" horiz-adv-x="1609" 
d="M68 639q0 254 135 462q66 105 163 186q97 83 229 129t282 46q133 0 256 -50q126 -51 212 -134q91 -85 143 -204q54 -119 54 -253q0 -175 -58 -332t-165 -272q-109 -118 -259 -182t-321 -64q-203 0 -378 117q-86 59 -151 137q-67 82 -104.5 189t-37.5 225zM305 649
q0 -106 38 -196.5t103 -152.5q133 -124 312 -124q118 0 223 50q103 51 174 134q71 84 110.5 191.5t39.5 220.5q0 104 -37 196t-101 156q-63 63 -142.5 98t-162.5 35q-161 0 -288 -82q-129 -82 -199 -220q-70 -137 -70 -306zM678 1776q0 18 4 39h152q-3 -9 -3 -21
q0 -36 22.5 -59t55.5 -23q42 0 69.5 27.5t35.5 75.5h151q-18 -113 -88.5 -176.5t-183.5 -63.5q-89 0 -153 56q-62 57 -62 145z" />
    <glyph glyph-name="obreve" unicode="&#x14f;" horiz-adv-x="1218" 
d="M51 459q0 111 42 216t118 186q78 83 190 131t238 48q211 0 351 -132q140 -131 140 -341q0 -166 -73 -302t-206 -215t-300 -79q-93 0 -182 34t-161 95q-73 62 -115 156.5t-42 202.5zM268 471q0 -139 86 -222q87 -81 209 -81q149 0 250 104q100 104 100 269q0 138 -82 220
q-83 83 -208 83q-158 0 -257 -109q-98 -109 -98 -264zM440 1354q0 18 4 39h152q-2 -8 -2 -21q0 -36 22.5 -59t55.5 -23q42 0 69 27.5t35 75.5h152q-18 -113 -89 -176.5t-184 -63.5q-89 0 -153 56q-62 57 -62 145z" />
    <glyph glyph-name="Ohungarumlaut" unicode="&#x150;" horiz-adv-x="1609" 
d="M68 639q0 254 135 462q66 105 163 186q97 83 229 129t282 46q133 0 256 -50q126 -51 212 -134q91 -85 143 -204q54 -119 54 -253q0 -175 -58 -332t-165 -272q-109 -118 -259 -182t-321 -64q-203 0 -378 117q-86 59 -151 137q-67 82 -104.5 189t-37.5 225zM305 649
q0 -106 38 -196.5t103 -152.5q133 -124 312 -124q118 0 223 50q103 51 174 134q71 84 110.5 191.5t39.5 220.5q0 104 -37 196t-101 156q-63 63 -142.5 98t-162.5 35q-161 0 -288 -82q-129 -82 -199 -220q-70 -137 -70 -306zM733 1575h-186l227 280h291zM1098 1575h-187
l228 280h291z" />
    <glyph glyph-name="ohungarumlaut" unicode="&#x151;" horiz-adv-x="1218" 
d="M51 459q0 111 42 216t118 186q78 83 190 131t238 48q211 0 351 -132q140 -131 140 -341q0 -166 -73 -302t-206 -215t-300 -79q-93 0 -182 34t-161 95q-73 62 -115 156.5t-42 202.5zM268 471q0 -139 86 -222q87 -81 209 -81q149 0 250 104q100 104 100 269q0 138 -82 220
q-83 83 -208 83q-158 0 -257 -109q-98 -109 -98 -264zM516 1153h-186l227 281h291zM881 1153h-187l228 281h290z" />
    <glyph glyph-name="OE" unicode="&#x152;" horiz-adv-x="2289" 
d="M88 639q0 254 135 462q66 105 163 186q97 83 229 129t282 46q152 0 284 -61q133 -61 228 -168l33 201h866l-33 -205h-628l-62 -389h606l-32 -205h-607l-67 -430h637l-33 -205h-875l19 123q-208 -152 -473 -152q-203 0 -378 117q-132 87 -213.5 231t-80.5 320zM326 649
q0 -105 37.5 -196t102.5 -153q133 -124 312 -124q118 0 223 50q103 50 175 134q71 85 111 192.5t40 219.5q0 104 -37.5 196t-101.5 156q-63 63 -142.5 98t-162.5 35q-161 0 -288 -82q-129 -82 -199 -220q-70 -137 -70 -306z" />
    <glyph glyph-name="oe" unicode="&#x153;" horiz-adv-x="2033" 
d="M51 459q0 171 93.5 316t253.5 216q111 49 241 49q129 0 236 -52.5t174 -147.5q80 95 194 147.5t252 52.5q194 0 321 -119q126 -119 126 -292q0 -49 -9 -99l-12 -79h-797q4 -130 89 -209q85 -78 198 -78q106 0 199 33t192 110h23l-43 -217q-98 -66 -178 -92
q-80 -27 -203 -27q-117 0 -226 54t-178 151q-81 -98 -195.5 -151.5t-250.5 -53.5q-93 0 -182 34t-161 95q-73 62 -115 156.5t-42 202.5zM268 471q0 -139 86 -222q87 -81 209 -81q149 0 248 104q100 104 100 269q0 137 -81 220t-207 83q-158 0 -257 -109q-98 -109 -98 -264z
M1149 606h584q0 124 -66 193t-190 69q-117 0 -205 -74q-86 -74 -123 -188z" />
    <glyph glyph-name="Racute" unicode="&#x154;" horiz-adv-x="1175" 
d="M258 0h-238l228 1434h416q184 0 303 -104q118 -103 118 -259q0 -159 -93 -267.5t-267 -160.5l287 -643h-256l-275 618h-125zM453 1229l-64 -406h168q122 0 207 56q84 57 84 168q0 86 -60 134t-167 48h-168zM678 1575h-186l227 280h291z" />
    <glyph glyph-name="racute" unicode="&#x155;" horiz-adv-x="835" 
d="M223 0h-217l162 1012h217l-20 -123q53 72 128 111.5t156 39.5q99 0 166 -47l-22 -231h-19q-70 82 -184 82q-99 0 -178 -76q-80 -76 -105 -240zM487 1153h-186l227 281h291z" />
    <glyph glyph-name="uni0156" unicode="&#x156;" horiz-adv-x="1175" 
d="M258 0h-238l228 1434h416q184 0 303 -104q118 -103 118 -259q0 -159 -93 -267.5t-267 -160.5l287 -643h-256l-275 618h-125zM326 -647l-11 47q58 37 90.5 79t49.5 101q-42 4 -79 43q-36 37 -36 90q0 58 38 101q39 41 97 41q60 0 99 -42q40 -43 40 -102q0 -121 -93 -217
q-80 -86 -195 -141zM453 1229l-64 -406h168q122 0 207 56q84 57 84 168q0 86 -60 134t-167 48h-168z" />
    <glyph glyph-name="uni0157" unicode="&#x157;" horiz-adv-x="835" 
d="M-70 -647l-10 47q58 37 90 78.5t49 101.5q-42 4 -78 43q-36 37 -36 90q0 59 39 101q38 41 96 41q60 0 99 -42q40 -43 40 -102q0 -115 -84 -206q-83 -92 -205 -152zM223 0h-217l162 1012h217l-20 -123q53 72 128 111.5t156 39.5q99 0 166 -47l-22 -231h-19q-70 82 -184 82
q-99 0 -178 -76q-80 -76 -105 -240z" />
    <glyph glyph-name="Rcaron" unicode="&#x158;" horiz-adv-x="1175" 
d="M258 0h-238l228 1434h416q184 0 303 -104q118 -103 118 -259q0 -159 -93 -267.5t-267 -160.5l287 -643h-256l-275 618h-125zM520 1575l-149 280h159l138 -151l182 151h168l-236 -280h-262zM453 1229l-64 -406h168q122 0 207 56q84 57 84 168q0 86 -60 134t-167 48h-168z
" />
    <glyph glyph-name="rcaron" unicode="&#x159;" horiz-adv-x="835" 
d="M223 0h-217l162 1012h217l-20 -123q53 72 128 111.5t156 39.5q99 0 166 -47l-22 -231h-19q-70 82 -184 82q-99 0 -178 -76q-80 -76 -105 -240zM375 1153l-150 281h160l137 -152l183 152h167l-235 -281h-262z" />
    <glyph glyph-name="Sacute" unicode="&#x15a;" horiz-adv-x="1050" 
d="M6 121l60 264h20q66 -104 148 -156.5t198 -52.5t189 66q75 66 75 161q0 100 -53 161q-53 60 -172 114q-116 53 -204 146q-97 104 -97 233q0 175 130 290t339 115q192 0 340 -110l-31 -256h-26q-133 174 -304 174q-96 0 -164 -51q-67 -49 -67 -136q0 -70 60 -128.5
t194 -123.5q153 -75 226 -167.5t73 -223.5q0 -128 -66 -235q-65 -105 -187 -170q-121 -64 -273 -64q-128 0 -239 44q-110 44 -169 106zM676 1575h-187l228 280h291z" />
    <glyph glyph-name="sacute" unicode="&#x15b;" horiz-adv-x="866" 
d="M-12 72l82 204h12q117 -108 264 -108q70 0 119 33t49 92q0 52 -42 85q-40 32 -148 75q-222 87 -222 280q0 129 104 218q106 89 263 89q163 0 276 -75l-24 -207h-14q-124 102 -250 102q-62 0 -104 -30t-42 -80q0 -49 44.5 -84.5t146.5 -75.5q233 -90 233 -277
q0 -151 -113 -247q-113 -95 -284 -95q-213 0 -350 101zM522 1153h-186l227 281h291z" />
    <glyph glyph-name="Scircumflex" unicode="&#x15c;" horiz-adv-x="1050" 
d="M6 121l60 264h20q66 -104 148 -156.5t198 -52.5t189 66q75 66 75 161q0 100 -53 161q-53 60 -172 114q-116 53 -204 146q-97 104 -97 233q0 175 130 290t339 115q192 0 340 -110l-31 -256h-26q-133 174 -304 174q-96 0 -164 -51q-67 -49 -67 -136q0 -70 60 -128.5
t194 -123.5q153 -75 226 -167.5t73 -223.5q0 -128 -66 -235q-65 -105 -187 -170q-121 -64 -273 -64q-128 0 -239 44q-110 44 -169 106zM504 1575h-168l235 280h263l149 -280h-160l-137 151z" />
    <glyph glyph-name="scircumflex" unicode="&#x15d;" horiz-adv-x="866" 
d="M-12 72l82 204h12q117 -108 264 -108q70 0 119 33t49 92q0 52 -42 85q-40 32 -148 75q-222 87 -222 280q0 129 104 218q106 89 263 89q163 0 276 -75l-24 -207h-14q-124 102 -250 102q-62 0 -104 -30t-42 -80q0 -49 44.5 -84.5t146.5 -75.5q233 -90 233 -277
q0 -151 -113 -247q-113 -95 -284 -95q-213 0 -350 101zM334 1153h-168l235 281h263l149 -281h-160l-137 152z" />
    <glyph glyph-name="Scedilla" unicode="&#x15e;" horiz-adv-x="1050" 
d="M6 121l60 264h20q66 -104 148 -156.5t198 -52.5t189 66q75 66 75 161q0 100 -53 161q-53 60 -172 114q-116 53 -204 146q-97 104 -97 233q0 175 130 290t339 115q192 0 340 -110l-31 -256h-26q-133 174 -304 174q-96 0 -164 -51q-67 -49 -67 -136q0 -70 60 -128.5
t194 -123.5q153 -75 226 -167.5t73 -223.5q3 -120 -61 -226t-180 -172t-257 -71l-80 -92q59 17 107 17q67 0 110.5 -44t43.5 -118q0 -99 -85 -162q-83 -64 -210 -64q-102 0 -172 29l-11 129l21 6q71 -47 151 -47q50 0 85 28q36 27 36 71q0 35 -27.5 57t-66.5 22
q-60 0 -119 -24l-12 16l106 182q-98 14 -181 53t-132 91z" />
    <glyph glyph-name="scedilla" unicode="&#x15f;" horiz-adv-x="866" 
d="M-12 72l82 204h12q117 -108 264 -108q70 0 119 33t49 92q0 52 -42 85q-40 32 -148 75q-222 87 -222 280q0 129 104 218q106 89 263 89q163 0 276 -75l-24 -207h-14q-124 102 -250 102q-62 0 -104 -30t-42 -80q0 -49 44.5 -84.5t146.5 -75.5q233 -90 233 -277
q0 -144 -105 -237q-103 -93 -268 -105l-79 -92q59 17 106 17q67 0 110.5 -44t43.5 -118q0 -99 -85 -162q-83 -64 -210 -64q-102 0 -172 29l-10 129l20 6q71 -47 152 -47q50 0 85 28t35 71q0 35 -27.5 57t-66.5 22q-61 0 -119 -24l-12 16l107 182q-155 21 -252 95z" />
    <glyph glyph-name="Scaron" unicode="&#x160;" horiz-adv-x="1050" 
d="M6 121l60 264h20q66 -104 148 -156.5t198 -52.5t189 66q75 66 75 161q0 100 -53 161q-53 60 -172 114q-116 53 -204 146q-97 104 -97 233q0 175 130 290t339 115q192 0 340 -110l-31 -256h-26q-133 174 -304 174q-96 0 -164 -51q-67 -49 -67 -136q0 -70 60 -128.5
t194 -123.5q153 -75 226 -167.5t73 -223.5q0 -128 -66 -235q-65 -105 -187 -170q-121 -64 -273 -64q-128 0 -239 44q-110 44 -169 106zM532 1575l-149 280h160l137 -151l182 151h168l-235 -280h-263z" />
    <glyph glyph-name="scaron" unicode="&#x161;" horiz-adv-x="866" 
d="M-12 72l82 204h12q117 -108 264 -108q70 0 119 33t49 92q0 52 -42 85q-40 32 -148 75q-222 87 -222 280q0 129 104 218q106 89 263 89q163 0 276 -75l-24 -207h-14q-124 102 -250 102q-62 0 -104 -30t-42 -80q0 -49 44.5 -84.5t146.5 -75.5q233 -90 233 -277
q0 -151 -113 -247q-113 -95 -284 -95q-213 0 -350 101zM358 1153l-149 281h160l137 -152l182 152h168l-235 -281h-263z" />
    <glyph glyph-name="uni0162" unicode="&#x162;" horiz-adv-x="1101" 
d="M514 1229h-360l32 205h959l-33 -205h-360l-195 -1229h-238zM248 -647l-10 47q58 37 90 78.5t49 101.5q-42 4 -79 43q-36 37 -36 90q0 58 38 101q39 41 97 41q60 0 100 -43t40 -101q0 -115 -84 -206q-83 -92 -205 -152z" />
    <glyph glyph-name="uni0163" unicode="&#x163;" horiz-adv-x="788" 
d="M221 823h-180l29 189h180l31 192l233 99l-47 -291h283l-29 -189h-283l-84 -526q-2 -22 -2 -33q0 -50 31.5 -77t81.5 -27q75 0 164 63h18l-53 -200q-103 -52 -205 -52q-110 0 -184 67q-74 68 -74 183q0 43 4 60zM152 -647l-11 47q58 37 90.5 79t49.5 101q-42 4 -79 43
q-36 37 -36 90q0 58 38 101q39 41 97 41q60 0 99 -42q40 -43 40 -102q0 -121 -93 -217q-80 -86 -195 -141z" />
    <glyph glyph-name="Tcaron" unicode="&#x164;" horiz-adv-x="1101" 
d="M514 1229h-360l32 205h959l-33 -205h-360l-195 -1229h-238zM545 1575l-150 280h160l137 -151l182 151h168l-235 -280h-262z" />
    <glyph glyph-name="tcaron" unicode="&#x165;" horiz-adv-x="1107" 
d="M238 823h-181l29 189h180l31 192l233 99l-47 -291h283l-29 -189h-282l-84 -526q-2 -22 -2 -33q0 -50 31 -77t81 -27q75 0 164 63h19l-54 -200q-103 -52 -204 -52q-110 0 -184 67q-75 68 -75 183q0 32 5 60zM887 950l-29 43q115 85 141 187q-42 4 -77 43q-35 38 -35 88
q0 63 38 103t95 40q62 0 101 -42q40 -41 40 -103q0 -119 -91 -213q-69 -73 -183 -146z" />
    <glyph glyph-name="Tbar" unicode="&#x166;" horiz-adv-x="1101" 
d="M512 1229h-360l32 205h959l-33 -205h-360l-52 -324h283l-25 -162h-284l-117 -743h-238l117 743h-280l24 162h283z" />
    <glyph glyph-name="tbar" unicode="&#x167;" horiz-adv-x="788" 
d="M162 453h-150l23 147h151l35 223h-180l29 189h180l31 192l233 99l-47 -291h283l-29 -189h-283l-35 -223h271l-23 -147h-272l-25 -156q-2 -22 -2 -33q0 -50 31.5 -77t81.5 -27q75 0 164 63h18l-53 -200q-103 -52 -205 -52q-110 0 -184 67q-74 68 -74 183q0 43 4 60z" />
    <glyph glyph-name="Utilde" unicode="&#x168;" horiz-adv-x="1337" 
d="M80 444q0 56 10 125l137 865h238l-141 -906q-7 -50 -7 -84q0 -72 22.5 -125.5t61.5 -83.5t85 -44.5t98 -14.5q128 0 229 76q113 84 143 276l144 906h237l-139 -881q-46 -289 -214 -436q-167 -146 -413 -146q-222 0 -357 126q-134 126 -134 347zM469 1585h-16l41 170
q98 90 202 90q91 0 169 -56t143 -56q83 0 184 98h16l-41 -170q-44 -47 -89.5 -68.5t-106.5 -21.5q-87 0 -169 56q-80 56 -140 56q-83 0 -193 -98z" />
    <glyph glyph-name="utilde" unicode="&#x169;" 
d="M51 309q0 39 6 82l99 621h217l-101 -617q-4 -28 -4 -45q0 -86 55 -134t146 -48q113 0 195 81q84 82 106 222l86 541h217l-162 -1012h-217l23 137q-135 -166 -344 -166q-140 0 -231 94t-91 244zM293 1163h-17l41 170q98 90 203 90q90 0 168 -56t143 -56q84 0 185 98h16
l-41 -170q-44 -47 -89.5 -68.5t-106.5 -21.5q-87 0 -169 56q-81 57 -141 57q-83 0 -192 -99z" />
    <glyph glyph-name="Umacron" unicode="&#x16a;" horiz-adv-x="1337" 
d="M80 444q0 56 10 125l137 865h238l-141 -906q-7 -50 -7 -84q0 -72 22.5 -125.5t61.5 -83.5t85 -44.5t98 -14.5q128 0 229 76q113 84 143 276l144 906h237l-139 -881q-46 -289 -214 -436q-167 -146 -413 -146q-222 0 -357 126q-134 126 -134 347zM1049 1610h-492l27 162
h491z" />
    <glyph glyph-name="umacron" unicode="&#x16b;" 
d="M51 309q0 39 6 82l99 621h217l-101 -617q-4 -28 -4 -45q0 -86 55 -134t146 -48q113 0 195 81q84 82 106 222l86 541h217l-162 -1012h-217l23 137q-135 -166 -344 -166q-140 0 -231 94t-91 244zM877 1188h-492l27 162h491z" />
    <glyph glyph-name="Ubreve" unicode="&#x16c;" horiz-adv-x="1337" 
d="M80 444q0 56 10 125l137 865h238l-141 -906q-7 -50 -7 -84q0 -72 22.5 -125.5t61.5 -83.5t85 -44.5t98 -14.5q128 0 229 76q113 84 143 276l144 906h237l-139 -881q-46 -289 -214 -436q-167 -146 -413 -146q-222 0 -357 126q-134 126 -134 347zM582 1776q0 18 4 39h151
q-2 -8 -2 -21q0 -36 22.5 -59t55.5 -23q42 0 69.5 27.5t35.5 75.5h151q-18 -113 -88.5 -176.5t-183.5 -63.5q-89 0 -153 56q-62 57 -62 145z" />
    <glyph glyph-name="ubreve" unicode="&#x16d;" 
d="M51 309q0 39 6 82l99 621h217l-101 -617q-4 -28 -4 -45q0 -86 55 -134t146 -48q113 0 195 81q84 82 106 222l86 541h217l-162 -1012h-217l23 137q-135 -166 -344 -166q-140 0 -231 94t-91 244zM412 1354q0 18 4 39h151q-2 -8 -2 -21q0 -36 22.5 -59t55.5 -23
q42 0 69.5 27.5t35.5 75.5h151q-18 -113 -88.5 -176.5t-183.5 -63.5q-89 0 -153 56q-62 57 -62 145z" />
    <glyph glyph-name="Uring" unicode="&#x16e;" horiz-adv-x="1337" 
d="M80 444q0 56 10 125l137 865h238l-141 -906q-7 -50 -7 -84q0 -72 22.5 -125.5t61.5 -83.5t85 -44.5t98 -14.5q128 0 229 76q113 84 143 276l144 906h237l-139 -881q-46 -289 -214 -436q-167 -146 -413 -146q-222 0 -357 126q-134 126 -134 347zM684 1596q-61 60 -61 147
t61 147q62 60 150 60q89 0 149 -60q61 -60 61 -147t-61 -147q-60 -60 -149 -60q-88 0 -150 60zM748 1827q-33 -35 -33 -84t33 -84q35 -35 86 -35q52 0 85 35t33 84t-33 84t-85 35q-51 0 -86 -35z" />
    <glyph glyph-name="uring" unicode="&#x16f;" 
d="M51 309q0 39 6 82l99 621h217l-101 -617q-4 -28 -4 -45q0 -86 55 -134t146 -48q113 0 195 81q84 82 106 222l86 541h217l-162 -1012h-217l23 137q-135 -166 -344 -166q-140 0 -231 94t-91 244zM499 1174q-61 60 -61 147t61 147t150 60t150 -60t61 -147t-61 -147t-150 -60
t-150 60zM563 1405q-33 -35 -33 -84t33 -84q35 -35 86 -35q52 0 85 35q34 34 34 84t-34 84q-33 35 -85 35q-51 0 -86 -35z" />
    <glyph glyph-name="Uhungarumlaut" unicode="&#x170;" horiz-adv-x="1337" 
d="M80 444q0 56 10 125l137 865h238l-141 -906q-7 -50 -7 -84q0 -72 22.5 -125.5t61.5 -83.5t85 -44.5t98 -14.5q128 0 229 76q113 84 143 276l144 906h237l-139 -881q-46 -289 -214 -436q-167 -146 -413 -146q-222 0 -357 126q-134 126 -134 347zM618 1575h-186l227 280
h291zM983 1575h-186l227 280h291z" />
    <glyph glyph-name="uhungarumlaut" unicode="&#x171;" 
d="M51 309q0 39 6 82l99 621h217l-101 -617q-4 -28 -4 -45q0 -86 55 -134t146 -48q113 0 195 81q84 82 106 222l86 541h217l-162 -1012h-217l23 137q-135 -166 -344 -166q-140 0 -231 94t-91 244zM426 1153h-186l227 281h291zM791 1153h-187l227 281h291z" />
    <glyph glyph-name="Uogonek" unicode="&#x172;" horiz-adv-x="1337" 
d="M80 444q0 56 10 125l137 865h238l-141 -906q-7 -50 -7 -84q0 -72 22.5 -125.5t61.5 -83.5t85 -44.5t98 -14.5q128 0 229 76q113 84 143 276l144 906h237l-139 -881q-35 -224 -145 -363.5t-281 -189.5q-87 -68 -130.5 -127.5t-43.5 -124.5q0 -52 33 -84.5t86 -32.5
q81 0 145 45l19 -6l-39 -129q-79 -33 -176 -33q-101 0 -171 56q-69 56 -69 149q0 150 160 258h-15q-222 0 -357 126q-134 126 -134 347z" />
    <glyph glyph-name="uogonek" unicode="&#x173;" 
d="M51 309q0 39 6 82l99 621h217l-101 -617q-4 -28 -4 -45q0 -86 55 -134t146 -48q113 0 195 81q84 82 106 222l86 541h217l-162 -1012q-88 -69 -132 -128t-44 -124q0 -52 33 -84.5t86 -32.5q80 0 145 45l19 -6l-39 -129q-79 -33 -176 -33q-101 0 -171 56q-69 56 -69 149
q0 175 207 287h-76l23 137q-135 -166 -344 -166q-140 0 -231 94t-91 244z" />
    <glyph glyph-name="Wcircumflex" unicode="&#x174;" horiz-adv-x="1984" 
d="M420 0l-266 1434h252l149 -908l494 908h106l203 -908l436 908h256l-702 -1434h-88l-226 987l-526 -987h-88zM954 1575h-168l236 280h262l150 -280h-160l-137 151z" />
    <glyph glyph-name="wcircumflex" unicode="&#x175;" horiz-adv-x="1576" 
d="M360 0l-288 1012h223l160 -592l336 592h86l147 -592l348 592h223l-600 -1012h-55l-162 647l-362 -647h-56zM696 1153h-168l236 281h262l150 -281h-160l-137 152z" />
    <glyph glyph-name="Ycircumflex" unicode="&#x176;" horiz-adv-x="1226" 
d="M479 623l-336 811h252l232 -598l420 598h264l-594 -811l-99 -623h-237zM578 1575h-168l235 280h262l150 -280h-160l-137 151z" />
    <glyph glyph-name="ycircumflex" unicode="&#x177;" horiz-adv-x="1058" 
d="M133 -463h-231l432 653l-266 822h223l188 -586l373 586h233zM412 1153h-168l235 281h262l150 -281h-160l-137 152z" />
    <glyph glyph-name="Ydieresis" unicode="&#x178;" horiz-adv-x="1226" 
d="M479 623l-336 811h252l232 -598l420 598h264l-594 -811l-99 -623h-237zM467 1616q-37 37 -37 92q0 54 37 91q38 38 92 38q53 0 91 -38t38 -91q0 -54 -38 -92q-37 -37 -91 -37q-55 0 -92 37zM846 1616q-37 37 -37 92q0 54 37 91q38 38 92 38q53 0 91 -38t38 -91
q0 -54 -38 -92q-37 -37 -91 -37q-55 0 -92 37z" />
    <glyph glyph-name="Zacute" unicode="&#x179;" horiz-adv-x="1247" 
d="M1055 0h-1110l4 31l903 1198h-653l32 205h1020l-4 -31l-905 -1198h745zM754 1575h-187l228 280h290z" />
    <glyph glyph-name="zacute" unicode="&#x17a;" horiz-adv-x="1013" 
d="M809 0h-840l6 31l598 784h-434l33 197h786l-6 -31l-602 -784h492zM575 1153h-186l227 281h291z" />
    <glyph glyph-name="Zdotaccent" unicode="&#x17b;" horiz-adv-x="1247" 
d="M1055 0h-1110l4 31l903 1198h-653l32 205h1020l-4 -31l-905 -1198h745zM788 1882q60 0 100 -42q42 -40 42 -99t-42 -101q-43 -41 -100 -41t-100 41q-41 43 -41 101q0 59 41 100q43 41 100 41z" />
    <glyph glyph-name="zdotaccent" unicode="&#x17c;" horiz-adv-x="1013" 
d="M809 0h-840l6 31l598 784h-434l33 197h786l-6 -31l-602 -784h492zM492 1219q-41 41 -41 100t41 100q43 41 100 41q58 0 99 -41q42 -40 42 -100q0 -59 -42 -100q-41 -41 -99 -41q-57 0 -100 41z" />
    <glyph glyph-name="Zcaron" unicode="&#x17d;" horiz-adv-x="1247" 
d="M1055 0h-1110l4 31l903 1198h-653l32 205h1020l-4 -31l-905 -1198h745zM598 1575l-149 280h159l137 -151l183 151h168l-236 -280h-262z" />
    <glyph glyph-name="zcaron" unicode="&#x17e;" horiz-adv-x="1013" 
d="M809 0h-840l6 31l598 784h-434l33 197h786l-6 -31l-602 -784h492zM432 1153l-149 281h159l138 -152l182 152h168l-236 -281h-262z" />
    <glyph glyph-name="longs" unicode="&#x17f;" horiz-adv-x="720" 
d="M305 0h-217l131 823h-123l29 189h123l20 133q26 157 125 236q101 81 234 81q85 0 168 -43l-25 -200h-16q-51 57 -129 57q-55 0 -92.5 -36t-47.5 -101z" />
    <glyph glyph-name="uni018E" unicode="&#x18e;" horiz-adv-x="1087" 
d="M842 0h-867l33 205h629l61 389h-606l33 205h606l68 430h-637l33 205h874z" />
    <glyph glyph-name="uni018F" unicode="&#x18f;" horiz-adv-x="1173" 
d="M49 383q0 52 8 98l13 80h794q-3 88 -45 154q-84 133 -239 133q-106 0 -199.5 -33t-192.5 -110h-22l43 217q99 66 178 91q80 27 203 27q89 0 176.5 -34t157.5 -95q73 -61 115 -154.5t42 -201.5q0 -181 -100 -330q-73 -115 -199.5 -185t-285.5 -69q-194 0 -321 119
q-126 120 -126 293zM844 406h-586q0 -124 66 -193.5t190 -69.5q117 0 205 74q87 72 125 189z" />
    <glyph glyph-name="florin" unicode="&#x192;" horiz-adv-x="811" 
d="M-285 -399l31 200h21q51 -57 118 -57q57 0 93.5 32t48.5 91l190 956h-123l37 189h123l27 133q31 157 126 237t226 80q105 0 178 -43l-31 -200h-20q-51 57 -119 57q-116 0 -141 -123l-29 -141h174l-37 -189h-174l-188 -948q-32 -157 -126 -237q-95 -80 -226 -80
q-106 0 -179 43z" />
    <glyph glyph-name="uni01B5" unicode="&#x1b5;" horiz-adv-x="1247" 
d="M1055 0h-1110l4 31l459 610h-279l27 162h374l322 426h-653l32 205h1020l-4 -31l-454 -600h325l-26 -162h-420l-330 -436h745z" />
    <glyph glyph-name="uni01B6" unicode="&#x1b6;" horiz-adv-x="1013" 
d="M809 0h-840l6 31l312 409h-178l22 148h268l174 227h-434l33 197h786l-6 -31l-303 -393h211l-22 -148h-301l-187 -243h492z" />
    <glyph glyph-name="Aringacute" unicode="&#x1fa;" horiz-adv-x="1396" 
d="M160 0h-238l819 1376q-62 22 -99.5 75t-37.5 120q0 87 61 147t150 60t150 -60t61 -147q0 -74 -46 -130q-46 -57 -116 -73l383 -1368h-225l-74 266h-635zM748 995l-312 -524h455zM729 1655q-33 -35 -33 -84t33 -84q35 -35 86 -35q52 0 85 35q34 34 34 84t-34 84
q-33 35 -85 35q-51 0 -86 -35zM891 1853h-186l227 281h291z" />
    <glyph glyph-name="aringacute" unicode="&#x1fb;" horiz-adv-x="1267" 
d="M51 455q0 163 72 296q75 135 205 211q134 78 301 78q104 0 194 -42q90 -41 131 -107l23 121h217l-162 -1012h-217l16 100q-132 -129 -329 -129q-86 0 -168.5 36t-145.5 99q-63 64 -100 156t-37 193zM268 469q0 -131 86 -217q87 -84 205 -84q159 0 254 107q94 107 94 268
q0 135 -81 217q-81 84 -195 84q-150 0 -257 -107q-106 -106 -106 -268zM546 1174q-61 60 -61 147t61 147q62 60 150 60t150 -60q61 -60 61 -147t-61 -147q-62 -60 -150 -60t-150 60zM611 1405q-33 -35 -33 -84t33 -84t85 -35t85 35q34 34 34 84t-34 84q-33 35 -85 35
t-85 -35zM784 1604h-186l227 280h291z" />
    <glyph glyph-name="AEacute" unicode="&#x1fc;" horiz-adv-x="2033" 
d="M156 0h-234l854 1434h699l59 -205h-629l109 -389h581l54 -205h-578l121 -430h637l55 -205h-864l-74 264h-635zM745 995l-309 -522h453zM1065 1575h-186l227 280h291z" />
    <glyph glyph-name="aeacute" unicode="&#x1fd;" horiz-adv-x="1802" 
d="M37 248q0 93 45 165t125 113q153 80 373 80h116q2 18 2 43q0 102 -59 158q-59 57 -147 57q-124 0 -267 -125h-32l49 203q145 98 309 98q93 0 177 -42q82 -40 136 -109q160 151 400 151q195 0 320 -119q126 -119 126 -292q0 -53 -8 -99l-12 -79h-799q4 -129 90 -209
q87 -78 199 -78q106 0 199 33t192 110h22l-43 -217q-98 -66 -178 -92q-80 -27 -203 -27q-122 0 -235 59q-113 60 -182 167q-153 -226 -392 -226q-140 0 -232 78q-91 78 -91 199zM258 270q0 -51 39 -84.5t98 -33.5q98 0 178 78q78 77 101 221q-175 0 -288 -34
q-128 -40 -128 -147zM971 1153h-187l228 281h291zM913 606h588q0 124 -66 193t-190 69q-118 0 -207 -74q-87 -72 -125 -188z" />
    <glyph glyph-name="circumflex" unicode="&#x2c6;" horiz-adv-x="829" 
d="M238 1153h-168l235 281h262l150 -281h-160l-137 152z" />
    <glyph glyph-name="caron" unicode="&#x2c7;" horiz-adv-x="829" 
d="M219 1153l-149 281h159l138 -152l182 152h168l-236 -281h-262z" />
    <glyph glyph-name="breve" unicode="&#x2d8;" horiz-adv-x="585" 
d="M66 1354q0 18 4 39h151q-2 -8 -2 -21q0 -36 22.5 -59t55.5 -23q42 0 69 27.5t35 75.5h152q-18 -113 -88.5 -176.5t-183.5 -63.5q-89 0 -153 56q-62 57 -62 145z" />
    <glyph glyph-name="dotaccent" unicode="&#x2d9;" horiz-adv-x="520" 
d="M160 1219q-41 41 -41 100t41 100q43 41 100 41q58 0 99 -41q42 -41 42 -100t-42 -100q-41 -41 -99 -41q-57 0 -100 41z" />
    <glyph glyph-name="ring" unicode="&#x2da;" horiz-adv-x="995" 
d="M348 1174q-61 60 -61 147t61 147q62 60 150 60t150 -60q61 -60 61 -147t-61 -147q-62 -60 -150 -60t-150 60zM412 1405q-33 -35 -33 -84t33 -84q35 -35 86 -35q52 0 85 35t33 84t-33 84t-85 35q-51 0 -86 -35z" />
    <glyph glyph-name="ogonek" unicode="&#x2db;" horiz-adv-x="675" 
d="M127 -287q0 100 74.5 184t206.5 138l67 -35q-88 -69 -132 -128t-44 -124q0 -52 33 -84.5t86 -32.5q80 0 145 45l19 -6l-39 -129q-79 -33 -176 -33q-101 0 -171 56q-69 56 -69 149z" />
    <glyph glyph-name="tilde" unicode="&#x2dc;" horiz-adv-x="1075" 
d="M172 1163h-16l41 170q97 90 202 90q91 0 169 -56t143 -56q83 0 184 98h16l-41 -170q-44 -47 -89.5 -68.5t-106.5 -21.5q-87 0 -169 56q-79 57 -140 57q-83 0 -193 -99z" />
    <glyph glyph-name="hungarumlaut" unicode="&#x2dd;" horiz-adv-x="1019" 
d="M260 1153h-186l227 281h291zM625 1153h-187l228 281h290z" />
    <glyph glyph-name="pi" unicode="&#x3c0;" horiz-adv-x="1214" 
d="M201 844h-158l27 168h1169l-27 -168h-157l-135 -844h-218l136 844h-420l-135 -844h-217z" />
    <glyph glyph-name="uni2000" unicode="&#x2000;" horiz-adv-x="1067" 
 />
    <glyph glyph-name="uni2001" unicode="&#x2001;" horiz-adv-x="2134" 
 />
    <glyph glyph-name="uni2002" unicode="&#x2002;" horiz-adv-x="1067" 
 />
    <glyph glyph-name="uni2003" unicode="&#x2003;" horiz-adv-x="2134" 
 />
    <glyph glyph-name="uni2004" unicode="&#x2004;" horiz-adv-x="711" 
 />
    <glyph glyph-name="uni2005" unicode="&#x2005;" horiz-adv-x="533" 
 />
    <glyph glyph-name="uni2006" unicode="&#x2006;" horiz-adv-x="355" 
 />
    <glyph glyph-name="uni2007" unicode="&#x2007;" horiz-adv-x="355" 
 />
    <glyph glyph-name="uni2008" unicode="&#x2008;" horiz-adv-x="266" 
 />
    <glyph glyph-name="uni2009" unicode="&#x2009;" horiz-adv-x="426" 
 />
    <glyph glyph-name="uni200A" unicode="&#x200a;" horiz-adv-x="118" 
 />
    <glyph glyph-name="uni2010" unicode="&#x2010;" horiz-adv-x="815" 
d="M711 561h-652l27 176h651z" />
    <glyph glyph-name="uni2011" unicode="&#x2011;" horiz-adv-x="815" 
d="M711 561h-652l27 176h651z" />
    <glyph glyph-name="figuredash" unicode="&#x2012;" horiz-adv-x="815" 
d="M711 561h-652l27 176h651z" />
    <glyph glyph-name="endash" unicode="&#x2013;" horiz-adv-x="1122" 
d="M1018 561h-959l27 176h958z" />
    <glyph glyph-name="emdash" unicode="&#x2014;" horiz-adv-x="1798" 
d="M1694 561h-1635l27 176h1634z" />
    <glyph glyph-name="quoteleft" unicode="&#x2018;" horiz-adv-x="438" 
d="M135 1096q0 116 91 212q79 80 184 146l28 -43q-117 -85 -141 -186q42 -4 77 -43q36 -38 36 -88q0 -63 -38.5 -103.5t-95.5 -40.5q-62 0 -102 42q-39 43 -39 104z" />
    <glyph glyph-name="quoteright" unicode="&#x2019;" horiz-adv-x="438" 
d="M164 950l-29 43q115 85 141 187q-42 4 -77 43q-35 38 -35 88q0 63 38 103t95 40q62 0 101 -42q40 -41 40 -103q0 -119 -91 -213q-69 -73 -183 -146z" />
    <glyph glyph-name="quotesinglbase" unicode="&#x201a;" horiz-adv-x="454" 
d="M-8 -229l-29 43q117 86 141 186q-42 4 -77 43q-35 38 -35 88q0 63 38 103t95 40q62 0 101 -42q40 -41 40 -103q0 -119 -91 -212q-69 -73 -183 -146z" />
    <glyph glyph-name="quotedblleft" unicode="&#x201c;" horiz-adv-x="780" 
d="M139 1096q0 116 91 212q79 80 184 146l28 -43q-117 -85 -141 -186q42 -4 77 -43q36 -38 36 -88q0 -63 -38 -103.5t-95 -40.5q-61 0 -102 42q-40 43 -40 104zM477 1096q0 116 91 212q79 80 184 146l28 -43q-117 -85 -141 -186q42 -4 77 -43q36 -38 36 -88
q0 -63 -38.5 -103.5t-95.5 -40.5q-62 0 -102 42q-39 43 -39 104z" />
    <glyph glyph-name="quotedblright" unicode="&#x201d;" horiz-adv-x="780" 
d="M168 950l-29 43q118 87 142 187q-41 4 -78 43q-35 38 -35 88q0 63 38 103t95 40q62 0 101 -42q40 -41 40 -103q0 -119 -91 -213q-69 -73 -183 -146zM506 950l-29 43q115 85 141 187q-42 4 -77 43q-35 38 -35 88q0 63 38 103t95 40q62 0 101 -42q40 -41 40 -103
q0 -119 -91 -213q-69 -73 -183 -146z" />
    <glyph glyph-name="quotedblbase" unicode="&#x201e;" horiz-adv-x="792" 
d="M-8 -229l-29 43q117 86 141 186q-42 4 -77 43q-35 38 -35 88q0 63 38 103t95 40q62 0 101 -42q40 -41 40 -103q0 -119 -91 -212q-69 -73 -183 -146zM330 -229l-29 43q117 86 141 186q-42 4 -77 43q-35 38 -35 88q0 63 38 103t95 40q62 0 101 -42q40 -41 40 -103
q0 -119 -91 -212q-69 -73 -183 -146z" />
    <glyph glyph-name="dagger" unicode="&#x2020;" horiz-adv-x="778" 
d="M297 827h-246l29 185h246l67 422h217l-67 -422h250l-29 -185h-250l-205 -1290h-217z" />
    <glyph glyph-name="daggerdbl" unicode="&#x2021;" horiz-adv-x="778" 
d="M168 0h-244l29 184h244l102 643h-246l29 185h246l67 422h217l-67 -422h250l-29 -185h-250l-102 -643h250l-29 -184h-250l-74 -463h-217z" />
    <glyph glyph-name="bullet" unicode="&#x2022;" horiz-adv-x="659" 
d="M189 596q-58 58 -58 141t58 141t141 58t140 -58q58 -58 58 -141t-58 -141q-57 -57 -140 -57q-82 0 -141 57z" />
    <glyph glyph-name="ellipsis" unicode="&#x2026;" horiz-adv-x="1359" 
d="M40 20q-40 40 -40 97t40 97t97 40t97 -40t40 -97t-40 -97t-97 -40t-97 40zM493 20q-40 40 -40 97t40 97t97 40t97 -40t40 -97t-40 -97t-97 -40t-97 40zM945 20q-40 40 -40 97t40 97t97 40t97 -40q41 -41 41 -97t-41 -97q-40 -40 -97 -40t-97 40z" />
    <glyph glyph-name="uni202F" unicode="&#x202f;" horiz-adv-x="426" 
 />
    <glyph glyph-name="perthousand" unicode="&#x2030;" horiz-adv-x="2037" 
d="M162 416l-51 110l1028 494l51 -111zM131 1108q0 89 44 169q43 79 130 132q86 53 195 53q128 0 215 -81q88 -81 88 -210q0 -143 -107 -250q-106 -106 -266 -106q-119 0 -210 83q-89 84 -89 210zM291 1120q0 -71 47 -115q48 -42 111 -42q81 0 137 55q57 56 57 139
q0 72 -46 115t-112 43q-83 0 -138 -58q-56 -59 -56 -137zM500 264q0 134 98 242q49 52 119.5 82t150.5 30q128 0 215 -81q88 -79 88 -209q0 -144 -107 -251q-106 -106 -265 -106q-119 0 -210 83q-89 84 -89 210zM659 276q0 -71 47 -115q48 -42 111 -42q81 0 137 55
q58 55 58 139q0 72 -46 115t-112 43q-82 0 -139 -58q-56 -59 -56 -137zM1249 264q0 89 44 169q43 79 130 132q86 53 195 53q128 0 215 -81q88 -79 88 -209q0 -144 -107 -251q-106 -106 -266 -106q-119 0 -210 83q-89 84 -89 210zM1409 276q0 -71 47 -115q48 -42 111 -42
q81 0 137 55q57 56 57 139q0 72 -46 115q-44 43 -111 43q-82 0 -139 -58q-56 -59 -56 -137z" />
    <glyph glyph-name="guilsinglleft" unicode="&#x2039;" horiz-adv-x="665" 
d="M465 244l-410 407l19 119l540 408h33l-37 -217l-340 -259l260 -258l-32 -200h-33z" />
    <glyph glyph-name="guilsinglright" unicode="&#x203a;" horiz-adv-x="651" 
d="M35 244h-33l37 217l340 258l-260 258l33 201h32l410 -408l-19 -119z" />
    <glyph glyph-name="fraction" unicode="&#x2044;" horiz-adv-x="1304" 
d="M164 416l-51 110l1028 494l51 -111z" />
    <glyph glyph-name="uni205F" unicode="&#x205f;" horiz-adv-x="533" 
 />
    <glyph glyph-name="zerosuperior" unicode="&#x2070;" horiz-adv-x="729" 
d="M82 1018q0 61 16 122t48 116.5t76.5 98t105.5 68t131 25.5q127 0 198.5 -83.5t71.5 -231.5q0 -158 -97 -292q-47 -64 -119.5 -101.5t-156.5 -37.5q-116 0 -196 86q-78 86 -78 230zM227 1016q0 -88 38 -137.5t100 -49.5q53 0 97.5 28t69.5 74q52 96 52 193q0 93 -37.5 145
t-102.5 52q-54 0 -98.5 -29.5t-69.5 -78.5q-49 -96 -49 -197z" />
    <glyph glyph-name="foursuperior" unicode="&#x2074;" horiz-adv-x="612" 
d="M369 868h-326l14 95l465 471h78l-70 -441h97l-19 -125h-96l-25 -151h-143zM418 1180l-182 -187h151z" />
    <glyph glyph-name="fivesuperior" unicode="&#x2075;" horiz-adv-x="575" 
d="M84 737l-6 146h18q76 -54 180 -54q66 0 113 38q47 39 47 106q0 54 -32.5 84t-92.5 30q-81 0 -176 -51l-31 6l109 392h408l-21 -123h-299l-43 -131q57 20 119 20q95 0 152 -54.5t57 -152.5q0 -126 -92 -209q-91 -82 -226 -82q-64 0 -100 7q-33 7 -84 28z" />
    <glyph glyph-name="sixsuperior" unicode="&#x2076;" horiz-adv-x="606" 
d="M76 989q0 75 24 153.5t68.5 148t119 113.5t165.5 44q79 0 141 -39l-6 -137h-19q-59 53 -131 53q-70 0 -127 -57q-58 -58 -80 -154q76 66 166 66t149 -59q58 -58 58 -154q0 -109 -87 -187q-85 -78 -200 -78q-103 0 -172 76q-69 75 -69 211zM219 930q0 -50 29.5 -79.5
t77.5 -29.5q55 0 95 40t40 97q0 50 -29 78.5t-78 28.5q-58 0 -97 -40q-38 -40 -38 -95z" />
    <glyph glyph-name="sevensuperior" unicode="&#x2077;" horiz-adv-x="577" 
d="M217 717h-160l396 592h-322l19 125h522l-4 -27z" />
    <glyph glyph-name="eightsuperior" unicode="&#x2078;" horiz-adv-x="581" 
d="M76 907q0 135 137 201q-63 52 -63 131q0 88 69 148q70 61 172 61q92 0 150 -49q59 -50 59 -125q0 -109 -113 -168q86 -59 86 -160t-77 -173q-77 -71 -193 -71q-103 0 -165 61q-62 62 -62 144zM211 924q0 -46 29.5 -75.5t70.5 -29.5q55 0 93 36.5t38 90.5q0 50 -28 78.5
t-76 28.5q-52 0 -90 -39q-37 -37 -37 -90zM279 1239q0 -35 23.5 -56.5t59.5 -21.5q43 0 74 28t31 71q0 35 -23 56t-59 21q-45 0 -75.5 -29t-30.5 -69z" />
    <glyph glyph-name="ninesuperior" unicode="&#x2079;" horiz-adv-x="606" 
d="M106 1184q0 111 82 187q83 77 199 77q114 0 180 -72q68 -74 68 -215q0 -75 -24 -153.5t-68.5 -148t-119 -113.5t-165.5 -44q-80 0 -141 39l6 138h18q60 -54 131 -54q80 0 133.5 54t73.5 157q-65 -65 -155 -65q-91 0 -155 59q-63 60 -63 154zM250 1192q0 -49 29.5 -78
t76.5 -29q58 0 97 40q39 41 39 96q0 48 -30.5 78t-78.5 30q-53 0 -94 -41q-39 -40 -39 -96z" />
    <glyph glyph-name="zeroinferior" unicode="&#x2080;" horiz-adv-x="729" 
d="M-82 -162q0 61 16 122t48 116.5t76.5 98t105.5 68t131 25.5q127 0 198.5 -83.5t71.5 -231.5q0 -160 -96 -291q-47 -64 -119.5 -101.5t-156.5 -37.5q-118 0 -196 86q-79 85 -79 229zM63 -164q0 -88 38 -137t100 -49q53 0 97.5 28t69.5 75q52 95 52 192q0 93 -37 144.5
t-102 51.5q-54 0 -98.5 -29.5t-69.5 -78.5q-50 -95 -50 -197z" />
    <glyph glyph-name="oneinferior" unicode="&#x2081;" horiz-adv-x="266" 
d="M31 -463h-144l103 649l106 68h47z" />
    <glyph glyph-name="twoinferior" unicode="&#x2082;" horiz-adv-x="587" 
d="M377 -463h-514l4 25l328 336q46 49 66 84t20 73q0 41 -29 66.5t-74 25.5q-95 0 -180 -112h-33l31 151q91 82 211 82q98 0 160 -53q63 -53 63 -137q0 -64 -27.5 -117.5t-87.5 -116.5l-178 -182h260z" />
    <glyph glyph-name="threeinferior" unicode="&#x2083;" horiz-adv-x="598" 
d="M-100 -428l10 143h20q79 -67 174 -67q69 0 115 40q47 41 47 107q0 59 -31 90t-88 31q-49 0 -79 -10l-23 43l164 180h-238l21 125h469l-4 -18l-203 -218q75 -19 120.5 -72.5t45.5 -131.5q0 -126 -93 -208q-92 -83 -227 -83q-127 0 -200 49z" />
    <glyph glyph-name="fourinferior" unicode="&#x2084;" horiz-adv-x="612" 
d="M190 -311h-325l14 94l465 471h78l-70 -440h97l-19 -125h-96l-25 -152h-143zM240 0l-183 -186h152z" />
    <glyph glyph-name="fiveinferior" unicode="&#x2085;" horiz-adv-x="575" 
d="M-96 -442l-6 145h18q77 -53 180 -53q66 0 113 38t47 105q0 54 -32.5 84.5t-92.5 30.5q-81 0 -176 -51l-31 6l109 391h407l-20 -123h-299l-43 -131q57 20 119 20q96 0 152.5 -54t56.5 -152q0 -125 -92 -208t-226 -83q-59 0 -99 8q-38 7 -85 27z" />
    <glyph glyph-name="sixinferior" unicode="&#x2086;" horiz-adv-x="606" 
d="M-98 -190q0 75 24 153.5t68.5 147.5t119 113t165.5 44q79 0 141 -39l-6 -137h-19q-59 53 -131 53q-70 0 -127 -57q-58 -58 -80 -154q77 66 166 66q90 0 149 -59q58 -58 58 -154q0 -109 -87 -186q-86 -78 -200 -78q-103 0 -172 76q-69 75 -69 211zM45 -250q0 -50 29.5 -79
t77.5 -29q54 0 95 41q40 40 40 96q0 50 -29 78t-78 28q-58 0 -97 -39q-38 -41 -38 -96z" />
    <glyph glyph-name="seveninferior" unicode="&#x2087;" horiz-adv-x="577" 
d="M45 -463h-160l396 592h-322l18 125h523l-4 -27z" />
    <glyph glyph-name="eightinferior" unicode="&#x2088;" horiz-adv-x="581" 
d="M-106 -272q0 134 137 200q-64 52 -64 131q0 88 70 148q70 61 172 61q92 0 150 -49q59 -50 59 -125q0 -109 -113 -168q86 -59 86 -159q0 -101 -77 -172q-77 -72 -193 -72q-103 0 -164 61q-63 62 -63 144zM29 -256q0 -46 29 -75t71 -29q55 0 93 36.5t38 90.5q0 50 -28 78
t-76 28q-52 0 -90 -38q-37 -38 -37 -91zM96 59q0 -35 23.5 -56t60.5 -21q43 0 74 27.5t31 70.5q0 35 -23 56.5t-59 21.5q-45 0 -76 -29.5t-31 -69.5z" />
    <glyph glyph-name="nineinferior" unicode="&#x2089;" horiz-adv-x="606" 
d="M-78 4q0 111 82 187q83 77 199 77q115 0 180 -71q68 -74 68 -215q0 -75 -24 -153.5t-68.5 -148t-119 -113.5t-165.5 -44q-81 0 -142 39l7 137h18q59 -53 131 -53q80 0 133.5 54t73.5 157q-66 -66 -156 -66q-93 0 -154 60q-63 59 -63 153zM66 12q0 -48 30 -77t76 -29
q59 0 96 40q39 39 39 95q0 49 -30 79t-78 30q-53 0 -94 -41q-39 -41 -39 -97z" />
    <glyph glyph-name="Euro" unicode="&#x20ac;" horiz-adv-x="1294" 
d="M162 492h-154l76 151h68q5 91 16 148h-115l78 151h82q80 223 268 368q94 72 217.5 112t259.5 40q86 0 182 -26q90 -24 158 -70l-16 -231h-27q-125 122 -325 122q-160 0 -285 -87q-123 -87 -186 -228h577l-78 -151h-552q-17 -71 -17 -148h600l-78 -151h-508
q34 -157 137 -237q101 -79 238 -79q96 0 174 28q76 27 170 95h27l-57 -231q-136 -97 -347 -97q-224 0 -385 143q-160 144 -198 378z" />
    <glyph glyph-name="trademark" unicode="&#x2122;" horiz-adv-x="1443" 
d="M311 1317h-180l19 117h499l-18 -117h-180l-95 -600h-139zM659 717h-137l309 717h39l131 -453l275 453h39l84 -717h-133l-49 395l-238 -395h-29l-123 395z" />
    <glyph glyph-name="Omega" unicode="&#x2126;" horiz-adv-x="1644" 
d="M590 0h-590l33 205h284q-92 89 -158 219q-65 132 -65 278q0 148 60 286q60 137 164 243q104 105 255 168t324 63q186 0 332 -73q148 -73 233 -211q86 -137 86 -314q0 -196 -118 -377q-108 -168 -271 -282h266l-32 -205h-590l24 160q199 111 335 278q149 183 149 396
q0 204 -121 313q-121 110 -313 110q-239 0 -392 -161q-153 -160 -153 -412q0 -318 282 -524z" />
    <glyph glyph-name="onethird" unicode="&#x2153;" horiz-adv-x="1079" 
d="M-10 211l-51 111l1028 493l51 -110zM303 717h-143l102 649l107 68h47zM381 -428l10 143h21q79 -67 174 -67q69 0 115 40q47 41 47 107q0 59 -31 90t-88 31q-50 0 -80 -10l-23 43l164 180h-237l20 125h469l-4 -18l-203 -218q75 -19 120.5 -72.5t45.5 -131.5
q0 -125 -92 -208t-227 -83q-128 0 -201 49z" />
    <glyph glyph-name="twothirds" unicode="&#x2154;" horiz-adv-x="1220" 
d="M535 717h-515l5 24l327 336q47 49 66.5 84t19.5 74q0 42 -28.5 67t-73.5 25q-94 0 -180 -113h-33l31 152q91 82 211 82q98 0 160 -53q63 -53 63 -138q0 -63 -27.5 -116t-87.5 -117l-178 -182h260zM131 211l-51 111l1028 493l51 -110zM522 -428l10 143h21q79 -67 174 -67
q69 0 115 40q47 41 47 107q0 59 -31 90t-88 31q-50 0 -80 -10l-22 43l163 180h-237l20 125h469l-4 -18l-202 -218q74 -19 119.5 -72.5t45.5 -131.5q0 -125 -92 -208t-227 -83q-128 0 -201 49z" />
    <glyph glyph-name="oneeighth" unicode="&#x215b;" horiz-adv-x="1069" 
d="M-10 211l-51 111l1028 493l51 -110zM303 717h-143l102 649l107 68h47zM352 -272q0 134 137 200q-63 53 -63 131q0 88 70 148q70 61 172 61q92 0 150 -49q59 -50 59 -125q0 -109 -113 -168q86 -59 86 -159q0 -101 -77 -172q-77 -72 -193 -72q-103 0 -165 61
q-63 62 -63 144zM487 -256q0 -46 29.5 -75t71.5 -29q55 0 93 36.5t38 90.5q0 50 -28.5 78t-76.5 28q-52 0 -90 -38q-37 -38 -37 -91zM555 59q0 -35 23.5 -56t60.5 -21q43 0 73.5 27.5t30.5 70.5q0 35 -22.5 56.5t-58.5 21.5q-45 0 -76 -29.5t-31 -69.5z" />
    <glyph glyph-name="threeeighths" unicode="&#x215c;" horiz-adv-x="1161" 
d="M82 211l-51 111l1028 493l51 -110zM63 752l11 143h20q82 -68 174 -68q69 0 115 40q47 41 47 108q0 59 -31 90t-88 31q-44 0 -80 -11l-22 43l164 181h-238l21 125h469l-4 -19l-203 -217q74 -19 120 -73t46 -132q0 -125 -93 -208q-92 -83 -227 -83q-127 0 -201 50z
M444 -272q0 134 138 200q-64 52 -64 131q0 88 70 148q70 61 172 61q92 0 150 -49q59 -50 59 -125q0 -109 -113 -168q86 -59 86 -159q0 -101 -77 -172q-77 -72 -193 -72q-103 0 -165 61q-63 62 -63 144zM580 -256q0 -46 29 -75t71 -29q55 0 93 36.5t38 90.5q0 50 -28 78
t-76 28q-52 0 -90 -38q-37 -38 -37 -91zM647 59q0 -35 23.5 -56t60.5 -21q43 0 74 27.5t31 70.5q0 35 -23 56.5t-59 21.5q-45 0 -76 -29.5t-31 -69.5z" />
    <glyph glyph-name="fiveeighths" unicode="&#x215d;" horiz-adv-x="1181" 
d="M102 211l-51 111l1028 493l51 -110zM82 737l-6 146h18q76 -54 180 -54q66 0 113 38q47 39 47 106q0 54 -32.5 84t-92.5 30q-81 0 -176 -51l-31 6l109 392h407l-20 -123h-299l-43 -131q57 20 119 20q95 0 152 -54.5t57 -152.5q0 -126 -92 -209q-91 -82 -226 -82
q-64 0 -100 7q-33 7 -84 28zM465 -272q0 134 137 200q-63 53 -63 131q0 88 69 148q70 61 172 61q92 0 150 -49q59 -50 59 -125q0 -110 -112 -168q86 -59 86 -159q0 -101 -77 -172q-76 -72 -194 -72q-103 0 -165 61q-62 62 -62 144zM600 -256q0 -46 29 -75t71 -29
q55 0 93 36.5t38 90.5q0 50 -28 78t-76 28q-52 0 -90 -38q-37 -38 -37 -91zM668 59q0 -35 23.5 -56t60.5 -21q43 0 73.5 27.5t30.5 70.5q0 35 -23 56.5t-59 21.5q-44 0 -75 -29.5t-31 -69.5z" />
    <glyph glyph-name="seveneighths" unicode="&#x215e;" horiz-adv-x="1130" 
d="M51 211l-51 111l1028 493l51 -110zM260 717h-160l396 592h-322l19 125h522l-4 -27zM414 -272q0 134 137 200q-64 52 -64 131q0 88 70 148q70 61 172 61q92 0 150 -49q59 -50 59 -125q0 -109 -113 -168q86 -59 86 -159q0 -101 -77 -172q-76 -72 -193 -72q-103 0 -165 61
q-62 62 -62 144zM549 -256q0 -46 29 -75t71 -29q55 0 93 36.5t38 90.5q0 50 -28 78t-76 28q-52 0 -90 -38q-37 -38 -37 -91zM616 59q0 -35 23.5 -56t60.5 -21q43 0 74 27.5t31 70.5q0 35 -23 56.5t-59 21.5q-45 0 -76 -29.5t-31 -69.5z" />
    <glyph glyph-name="partialdiff" unicode="&#x2202;" horiz-adv-x="1202" 
d="M59 412q0 224 149 370t376 146q84 0 165 -35q80 -35 121 -86q2 24 2 53q0 174 -90 293q-89 119 -217 119q-115 0 -231 -51l-19 12l80 201q119 28 217 28q101 0 187 -36t145 -101q88 -95 132 -237.5t44 -311.5q0 -264 -91 -462q-48 -103 -118 -179q-71 -77 -174 -120.5
t-225 -43.5q-121 0 -225 56q-105 58 -166 159q-62 103 -62 226zM297 426q0 -109 72 -178q74 -68 174 -68q118 0 205 95q88 94 88 223q0 101 -70 165q-69 66 -176 66q-123 0 -209 -92q-84 -91 -84 -211z" />
    <glyph glyph-name="increment" unicode="&#x2206;" horiz-adv-x="1343" 
d="M1174 0h-1231l18 115l703 1319h241l287 -1319zM750 1167l-514 -979h720z" />
    <glyph glyph-name="product" unicode="&#x220f;" horiz-adv-x="1271" 
d="M184 -463h-237l299 1897h1007l-301 -1897h-237l268 1692h-532z" />
    <glyph glyph-name="summation" unicode="&#x2211;" horiz-adv-x="1193" 
d="M1022 0h-1063l12 72l559 686l-323 602l12 74h985l-33 -205h-628l243 -471l-436 -553h705z" />
    <glyph glyph-name="minus" unicode="&#x2212;" horiz-adv-x="999" 
d="M909 664h-835l26 176h836z" />
    <glyph glyph-name="radical" unicode="&#x221a;" horiz-adv-x="1075" 
d="M201 594h-185l29 184h338l72 -471l473 1127h213l-613 -1434h-217z" />
    <glyph glyph-name="infinity" unicode="&#x221e;" horiz-adv-x="1179" 
d="M80 381q0 137 76 247t209 175q-59 44 -93 112t-34 148q0 142 101 252q103 111 267 139l23 135h82l-21 -127h19q31 0 55 -2l20 129h82l-24 -145q120 -35 187 -124q69 -88 69 -210q0 -99 -58.5 -183.5t-165.5 -146.5q72 -50 124 -134q51 -83 51 -191q0 -176 -125 -313
q-124 -136 -314 -165l-20 -133h-82l20 127q-32 0 -73 4l-21 -131h-82l23 150q-132 40 -214 148q-81 108 -81 239zM313 406q0 -60 26.5 -109.5t72.5 -79.5l69 447q-76 -34 -122 -104t-46 -154zM463 1055q0 -85 59 -135l51 325q-52 -30 -81 -80t-29 -110zM567 686l-80 -504
q30 -6 60 -6h14l80 508q-17 4 -45 4q-19 0 -29 -2zM659 1272l-61 -391q15 -4 43 -4q17 0 31 2l61 389q-46 12 -74 4zM717 653l-72 -460q79 30 126.5 100.5t47.5 165.5q0 129 -102 194zM809 1231l-51 -324q50 30 80 80t30 111q0 80 -59 133z" />
    <glyph glyph-name="integral" unicode="&#x222b;" horiz-adv-x="825" 
d="M-270 -399l30 200h21q51 -57 119 -57q116 0 141 123l254 1278q31 157 126 237t226 80q105 0 178 -43l-30 -200h-21q-51 57 -119 57q-116 0 -141 -123l-254 -1278q-32 -157 -126 -237q-95 -80 -226 -80q-105 0 -178 43z" />
    <glyph glyph-name="approxequal" unicode="&#x2248;" horiz-adv-x="983" 
d="M61 416h-16l43 184q96 90 209 90q100 0 202 -58q106 -57 173 -57q88 0 194 93h17l-43 -185q-90 -90 -203 -90q-53 0 -110 18q-55 18 -96 39q-104 58 -175 58q-90 0 -195 -92zM117 723h-17l43 184q96 90 209 90q66 0 135 -29q64 -27 130 -57q62 -27 111 -27.5t92 21
t102 70.5h16l-43 -184q-91 -91 -203 -91q-53 0 -110 18q-56 18 -96 39q-104 58 -175 58q-89 0 -194 -92z" />
    <glyph glyph-name="notequal" unicode="&#x2260;" horiz-adv-x="1030" 
d="M193 377h-150l29 176h245l189 274h-391l28 177h488l119 172h198l-119 -172h150l-29 -177h-245l-189 -274h391l-28 -176h-488l-119 -172h-198z" />
    <glyph glyph-name="lessequal" unicode="&#x2264;" horiz-adv-x="1015" 
d="M844 0h-836l27 176h835zM756 356l-566 437l27 163l705 437h32l-34 -209l-517 -316l416 -315l-31 -197h-32z" />
    <glyph glyph-name="greaterequal" unicode="&#x2265;" horiz-adv-x="1032" 
d="M846 0h-836l27 176h835zM162 356h-33l35 209l516 316l-416 315l31 197h33l565 -437l-27 -163z" />
    <glyph glyph-name="lozenge" unicode="&#x25ca;" horiz-adv-x="1150" 
d="M338 0l-313 717l540 717h246l315 -717l-542 -717h-246zM664 1251l-406 -542l227 -525l406 543z" />
    <glyph glyph-name="uniE000" unicode="&#xe000;" horiz-adv-x="1013" 
d="M1014 0h-1014v1014h1014v-1014z" />
    <glyph glyph-name="apple" unicode="&#xf8ff;" horiz-adv-x="1597" 
d="M193 45v1219q0 33 32 45l553 159q17 5 21 5q3 0 20 -5l553 -159q33 -12 33 -45v-1219q0 -19 -12.5 -32t-32.5 -13q-4 0 -14 2l-547 158l-547 -158q-10 -2 -14 -2q-20 0 -32.5 13t-12.5 32zM281 948v-844l473 138v417q-149 12 -274 89q-126 77 -199 200zM754 1370
l-471 -137q12 -192 146 -329t325 -154v620zM844 659v-417l473 -138v844q-78 -125 -200 -200q-125 -77 -273 -89zM844 1370v-620q191 17 325 154t146 329z" />
    <glyph glyph-name="CR.001" horiz-adv-x="682" 
 />
    <glyph glyph-name="zero.tn" horiz-adv-x="1331" 
d="M33 578q0 257 117 481q62 116 145 205q86 92 206 145t255 53q248 0 395 -168q147 -167 147 -448q0 -158 -48.5 -313.5t-139.5 -279.5q-93 -130 -230 -206.5t-302 -75.5q-112 0 -212 43.5t-175 122.5q-74 79 -116 194t-42 247zM270 600q0 -197 96 -311q98 -113 230 -113
q88 0 165.5 40.5t132.5 110.5q80 99 124.5 237t42.5 265q0 206 -84 317t-236 111q-85 0 -161.5 -39t-134.5 -108q-82 -100 -128.5 -237.5t-46.5 -272.5z" />
    <glyph glyph-name="one.tn" horiz-adv-x="1331" 
d="M672 0h-238l209 1319l186 115h70z" />
    <glyph glyph-name="two.tn" horiz-adv-x="1331" 
d="M1049 0h-961l4 31l651 684q98 103 145 178q50 80 50 170q0 95 -59 149t-148 54q-99 0 -208 -62q-107 -61 -187 -162h-25l56 261q76 72 182 115q108 44 211 44q175 0 293 -101q118 -100 118 -265q0 -141 -73 -258q-37 -61 -82 -115q-44 -53 -115 -127l-373 -391h553z" />
    <glyph glyph-name="three.tn" horiz-adv-x="1331" 
d="M127 63l14 254h23q152 -141 362 -141q150 0 250 94q101 95 101 242q0 132 -81 206q-79 73 -210 73q-65 0 -158 -21l-16 49l366 410h-508l33 205h889l-4 -31l-416 -447q129 -25 230 -123q108 -105 108 -292q0 -118 -43.5 -222.5t-123.5 -182.5q-80 -77 -194.5 -121
t-246.5 -44q-224 0 -375 92z" />
    <glyph glyph-name="four.tn" horiz-adv-x="1331" 
d="M745 340h-645l15 115l970 979h70l-141 -889h153l-30 -205h-154l-55 -340h-238zM842 950l-398 -405h332z" />
    <glyph glyph-name="five.tn" horiz-adv-x="1331" 
d="M141 41l-12 258h21q148 -123 364 -123q154 0 262 96q109 97 109 246q0 126 -75 196q-73 70 -198 70q-175 0 -372 -116l-52 8l213 758h793l-33 -205h-614l-98 -311q127 51 249 51q180 0 299 -110t119 -318q0 -247 -173 -409q-173 -161 -443 -161q-204 0 -359 70z" />
    <glyph glyph-name="six.tn" horiz-adv-x="1331" 
d="M117 543q0 267 125 504q66 122 151 211q90 95 212.5 149.5t258.5 54.5q151 0 266 -67l-12 -228h-24q-109 90 -260 90q-164 0 -284 -129q-118 -127 -165 -350q57 66 151 108t193 42q181 0 300 -116q118 -115 118 -302q0 -107 -42 -207t-116 -174q-73 -73 -176 -115.5
t-215 -42.5q-222 0 -352 160q-129 158 -129 412zM360 424q0 -107 71 -178q71 -70 179 -70q128 0 214 90q85 91 85 223q0 110 -67 177q-66 67 -178 67q-128 0 -216 -93q-88 -91 -88 -216z" />
    <glyph glyph-name="seven.tn" horiz-adv-x="1331" 
d="M354 0h-256l817 1229h-657l33 205h995l-4 -31z" />
    <glyph glyph-name="eight.tn" horiz-adv-x="1331" 
d="M135 381q0 137 76 247t209 175q-59 44 -93 112t-34 148q0 167 132 282q133 117 339 117q172 0 280 -99q109 -99 109 -253q0 -99 -58.5 -183.5t-164.5 -146.5q74 -51 123 -133q51 -83 51 -192q0 -129 -69 -241q-69 -111 -191 -177t-264 -66q-94 0 -178 33t-143 90
q-58 58 -91 132.5t-33 154.5zM369 406q0 -101 68 -166q67 -64 165 -64q115 0 193 78q79 79 79 205q0 103 -66 166q-64 63 -159 63q-117 0 -199 -84q-81 -82 -81 -198zM518 1055q0 -80 52 -129t126 -49q92 0 159 63q69 63 69 158q0 81 -53 128q-53 48 -130 48q-95 0 -159 -64
t-64 -155z" />
    <glyph glyph-name="nine.tn" horiz-adv-x="1331" 
d="M178 924q0 147 70 269q70 123 197 196t282 73q221 0 352 -159q129 -157 129 -412q0 -274 -126 -510q-64 -120 -151 -210q-89 -93 -211.5 -146.5t-258.5 -53.5q-148 0 -266 68l12 227h24q113 -90 265 -90q166 0 287 130q120 129 167 353q-132 -153 -336 -153
q-118 0 -217 51t-159 147q-60 98 -60 220zM416 944q0 -108 69 -176q71 -68 177 -68q126 0 215 93q88 92 88 217q0 106 -71 177q-70 70 -179 70q-129 0 -214 -91q-85 -89 -85 -222z" />
    </font>
</defs>
</svg>
