<?xml version="1.0" standalone="no"?>
<!DOCTYPE svg PUBLIC "-//W3C//DTD SVG 1.1//EN" "http://www.w3.org/Graphics/SVG/1.1/DTD/svg11.dtd" >
<svg xmlns="http://www.w3.org/2000/svg" xmlns:xlink="http://www.w3.org/1999/xlink" version="1.1">
<metadata>
Created by FontForge 20191125 at Mon Feb  3 19:33:36 2014
 By convertio
Copyright (c) 2012 by The Entente (AS&#38;EH). All rights reserved.
</metadata>
<defs>
<font id="Value-Medium" horiz-adv-x="1146" >
  <font-face 
    font-family="Value"
    font-weight="500"
    font-stretch="normal"
    units-per-em="2048"
    panose-1="2 11 6 3 3 2 4 2 2 3"
    ascent="1638"
    descent="-410"
    x-height="1012"
    cap-height="1434"
    bbox="-285 -645 2220 2134"
    underline-thickness="102"
    underline-position="-408"
    unicode-range="U+000D-FB02"
  />
<missing-glyph horiz-adv-x="645" 
 />
    <glyph glyph-name="fi" unicode="fi" horiz-adv-x="1200" 
d="M203 823h-123v189h123v133q0 147 91 232t216 85q92 0 174 -43l8 -200h-16q-60 57 -131 57q-58 0 -91.5 -36t-33.5 -101v-127h174v-189h-174v-823h-217v823zM860 1219q-41 43 -41 100q0 58 41 99q42 42 101 42t100 -41t41 -100t-41 -100t-100 -41q-58 0 -101 41zM1069 0
h-217v1012h217v-1012z" />
    <glyph glyph-name="fl" unicode="fl" horiz-adv-x="1181" 
d="M203 823h-123v189h123v133q0 147 91 232t216 85q92 0 174 -43l8 -200h-16q-60 57 -131 57q-58 0 -91.5 -36t-33.5 -101v-127h174v-189h-174v-823h-217v823zM1061 0h-217v1475h217v-1475z" />
    <glyph glyph-name=".notdef" horiz-adv-x="645" 
 />
    <glyph glyph-name=".null" horiz-adv-x="0" 
 />
    <glyph glyph-name="nonmarkingreturn" horiz-adv-x="682" 
 />
    <glyph glyph-name="NULL" horiz-adv-x="0" 
 />
    <glyph glyph-name="NULL" horiz-adv-x="0" 
 />
    <glyph glyph-name="CR" unicode="&#xd;" horiz-adv-x="0" 
 />
    <glyph glyph-name="space" unicode=" " horiz-adv-x="645" 
 />
    <glyph glyph-name="exclam" unicode="!" horiz-adv-x="561" 
d="M186 22q-43 43 -43 103t43 102q43 43 103 43t102 -43q43 -42 43 -102t-43 -103q-42 -42 -102 -42q-59 0 -103 42zM397 430h-217v1004h217v-1004z" />
    <glyph glyph-name="quotedbl" unicode="&#x22;" horiz-adv-x="753" 
d="M127 969l-45 465h242l-45 -465h-152zM475 969l-45 465h242l-45 -465h-152z" />
    <glyph glyph-name="numbersign" unicode="#" horiz-adv-x="1445" 
d="M307 387h-246l37 180h244l55 299h-252l39 181h246l72 387h198l-71 -387h311l72 387h198l-71 -387h245l-36 -181h-244l-55 -299h251l-38 -180h-246l-72 -387h-199l72 387h-311l-72 -387h-198zM596 866l-55 -299h309l55 299h-309z" />
    <glyph glyph-name="dollar" unicode="$" horiz-adv-x="1056" 
d="M98 121l13 280h20q160 -207 346 -223v490l-12 6q-176 77 -265 179.5t-89 240.5q0 152 105 250t261 114v131h139v-133q163 -20 258 -104l11 -256h-27q-119 128 -242 161v-417q184 -80 273.5 -183.5t89.5 -250.5q0 -167 -100 -282q-99 -115 -263 -144v-136h-139v129
q-236 12 -379 148zM328 1102q0 -112 149 -195v359q-67 -12 -108 -56.5t-41 -107.5zM616 594v-401q59 23 92 73t33 117q0 68 -30.5 118t-94.5 93z" />
    <glyph glyph-name="percent" unicode="%" horiz-adv-x="1323" 
d="M173 908q-97 94 -97 231t97 230t237 93q138 0 236 -93q97 -93 97 -230t-97 -231q-98 -93 -236 -93q-140 0 -237 93zM201 412l-60 114l961 498l59 -115zM287 1266q-51 -50 -51 -127t51 -127q50 -49 123 -49t123 49q51 50 51 127t-51 127q-50 49 -123 49t-123 -49zM664 64
q-97 94 -97 231t97 230q98 93 237 93t236 -93q98 -93 98 -230q0 -136 -98 -231q-97 -93 -236 -93t-237 93zM778 422q-51 -50 -51 -127t51 -127q50 -49 123 -49t123 49q51 50 51 127t-51 127q-50 49 -123 49t-123 -49z" />
    <glyph glyph-name="ampersand" unicode="&#x26;" horiz-adv-x="1298" 
d="M66 387q0 119 67 229q68 111 209 191q-64 83 -91.5 153t-27.5 148q0 83 32.5 152.5t87.5 113.5q113 88 261 88q164 0 267 -89q102 -89 102 -228q0 -127 -74 -219q-74 -90 -242 -178l254 -314q85 118 160 293h27l57 -262q-52 -111 -111 -193l224 -272h-273l-96 117
q-184 -146 -399 -146q-184 0 -309 117t-125 299zM303 391q0 -95 69 -157q71 -62 167 -62q118 0 231 104l-299 373q-168 -95 -168 -258zM434 1114q0 -95 103 -221q133 60 182 118t49 130q0 58 -47 102q-46 43 -117 43q-72 0 -122 -48q-48 -46 -48 -124z" />
    <glyph glyph-name="quotesingle" unicode="'" horiz-adv-x="405" 
d="M127 969l-45 465h242l-45 -465h-152z" />
    <glyph glyph-name="parenleft" unicode="(" horiz-adv-x="624" 
d="M414 1434h170q-265 -442 -265 -949q0 -506 265 -948h-170q-134 180 -224 425q-88 240 -88 523q0 284 88 524q90 245 224 425z" />
    <glyph glyph-name="parenright" unicode=")" horiz-adv-x="624" 
d="M211 -463h-170q264 439 264 948q0 510 -264 949h170q135 -180 223 -425q88 -240 88 -524q0 -283 -88 -523q-88 -244 -223 -425z" />
    <glyph glyph-name="asterisk" unicode="*" horiz-adv-x="811" 
d="M166 885l-76 133l4 20l250 74l-250 74l-4 20l76 133l20 4l191 -178l-64 252l17 17h151l17 -17l-64 -252l191 178l20 -4l76 -133l-4 -20l-250 -74l250 -74l4 -20l-76 -133l-20 -4l-191 178l64 -252l-17 -16h-151l-17 16l64 252l-191 -178z" />
    <glyph glyph-name="plus" unicode="+" horiz-adv-x="1024" 
d="M424 664h-330v176h330v329h176v-329h330v-176h-330v-330h-176v330z" />
    <glyph glyph-name="comma" unicode="," horiz-adv-x="454" 
d="M90 113q0 59 38 100q39 41 97 41q61 0 100 -42q40 -40 40 -101q0 -238 -232 -359l-18 47q52 38 78 79.5t32 101.5q-53 0 -94 39t-41 94z" />
    <glyph glyph-name="hyphen" unicode="-" horiz-adv-x="815" 
d="M733 561h-651v176h651v-176z" />
    <glyph glyph-name="period" unicode="." horiz-adv-x="454" 
d="M130 20q-40 40 -40 97t40 97t97 40t97 -40q41 -41 41 -97t-41 -97q-40 -40 -97 -40t-97 40z" />
    <glyph glyph-name="slash" unicode="/" horiz-adv-x="1124" 
d="M276 0h-245l817 1434h246z" />
    <glyph glyph-name="zero" unicode="0" horiz-adv-x="1441" 
d="M172 334q-74 171 -74 383q0 215 75 383.5t216 264.5q142 97 332 97q189 0 331 -97q143 -98 216 -266q75 -168 75 -382q0 -213 -75 -383q-74 -169 -216 -266t-331 -97q-190 0 -332 97q-141 97 -217 266zM438 1114q-102 -142 -102 -397q0 -254 102 -398q104 -143 283 -143
q180 0 282 143q103 143 103 398t-103 397q-102 143 -282 143q-179 0 -283 -143z" />
    <glyph glyph-name="one" unicode="1" horiz-adv-x="503" 
d="M371 0h-238v1319l168 115h70v-1434z" />
    <glyph glyph-name="two" unicode="2" horiz-adv-x="1132" 
d="M1038 0h-970v31l559 692q69 87 102 160q31 71 31 155q0 101 -71 164q-70 64 -169 64q-102 0 -200 -63q-99 -64 -160 -161h-25l15 261q72 74 175 116.5t210 42.5q209 0 330 -112q122 -113 122 -295q0 -115 -48 -223t-146 -228l-326 -399h571v-205z" />
    <glyph glyph-name="three" unicode="3" horiz-adv-x="1161" 
d="M631 1229h-516v205h889v-31l-345 -447q176 -32 286 -142q118 -118 118 -325q0 -237 -147 -378q-148 -140 -388 -140q-206 0 -372 92l-27 254h23q174 -141 385 -141q127 0 213 78q86 80 86 219q0 145 -92 231q-92 87 -236 87q-68 0 -156 -21l-24 49z" />
    <glyph glyph-name="four" unicode="4" horiz-adv-x="1144" 
d="M682 340h-647v115l815 979h70v-889h153v-205h-153v-340h-238v340zM682 956l-338 -411h338v411z" />
    <glyph glyph-name="five" unicode="5" horiz-adv-x="1140" 
d="M154 41l-52 264h21q179 -129 387 -129q139 0 231 80q93 81 93 225q0 143 -89 223t-229 80q-172 0 -354 -116l-51 8l92 758h792v-205h-614l-49 -311q120 51 241 51q226 0 356 -130q132 -131 132 -358q2 -149 -70.5 -267.5t-196 -182t-272.5 -60.5q-112 0 -182 16
q-70 15 -186 54z" />
    <glyph glyph-name="six" unicode="6" horiz-adv-x="1208" 
d="M90 647q0 128 23.5 246.5t73.5 222.5t122 180.5t174.5 121t225.5 44.5q155 0 262 -67l24 -228h-24q-69 50 -130 70t-132 20q-155 0 -259 -122q-102 -120 -122 -334q58 55 152 91q95 36 190 36q202 0 330 -131t128 -340q0 -128 -67 -240q-68 -112 -184 -179t-254 -67
q-121 0 -224.5 49t-177.5 142q-63 80 -97 205.5t-34 279.5zM621 176q122 0 195 79q75 79 75 200q0 119 -75 199q-73 79 -195 79q-123 0 -199 -79t-76 -199q0 -121 76 -200t199 -79z" />
    <glyph glyph-name="seven" unicode="7" horiz-adv-x="1122" 
d="M766 1233h-666v201h996v-31l-705 -1403h-250z" />
    <glyph glyph-name="eight" unicode="8" 
d="M92 410q0 126 59 220.5t164 151.5q-168 118 -168 303q0 160 121 268q121 109 305 109t305 -109q121 -108 121 -268q0 -185 -168 -303q105 -57 164.5 -151.5t59.5 -220.5q0 -61 -19.5 -123t-60.5 -118.5t-97 -100.5t-135 -70.5t-170 -26.5q-110 0 -204 39t-155 105
q-122 138 -122 295zM322 432q0 -109 75 -182q76 -74 176 -74t176 74q76 73 76 182q0 108 -75 182q-74 74 -177 74t-177 -74t-74 -182zM373 1075q0 -87 57 -142q59 -56 143 -56t143 56q58 55 58 142q0 88 -58 143q-58 56 -143 56t-143 -56q-57 -56 -57 -143z" />
    <glyph glyph-name="nine" unicode="9" horiz-adv-x="1208" 
d="M80 977q0 130 66 241q67 112 183 178q117 66 257 66q119 0 222 -47t169 -129q141 -182 141 -500q0 -268 -97 -469q-74 -160 -206.5 -252.5t-314.5 -93.5q-152 0 -262 68l-25 227h25q69 -50 130 -70t132 -20q158 0 260 119q103 118 121 338q-58 -55 -153 -91
q-94 -36 -189 -36q-202 0 -331 131q-128 131 -128 340zM588 1257q-121 0 -196 -79q-75 -80 -75 -199q0 -121 75 -200t196 -79t197 79q77 80 77 200t-76 199t-198 79z" />
    <glyph glyph-name="colon" unicode=":" horiz-adv-x="454" 
d="M130 20q-40 40 -40 97t40 97t97 40t97 -40q41 -41 41 -97t-41 -97q-40 -40 -97 -40t-97 40zM130 745q-40 40 -40 97t40 97t97 40t97 -40q41 -41 41 -97t-41 -97q-40 -40 -97 -40t-97 40z" />
    <glyph glyph-name="semicolon" unicode=";" horiz-adv-x="454" 
d="M90 113q0 59 38 100q39 41 97 41q61 0 100 -42q40 -40 40 -101q0 -238 -232 -359l-18 47q52 38 78 79.5t32 101.5q-53 0 -94 39t-41 94zM130 745q-40 40 -40 97t40 97t97 40t97 -40q41 -41 41 -97t-41 -97q-40 -40 -97 -40t-97 40z" />
    <glyph glyph-name="less" unicode="&#x3c;" horiz-adv-x="856" 
d="M729 193l-635 436v164l635 436h33v-205l-467 -313l467 -314v-204h-33z" />
    <glyph glyph-name="equal" unicode="=" horiz-adv-x="1024" 
d="M930 377h-836v176h836v-176zM930 827h-836v177h836v-177z" />
    <glyph glyph-name="greater" unicode="&#x3e;" horiz-adv-x="856" 
d="M127 193h-33v204l467 314l-467 313v205h33l635 -436v-164z" />
    <glyph glyph-name="question" unicode="?" horiz-adv-x="1019" 
d="M133 1108h-20l14 240q70 51 159 82q93 32 177 32q179 0 291 -91q112 -90 112 -251q0 -74 -23 -140q-14 -40 -37 -77.5t-38 -55.5t-53 -61l-72 -81q-78 -85 -78 -191v-76h-217v51q0 78 22 141q15 41 37.5 79.5t39 59t51.5 60.5l73 82q78 87 78 191q0 77 -56 125
q-55 49 -149 49q-90 0 -175 -52q-86 -53 -136 -116zM362 22q-43 43 -43 103t43 102q43 43 103 43t102 -43q43 -42 43 -102t-43 -103q-42 -42 -102 -42q-59 0 -103 42z" />
    <glyph glyph-name="at" unicode="@" horiz-adv-x="1820" 
d="M102 645q0 173 66 326q65 153 177 260q115 109 263 169q153 62 316 62q223 0 404 -100q183 -100 286 -274q104 -176 104 -390q0 -201 -98 -317q-97 -115 -238 -115q-81 0 -144 42.5t-93 113.5q-58 -79 -129 -117.5t-166 -38.5q-143 0 -250 106q-108 106 -108 281
q0 168 109 277q110 110 261 110q70 0 134.5 -27t101.5 -71v78h164v-422q0 -90 35 -136t96 -46q59 0 103 68t44 182q0 147 -47.5 268t-132.5 200q-175 164 -436 164q-126 0 -240.5 -46t-201.5 -130q-88 -85 -137.5 -209t-49.5 -268q0 -190 83 -342q83 -149 227 -232
q143 -81 319 -81q201 0 376 121h27l-10 -181q-182 -104 -393 -104q-237 0 -424 106q-189 106 -293 292q-105 187 -105 421zM662 653q0 -101 65 -169q66 -68 158 -68t157 68q66 68 66 169q0 106 -61 171q-60 67 -162 67t-163 -67q-60 -66 -60 -171z" />
    <glyph glyph-name="A" unicode="A" horiz-adv-x="1396" 
d="M266 0h-231l629 1434h69l629 -1434h-232l-114 266h-635zM698 995l-227 -524h455z" />
    <glyph glyph-name="B" unicode="B" horiz-adv-x="1228" 
d="M684 0h-551v1434h485q221 0 347 -99q127 -99 127 -256q0 -227 -213 -325q130 -38 206 -127q78 -90 78 -221q0 -80 -26 -147t-71 -114.5t-106 -80.5t-131 -48.5t-145 -15.5zM371 635v-430h297q127 0 192.5 56t65.5 159t-65.5 159t-192.5 56h-297zM371 1229v-389h256
q235 0 235 194q0 195 -235 195h-256z" />
    <glyph glyph-name="C" unicode="C" horiz-adv-x="1349" 
d="M823 1462q125 0 221 -27.5t191 -86.5l18 -256h-28q-189 165 -402 165q-225 0 -370 -151q-144 -152 -144 -389q0 -239 144 -390q145 -151 370 -151q212 0 402 166h28l-18 -256q-93 -58 -189 -87q-93 -28 -223 -28q-153 0 -292 56t-239 153q-101 98 -161 238
q-59 141 -59 299q0 157 59 298q60 139 161 237q102 99 239 154q139 56 292 56z" />
    <glyph glyph-name="D" unicode="D" horiz-adv-x="1292" 
d="M471 0h-338v1434h338q211 0 380 -84q168 -83 269 -249q101 -164 101 -384q0 -219 -101 -385q-99 -162 -267.5 -247t-381.5 -85zM371 1229v-1024h102q228 -4 369.5 133t140.5 379q1 242 -140.5 379t-369.5 133h-102z" />
    <glyph glyph-name="E" unicode="E" horiz-adv-x="1089" 
d="M1008 0h-875v1434h866v-205h-628v-389h606v-205h-606v-430h637v-205z" />
    <glyph glyph-name="F" unicode="F" horiz-adv-x="1124" 
d="M371 0h-238v1434h891v-205h-653v-441h630v-204h-630v-584z" />
    <glyph glyph-name="G" unicode="G" horiz-adv-x="1507" 
d="M72 717q0 215 105 386q104 171 281 265q176 94 388 94q270 0 461 -131l20 -252h-31q-103 84 -220.5 131t-225.5 47q-225 0 -380 -141q-76 -68 -118.5 -172t-42.5 -227q0 -121 39.5 -224t110.5 -173q146 -144 370 -144q200 0 340 127v303h-428v205h666v-598
q-144 -123 -285.5 -182.5t-302.5 -59.5q-153 0 -290.5 54.5t-240.5 152.5q-99 96 -158 237q-58 138 -58 302z" />
    <glyph glyph-name="H" unicode="H" horiz-adv-x="1363" 
d="M371 0h-238v1434h238v-576h622v576h238v-1434h-238v653h-622v-653z" />
    <glyph glyph-name="I" unicode="I" horiz-adv-x="503" 
d="M371 0h-238v1434h238v-1434z" />
    <glyph glyph-name="J" unicode="J" horiz-adv-x="796" 
d="M111 0l-25 223h33q82 -47 162 -47q71 0 113 51.5t42 151.5v1055h238v-1043q0 -197 -98 -309q-98 -111 -257 -111q-63 0 -103 6q-36 5 -105 23z" />
    <glyph glyph-name="K" unicode="K" horiz-adv-x="1236" 
d="M371 0h-238v1434h238v-674l520 674h266l-549 -699l602 -735h-280l-559 678v-678z" />
    <glyph glyph-name="L" unicode="L" horiz-adv-x="1161" 
d="M1081 0h-948v1434h238v-1229h710v-205z" />
    <glyph glyph-name="M" unicode="M" horiz-adv-x="1814" 
d="M276 0h-231l377 1434h78l407 -959l408 959h78l376 -1434h-231l-227 852l-377 -852h-53l-377 852z" />
    <glyph glyph-name="N" unicode="N" horiz-adv-x="1415" 
d="M371 0h-238v1434h96l815 -924v924h238v-1434h-96l-815 928v-928z" />
    <glyph glyph-name="O" unicode="O" horiz-adv-x="1654" 
d="M827 1462q155 0 295 -57q140 -56 241 -155q104 -100 162 -238.5t58 -294.5q0 -209 -101 -382q-100 -170 -273 -268q-173 -96 -382 -96t-382 96q-173 98 -273 268q-100 172 -100 382q0 211 100 381q100 172 273 268t382 96zM827 176q222 0 367 142q72 70 112 173.5
t40 225.5q0 164 -71 289q-71 126 -187 188q-116 63 -261 63t-262 -63q-115 -63 -186 -188q-70 -124 -70 -289q0 -166 70 -290q69 -122 185.5 -186.5t262.5 -64.5z" />
    <glyph glyph-name="P" unicode="P" horiz-adv-x="1077" 
d="M371 0h-238v1434h391q240 0 376 -123q138 -123 138 -318t-138 -318q-137 -122 -376 -122h-153v-553zM371 1229v-471h155q130 0 202.5 62t72.5 173t-72.5 173.5t-202.5 62.5h-155z" />
    <glyph glyph-name="Q" unicode="Q" horiz-adv-x="1648" 
d="M823 1462q156 0 295 -57q140 -56 241 -155q104 -100 162 -238.5t58 -294.5q0 -267 -162 -469l201 -201l-145 -151l-209 208q-190 -133 -441 -133q-209 0 -382 96q-173 98 -273 268q-100 172 -100 382q0 211 100 381q100 172 273 268q172 96 382 96zM823 176q157 0 287 80
l-162 164l148 149l164 -163q81 133 81 311q0 165 -70 289q-71 126 -187 188q-116 63 -261 63t-262 -63q-115 -63 -186 -188q-70 -124 -70 -289q0 -166 70 -290q69 -122 185.5 -186.5t262.5 -64.5z" />
    <glyph glyph-name="R" unicode="R" horiz-adv-x="1165" 
d="M371 0h-238v1434h416q214 0 347 -109q134 -110 134 -299q0 -141 -81 -240q-80 -98 -204 -143l388 -643h-265l-372 618h-125v-618zM371 1229v-406h168q124 0 189 51t65 152t-65 152t-189 51h-168z" />
    <glyph glyph-name="S" unicode="S" horiz-adv-x="1056" 
d="M98 121l13 280h20q86 -111 177.5 -168t205.5 -57q103 0 165 56q62 57 62 151q0 103 -66 164q-65 62 -210 127q-176 77 -265 179.5t-89 240.5q0 110 59 196q58 84 152.5 128t207.5 44q220 0 344 -110l11 -256h-27q-160 174 -330 174q-85 0 -143 -47q-57 -47 -57 -121
q0 -82 70 -140t227 -126q178 -77 266 -180.5t88 -249.5q0 -190 -129 -313q-128 -122 -332 -122q-129 0 -237.5 41t-182.5 109z" />
    <glyph glyph-name="T" unicode="T" horiz-adv-x="1101" 
d="M432 1229h-360v205h958v-205h-360v-1229h-238v1229z" />
    <glyph glyph-name="U" unicode="U" horiz-adv-x="1335" 
d="M113 553v881h237v-906q0 -189 100 -276q92 -76 218 -76q128 0 217 76q100 87 100 276v906h238v-881q0 -275 -150 -429q-150 -153 -405 -153t-405 153q-150 154 -150 429z" />
    <glyph glyph-name="V" unicode="V" horiz-adv-x="1425" 
d="M662 0l-631 1434h248l434 -1016l434 1016h248l-631 -1434h-102z" />
    <glyph glyph-name="W" unicode="W" horiz-adv-x="1986" 
d="M528 0l-483 1434h252l297 -908l346 908h107l346 -908l297 908h252l-484 -1434h-88l-377 987l-377 -987h-88z" />
    <glyph glyph-name="X" unicode="X" horiz-adv-x="1257" 
d="M295 0h-254l467 774l-393 660h250l268 -459l268 459h254l-401 -658l463 -776h-250l-336 569z" />
    <glyph glyph-name="Y" unicode="Y" horiz-adv-x="1224" 
d="M494 623l-465 811h258l325 -598l326 598h258l-465 -811v-623h-237v623z" />
    <glyph glyph-name="Z" unicode="Z" horiz-adv-x="1234" 
d="M1163 0h-1112v31l725 1198h-663v205h1020v-31l-725 -1198h755v-205z" />
    <glyph glyph-name="bracketleft" unicode="[" horiz-adv-x="595" 
d="M524 -463h-401v1897h401v-205h-184v-1487h184v-205z" />
    <glyph glyph-name="backslash" unicode="\" horiz-adv-x="1124" 
d="M848 0l-817 1434h245l818 -1434h-246z" />
    <glyph glyph-name="bracketright" unicode="]" horiz-adv-x="595" 
d="M72 -463v205h184v1487h-184v205h401v-1897h-401z" />
    <glyph glyph-name="asciicircum" unicode="^" horiz-adv-x="1069" 
d="M270 805h-198v31l389 598h147l389 -598v-31h-198l-264 399z" />
    <glyph glyph-name="underscore" unicode="_" horiz-adv-x="1048" 
d="M45 -176v176h959v-176h-959z" />
    <glyph glyph-name="grave" unicode="`" horiz-adv-x="620" 
d="M362 1153l-288 281h288l185 -281h-185z" />
    <glyph glyph-name="a" unicode="a" horiz-adv-x="1251" 
d="M68 506q0 154 71 278q71 123 188.5 189.5t258.5 66.5q104 0 190.5 -38.5t136.5 -100.5v111h217v-1012h-217v111q-70 -71 -148.5 -105.5t-186.5 -34.5q-100 0 -193.5 38.5t-163.5 108.5q-71 70 -112 171.5t-41 216.5zM373 745q-88 -97 -88 -239t88 -240q89 -98 231 -98
t229 98q87 99 87 240q0 142 -87 239q-87 99 -229 99t-231 -99z" />
    <glyph glyph-name="b" unicode="b" horiz-adv-x="1263" 
d="M338 0h-217v1475h217v-586q56 65 150 108q93 43 202 43q104 0 196.5 -37.5t161.5 -106.5q70 -69 109 -170.5t39 -219.5q0 -236 -145 -385q-145 -150 -363 -150q-104 0 -194.5 39.5t-155.5 106.5v-117zM418 746q-90 -98 -90 -240t90 -240q92 -98 235 -98t235 98
q91 97 91 240t-91 240q-92 98 -235 98t-235 -98z" />
    <glyph glyph-name="c" unicode="c" horiz-adv-x="1005" 
d="M68 506q0 120 43 222.5t118 170.5q158 141 377 141q169 0 293 -86l10 -221h-24q-70 63 -133 86q-63 25 -148 25q-144 0 -232 -97q-87 -96 -87 -241q0 -144 87 -242q89 -96 232 -96q81 0 144 27q65 30 135 92h24l-10 -226q-121 -90 -291 -90q-146 0 -267 63t-196 186
q-75 124 -75 286z" />
    <glyph glyph-name="d" unicode="d" horiz-adv-x="1263" 
d="M68 506q0 242 147 387q149 147 371 147q219 0 340 -145v580h217v-1475h-217v117q-62 -66 -151 -106t-193 -40q-144 0 -260 67q-117 68 -186 190q-68 124 -68 278zM375 746q-90 -98 -90 -240t90 -240q92 -98 235 -98t235 98q91 97 91 240t-91 240q-92 98 -235 98t-235 -98
z" />
    <glyph glyph-name="e" unicode="e" horiz-adv-x="1157" 
d="M68 506q0 110 40 210t109 171q70 72 164.5 112.5t198.5 40.5q154 0 269 -69q115 -67 173.5 -181t58.5 -260v-79h-798q18 -143 113 -215t220 -72q106 0 193.5 33t175.5 110h23l-9 -217q-181 -119 -393 -119q-148 0 -273 71q-123 71 -194 194q-71 124 -71 270zM289 606h581
q-15 117 -96 189q-79 73 -194 73q-98 0 -181 -67q-85 -66 -110 -195z" />
    <glyph glyph-name="f" unicode="f" horiz-adv-x="720" 
d="M203 823h-123v189h123v133q0 147 91 232t216 85q92 0 174 -43l8 -200h-16q-60 57 -131 57q-58 0 -91.5 -36t-33.5 -101v-127h174v-189h-174v-823h-217v823z" />
    <glyph glyph-name="g" unicode="g" horiz-adv-x="1239" 
d="M70 520q0 115 44 215.5t119 167.5q156 137 345 137q104 0 187 -34.5t136 -94.5v101h217v-920q0 -309 -153 -450q-144 -134 -398 -134q-179 0 -321 84l-8 218h41q63 -53 135 -79t174 -26q137 0 225 83q88 82 88 232v109q-129 -129 -328 -129q-140 0 -255 64
q-112 64 -181 184q-67 119 -67 272zM372 749q-85 -94 -85 -229t85 -229t234 -94q148 0 232 94q84 95 84 229t-84 229t-232 95t-234 -95z" />
    <glyph glyph-name="h" unicode="h" horiz-adv-x="1163" 
d="M338 0h-217v1475h217v-601q54 72 152 119q99 47 198 47q166 0 266 -93q101 -93 101 -259v-688h-217v623q0 103 -63 162q-62 59 -161 59q-112 0 -194 -85t-82 -218v-541z" />
    <glyph glyph-name="i" unicode="i" horiz-adv-x="479" 
d="M240 1460q58 0 99 -41q42 -41 42 -100t-42 -100q-41 -41 -99 -41t-101 41q-41 43 -41 100q0 58 41 99q42 42 101 42zM348 0h-217v1012h217v-1012z" />
    <glyph glyph-name="j" unicode="j" horiz-adv-x="483" 
d="M-76 -457l-18 189h28q50 -39 107 -39q96 0 96 123v1196h217v-1178q0 -159 -77 -242.5t-214 -83.5q-74 0 -139 35zM246 1460q58 0 99 -41q42 -41 42 -100t-42 -100q-41 -41 -99 -41t-101 41q-41 43 -41 100q0 58 41 99q42 42 101 42z" />
    <glyph glyph-name="k" unicode="k" horiz-adv-x="1003" 
d="M338 0h-217v1475h217v-904l373 441h252l-406 -469l422 -543h-262l-379 492v-492z" />
    <glyph glyph-name="l" unicode="l" horiz-adv-x="458" 
d="M338 0h-217v1475h217v-1475z" />
    <glyph glyph-name="m" unicode="m" horiz-adv-x="1671" 
d="M338 0h-217v1012h217v-125q43 70 128 111q84 42 177 42q95 0 168 -39.5t113 -111.5q47 67 135 109q87 42 184 42q147 0 233 -87q87 -87 87 -234v-719h-217v647q0 92 -46.5 144.5t-128.5 52.5q-99 0 -159 -67q-60 -66 -60 -179v-598h-217v653q0 89 -49 140t-129 51
q-96 0 -157 -78q-62 -77 -62 -203v-563z" />
    <glyph glyph-name="n" unicode="n" 
d="M338 0h-217v1012h217v-138q52 72 145 119q96 47 197 47q161 0 259 -92q99 -92 99 -260v-688h-217v623q0 105 -59 163t-160 58q-112 0 -188 -85t-76 -218v-541z" />
    <glyph glyph-name="o" unicode="o" horiz-adv-x="1220" 
d="M141 231q-73 124 -73 275q0 152 73 274q74 125 197 191q125 69 272 69q148 0 272 -69q124 -67 198 -191q73 -122 73 -274q0 -151 -73 -275q-74 -123 -198 -192q-125 -68 -272 -68t-272 68q-123 68 -197 192zM610 168q137 0 231 94q95 95 95 244q0 148 -95 243t-231 95
q-135 0 -230 -95t-95 -243q0 -149 95 -244q94 -94 230 -94z" />
    <glyph glyph-name="p" unicode="p" horiz-adv-x="1263" 
d="M338 -463h-217v1475h217v-123q66 68 157 109.5t195 41.5q218 0 362 -150q144 -148 144 -384q0 -119 -39 -220.5t-109 -170.5q-69 -69 -161.5 -106.5t-196.5 -37.5q-108 0 -201 40t-151 106v-580zM418 746q-90 -98 -90 -240t90 -240q92 -98 235 -98t235 98q91 97 91 240
t-91 240q-92 98 -235 98t-235 -98z" />
    <glyph glyph-name="q" unicode="q" horiz-adv-x="1263" 
d="M68 506q0 235 148 384q148 150 366 150q104 0 193 -39t151 -106v117h217v-1475h-217v580q-137 -146 -353 -146q-101 0 -193 37.5t-162 106.5q-70 70 -110 171.5t-40 219.5zM375 746q-90 -98 -90 -240t90 -240q92 -98 235 -98t235 98q91 97 91 240t-91 240q-92 98 -235 98
t-235 -98z" />
    <glyph glyph-name="r" unicode="r" horiz-adv-x="839" 
d="M338 0h-217v1012h217v-123q48 71 121.5 111t154.5 40q93 0 158 -47l14 -231h-18q-88 82 -186 82q-96 0 -166 -69q-78 -76 -78 -247v-528z" />
    <glyph glyph-name="s" unicode="s" horiz-adv-x="860" 
d="M72 72l49 204h12q134 -108 281 -108q74 0 120 30.5t46 82.5q0 63 -48 97q-46 34 -167 75q-265 88 -265 297q0 125 100 207q101 83 251 83q153 0 274 -71l8 -207h-14q-139 98 -268 98q-64 0 -105 -28t-41 -78q0 -55 49 -89q50 -35 166 -75q129 -45 198 -104
q79 -67 79 -193q0 -146 -110 -235q-109 -87 -267 -87q-193 0 -348 101z" />
    <glyph glyph-name="t" unicode="t" horiz-adv-x="788" 
d="M205 823h-180v189h180v192l217 99v-291h283v-189h-283v-538q0 -60 36 -93q37 -32 83 -32q88 0 166 63h18l-20 -200q-97 -52 -211 -52q-126 0 -208 80q-81 81 -81 234v538z" />
    <glyph glyph-name="u" unicode="u" 
d="M109 334v678h217v-623q0 -105 59 -163t160 -58q111 0 188 83q76 82 76 220v541h217v-1012h-217v137q-53 -74 -146 -120q-92 -46 -196 -46q-161 0 -259 97q-99 98 -99 266z" />
    <glyph glyph-name="v" unicode="v" horiz-adv-x="1073" 
d="M514 0l-494 1012h232l285 -602l284 602h232l-494 -1012h-45z" />
    <glyph glyph-name="w" unicode="w" horiz-adv-x="1576" 
d="M471 0l-444 1012h225l252 -592l241 592h86l242 -592l252 592h225l-444 -1012h-55l-263 649l-262 -649h-55z" />
    <glyph glyph-name="x" unicode="x" horiz-adv-x="995" 
d="M285 0h-244l332 522l-307 490h241l191 -316l190 316h242l-303 -486l327 -526h-243l-215 352z" />
    <glyph glyph-name="y" unicode="y" horiz-adv-x="1050" 
d="M418 190l-398 822h232l274 -586l279 586h225l-717 -1475h-225z" />
    <glyph glyph-name="z" unicode="z" horiz-adv-x="999" 
d="M911 0h-839v31l487 784h-446v197h786v-31l-487 -784h499v-197z" />
    <glyph glyph-name="braceleft" unicode="{" horiz-adv-x="681" 
d="M109 383h-48v205h48q55 0 80.5 25.5t25.5 86.5v490q0 113 65 178.5t183 65.5h147v-205h-90q-88 0 -88 -103v-436q0 -164 -141 -205q141 -41 141 -204v-437q0 -102 88 -102h90v-205h-147q-118 0 -183 65.5t-65 178.5v489q0 61 -25.5 87t-80.5 26z" />
    <glyph glyph-name="bar" unicode="|" horiz-adv-x="462" 
d="M340 -463h-217v1897h217v-1897z" />
    <glyph glyph-name="braceright" unicode="}" horiz-adv-x="681" 
d="M72 -463v205h90q88 0 88 102v437q0 163 141 204q-141 40 -141 205v436q0 103 -88 103h-90v205h147q118 0 183 -65.5t65 -178.5v-490q0 -61 25.5 -86.5t80.5 -25.5h48v-205h-48q-55 0 -80.5 -26t-25.5 -87v-489q0 -113 -65 -178.5t-183 -65.5h-147z" />
    <glyph glyph-name="asciitilde" unicode="~" horiz-adv-x="987" 
d="M111 559h-17l15 184q82 91 204 91q53 0 109 -18q58 -18 97 -40q108 -57 177 -57q92 0 181 92h16l-14 -184q-81 -90 -205 -90q-57 -2 -132.5 27.5t-143.5 59t-107 27.5q-91 0 -180 -92z" />
    <glyph glyph-name="uni00A0" unicode="&#xa0;" horiz-adv-x="645" 
 />
    <glyph glyph-name="exclamdown" unicode="&#xa1;" horiz-adv-x="561" 
d="M186 784q-43 43 -43 103t43 102q43 43 103 43t102 -43q43 -42 43 -102t-43 -103q-42 -43 -102 -43t-103 43zM397 -422h-217v1004h217v-1004z" />
    <glyph glyph-name="cent" unicode="&#xa2;" horiz-adv-x="995" 
d="M530 1034v256h140v-254q122 -10 229 -82l10 -221h-24q-104 92 -215 107v-668q103 17 213 115h24l-10 -226q-98 -73 -227 -86v-254h-140v256q-196 24 -326 161q-64 68 -100 163.5t-36 204.5t36 204t100 162q130 137 326 162zM530 174v662q-114 -24 -180 -115
q-65 -91 -65 -215q0 -125 65 -217q66 -91 180 -115z" />
    <glyph glyph-name="sterling" unicode="&#xa3;" horiz-adv-x="1089" 
d="M125 676h-135v176h149l4 39q22 269 167 420t362 151q164 0 289 -76l28 -245l-31 -6q-155 122 -284 122q-128 0 -206 -90t-95 -272l-4 -43h350v-176h-367l-41 -471h707v-205h-950z" />
    <glyph glyph-name="currency" unicode="&#xa4;" horiz-adv-x="1208" 
d="M231 227l-116 117l129 127q-82 112 -82 246t82 246l-129 127l116 116l131 -133q113 70 242 70t242 -70l131 133l117 -116l-129 -127q82 -112 82 -246t-82 -246l129 -127l-117 -117l-131 133q-112 -69 -242 -69q-136 0 -242 69zM428 897q-72 -69 -72 -180t72 -181
q72 -69 176 -69t176 69q72 70 72 181t-72 180q-71 70 -176 70t-176 -70z" />
    <glyph glyph-name="yen" unicode="&#xa5;" horiz-adv-x="1228" 
d="M395 805l-366 629h260l325 -578l326 578h260l-369 -629h201v-176h-299v-125h299v-176h-299v-328h-237v328h-299v176h299v125h-299v176h198z" />
    <glyph glyph-name="brokenbar" unicode="&#xa6;" horiz-adv-x="462" 
d="M123 -463v819h217v-819h-217zM340 614h-217v820h217v-820z" />
    <glyph glyph-name="section" unicode="&#xa7;" horiz-adv-x="1028" 
d="M72 547q0 158 170 284q-127 112 -127 265q0 161 121 263q121 103 296 103q108 0 197.5 -31.5t144.5 -80.5l11 -250h-23q-160 178 -338 178q-88 0 -144 -47t-56 -125q0 -74 64 -132q67 -59 233 -140q175 -86 258.5 -184.5t83.5 -225.5q0 -159 -170 -285q127 -112 127 -264
q0 -160 -122 -264q-121 -103 -296 -103q-107 0 -196.5 32t-145.5 81l-10 250h22q160 -178 338 -178q88 0 144 47q57 46 57 125q0 74 -64 132q-67 59 -233 140q-175 86 -258.5 184.5t-83.5 225.5zM289 557q0 -80 64 -138q66 -60 210 -134l86 -45q96 74 96 174q0 80 -64 138
q-66 60 -210 134q-14 6 -51 26q-21 12 -35 19q-96 -73 -96 -174z" />
    <glyph glyph-name="dieresis" unicode="&#xa8;" horiz-adv-x="759" 
d="M98 1194q-37 37 -37 92q0 54 37 91q38 38 92 38q53 0 91 -38t38 -91q0 -54 -38 -92q-37 -37 -91 -37q-55 0 -92 37zM477 1194q-37 37 -37 92q0 54 37 91q38 38 92 38q53 0 91 -38t38 -91q0 -54 -38 -92q-37 -37 -91 -37q-55 0 -92 37z" />
    <glyph glyph-name="copyright" unicode="&#xa9;" horiz-adv-x="1646" 
d="M70 717q0 152 56 290q116 282 393 396q144 59 304 59q161 0 303 -59t240 -159q100 -101 155 -237q56 -138 56 -290t-56 -290q-56 -137 -155 -238q-98 -101 -240 -159q-142 -59 -303 -59q-217 0 -390 100q-173 101 -268 271t-95 375zM229 717q0 -124 42.5 -236t120.5 -196
q79 -84 191 -131.5t240 -47.5t240 47.5t191 131.5q78 84 120.5 196t42.5 236q0 167 -74 306q-73 138 -210 221t-310 83q-174 0 -311 -83t-210 -221q-73 -137 -73 -306zM848 1102q119 0 211 -62l6 -159h-16q-50 44 -96.5 62t-106.5 18q-103 0 -167 -70q-63 -71 -63 -174
t63 -174q64 -70 167 -70q57 0 103 20t98 66h18l-8 -162q-85 -65 -209 -65q-162 0 -274 105q-113 107 -113 280q0 174 113 279q112 106 274 106z" />
    <glyph glyph-name="ordfeminine" unicode="&#xaa;" horiz-adv-x="878" 
d="M418 1448q72 0 133.5 -27.5t95.5 -70.5v77h154v-710h-154v78q-95 -99 -235 -99q-147 0 -253 106t-106 271q0 164 107 269q106 106 258 106zM207 1073q0 -98 62 -168q61 -69 161 -69t160 68q61 68 61 169q0 100 -61 168q-61 70 -160 70q-100 0 -161 -70q-62 -71 -62 -168z
" />
    <glyph glyph-name="guillemotleft" unicode="&#xab;" horiz-adv-x="1091" 
d="M541 244l-475 407v119l475 408h32v-209l-301 -258l301 -258v-209h-32zM977 244l-475 407v119l475 408h33v-209l-301 -258l301 -258v-209h-33z" />
    <glyph glyph-name="logicalnot" unicode="&#xac;" horiz-adv-x="970" 
d="M647 618h-541v189h758v-461h-217v272z" />
    <glyph glyph-name="uni00AD" unicode="&#xad;" horiz-adv-x="815" 
d="M733 561h-651v176h651v-176z" />
    <glyph glyph-name="registered" unicode="&#xae;" horiz-adv-x="1646" 
d="M70 717q0 152 56 290q116 282 393 396q144 59 304 59q161 0 303 -59t240 -159q100 -101 155 -237q56 -138 56 -290t-56 -290q-56 -137 -155 -238q-98 -101 -240 -159q-142 -59 -303 -59q-217 0 -390 100q-173 101 -268 271t-95 375zM229 717q0 -124 42.5 -236t120.5 -196
q79 -84 191 -131.5t240 -47.5t240 47.5t191 131.5q78 84 120.5 196t42.5 236q0 167 -74 306q-73 138 -210 221t-310 83q-174 0 -311 -83t-210 -221q-73 -137 -73 -306zM723 352h-148v762h259q117 0 186 -60q70 -60 70 -163q0 -143 -156 -211l209 -328h-160l-201 316h-59
v-316zM723 993v-205h94q58 0 90.5 26.5t32.5 76.5t-32.5 76t-90.5 26h-94z" />
    <glyph glyph-name="overscore" unicode="&#xaf;" horiz-adv-x="614" 
d="M553 1188h-492v162h492v-162z" />
    <glyph glyph-name="degree" unicode="&#xb0;" horiz-adv-x="620" 
d="M132 1035q-73 72 -73 177t73 177q73 73 181 73t181 -73q73 -72 73 -177t-73 -177t-181 -72q-107 0 -181 72zM205 1321q-39 -42 -39 -109t39 -109q41 -42 108 -42t108 42q40 41 40 109t-40 109q-40 43 -108 43t-108 -43z" />
    <glyph glyph-name="plusminus" unicode="&#xb1;" horiz-adv-x="1024" 
d="M930 0h-836v176h836v-176zM424 664h-330v176h330v329h176v-329h330v-176h-330v-330h-176v330z" />
    <glyph glyph-name="twosuperior" unicode="&#xb2;" horiz-adv-x="587" 
d="M545 717h-516v24l276 336q66 81 66 152q0 43 -31 70.5t-82 27.5q-47 0 -90.5 -31t-75.5 -82h-33l9 152q85 82 211 82q111 0 175 -57t64 -152q0 -111 -112 -242l-132 -155h271v-125z" />
    <glyph glyph-name="threesuperior" unicode="&#xb3;" horiz-adv-x="598" 
d="M299 1309h-244v125h469v-19l-170 -217q91 -16 145 -76t54 -153q0 -126 -80 -197q-79 -70 -199 -70t-202 50l-15 149h21q95 -74 186 -74q65 0 102 35t37 101q0 61 -38.5 97t-100.5 36q-42 0 -78 -11l-22 43z" />
    <glyph glyph-name="acute" unicode="&#xb4;" horiz-adv-x="620" 
d="M258 1153h-184l184 281h289z" />
    <glyph glyph-name="mu" unicode="&#xb5;" 
d="M326 -463h-217v1475h217v-623q0 -105 59 -163t160 -58q111 0 188 83q76 82 76 220v541h217v-1012h-217v137q-53 -74 -146 -120q-92 -46 -196 -46q-75 0 -141 25v-459z" />
    <glyph glyph-name="paragraph" unicode="&#xb6;" horiz-adv-x="1275" 
d="M49 1073q0 159 114 260q115 101 308 101h682v-1897h-217v1708h-215v-1708h-217v1176h-33q-193 0 -308 101q-114 102 -114 259z" />
    <glyph glyph-name="middot" unicode="&#xb7;" horiz-adv-x="432" 
d="M130 634q-40 40 -40 97t40 97t97 40t97 -40q41 -41 41 -97t-41 -97q-40 -40 -97 -40t-97 40z" />
    <glyph glyph-name="cedilla" unicode="&#xb8;" horiz-adv-x="692" 
d="M137 -463l-22 129l20 6q79 -47 154 -47q46 0 76 23.5t30 64.5t-28.5 65.5t-71.5 24.5q-67 0 -123 -24l-14 16l129 303l131 -45l-123 -174q59 17 108 17q80 0 127.5 -49t47.5 -130q0 -96 -71 -152q-71 -57 -190 -57q-102 0 -180 29z" />
    <glyph glyph-name="onesuperior" unicode="&#xb9;" horiz-adv-x="266" 
d="M205 717h-144v649l97 68h47v-717z" />
    <glyph glyph-name="ordmasculine" unicode="&#xba;" horiz-adv-x="870" 
d="M53 1073q0 161 111 268q112 107 270 107q159 0 271 -107q112 -106 112 -268t-112 -270q-112 -107 -271 -107q-158 0 -270 107q-111 108 -111 270zM207 1073q0 -105 66 -171t161 -66q96 0 163 66t67 171q0 104 -67 171t-163 67q-94 0 -161 -67q-66 -68 -66 -171z" />
    <glyph glyph-name="guillemotright" unicode="&#xbb;" horiz-adv-x="1091" 
d="M115 244h-33v209l301 258l-301 258v209h33l475 -408v-119zM551 244h-33v209l301 258l-301 258v209h33l475 -408v-119z" />
    <glyph glyph-name="onequarter" unicode="&#xbc;" horiz-adv-x="1073" 
d="M86 207l-59 115l960 497l60 -114zM410 717h-144v649l96 68h48v-717zM307 -311v94l391 471h78v-440h96v-125h-96v-152h-143v152h-326zM633 2l-156 -188h156v188z" />
    <glyph glyph-name="onehalf" unicode="&#xbd;" horiz-adv-x="1073" 
d="M86 207l-59 115l960 497l60 -114zM410 717h-144v649l96 68h48v-717zM408 -463v25l276 336q66 81 66 151q0 43 -31 70.5t-82 27.5q-47 0 -90.5 -30.5t-75.5 -81.5h-33l8 151q85 82 211 82q111 0 175.5 -57t64.5 -152q0 -110 -113 -241l-131 -156h271v-125h-516z" />
    <glyph glyph-name="threequarters" unicode="&#xbe;" horiz-adv-x="1073" 
d="M86 207l-59 115l960 497l60 -114zM299 1309h-244v125h469v-19l-170 -217q91 -16 145 -76t54 -153q0 -126 -80 -197q-79 -70 -199 -70t-202 50l-15 149h21q95 -74 186 -74q65 0 102 35t37 101q0 61 -38.5 97t-100.5 36q-42 0 -78 -11l-22 43zM307 -311v94l391 471h78v-440
h96v-125h-96v-152h-143v152h-326zM633 2l-156 -188h156v188z" />
    <glyph glyph-name="questiondown" unicode="&#xbf;" horiz-adv-x="905" 
d="M90 -109q0 76 22 139q15 41 38 78.5t38.5 56.5t51.5 60l73 81q78 87 78 192v75h217v-51q0 -75 -23 -142q-14 -41 -36.5 -79t-39 -58.5t-52.5 -60.5l-72 -82q-78 -85 -78 -190q0 -77 56 -125q55 -49 149 -49q90 0 175 52q86 53 136 116h21l-15 -240q-70 -51 -159 -82
q-90 -33 -176 -33q-180 0 -292 91q-112 90 -112 251zM389 784q-43 43 -43 103t43 102q43 43 103 43t102 -43q43 -42 43 -102t-43 -103q-42 -43 -102 -43t-103 43z" />
    <glyph glyph-name="Agrave" unicode="&#xc0;" horiz-adv-x="1396" 
d="M266 0h-231l629 1434h69l629 -1434h-232l-114 266h-635zM592 1575l-289 280h289l184 -280h-184zM698 995l-227 -524h455z" />
    <glyph glyph-name="Aacute" unicode="&#xc1;" horiz-adv-x="1396" 
d="M266 0h-231l629 1434h69l629 -1434h-232l-114 266h-635zM698 995l-227 -524h455zM807 1575h-184l184 280h289z" />
    <glyph glyph-name="Acircumflex" unicode="&#xc2;" horiz-adv-x="1396" 
d="M266 0h-231l629 1434h69l629 -1434h-232l-114 266h-635zM539 1575h-164l192 280h262l193 -280h-164l-160 151zM698 995l-227 -524h455z" />
    <glyph glyph-name="Atilde" unicode="&#xc3;" horiz-adv-x="1396" 
d="M266 0h-231l629 1434h69l629 -1434h-232l-114 266h-635zM354 1585h-16l14 170q84 90 205 90q48 0 94 -16.5t77 -39.5q78 -56 140 -56q84 0 176 98h17l-14 -170q-84 -90 -205 -90q-95 0 -173 56q-74 56 -139 56q-84 0 -176 -98zM698 995l-227 -524h455z" />
    <glyph glyph-name="Adieresis" unicode="&#xc4;" horiz-adv-x="1396" 
d="M266 0h-231l629 1434h69l629 -1434h-232l-114 266h-635zM418 1616q-37 37 -37 92q0 54 37 91q38 38 92 38q53 0 91 -38t38 -91q0 -54 -38 -92q-37 -37 -91 -37q-55 0 -92 37zM698 995l-227 -524h455zM797 1616q-37 37 -37 92q0 54 37 91q38 38 92 38q53 0 91 -38t38 -91
q0 -54 -38 -92q-37 -37 -91 -37q-55 0 -92 37z" />
    <glyph glyph-name="Aring" unicode="&#xc5;" horiz-adv-x="1396" 
d="M266 0h-231l602 1372q-67 20 -108.5 75t-41.5 124q0 87 61 147q62 60 150 60t150 -60q61 -60 61 -147q0 -70 -41 -124.5t-108 -74.5l602 -1372h-232l-114 266h-635zM698 995l-227 -524h455zM613 1655q-33 -35 -33 -84t33 -84t85 -35t85 35q34 34 34 84t-34 84
q-33 35 -85 35t-85 -35z" />
    <glyph glyph-name="AE" unicode="&#xc6;" horiz-adv-x="2033" 
d="M266 0h-231l629 1434h698l92 -205h-629l170 -389h582l86 -205h-578l189 -430h637l88 -205h-869l-114 266h-635zM698 995l-227 -524h453z" />
    <glyph glyph-name="Ccedilla" unicode="&#xc7;" horiz-adv-x="1349" 
d="M72 717q0 157 59 298q60 139 161 237q102 99 239 154q139 56 292 56q125 0 221 -27.5t191 -86.5l18 -256h-28q-189 165 -402 165q-225 0 -370 -151q-144 -152 -144 -389q0 -239 144 -390q145 -151 370 -151q212 0 402 166h28l-18 -256q-88 -56 -188 -86q-96 -29 -222 -29
l-65 -92q59 17 108 17q80 0 127 -48.5t47 -130.5q0 -96 -71 -152q-71 -57 -189 -57q-102 0 -180 29l-22 129l20 6q79 -47 154 -47q46 0 76 23.5t30 64.5t-28.5 65.5t-71.5 24.5q-67 0 -123 -24l-14 16l77 187q-176 25 -320 125q-143 101 -225 259q-83 161 -83 351z" />
    <glyph glyph-name="Egrave" unicode="&#xc8;" horiz-adv-x="1089" 
d="M1008 0h-875v1434h866v-205h-628v-389h606v-205h-606v-430h637v-205zM582 1575l-289 280h289l184 -280h-184z" />
    <glyph glyph-name="Eacute" unicode="&#xc9;" horiz-adv-x="1089" 
d="M1008 0h-875v1434h866v-205h-628v-389h606v-205h-606v-430h637v-205zM575 1575h-184l184 280h289z" />
    <glyph glyph-name="Ecircumflex" unicode="&#xca;" horiz-adv-x="1089" 
d="M1008 0h-875v1434h866v-205h-628v-389h606v-205h-606v-430h637v-205zM424 1575h-164l193 280h262l192 -280h-164l-159 151z" />
    <glyph glyph-name="Edieresis" unicode="&#xcb;" horiz-adv-x="1089" 
d="M1008 0h-875v1434h866v-205h-628v-389h606v-205h-606v-430h637v-205zM311 1616q-37 37 -37 92q0 54 37 91q38 38 92 38q53 0 91 -38t38 -91q0 -54 -38 -92q-37 -37 -91 -37q-55 0 -92 37zM690 1616q-37 37 -37 92q0 54 37 91q38 38 92 38q53 0 91 -38t38 -91
q0 -54 -38 -92q-37 -37 -91 -37q-55 0 -92 37z" />
    <glyph glyph-name="Igrave" unicode="&#xcc;" horiz-adv-x="503" 
d="M213 1575l-289 280h289l184 -280h-184zM371 0h-238v1434h238v-1434z" />
    <glyph glyph-name="Iacute" unicode="&#xcd;" horiz-adv-x="503" 
d="M283 1575h-185l185 280h288zM371 0h-238v1434h238v-1434z" />
    <glyph glyph-name="Icircumflex" unicode="&#xce;" horiz-adv-x="503" 
d="M92 1575h-164l193 280h262l192 -280h-163l-160 151zM371 0h-238v1434h238v-1434z" />
    <glyph glyph-name="Idieresis" unicode="&#xcf;" horiz-adv-x="503" 
d="M-28 1616q-38 38 -38 92q0 53 38 91t91 38q54 0 92 -38t38 -91q0 -54 -38 -92q-37 -37 -92 -37q-54 0 -91 37zM371 0h-238v1434h238v-1434zM350 1616q-37 37 -37 92q0 54 37 91q38 38 92 38q53 0 91 -38t38 -91q0 -54 -38 -92q-37 -37 -91 -37q-55 0 -92 37z" />
    <glyph glyph-name="Eth" unicode="&#xd0;" horiz-adv-x="1320" 
d="M162 627h-154v176h154v631h338q157 0 293.5 -49t238.5 -140q103 -91 160 -228t57 -300t-57 -300t-160 -229q-212 -188 -532 -188h-338v627zM399 627v-422h103q228 -4 369.5 133t140.5 379q1 242 -140.5 379t-369.5 133h-103v-426h277v-176h-277z" />
    <glyph glyph-name="Ntilde" unicode="&#xd1;" horiz-adv-x="1415" 
d="M371 0h-238v1434h96l815 -924v924h238v-1434h-96l-815 928v-928zM362 1585h-16l14 170q84 90 205 90q48 0 95 -16.5t77 -39.5q78 -56 140 -56q84 0 176 98h16l-14 -170q-84 -90 -205 -90q-94 0 -172 56q-74 56 -139 56q-85 0 -177 -98z" />
    <glyph glyph-name="Ograve" unicode="&#xd2;" horiz-adv-x="1654" 
d="M827 1462q155 0 295 -57q140 -56 241 -155q104 -100 162 -238.5t58 -294.5q0 -209 -101 -382q-100 -170 -273 -268q-173 -96 -382 -96t-382 96q-173 98 -273 268q-100 172 -100 382q0 211 100 381q100 172 273 268t382 96zM827 176q222 0 367 142q72 70 112 173.5
t40 225.5q0 164 -71 289q-71 126 -187 188q-116 63 -261 63t-262 -63q-115 -63 -186 -188q-70 -124 -70 -289q0 -166 70 -290q69 -122 185.5 -186.5t262.5 -64.5zM788 1575l-288 280h288l185 -280h-185z" />
    <glyph glyph-name="Oacute" unicode="&#xd3;" horiz-adv-x="1654" 
d="M827 1462q155 0 295 -57q140 -56 241 -155q104 -100 162 -238.5t58 -294.5q0 -209 -101 -382q-100 -170 -273 -268q-173 -96 -382 -96t-382 96q-173 98 -273 268q-100 172 -100 382q0 211 100 381q100 172 273 268t382 96zM827 176q222 0 367 142q72 70 112 173.5
t40 225.5q0 164 -71 289q-71 126 -187 188q-116 63 -261 63t-262 -63q-115 -63 -186 -188q-70 -124 -70 -289q0 -166 70 -290q69 -122 185.5 -186.5t262.5 -64.5zM868 1575h-184l184 280h289z" />
    <glyph glyph-name="Ocircumflex" unicode="&#xd4;" horiz-adv-x="1654" 
d="M827 1462q155 0 295 -57q140 -56 241 -155q104 -100 162 -238.5t58 -294.5q0 -209 -101 -382q-100 -170 -273 -268q-173 -96 -382 -96t-382 96q-173 98 -273 268q-100 172 -100 382q0 211 100 381q100 172 273 268t382 96zM827 176q222 0 367 142q72 70 112 173.5
t40 225.5q0 164 -71 289q-71 126 -187 188q-116 63 -261 63t-262 -63q-115 -63 -186 -188q-70 -124 -70 -289q0 -166 70 -290q69 -122 185.5 -186.5t262.5 -64.5zM668 1575h-164l192 280h262l193 -280h-164l-160 151z" />
    <glyph glyph-name="Otilde" unicode="&#xd5;" horiz-adv-x="1654" 
d="M827 1462q155 0 295 -57q140 -56 241 -155q104 -100 162 -238.5t58 -294.5q0 -209 -101 -382q-100 -170 -273 -268q-173 -96 -382 -96t-382 96q-173 98 -273 268q-100 172 -100 382q0 211 100 381q100 172 273 268t382 96zM827 176q222 0 367 142q72 70 112 173.5
t40 225.5q0 164 -71 289q-71 126 -187 188q-116 63 -261 63t-262 -63q-115 -63 -186 -188q-70 -124 -70 -289q0 -166 70 -290q69 -122 185.5 -186.5t262.5 -64.5zM483 1585h-16l14 170q84 90 205 90q48 0 94 -16.5t77 -39.5q78 -56 140 -56q85 0 177 98h16l-14 -170
q-84 -90 -205 -90q-95 0 -173 56q-74 56 -139 56q-84 0 -176 -98z" />
    <glyph glyph-name="Odieresis" unicode="&#xd6;" horiz-adv-x="1654" 
d="M827 1462q155 0 295 -57q140 -56 241 -155q104 -100 162 -238.5t58 -294.5q0 -209 -101 -382q-100 -170 -273 -268q-173 -96 -382 -96t-382 96q-173 98 -273 268q-100 172 -100 382q0 211 100 381q100 172 273 268t382 96zM827 176q222 0 367 142q72 70 112 173.5
t40 225.5q0 164 -71 289q-71 126 -187 188q-116 63 -261 63t-262 -63q-115 -63 -186 -188q-70 -124 -70 -289q0 -166 70 -290q69 -122 185.5 -186.5t262.5 -64.5zM547 1616q-37 37 -37 92q0 54 37 91q38 38 92 38q53 0 91 -38t38 -91q0 -54 -38 -92q-37 -37 -91 -37
q-55 0 -92 37zM926 1616q-37 37 -37 92q0 54 37 91q38 38 92 38q53 0 91 -38t38 -91q0 -54 -38 -92q-37 -37 -91 -37q-55 0 -92 37z" />
    <glyph glyph-name="multiply" unicode="&#xd7;" horiz-adv-x="905" 
d="M219 393l-125 125l234 234l-234 233l125 125l234 -233l233 233l125 -125l-233 -233l233 -234l-125 -125l-233 234z" />
    <glyph glyph-name="Oslash" unicode="&#xd8;" horiz-adv-x="1654" 
d="M72 717q0 211 100 381q100 172 273 268t382 96q145 0 277 -47l61 109l187 -103l-62 -108q137 -102 215 -257q78 -154 78 -339q0 -209 -101 -382q-100 -170 -273 -268q-173 -96 -382 -96q-144 0 -276 47l-62 -108l-186 102l62 109q-137 102 -215 257q-78 154 -78 339z
M309 717q0 -259 162 -410l528 926q-79 24 -172 24q-145 0 -262 -63q-115 -63 -186 -188q-70 -124 -70 -289zM1184 1126l-529 -925q81 -25 172 -25q222 0 367 142q72 70 112 173.5t40 225.5q0 257 -162 409z" />
    <glyph glyph-name="Ugrave" unicode="&#xd9;" horiz-adv-x="1335" 
d="M113 553v881h237v-906q0 -189 100 -276q92 -76 218 -76q128 0 217 76q100 87 100 276v906h238v-881q0 -275 -150 -429q-150 -153 -405 -153t-405 153q-150 154 -150 429zM680 1575l-289 280h289l184 -280h-184z" />
    <glyph glyph-name="Uacute" unicode="&#xda;" horiz-adv-x="1335" 
d="M113 553v881h237v-906q0 -189 100 -276q92 -76 218 -76q128 0 217 76q100 87 100 276v906h238v-881q0 -275 -150 -429q-150 -153 -405 -153t-405 153q-150 154 -150 429zM657 1575h-184l184 280h289z" />
    <glyph glyph-name="Ucircumflex" unicode="&#xdb;" horiz-adv-x="1335" 
d="M113 553v881h237v-906q0 -189 100 -276q92 -76 218 -76q128 0 217 76q100 87 100 276v906h238v-881q0 -275 -150 -429q-150 -153 -405 -153t-405 153q-150 154 -150 429zM508 1575h-164l193 280h262l192 -280h-164l-159 151z" />
    <glyph glyph-name="Udieresis" unicode="&#xdc;" horiz-adv-x="1335" 
d="M113 553v881h237v-906q0 -189 100 -276q92 -76 218 -76q128 0 217 76q100 87 100 276v906h238v-881q0 -275 -150 -429q-150 -153 -405 -153t-405 153q-150 154 -150 429zM387 1616q-37 37 -37 92q0 54 37 91q38 38 92 38q53 0 91 -38t38 -91q0 -54 -38 -92
q-37 -37 -91 -37q-55 0 -92 37zM766 1616q-37 37 -37 92q0 54 37 91q38 38 92 38q53 0 91 -38t38 -91q0 -54 -38 -92q-37 -37 -91 -37q-55 0 -92 37z" />
    <glyph glyph-name="Yacute" unicode="&#xdd;" horiz-adv-x="1224" 
d="M494 623l-465 811h258l325 -598l326 598h258l-465 -811v-623h-237v623zM602 1575h-184l184 280h289z" />
    <glyph glyph-name="Thorn" unicode="&#xde;" horiz-adv-x="1067" 
d="M360 0h-237v1434h237v-277h154q240 0 376 -123q138 -122 138 -317t-138 -318q-136 -123 -376 -123h-154v-276zM360 952v-471h156q130 0 202.5 62.5t72.5 173.5t-72.5 173t-202.5 62h-156z" />
    <glyph glyph-name="germandbls" unicode="&#xdf;" horiz-adv-x="1220" 
d="M195 823h-125v189h125v55q0 90 34 167t92 126q119 102 273 102q174 0 281 -99q106 -97 106 -247q0 -109 -57 -192t-158 -129q164 -43 269 -140q116 -106 116 -282q0 -183 -108 -292q-107 -110 -271 -110q-168 0 -291 99l49 206h13q96 -102 213 -102q78 0 128 53t50 142
q0 117 -113 200q-112 83 -297 103v192q113 14 176.5 76.5t63.5 163.5q0 71 -50 121q-50 51 -128 51q-79 0 -126.5 -55t-47.5 -154v-1067h-217v823z" />
    <glyph glyph-name="agrave" unicode="&#xe0;" horiz-adv-x="1251" 
d="M68 506q0 154 71 278q71 123 188.5 189.5t258.5 66.5q104 0 190.5 -38.5t136.5 -100.5v111h217v-1012h-217v111q-70 -71 -148.5 -105.5t-186.5 -34.5q-100 0 -193.5 38.5t-163.5 108.5q-71 70 -112 171.5t-41 216.5zM373 745q-88 -97 -88 -239t88 -240q89 -98 231 -98
t229 98q87 99 87 240q0 142 -87 239q-87 99 -229 99t-231 -99zM616 1153l-288 281h288l185 -281h-185z" />
    <glyph glyph-name="aacute" unicode="&#xe1;" horiz-adv-x="1251" 
d="M68 506q0 154 71 278q71 123 188.5 189.5t258.5 66.5q104 0 190.5 -38.5t136.5 -100.5v111h217v-1012h-217v111q-70 -71 -148.5 -105.5t-186.5 -34.5q-100 0 -193.5 38.5t-163.5 108.5q-71 70 -112 171.5t-41 216.5zM373 745q-88 -97 -88 -239t88 -240q89 -98 231 -98
t229 98q87 99 87 240q0 142 -87 239q-87 99 -229 99t-231 -99zM594 1153h-184l184 281h289z" />
    <glyph glyph-name="acircumflex" unicode="&#xe2;" horiz-adv-x="1251" 
d="M68 506q0 154 71 278q71 123 188.5 189.5t258.5 66.5q104 0 190.5 -38.5t136.5 -100.5v111h217v-1012h-217v111q-70 -71 -148.5 -105.5t-186.5 -34.5q-100 0 -193.5 38.5t-163.5 108.5q-71 70 -112 171.5t-41 216.5zM444 1153h-163l192 281h262l193 -281h-164l-160 152z
M373 745q-88 -97 -88 -239t88 -240q89 -98 231 -98t229 98q87 99 87 240q0 142 -87 239q-87 99 -229 99t-231 -99z" />
    <glyph glyph-name="atilde" unicode="&#xe3;" horiz-adv-x="1251" 
d="M68 506q0 154 71 278q71 123 188.5 189.5t258.5 66.5q104 0 190.5 -38.5t136.5 -100.5v111h217v-1012h-217v111q-70 -71 -148.5 -105.5t-186.5 -34.5q-100 0 -193.5 38.5t-163.5 108.5q-71 70 -112 171.5t-41 216.5zM276 1163h-16l14 170q84 90 205 90q48 0 95 -16.5
t77 -39.5q78 -56 140 -56q84 0 176 98h16l-14 -170q-84 -90 -205 -90q-94 0 -172 56q-73 57 -139 57q-84 0 -177 -99zM373 745q-88 -97 -88 -239t88 -240q89 -98 231 -98t229 98q87 99 87 240q0 142 -87 239q-87 99 -229 99t-231 -99z" />
    <glyph glyph-name="adieresis" unicode="&#xe4;" horiz-adv-x="1251" 
d="M68 506q0 154 71 278q71 123 188.5 189.5t258.5 66.5q104 0 190.5 -38.5t136.5 -100.5v111h217v-1012h-217v111q-70 -71 -148.5 -105.5t-186.5 -34.5q-100 0 -193.5 38.5t-163.5 108.5q-71 70 -112 171.5t-41 216.5zM373 745q-88 -97 -88 -239t88 -240q89 -98 231 -98
t229 98q87 99 87 240q0 142 -87 239q-87 99 -229 99t-231 -99zM324 1194q-37 37 -37 92q0 54 37 91q38 38 92 38q53 0 91 -38t38 -91q0 -54 -38 -92q-37 -37 -91 -37q-55 0 -92 37zM703 1194q-37 37 -37 92q0 54 37 91q38 38 92 38q53 0 91 -38t38 -91q0 -54 -38 -92
q-37 -37 -91 -37q-55 0 -92 37z" />
    <glyph glyph-name="aring" unicode="&#xe5;" horiz-adv-x="1251" 
d="M68 506q0 154 71 278q71 123 188.5 189.5t258.5 66.5q104 0 190.5 -38.5t136.5 -100.5v111h217v-1012h-217v111q-70 -71 -148.5 -105.5t-186.5 -34.5q-100 0 -193.5 38.5t-163.5 108.5q-71 70 -112 171.5t-41 216.5zM373 745q-88 -97 -88 -239t88 -240q89 -98 231 -98
t229 98q87 99 87 240q0 142 -87 239q-87 99 -229 99t-231 -99zM454 1174q-61 60 -61 147t61 147q62 60 150 60t150 -60q61 -60 61 -147t-61 -147q-62 -60 -150 -60t-150 60zM518 1405q-33 -35 -33 -84t33 -84q35 -35 86 -35q52 0 85 35q34 34 34 84t-34 84q-33 35 -85 35
q-51 0 -86 -35z" />
    <glyph glyph-name="ae" unicode="&#xe6;" horiz-adv-x="1773" 
d="M68 262q0 89 39 156t110.5 107.5t166 60.5t212.5 20h86q-3 125 -65 192q-61 66 -152 66q-160 0 -279 -125h-32l18 203q60 40 149 69q92 29 179 29q205 0 329 -157q70 75 166 116t201 41q154 0 269 -69q115 -67 174 -181t59 -260v-79h-799q18 -143 113 -215
q96 -72 221 -72q106 0 193.5 33t175.5 110h22l-8 -217q-181 -119 -393 -119q-132 0 -245.5 56t-189.5 157q-68 -107 -169.5 -160t-223.5 -53q-139 0 -234 83q-93 84 -93 208zM285 279q0 -57 41 -92t104 -35q104 0 177 79q75 79 75 220q-202 0 -299.5 -41.5t-97.5 -130.5z
M905 606h582q-15 117 -96 189q-80 73 -195 73q-98 0 -181 -67q-85 -66 -110 -195z" />
    <glyph glyph-name="ccedilla" unicode="&#xe7;" horiz-adv-x="995" 
d="M68 506q0 120 43 222.5t118 170.5q158 141 377 141q169 0 293 -86l10 -221h-24q-70 63 -133 86q-63 25 -148 25q-144 0 -232 -97q-87 -96 -87 -241q0 -144 87 -242q89 -96 232 -96q81 0 144 27q65 30 135 92h24l-10 -226q-117 -87 -285 -90l-65 -92q59 17 108 17
q80 0 127 -48.5t47 -130.5q0 -96 -71 -152q-70 -57 -189 -57q-102 0 -180 29l-22 129l20 6q79 -47 154 -47q46 0 76 23.5t30 64.5t-28.5 65.5t-71.5 24.5q-67 0 -123 -24l-14 16l79 189q-184 34 -303 173q-118 139 -118 349z" />
    <glyph glyph-name="egrave" unicode="&#xe8;" 
d="M68 506q0 110 40 210t109 171q70 72 164.5 112.5t198.5 40.5q154 0 269 -69q115 -67 173.5 -181t58.5 -260v-79h-798q18 -143 113 -215t220 -72q106 0 193.5 33t175.5 110h23l-9 -217q-181 -119 -393 -119q-148 0 -273 71q-123 71 -194 194q-71 124 -71 270zM565 1153
l-289 281h289l185 -281h-185zM289 606h581q-15 117 -96 189q-79 73 -194 73q-98 0 -181 -67q-85 -66 -110 -195z" />
    <glyph glyph-name="eacute" unicode="&#xe9;" 
d="M68 506q0 110 40 210t109 171q70 72 164.5 112.5t198.5 40.5q154 0 269 -69q115 -67 173.5 -181t58.5 -260v-79h-798q18 -143 113 -215t220 -72q106 0 193.5 33t175.5 110h23l-9 -217q-181 -119 -393 -119q-148 0 -273 71q-123 71 -194 194q-71 124 -71 270zM289 606h581
q-15 117 -96 189q-79 73 -194 73q-98 0 -181 -67q-85 -66 -110 -195zM584 1153h-185l185 281h288z" />
    <glyph glyph-name="ecircumflex" unicode="&#xea;" 
d="M68 506q0 110 40 210t109 171q70 72 164.5 112.5t198.5 40.5q154 0 269 -69q115 -67 173.5 -181t58.5 -260v-79h-798q18 -143 113 -215t220 -72q106 0 193.5 33t175.5 110h23l-9 -217q-181 -119 -393 -119q-148 0 -273 71q-123 71 -194 194q-71 124 -71 270zM414 1153
h-164l192 281h263l192 -281h-164l-160 152zM289 606h581q-15 117 -96 189q-79 73 -194 73q-98 0 -181 -67q-85 -66 -110 -195z" />
    <glyph glyph-name="edieresis" unicode="&#xeb;" 
d="M68 506q0 110 40 210t109 171q70 72 164.5 112.5t198.5 40.5q154 0 269 -69q115 -67 173.5 -181t58.5 -260v-79h-798q18 -143 113 -215t220 -72q106 0 193.5 33t175.5 110h23l-9 -217q-181 -119 -393 -119q-148 0 -273 71q-123 71 -194 194q-71 124 -71 270zM293 1194
q-37 37 -37 92q0 54 37 91q38 38 92 38q53 0 91 -38t38 -91q0 -54 -38 -92q-37 -37 -91 -37q-55 0 -92 37zM289 606h581q-15 117 -96 189q-79 73 -194 73q-98 0 -181 -67q-85 -66 -110 -195zM672 1194q-37 37 -37 92q0 54 37 91q38 38 92 38q53 0 91 -38t38 -91
q0 -54 -38 -92q-37 -37 -91 -37q-55 0 -92 37z" />
    <glyph glyph-name="igrave" unicode="&#xec;" horiz-adv-x="479" 
d="M215 1153l-289 281h289l184 -281h-184zM348 0h-217v1012h217v-1012z" />
    <glyph glyph-name="iacute" unicode="&#xed;" horiz-adv-x="479" 
d="M250 1153h-184l184 281h289zM348 0h-217v1012h217v-1012z" />
    <glyph glyph-name="icircumflex" unicode="&#xee;" horiz-adv-x="479" 
d="M80 1153h-164l193 281h262l192 -281h-164l-159 152zM348 0h-217v1012h217v-1012z" />
    <glyph glyph-name="idieresis" unicode="&#xef;" horiz-adv-x="479" 
d="M-40 1194q-38 38 -38 92q0 53 38 91t91 38t91 -38t38 -91q0 -54 -38 -92q-37 -37 -91 -37t-91 37zM348 0h-217v1012h217v-1012zM338 1194q-37 37 -37 92q0 54 37 91q38 38 92 38q53 0 91 -38t38 -91q0 -54 -38 -92q-37 -37 -91 -37q-55 0 -92 37z" />
    <glyph glyph-name="eth" unicode="&#xf0;" horiz-adv-x="1169" 
d="M72 455q0 137 64 246q65 110 170 168q107 59 231 59q175 0 288 -113q-43 181 -174 315l-305 -124l-37 94l258 106q-102 76 -237 135v33l196 88q143 -66 258 -166l185 76l37 -94l-142 -59q230 -256 230 -629q0 -285 -146 -452t-383 -167q-213 0 -353 141
q-140 143 -140 343zM309 455q0 -120 73 -199q74 -80 189 -80t192 80q77 82 77 199q0 119 -76 196q-76 78 -193 78q-115 0 -189 -78q-73 -77 -73 -196z" />
    <glyph glyph-name="ntilde" unicode="&#xf1;" 
d="M338 0h-217v1012h217v-138q52 72 145 119q96 47 197 47q161 0 259 -92q99 -92 99 -260v-688h-217v623q0 105 -59 163t-160 58q-112 0 -188 -85t-76 -218v-541zM258 1163h-16l14 170q84 90 205 90q48 0 94 -16.5t77 -39.5q78 -56 140 -56q84 0 176 98h17l-15 -170
q-84 -90 -205 -90q-94 0 -172 56q-73 57 -139 57q-83 0 -176 -99z" />
    <glyph glyph-name="ograve" unicode="&#xf2;" horiz-adv-x="1220" 
d="M141 231q-73 124 -73 275q0 152 73 274q74 125 197 191q125 69 272 69q148 0 272 -69q124 -67 198 -191q73 -122 73 -274q0 -151 -73 -275q-74 -123 -198 -192q-125 -68 -272 -68t-272 68q-123 68 -197 192zM610 168q137 0 231 94q95 95 95 244q0 148 -95 243t-231 95
q-135 0 -230 -95t-95 -243q0 -149 95 -244q94 -94 230 -94zM602 1153l-289 281h289l184 -281h-184z" />
    <glyph glyph-name="oacute" unicode="&#xf3;" horiz-adv-x="1220" 
d="M141 231q-73 124 -73 275q0 152 73 274q74 125 197 191q125 69 272 69q148 0 272 -69q124 -67 198 -191q73 -122 73 -274q0 -151 -73 -275q-74 -123 -198 -192q-125 -68 -272 -68t-272 68q-123 68 -197 192zM610 168q137 0 231 94q95 95 95 244q0 148 -95 243t-231 95
q-135 0 -230 -95t-95 -243q0 -149 95 -244q94 -94 230 -94zM621 1153h-185l185 281h288z" />
    <glyph glyph-name="ocircumflex" unicode="&#xf4;" horiz-adv-x="1220" 
d="M141 231q-73 124 -73 275q0 152 73 274q74 125 197 191q125 69 272 69q148 0 272 -69q124 -67 198 -191q73 -122 73 -274q0 -151 -73 -275q-74 -123 -198 -192q-125 -68 -272 -68t-272 68q-123 68 -197 192zM610 168q137 0 231 94q95 95 95 244q0 148 -95 243t-231 95
q-135 0 -230 -95t-95 -243q0 -149 95 -244q94 -94 230 -94zM451 1153h-164l192 281h262l193 -281h-164l-160 152z" />
    <glyph glyph-name="otilde" unicode="&#xf5;" horiz-adv-x="1220" 
d="M141 231q-73 124 -73 275q0 152 73 274q74 125 197 191q125 69 272 69q148 0 272 -69q124 -67 198 -191q73 -122 73 -274q0 -151 -73 -275q-74 -123 -198 -192q-125 -68 -272 -68t-272 68q-123 68 -197 192zM266 1163h-16l14 170q84 90 205 90q48 0 94 -16.5t77 -39.5
q78 -56 140 -56q84 0 176 98h17l-15 -170q-84 -90 -204 -90q-95 0 -173 56q-73 57 -139 57q-83 0 -176 -99zM610 168q137 0 231 94q95 95 95 244q0 148 -95 243t-231 95q-135 0 -230 -95t-95 -243q0 -149 95 -244q94 -94 230 -94z" />
    <glyph glyph-name="odieresis" unicode="&#xf6;" horiz-adv-x="1220" 
d="M141 231q-73 124 -73 275q0 152 73 274q74 125 197 191q125 69 272 69q148 0 272 -69q124 -67 198 -191q73 -122 73 -274q0 -151 -73 -275q-74 -123 -198 -192q-125 -68 -272 -68t-272 68q-123 68 -197 192zM610 168q137 0 231 94q95 95 95 244q0 148 -95 243t-231 95
q-135 0 -230 -95t-95 -243q0 -149 95 -244q94 -94 230 -94zM330 1194q-37 37 -37 92q0 54 37 91q38 38 92 38q53 0 91 -38t38 -91q0 -54 -38 -92q-37 -37 -91 -37q-55 0 -92 37zM709 1194q-37 37 -37 92q0 54 37 91q38 38 92 38q53 0 91 -38t38 -91q0 -54 -38 -92
q-37 -37 -91 -37q-55 0 -92 37z" />
    <glyph glyph-name="divide" unicode="&#xf7;" horiz-adv-x="1024" 
d="M930 594h-836v176h836v-176zM415 224q-40 40 -40 98q0 57 40 97t97 40t97 -40t40 -97q0 -58 -40 -98t-97 -40t-97 40zM415 949q-40 40 -40 98q0 57 40 97t97 40t97 -40t40 -97q0 -58 -40 -98t-97 -40t-97 40z" />
    <glyph glyph-name="oslash" unicode="&#xf8;" horiz-adv-x="1220" 
d="M68 506q0 152 73 274q74 125 197 191q125 69 272 69q84 0 174 -26l47 86l177 -96l-47 -84q91 -72 141.5 -180t50.5 -234q0 -151 -73 -275q-74 -123 -198 -192q-125 -68 -272 -68q-81 0 -174 27l-47 -86l-176 96l47 84q-91 72 -141.5 180t-50.5 234zM285 506
q0 -136 82 -230l315 560q-34 8 -72 8q-135 0 -230 -95t-95 -243zM854 735l-315 -559q34 -8 71 -8q137 0 231 94q95 95 95 244q0 135 -82 229z" />
    <glyph glyph-name="ugrave" unicode="&#xf9;" 
d="M109 334v678h217v-623q0 -105 59 -163t160 -58q111 0 188 83q76 82 76 220v541h217v-1012h-217v137q-53 -74 -146 -120q-92 -46 -196 -46q-161 0 -259 97q-99 98 -99 266zM545 1153l-289 281h289l184 -281h-184z" />
    <glyph glyph-name="uacute" unicode="&#xfa;" 
d="M109 334v678h217v-623q0 -105 59 -163t160 -58q111 0 188 83q76 82 76 220v541h217v-1012h-217v137q-53 -74 -146 -120q-92 -46 -196 -46q-161 0 -259 97q-99 98 -99 266zM584 1153h-185l185 281h288z" />
    <glyph glyph-name="ucircumflex" unicode="&#xfb;" 
d="M109 334v678h217v-623q0 -105 59 -163t160 -58q111 0 188 83q76 82 76 220v541h217v-1012h-217v137q-53 -74 -146 -120q-92 -46 -196 -46q-161 0 -259 97q-99 98 -99 266zM412 1153h-164l192 281h262l193 -281h-164l-160 152z" />
    <glyph glyph-name="udieresis" unicode="&#xfc;" 
d="M109 334v678h217v-623q0 -105 59 -163t160 -58q111 0 188 83q76 82 76 220v541h217v-1012h-217v137q-53 -74 -146 -120q-92 -46 -196 -46q-161 0 -259 97q-99 98 -99 266zM291 1194q-37 37 -37 92q0 54 37 91q38 38 92 38q53 0 91 -38t38 -91q0 -54 -38 -92
q-37 -37 -91 -37q-55 0 -92 37zM670 1194q-37 37 -37 92q0 54 37 91q38 38 92 38q53 0 91 -38t38 -91q0 -54 -38 -92q-37 -37 -91 -37q-55 0 -92 37z" />
    <glyph glyph-name="yacute" unicode="&#xfd;" horiz-adv-x="1050" 
d="M418 190l-398 822h232l274 -586l279 586h225l-717 -1475h-225zM535 1153h-185l185 281h288z" />
    <glyph glyph-name="thorn" unicode="&#xfe;" horiz-adv-x="1243" 
d="M328 -463h-217v1897h217v-545q66 68 157 109.5t195 41.5q218 0 362 -150q144 -148 144 -384q0 -119 -39 -220.5t-109 -170.5q-69 -69 -161.5 -106.5t-196.5 -37.5q-108 0 -201 40t-151 106v-580zM408 746q-91 -97 -91 -240t91 -240q92 -98 235 -98t235 98q91 97 91 240
t-91 240q-92 98 -235 98t-235 -98z" />
    <glyph glyph-name="ydieresis" unicode="&#xff;" horiz-adv-x="1050" 
d="M418 190l-398 822h232l274 -586l279 586h225l-717 -1475h-225zM246 1194q-37 37 -37 92q0 54 37 91q38 38 92 38q53 0 91 -38t38 -91q0 -54 -38 -92q-37 -37 -91 -37q-55 0 -92 37zM625 1194q-37 37 -37 92q0 54 37 91q38 38 92 38q53 0 91 -38t38 -91q0 -54 -38 -92
q-37 -37 -91 -37q-55 0 -92 37z" />
    <glyph glyph-name="Amacron" unicode="&#x100;" horiz-adv-x="1396" 
d="M266 0h-231l629 1434h69l629 -1434h-232l-114 266h-635zM944 1610h-491v162h491v-162zM698 995l-227 -524h455z" />
    <glyph glyph-name="amacron" unicode="&#x101;" horiz-adv-x="1251" 
d="M68 506q0 154 71 278q71 123 188.5 189.5t258.5 66.5q104 0 190.5 -38.5t136.5 -100.5v111h217v-1012h-217v111q-70 -71 -148.5 -105.5t-186.5 -34.5q-100 0 -193.5 38.5t-163.5 108.5q-71 70 -112 171.5t-41 216.5zM373 745q-88 -97 -88 -239t88 -240q89 -98 231 -98
t229 98q87 99 87 240q0 142 -87 239q-87 99 -229 99t-231 -99zM870 1188h-491v162h491v-162z" />
    <glyph glyph-name="Abreve" unicode="&#x102;" horiz-adv-x="1396" 
d="M266 0h-231l629 1434h69l629 -1434h-232l-114 266h-635zM457 1774h151q0 -47 24 -75t66 -28t66 28t24 75h152q0 -106 -67 -173t-175 -67t-175 67q-66 68 -66 173zM698 995l-227 -524h455z" />
    <glyph glyph-name="abreve" unicode="&#x103;" horiz-adv-x="1251" 
d="M68 506q0 154 71 278q71 123 188.5 189.5t258.5 66.5q104 0 190.5 -38.5t136.5 -100.5v111h217v-1012h-217v111q-70 -71 -148.5 -105.5t-186.5 -34.5q-100 0 -193.5 38.5t-163.5 108.5q-71 70 -112 171.5t-41 216.5zM373 745q-88 -97 -88 -239t88 -240q89 -98 231 -98
t229 98q87 99 87 240q0 142 -87 239q-87 99 -229 99t-231 -99zM383 1393h152q0 -47 24 -75t66 -28t66 28t24 75h151q0 -106 -67 -173q-66 -67 -174 -67t-175 67t-67 173z" />
    <glyph glyph-name="Aogonek" unicode="&#x104;" horiz-adv-x="1396" 
d="M266 0h-231l629 1434h69l629 -1434q-137 -126 -137 -238q0 -59 38 -95t99 -36q79 0 139 45l19 -6l-19 -129q-73 -33 -176 -33q-123 0 -194 64q-72 64 -72 166q0 78 43 147t119 115h-91l-114 266h-635zM698 995l-227 -524h455z" />
    <glyph glyph-name="aogonek" unicode="&#x105;" horiz-adv-x="1251" 
d="M68 506q0 154 71 278q71 123 188.5 189.5t258.5 66.5q104 0 190.5 -38.5t136.5 -100.5v111h217v-1012q-137 -126 -137 -238q0 -59 38 -95t99 -36q80 0 140 45l18 -6l-18 -129q-74 -33 -176 -33q-122 0 -195 64q-72 64 -72 166q0 78 43 147t119 115h-76v111
q-70 -71 -148.5 -105.5t-186.5 -34.5q-100 0 -193.5 38.5t-163.5 108.5q-71 70 -112 171.5t-41 216.5zM373 745q-88 -97 -88 -239t88 -240q89 -98 231 -98t229 98q87 99 87 240q0 142 -87 239q-87 99 -229 99t-231 -99z" />
    <glyph glyph-name="Cacute" unicode="&#x106;" horiz-adv-x="1349" 
d="M823 1462q125 0 221 -27.5t191 -86.5l18 -256h-28q-189 165 -402 165q-225 0 -370 -151q-144 -152 -144 -389q0 -239 144 -390q145 -151 370 -151q212 0 402 166h28l-18 -256q-93 -58 -189 -87q-93 -28 -223 -28q-153 0 -292 56t-239 153q-101 98 -161 238
q-59 141 -59 299q0 157 59 298q60 139 161 237q102 99 239 154q139 56 292 56zM827 1575h-184l184 280h289z" />
    <glyph glyph-name="cacute" unicode="&#x107;" horiz-adv-x="1005" 
d="M68 506q0 120 43 222.5t118 170.5q158 141 377 141q169 0 293 -86l10 -221h-24q-70 63 -133 86q-63 25 -148 25q-144 0 -232 -97q-87 -96 -87 -241q0 -144 87 -242q89 -96 232 -96q81 0 144 27q65 30 135 92h24l-10 -226q-121 -90 -291 -90q-146 0 -267 63t-196 186
q-75 124 -75 286zM594 1153h-184l184 281h289z" />
    <glyph glyph-name="Ccircumflex" unicode="&#x108;" horiz-adv-x="1349" 
d="M823 1462q125 0 221 -27.5t191 -86.5l18 -256h-28q-189 165 -402 165q-225 0 -370 -151q-144 -152 -144 -389q0 -239 144 -390q145 -151 370 -151q212 0 402 166h28l-18 -256q-93 -58 -189 -87q-93 -28 -223 -28q-153 0 -292 56t-239 153q-101 98 -161 238
q-59 141 -59 299q0 157 59 298q60 139 161 237q102 99 239 154q139 56 292 56zM637 1575h-164l193 280h262l192 -280h-164l-159 151z" />
    <glyph glyph-name="ccircumflex" unicode="&#x109;" horiz-adv-x="1009" 
d="M68 506q0 120 43 222.5t118 170.5q158 141 377 141q169 0 293 -86l10 -221h-24q-70 63 -133 86q-63 25 -148 25q-144 0 -232 -97q-87 -96 -87 -241q0 -144 87 -242q89 -96 232 -96q81 0 144 27q65 30 135 92h24l-10 -226q-121 -90 -291 -90q-146 0 -267 63t-196 186
q-75 124 -75 286zM430 1153h-164l193 281h262l192 -281h-163l-160 152z" />
    <glyph glyph-name="Cdotaccent" unicode="&#x10a;" horiz-adv-x="1349" 
d="M823 1462q125 0 221 -27.5t191 -86.5l18 -256h-28q-189 165 -402 165q-225 0 -370 -151q-144 -152 -144 -389q0 -239 144 -390q145 -151 370 -151q212 0 402 166h28l-18 -256q-93 -58 -189 -87q-93 -28 -223 -28q-153 0 -292 56t-239 153q-101 98 -161 238
q-59 141 -59 299q0 157 59 298q60 139 161 237q102 99 239 154q139 56 292 56zM655 1741q0 58 41 99q42 42 101 42t100 -41t41 -100t-42 -101q-41 -41 -99 -41t-101 41q-41 43 -41 101z" />
    <glyph glyph-name="cdotaccent" unicode="&#x10b;" horiz-adv-x="1005" 
d="M68 506q0 120 43 222.5t118 170.5q158 141 377 141q169 0 293 -86l10 -221h-24q-70 63 -133 86q-63 25 -148 25q-144 0 -232 -97q-87 -96 -87 -241q0 -144 87 -242q89 -96 232 -96q81 0 144 27q65 30 135 92h24l-10 -226q-121 -90 -291 -90q-146 0 -267 63t-196 186
q-75 124 -75 286zM584 1460q58 0 99 -41q42 -40 42 -100q0 -59 -42 -100q-41 -41 -99 -41t-101 41q-41 43 -41 100q0 58 41 99q42 42 101 42z" />
    <glyph glyph-name="Ccaron" unicode="&#x10c;" horiz-adv-x="1349" 
d="M823 1462q125 0 221 -27.5t191 -86.5l18 -256h-28q-189 165 -402 165q-225 0 -370 -151q-144 -152 -144 -389q0 -239 144 -390q145 -151 370 -151q212 0 402 166h28l-18 -256q-93 -58 -189 -87q-93 -28 -223 -28q-153 0 -292 56t-239 153q-101 98 -161 238
q-59 141 -59 299q0 157 59 298q60 139 161 237q102 99 239 154q139 56 292 56zM666 1575l-193 280h164l160 -151l159 151h164l-192 -280h-262z" />
    <glyph glyph-name="ccaron" unicode="&#x10d;" horiz-adv-x="1017" 
d="M68 506q0 120 43 222.5t118 170.5q158 141 377 141q169 0 293 -86l10 -221h-24q-70 63 -133 86q-63 25 -148 25q-144 0 -232 -97q-87 -96 -87 -241q0 -144 87 -242q89 -96 232 -96q81 0 144 27q65 30 135 92h24l-10 -226q-121 -90 -291 -90q-146 0 -267 63t-196 186
q-75 124 -75 286zM459 1153l-193 281h164l160 -152l160 152h163l-192 -281h-262z" />
    <glyph glyph-name="Dcaron" unicode="&#x10e;" horiz-adv-x="1292" 
d="M471 0h-338v1434h338q211 0 380 -84q168 -83 269 -249q101 -164 101 -384q0 -219 -101 -385q-99 -162 -267.5 -247t-381.5 -85zM438 1575l-192 280h164l159 -151l160 151h164l-193 -280h-262zM371 1229v-1024h102q228 -4 369.5 133t140.5 379q1 242 -140.5 379
t-369.5 133h-102z" />
    <glyph glyph-name="dcaron" unicode="&#x10f;" horiz-adv-x="1626" 
d="M68 506q0 242 147 387q149 147 371 147q219 0 340 -145v580h217v-1475h-217v117q-62 -66 -151 -106t-193 -40q-144 0 -260 67q-117 68 -186 190q-68 124 -68 278zM375 746q-90 -98 -90 -240t90 -240q92 -98 235 -98t235 98q91 97 91 240t-91 240q-92 98 -235 98t-235 -98
zM1278 1311q0 60 38 101q38 42 95 42q62 0 101 -42q40 -41 40 -103q0 -208 -217 -359l-39 41q58 48 85 91t30 98q-53 0 -93 39q-40 40 -40 92z" />
    <glyph glyph-name="Dcroat" unicode="&#x110;" horiz-adv-x="1320" 
d="M162 627h-154v176h154v631h338q157 0 293.5 -49t238.5 -140q103 -91 160 -228t57 -300t-57 -300t-160 -229q-212 -188 -532 -188h-338v627zM399 627v-422h103q228 -4 369.5 133t140.5 379q1 242 -140.5 379t-369.5 133h-103v-426h277v-176h-277z" />
    <glyph glyph-name="dslash" unicode="&#x111;" horiz-adv-x="1273" 
d="M68 506q0 242 147 387q149 147 371 147q219 0 340 -145v274h-303v148h303v158h217v-158h135v-148h-135v-1169h-217v117q-62 -66 -151 -106t-193 -40q-144 0 -260 67q-117 68 -186 190q-68 124 -68 278zM375 746q-90 -98 -90 -240t90 -240q92 -98 235 -98t235 98
q91 97 91 240t-91 240q-92 98 -235 98t-235 -98z" />
    <glyph glyph-name="Emacron" unicode="&#x112;" horiz-adv-x="1089" 
d="M1008 0h-875v1434h866v-205h-628v-389h606v-205h-606v-430h637v-205zM852 1610h-492v162h492v-162z" />
    <glyph glyph-name="emacron" unicode="&#x113;" 
d="M68 506q0 110 40 210t109 171q70 72 164.5 112.5t198.5 40.5q154 0 269 -69q115 -67 173.5 -181t58.5 -260v-79h-798q18 -143 113 -215t220 -72q106 0 193.5 33t175.5 110h23l-9 -217q-181 -119 -393 -119q-148 0 -273 71q-123 71 -194 194q-71 124 -71 270zM289 606h581
q-15 117 -96 189q-79 73 -194 73q-98 0 -181 -67q-85 -66 -110 -195zM819 1188h-491v162h491v-162z" />
    <glyph glyph-name="Ebreve" unicode="&#x114;" horiz-adv-x="1089" 
d="M1008 0h-875v1434h866v-205h-628v-389h606v-205h-606v-430h637v-205zM365 1774h151q0 -47 24 -75t66 -28t66 28t24 75h152q0 -106 -67 -173t-175 -67t-175 67q-66 67 -66 173z" />
    <glyph glyph-name="ebreve" unicode="&#x115;" 
d="M68 506q0 110 40 210t109 171q70 72 164.5 112.5t198.5 40.5q154 0 269 -69q115 -67 173.5 -181t58.5 -260v-79h-798q18 -143 113 -215t220 -72q106 0 193.5 33t175.5 110h23l-9 -217q-181 -119 -393 -119q-148 0 -273 71q-123 71 -194 194q-71 124 -71 270zM289 606h581
q-15 117 -96 189q-79 73 -194 73q-98 0 -181 -67q-85 -66 -110 -195zM332 1393h151q0 -47 24 -75t66 -28t66.5 28.5t24.5 74.5h151q0 -106 -67 -173t-175 -67t-175 67q-66 68 -66 173z" />
    <glyph glyph-name="Edotaccent" unicode="&#x116;" horiz-adv-x="1089" 
d="M1008 0h-875v1434h866v-205h-628v-389h606v-205h-606v-430h637v-205zM444 1741q0 58 41 99q42 42 101 42q58 0 99 -41q42 -40 42 -100q0 -59 -42 -101q-41 -41 -99 -41q-57 0 -100 41q-42 42 -42 101z" />
    <glyph glyph-name="edotaccent" unicode="&#x117;" 
d="M68 506q0 110 40 210t109 171q70 72 164.5 112.5t198.5 40.5q154 0 269 -69q115 -67 173.5 -181t58.5 -260v-79h-798q18 -143 113 -215t220 -72q106 0 193.5 33t175.5 110h23l-9 -217q-181 -119 -393 -119q-148 0 -273 71q-123 71 -194 194q-71 124 -71 270zM289 606h581
q-15 117 -96 189q-79 73 -194 73q-98 0 -181 -67q-85 -66 -110 -195zM492 1219q-41 41 -41 100t41 100q43 41 100 41q58 0 99 -41q42 -40 42 -100q0 -59 -42 -100q-41 -41 -99 -41q-57 0 -100 41z" />
    <glyph glyph-name="Eogonek" unicode="&#x118;" horiz-adv-x="1089" 
d="M866 0h-733v1434h866v-205h-628v-389h606v-205h-606v-430h637v-205q-138 -128 -138 -238q0 -58 38 -94.5t100 -36.5q79 0 139 45l18 -6l-18 -129q-73 -33 -176 -33q-123 0 -194 64q-72 64 -72 166q0 78 42.5 147t118.5 115z" />
    <glyph glyph-name="eogonek" unicode="&#x119;" horiz-adv-x="1157" 
d="M68 506q0 110 40 210t109 171q70 72 164.5 112.5t198.5 40.5q154 0 269 -69q115 -67 173.5 -181t58.5 -260v-79h-798q18 -143 113 -215t220 -72q106 0 193.5 33t175.5 110h23l-9 -217q-96 -65 -190 -90q-137 -126 -137 -238q0 -59 38 -95t99 -36q79 0 139 45l19 -6
l-19 -129q-73 -33 -176 -33q-123 0 -194 64q-72 64 -72 166q0 139 121 233h-21q-148 0 -273 71q-123 71 -194 194q-71 124 -71 270zM289 606h581q-15 117 -96 189q-79 73 -194 73q-98 0 -181 -67q-85 -66 -110 -195z" />
    <glyph glyph-name="Ecaron" unicode="&#x11a;" horiz-adv-x="1089" 
d="M1008 0h-875v1434h866v-205h-628v-389h606v-205h-606v-430h637v-205zM455 1575l-193 280h164l160 -151l159 151h164l-192 -280h-262z" />
    <glyph glyph-name="ecaron" unicode="&#x11b;" horiz-adv-x="1157" 
d="M68 506q0 110 40 210t109 171q70 72 164.5 112.5t198.5 40.5q154 0 269 -69q115 -67 173.5 -181t58.5 -260v-79h-798q18 -143 113 -215t220 -72q106 0 193.5 33t175.5 110h23l-9 -217q-181 -119 -393 -119q-148 0 -273 71q-123 71 -194 194q-71 124 -71 270zM442 1153
l-192 281h164l159 -152l160 152h164l-192 -281h-263zM289 606h581q-15 117 -96 189q-79 73 -194 73q-98 0 -181 -67q-85 -66 -110 -195z" />
    <glyph glyph-name="Gcircumflex" unicode="&#x11c;" horiz-adv-x="1507" 
d="M72 717q0 215 105 386q104 171 281 265q176 94 388 94q270 0 461 -131l20 -252h-31q-103 84 -220.5 131t-225.5 47q-225 0 -380 -141q-76 -68 -118.5 -172t-42.5 -227q0 -121 39.5 -224t110.5 -173q146 -144 370 -144q200 0 340 127v303h-428v205h666v-598
q-144 -123 -285.5 -182.5t-302.5 -59.5q-153 0 -290.5 54.5t-240.5 152.5q-99 96 -158 237q-58 138 -58 302zM672 1575h-164l192 280h263l192 -280h-164l-160 151z" />
    <glyph glyph-name="gcircumflex" unicode="&#x11d;" horiz-adv-x="1239" 
d="M70 520q0 115 44 215.5t119 167.5q156 137 345 137q104 0 187 -34.5t136 -94.5v101h217v-920q0 -309 -153 -450q-144 -134 -398 -134q-179 0 -321 84l-8 218h41q63 -53 135 -79t174 -26q137 0 225 83q88 82 88 232v109q-129 -129 -328 -129q-140 0 -255 64
q-112 64 -181 184q-67 119 -67 272zM372 749q-85 -94 -85 -229t85 -229t234 -94q148 0 232 94q84 95 84 229t-84 229t-232 95t-234 -95zM455 1153h-164l192 281h262l193 -281h-164l-160 152z" />
    <glyph glyph-name="Gbreve" unicode="&#x11e;" horiz-adv-x="1507" 
d="M72 717q0 215 105 386q104 171 281 265q176 94 388 94q270 0 461 -131l20 -252h-31q-103 84 -220.5 131t-225.5 47q-225 0 -380 -141q-76 -68 -118.5 -172t-42.5 -227q0 -121 39.5 -224t110.5 -173q146 -144 370 -144q200 0 340 127v303h-428v205h666v-598
q-144 -123 -285.5 -182.5t-302.5 -59.5q-153 0 -290.5 54.5t-240.5 152.5q-99 96 -158 237q-58 138 -58 302zM594 1815h151q0 -46 24.5 -74.5t66.5 -28.5t66 28t24 75h151q0 -106 -67 -173q-66 -67 -174 -67t-175 67t-67 173z" />
    <glyph glyph-name="gbreve" unicode="&#x11f;" horiz-adv-x="1239" 
d="M70 520q0 115 44 215.5t119 167.5q156 137 345 137q104 0 187 -34.5t136 -94.5v101h217v-920q0 -309 -153 -450q-144 -134 -398 -134q-179 0 -321 84l-8 218h41q63 -53 135 -79t174 -26q137 0 225 83q88 82 88 232v109q-129 -129 -328 -129q-140 0 -255 64
q-112 64 -181 184q-67 119 -67 272zM372 749q-85 -94 -85 -229t85 -229t234 -94q148 0 232 94q84 95 84 229t-84 229t-232 95t-234 -95zM362 1393h152q0 -47 24 -75t66 -28t66 28t24 75h152q0 -106 -67 -173t-175 -67t-175 67t-67 173z" />
    <glyph glyph-name="Gdotaccent" unicode="&#x120;" horiz-adv-x="1507" 
d="M72 717q0 215 105 386q104 171 281 265q176 94 388 94q270 0 461 -131l20 -252h-31q-103 84 -220.5 131t-225.5 47q-225 0 -380 -141q-76 -68 -118.5 -172t-42.5 -227q0 -121 39.5 -224t110.5 -173q146 -144 370 -144q200 0 340 127v303h-428v205h666v-598
q-144 -123 -285.5 -182.5t-302.5 -59.5q-153 0 -290.5 54.5t-240.5 152.5q-99 96 -158 237q-58 138 -58 302zM715 1640q-41 43 -41 101q0 59 41 100t100 41t100 -41t41 -100t-42 -101q-41 -41 -99 -41q-57 0 -100 41z" />
    <glyph glyph-name="gdotaccent" unicode="&#x121;" horiz-adv-x="1239" 
d="M70 520q0 115 44 215.5t119 167.5q156 137 345 137q104 0 187 -34.5t136 -94.5v101h217v-920q0 -309 -153 -450q-144 -134 -398 -134q-179 0 -321 84l-8 218h41q63 -53 135 -79t174 -26q137 0 225 83q88 82 88 232v109q-129 -129 -328 -129q-140 0 -255 64
q-112 64 -181 184q-67 119 -67 272zM372 749q-85 -94 -85 -229t85 -229t234 -94q148 0 232 94q84 95 84 229t-84 229t-232 95t-234 -95zM588 1460q58 0 99 -41q42 -40 42 -100q0 -59 -42 -100q-41 -41 -99 -41t-101 41q-41 43 -41 100q0 58 41 99q42 42 101 42z" />
    <glyph glyph-name="uni0122" unicode="&#x122;" horiz-adv-x="1507" 
d="M72 717q0 215 105 386q104 171 281 265q176 94 388 94q270 0 461 -131l20 -252h-31q-103 84 -220.5 131t-225.5 47q-225 0 -380 -141q-76 -68 -118.5 -172t-42.5 -227q0 -121 39.5 -224t110.5 -173q146 -144 370 -144q200 0 340 127v303h-428v205h666v-598
q-144 -123 -285.5 -182.5t-302.5 -59.5q-153 0 -290.5 54.5t-240.5 152.5q-99 96 -158 237q-58 138 -58 302zM657 -285q0 59 39 101q39 41 97 41q60 0 99 -42q40 -41 40 -102q0 -237 -232 -358l-18 47q53 38 79 79t32 101q-53 0 -95 39q-41 39 -41 94z" />
    <glyph glyph-name="uni0123" unicode="&#x123;" horiz-adv-x="1239" 
d="M70 520q0 115 44 215.5t119 167.5q156 137 345 137q104 0 187 -34.5t136 -94.5v101h217v-920q0 -309 -153 -450q-144 -134 -398 -134q-179 0 -321 84l-8 218h41q63 -53 135 -79t174 -26q137 0 225 83q88 82 88 232v109q-129 -129 -328 -129q-140 0 -255 64
q-112 64 -181 184q-67 119 -67 272zM372 749q-85 -94 -85 -229t85 -229t234 -94q148 0 232 94q84 95 84 229t-84 229t-232 95t-234 -95zM451 1362q0 207 217 358l39 -41q-58 -48 -85 -90.5t-30 -97.5q53 0 93 -40q40 -39 40 -91q0 -59 -38 -102q-38 -41 -95 -41
q-62 0 -102 42q-39 42 -39 103z" />
    <glyph glyph-name="Hcircumflex" unicode="&#x124;" horiz-adv-x="1363" 
d="M371 0h-238v1434h238v-576h622v576h238v-1434h-238v653h-622v-653zM522 1575h-164l193 280h262l193 -280h-164l-160 151z" />
    <glyph glyph-name="hcircumflex" unicode="&#x125;" horiz-adv-x="1163" 
d="M338 0h-217v1475h217v-601q54 72 152 119q99 47 198 47q166 0 266 -93q101 -93 101 -259v-688h-217v623q0 103 -63 162q-62 59 -161 59q-112 0 -194 -85t-82 -218v-541zM397 1575h-164l193 280h262l193 -280h-164l-160 151z" />
    <glyph glyph-name="Hbar" unicode="&#x126;" horiz-adv-x="1372" 
d="M137 1057h-137v162h137v215h238v-215h622v215h238v-215h137v-162h-137v-1057h-238v653h-622v-653h-238v1057zM375 1057v-199h622v199h-622z" />
    <glyph glyph-name="hbar" unicode="&#x127;" horiz-adv-x="1191" 
d="M150 1169h-140v148h140v158h217v-158h295v-148h-295v-295q54 72 152 119q99 47 198 47q165 0 266 -93q100 -93 100 -259v-688h-217v623q0 103 -63 162q-62 59 -160 59q-112 0 -194 -85t-82 -218v-541h-217v1169z" />
    <glyph glyph-name="Itilde" unicode="&#x128;" horiz-adv-x="503" 
d="M-92 1585h-17l15 170q84 90 205 90q48 0 94 -16.5t77 -39.5q78 -56 140 -56q84 0 176 98h16l-14 -170q-84 -90 -205 -90q-94 0 -172 56q-74 56 -139 56q-84 0 -176 -98zM371 0h-238v1434h238v-1434z" />
    <glyph glyph-name="itilde" unicode="&#x129;" horiz-adv-x="479" 
d="M-104 1163h-17l15 170q84 90 204 90q48 0 95 -16.5t77 -39.5q78 -56 140 -56q84 0 176 98h16l-14 -170q-84 -90 -205 -90q-94 0 -172 56q-73 57 -139 57q-83 0 -176 -99zM348 0h-217v1012h217v-1012z" />
    <glyph glyph-name="Imacron" unicode="&#x12a;" horiz-adv-x="503" 
d="M498 1610h-492v162h492v-162zM371 0h-238v1434h238v-1434z" />
    <glyph glyph-name="imacron" unicode="&#x12b;" horiz-adv-x="479" 
d="M485 1188h-491v162h491v-162zM348 0h-217v1012h217v-1012z" />
    <glyph glyph-name="Ibreve" unicode="&#x12c;" horiz-adv-x="503" 
d="M10 1815h152q0 -47 24 -75t66 -28t66 28t24 75h152q0 -106 -67 -173t-175 -67t-175 67t-67 173zM371 0h-238v1434h238v-1434z" />
    <glyph glyph-name="ibreve" unicode="&#x12d;" horiz-adv-x="479" 
d="M-2 1393h152q0 -47 24 -75t66 -28t66 28t24 75h151q0 -106 -67 -173q-66 -67 -174 -67t-175 67t-67 173zM348 0h-217v1012h217v-1012z" />
    <glyph glyph-name="Iogonek" unicode="&#x12e;" horiz-adv-x="503" 
d="M68 -262q0 78 42.5 147t118.5 115h-96v1434h238v-1434q-138 -128 -138 -238q0 -58 38 -94.5t100 -36.5q79 0 139 45l18 -6l-18 -129q-74 -33 -176 -33q-123 0 -194 64q-72 64 -72 166z" />
    <glyph glyph-name="iogonek" unicode="&#x12f;" horiz-adv-x="479" 
d="M45 -262q0 78 43 147t119 115h-76v1012h217v-1012q-137 -126 -137 -238q0 -59 38 -95t99 -36q79 0 139 45l19 -6l-19 -129q-74 -33 -176 -33q-123 0 -194 64q-72 64 -72 166zM240 1460q58 0 99 -41q42 -41 42 -100t-42 -100q-41 -41 -99 -41t-101 41q-41 43 -41 100
q0 58 41 99q42 42 101 42z" />
    <glyph glyph-name="Idot" unicode="&#x130;" horiz-adv-x="503" 
d="M152 1640q-41 43 -41 101q0 59 41 100q43 41 100 41q58 0 99 -41q42 -40 42 -100q0 -59 -42 -101q-41 -41 -99 -41q-57 0 -100 41zM371 0h-238v1434h238v-1434z" />
    <glyph glyph-name="dotlessi" unicode="&#x131;" horiz-adv-x="479" 
d="M348 0h-217v1012h217v-1012z" />
    <glyph glyph-name="IJ" unicode="&#x132;" horiz-adv-x="1212" 
d="M123 946v488h237v-508q0 -124 64 -191t174 -67q114 0 179 64t65 188v514h237v-969q0 -245 -141 -369q-142 -125 -379 -125q-166 0 -313 39l-29 246h23q136 -80 319 -80q55 0 103.5 14.5t90 45t65.5 85.5t24 128v112q-49 -45 -121.5 -71.5t-153.5 -26.5q-191 0 -314 115
q-62 58 -96 153t-34 215z" />
    <glyph glyph-name="ij" unicode="&#x133;" horiz-adv-x="1112" 
d="M127 1219q-41 41 -41 100t41 100t100 41t100 -42q42 -40 42 -99q0 -58 -42 -100q-41 -41 -100 -41t-100 41zM117 356v656h217v-619q0 -103 56.5 -164t152.5 -61q110 0 171.5 72.5t61.5 199.5v572h217v-965q0 -253 -135 -396t-354 -143q-188 0 -350 80l-11 217h39
q77 -51 148 -71q70 -21 164 -21q134 0 208 81t74 226v66q-106 -115 -287 -115q-136 0 -250 98q-56 49 -89 124t-33 163zM784 1219q-41 43 -41 100q0 58 41 99q42 42 101 42t100 -41t41 -100t-41 -100t-100 -41q-58 0 -101 41z" />
    <glyph glyph-name="Jcircumflex" unicode="&#x134;" horiz-adv-x="796" 
d="M111 0l-25 223h33q82 -47 162 -47q71 0 113 51.5t42 151.5v1055h238v-1043q0 -197 -98 -309q-98 -111 -257 -111q-63 0 -103 6q-36 5 -105 23zM395 1575h-164l193 280h262l193 -280h-164l-160 151z" />
    <glyph glyph-name="jcircumflex" unicode="&#x135;" horiz-adv-x="483" 
d="M-76 -457l-18 189h28q50 -39 107 -39q96 0 96 123v1196h217v-1178q0 -159 -77 -242.5t-214 -83.5q-74 0 -139 35zM86 1153h-164l193 281h262l192 -281h-163l-160 152z" />
    <glyph glyph-name="uni0136" unicode="&#x136;" horiz-adv-x="1236" 
d="M371 0h-238v1434h238v-674l520 674h266l-549 -699l602 -735h-280l-559 678v-678zM485 -285q0 59 39 101q39 41 97 41q60 0 99 -42q40 -41 40 -102q0 -237 -232 -358l-18 47q53 38 79 79t32 101q-53 0 -95 39q-41 39 -41 94z" />
    <glyph glyph-name="uni0137" unicode="&#x137;" horiz-adv-x="1003" 
d="M338 0h-217v1475h217v-904l373 441h252l-406 -469l422 -543h-262l-379 492v-492zM365 -285q0 58 38 101q39 41 97 41q60 0 99 -42q40 -41 40 -102q0 -237 -231 -358l-19 47q53 38 79 79t32 101q-54 0 -94 39q-41 39 -41 94z" />
    <glyph glyph-name="kgreenlandic" unicode="&#x138;" horiz-adv-x="993" 
d="M328 0h-217v1012h217v-441l372 441h252l-405 -469l422 -543h-262l-379 492v-492z" />
    <glyph glyph-name="Lacute" unicode="&#x139;" horiz-adv-x="1161" 
d="M1081 0h-948v1434h238v-1229h710v-205zM324 1575h-185l185 280h288z" />
    <glyph glyph-name="lacute" unicode="&#x13a;" horiz-adv-x="458" 
d="M281 1575h-185l185 280h288zM338 0h-217v1475h217v-1475z" />
    <glyph glyph-name="uni013B" unicode="&#x13b;" horiz-adv-x="1161" 
d="M1081 0h-948v1434h238v-1229h710v-205zM477 -256q0 59 38 100q39 41 97 41q61 0 100 -41q40 -41 40 -102q0 -237 -232 -358l-18 47q53 37 78.5 78.5t31.5 101.5q-54 0 -94 39q-41 39 -41 94z" />
    <glyph glyph-name="uni013C" unicode="&#x13c;" horiz-adv-x="438" 
d="M82 -256q0 59 38 100q39 41 97 41q60 0 99 -41q40 -41 40 -102q0 -236 -231 -358l-19 47q53 38 79 79t32 101q-53 0 -94 39t-41 94zM328 0h-217v1475h217v-1475z" />
    <glyph glyph-name="Lcaron" unicode="&#x13d;" horiz-adv-x="1161" 
d="M1081 0h-948v1434h238v-1229h710v-205zM834 1311q0 60 38 101q38 42 95 42q62 0 101 -42q40 -41 40 -103q0 -208 -217 -359l-39 41q58 48 85 91t30 98q-53 0 -93 39q-40 40 -40 92z" />
    <glyph glyph-name="lcaron" unicode="&#x13e;" horiz-adv-x="798" 
d="M338 0h-217v1475h217v-1475zM483 1311q0 60 38 101q37 42 95 42q62 0 102 -42q40 -41 40 -103q0 -208 -217 -359l-39 41q57 48 84 91t30 98q-52 0 -93 39q-40 40 -40 92z" />
    <glyph glyph-name="Ldot" unicode="&#x13f;" horiz-adv-x="1161" 
d="M1081 0h-948v1434h238v-1229h710v-205zM738 646q-40 40 -40 97t40 97q41 41 98 41q56 0 97 -41q40 -40 40 -97t-40 -97t-97 -40q-58 0 -98 40z" />
    <glyph glyph-name="ldot" unicode="&#x140;" horiz-adv-x="759" 
d="M338 0h-217v1475h217v-1475zM511 646q-40 40 -40 97t40 97q41 41 97 41t97 -41q40 -40 40 -97t-40 -97t-97 -40t-97 40z" />
    <glyph glyph-name="Lslash" unicode="&#x141;" horiz-adv-x="1191" 
d="M164 377l-164 -94v215l164 94v842h237v-703l340 197v-215l-340 -197v-311h711v-205h-948v377z" />
    <glyph glyph-name="lslash" unicode="&#x142;" horiz-adv-x="561" 
d="M172 459l-166 -97v216l166 96v801h217v-676l166 96v-215l-166 -96v-584h-217v459z" />
    <glyph glyph-name="Nacute" unicode="&#x143;" horiz-adv-x="1415" 
d="M371 0h-238v1434h96l815 -924v924h238v-1434h-96l-815 928v-928zM717 1575h-185l185 280h289z" />
    <glyph glyph-name="nacute" unicode="&#x144;" 
d="M338 0h-217v1012h217v-138q52 72 145 119q96 47 197 47q161 0 259 -92q99 -92 99 -260v-688h-217v623q0 105 -59 163t-160 58q-112 0 -188 -85t-76 -218v-541zM604 1153h-184l184 281h289z" />
    <glyph glyph-name="uni0145" unicode="&#x145;" horiz-adv-x="1415" 
d="M371 0h-238v1434h96l815 -924v924h238v-1434h-96l-815 928v-928zM569 -285q0 59 39 101q39 41 97 41q60 0 99 -42q40 -41 40 -102q0 -237 -232 -358l-18 47q53 38 79 79t32 101q-53 0 -95 39q-41 39 -41 94z" />
    <glyph glyph-name="uni0146" unicode="&#x146;" 
d="M338 0h-217v1012h217v-138q52 72 145 119q96 47 197 47q161 0 259 -92q99 -92 99 -260v-688h-217v623q0 105 -59 163t-160 58q-112 0 -188 -85t-76 -218v-541zM444 -285q0 59 39 101q39 41 97 41q60 0 99 -42q40 -41 40 -102q0 -237 -232 -358l-18 47q53 38 79 79t32 101
q-53 0 -95 39q-41 39 -41 94z" />
    <glyph glyph-name="Ncaron" unicode="&#x147;" horiz-adv-x="1415" 
d="M371 0h-238v1434h96l815 -924v924h238v-1434h-96l-815 928v-928zM584 1575l-193 280h164l160 -151l159 151h164l-192 -280h-262z" />
    <glyph glyph-name="ncaron" unicode="&#x148;" 
d="M338 0h-217v1012h217v-138q52 72 145 119q96 47 197 47q161 0 259 -92q99 -92 99 -260v-688h-217v623q0 105 -59 163t-160 58q-112 0 -188 -85t-76 -218v-541zM475 1153l-192 281h163l160 -152l160 152h164l-193 -281h-262z" />
    <glyph glyph-name="napostrophe" unicode="&#x149;" horiz-adv-x="1368" 
d="M25 1311q0 60 38 101q37 42 95 42q62 0 101 -42q40 -41 40 -103q0 -208 -217 -359l-39 41q58 48 85 91t30 98q-52 0 -93 39q-40 40 -40 92zM559 0h-217v1012h217v-138q52 72 145 119q96 47 197 47q160 0 260 -92q99 -92 99 -260v-688h-218v623q0 105 -59 163t-160 58
q-112 0 -188 -85t-76 -218v-541z" />
    <glyph glyph-name="Eng" unicode="&#x14a;" horiz-adv-x="1415" 
d="M371 0h-238v1434h96l815 -1065v1065h238v-1506q0 -200 -97 -309q-97 -111 -257 -111q-101 0 -209 29l-25 223h33q82 -47 162 -47q71 0 113 51.5t42 151.5v84l-673 883v-883z" />
    <glyph glyph-name="eng" unicode="&#x14b;" 
d="M338 0h-217v1012h217v-138q52 72 145 119q96 47 197 47q161 0 259 -92q99 -92 99 -260v-854q0 -159 -76.5 -242.5t-213.5 -83.5q-84 0 -140 35l-18 189h28q50 -39 107 -39q96 0 96 123v807q0 105 -59 163t-160 58q-112 0 -188 -85t-76 -218v-541z" />
    <glyph glyph-name="Omacron" unicode="&#x14c;" horiz-adv-x="1654" 
d="M827 1462q155 0 295 -57q140 -56 241 -155q104 -100 162 -238.5t58 -294.5q0 -209 -101 -382q-100 -170 -273 -268q-173 -96 -382 -96t-382 96q-173 98 -273 268q-100 172 -100 382q0 211 100 381q100 172 273 268t382 96zM827 176q222 0 367 142q72 70 112 173.5
t40 225.5q0 164 -71 289q-71 126 -187 188q-116 63 -261 63t-262 -63q-115 -63 -186 -188q-70 -124 -70 -289q0 -166 70 -290q69 -122 185.5 -186.5t262.5 -64.5zM1073 1610h-491v162h491v-162z" />
    <glyph glyph-name="omacron" unicode="&#x14d;" horiz-adv-x="1220" 
d="M141 231q-73 124 -73 275q0 152 73 274q74 125 197 191q125 69 272 69q148 0 272 -69q124 -67 198 -191q73 -122 73 -274q0 -151 -73 -275q-74 -123 -198 -192q-125 -68 -272 -68t-272 68q-123 68 -197 192zM610 168q137 0 231 94q95 95 95 244q0 148 -95 243t-231 95
q-135 0 -230 -95t-95 -243q0 -149 95 -244q94 -94 230 -94zM856 1188h-491v162h491v-162z" />
    <glyph glyph-name="Obreve" unicode="&#x14e;" horiz-adv-x="1654" 
d="M827 1462q155 0 295 -57q140 -56 241 -155q104 -100 162 -238.5t58 -294.5q0 -209 -101 -382q-100 -170 -273 -268q-173 -96 -382 -96t-382 96q-173 98 -273 268q-100 172 -100 382q0 211 100 381q100 172 273 268t382 96zM827 176q222 0 367 142q72 70 112 173.5
t40 225.5q0 164 -71 289q-71 126 -187 188q-116 63 -261 63t-262 -63q-115 -63 -186 -188q-70 -124 -70 -289q0 -166 70 -290q69 -122 185.5 -186.5t262.5 -64.5zM586 1815h151q0 -47 24 -75t66 -28t66.5 28.5t24.5 74.5h151q0 -106 -67 -173t-175 -67t-175 67
q-66 68 -66 173z" />
    <glyph glyph-name="obreve" unicode="&#x14f;" horiz-adv-x="1220" 
d="M141 231q-73 124 -73 275q0 152 73 274q74 125 197 191q125 69 272 69q148 0 272 -69q124 -67 198 -191q73 -122 73 -274q0 -151 -73 -275q-74 -123 -198 -192q-125 -68 -272 -68t-272 68q-123 68 -197 192zM610 168q137 0 231 94q95 95 95 244q0 148 -95 243t-231 95
q-135 0 -230 -95t-95 -243q0 -149 95 -244q94 -94 230 -94zM369 1393h151q0 -47 24 -75t66 -28t66 28t24 75h152q0 -106 -67 -173t-175 -67t-175 67q-66 68 -66 173z" />
    <glyph glyph-name="Ohungarumlaut" unicode="&#x150;" horiz-adv-x="1654" 
d="M827 1462q155 0 295 -57q140 -56 241 -155q104 -100 162 -238.5t58 -294.5q0 -209 -101 -382q-100 -170 -273 -268q-173 -96 -382 -96t-382 96q-173 98 -273 268q-100 172 -100 382q0 211 100 381q100 172 273 268t382 96zM827 176q222 0 367 142q72 70 112 173.5
t40 225.5q0 164 -71 289q-71 126 -187 188q-116 63 -261 63t-262 -63q-115 -63 -186 -188q-70 -124 -70 -289q0 -166 70 -290q69 -122 185.5 -186.5t262.5 -64.5zM662 1575h-185l185 280h288zM1024 1575h-184l184 280h289z" />
    <glyph glyph-name="ohungarumlaut" unicode="&#x151;" horiz-adv-x="1220" 
d="M141 231q-73 124 -73 275q0 152 73 274q74 125 197 191q125 69 272 69q148 0 272 -69q124 -67 198 -191q73 -122 73 -274q0 -151 -73 -275q-74 -123 -198 -192q-125 -68 -272 -68t-272 68q-123 68 -197 192zM438 1153h-184l184 281h289zM610 168q137 0 231 94
q95 95 95 244q0 148 -95 243t-231 95q-135 0 -230 -95t-95 -243q0 -149 95 -244q94 -94 230 -94zM801 1153h-185l185 281h289z" />
    <glyph glyph-name="OE" unicode="&#x152;" horiz-adv-x="2301" 
d="M827 1462q148 0 281.5 -51t237.5 -145v168h866v-205h-629v-389h606v-205h-606v-430h637v-205h-874v168q-104 -95 -237.5 -146t-281.5 -51q-209 0 -382 96q-173 98 -273 268q-100 172 -100 382q0 211 100 381q100 172 273 268t382 96zM827 176q222 0 367 142
q72 70 112 173.5t40 225.5q0 164 -71 289q-71 126 -187 188q-116 63 -261 63t-262 -63q-115 -63 -186 -188q-70 -124 -70 -289q0 -166 70 -290q69 -122 185.5 -186.5t262.5 -64.5z" />
    <glyph glyph-name="oe" unicode="&#x153;" horiz-adv-x="2017" 
d="M610 1040q130 0 243 -53.5t189 -150.5q70 96 177 150t229 54q154 0 269 -69q115 -67 174 -181t59 -260v-79h-799q18 -143 113 -215q96 -72 221 -72q105 0 192.5 33t175.5 110h23l-8 -217q-181 -119 -393 -119q-131 0 -244.5 55t-186.5 154q-76 -99 -189.5 -154
t-244.5 -55q-147 0 -272 68q-123 68 -197 192q-73 124 -73 275q0 152 73 274q74 125 197 191q125 69 272 69zM610 168q137 0 231 94q95 95 95 244q0 148 -95 243t-231 95q-135 0 -230 -95t-95 -243q0 -149 95 -244q94 -94 230 -94zM1157 606h582q-15 117 -96 189
q-80 73 -195 73q-98 0 -181 -67q-85 -66 -110 -195z" />
    <glyph glyph-name="Racute" unicode="&#x154;" horiz-adv-x="1165" 
d="M371 0h-238v1434h416q214 0 347 -109q134 -110 134 -299q0 -141 -81 -240q-80 -98 -204 -143l388 -643h-265l-372 618h-125v-618zM371 1229v-406h168q124 0 189 51t65 152t-65 152t-189 51h-168zM571 1575h-184l184 280h289z" />
    <glyph glyph-name="racute" unicode="&#x155;" horiz-adv-x="839" 
d="M338 0h-217v1012h217v-123q48 71 121.5 111t154.5 40q93 0 158 -47l14 -231h-18q-88 82 -186 82q-96 0 -166 -69q-78 -76 -78 -247v-528zM471 1153h-184l184 281h289z" />
    <glyph glyph-name="uni0156" unicode="&#x156;" horiz-adv-x="1165" 
d="M371 0h-238v1434h416q214 0 347 -109q134 -110 134 -299q0 -141 -81 -240q-80 -98 -204 -143l388 -643h-265l-372 618h-125v-618zM371 1229v-406h168q124 0 189 51t65 152t-65 152t-189 51h-168zM471 -285q0 58 38 101q39 41 97 41q60 0 99 -42q40 -41 40 -102
q0 -237 -231 -358l-18 47q53 37 78.5 78.5t31.5 101.5q-54 0 -94 39q-41 39 -41 94z" />
    <glyph glyph-name="uni0157" unicode="&#x157;" horiz-adv-x="839" 
d="M92 -285q0 58 38 101q39 41 97 41q59 0 100 -42q40 -41 40 -102q0 -237 -232 -358l-18 47q53 37 78.5 78.5t31.5 101.5q-53 0 -94 39t-41 94zM338 0h-217v1012h217v-123q48 71 121.5 111t154.5 40q93 0 158 -47l14 -231h-18q-88 82 -186 82q-96 0 -166 -69
q-78 -76 -78 -247v-528z" />
    <glyph glyph-name="Rcaron" unicode="&#x158;" horiz-adv-x="1165" 
d="M371 0h-238v1434h416q214 0 347 -109q134 -110 134 -299q0 -141 -81 -240q-80 -98 -204 -143l388 -643h-265l-372 618h-125v-618zM430 1575l-192 280h163l160 -151l160 151h164l-193 -280h-262zM371 1229v-406h168q124 0 189 51t65 152t-65 152t-189 51h-168z" />
    <glyph glyph-name="rcaron" unicode="&#x159;" horiz-adv-x="839" 
d="M309 1153l-192 281h164l159 -152l160 152h164l-193 -281h-262zM338 0h-217v1012h217v-123q48 71 121.5 111t154.5 40q93 0 158 -47l14 -231h-18q-88 82 -186 82q-96 0 -166 -69q-78 -76 -78 -247v-528z" />
    <glyph glyph-name="Sacute" unicode="&#x15a;" horiz-adv-x="1056" 
d="M98 121l13 280h20q86 -111 177.5 -168t205.5 -57q103 0 165 56q62 57 62 151q0 103 -66 164q-65 62 -210 127q-176 77 -265 179.5t-89 240.5q0 110 59 196q58 84 152.5 128t207.5 44q220 0 344 -110l11 -256h-27q-160 174 -330 174q-85 0 -143 -47q-57 -47 -57 -121
q0 -82 70 -140t227 -126q178 -77 266 -180.5t88 -249.5q0 -190 -129 -313q-128 -122 -332 -122q-129 0 -237.5 41t-182.5 109zM539 1575h-185l185 280h288z" />
    <glyph glyph-name="sacute" unicode="&#x15b;" horiz-adv-x="860" 
d="M72 72l49 204h12q134 -108 281 -108q74 0 120 30.5t46 82.5q0 63 -48 97q-46 34 -167 75q-265 88 -265 297q0 125 100 207q101 83 251 83q153 0 274 -71l8 -207h-14q-139 98 -268 98q-64 0 -105 -28t-41 -78q0 -55 49 -89q50 -35 166 -75q129 -45 198 -104
q79 -67 79 -193q0 -146 -110 -235q-109 -87 -267 -87q-193 0 -348 101zM440 1153h-184l184 281h289z" />
    <glyph glyph-name="Scircumflex" unicode="&#x15c;" horiz-adv-x="1056" 
d="M98 121l13 280h20q86 -111 177.5 -168t205.5 -57q103 0 165 56q62 57 62 151q0 103 -66 164q-65 62 -210 127q-176 77 -265 179.5t-89 240.5q0 110 59 196q58 84 152.5 128t207.5 44q220 0 344 -110l11 -256h-27q-160 174 -330 174q-85 0 -143 -47q-57 -47 -57 -121
q0 -82 70 -140t227 -126q178 -77 266 -180.5t88 -249.5q0 -190 -129 -313q-128 -122 -332 -122q-129 0 -237.5 41t-182.5 109zM369 1575h-164l192 280h262l193 -280h-164l-160 151z" />
    <glyph glyph-name="scircumflex" unicode="&#x15d;" horiz-adv-x="860" 
d="M72 72l49 204h12q134 -108 281 -108q74 0 120 30.5t46 82.5q0 63 -48 97q-46 34 -167 75q-265 88 -265 297q0 125 100 207q101 83 251 83q153 0 274 -71l8 -207h-14q-139 98 -268 98q-64 0 -105 -28t-41 -78q0 -55 49 -89q50 -35 166 -75q129 -45 198 -104
q79 -67 79 -193q0 -146 -110 -235q-109 -87 -267 -87q-193 0 -348 101zM270 1153h-164l193 281h262l193 -281h-164l-160 152z" />
    <glyph glyph-name="Scedilla" unicode="&#x15e;" horiz-adv-x="1056" 
d="M98 121l13 280h20q86 -111 177.5 -168t205.5 -57q103 0 165 56q62 57 62 151q0 103 -66 164q-65 62 -210 127q-176 77 -265 179.5t-89 240.5q0 110 59 196q58 84 152.5 128t207.5 44q220 0 344 -110l11 -256h-27q-160 174 -330 174q-85 0 -143 -47q-57 -47 -57 -121
q0 -82 70 -140t227 -126q178 -77 266 -180.5t88 -249.5q0 -187 -123 -308q-122 -121 -321 -127l-66 -92q59 17 109 17q80 0 127 -48.5t47 -130.5q0 -96 -71 -152q-71 -57 -189 -57q-103 0 -181 29l-22 129l20 6q79 -47 154 -47q46 0 76 23.5t30 64.5t-28.5 65.5t-71.5 24.5
q-67 0 -123 -24l-14 16l78 185q-188 27 -312 141z" />
    <glyph glyph-name="scedilla" unicode="&#x15f;" horiz-adv-x="860" 
d="M72 72l49 204h12q134 -108 281 -108q74 0 120 30.5t46 82.5q0 63 -48 97q-46 34 -167 75q-265 88 -265 297q0 125 100 207q101 83 251 83q153 0 274 -71l8 -207h-14q-139 98 -268 98q-64 0 -105 -28t-41 -78q0 -55 49 -89q50 -35 166 -75q129 -45 198 -104
q79 -67 79 -193q0 -141 -100 -226q-99 -85 -248 -96l-66 -92q59 17 109 17q80 0 127 -48.5t47 -130.5q0 -96 -71 -152q-71 -57 -189 -57q-103 0 -181 29l-22 129l20 6q79 -47 154 -47q46 0 76 23.5t30 64.5t-28.5 65.5t-71.5 24.5q-67 0 -123 -24l-14 16l78 182
q-139 19 -252 95z" />
    <glyph glyph-name="Scaron" unicode="&#x160;" horiz-adv-x="1056" 
d="M98 121l13 280h20q86 -111 177.5 -168t205.5 -57q103 0 165 56q62 57 62 151q0 103 -66 164q-65 62 -210 127q-176 77 -265 179.5t-89 240.5q0 110 59 196q58 84 152.5 128t207.5 44q220 0 344 -110l11 -256h-27q-160 174 -330 174q-85 0 -143 -47q-57 -47 -57 -121
q0 -82 70 -140t227 -126q178 -77 266 -180.5t88 -249.5q0 -190 -129 -313q-128 -122 -332 -122q-129 0 -237.5 41t-182.5 109zM403 1575l-192 280h164l160 -151l159 151h164l-192 -280h-263z" />
    <glyph glyph-name="scaron" unicode="&#x161;" horiz-adv-x="860" 
d="M72 72l49 204h12q134 -108 281 -108q74 0 120 30.5t46 82.5q0 63 -48 97q-46 34 -167 75q-265 88 -265 297q0 125 100 207q101 83 251 83q153 0 274 -71l8 -207h-14q-139 98 -268 98q-64 0 -105 -28t-41 -78q0 -55 49 -89q50 -35 166 -75q129 -45 198 -104
q79 -67 79 -193q0 -146 -110 -235q-109 -87 -267 -87q-193 0 -348 101zM299 1153l-193 281h164l160 -152l160 152h164l-193 -281h-262z" />
    <glyph glyph-name="uni0162" unicode="&#x162;" horiz-adv-x="1101" 
d="M432 1229h-360v205h958v-205h-360v-1229h-238v1229zM414 -285q0 58 38 101q39 41 97 41q60 0 99 -42q40 -41 40 -102q0 -237 -231 -358l-19 47q53 38 79 79t32 101q-53 0 -94 39t-41 94z" />
    <glyph glyph-name="uni0163" unicode="&#x163;" horiz-adv-x="788" 
d="M205 823h-180v189h180v192l217 99v-291h283v-189h-283v-538q0 -60 36 -93q37 -32 83 -32q88 0 166 63h18l-20 -200q-97 -52 -211 -52q-126 0 -208 80q-81 81 -81 234v538zM338 -285q0 58 38 101q39 41 97 41q60 0 99 -42q40 -41 40 -102q0 -237 -231 -358l-19 47
q53 38 79 79t32 101q-53 0 -94 39t-41 94z" />
    <glyph glyph-name="Tcaron" unicode="&#x164;" horiz-adv-x="1101" 
d="M432 1229h-360v205h958v-205h-360v-1229h-238v1229zM420 1575l-193 280h164l160 -151l160 151h163l-192 -280h-262z" />
    <glyph glyph-name="tcaron" unicode="&#x165;" horiz-adv-x="1083" 
d="M205 823h-180v189h180v192l217 99v-291h283v-189h-283v-538q0 -60 36 -93q37 -32 83 -32q88 0 166 63h18l-20 -200q-97 -52 -211 -52q-126 0 -208 80q-81 81 -81 234v538zM772 1311q0 60 38 101q38 42 95 42q61 0 102 -42q40 -41 40 -103q0 -207 -218 -359l-38 41
q57 48 84 91t30 98q-53 0 -93 39q-40 40 -40 92z" />
    <glyph glyph-name="Tbar" unicode="&#x166;" horiz-adv-x="1101" 
d="M432 1229h-360v205h958v-205h-360v-326h282v-162h-282v-743h-238v743h-282v162h282v326z" />
    <glyph glyph-name="tbar" unicode="&#x167;" horiz-adv-x="788" 
d="M205 823h-180v189h180v192l217 99v-291h283v-189h-283v-223h264v-147h-264v-168q0 -60 36 -93q37 -32 83 -32q88 0 166 63h18l-20 -200q-97 -52 -211 -52q-126 0 -208 80q-81 81 -81 234v168h-158v147h158v223z" />
    <glyph glyph-name="Utilde" unicode="&#x168;" horiz-adv-x="1335" 
d="M113 553v881h237v-906q0 -189 100 -276q92 -76 218 -76q128 0 217 76q100 87 100 276v906h238v-881q0 -275 -150 -429q-150 -153 -405 -153t-405 153q-150 154 -150 429zM324 1585h-17l15 170q84 90 204 90q48 0 95 -16.5t77 -39.5q78 -56 140 -56q84 0 176 98h16
l-14 -170q-84 -90 -205 -90q-94 0 -172 56q-74 56 -139 56q-84 0 -176 -98z" />
    <glyph glyph-name="utilde" unicode="&#x169;" 
d="M109 334v678h217v-623q0 -105 59 -163t160 -58q111 0 188 83q76 82 76 220v541h217v-1012h-217v137q-53 -74 -146 -120q-92 -46 -196 -46q-161 0 -259 97q-99 98 -99 266zM229 1163h-16l14 170q84 90 205 90q48 0 94 -16.5t77 -39.5q78 -56 140 -56q85 0 177 98h16
l-14 -170q-84 -90 -205 -90q-94 0 -172 56q-73 57 -139 57q-84 0 -177 -99z" />
    <glyph glyph-name="Umacron" unicode="&#x16a;" horiz-adv-x="1335" 
d="M113 553v881h237v-906q0 -189 100 -276q92 -76 218 -76q128 0 217 76q100 87 100 276v906h238v-881q0 -275 -150 -429q-150 -153 -405 -153t-405 153q-150 154 -150 429zM913 1610h-491v162h491v-162z" />
    <glyph glyph-name="umacron" unicode="&#x16b;" 
d="M109 334v678h217v-623q0 -105 59 -163t160 -58q111 0 188 83q76 82 76 220v541h217v-1012h-217v137q-53 -74 -146 -120q-92 -46 -196 -46q-161 0 -259 97q-99 98 -99 266zM817 1188h-491v162h491v-162z" />
    <glyph glyph-name="Ubreve" unicode="&#x16c;" horiz-adv-x="1335" 
d="M113 553v881h237v-906q0 -189 100 -276q92 -76 218 -76q128 0 217 76q100 87 100 276v906h238v-881q0 -275 -150 -429q-150 -153 -405 -153t-405 153q-150 154 -150 429zM426 1815h152q0 -47 24 -75t66 -28t66 28t24 75h151q0 -106 -67 -173q-66 -67 -174 -67t-175 67
t-67 173z" />
    <glyph glyph-name="ubreve" unicode="&#x16d;" 
d="M109 334v678h217v-623q0 -105 59 -163t160 -58q111 0 188 83q76 82 76 220v541h217v-1012h-217v137q-53 -74 -146 -120q-92 -46 -196 -46q-161 0 -259 97q-99 98 -99 266zM332 1393h151q0 -47 24 -75t66 -28t66.5 28.5t24.5 74.5h151q0 -106 -67 -173t-175 -67t-175 67
q-66 68 -66 173z" />
    <glyph glyph-name="Uring" unicode="&#x16e;" horiz-adv-x="1335" 
d="M113 553v881h237v-906q0 -189 100 -276q92 -76 218 -76q128 0 217 76q100 87 100 276v906h238v-881q0 -275 -150 -429q-150 -153 -405 -153t-405 153q-150 154 -150 429zM518 1596q-61 60 -61 147t61 147q62 60 150 60t150 -60q61 -60 61 -147t-61 -147q-62 -60 -150 -60
t-150 60zM582 1827q-33 -35 -33 -84t33 -84q35 -35 86 -35q52 0 85 35t33 84t-33 84t-85 35q-51 0 -86 -35z" />
    <glyph glyph-name="uring" unicode="&#x16f;" 
d="M109 334v678h217v-623q0 -105 59 -163t160 -58q111 0 188 83q76 82 76 220v541h217v-1012h-217v137q-53 -74 -146 -120q-92 -46 -196 -46q-161 0 -259 97q-99 98 -99 266zM423 1174q-61 60 -61 147t61 147t150 60t150 -60t61 -147t-61 -147t-150 -60t-150 60zM488 1405
q-33 -35 -33 -84t33 -84t85 -35t85 35q34 34 34 84t-34 84q-33 35 -85 35t-85 -35z" />
    <glyph glyph-name="Uhungarumlaut" unicode="&#x170;" horiz-adv-x="1335" 
d="M113 553v881h237v-906q0 -189 100 -276q92 -76 218 -76q128 0 217 76q100 87 100 276v906h238v-881q0 -275 -150 -429q-150 -153 -405 -153t-405 153q-150 154 -150 429zM520 1575h-184l184 280h289zM883 1575h-185l185 280h288z" />
    <glyph glyph-name="uhungarumlaut" unicode="&#x171;" 
d="M109 334v678h217v-623q0 -105 59 -163t160 -58q111 0 188 83q76 82 76 220v541h217v-1012h-217v137q-53 -74 -146 -120q-92 -46 -196 -46q-161 0 -259 97q-99 98 -99 266zM381 1153h-184l184 281h289zM743 1153h-184l184 281h289z" />
    <glyph glyph-name="Uogonek" unicode="&#x172;" horiz-adv-x="1335" 
d="M113 553v881h237v-906q0 -189 100 -276q92 -76 218 -76q128 0 217 76q100 87 100 276v906h238v-881q0 -214 -94.5 -357.5t-266.5 -195.5q-135 -124 -135 -238q0 -59 38 -95t99 -36q80 0 140 45l18 -6l-18 -129q-74 -33 -177 -33q-123 0 -194 64q-72 64 -72 166
q0 139 121 233h-14q-255 0 -405 153q-150 154 -150 429z" />
    <glyph glyph-name="uogonek" unicode="&#x173;" 
d="M109 334v678h217v-623q0 -105 59 -163t160 -58q111 0 188 83q76 82 76 220v541h217v-1012q-137 -126 -137 -238q0 -59 38 -95t99 -36q79 0 139 45l19 -6l-19 -129q-73 -33 -176 -33q-123 0 -194 64q-72 64 -72 166q0 78 43 147t119 115h-76v137q-53 -74 -146 -120
q-92 -46 -196 -46q-161 0 -259 97q-99 98 -99 266z" />
    <glyph glyph-name="Wcircumflex" unicode="&#x174;" horiz-adv-x="1986" 
d="M528 0l-483 1434h252l297 -908l346 908h107l346 -908l297 908h252l-484 -1434h-88l-377 987l-377 -987h-88zM834 1575h-164l192 280h262l193 -280h-164l-160 151z" />
    <glyph glyph-name="wcircumflex" unicode="&#x175;" horiz-adv-x="1576" 
d="M471 0l-444 1012h225l252 -592l241 592h86l242 -592l252 592h225l-444 -1012h-55l-263 649l-262 -649h-55zM629 1153h-164l192 281h263l192 -281h-164l-160 152z" />
    <glyph glyph-name="Ycircumflex" unicode="&#x176;" horiz-adv-x="1224" 
d="M494 623l-465 811h258l325 -598l326 598h258l-465 -811v-623h-237v623zM453 1575h-164l192 280h262l193 -280h-164l-160 151z" />
    <glyph glyph-name="ycircumflex" unicode="&#x177;" horiz-adv-x="1050" 
d="M418 190l-398 822h232l274 -586l279 586h225l-717 -1475h-225zM365 1153h-164l192 281h262l193 -281h-164l-160 152z" />
    <glyph glyph-name="Ydieresis" unicode="&#x178;" horiz-adv-x="1224" 
d="M494 623l-465 811h258l325 -598l326 598h258l-465 -811v-623h-237v623zM332 1616q-37 37 -37 92q0 54 37 91q38 38 92 38q53 0 91 -38t38 -91q0 -54 -38 -92q-37 -37 -91 -37q-55 0 -92 37zM711 1616q-37 37 -37 92q0 54 37 91q38 38 92 38q53 0 91 -38t38 -91
q0 -54 -38 -92q-37 -37 -91 -37q-55 0 -92 37z" />
    <glyph glyph-name="Zacute" unicode="&#x179;" horiz-adv-x="1234" 
d="M1163 0h-1112v31l725 1198h-663v205h1020v-31l-725 -1198h755v-205zM606 1575h-184l184 280h289z" />
    <glyph glyph-name="zacute" unicode="&#x17a;" horiz-adv-x="999" 
d="M911 0h-839v31l487 784h-446v197h786v-31l-487 -784h499v-197zM510 1153h-184l184 281h289z" />
    <glyph glyph-name="Zdotaccent" unicode="&#x17b;" horiz-adv-x="1234" 
d="M1163 0h-1112v31l725 1198h-663v205h1020v-31l-725 -1198h755v-205zM487 1741q0 58 41 99q42 42 101 42t100 -41t41 -100t-42 -101q-41 -41 -99 -41t-101 41q-41 43 -41 101z" />
    <glyph glyph-name="zdotaccent" unicode="&#x17c;" horiz-adv-x="999" 
d="M911 0h-839v31l487 784h-446v197h786v-31l-487 -784h499v-197zM406 1219q-41 41 -41 100t41 100q43 41 100 41q58 0 99 -41q42 -40 42 -100q0 -59 -42 -100q-41 -41 -99 -41q-57 0 -100 41z" />
    <glyph glyph-name="Zcaron" unicode="&#x17d;" horiz-adv-x="1234" 
d="M1163 0h-1112v31l725 1198h-663v205h1020v-31l-725 -1198h755v-205zM489 1575l-192 280h164l160 -151l159 151h164l-192 -280h-263z" />
    <glyph glyph-name="zcaron" unicode="&#x17e;" horiz-adv-x="999" 
d="M911 0h-839v31l487 784h-446v197h786v-31l-487 -784h499v-197zM369 1153l-193 281h164l160 -152l159 152h164l-192 -281h-262z" />
    <glyph glyph-name="longs" unicode="&#x17f;" horiz-adv-x="716" 
d="M203 823h-123v189h123v133q0 147 91 232t216 85q92 0 174 -43l8 -200h-16q-60 57 -131 57q-58 0 -91.5 -36t-33.5 -101v-1139h-217v823z" />
    <glyph glyph-name="uni018E" unicode="&#x18e;" horiz-adv-x="1089" 
d="M719 1229h-637v205h874v-1434h-866v205h629v389h-606v205h606v430z" />
    <glyph glyph-name="uni018F" unicode="&#x18f;" horiz-adv-x="1157" 
d="M68 481v80h798q-18 143 -114 215q-94 72 -220 72q-105 0 -192.5 -33t-175.5 -110h-23l9 217q178 118 393 118q145 3 270.5 -69t198 -196.5t69.5 -268.5q0 -150 -69 -273q-67 -122 -186 -193q-117 -69 -257 -69q-154 0 -270 68q-114 68 -172.5 182t-58.5 260zM860 406
h-581q15 -116 95 -190q80 -73 195 -73q98 0 181 67q85 68 110 196z" />
    <glyph glyph-name="florin" unicode="&#x192;" horiz-adv-x="811" 
d="M-285 -399l31 200h21q51 -57 118 -57q57 0 93.5 32t48.5 91l190 956h-123l37 189h123l27 133q31 157 126 237t226 80q105 0 178 -43l-31 -200h-20q-51 57 -119 57q-116 0 -141 -123l-29 -141h174l-37 -189h-174l-188 -948q-32 -157 -126 -237q-95 -80 -226 -80
q-106 0 -179 43z" />
    <glyph glyph-name="uni01B5" unicode="&#x1b5;" horiz-adv-x="1234" 
d="M1163 0h-1112v31l369 610h-283v162h381l258 426h-663v205h1020v-31l-365 -600h332v-162h-430l-262 -436h755v-205z" />
    <glyph glyph-name="uni01B6" unicode="&#x1b6;" horiz-adv-x="999" 
d="M911 0h-839v31l254 409h-176v148h268l141 227h-446v197h786v-31l-246 -393h226v-148h-316l-151 -243h499v-197z" />
    <glyph glyph-name="Aringacute" unicode="&#x1fa;" horiz-adv-x="1396" 
d="M266 0h-231l602 1372q-67 20 -108.5 75t-41.5 124q0 87 61 147q62 60 150 60t150 -60q61 -60 61 -147q0 -70 -41 -124.5t-108 -74.5l602 -1372h-232l-114 266h-635zM698 995l-227 -524h455zM709 1853h-185l185 281h288zM613 1655q-33 -35 -33 -84t33 -84t85 -35t85 35
q34 34 34 84t-34 84q-33 35 -85 35t-85 -35z" />
    <glyph glyph-name="aringacute" unicode="&#x1fb;" horiz-adv-x="1251" 
d="M68 506q0 154 71 278q71 123 188.5 189.5t258.5 66.5q104 0 190.5 -38.5t136.5 -100.5v111h217v-1012h-217v111q-70 -71 -148.5 -105.5t-186.5 -34.5q-100 0 -193.5 38.5t-163.5 108.5q-71 70 -112 171.5t-41 216.5zM373 745q-88 -97 -88 -239t88 -240q89 -98 231 -98
t229 98q87 99 87 240q0 142 -87 239q-87 99 -229 99t-231 -99zM450 1174q-61 60 -61 147t61 147q62 60 150 60t150 -60q61 -60 61 -147t-61 -147q-62 -60 -150 -60t-150 60zM635 1604h-184l184 280h289zM514 1405q-33 -35 -33 -84t33 -84q35 -35 86 -35q52 0 85 35
q34 34 34 84t-34 84q-33 35 -85 35q-51 0 -86 -35z" />
    <glyph glyph-name="AEacute" unicode="&#x1fc;" horiz-adv-x="2033" 
d="M266 0h-231l629 1434h698l92 -205h-629l170 -389h582l86 -205h-578l189 -430h637l88 -205h-869l-114 266h-635zM698 995l-227 -524h453zM985 1575h-184l184 280h289z" />
    <glyph glyph-name="aeacute" unicode="&#x1fd;" horiz-adv-x="1753" 
d="M57 262q0 118 69 197q130 147 460 147h86q-3 125 -65 192q-61 66 -152 66q-160 0 -279 -125h-33l19 203q60 40 149 69q90 29 178 29q101 0 185.5 -40.5t144.5 -116.5q70 75 166 116t201 41q154 0 269 -69q115 -67 174 -181t59 -260v-79h-799q18 -143 113 -215
q96 -72 221 -72q105 0 192.5 33t175.5 110h23l-8 -217q-181 -119 -394 -119q-132 0 -245 56t-189 157q-68 -107 -169.5 -160t-223.5 -53q-139 0 -234 84q-94 84 -94 207zM274 279q0 -56 41 -91.5t105 -35.5q104 0 177 79q75 79 75 220q-202 0 -300 -41.5t-98 -130.5z
M907 1153h-184l184 281h289zM895 606h582q-15 117 -96 189q-80 73 -195 73q-98 0 -181 -67q-85 -66 -110 -195z" />
    <glyph glyph-name="circumflex" unicode="&#x2c6;" horiz-adv-x="802" 
d="M242 1153h-164l192 281h262l193 -281h-164l-160 152z" />
    <glyph glyph-name="caron" unicode="&#x2c7;" horiz-adv-x="802" 
d="M270 1153l-192 281h164l159 -152l160 152h164l-193 -281h-262z" />
    <glyph glyph-name="breve" unicode="&#x2d8;" horiz-adv-x="581" 
d="M49 1393h152q0 -47 24 -75t66 -28t66 28t24 75h151q0 -106 -67 -173q-66 -67 -174 -67t-175 67t-67 173z" />
    <glyph glyph-name="dotaccent" unicode="&#x2d9;" horiz-adv-x="462" 
d="M131 1219q-41 41 -41 100t41 100t100 41t100 -42q42 -40 42 -99q0 -58 -42 -100q-41 -41 -100 -41t-100 41z" />
    <glyph glyph-name="ring" unicode="&#x2da;" horiz-adv-x="995" 
d="M348 1174q-61 60 -61 147t61 147q62 60 150 60t150 -60q61 -60 61 -147t-61 -147q-62 -60 -150 -60t-150 60zM412 1405q-33 -35 -33 -84t33 -84q35 -35 86 -35q52 0 85 35t33 84t-33 84t-85 35q-51 0 -86 -35z" />
    <glyph glyph-name="ogonek" unicode="&#x2db;" horiz-adv-x="665" 
d="M131 -262q0 95 62 175q62 78 167 122l74 -35q-137 -126 -137 -238q0 -59 38 -95t99 -36q79 0 139 45l19 -6l-19 -129q-74 -33 -176 -33q-123 0 -194 64q-72 64 -72 166z" />
    <glyph glyph-name="tilde" unicode="&#x2dc;" horiz-adv-x="1071" 
d="M190 1163h-16l14 170q84 90 205 90q48 0 95 -16.5t77 -39.5q78 -56 140 -56q84 0 176 98h16l-14 -170q-84 -90 -205 -90q-94 0 -172 56q-73 57 -139 57q-84 0 -177 -99z" />
    <glyph glyph-name="hungarumlaut" unicode="&#x2dd;" horiz-adv-x="983" 
d="M258 1153h-184l184 281h289zM621 1153h-185l185 281h288z" />
    <glyph glyph-name="pi" unicode="&#x3c0;" horiz-adv-x="1214" 
d="M180 844h-157v168h1169v-168h-158v-844h-217v844h-420v-844h-217v844z" />
    <glyph glyph-name="uni2000" unicode="&#x2000;" horiz-adv-x="1067" 
 />
    <glyph glyph-name="uni2001" unicode="&#x2001;" horiz-adv-x="2134" 
 />
    <glyph glyph-name="uni2002" unicode="&#x2002;" horiz-adv-x="1067" 
 />
    <glyph glyph-name="uni2003" unicode="&#x2003;" horiz-adv-x="2134" 
 />
    <glyph glyph-name="uni2004" unicode="&#x2004;" horiz-adv-x="711" 
 />
    <glyph glyph-name="uni2005" unicode="&#x2005;" horiz-adv-x="533" 
 />
    <glyph glyph-name="uni2006" unicode="&#x2006;" horiz-adv-x="355" 
 />
    <glyph glyph-name="uni2007" unicode="&#x2007;" horiz-adv-x="355" 
 />
    <glyph glyph-name="uni2008" unicode="&#x2008;" horiz-adv-x="266" 
 />
    <glyph glyph-name="uni2009" unicode="&#x2009;" horiz-adv-x="426" 
 />
    <glyph glyph-name="uni200A" unicode="&#x200a;" horiz-adv-x="118" 
 />
    <glyph glyph-name="uni2010" unicode="&#x2010;" horiz-adv-x="815" 
d="M733 561h-651v176h651v-176z" />
    <glyph glyph-name="uni2011" unicode="&#x2011;" horiz-adv-x="815" 
d="M733 561h-651v176h651v-176z" />
    <glyph glyph-name="figuredash" unicode="&#x2012;" horiz-adv-x="815" 
d="M733 561h-651v176h651v-176z" />
    <glyph glyph-name="endash" unicode="&#x2013;" horiz-adv-x="1122" 
d="M1040 561h-958v176h958v-176z" />
    <glyph glyph-name="emdash" unicode="&#x2014;" horiz-adv-x="1798" 
d="M1716 561h-1634v176h1634v-176z" />
    <glyph glyph-name="quoteleft" unicode="&#x2018;" horiz-adv-x="438" 
d="M82 1096q0 207 217 358l39 -41q-58 -48 -85 -90.5t-30 -97.5q53 0 93 -40q40 -39 40 -91q0 -59 -38 -102q-37 -42 -95 -42q-61 0 -102 42q-39 44 -39 104z" />
    <glyph glyph-name="quoteright" unicode="&#x2019;" horiz-adv-x="438" 
d="M82 1311q0 60 38 101q38 42 95 42q62 0 101 -42q40 -41 40 -103q0 -208 -217 -359l-39 41q58 48 85 91t30 98q-53 0 -93 39q-40 40 -40 92z" />
    <glyph glyph-name="quotesinglbase" unicode="&#x201a;" horiz-adv-x="454" 
d="M90 131q0 60 38 101q38 42 95 42q61 0 102 -42q40 -41 40 -103q0 -206 -218 -358l-38 41q58 48 84.5 90.5t29.5 97.5q-53 0 -93 39q-40 40 -40 92z" />
    <glyph glyph-name="quotedblleft" unicode="&#x201c;" horiz-adv-x="780" 
d="M82 1096q0 207 217 358l39 -41q-58 -48 -85 -90.5t-30 -97.5q53 0 93 -40q40 -39 40 -91q0 -59 -38 -102q-37 -42 -95 -42q-61 0 -102 42q-39 44 -39 104zM424 1096q0 207 217 358l39 -41q-58 -48 -85 -90.5t-30 -97.5q53 0 93 -40q40 -39 40 -91q0 -59 -38 -102
q-38 -42 -95 -42q-61 0 -102 42q-39 43 -39 104z" />
    <glyph glyph-name="quotedblright" unicode="&#x201d;" horiz-adv-x="780" 
d="M82 1311q0 60 38 101q38 42 95 42q62 0 101 -42q40 -41 40 -103q0 -208 -217 -359l-39 41q58 48 85 91t30 98q-53 0 -93 39q-40 40 -40 92zM424 1311q0 60 38 101q38 42 95 42q62 0 101 -42q40 -41 40 -103q0 -208 -217 -359l-39 41q58 48 85 91t30 98q-53 0 -93 39
q-40 40 -40 92z" />
    <glyph glyph-name="quotedblbase" unicode="&#x201e;" horiz-adv-x="796" 
d="M90 131q0 60 38 101q38 42 95 42q61 0 102 -42q40 -41 40 -103q0 -206 -218 -358l-38 41q58 48 84.5 90.5t29.5 97.5q-53 0 -93 39q-40 40 -40 92zM432 131q0 60 38 101q38 42 95 42q61 0 102 -42q40 -41 40 -103q0 -206 -218 -358l-38 41q58 48 84.5 90.5t29.5 97.5
q-53 0 -93 39q-40 40 -40 92z" />
    <glyph glyph-name="dagger" unicode="&#x2020;" horiz-adv-x="778" 
d="M279 827h-246v185h246v422h217v-422h249v-185h-249v-1290h-217v1290z" />
    <glyph glyph-name="daggerdbl" unicode="&#x2021;" horiz-adv-x="778" 
d="M279 0h-246v184h246v643h-246v185h246v422h217v-422h249v-185h-249v-643h249v-184h-249v-463h-217v463z" />
    <glyph glyph-name="bullet" unicode="&#x2022;" horiz-adv-x="659" 
d="M189 596q-58 58 -58 141t58 141t141 58t140 -58q58 -58 58 -141t-58 -141q-57 -57 -140 -57q-82 0 -141 57z" />
    <glyph glyph-name="ellipsis" unicode="&#x2026;" horiz-adv-x="1359" 
d="M130 20q-40 40 -40 97t40 97t97 40t97 -40q41 -41 41 -97t-41 -97q-40 -40 -97 -40t-97 40zM583 20q-40 40 -40 97t40 97t97 40t97 -40t40 -97t-40 -97t-97 -40t-97 40zM1035 20q-40 40 -40 97t40 97t98 40q57 0 97 -40t40 -97t-40 -97t-97 -40q-58 0 -98 40z" />
    <glyph glyph-name="uni202F" unicode="&#x202f;" horiz-adv-x="426" 
 />
    <glyph glyph-name="perthousand" unicode="&#x2030;" horiz-adv-x="2039" 
d="M173 908q-97 94 -97 231t97 230t237 93q138 0 236 -93q97 -93 97 -230t-97 -231q-98 -93 -236 -93q-140 0 -237 93zM201 412l-60 114l961 498l59 -115zM287 1266q-51 -50 -51 -127t51 -127q50 -49 123 -49t123 49q51 50 51 127t-51 127q-50 49 -123 49t-123 -49zM664 64
q-97 94 -97 231t97 230q98 93 237 93t236 -93q98 -93 98 -230q0 -136 -98 -231q-97 -93 -236 -93t-237 93zM778 422q-51 -50 -51 -127t51 -127q50 -49 123 -49t123 49q51 50 51 127t-51 127q-50 49 -123 49t-123 -49zM1402 64q-97 94 -97 231t97 230q98 93 236 93t236 -93
t98 -230q0 -136 -98 -231q-98 -93 -236 -93t-236 93zM1515 422q-51 -50 -51 -127t51 -127q50 -49 123 -49t123 49q51 49 51 127q0 77 -51 127q-50 49 -123 49t-123 -49z" />
    <glyph glyph-name="guilsinglleft" unicode="&#x2039;" horiz-adv-x="655" 
d="M541 244l-475 407v119l475 408h32v-209l-301 -258l301 -258v-209h-32z" />
    <glyph glyph-name="guilsinglright" unicode="&#x203a;" horiz-adv-x="655" 
d="M115 244h-33v209l301 258l-301 258v209h33l475 -408v-119z" />
    <glyph glyph-name="fraction" unicode="&#x2044;" horiz-adv-x="1306" 
d="M203 412l-60 114l961 498l59 -115z" />
    <glyph glyph-name="uni205F" unicode="&#x205f;" horiz-adv-x="533" 
 />
    <glyph glyph-name="zerosuperior" unicode="&#x2070;" horiz-adv-x="729" 
d="M134 806q-87 105 -87 269t87 268q87 105 231 105q145 0 230 -105q87 -104 87 -268t-87 -269q-86 -104 -230 -104t-231 104zM239 1256q-46 -64 -46 -181q0 -118 46 -182t126 -64t126 64t46 182q0 117 -46 181q-47 65 -126 65t-126 -65z" />
    <glyph glyph-name="foursuperior" unicode="&#x2074;" horiz-adv-x="612" 
d="M346 868h-326v95l392 471h77v-441h97v-125h-97v-151h-143v151zM346 1182l-156 -189h156v189z" />
    <glyph glyph-name="fivesuperior" unicode="&#x2075;" horiz-adv-x="575" 
d="M78 735l-31 158h19q88 -64 190 -64q63 0 100 34.5t37 94.5t-37 94.5t-100 34.5q-87 0 -174 -51l-33 6l47 392h408v-123h-299l-23 -131q54 20 115 20q114 0 179 -64t65 -178q0 -116 -80 -187q-79 -69 -197 -69q-104 0 -186 33z" />
    <glyph glyph-name="sixsuperior" unicode="&#x2076;" horiz-adv-x="606" 
d="M41 1044q0 107 35 198q34 90 107 148t171 58q84 0 140 -39l14 -137h-19q-56 53 -137 53q-67 0 -111 -52t-51 -145q64 52 150 52q102 0 166 -66q65 -65 65 -166t-76 -174q-77 -72 -182 -72q-135 0 -207 101q-65 89 -65 241zM227 1031q-32 -35 -32 -87q0 -53 32 -88
q33 -35 86 -35t86 35q33 34 33 88q0 52 -33 87q-33 34 -86 34t-86 -34z" />
    <glyph glyph-name="sevensuperior" unicode="&#x2077;" horiz-adv-x="577" 
d="M362 1309h-327v125h522v-27l-342 -690h-154z" />
    <glyph glyph-name="eightsuperior" unicode="&#x2078;" horiz-adv-x="581" 
d="M41 924q0 122 109 182q-82 67 -82 151q0 79 62 135q64 56 161 56q98 0 160 -56q63 -56 63 -135q0 -84 -82 -151q109 -60 109 -182q0 -89 -70 -156q-71 -66 -180 -66t-180 66q-70 67 -70 156zM207 1020q-33 -33 -33 -84t33 -84q35 -33 84 -33q50 0 83 33q34 33 34 84
t-34 84q-33 33 -83 33q-49 0 -84 -33zM225 1312q-26 -25 -26 -63t26 -63t66 -25t65 25q27 25 27 63t-27 63q-25 25 -65 25t-66 -25z" />
    <glyph glyph-name="ninesuperior" unicode="&#x2079;" horiz-adv-x="606" 
d="M35 1202q0 101 76 173q76 73 182 73q137 0 207 -100q65 -89 65 -242q0 -106 -35 -199q-34 -89 -108 -148q-72 -57 -170 -57q-84 0 -139 39l-15 138h19q57 -54 137 -54q67 0 111 52t51 145q-63 -51 -150 -51q-96 0 -164 65q-67 66 -67 166zM207 1294q-33 -34 -33 -88
q0 -52 33 -87q33 -34 86 -34t86 34q33 35 33 87q0 54 -33 88q-33 35 -86 35t-86 -35z" />
    <glyph glyph-name="zeroinferior" unicode="&#x2080;" horiz-adv-x="729" 
d="M134 -372q-87 104 -87 268t87 268t231 104t230 -104q87 -103 87 -268q0 -164 -87 -268q-85 -105 -230 -105q-144 0 -231 105zM239 77q-46 -64 -46 -181t46 -181q47 -65 126 -65t126 65q46 64 46 181t-46 181t-126 64t-126 -64z" />
    <glyph glyph-name="oneinferior" unicode="&#x2081;" horiz-adv-x="266" 
d="M61 -463v649l97 68h47v-717h-144z" />
    <glyph glyph-name="twoinferior" unicode="&#x2082;" horiz-adv-x="587" 
d="M29 -463v25l276 336q66 81 66 151q0 43 -31 70.5t-82 27.5q-47 0 -90.5 -30.5t-75.5 -81.5h-33l9 151q85 82 211 82q111 0 175 -57t64 -152q0 -111 -112 -241l-132 -156h271v-125h-516z" />
    <glyph glyph-name="threeinferior" unicode="&#x2083;" horiz-adv-x="598" 
d="M299 129h-244v125h469v-18l-170 -218q91 -16 145 -76t54 -153q0 -127 -80 -196q-79 -70 -199 -70q-123 0 -202 49l-15 149h21q94 -73 186 -73q65 0 102 34.5t37 100.5q0 61 -38.5 97t-100.5 36q-48 0 -78 -10l-22 43z" />
    <glyph glyph-name="fourinferior" unicode="&#x2084;" horiz-adv-x="612" 
d="M20 -311v94l392 471h77v-440h97v-125h-97v-152h-143v152h-326zM346 2l-156 -188h156v188z" />
    <glyph glyph-name="fiveinferior" unicode="&#x2085;" horiz-adv-x="575" 
d="M78 -444l-31 157h19q88 -63 190 -63q63 0 100 34.5t37 94.5t-37 94.5t-100 34.5q-87 0 -174 -51l-33 6l47 391h408v-123h-299l-23 -131q54 20 115 20q114 0 179 -63.5t65 -177.5q0 -117 -80 -186q-79 -70 -197 -70q-104 0 -186 33z" />
    <glyph glyph-name="sixinferior" unicode="&#x2086;" horiz-adv-x="606" 
d="M41 -135q0 107 35 198q34 89 107 147t171 58q84 0 140 -39l14 -137h-19q-56 53 -137 53q-67 0 -111 -51.5t-51 -144.5q63 51 150 51q101 0 166 -65t65 -166t-76 -173q-76 -73 -182 -73q-137 0 -207 100q-65 89 -65 242zM227 -149q-32 -35 -32 -87t32 -87q33 -35 86 -35
t86 35t33 87t-33 87q-33 34 -86 34t-86 -34z" />
    <glyph glyph-name="seveninferior" unicode="&#x2087;" horiz-adv-x="577" 
d="M362 129h-327v125h522v-27l-342 -690h-154z" />
    <glyph glyph-name="eightinferior" unicode="&#x2088;" horiz-adv-x="581" 
d="M41 -256q0 122 109 182q-82 67 -82 152q0 79 62 135q62 55 161 55t160 -55q63 -55 63 -135q0 -85 -82 -152q109 -60 109 -182q0 -89 -70 -155q-71 -66 -180 -66t-180 66q-70 66 -70 155zM207 -160q-33 -33 -33 -84q0 -52 33 -83q35 -33 84 -33q50 0 83 33q34 31 34 83
q0 51 -34 84q-33 33 -83 33q-49 0 -84 -33zM225 133q-26 -25 -26 -63t26 -63t66 -25t65 25q27 25 27 63t-27 63q-25 25 -65 25t-66 -25z" />
    <glyph glyph-name="nineinferior" unicode="&#x2089;" horiz-adv-x="606" 
d="M35 23q0 101 76 173q77 72 182 72q137 0 207 -100q65 -89 65 -242q0 -107 -35 -198q-34 -90 -108 -147q-71 -58 -170 -58q-84 0 -139 39l-15 137h19q56 -53 137 -53q67 0 111 51.5t51 144.5q-63 -51 -150 -51q-96 0 -164 66q-67 66 -67 166zM207 115q-33 -35 -33 -88
t33 -87t86 -34t86 34t33 87t-33 88t-86 35t-86 -35z" />
    <glyph glyph-name="Euro" unicode="&#x20ac;" horiz-adv-x="1294" 
d="M176 492h-151l53 151h69q-2 34 -2 74t2 74h-122l53 151h98q64 229 241 374q178 146 429 146q204 0 332 -96l20 -231h-27q-79 65 -158.5 93.5t-181.5 28.5q-137 0 -250 -82q-114 -82 -163 -233h565l-53 -151h-543q-4 -41 -4 -74t4 -74h596l-53 -151h-512q49 -151 163 -235
q114 -81 250 -81q102 0 182 28.5t158 94.5h27l-20 -231q-128 -97 -332 -97q-125 0 -237.5 39.5t-197.5 111.5q-173 147 -235 370z" />
    <glyph glyph-name="trademark" unicode="&#x2122;" horiz-adv-x="1443" 
d="M221 1317h-180v117h500v-117h-181v-600h-139v600zM664 717h-138l197 717h39l203 -453l202 453h39l197 -717h-137l-103 395l-184 -395h-29l-184 395z" />
    <glyph glyph-name="Omega" unicode="&#x2126;" horiz-adv-x="1658" 
d="M111 791q0 189 93 342q92 153 257 241q164 88 368 88t368 -88q165 -87 258 -241q93 -153 93 -342q0 -171 -84 -334q-82 -163 -204 -252h266v-205h-590v160q153 92 257 235q118 163 118 375q0 225 -135 355q-133 132 -347 132q-213 0 -347 -132q-134 -131 -134 -355
q0 -212 118 -375q104 -143 257 -235v-160h-590v205h266q-121 88 -205 252q-83 164 -83 334z" />
    <glyph glyph-name="onethird" unicode="&#x2153;" horiz-adv-x="1073" 
d="M86 207l-59 115l960 497l60 -114zM410 717h-144v649l96 68h48v-717zM721 129h-244v125h469v-18l-170 -218q91 -16 145 -76t54 -153q0 -127 -80 -196q-79 -70 -199 -70q-123 0 -202 49l-15 149h21q94 -73 186 -73q65 0 102 34.5t37 100.5q0 61 -38.5 97t-100.5 36
q-48 0 -78 -10l-22 43z" />
    <glyph glyph-name="twothirds" unicode="&#x2154;" horiz-adv-x="1101" 
d="M543 717h-516v24l276 336q66 81 66 152q0 43 -31 70.5t-82 27.5q-47 0 -90.5 -31t-75.5 -82h-33l9 152q85 82 210 82q111 0 175.5 -57t64.5 -152q0 -108 -113 -242l-131 -155h271v-125zM115 207l-60 115l961 497l59 -114zM750 129h-244v125h469v-18l-170 -218
q91 -16 145 -76t54 -153q0 -127 -80 -196q-79 -70 -199 -70q-124 0 -203 49l-14 149h20q94 -73 187 -73q65 0 102 34.5t37 100.5q0 61 -38.5 97t-100.5 36q-48 0 -78 -10l-23 43z" />
    <glyph glyph-name="oneeighth" unicode="&#x215b;" horiz-adv-x="1073" 
d="M86 207l-59 115l960 497l60 -114zM410 717h-144v649l96 68h48v-717zM430 -256q0 122 109 182q-82 67 -82 152q0 79 62 135q62 55 161 55t160 -55q63 -55 63 -135q0 -85 -82 -152q109 -60 109 -182q0 -89 -70 -155t-180 -66t-180 66t-70 155zM596 -160q-33 -33 -33 -84
q0 -52 33 -83q34 -33 84 -33t83 33q34 31 34 83q0 51 -34 84q-33 33 -83 33t-84 -33zM614 133q-26 -25 -26 -63t26 -63t66 -25t65 25q27 25 27 63t-27 63q-25 25 -65 25t-66 -25z" />
    <glyph glyph-name="threeeighths" unicode="&#x215c;" horiz-adv-x="1073" 
d="M86 207l-59 115l960 497l60 -114zM311 1309h-243v125h469v-19l-170 -217q90 -16 144 -76t54 -153q0 -127 -79 -197t-199 -70q-121 0 -203 50l-14 149h20q95 -74 186 -74q65 0 102.5 35t37.5 101q0 62 -38.5 97.5t-101.5 35.5q-41 0 -77 -11l-23 43zM430 -256
q0 122 109 182q-82 67 -82 152q0 79 62 135q62 55 161 55t160 -55q63 -55 63 -135q0 -85 -82 -152q109 -60 109 -182q0 -89 -70 -155t-180 -66t-180 66t-70 155zM596 -160q-33 -33 -33 -84q0 -52 33 -83q34 -33 84 -33t83 33q34 31 34 83q0 51 -34 84q-33 33 -83 33t-84 -33
zM614 133q-26 -25 -26 -63t26 -63t66 -25t65 25q27 25 27 63t-27 63q-25 25 -65 25t-66 -25z" />
    <glyph glyph-name="fiveeighths" unicode="&#x215d;" horiz-adv-x="1073" 
d="M86 207l-59 115l960 497l60 -114zM78 735l-31 158h19q88 -64 190 -64q63 0 100 34.5t37 94.5t-37 94.5t-100 34.5q-87 0 -174 -51l-33 6l47 392h408v-123h-299l-23 -131q54 20 115 20q114 0 179 -64t65 -178q0 -116 -80 -187q-79 -69 -197 -69q-104 0 -186 33zM430 -256
q0 122 109 182q-82 67 -82 152q0 79 62 135q62 55 161 55t160 -55q63 -55 63 -135q0 -85 -82 -152q109 -60 109 -182q0 -89 -70 -155t-180 -66t-180 66t-70 155zM596 -160q-33 -33 -33 -84q0 -52 33 -83q34 -33 84 -33t83 33q34 31 34 83q0 51 -34 84q-33 33 -83 33t-84 -33
zM614 133q-26 -25 -26 -63t26 -63t66 -25t65 25q27 25 27 63t-27 63q-25 25 -65 25t-66 -25z" />
    <glyph glyph-name="seveneighths" unicode="&#x215e;" horiz-adv-x="1073" 
d="M86 207l-59 115l960 497l60 -114zM465 1309h-328v125h522v-27l-342 -690h-153zM430 -256q0 122 109 182q-82 67 -82 152q0 79 62 135q62 55 161 55t160 -55q63 -55 63 -135q0 -85 -82 -152q109 -60 109 -182q0 -89 -70 -155t-180 -66t-180 66t-70 155zM596 -160
q-33 -33 -33 -84q0 -52 33 -83q34 -33 84 -33t83 33q34 31 34 83q0 51 -34 84q-33 33 -83 33t-84 -33zM614 133q-26 -25 -26 -63t26 -63t66 -25t65 25q27 25 27 63t-27 63q-25 25 -65 25t-66 -25z" />
    <glyph glyph-name="partialdiff" unicode="&#x2202;" horiz-adv-x="1177" 
d="M78 455q0 136 65.5 245.5t173 168.5t232.5 59q175 0 285 -101q-7 94 -40.5 178t-86.5 142q-112 125 -250 125q-121 0 -224 -51l-20 12l47 201q116 28 213 28q124 0 227.5 -46.5t176.5 -127.5t124 -192t75 -238.5t24 -267.5q0 -285 -146 -452t-381 -167q-213 0 -354 141
q-141 142 -141 343zM315 455q0 -119 76 -199q77 -80 189 -80q114 0 193 81q79 80 79 198q0 117 -79 195q-79 79 -193 79t-190 -79q-75 -78 -75 -195z" />
    <glyph glyph-name="increment" unicode="&#x2206;" horiz-adv-x="1347" 
d="M1290 0h-1233v115l496 1319h242l495 -1319v-115zM674 1167l-361 -979h721z" />
    <glyph glyph-name="product" unicode="&#x220f;" horiz-adv-x="1273" 
d="M371 -463h-238v1897h1008v-1897h-238v1692h-532v-1692z" />
    <glyph glyph-name="summation" unicode="&#x2211;" horiz-adv-x="1208" 
d="M1137 0h-1065v72l452 686l-418 602v74h986v-205h-615l318 -471l-371 -553h713v-205z" />
    <glyph glyph-name="minus" unicode="&#x2212;" horiz-adv-x="999" 
d="M918 664h-836v176h836v-176z" />
    <glyph glyph-name="radical" unicode="&#x221a;" horiz-adv-x="1073" 
d="M219 594h-184v184h344l145 -471l295 1127h207l-387 -1434h-215z" />
    <glyph glyph-name="infinity" unicode="&#x221e;" horiz-adv-x="1167" 
d="M102 410q0 126 59.5 220.5t164.5 151.5q-168 118 -168 303q0 131 84 231q86 101 223 132v141h82v-129q37 5 74 0v129h81v-141q136 -31 223 -133q85 -100 85 -230q0 -185 -168 -303q105 -57 164 -151.5t59 -220.5q0 -89 -41 -176t-125 -156q-83 -70 -197 -94v-140h-81v129
q-37 -5 -74 0v-129h-82v140q-114 24 -199 94q-164 136 -164 332zM465 207v450q-61 -33 -97 -93t-36 -132t36 -132t97 -93zM465 911v328q-82 -55 -82 -164t82 -164zM547 684v-506q12 -2 37 -2t37 2v506q-37 6 -74 0zM547 1270v-391q12 -2 37 -2t37 2v391q-37 7 -74 0z
M702 657v-450q60 33 97 93.5t37 131.5q0 72 -36.5 132t-97.5 93zM702 1239v-328q82 58 82 164t-82 164z" />
    <glyph glyph-name="integral" unicode="&#x222b;" horiz-adv-x="811" 
d="M-285 -399l31 200h21q51 -57 118 -57q57 0 93.5 32t48.5 91l254 1278q31 157 126 237t226 80q105 0 178 -43l-31 -200h-20q-51 57 -119 57q-116 0 -141 -123l-254 -1278q-32 -157 -126 -237q-95 -80 -226 -80q-106 0 -179 43z" />
    <glyph glyph-name="approxequal" unicode="&#x2248;" horiz-adv-x="987" 
d="M111 416h-17l15 184q81 90 204 90q53 0 109 -18q58 -18 97 -40q108 -57 177 -57q91 0 181 93h16l-14 -185q-81 -90 -205 -90q-53 0 -110 18q-56 18 -96 39q-106 58 -177 58q-91 0 -180 -92zM111 723h-17l15 184q81 90 204 90q53 0 109 -18t97 -39q108 -57 177 -57
q92 0 181 92h16l-14 -184q-82 -91 -205 -91q-53 0 -110 18q-56 18 -96 39q-106 58 -177 58q-91 0 -180 -92z" />
    <glyph glyph-name="notequal" unicode="&#x2260;" horiz-adv-x="1024" 
d="M248 377h-154v176h248l147 274h-395v177h490l92 172h192l-92 -172h154v-177h-248l-147 -274h395v-176h-490l-92 -172h-192z" />
    <glyph glyph-name="lessequal" unicode="&#x2264;" horiz-adv-x="1024" 
d="M930 0h-836v176h836v-176zM813 356l-635 437v163l635 437h33v-205l-467 -314l467 -313v-205h-33z" />
    <glyph glyph-name="greaterequal" unicode="&#x2265;" horiz-adv-x="1024" 
d="M930 0h-836v176h836v-176zM211 356h-33v205l467 313l-467 314v205h33l635 -437v-163z" />
    <glyph glyph-name="lozenge" unicode="&#x25ca;" horiz-adv-x="1150" 
d="M453 0l-428 717l428 717h245l428 -717l-428 -717h-245zM575 1247l-313 -530l313 -531l314 531z" />
    <glyph glyph-name="uniE000" unicode="&#xe000;" horiz-adv-x="1013" 
d="M1014 0h-1014v1014h1014v-1014z" />
    <glyph glyph-name="apple" unicode="&#xf8ff;" horiz-adv-x="1597" 
d="M193 45v1219q0 33 32 45l553 159q17 5 21 5q3 0 20 -5l553 -159q33 -12 33 -45v-1219q0 -19 -12.5 -32t-32.5 -13q-4 0 -14 2l-547 158l-547 -158q-10 -2 -14 -2q-20 0 -32.5 13t-12.5 32zM281 948v-844l473 138v417q-149 12 -274 89q-126 77 -199 200zM754 1370
l-471 -137q12 -192 146 -329t325 -154v620zM844 659v-417l473 -138v844q-78 -125 -200 -200q-125 -77 -273 -89zM844 1370v-620q191 17 325 154t146 329z" />
    <glyph glyph-name="CR.001" horiz-adv-x="682" 
 />
    <glyph glyph-name="zero.tn" horiz-adv-x="1331" 
d="M117 334q-74 171 -74 383q0 215 75 383.5t216 264.5q142 97 332 97q189 0 331 -97q143 -98 216 -266q75 -168 75 -382q0 -213 -75 -383q-74 -169 -216 -266t-331 -97q-190 0 -332 97q-141 97 -217 266zM383 1114q-102 -142 -102 -397q0 -254 102 -398q104 -143 283 -143
q180 0 282 143q103 143 103 398t-103 397q-102 143 -282 143q-179 0 -283 -143z" />
    <glyph glyph-name="one.tn" horiz-adv-x="1331" 
d="M784 0h-237v1319l168 115h69v-1434z" />
    <glyph glyph-name="two.tn" horiz-adv-x="1331" 
d="M1149 0h-971v31l559 692q69 87 102 160q31 71 31 155q0 101 -70 164q-70 64 -169 64q-103 0 -201 -64q-100 -64 -160 -160h-24l14 261q72 74 175 116.5t210 42.5q210 0 331 -112q122 -113 122 -295q0 -114 -48 -222.5t-147 -228.5l-325 -399h571v-205z" />
    <glyph glyph-name="three.tn" horiz-adv-x="1331" 
d="M707 1229h-517v205h889v-31l-344 -447q176 -32 286 -142q118 -118 118 -325q0 -237 -147 -378q-148 -140 -388 -140q-207 0 -373 92l-26 254h22q174 -141 385 -141q128 0 213 78q86 80 86 219q0 145 -92 231q-91 87 -235 87q-68 0 -156 -21l-25 49z" />
    <glyph glyph-name="four.tn" horiz-adv-x="1331" 
d="M786 340h-647v115l815 979h70v-889h154v-205h-154v-340h-238v340zM786 956l-337 -411h337v411z" />
    <glyph glyph-name="five.tn" horiz-adv-x="1331" 
d="M244 41l-51 264h20q179 -129 387 -129q139 0 231 80q93 81 93 225q0 143 -89 223t-229 80q-172 0 -354 -116l-51 8l92 758h792v-205h-614l-49 -311q120 51 242 51q226 0 356 -130q131 -131 131 -358q2 -149 -70.5 -267.5t-196 -182t-272.5 -60.5q-112 0 -182 16
q-70 15 -186 54z" />
    <glyph glyph-name="six.tn" horiz-adv-x="1331" 
d="M147 647q0 128 23.5 246.5t73.5 222.5t122 180.5t174.5 121t225.5 44.5q155 0 262 -67l25 -228h-25q-69 50 -130 70t-132 20q-155 0 -259 -122q-102 -120 -122 -334q58 55 152 91q95 36 190 36q203 0 331 -131t128 -340q0 -94 -39.5 -183.5t-108.5 -156.5
q-68 -67 -162.5 -106.5t-195.5 -39.5q-251 0 -401 191q-63 80 -97.5 206t-34.5 279zM678 176q122 0 195 79q75 79 75 200q0 119 -75 199q-73 79 -195 79q-123 0 -199 -79t-76 -199q0 -121 76 -200t199 -79z" />
    <glyph glyph-name="seven.tn" horiz-adv-x="1331" 
d="M850 1233h-666v201h996v-31l-705 -1403h-250z" />
    <glyph glyph-name="eight.tn" horiz-adv-x="1331" 
d="M184 410q0 126 59.5 220.5t164.5 151.5q-168 118 -168 303q0 160 121 268q121 109 305 109t305 -109q121 -108 121 -268q0 -185 -168 -303q105 -57 164 -151.5t59 -220.5q0 -160 -123 -295q-60 -66 -154 -105t-204 -39q-91 0 -170 26.5t-135 70.5t-97 100.5t-60.5 118.5
t-19.5 123zM414 432q0 -109 75 -182q77 -74 177 -74t176 74q76 73 76 182q0 108 -75 182q-74 74 -177 74q-102 0 -178 -74q-74 -74 -74 -182zM465 1075q0 -87 58 -142q59 -56 143 -56t142 56q58 55 58 142t-57 143q-58 56 -143 56t-144 -56q-57 -56 -57 -143z" />
    <glyph glyph-name="nine.tn" horiz-adv-x="1331" 
d="M139 977q0 130 66 241q67 112 183 178q117 66 257 66q119 0 222 -47t169 -129q142 -181 142 -500q0 -128 -23.5 -246.5t-73.5 -222.5t-122 -180.5t-174.5 -121t-225.5 -44.5q-152 0 -262 68l-25 227h25q69 -50 130 -70t132 -20q158 0 260 119q103 118 121 338
q-58 -55 -153 -91t-189 -36q-202 0 -331 131q-128 131 -128 340zM377 979q0 -120 74 -200q75 -79 196 -79q122 0 198 79q77 80 77 200q0 119 -77 199q-76 79 -198 79q-121 0 -196 -79q-74 -80 -74 -199z" />
    </font>
</defs>
</svg>
