<?xml version="1.0" encoding="utf-8"?>
<!-- Generator: Adobe Illustrator 24.2.1, SVG Export Plug-In . SVG Version: 6.00 Build 0)  -->
<svg version="1.1" xmlns="http://www.w3.org/2000/svg" xmlns:xlink="http://www.w3.org/1999/xlink" x="0px" y="0px"
	 viewBox="0 0 800 800" style="enable-background:new 0 0 800 800;" xml:space="preserve">
<style type="text/css">
	.st0{fill:#0000fd;}
	.st1{fill-rule:evenodd;clip-rule:evenodd;fill:#0000fd;}
</style>
<g id="Rowse_Honey">
</g>
<g id="Absolut">
</g>
<g id="Hilton_Hotels">
</g>
<g id="M_x26_S">
</g>
<g id="RedBull">
</g>
<g id="YoSushi">
</g>
<g id="Pepsico">
</g>
<g id="Nivea">
</g>
<g id="Nike">
	<g>
		<path class="st0" d="M207.4,302.3c-2.8,5.6-5.8,11.2-8.4,17c-5.4,11.8-9.4,24-10.6,37c-1.6,17.2,2.2,32.7,15.7,44.7
			c7.8,6.9,17.1,10.2,27.2,11.5c17.2,2.2,34-0.4,50.7-4.8c49-13,97.9-26,146.9-39c52.1-13.8,104.2-27.7,156.3-41.6
			c27.7-7.4,55.4-14.7,83-22.1c0.5-0.1,1-0.2,1.5,0c-0.7,0.3-1.3,0.6-2,0.9c-83.2,35.6-166.4,71.3-249.7,106.9
			c-47,20.1-94.1,40.3-141.1,60.3c-17.9,7.6-36.2,14.1-55.4,17.8c-15.1,2.9-30.3,4.3-45.5,1.1c-20.3-4.3-35-15.7-42.4-35.4
			c-3.8-10.2-3.8-20.8-2.3-31.4c3.3-22.2,12.7-41.9,24.8-60.5c11.9-18.4,26.1-35,40.8-51.2c3.5-3.9,7-7.7,10.4-11.5
			C207.3,302.2,207.4,302.2,207.4,302.3z"/>
	</g>
</g>
<g id="Innocent">
</g>
<g id="Beefeater">
</g>
<g id="Lego">
</g>
<g id="Samsung">
</g>
<g id="LinkedIn">
</g>
</svg>
