<?xml version="1.0" encoding="utf-8"?>
<!-- Generator: Adobe Illustrator 24.2.1, SVG Export Plug-In . SVG Version: 6.00 Build 0)  -->
<svg version="1.1" xmlns="http://www.w3.org/2000/svg" xmlns:xlink="http://www.w3.org/1999/xlink" x="0px" y="0px"
	 viewBox="0 0 800 800" style="enable-background:new 0 0 800 800;" xml:space="preserve">
<style type="text/css">
	.st0{fill:#0000fd;}
	.st1{fill-rule:evenodd;clip-rule:evenodd;fill:#0000fd;}
</style>
<g id="Rowse_Honey">
</g>
<g id="Absolut">
</g>
<g id="Hilton_Hotels">
	<g>
		<path class="st0" d="M109.2,397.7v108.2h583.7V289.6H109.2V397.7z M683.3,397.7v98.6H119.4V299.1h563.9V397.7z"/>
		<path class="st0" d="M159.7,342.4c0,2.6,0.2,2.9,1.8,2.9c1,0,2.8,0.2,4,0.4l2.3,0.4v103l-2.3,0.5c-1.2,0.2-3.1,0.4-4,0.4
			c-1.6,0-1.8,0.3-1.8,3.3v3.3h38.9v-6.4l-3.7-0.5l-3.7-0.5l-0.1-21.4c0-11.8-0.1-22.3-0.2-23.5l-0.1-2h51.8v46.9l-4.5,0.5l-4.4,0.5
			l0.2,3l0.2,3H273l0.2-3.2c0.2-2.9,0.1-3.1-1.5-3.1c-1,0-2.9-0.2-4.1-0.4l-2.3-0.5v-103l2.3-0.4c1.2-0.2,3.1-0.4,4-0.4
			c1.5,0,1.8-0.4,1.8-2.9v-2.9h-39.6v5.6l4.4,0.5l4.4,0.5V390H241c-38,0.1-49.4,0-49.5-0.3c-0.1-0.2-0.2-10.2-0.2-22.1v-21.6
			l3.7-0.5l3.7-0.5v-5.6h-38.9L159.7,342.4z M303.5,341.1c-5.5,3.8-7.3,9.6-4.5,15c5.4,10.6,22.1,7,22.1-4.7c0-7.1-4.7-12-11.4-12
			C307,339.4,305.2,339.9,303.5,341.1z M343.8,341.9c0,2.4,0.1,2.5,3.7,2.9l3.7,0.5v104.8l-1.6,0.4c-1,0.1-2.5,0.4-3.5,0.5
			c-1.5,0.2-1.8,0.7-2.1,2.9l-0.2,2.7l18.4,0.1h18.4l-0.2-2.7c-0.2-2.3-0.5-2.8-2.1-3c-1-0.1-2.6-0.4-3.4-0.5l-1.7-0.4V339.4h-29.3
			V341.9z M419.7,350.8c-1.6,0.6-5.8,1.9-9.3,2.9l-6.5,1.9v17.5l-7.8,0.2l-7.9,0.2v6.6l7.5,0.4l7.5,0.4l0.3,31.2
			c0.3,32.5,0.4,34.2,3.7,38.9c4.9,7.3,21,8.5,39.6,2.9c4.9-1.5,4.9-1.5,4.9-4.3v-2.7l-8.9,0.2c-10.6,0.2-13.2-0.7-15.6-5.4
			c-1.4-2.7-1.5-4.3-1.5-31.8v-29l9.8-0.2l9.7-0.2v-7.2l-9.7-0.2l-9.8-0.2l-0.2-11.6C425.1,348.3,425.4,348.9,419.7,350.8
			L419.7,350.8z M490.8,371.4c-7.4,1.6-13.1,3.7-17.6,6.9c-11.2,7.8-17.1,19.4-17.8,35.2c-1,24.1,8.2,38.6,27.7,43.8
			c6.7,1.8,23.5,1.8,30-0.1c14.1-3.9,24-12.8,28.5-25.7c1.5-4.1,1.9-7,2.2-14.2c0.6-15.7-2.9-26.2-11.5-34.7
			c-8.6-8.5-17.6-11.8-31.9-11.7C496,371.1,491.6,371.3,490.8,371.4L490.8,371.4z M504.9,377.9c2.6,0.8,4.5,2.1,6.7,4.4
			c6.1,6.6,8.4,15.9,8.4,32.6c0,26.3-6.6,37.8-21.3,37.5c-12.7-0.3-19.4-13.1-19.4-37.2c-0.1-16.6,2.4-26.5,8.1-32.7
			C492.5,377.1,497.6,375.7,504.9,377.9L504.9,377.9z M601.8,373.1c-4.8,1.5-9.5,4.2-15,8.2c-2.1,1.6-4,2.9-4.3,2.9
			s-0.4-2.5-0.4-5.5v-5.5h-29.3v5.6l3.7,0.5l3.7,0.5V450l-1.6,0.4c-1,0.2-2.6,0.4-3.7,0.4c-1.9,0-2.1,0.2-2.1,2.9v2.9l18.6-0.1
			l18.5-0.2v-2.6c0-2.5-0.1-2.6-3.8-3.2l-3.9-0.7v-59.9l6.5-3.2c5.6-2.8,7-3.2,11.6-3.2c4.4,0,5.6,0.3,8.1,2c6.1,4,6.7,7.6,6.8,39.2
			v25l-3.8,0.7c-3.8,0.6-3.9,0.7-3.9,3.2v2.6l18,0.2c19.7,0.2,19.6,0.2,18.6-3.9c-0.4-1.4-1.1-1.8-4-2.2l-3.6-0.5v-28.4
			c0-18.5-0.3-29.9-0.8-32.6c-1.7-8.2-7.3-14.7-14.4-16.5C616.4,371.3,606.5,371.6,601.8,373.1L601.8,373.1z M291,375.7
			c0,2.5,0.1,2.6,3.7,3.2l3.7,0.6v35.1c-0.1,19.4-0.2,35.3-0.4,35.5c-0.2,0.1-1.9,0.5-3.7,0.7c-3.4,0.4-3.4,0.4-3.2,3l0.2,2.6h35.9
			l0.2-2.6l0.2-2.6l-3.7-0.5l-3.7-0.5v-76.9H291L291,375.7z"/>
	</g>
</g>
<g id="M_x26_S">
</g>
<g id="RedBull">
</g>
<g id="YoSushi">
</g>
<g id="Pepsico">
</g>
<g id="Nivea">
</g>
<g id="Nike">
</g>
<g id="Innocent">
</g>
<g id="Beefeater">
</g>
<g id="Lego">
</g>
<g id="Samsung">
</g>
<g id="LinkedIn">
</g>
</svg>
