<?xml version="1.0" encoding="utf-8"?>
<!-- Generator: Adobe Illustrator 24.2.1, SVG Export Plug-In . SVG Version: 6.00 Build 0)  -->
<svg version="1.1" xmlns="http://www.w3.org/2000/svg" xmlns:xlink="http://www.w3.org/1999/xlink" x="0px" y="0px"
	 viewBox="0 0 800 800" style="enable-background:new 0 0 800 800;" xml:space="preserve">
<style type="text/css">
	.st0{fill:#0000fd;}
	.st1{fill-rule:evenodd;clip-rule:evenodd;fill:#0000fd;}
</style>
<g id="Rowse_Honey">
</g>
<g id="Absolut">
</g>
<g id="Hilton_Hotels">
</g>
<g id="M_x26_S">
</g>
<g id="RedBull">
</g>
<g id="YoSushi">
</g>
<g id="Pepsico">
	<g>
		<path class="st1" d="M244.9,398.2h14.8c5.8,0,7.9,2,7.9,6.9c0,4.7-2.2,6.7-7.9,6.7h-14.8V398.2z M222.1,447.4h22.9v-20h24.5
			c16.2,0,22-9.5,22-21.9c0-14.3-6-22.4-22.2-22.4h-47.2V447.4z M299,383.1h61.5v15.7h-38.7v8.7h35.9v15.7h-35.9v8.6h38.7v15.7H299
			V383.1z M392.9,398.2h14.7c5.8,0,7.9,2,7.9,6.9c0,4.7-2.2,6.7-7.9,6.7h-14.7V398.2z M370,447.4h22.9v-20h24.5
			c16.2,0,22-9.5,22-21.9c0-14.3-6-22.4-22.2-22.4H370V447.4z M461.5,420.1c-11.2-1.9-15.8-9.1-15.8-18.1
			c0-16.7,14.7-21.2,33.5-21.2c25.8,0,36.4,7.5,37.2,21.1h-26.6c0-2.6-1.4-4.2-3.5-5.1c-2-1-4.6-1.3-7.1-1.3c-6.8,0-9.2,1.9-9.2,4.6
			c0,1.8,0.7,3,3,3.3l27.3,4.5c11.5,1.9,18.6,7.8,18.6,18.7c0,15.7-11.5,23.1-37.2,23.1c-17.6,0-36.8-2.7-36.9-21.6h27.6
			c0.1,2.2,0.8,3.6,2.4,4.6c1.7,0.9,4.2,1.4,7.8,1.4c7.1,0,9.1-2.2,9.1-5.2c0-1.9-1.1-3.8-4.1-4.3L461.5,420.1z M526.4,383.1h22.9
			v64.3h-22.9V383.1z M634,422.3c-1.5,8.5-4.1,15.3-9.7,20c-5.6,4.7-14.3,7.3-28.3,7.3c-13.9,0-39.5-1.1-39.5-34.4
			c0-33.3,25.7-34.4,39.5-34.4c13.8,0,35,2,38,27.5h-25.8c-0.6-4.6-3.4-11.3-12.2-11.3c-9.3,0-15.2,5.1-15.2,18.2
			c0,13.1,5.8,18.2,14.1,18.2c7.2,0,11.5-3.3,13.4-11.1L634,422.3L634,422.3z M663.9,415.2c0-13.1,5.9-18.2,15.2-18.2
			c9.3,0,15.2,5.1,15.2,18.2c0,13.1-5.9,18.2-15.2,18.2C669.8,433.4,663.9,428.3,663.9,415.2L663.9,415.2z M639.6,415.2
			c0,33.3,25.7,34.4,39.6,34.4c13.9,0,39.5-1.1,39.5-34.4c0-33.3-25.7-34.4-39.5-34.4C665.3,380.8,639.6,381.9,639.6,415.2
			L639.6,415.2z M187.5,383.7c1.5-30.9-25.1-65.6-61.4-69.9l0.1-0.4c35.8,0,63.2,33.1,63.2,59.2c0,5.4-0.5,8.8-1.2,11.3L187.5,383.7
			z M185.4,387.6c-2.4,2.9-5.4,5.8-8.9,8.6c-6.5-37.1-33.7-69.6-53-79l-0.4,0.3c19.4,15.9,42.5,46.8,51.5,80.2
			c-4.6,3.4-9.5,6.2-14.8,8.5c-18.3-20.9-35.3-61.1-40.8-86.6l-0.6,0.2c0.1,24.8,17.7,66.9,39.2,87.4c-4.9,1.9-10,3.4-15.3,4.2
			c-20.6-8.1-35.2-34.2-35.2-61c0-17.5,5.3-28.2,6.4-30.5l-0.4-0.2c-1.2,1.9-9,12.7-9,31.5c0,30.2,14.9,53.3,34.7,60.6
			c-7.1,0.8-14.2,0.4-21.2-1l-0.1,0.5c2.1,0.8,9.3,3.8,20.3,3.8c24.8,0,41.5-15.4,48.3-27.1L185.4,387.6z"/>
		<path class="st1" d="M135.1,302.5c-18.8,0-40.8,13.6-40.8,25.9c0,4.8,4.4,8.8,13.5,8.8c21.1,0,40.6-14.5,40.6-25.7
			C148.4,305.6,142.7,302.5,135.1,302.5z M142.6,311.2c0,9.5-18.2,21.1-33.4,21.1c-6.7,0-10.4-2.6-10.4-7c0-9.6,18.4-21,32.7-21
			C140.8,304.2,142.6,309,142.6,311.2z"/>
		<path class="st1" d="M86.8,334.1c-0.5,0.9-2.6,5.1-2.6,9.3c0,7.9,7.9,15.2,22.6,15.2c28.1,0,60.6-20.7,60.6-39.9
			c0-8.6-8.2-13.3-13.8-14.3l-0.1,0.3c1.8,0.6,8.2,3.6,8.2,11.2c0,15.3-28.7,36.2-57.3,36.2c-10.9,0-17.8-5.4-17.8-13.3
			c0-2.5,0.5-4.1,0.7-4.6L86.8,334.1z"/>
		<path class="st1" d="M179,320.1c0.8,0.6,5.4,4.4,5.4,11.7c0,24.9-39,49.4-73.5,49.4c-20.6,0-29.9-10.2-29.5-19.2h0.4
			c0.8,4.7,7.5,13.1,25.5,13.1c34.5,0,73.1-25.3,73.1-47.5c0-3.8-1-6.2-1.6-7.2L179,320.1z"/>
		<path class="st1" d="M192,343.4c0.2,0.5,1,2.9,1,6.6c0,27.7-39.5,51.4-73.8,51.4c-17.7,0-26.9-8.6-28.8-12.1l0.3-0.2
			c4.9,4.3,14.5,7.5,25.8,7.5c30.3,0,75.6-23.1,75.2-53.2L192,343.4z"/>
	</g>
</g>
<g id="Nivea">
</g>
<g id="Nike">
</g>
<g id="Innocent">
</g>
<g id="Beefeater">
</g>
<g id="Lego">
</g>
<g id="Samsung">
</g>
<g id="LinkedIn">
</g>
</svg>
