<?xml version="1.0" encoding="utf-8"?>
<!-- Generator: Adobe Illustrator 24.2.1, SVG Export Plug-In . SVG Version: 6.00 Build 0)  -->
<svg version="1.1" xmlns="http://www.w3.org/2000/svg" xmlns:xlink="http://www.w3.org/1999/xlink" x="0px" y="0px"
	 viewBox="0 0 800 800" style="enable-background:new 0 0 800 800;" xml:space="preserve">
<style type="text/css">
	.st0{fill:#0000fd;}
	.st1{fill-rule:evenodd;clip-rule:evenodd;fill:#0000fd;}
</style>
<g id="Rowse_Honey">
</g>
<g id="Absolut">
</g>
<g id="Hilton_Hotels">
</g>
<g id="M_x26_S">
</g>
<g id="RedBull">
</g>
<g id="YoSushi">
</g>
<g id="Pepsico">
</g>
<g id="Nivea">
</g>
<g id="Nike">
</g>
<g id="Innocent">
</g>
<g id="Beefeater">
</g>
<g id="Lego">
</g>
<g id="Samsung">
</g>
<g id="LinkedIn">
	<g>
		<g>
			<g>
				<g>
					<g>
						<polygon class="st0" points="108.6,351.4 131.4,351.4 131.4,434.4 173.5,434.4 173.5,455.4 108.6,455.4 						"/>
						<g>
							<path class="st0" d="M183.6,384.9h21.9v70.5h-21.9V384.9z M194.5,349.8c7,0,12.7,5.7,12.7,12.7c0,7-5.7,12.7-12.7,12.7
								c-7,0-12.7-5.7-12.7-12.7C181.8,355.5,187.5,349.8,194.5,349.8"/>
						</g>
						<polygon class="st0" points="297,351.4 318.9,351.4 318.9,413.5 343.7,384.8 370.6,384.8 341.8,417.5 370,455.4 342.4,455.4 
							319.2,420.6 318.9,420.6 318.9,455.4 297,455.4 						"/>
						<path class="st0" d="M217.6,384.9h21v9.6h0.3c2.9-5.5,10.1-11.4,20.7-11.4c22.2,0,26.3,14.6,26.3,33.6v38.7H264v-34.3
							c0-8.2-0.2-18.7-11.4-18.7c-11.4,0-13.1,8.9-13.1,18.1v34.9h-21.9V384.9z"/>
						<path class="st0" d="M416.7,411.9c0.1-7.3-5.5-13.4-13.4-13.4c-9.6,0-14.9,6.6-15.5,13.4H416.7z M435.2,443.2
							c-7,8.9-18.5,14-29.9,14c-21.9,0-39.4-14.6-39.4-37.2c0-22.6,17.5-37.2,39.4-37.2c20.5,0,33.3,14.6,33.3,37.2v6.9h-50.8
							c1.7,8.3,8,13.7,16.5,13.7c7.2,0,12-3.7,15.6-8.6L435.2,443.2z"/>
						<path class="st0" d="M484.2,401.9c-10.9,0-17.5,7.3-17.5,18c0,10.7,6.6,18,17.5,18c11,0,17.5-7.3,17.5-18
							C501.7,409.2,495.1,401.9,484.2,401.9 M521.8,455.4h-20.2V446h-0.3c-3.4,5.1-11.8,11.1-21.8,11.1c-21,0-34.9-15.2-34.9-36.6
							c0-19.7,12.3-37.8,32.4-37.8c9.1,0,17.5,2.5,22.5,9.3h0.3v-40.6h21.9V455.4z"/>
					</g>
					<path class="st0" d="M680.5,329.5H554.6c-6,0-10.9,4.8-10.9,10.6v126.4c0,5.9,4.9,10.7,10.9,10.7h125.9c6,0,10.9-4.8,10.9-10.7
						V340.2C691.4,334.3,686.5,329.5,680.5,329.5z M587.5,455.4h-21.9v-70.5h21.9V455.4z M576.6,375.3c-7,0-12.7-5.7-12.7-12.7
						c0-7,5.7-12.7,12.7-12.7c7,0,12.7,5.7,12.7,12.7C589.3,369.6,583.6,375.3,576.6,375.3z M669.6,455.4h-21.9v-34.3
						c0-8.2-0.2-18.7-11.4-18.7c-11.4,0-13.1,8.9-13.1,18.1v34.9h-21.9v-70.5h21v9.6h0.3c2.9-5.5,10.1-11.4,20.7-11.4
						c22.2,0,26.3,14.6,26.3,33.6V455.4z"/>
				</g>
			</g>
		</g>
	</g>
</g>
</svg>
