<?xml version="1.0" encoding="utf-8"?>
<!-- Generator: Adobe Illustrator 24.2.1, SVG Export Plug-In . SVG Version: 6.00 Build 0)  -->
<svg version="1.1" xmlns="http://www.w3.org/2000/svg" xmlns:xlink="http://www.w3.org/1999/xlink" x="0px" y="0px"
	 viewBox="0 0 800 800" style="enable-background:new 0 0 800 800;" xml:space="preserve">
<style type="text/css">
	.st0{fill:#0000fd;}
	.st1{fill-rule:evenodd;clip-rule:evenodd;fill:#0000fd;}
</style>
<g id="Rowse_Honey">
</g>
<g id="Absolut">
</g>
<g id="Hilton_Hotels">
</g>
<g id="M_x26_S">
</g>
<g id="RedBull">
	<path class="st0" d="M368.1,325.2c0,0-4.4-5.3-5.3-6.9c0,0-1.9-2.3-3.8,0.7c0,0-0.3,0.9-0.6,1.6c-1,1.9-1.9,3.9-2.9,5.8
		c0,0-0.5,0.8-0.5,1.5c0,0,2,0.5,4.1-3.5c0,0,0.8-1.4,1.4-1.3c0,0,0.3,0,0.8,0.8c0,0,2.9,3.1,3.6,3.7c2,1.5,1.8,5.8,1.7,7.8
		c0,0,3.6-0.6,2.6-7.8C369.2,327.6,369.1,326.4,368.1,325.2z"/>
	<path class="st0" d="M356.6,349c0,0-2.1,1.1-2.6,3.7c-0.1,0.9,0.1,1.2,1,1.3c0,0,2.8-0.1,3.5-0.3c0,0,3.3-0.5,2.6-4.7
		C361,349,360.5,346.7,356.6,349z"/>
	<path class="st0" d="M439.9,323.2c0.6-0.1,1.4,1.3,1.4,1.3c2,4,4.1,3.5,4.1,3.5c0-0.7-0.5-1.5-0.5-1.5c-1-1.9-2-3.8-2.9-5.8
		c-0.2-0.5-0.4-1.1-0.6-1.6c-2-3.1-3.8-0.7-3.8-0.7c-0.8,1.6-5.3,6.9-5.3,6.9c-0.6,0.7-1,1.5-1.1,2.4c-1,7.2,2.6,7.8,2.6,7.8
		c-0.1-1.9-0.2-6.2,1.7-7.8c0.7-0.6,3.6-3.7,3.6-3.7C439.6,323.2,439.9,323.2,439.9,323.2z"/>
	<path class="st0" d="M622.7,369.1c-0.2-0.5-0.2-1-0.2-1.6c0-3.7-2.2-6.4-3.7-7.3c-1.6-0.8-2.6-1.6-3-2.9c-0.4-1.2-1.2-2.3-2.7-3.1
		c-1.5-0.8-3.5-2.3-5.2-2.9c-1.6-0.6-3.9-1.3-5.2,0c-0.7,0.7-1.5,1.4-2.3,2.1c-1,0.9-1.9,1.6-1.9,1.6c-1.8-1.4-2.2-2.9-2.8-4.9
		c-0.3-1-0.5-2.1-1-3.4c-1.7-4.8-5.8-3.5-8.5-3.3l0,0l-0.3,0c0,0-1.4,0.1-1.5,0.1c-0.1,0-0.5-0.2-0.5-0.2l-0.7-0.3
		c0,0-4.3-2.5-4.3-2.5c0-0.1,0-0.1,0-0.3c0-0.3,0.1-0.9,0.7-1.9c1.9-3,3.3-8.8,3.5-13.7c1,0.1,2,0.2,3.1,0.3
		c9.8,0.6,15.6-2,19.1-5.2c0.2-0.2,0.5-0.4,0.7-0.7c1.6-1.7,2.8-3.7,3.6-5.8c0.7-2.1,1.7-4.7,1.7-6.9c-0.1-9.9-5.9-17.3-12.1-20.7
		c-2.8-1.5-3.9-2.6-4.3-3.2c0.2-0.1,0.5-0.2,0.6-0.2c8.5,0,12.9-3.3,15-6.1c2-2.6,3.1-6,3.1-9.7c0-1.8-0.3-3.7-0.8-5.6
		c-2.4-4-4.6-2.9-6.1-0.8c-0.9,1.3-6.9,5.6-14.5,6.3c-5.4,0.5-8.4,3.2-9.9,5.3c-1.7,2.5-2.4,5.4-2.4,8c0,1,0.1,2,0.3,2.9
		c0.8,3.3,4.4,6.3,9.2,10.2l2.3,1.9l0.5,0.4c4,3.6,6.3,7.5,6.3,10.9c0,0.4,0,0.8-0.1,1.2c-0.1,0.8-0.4,1.5-0.8,2.1
		c-1.8,3.1-6.9,5-14.4,2.4c-3.4-1.2-10.1-5.4-14.1-9.4c-4.7-4.7-11.1-5.9-17.2-6.4c-5.3-0.4-8.5-1.7-10.8-4.3
		c-6.8-7.7-13.3-8.7-19.5-9.2c-2.4-0.2-2.5-0.3-2.8-0.8c-4.2-5.6-8.6-8-12.2-9.1c-1.5-0.5-2.8-0.8-4-1l-2.2-0.5l-0.5-0.2
		c-1-0.3-2-0.7-3.1-1.1c-2.4-0.9-5.1-2.4-9.9-5.6l-0.3-0.2v0l-0.3-0.2l0,0l-0.3-0.2l0,0l-0.3-0.2l0,0l-0.3-0.1l0,0
		c-0.4-0.2-0.9-0.4-1.3-0.6l0,0l-0.3-0.1l0,0l-0.3-0.1l0,0l-0.3-0.1l-0.3-0.1l0,0l-0.3-0.1l0,0l-0.2-0.1l0,0l-0.3-0.1l0,0l-0.2-0.1
		l0,0l-0.2-0.1l0,0l-0.2-0.1l0,0l-0.2-0.1c-0.6-0.1-1.1-0.2-1.7-0.3l0,0l-0.2,0l0,0l-0.2,0l0,0l-0.2,0l-0.1,0l-0.2,0l-0.1,0l-0.2,0
		l-0.3,0h-0.1l-0.2,0h-0.1l-0.2,0l-0.1,0l-0.2,0l-0.1,0l-0.2,0l-0.1,0l-0.1,0l-0.2,0l-0.2,0l-0.1,0c-2.3,0.2-4.6,0.7-6.7,1.4
		c-14.6-19.4-37.3-32.4-63.1-33.9c-0.4,0-0.9,0-1.3-0.1h0c-0.4,0-0.9,0-1.3,0c-0.9,0-1.7,0-2.6,0c-1.3,0-2.6,0-3.9,0.1v0
		c-26.6,1.2-50,14.6-64.9,34.7l-0.3-0.1l-0.2-0.1c-0.7-0.3-1.5-0.6-2.3-0.8l-0.1,0l-0.2-0.1c-0.4-0.1-0.8-0.2-1.2-0.3l-0.1,0
		l-0.3-0.1c-0.4-0.1-0.8-0.2-1.2-0.3l0,0l-0.3,0l0,0l-0.3,0l0,0l-0.3,0l0,0l-0.3,0l0,0l-0.3,0l0,0l-0.3,0l0,0l-0.3,0l0,0l-0.3,0l0,0
		l-0.3,0l0,0l-0.3,0c-0.2,0-0.4,0-0.6,0h0l0,0l-0.3,0h-0.4l-0.3,0h0l-0.3,0l-0.3,0l0,0l-0.3,0l0,0l-0.3,0l0,0l-0.3,0l0,0l-0.3,0l0,0
		l-0.3,0l0,0l-0.3,0l0,0l-0.3,0l0,0l-0.3,0.1l0,0l-0.3,0.1l0,0l-0.3,0.1l0,0l-0.3,0.1l0,0l-0.3,0.1l0,0l-0.3,0.1l0,0l-0.3,0.1l0,0
		l-0.3,0.1l-0.3,0.1l0,0l-0.3,0.1l0,0l-0.3,0.1l0,0l-0.3,0.1l0,0l-0.3,0.1l0,0l-0.3,0.1l0,0l-0.3,0.2l0,0l-0.3,0.2l0,0l-0.3,0.2l0,0
		l-0.3,0.2l0,0l-0.3,0.2l0,0l-0.3,0.2c-6.9,4.7-9.6,5.6-13,6.7l-0.5,0.2l-2.2,0.5c-1.8,0.4-3.9,0.9-6.3,1.9
		c-3.1,1.4-6.6,3.8-9.9,8.3c-0.3,0.4-0.4,0.6-2.8,0.8c-6.1,0.5-12.7,1.5-19.4,9.2c-2.3,2.6-5.6,3.9-10.9,4.3
		c-6.1,0.5-12.5,1.6-17.2,6.4c-4,4-10.7,8.2-14.1,9.4c-7.4,2.6-12.6,0.7-14.4-2.4c-0.2-0.3-0.3-0.6-0.4-0.9
		c-0.3-0.8-0.4-1.6-0.4-2.4c0-3.4,2.2-7.3,6.3-10.9l2.8-2.3c4.9-3.8,8.4-6.8,9.2-10.2c0.2-0.9,0.3-1.8,0.3-2.9c0-2.5-0.7-5.5-2.4-8
		c-1.5-2.1-4.5-4.8-9.9-5.3c-7.5-0.7-13.6-5-14.5-6.3c-1.4-2-3.7-3.1-6.1,0.8c-0.5,1.9-0.8,3.8-0.8,5.6c0,3.7,1,7.1,3.1,9.7
		c2.1,2.8,6.5,6.1,15,6.1c0.2,0,0.4,0.1,0.7,0.2c-0.4,0.5-1.5,1.6-4.3,3.2c-6.2,3.4-12,10.8-12.1,20.7c0,2.2,0.9,4.8,1.6,6.9
		c0.9,2.5,2.4,4.7,4.3,6.5h0c3.6,3.4,9.8,6,20.2,5.2c0.7-0.1,1.3-0.1,2-0.2c0.2,4.9,1.6,10.8,3.5,13.7c0.6,0.9,0.7,1.5,0.7,1.9
		c0,0.1,0,0.2,0,0.3c0,0-4.3,2.5-4.3,2.5l-0.7,0.3c0,0-0.4,0.2-0.5,0.2c0,0-1.5-0.1-1.5-0.1l-0.3,0c-2.7-0.3-6.7-1.6-8.5,3.3
		c-1.4,3.9-1.1,6.3-3.8,8.3c0,0-2.9-2.5-4.1-3.7c-1.2-1.3-3.5-0.6-5.2,0c-1.7,0.6-3.7,2.1-5.2,2.9c-1.5,0.8-2.3,1.9-2.7,3.1
		c-0.4,1.2-1.5,2.1-3,2.9c-1.5,0.9-3.6,3.6-3.6,7.3c0,0.9-0.2,1.6-0.7,2.7c-2.1,4.2-0.4,6.4,0.8,7.3c1.6,1.2,4.5,1.7,7.3,1.3l0,0.7
		l4-0.5c1.5-0.2,3.5,0.2,4.7,0.5l0.3,0.1c2.9,0.6,6.8-0.5,8.8-4.1c1-1.9,2.7-3.6,3.5-4c2.4,0.7,7.7,1.8,13.1-3.5
		c3.5-3.5,8.1-4.2,11-3.8l1.7,0.3c3.6,0.6,8,1.5,12.1-1c1-0.6,2.5-1.3,3.9-1.9c3.7-1.6,7.6-3.3,8.1-6.8c0.1-0.6,0.8-1.8,1.3-2.7
		c1-1.6,2.1-3.5,2.2-5.5c1.6,0.4,3.4,0.5,5,0.3l1.6-0.3c2.7-0.5,8.5-1.4,10.3-0.7c3.6,1.3,15,1.9,18.1,1.2c0,0,1.1-0.3,2.2-0.5
		c1.1,1.1,2.2,2.1,3.4,3c-2.3,0.1-4.3-0.2-5.7,0.2l-2.9,0.8c-0.9-0.3-3.2-0.2-4.4-0.1l-3.4,0.3l-3.8,0.4c-1.8,0.4-3.8,1.2-3.5,4.8
		c0.1,1.1,0.8,2.7,1.7,3.6c0.5,0.6,2.5,3.5,3,4.4l0.1,0.3c0.8,1.7,2,3.2,5.3,3.2c0.4,0,0.9,0,1.3,0.1c0.1,0.3,0.4,0.8,0.4,0.8
		c0.8,1.7,1.9,4.1,4,5.5l0.6,0.4c1.7,1.2,4.5,3.2,8.8,1.6l1.5-0.5c3.8-1.3,9.4-3.4,12.3-4.9l0.4-0.2c2.6-1.5,3.2-1.7,4.2-1.6
		l0.5,0.1c2.1,0.3,5.9,0.8,8.5-3.6l1.5-2.2c11.1,16,27.4,28.1,46.6,33.7l0.2,0.1c0.6,0.2,1.3,0.4,1.9,0.5l0.6,0.1l1.1,0.3l0.2,0
		c0.7,0.2,1.4,0.3,2.1,0.5l0.5,0.1l1,0.2c0.5,0.1,0.9,0.2,1.4,0.3l0.6,0.1l1.2,0.2l0.7,0.1c0.5,0.1,1.1,0.2,1.7,0.2l0.6,0.1l1.1,0.1
		l0.8,0.1c0.5,0,1.1,0.1,1.6,0.1l0.6,0c0.5,0,0.9,0.1,1.4,0.1l0.7,0c0.5,0,1.1,0,1.6,0.1l0.5,0c1.2,0,2.4,0,3.6,0l0.6,0
		c0.6,0,1.1,0,1.7-0.1l0.5,0c0.5,0,1-0.1,1.4-0.1l0.5,0c0.5,0,1.1-0.1,1.6-0.1l0.8-0.1l1.2-0.1l0.7-0.1c0.4-0.1,0.8-0.1,1.2-0.2
		l1-0.2l0.3,0c0.8-0.1,1.5-0.2,2.2-0.4l0.1,0c21.9-4,40.8-16.4,53.5-33.7l0.2,0.4c2.7,4.4,6.5,3.9,8.5,3.6l0.5-0.1
		c1-0.1,1.6,0.2,4.2,1.6l0.4,0.2c2.9,1.6,8.5,3.6,12.3,4.9l1.5,0.5c4.3,1.6,7.1-0.4,8.8-1.6l0.6-0.4c2.1-1.4,3.2-3.8,4-5.5
		c0,0,0.3-0.5,0.4-0.8c0.4,0,0.9-0.1,1.3-0.1c3.4,0,4.5-1.5,5.3-3.2l0.1-0.3c0.4-0.9,2.4-3.8,3-4.4c0.9-0.9,1.6-2.5,1.7-3.6
		c0.3-3.6-1.6-4.4-3.5-4.8l-3.8-0.4l-3.4-0.3c-1.3-0.1-3.5-0.1-4.4,0.1l-2.9-0.8c-1.4-0.4-3.4-0.1-5.7-0.2c1.2-0.9,2.4-1.9,3.4-3
		c1.1,0.2,2.2,0.5,2.2,0.5c3.1,0.7,14.5,0.1,18.2-1.2c1.8-0.7,7.5,0.3,10.3,0.7l1.6,0.3c0.4,0.1,0.9,0.1,1.3,0.1
		c1.3,0.1,2.5-0.1,3.7-0.4c0,1,0.3,2,0.7,2.9c0.4,0.9,1,1.8,1.4,2.6c0.6,0.9,1.2,2.1,1.3,2.7c0.5,3.5,4.4,5.2,8.1,6.8
		c1.4,0.6,2.9,1.3,3.9,1.9c4.1,2.5,8.6,1.7,12.1,1l1.7-0.3c2.9-0.4,7.5,0.3,11,3.8c0.4,0.4,0.8,0.8,1.2,1.1c2.4,2,4.7,2.7,6.7,2.9
		c2.2,0.2,4-0.2,5.2-0.5c0.8,0.5,2.4,2.2,3.5,4c0.1,0.1,0.1,0.3,0.2,0.4c2.1,3.4,5.7,4.3,8.6,3.8l0.3-0.1c1.2-0.3,3.2-0.6,4.8-0.5
		l4,0.5l0-0.7c2.7,0.4,5.6-0.1,7.2-1.3c1.2-0.9,2.9-3,0.8-7.3C623,369.8,622.8,369.4,622.7,369.1z M187,367.8c0,0-2.2,5.9-2.1,7.9
		c0,0-4.8,0.9-5.4-1.5c0,0-0.1-0.9,0.7-2.2c0,0,0.8-1.2,1-3.5c0,0-0.1-5.7,3.6-4.2c0.7,0.4,1.3,1,1.8,1.6v0
		C186.6,365.9,187.5,366.5,187,367.8z M187.5,362.5c-2-2,0.6-2.9,0.6-2.9c1.5-0.6,4.4-3.1,4.4-3.1c0.8-0.7,1.9-1,3-0.8
		c2.3,0.5,0.9,2.5,0.9,2.5c-0.9,1.8-4,4.7-4,4.7C189.6,365,187.5,362.5,187.5,362.5z M385.3,397.9c0.5,0.1,0.9,0.2,1.4,0.3
		C386.3,398.1,385.8,398,385.3,397.9z M389.2,398.5c0.5,0.1,1.1,0.2,1.7,0.2C390.3,398.7,389.8,398.6,389.2,398.5z M393.3,399
		c0.5,0,1.1,0.1,1.6,0.1C394.4,399.1,393.8,399.1,393.3,399z M382.6,351.8c-1.6-3.8-5.9-7.9-5.9-7.9c-1.7-1.7-2.5-1.1-2.5-1.1
		c-1.3,0.5,0,2.4,0,2.4c4.5,5.7,4.8,9.9,4.8,9.9c2.2,4.9,10.9,8.4,10.9,8.4c-10.9,2.4-17.6-6.7-17.6-6.7c-1-2.2-3.8,0.1-3.8,0.1
		c-3.7,4.1-9.2,3.4-9.2,3.4c-1.8-0.4-3.2-0.2-3.2-0.2c-2.2-0.1-6.6,1.5-6.6,1.5c-1.2,0.4-4.6,1.4-4.6,1.4c-2.3,0.8-3.2,0.8-3.2,0.8
		c-0.8-0.3-1.3,0.1-1.3,0.1c-1.8,0.5-2.9-1.1-2.9-1.1c-0.9-1.1-1.3-4.4-1.3-4.4c0.2-2.9,2.7-5.1,2.7-5.1c1-1.1,0.7-1.2,0.7-1.2
		c-0.9-1.2-3.4,0-3.4,0c-1.8,0.6-0.9-2-0.9-2c0.4-2.8,4.5-5.7,4.5-5.7c1.3-1,1.5-2.6,1.5-2.6c0.2-2.1,2.4-5.2,2.4-5.2
		c1-1.3-0.8-0.9-0.8-0.9c-1.4,0.4-8.7,1.5-8.7,1.5c-2.4,1.7-8.3,0-8.3,0c7.4-9.1,2.8-18.1,2.8-18.1c0,4-2.3,10.4-2.3,10.4
		c-1.7,5.5-4.4,6.3-4.4,6.3c-1,0.7-6.5,1.9-6.5,1.9c-2.2,0.8-0.8,2.6-0.8,2.6c0.7,0.4,1.9,2.9,1.9,2.9c0.6,1.9,4.5,8,4.5,8
		c1.7,1.4,1.3,3.8,1.3,3.8c0.1,2.3-1.9,6.5-1.9,6.5c-0.5,1.2,0.2,1,0.2,1c0.4,0,1.9-0.9,1.9-0.9c0.9-0.5,2-2.9,2-2.9
		c0.3-0.6,1.2-2,1.2-2c0.7-0.7,0.8-2.4,0.8-2.4c0.1-2.4-2.3-6.1-2.3-6.1c-1.8-2.6-4.3-8.9-4.3-8.9l3.6-0.3c1.2,0.7,2.3,2.4,2.3,2.4
		l2.7,6.3c0.2,1.1,1.7,2.6,1.7,2.6c1.5,1.8,1.2,3.6,1.2,3.6c0.1,1.8-0.7,3.3-0.7,3.3l-3.8,5.9c-1.5,2.9-5.2,2-5.2,2
		c-2.1-0.7-4.7,0.8-4.7,0.8c-2.1,1.6-14.3,6.1-14.3,6.1c-2.5,1.4-5.2,0.5-5.2,0.5c-2.9-1-4.6-4-4.6-4c-1.9-6.1-5.2-4.5-5.2-4.5
		c-2.4,0.4-2.7-1.4-2.7-1.4c-1-2-3.6-5.4-3.6-5.4c-1.9-2,0.7-2.7,0.7-2.7l7.4-0.6c3.9-0.3,8.5,9.4,8.5,9.4c1.1,2.6,4.6,1.5,4.6,1.5
		c9.4-3.3,10.5-4.6,10.5-4.6c0.1-9-7-11.5-7-11.5c-7.9-2.9-10.8-12.4-10.8-12.4c-1.2-1.6-2.3,0.9-2.3,0.9c-0.4,3.6,1.6,6.6,1.6,6.6
		c-7.5,1-16.3-1.1-16.3-1.1c-5.7-1-12.7,0.7-12.7,0.7c-4.6,0.7-7.1-1.2-7.1-1.2c-4.3-2.6-2-15.8-2-15.8c0.3-2.4-1-2.1-1-2.1
		c-3.3,3-2.6,15.6-2.6,15.6c-7,14.8-22.1,14.4-22.1,14.4c-3.1-0.5-6.7,0.3-6.7,0.3c-11.2,2.1-16.3,10.8-16.3,10.8
		c1.8,0.7,3.1-1.1,3.1-1.1c9.2-10,19.7-7.6,19.7-7.6c7.3,1.2,11-0.3,11-0.3c6.7-2,10.6-8.6,10.6-8.6l4.3,0c-1.2,1.3-2.8,5.4-2.8,5.4
		c-0.3,2.9-2.9,3.7-2.9,3.7c-2.1,0.7-7.9,3.7-7.9,3.7c-2.8,2.1-11.9,0.3-11.9,0.3c-8.1-1.3-13.8,5-13.8,5c-4.2,4.3-10,2.3-10,2.3
		c-2.9-1-6.9,5.7-6.9,5.7c-2,3.8-6.6,2.2-6.6,2.2c-1.9-0.7-4.7-0.3-4.7-0.3c0-1.8,0.6-4.3,0.6-4.3c1.1-3.7,2.8-4.3,2.8-4.3
		c2.2-0.1,3.4-2.2,3.4-2.2c1.1-3,4.5-3.8,4.5-3.8c4.4-1.9,7-8,7-8c1.3-2.5,2.3-5.5,2.3-5.5c1.2-1.6,4.8-0.7,4.8-0.7
		c2.6,0.2,3.4-0.4,3.4-0.4l5.8-3.4c2.9-2.5,0.1-6.5,0.1-6.5c-3.8-7.4-2.9-15.8-2.9-15.8c-5.8,1-12.2,1.6-17.8-0.4
		c-14.5-5.8-8.6-20.8-8.6-20.8c2.7-8.6,8.6-11.2,8.6-11.2c3.4-1.3,5.8-4.7,5.8-4.7c1.8-4-3.3-4.8-3.3-4.8
		c-19.5,0.3-14.6-17.2-14.6-17.2c4.5,5.6,15.5,7.7,15.5,7.7c8.8,0.2,10.2,6.4,10.2,6.4c2.7,6.4-3.2,10.6-3.2,10.6
		c-7.2,5.3-11.5,10.5-11.5,10.5c-6.7,10-0.8,15.6-0.8,15.6c11.3,10.7,30.2-5.8,30.2-5.8c7.5-8.8,19-7.6,19-7.6
		c7.1-0.8,10.6-4.3,10.6-4.3c7.7-10.3,18.1-9,18.1-9c4.7-0.6,5.2-2.1,5.2-2.1c5-8.2,16.8-9.5,16.8-9.5c5.7-1.4,12.6-6.1,12.6-6.1
		c9.9-7.9,23.7,2,23.7,2c2.6,2.8,6.1,5.3,6.1,5.3c7.8,5.5,11.4,9.7,11.4,9.7c2.7,2.8,6.4,7.3,6.4,7.3c4.8,4.1,7.9,10.1,7.9,10.1
		c4.6,5.6,4.1,12.7,4.1,12.7c0,1.5,1.5,7,1.5,7c0.4,1.5,1.8,7.7,1.8,7.7c2.8,3.7,3,10.4,3,10.4c5.9,4.4,7.7,10.3,7.7,10.3
		c2.8,4.4,8.9,6.7,8.9,6.7C388,359.9,382.6,351.8,382.6,351.8z M395.5,399.2c0.5,0,0.9,0.1,1.4,0.1
		C396.4,399.2,395.9,399.2,395.5,399.2z M397.5,399.3c0.5,0,1.1,0,1.6,0.1C398.6,399.3,398,399.3,397.5,399.3z M399.6,399.4
		c1.2,0,2.4,0,3.6,0C402,399.4,400.8,399.4,399.6,399.4z M586.4,343.5l-0.3,0L586.4,343.5z M403.8,399.4c0.6,0,1.1,0,1.7-0.1
		C404.9,399.3,404.4,399.3,403.8,399.4z M408,399.2c0.5,0,1.1-0.1,1.6-0.1C409,399.1,408.5,399.1,408,399.2z M606.9,376.1
		c0,0-4.6,1.5-6.6-2.2c0,0-3.9-6.8-6.9-5.7c0,0-5.9,2-10-2.3c0,0-5.7-6.2-13.8-5c0,0-9.1,1.8-11.9-0.3c0,0-5.7-3-7.9-3.7
		c0,0-2.6-0.8-2.9-3.7c0,0-1.6-4-2.8-5.4l4.3,0c0,0,3.9,6.6,10.6,8.6c0,0,3.6,1.5,11,0.3c0,0,10.5-2.4,19.7,7.6c0,0,1.3,1.8,3.1,1.1
		c0,0-5.1-8.7-16.3-10.8c0,0-3.7-0.8-6.7-0.3c0,0-15.1,0.4-22.1-14.4c0,0,0.8-12.7-2.6-15.6c0,0-1.3-0.4-1,2.1c0,0,2.3,13.3-2,15.8
		c0,0-2.5,2-7.1,1.2c0,0-7-1.7-12.7-0.7c0,0-8.8,2.1-16.3,1.1c0,0,2-3,1.6-6.6c0,0-1.1-2.6-2.3-0.9c0,0-2.9,9.6-10.8,12.4
		c0,0-7.1,2.6-7,11.5c0,0,1.1,1.2,10.5,4.6c0,0,3.5,1.1,4.6-1.5c0,0,4.5-9.7,8.5-9.4l7.4,0.6c0,0,2.5,0.6,0.7,2.7
		c0,0-2.5,3.4-3.6,5.4c0,0-0.3,1.7-2.7,1.4c0,0-3.3-1.6-5.2,4.5c0,0-1.7,3.1-4.6,4c0,0-2.7,0.9-5.2-0.5c0,0-12.2-4.5-14.3-6.1
		c0,0-2.6-1.5-4.7-0.8c0,0-3.7,0.9-5.2-2l-3.8-5.9c0,0-0.8-1.4-0.7-3.3c0,0-0.3-1.8,1.2-3.6c0,0,1.4-1.5,1.7-2.6l2.7-6.3
		c0,0,1.1-1.7,2.3-2.4l3.6,0.3c0,0-2.5,6.3-4.3,8.9c0,0-2.5,3.8-2.3,6.1c0,0,0.2,1.7,0.8,2.4c0,0,0.8,1.3,1.2,2c0,0,1.1,2.4,2,2.9
		c0,0,1.5,0.9,1.9,0.9c0,0,0.7,0.2,0.2-1c0,0-2-4.2-1.9-6.5c0,0-0.4-2.4,1.3-3.8c0,0,3.9-6.2,4.5-8c0,0,1.2-2.5,1.9-2.9
		c0,0,1.4-1.8-0.8-2.6c0,0-5.5-1.2-6.5-1.9c0,0-2.7-0.8-4.4-6.3c0,0-2.4-6.4-2.3-10.4c0,0-4.6,9,2.8,18.1c0,0-5.9,1.7-8.3,0
		c0,0-7.3-1.1-8.7-1.5c0,0-1.8-0.4-0.8,0.9c0,0,2.2,3.1,2.4,5.2c0,0,0.1,1.6,1.5,2.6c0,0,4.2,2.9,4.5,5.7c0,0,0.9,2.7-0.9,2
		c0,0-2.5-1.2-3.4,0c0,0-0.3,0.1,0.7,1.2c0,0,2.5,2.2,2.7,5.1c0,0-0.5,3.4-1.3,4.4c0,0-1.1,1.6-2.9,1.1c0,0-0.5-0.4-1.3-0.1
		c0,0-0.9,0-3.2-0.8c0,0-3.5-1-4.6-1.4c0,0-4.4-1.6-6.6-1.5c0,0-1.4-0.2-3.2,0.2c0,0-5.5,0.6-9.2-3.4c0,0-2.8-2.2-3.8-0.1
		c0,0-6.7,9-17.6,6.7c0,0,8.7-3.6,10.9-8.4c0,0,0.3-4.1,4.8-9.9c0,0,1.4-1.9,0-2.4c0,0-0.8-0.6-2.5,1.1c0,0-4.3,4.1-5.9,7.9
		c0,0-5.4,8.1-13.1,5.4c0,0,6.1-2.3,8.9-6.7c0,0,1.8-5.9,7.7-10.3c0,0,0.2-6.6,3-10.4c0,0,1.4-6.2,1.8-7.7c0,0,1.5-5.5,1.5-7
		c0,0-0.5-7.1,4.1-12.7c0,0,3.1-6,7.9-10.1c0,0,3.7-4.5,6.4-7.3c0,0,3.6-4.2,11.4-9.7c0,0,3.5-2.6,6.1-5.3c0,0,13.8-9.9,23.7-2
		c0,0,6.9,4.7,12.6,6.1c0,0,11.8,1.4,16.8,9.5c0,0,0.4,1.5,5.2,2.1c0,0,10.4-1.3,18.1,9c0,0,3.6,3.5,10.6,4.3c0,0,11.5-1.2,19,7.6
		c0,0,18.9,16.5,30.2,5.8c0,0,5.8-5.5-0.8-15.6c0,0-4.2-5.1-11.5-10.5c0,0-5.9-4.1-3.2-10.6c0,0,1.4-6.2,10.2-6.4
		c0,0,11-2.1,15.5-7.7c0,0,5,17.5-14.6,17.2c0,0-5.1,0.8-3.3,4.8c0,0,2.5,3.5,5.8,4.7c0,0,5.9,2.6,8.6,11.2c0,0,6,15-8.6,20.8
		c-5.6,1.9-12,1.4-17.8,0.4l0,0c0,0,0.9,8.4-2.9,15.8c0,0-2.8,4,0.1,6.5l5.8,3.4c0,0,0.8,0.6,3.4,0.4c0,0,3.6-0.9,4.8,0.7
		c0,0,1,3,2.3,5.5c0,0,2.6,6,7,8c0,0,3.5,0.8,4.5,3.8c0,0,1.1,2.1,3.4,2.2c0,0,1.7,0.5,2.8,4.3c0,0,0.6,2.4,0.6,4.3
		C611.6,375.8,608.8,375.5,606.9,376.1z M608.1,362.9c0,0-3.1-3-4-4.7c0,0-1.4-2,0.9-2.5c1-0.2,2.2,0.1,3,0.8c0,0,2.9,2.5,4.4,3.1
		c0,0,2.6,1,0.6,2.9C612.9,362.5,610.8,365,608.1,362.9z M620.9,374.1c-0.7,2.4-5.4,1.5-5.4,1.5c0.1-2-2.1-7.9-2.1-7.9
		c-0.4-1.2,0.4-1.9,0.4-1.9v0c0.5-0.6,1.1-1.2,1.8-1.6c3.7-1.5,3.6,4.2,3.6,4.2c0.2,2.3,1,3.5,1,3.5
		C621,373.2,620.9,374.1,620.9,374.1z"/>
	<path class="st0" d="M471.7,288.7c-4.7,6.6-1.2,16.5-1.2,16.5c0.5-9.1,4.1-13.4,4.1-13.4c0.6-1.1,0.4-2.2-0.3-3.3
		C473,286.4,471.7,288.7,471.7,288.7z"/>
	<path class="st0" d="M326.1,288.5c-0.6,1.1-0.9,2.2-0.3,3.3h0c0,0,3.7,4.3,4.1,13.4c0,0,3.5-9.9-1.2-16.5
		C328.7,288.7,327.4,286.4,326.1,288.5z"/>
	<path class="st0" d="M443.8,349c-3.9-2.3-4.3,0-4.3,0c-0.7,4.1,2.6,4.7,2.6,4.7c0.7,0.2,3.5,0.3,3.5,0.3c0.8,0,1.1-0.3,1-1.3
		C445.9,350.1,443.8,349,443.8,349z"/>
	<rect x="641.2" y="426.1" class="st0" width="22.8" height="123.4"/>
	<path class="st0" d="M209.1,467.2c0-30.5-21.2-38.6-49.5-38.6l-29.7,0v121.1h24.4v-98h11.5c0,0,18-0.8,18,15.5
		c0,16.4-16,15.9-16,15.9h-5.9V511l24.4,38.6h28.7l-34.1-49.5C181.1,500.1,209.1,497.7,209.1,467.2z"/>
	<path class="st0" d="M254.2,473.4L254.2,473.4c-39.2,0-39.8,36.1-39.8,40.4c0,4.2,0.8,38.2,41.6,38.2c13.1,0,24.8-5.2,33.5-18.4
		l-18.8-9.3c0,0-5,9.5-14.9,9.5c-9.9,0-17.2-7.5-17.2-16.2h53.1v-6.1C291.7,511.6,293.3,473.4,254.2,473.4z M239,503.7
		c0,0,1.6-13.7,14.7-13.7c13.1,0,14.3,13.7,14.3,13.7H239z"/>
	<rect x="601.9" y="426.1" class="st0" width="23.1" height="123.4"/>
	<path class="st0" d="M588.3,477.5h-23.6v41.2c0,0,0.2,13.9-12.9,13.9c-13.1,0-13.9-13.9-13.9-13.9v-41.4h-23.4v41.6
		c0,5.2-1,34.5,38,34.5c39,0,35.9-33.3,35.9-33.3V477.5z"/>
	<path class="st0" d="M487.1,485.2c0,0,10.7-8.3,10.7-24.1c0-15.8-11.5-30-35.9-30h-40.9v118.5h50.3c0,0,36.1-0.4,36.1-33
		C507.5,497.7,500.2,490.4,487.1,485.2z M467.5,529L467.5,529l-21.9,0v-77.2h11.7c0,0,15.9-1.2,15.9,12.7
		c0,13.9-12.7,12.7-12.7,12.7h-7.3v20.8h14.2c3.7,0,15.6,1.8,15.6,15.5C483.1,527,467.5,529,467.5,529z"/>
	<path class="st0" d="M359.1,482.1c0,0-11.3-8.7-24.2-8.7c-12.9,0-34.7,9.1-34.7,37.7c0,28.7,18.6,39.6,34.5,39.6
		c16,0,24.8-10.5,24.8-10.5v9.3h23V426.1h-23.4V482.1z M341.4,530.6c-1.2,0-16.4,0.2-16.4-18.4c0-18.6,16.6-19.2,16.6-19.2
		s18.6,0.6,18.6,18.8C360.2,530,342.6,530.6,341.4,530.6z"/>
</g>
<g id="YoSushi">
</g>
<g id="Pepsico">
</g>
<g id="Nivea">
</g>
<g id="Nike">
</g>
<g id="Innocent">
</g>
<g id="Beefeater">
</g>
<g id="Lego">
</g>
<g id="Samsung">
</g>
<g id="LinkedIn">
</g>
</svg>
