<?xml version="1.0" encoding="utf-8"?>
<!-- Generator: Adobe Illustrator 24.2.1, SVG Export Plug-In . SVG Version: 6.00 Build 0)  -->
<svg version="1.1" xmlns="http://www.w3.org/2000/svg" xmlns:xlink="http://www.w3.org/1999/xlink" x="0px" y="0px"
	 viewBox="0 0 800 800" style="enable-background:new 0 0 800 800;" xml:space="preserve">
<style type="text/css">
	.st0{fill:#0000fd;}
	.st1{fill-rule:evenodd;clip-rule:evenodd;fill:#0000fd;}
</style>
<g id="Rowse_Honey">
</g>
<g id="Absolut">
</g>
<g id="Hilton_Hotels">
</g>
<g id="M_x26_S">
</g>
<g id="RedBull">
</g>
<g id="YoSushi">
</g>
<g id="Pepsico">
</g>
<g id="Nivea">
	<g>
		<path class="st1" d="M373.4,390.7l-28.5-54.6h-39.5l68,129.6l67.8-129.6h-39.3L373.4,390.7z M621.8,365l55.4,97.7h-42.7l-6.8-13.6
			h-48.2l-6.6,13.6h-42.7l73.3-129.8L621.8,365L621.8,365z M621.8,345.3c1.6,0,3-0.6,4-1.8c1.2-1.2,1.8-2.6,1.8-4.2
			c0-1.6-0.6-2.8-1.8-4c-1-1.2-2.4-1.8-4-1.8c-1.6,0-3,0.6-4.2,1.8c-1.2,1.2-1.6,2.4-1.6,4c0,1.6,0.6,3,1.6,4.2
			C618.8,344.7,620.2,345.3,621.8,345.3z M621.8,332.3c-1.8,0-3.6,0.6-4.8,2c-1.6,1.2-2.2,3-2.2,5c0,2,0.6,3.8,2,5
			c1.4,1.4,3,2.2,5,2.2c1.8,0,3.6-0.8,5-2c1.4-1.4,2-3.2,2-5.2c0-1.8-0.6-3.6-2-5C625.4,332.9,623.8,332.3,621.8,332.3L621.8,332.3z
			 M621.8,340.5c0.2,0,0.4,0.2,0.6,0.2c0.2,0,0.4,0.2,0.4,0.6c0.2,0.2,0.2,0.4,0.2,1c0,0.4,0,0.8,0.2,1h1.8v-0.2v-0.2v-1
			c0-0.8-0.2-1.4-0.8-1.8c-0.2-0.2-0.6-0.2-1-0.4c0.5,0,1-0.2,1.4-0.6c0.2-0.2,0.4-0.6,0.4-1.4c0-0.8-0.2-1.4-1-1.8
			c-0.5-0.2-1-0.4-1.6-0.4h-3.8v7.8h2.2v-2.8L621.8,340.5L621.8,340.5z M621.8,336.9h-1v2.2h1c0.4,0,0.6-0.2,0.8-0.2
			c0.4-0.2,0.4-0.6,0.4-1c0-0.4-0.2-0.8-0.6-0.8C622.2,336.9,622,336.9,621.8,336.9z M603.6,401.9l-12.2,23.5h24.3L603.6,401.9
			L603.6,401.9z M297.7,462.7V336.1h-36.9v126.6H297.7z M526.9,370v-33.9H449v126.6h77.9V429H486v-16.5h40.9v-26.5H486V370H526.9z
			 M238.9,336.1H202v49.2l-63.2-57.4v134.7h36.9v-47l63.2,56.4L238.9,336.1L238.9,336.1L238.9,336.1z"/>
	</g>
</g>
<g id="Nike">
</g>
<g id="Innocent">
</g>
<g id="Beefeater">
</g>
<g id="Lego">
</g>
<g id="Samsung">
</g>
<g id="LinkedIn">
</g>
</svg>
