<?xml version="1.0" encoding="utf-8"?>
<!-- Generator: Adobe Illustrator 24.2.1, SVG Export Plug-In . SVG Version: 6.00 Build 0)  -->
<svg version="1.1" xmlns="http://www.w3.org/2000/svg" xmlns:xlink="http://www.w3.org/1999/xlink" x="0px" y="0px"
	 viewBox="0 0 800 800" style="enable-background:new 0 0 800 800;" xml:space="preserve">
<style type="text/css">
	.st0{fill:#0000fd;}
	.st1{fill-rule:evenodd;clip-rule:evenodd;fill:#0000fd;}
</style>
<g id="Rowse_Honey">
</g>
<g id="Absolut">
</g>
<g id="Hilton_Hotels">
</g>
<g id="M_x26_S">
</g>
<g id="RedBull">
</g>
<g id="YoSushi">
	<g>
		<path class="st0" d="M251.7,371.1c0.6,0,1.2,0,1.8,0C252.9,371.1,252.3,371.1,251.7,371.1z"/>
		<path class="st0" d="M285.2,429.5c0.4-0.1,0.7-0.1,1.1-0.2c-2,0.3-4.2,0.5-8.6,0.6C282.3,429.8,284.1,429.7,285.2,429.5z"/>
		<path class="st0" d="M264.6,371c9.5,0,13.5-0.2,15.9-0.5C277.1,370.9,272.6,371,264.6,371z"/>
		<path class="st0" d="M317.4,417.3c-0.6,0.4-1.2,0.7-1.9,1.1C316.1,418.1,316.8,417.7,317.4,417.3z"/>
		<path class="st0" d="M315.1,418.6c-1.9,1.1-3.8,2.1-5.7,3C311.3,420.7,313.3,419.7,315.1,418.6z"/>
		<path class="st0" d="M308.6,422.1c-0.4,0.2-0.9,0.4-1.3,0.6C307.7,422.5,308.1,422.3,308.6,422.1z"/>
		<path class="st0" d="M295.5,427.1c-0.2,0.1-0.3,0.1-0.5,0.2C295.2,427.2,295.4,427.1,295.5,427.1z"/>
		<path class="st0" d="M311.3,360.5c0.4-0.3,0.8-0.5,1.2-0.8C312.1,359.9,311.7,360.2,311.3,360.5z"/>
		<path class="st0" d="M321.8,351.3c0.2-0.2,0.3-0.4,0.5-0.5C322.2,351,322,351.2,321.8,351.3z"/>
		<path class="st0" d="M331.2,336c0.1-0.4,0.3-0.7,0.4-1.1C331.5,335.3,331.4,335.7,331.2,336z"/>
		<path class="st0" d="M273,334.9c-0.8-0.1-1.5-0.2-2.3-0.3C271.5,334.8,272.2,334.9,273,334.9z"/>
		<path class="st0" d="M296.3,367.4c3.4-1.1,6.7-2.4,9.7-3.9C303.1,364.9,299.8,366.3,296.3,367.4z"/>
		<path class="st0" d="M294.6,367.9c0.4-0.1,0.7-0.2,1.1-0.3C295.3,367.7,294.9,367.8,294.6,367.9z"/>
		<path class="st0" d="M327.6,343.5c-1.4,2.4-3.1,4.7-4.9,6.9c1.7-2,3.2-4,4.3-5.9C327.3,344.1,327.4,343.8,327.6,343.5z"/>
		<path class="st0" d="M306.8,363.1c0.2-0.1,0.4-0.2,0.5-0.3C307.1,362.9,306.9,363,306.8,363.1z"/>
		<path class="st0" d="M320.2,415.5c-0.2,0.1-0.3,0.2-0.5,0.3C319.8,415.8,320,415.7,320.2,415.5z"/>
		<path class="st0" d="M258.3,330.1c-0.2-0.1-0.3-0.2-0.5-0.3C258,329.9,258.2,330,258.3,330.1z"/>
		<path class="st0" d="M257,329.2c-0.3-0.2-0.7-0.5-1-0.7C256.3,328.7,256.7,328.9,257,329.2z"/>
		<path class="st0" d="M262.6,332.4c-0.1,0-0.2-0.1-0.2-0.1C262.5,332.3,262.5,332.4,262.6,332.4z"/>
		<path class="st0" d="M267.7,334.1c-0.4-0.1-0.7-0.2-1.1-0.3C267,333.9,267.3,334,267.7,334.1z"/>
		<path class="st0" d="M264.4,333.1c-0.1,0-0.2-0.1-0.3-0.1C264.2,333,264.3,333.1,264.4,333.1z"/>
		<path class="st0" d="M249,319.6c0.3,0.7,0.7,1.3,1,1.9c1.5,2.5,3.3,4.6,5.5,6.5C252.8,325.7,250.6,322.9,249,319.6z"/>
		<path class="st0" d="M248.8,319.2c-0.2-0.5-0.4-0.9-0.6-1.4C248.3,318.3,248.5,318.7,248.8,319.2z"/>
		<path class="st0" d="M270,334.6c-0.5-0.1-1-0.2-1.5-0.3C269.1,334.4,269.5,334.5,270,334.6z"/>
		<path class="st0" d="M246.3,300.3c0.1-0.6,0.2-1.1,0.3-1.7C246.5,299.2,246.4,299.8,246.3,300.3z"/>
		<path class="st0" d="M245.9,306.7c0-2,0.1-4.1,0.3-6.1C246,302.7,245.9,304.7,245.9,306.7z"/>
		<path class="st0" d="M247.6,316.3c0-0.1-0.1-0.3-0.1-0.4C247.5,316,247.5,316.1,247.6,316.3z"/>
		<path class="st0" d="M246.7,298.2c0.1-0.7,0.3-1.3,0.4-1.9C246.9,296.9,246.8,297.6,246.7,298.2z"/>
		<path class="st0" d="M246,308.4c0-0.4,0-0.7-0.1-1.1C246,307.6,246,308,246,308.4z"/>
		<path class="st0" d="M246.1,309.8C246.1,309.8,246.1,309.7,246.1,309.8C246.1,309.7,246.1,309.8,246.1,309.8z"/>
		<path class="st0" d="M318.2,355.1c0.2-0.2,0.4-0.4,0.6-0.6C318.6,354.7,318.4,354.9,318.2,355.1z"/>
		<path class="st0" d="M512,367.6c0.2-0.7,0.7-2.3,1.3-4.4c-0.9,3.2-1.7,5.6-2.5,7.7C511.2,369.7,511.6,368.7,512,367.6z"/>
		<path class="st0" d="M494.4,397.7c-0.1,0.1-0.2,0.2-0.2,0.3C494.3,397.8,494.4,397.7,494.4,397.7z"/>
		<path class="st0" d="M506.7,379.8c0.7-1.3,1.4-2.6,2-4c-0.5,1-1,2.1-1.6,3.3C506.9,379.3,506.8,379.6,506.7,379.8z"/>
		<path class="st0" d="M360.7,358.3c-1.8,6.6-2.7,9.4-3.4,11.5c0.4-1,0.7-2.1,1.1-3.1C358.6,366.2,359.4,363.1,360.7,358.3z"/>
		<path class="st0" d="M448.1,427.4c12.1-3.3,23.8-9.5,34.6-18.3c3.6-2.9,7-6.2,10.2-9.7C480.7,412.7,464.8,422.8,448.1,427.4z"/>
		<path class="st0" d="M434.9,429.9c1.1-0.1,2.2-0.2,3.3-0.4c-3,0.3-6.9,0.5-13,0.6C430.5,430,434.1,429.9,434.9,429.9z"/>
		<path class="st0" d="M335,403.5c4.9-4.8,9.3-10,13-15.5c1-1.4,1.9-2.9,2.7-4.4C346.5,390.7,341.2,397.5,335,403.5z"/>
		<path class="st0" d="M448,427.5c-0.3,0.1-0.5,0.1-0.8,0.2C447.4,427.6,447.7,427.5,448,427.5z"/>
		<path class="st0" d="M405.5,430.2c-2.2,0-4.6,0-7.1,0C400.8,430.2,403.2,430.2,405.5,430.2z"/>
		<path class="st0" d="M317.8,355.5c-1.6,1.5-3.3,2.8-5.1,4.1c0.4-0.3,0.8-0.6,1.2-0.9C315.2,357.7,316.5,356.6,317.8,355.5z"/>
		<path class="st0" d="M425.3,493.9c-1.7-0.5-4.4-0.6-22.4-0.7c-19.6-0.2-20.5-0.2-21.2-0.8c-1.4-1.2-0.5-5.3,1.5-6.8
			c0.5-0.4,1.4-0.8,2.1-1c0.9-0.2,9.6-0.4,27.7-0.4c14.5,0,26.4-0.1,26.4-0.2s0.9-3.3,1.9-7.2s1.9-7.1,1.9-7.3
			c0-0.3-7.8-0.4-30.4-0.3c-30.1,0.1-30.5,0.1-32.9,0.8c-8.8,2.5-14.9,8.9-17.5,18.3c-2.5,9-0.6,15.5,5.2,18.3
			c3.6,1.7,5,1.8,25.9,1.8h19.3l1,0.9c1,0.8,1,0.9,0.9,2.8c-0.2,2.4-1.2,4.3-3.1,5.2c-1.2,0.6-1.8,0.6-28.7,0.6h-27.5l-0.4,1.2
			c-0.6,2-2.2,7.9-2.9,10.5c-0.4,1.4-0.7,2.7-0.8,3.1c-0.2,0.5,1.2,0.6,30.8,0.5c30.9-0.1,30.9-0.1,33.5-0.8
			c9.4-2.6,15.2-8.7,18.3-18.8c0.7-2.5,0.9-3.5,0.9-7.2c0-4,0-4.4-0.8-6.1C432.5,497.3,429.7,495.2,425.3,493.9z"/>
		<path class="st0" d="M359.2,469.8c0.2-0.5-0.5-0.6-10.6-0.6c-8.3,0-10.8,0.1-10.9,0.4c-0.1,0.2-1.7,6-3.5,12.8
			c-6.9,25.5-7.6,27.9-8.6,30c-0.6,1.4-1.5,2.7-2.3,3.4c-2.3,2.1-2.9,2.2-18.7,2.2c-15.4,0-16.4-0.1-17.7-1.7
			c-1.4-1.7-1-4.3,2.4-16.7c1.6-5.8,4-14.8,5.5-20c1.4-5.2,2.7-9.7,2.7-10c0.2-0.5-0.5-0.6-10.5-0.6h-10.7l-0.4,1.1
			c-0.2,0.5-1.8,6.4-3.5,12.8c-1.8,6.5-3.8,13.9-4.5,16.5c-4.9,17.5-5.2,19.2-4.7,23.2c0.4,3,1.3,5,3.5,7c1.9,1.8,4.2,2.8,7.4,3.4
			c1,0.2,12.8,0.3,27.3,0.2c28.8-0.1,27,0.1,32.6-2.6c5-2.4,9.3-7.1,11.6-12.5c0.8-2,3.1-10,7.7-26.8
			C354.9,485.2,358.9,470.7,359.2,469.8z"/>
		<path class="st0" d="M264.9,469.7c0.1-0.5-1.2-0.6-30.5-0.4c-33.6,0.1-31.4,0-36.3,2c-8.4,3.5-14.4,12.7-15.1,23.1
			c-0.5,7,2.5,11.4,9,13.3c1.7,0.5,4.2,0.6,22.4,0.7l20.6,0.2l0.8,0.9c1.8,2.1,0.1,6.8-3,8.1c-0.8,0.4-6.1,0.4-28.3,0.4
			c-15,0-27.4,0.1-27.5,0.3c-0.2,0.3-4.1,14.3-4.1,14.7c0,0.3,7.8,0.4,30.9,0.3l30.9-0.1l2.6-0.7c9.7-2.7,15.7-9.3,18.6-20.5
			c0.8-3.2,0.8-8.7-0.2-10.9c-1.8-4.5-5.6-6.9-12-7.6c-1.8-0.2-10.5-0.4-21.4-0.4h-18.3l-0.6-0.7c-0.9-1-1.2-1.9-0.8-3.4
			c0.5-1.7,1.6-3.3,2.9-4c1.1-0.7,1.6-0.7,28.3-0.8L261,484l0.3-0.8c0.1-0.4,1-3.5,1.9-6.9C264,473.1,264.8,470.1,264.9,469.7z"/>
		<path class="st0" d="M349.9,423.7l0.9-1.1l-1,0.9c-0.6,0.5-1.1,1-1.1,1.1C348.8,424.9,349,424.7,349.9,423.7z"/>
		<path class="st0" d="M531.1,473.4c-1.6-1.9-3.8-3.1-6.6-3.8c-1.8-0.5-4.7-0.5-24-0.6c-12.1-0.1-22.1-0.2-22.1-0.3
			c-0.3-0.3,2.5-8.3,4.3-12.5l1.6-3.8l-4.2,0.2c-6.6,0.3-10.9,1.8-15.3,5.3c-3.7,3-6.6,7.2-8.3,12.6c-0.4,1.3-1.4,4.7-2.2,7.6
			c-0.8,2.9-2.2,7.9-3.1,11.2c-1.7,6.3-2.4,8.5-4.4,16c-0.7,2.6-2.6,9.3-4.2,15c-1.6,5.7-3,10.9-3.2,11.6c-0.2,0.9-0.2,1.2,0,1.3
			c0.2,0.1,4.9,0.2,10.5,0.2c7.8,0,10.2,0,10.5-0.4c0.2-0.2,0.6-1.3,0.9-2.5c0.3-1.2,1.7-6.2,3.1-11.2c1.4-5,2.9-10.6,3.5-12.5
			c4.6-17,5.1-18.3,7.5-20.4c2.4-2.1,2.8-2.1,18.4-2.1c13,0,14,0,15.1,0.6c0.7,0.3,1.4,1,1.7,1.5c0.6,1.2,0.6,3.8-0.1,6.7
			c-0.6,2.5-0.9,3.4-6.4,23.3c-1.8,6.4-3.5,12.7-3.9,14c-0.4,1.3-0.6,2.5-0.4,2.6c0.3,0.3,20.4,0.4,20.8,0.1c0.2-0.1,2-6,3.9-13
			c4.9-17.7,5.9-21.4,7.2-25.9c2.2-7.9,2.4-9,2.4-12.5C533.8,477.8,533.1,475.7,531.1,473.4z"/>
		<path class="st0" d="M569.9,443c0.1,0,0.6-0.5,1.2-1.1c0.6-0.6,1-1.1,0.9-1.1c-0.1,0-0.6,0.5-1.2,1.1S569.8,443,569.9,443z"/>
		<path class="st0" d="M560.2,469.2h-10.7l-0.4,1.4c-0.5,1.9-1.2,4.3-5,18.1c-9.9,36.1-12,44-12,44.4c0,0.3,2.2,0.4,10.6,0.3
			l10.6-0.1l0.4-1.3c0.2-0.7,1-3.4,1.7-6.1c0.7-2.6,1.9-6.9,2.6-9.6c0.7-2.6,2.9-10.5,4.8-17.6c1.9-7,4.3-15.7,5.2-19.2
			c1-3.5,1.9-7.1,2.2-8c0.3-0.9,0.5-1.8,0.5-2C570.9,469.3,568.5,469.2,560.2,469.2z"/>
		<path class="st0" d="M436.1,453.6c-0.3,0.1-0.1,0.2,0.5,0.2c0.6,0,0.9-0.1,0.6-0.2c-0.1,0-0.3,0-0.4,0c-0.2,0-0.3,0-0.5,0
			C436.2,453.6,436.2,453.6,436.1,453.6z"/>
		<path class="st0" d="M302,242.7c-9.5-0.1-24.9-0.1-34.2,0c-9.4,0-1.6,0.1,17.2,0.1C303.8,242.8,311.5,242.7,302,242.7z"/>
		<path class="st0" d="M281.7,358.7c-1.7,0-0.3,0.1,3.1,0.1c2.4,0,3.8,0,3.8-0.1c-0.8,0-1.6-0.1-2.5-0.1
			C284.6,358.6,282.9,358.7,281.7,358.7z"/>
		<path class="st0" d="M543.1,256.9c0-0.1-0.6-0.7-1.3-1.3l-1.4-1.3l1.3,1.4C542.8,256.9,543.1,257.1,543.1,256.9z"/>
		<path class="st0" d="M415.2,243.2c0.1,0,0-0.1-0.1-0.3c-0.1-0.2-12-0.3-34.8-0.3l-34.6,0.1l34.7,0.2c17.7,0,30.6,0.1,33.8,0.2
			C414.8,243.2,415.2,243.2,415.2,243.2z"/>
		<path class="st0" d="M478.7,315.9c-0.1-0.3-0.2-0.1-0.2,0.5c0,0.5,0,0.8,0.1,0.6c0-0.1,0.1-0.3,0.1-0.4
			C478.8,316.4,478.8,316.1,478.7,315.9z"/>
		<path class="st0" d="M248.4,347c0,0-0.8-0.8-1.7-1.7l-1.7-1.6l1.6,1.7C248.1,347,248.4,347.3,248.4,347z"/>
		<path class="st0" d="M598,242.6h-39l-0.2,0.9c-0.1,0.5-1.8,7.1-3.6,14.6c-3.3,13.4-3.4,13.7-3.8,12.6c-0.3-0.6-1.2-2.6-2.1-4.5
			c-5.8-11.9-17.2-20-31.9-22.8c-3.7-0.7-4.4-0.7-30.8-0.8c-18.7-0.1-28.3,0-31,0.3c-15.5,1.4-30.9,8.3-43.5,19.6
			c-1.3,1.2-2.5,2.2-2.6,2.2c-0.1,0,1.1-4.8,2.7-10.6c1.5-5.8,2.8-10.7,2.8-10.9c0,0-0.3,0-0.7-0.1c-3.7-0.1-17.5-0.1-33.8-0.2
			h-34.5l-0.5,1.7c-0.3,0.9-1.3,4.7-2.3,8.4c-3.7,14.2-4.4,16.7-5,18.7c-0.3,1.2-1.6,5.8-2.7,10.3l-2.2,8.2l-10.9-0.1
			c-10.5-0.1-11-0.1-11.9-0.8c-1.5-1.1-2.3-2.6-2.3-4.2c0-0.8,0.6-3.6,1.3-6.3c3.6-13.8,5.8-22.1,7.4-27.8c0.9-3.5,1.8-6.8,1.9-7.3
			l0.3-0.9h-68.2l-0.5,2.2c-0.3,1.2-0.8,3.2-1.2,4.4c-0.3,1.2-1,3.6-1.4,5.3c-0.9,3.5-3.8,14-4.7,17.6c-3.5,12.9-7.6,28.7-7.9,30.2
			c-2.3,12.2-0.5,24.4,5,33.9c5.3,9.3,13.6,16.1,23.8,19.5c6.1,2.1,8.2,2.4,20.3,2.7c0.7,0,1.4,0,2,0.1c0.7,0,1.3,0,1.8,0
			c0.5,0,0.8,0,0.7,0c3.8,0.1,6.5,0.2,6.6,0.3c0.2,0.2-4.5,1.3-8.5,2.1c-2.3,0.4-7.3,0.5-35.3,0.7l-32.6,0.2l-0.5,2.1
			c-0.3,1.2-0.9,3.5-1.4,5.3c-1,3.7-1.3,5-4.4,16.3c-5.8,21.7-13.5,50.1-13.7,51.1c-0.1,0.5-1.2,4.5-2.4,8.8c-1.2,4.3-2.1,8-2.1,8.1
			c0,0.1,20.8,0.2,46.2,0.1c49.4-0.1,47.7-0.1,55.5-1.7c20.8-4.3,40.1-14.9,56.4-31.2c2.5-2.5,4.5-4.3,4.4-4
			c-0.1,0.4-1.5,5.5-3.1,11.3c-1.6,5.9-3.1,11.8-3.5,13.1c-0.4,1.3-1.2,4.6-1.9,7.2c-0.7,2.7-1.3,4.9-1.3,5c0,0.3,75.5,0.3,89.2,0
			c0.2,0,0.3,0,0.5,0c0.7,0,1.2,0,1.4-0.1c12.2-1,24.1-4.3,36.1-10.4c11.3-5.7,21-12.6,30.2-21.7c2.6-2.6,4.8-4.7,4.8-4.6
			c0,0-0.6,2.8-1.4,6.1c-0.8,3.4-2.8,11.5-4.4,18.2c-1.6,6.7-3,12.3-3.1,12.6c-0.2,0.5,43,0.6,46.6,0.1c9.6-1.4,17.1-5.2,24-12.3
			c5-5,8.8-10.8,11.5-17.6c0.6-1.6,2.4-7.3,4-12.8c5.1-17.6,6.7-23,7.3-24.9c0.4-1.1,2.4-7.9,4.6-15.2c2.2-7.3,5.3-17.8,7-23.3
			c1.7-5.5,4.7-15.4,6.6-21.9c6.2-20.5,9.4-31.3,13.1-43.5c1.9-6.5,4.7-15.6,6.1-20.1c1.4-4.6,3.2-10.7,4.1-13.7
			c0.9-2.9,1.6-5.5,1.6-5.7C637,242.7,622.6,242.6,598,242.6z M294.6,335.2c-10.2,0-20-0.1-21.7-0.3c-0.8-0.1-1.5-0.2-2.3-0.3
			c-0.2,0-0.4-0.1-0.7-0.1c-0.5-0.1-1-0.2-1.5-0.3c-0.3-0.1-0.6-0.1-0.9-0.2c-0.4-0.1-0.7-0.2-1.1-0.3c-0.8-0.2-1.5-0.4-2.2-0.7
			c-0.1,0-0.2-0.1-0.3-0.1c-0.5-0.2-1-0.4-1.5-0.6c-0.1,0-0.2-0.1-0.2-0.1c-1.4-0.6-2.8-1.4-4-2.2c-0.2-0.1-0.3-0.2-0.5-0.3
			c-0.3-0.2-0.6-0.4-0.9-0.6c-0.3-0.2-0.6-0.5-1-0.7c-0.2-0.1-0.3-0.3-0.5-0.4c-2.2-1.9-4.1-4-5.5-6.5c-0.4-0.6-0.7-1.3-1-1.9
			c-0.1-0.1-0.1-0.3-0.2-0.4c-0.2-0.5-0.4-0.9-0.6-1.4c-0.2-0.5-0.4-1-0.6-1.5c0-0.1-0.1-0.3-0.1-0.4c-0.3-1-0.6-2-0.8-3.1
			c-0.2-1-0.3-2-0.5-3c0,0,0,0,0,0c0-0.5-0.1-0.9-0.1-1.4c0-0.4,0-0.7-0.1-1.1c0-0.2,0-0.3,0-0.5c-0.1-2,0.1-4,0.3-6.1
			c0-0.1,0-0.2,0-0.3c0.1-0.6,0.2-1.1,0.3-1.7c0-0.2,0.1-0.3,0.1-0.5c0.1-0.6,0.3-1.3,0.4-1.9c0.5-1.9,5.1-19.2,9-33.7
			c0.3-1.2,1.1-4,1.7-6.2l1.1-4l17.4-0.1c14.2-0.1,17.5,0,17.5,0.4c0,0.2-0.2,1.2-0.4,2.1c-0.3,1-2.1,7.7-4,15
			c-3.1,11.5-3.5,13.6-3.5,15.8c0,5.3,2.6,9.8,7,12.2c3.1,1.7,3.9,1.8,17.3,1.8c6.8,0,12.4,0.1,12.5,0.2s-1.1,5-2.7,10.8
			c-1.6,5.8-3.5,13.4-4.4,16.7c-0.9,3.4-1.8,6.6-1.9,7.1l-0.3,1.1L294.6,335.2z M356.9,370.9c-1.6,4.3-3.7,8.6-6.2,12.7
			c-0.9,1.5-1.8,2.9-2.7,4.4c-3.7,5.5-8.1,10.7-13,15.5c-3.7,3.6-7.7,7-11.8,10c-1,0.7-2,1.4-3,2.1c-0.2,0.1-0.3,0.2-0.5,0.3
			c-0.8,0.5-1.5,1-2.3,1.4c-0.6,0.4-1.2,0.7-1.9,1.1c-0.1,0.1-0.2,0.1-0.4,0.2c-1.9,1.1-3.8,2.1-5.7,3c-0.3,0.1-0.6,0.3-0.9,0.4
			c-0.4,0.2-0.9,0.4-1.3,0.6c-3.9,1.8-7.8,3.3-11.7,4.4c-0.2,0.1-0.3,0.1-0.5,0.2c-1.6,0.5-3.2,0.9-4.7,1.2c-1.6,0.3-2.8,0.6-4,0.8
			c-0.4,0.1-0.7,0.1-1.1,0.2c-1.1,0.2-2.9,0.3-7.5,0.4c-5.5,0.1-14.5,0.2-30.7,0.2c-19.6,0.1-35.6,0-35.6-0.1c0-0.1,0.1-0.8,0.3-1.4
			c0.4-1.8,12.5-46.8,14.4-53.9l1-3.6h24.7c0.6,0,1.2,0,1.8,0c4.4,0,8,0,11.1,0c8,0,12.4-0.2,15.9-0.5c0,0,0,0,0,0
			c5-0.6,9.7-1.5,14.1-2.7c0.4-0.1,0.7-0.2,1.1-0.3c0.2-0.1,0.4-0.1,0.7-0.2c3.4-1.1,6.8-2.4,9.7-3.9c0.2-0.1,0.5-0.2,0.7-0.4
			c0.2-0.1,0.4-0.2,0.5-0.3c1.4-0.7,2.7-1.5,4-2.3c0.4-0.3,0.8-0.5,1.2-0.8c0,0,0.1-0.1,0.1-0.1c1.8-1.3,3.5-2.6,5.1-4.1
			c0.1-0.1,0.3-0.3,0.4-0.4c0.2-0.2,0.4-0.4,0.6-0.6c1-1,2-2,3-3.1c0.2-0.2,0.3-0.4,0.5-0.5c0.1-0.2,0.3-0.3,0.4-0.5
			c1.8-2.2,3.4-4.4,4.9-6.9c1.3-2.4,2.7-5.2,3.6-7.5c0.1-0.4,0.3-0.7,0.4-1.1c0.7-1.9,22.2-82,22.2-82.6c0-0.1,7.9-0.2,17.6-0.2
			c9.7,0,17.6,0.1,17.6,0.3c0,0.4-0.5,2.1-5.8,21.8c-2.8,10.6-5.4,20.1-5.6,20.9c-0.3,0.9-0.7,2.7-1.1,4c-1.7,6.4-6.5,24.3-6.9,25.7
			c-4.5,16.8-7.2,26.9-9,33.4c-1.3,4.7-2.1,7.9-2.3,8.4c-0.3,1-0.7,2.1-1.1,3.1C357.2,370.2,357.1,370.6,356.9,370.9z M518.8,342.8
			c-0.9,3.4-2.6,9.7-3.8,14.2c-0.6,2.4-1.2,4.4-1.7,6.2c-0.6,2.1-1.1,3.7-1.3,4.4c-0.4,1.1-0.8,2.2-1.2,3.3
			c-0.6,1.7-1.3,3.3-2.1,4.9c-0.6,1.3-1.3,2.7-2,4c-3.3,6.3-7.5,12.4-12.3,17.9c-0.1,0.1-0.2,0.2-0.2,0.3c-0.4,0.5-0.9,1-1.3,1.5
			c-3.2,3.5-6.6,6.8-10.2,9.7c-10.8,8.8-22.5,15-34.6,18.3c0,0-0.1,0-0.1,0c0,0,0,0-0.1,0c-0.3,0.1-0.5,0.1-0.8,0.2
			c-3.2,0.9-5.6,1.4-9,1.8c-1.1,0.2-2.2,0.3-3.3,0.4c-0.8,0.1-4.3,0.1-9.7,0.2c-4.9,0.1-11.3,0.1-19.8,0.1c-2.3,0-4.7,0-7.1,0
			c-31.6,0-33.3,0-33.2-0.5c0.1-0.3,2.5-9.2,5.3-19.8c8.4-31.7,10.2-38.2,10.4-38.5c0.1-0.2,8.7-0.3,24.9-0.3
			c25.5,0,28.8-0.1,36.2-1.4c14.1-2.5,26.4-8.9,33.9-17.7c5.4-6.4,8.7-12.9,11.4-23.1c0.4-1.7,2-7.6,3.5-13.1
			c3.3-12.3,3.6-13.6,3.1-16.5c-0.8-4.7-3.5-8.2-7.7-10.3l-2.4-1.2h-33.9l-2,0.7c-6.8,2.5-11.8,8-13.8,15.2c-0.4,1.4-2.3,8.6-4.4,16
			c-2,7.4-4.8,17.4-6.1,22.4l-2.4,8.9l-17,0.1c-14,0.1-17,0-17.2-0.4c-0.1-0.3,1.7-7.1,3.9-15.3c12.9-47.4,12.3-45.4,14.7-50.1
			c8.1-16,24.4-28.6,42.5-32.6c3.1-0.7,3.6-0.7,30.2-0.9c17.6-0.1,28,0,29.9,0.2c13.1,1.5,22.1,8.9,25.2,20.6
			c0.9,3.5,1,11.9,0.1,15.5c-0.7,2.8-3.6,13.8-6.3,23.6c-1,3.8-3,10.9-4.3,15.8C521.5,332.7,519.7,339.5,518.8,342.8z M441.2,360.3
			c0.1-0.3,0.8-2.9,1.6-5.8c0.8-2.9,2.2-7.9,3.1-11.2c2.5-9,4.1-14.7,5.6-20.5c1.6-5.7,2.3-7.3,4.2-8.9c2.4-2.1,2.9-2.2,11.6-2.2
			c7.1,0,7.9,0.1,9,0.6c1.3,0.6,2.6,2.7,2.6,4.1c0,0.1,0,0.2-0.1,0.4c0,0.1,0,0.2,0,0.3c0,0,0,0.1,0,0.1c-0.2,1.1-0.8,3.2-1.4,5.5
			c-0.9,3.1-2.2,8-3.1,11c-2.4,8.7-3.2,10.7-5.6,14.2c-4.7,6.8-13.5,11.6-23.5,12.6c-1.1,0.1-2.4,0.3-3,0.4
			C441.2,360.9,441.1,360.8,441.2,360.3z M570.1,389.4c-0.1,0.3-0.7,2.3-1.3,4.6c-3.1,11.2-4.7,17-5.2,18.2
			c-4.2,10.2-11.4,16.4-20.7,17.7c-2.8,0.4-19,0.5-19.2,0.1c-0.1-0.1,0-1,0.3-2c0.6-2.7,5.4-22.7,7.4-30.8c1-4,1.8-7.5,1.9-7.7
			c0.1-0.3,4.1-0.4,18.6-0.4C568.2,389,570.3,389,570.1,389.4z M609.9,254.6c-0.4,1-1.4,4.4-2.3,7.5c-0.9,3.1-2.2,7.5-2.9,9.7
			c-1.4,4.6-13.9,46.9-16.3,55.3c-0.9,3-1.9,6.3-2.2,7.4c-0.3,1.1-1.5,5-2.6,8.6c-1.1,3.7-2.4,8.1-2.9,9.7s-1.7,5.6-2.6,8.6
			c-0.9,3.1-1.9,6.4-2.2,7.4l-0.6,1.8l-18.7,0.1c-11.6,0-18.8,0-18.8-0.2c0-0.2,1.3-5.5,2.9-11.9c3.4-13.6,12.4-50,20.3-81.8
			c3.1-12.4,5.7-23.1,5.9-23.7l0.3-1.2h21.5c17.5,0,21.6,0.1,21.6,0.4C610.5,252.5,610.2,253.6,609.9,254.6z"/>
		<path class="st0" d="M295.5,427.1c3.9-1.1,7.9-2.6,11.7-4.4c-1,0.4-1.9,0.8-2.9,1.2C301.1,425.3,298.3,426.3,295.5,427.1z"/>
		<path class="st0" d="M317.8,355.5c0.1-0.1,0.3-0.3,0.4-0.4C318.1,355.2,317.9,355.3,317.8,355.5z"/>
		<path class="st0" d="M294.6,367.9c-4.4,1.2-9.1,2.2-14.1,2.7c0,0,0,0,0,0c2.8-0.2,4.9-0.6,7.7-1.1
			C290.3,369.1,292.4,368.5,294.6,367.9z"/>
		<path class="st0" d="M295.7,367.5c0.2-0.1,0.4-0.1,0.7-0.2C296.1,367.4,295.9,367.5,295.7,367.5z"/>
		<path class="st0" d="M369.7,324.9c-3.4,12.7-6.8,25.4-9,33.4C362.5,351.8,365.2,341.7,369.7,324.9z"/>
		<path class="st0" d="M312.5,359.7c0,0,0.1-0.1,0.1-0.1C312.6,359.6,312.5,359.6,312.5,359.7z"/>
		<path class="st0" d="M436.3,453.6c0.2,0,0.3,0,0.5,0C436.6,453.6,436.5,453.6,436.3,453.6z"/>
		<path class="st0" d="M322.3,350.8c0.1-0.2,0.3-0.3,0.4-0.5C322.6,350.5,322.5,350.7,322.3,350.8z"/>
		<path class="st0" d="M321.8,351.3c-1,1.1-2,2.1-3,3.1C319.9,353.5,320.9,352.4,321.8,351.3z"/>
		<path class="st0" d="M356.9,370.9c0.1-0.3,0.3-0.7,0.4-1.1c-1.8,4.7-4,9.3-6.6,13.8C353.2,379.5,355.3,375.2,356.9,370.9z"/>
		<path class="st0" d="M514.9,357c-0.6,2.1-1.2,4.3-1.7,6.2C513.7,361.4,514.3,359.4,514.9,357z"/>
		<path class="st0" d="M311.3,360.5c-1.3,0.8-2.6,1.6-4,2.3c0.5-0.2,0.9-0.5,1.4-0.7C309.5,361.6,310.4,361,311.3,360.5z"/>
		<path class="st0" d="M327.6,343.5c1.4-2.4,2.6-4.9,3.6-7.5C330.3,338.3,329,341.1,327.6,343.5z"/>
		<path class="st0" d="M306,363.5c0.2-0.1,0.5-0.2,0.7-0.4C306.5,363.2,306.3,363.3,306,363.5z"/>
		<path class="st0" d="M253.5,371.1c4.3,0,8,0,11.1,0C261.6,371.1,257.9,371.1,253.5,371.1z"/>
		<path class="st0" d="M319.6,415.9c-0.8,0.5-1.5,1-2.3,1.4C318.1,416.9,318.9,416.4,319.6,415.9z"/>
		<path class="st0" d="M315.5,418.4c-0.1,0.1-0.2,0.1-0.4,0.2C315.3,418.6,315.4,418.5,315.5,418.4z"/>
		<path class="st0" d="M323.2,413.5c4.2-3,8.2-6.3,11.8-10c-4.6,4.5-9.6,8.5-14.9,12C321.2,414.9,322.2,414.2,323.2,413.5z"/>
		<path class="st0" d="M447.2,427.7c-3,0.8-6,1.4-9,1.8C441.6,429.1,444,428.5,447.2,427.7z"/>
		<path class="st0" d="M448,427.4C448,427.4,448.1,427.4,448,427.4C448.1,427.4,448,427.5,448,427.4C448,427.5,448,427.5,448,427.4z
			"/>
		<path class="st0" d="M425.2,430.1c-5.2,0.1-12,0.1-19.8,0.1C413.9,430.2,420.3,430.2,425.2,430.1z"/>
		<path class="st0" d="M506.7,379.8c-3.3,6.3-7.5,12.3-12.3,17.9C499.3,392.1,503.4,386.1,506.7,379.8z"/>
		<path class="st0" d="M309.4,421.7c-0.3,0.1-0.6,0.3-0.9,0.4C308.9,422,309.1,421.8,309.4,421.7z"/>
		<path class="st0" d="M510.8,370.8c-0.6,1.7-1.3,3.3-2.1,4.9C509.5,374.1,510.2,372.5,510.8,370.8z"/>
		<path class="st0" d="M277.6,429.9c-5.3,0.1-14.5,0.2-30.7,0.2C263.2,430,272.1,430,277.6,429.9z"/>
		<path class="st0" d="M494.2,397.9c-0.4,0.5-0.9,1-1.3,1.5C493.3,398.9,493.8,398.4,494.2,397.9z"/>
		<path class="st0" d="M290.3,428.4c1.6-0.3,3.2-0.7,4.7-1.2c-2.6,0.7-5.4,1.4-8.8,2C287.5,429,288.7,428.8,290.3,428.4z"/>
		<path class="st0" d="M288,358.7c-0.5,0-1.1,0-1.8,0c0.9,0,1.7,0.1,2.5,0.1C288.7,358.7,288.5,358.7,288,358.7z"/>
		<path class="st0" d="M380.4,242.9c16.3,0.1,30.1,0.2,33.8,0.2C411,243,398.1,242.9,380.4,242.9z"/>
		<path class="st0" d="M256,328.4c-0.2-0.1-0.3-0.3-0.5-0.4C255.7,328.2,255.9,328.3,256,328.4z"/>
		<path class="st0" d="M246,307.2c0-0.2,0-0.3,0-0.5C245.9,306.9,246,307.1,246,307.2z"/>
		<path class="st0" d="M246.1,309.7c-0.1-0.5-0.1-0.9-0.1-1.4C246.1,308.8,246.1,309.3,246.1,309.7z"/>
		<path class="st0" d="M246.6,312.8c0.2,1.1,0.5,2.1,0.8,3.1c-0.6-1.9-1.1-4-1.3-6.1C246.3,310.8,246.4,311.8,246.6,312.8z"/>
		<path class="st0" d="M270.7,334.7c-0.2,0-0.4-0.1-0.7-0.1C270.3,334.6,270.5,334.6,270.7,334.7z"/>
		<path class="st0" d="M246.3,300.6c0-0.1,0-0.2,0-0.3C246.3,300.4,246.3,300.5,246.3,300.6z"/>
		<path class="st0" d="M248.2,317.8c-0.2-0.5-0.4-1-0.6-1.5C247.8,316.8,248,317.3,248.2,317.8z"/>
		<path class="st0" d="M246.6,298.7c0-0.2,0.1-0.3,0.1-0.5C246.6,298.4,246.6,298.5,246.6,298.7z"/>
		<path class="st0" d="M478.7,317c0-0.1,0-0.2,0-0.3C478.7,316.8,478.7,316.9,478.7,317C478.7,317,478.7,317,478.7,317z"/>
		<path class="st0" d="M249,319.6c-0.1-0.1-0.1-0.3-0.2-0.4C248.8,319.3,248.9,319.5,249,319.6z"/>
		<path class="st0" d="M266.6,333.8c-0.8-0.2-1.5-0.4-2.2-0.7C265.1,333.4,265.9,333.6,266.6,333.8z"/>
		<path class="st0" d="M268.6,334.3c-0.3-0.1-0.6-0.1-0.9-0.2C268,334.2,268.3,334.2,268.6,334.3z"/>
		<path class="st0" d="M264.1,333c-0.5-0.2-1-0.4-1.5-0.6C263.1,332.6,263.6,332.8,264.1,333z"/>
		<path class="st0" d="M257.9,329.8c-0.3-0.2-0.6-0.4-0.9-0.6C257.3,329.4,257.6,329.6,257.9,329.8z"/>
		<path class="st0" d="M262.4,332.3c-1.4-0.6-2.8-1.4-4-2.2C259.6,330.9,261,331.7,262.4,332.3z"/>
	</g>
</g>
<g id="Pepsico">
</g>
<g id="Nivea">
</g>
<g id="Nike">
</g>
<g id="Innocent">
</g>
<g id="Beefeater">
</g>
<g id="Lego">
</g>
<g id="Samsung">
</g>
<g id="LinkedIn">
</g>
</svg>
