<?xml version="1.0" encoding="utf-8"?>
<!-- Generator: Adobe Illustrator 24.2.1, SVG Export Plug-In . SVG Version: 6.00 Build 0)  -->
<svg version="1.1" xmlns="http://www.w3.org/2000/svg" xmlns:xlink="http://www.w3.org/1999/xlink" x="0px" y="0px"
	 viewBox="0 0 800 800" style="enable-background:new 0 0 800 800;" xml:space="preserve">
<style type="text/css">
	.st0{fill:#0000fd;}
	.st1{fill-rule:evenodd;clip-rule:evenodd;fill:#0000fd;}
</style>
<g id="Rowse_Honey">
</g>
<g id="Absolut">
</g>
<g id="Hilton_Hotels">
</g>
<g id="M_x26_S">
</g>
<g id="RedBull">
</g>
<g id="YoSushi">
</g>
<g id="Pepsico">
</g>
<g id="Nivea">
</g>
<g id="Nike">
</g>
<g id="Innocent">
</g>
<g id="Beefeater">
</g>
<g id="Lego">
</g>
<g id="Samsung">
	<path class="st0" d="M110,377.8c-0.4-1.8-0.3-3.7-0.1-4.7c0.6-2.9,2.6-6.1,8.2-6.1c5.3,0,8.4,3.3,8.4,8.2c0,1.7,0,5.6,0,5.6H149
		v-6.3c0-19.6-17.7-22.7-30.4-22.7c-16,0-29.1,5.3-31.5,20c-0.7,4-0.8,7.6,0.2,12.1c3.9,18.4,35.9,23.7,40.6,35.4
		c0.9,2.2,0.6,4.9,0.2,6.6c-0.7,3-2.8,6.1-8.8,6.1c-5.6,0-9-3.3-9-8.2l0-8.7H86v6.9c0,20.1,15.8,26.2,32.7,26.2
		c16.3,0,29.6-5.5,31.8-20.6c1.1-7.8,0.3-12.8-0.1-14.7C146.7,394,112.5,388.4,110,377.8z M402.8,378.1c-0.4-1.8-0.3-3.7-0.1-4.7
		c0.6-2.9,2.6-6,8.2-6c5.2,0,8.2,3.2,8.2,8.1c0,1.6,0,5.5,0,5.5h22.2v-6.3c0-19.4-17.4-22.5-30-22.5c-15.9,0-28.8,5.2-31.2,19.8
		c-0.6,4-0.8,7.5,0.2,12c3.9,18.2,35.5,23.5,40.1,35c0.8,2.2,0.6,5,0.2,6.6c-0.7,3-2.7,6-8.7,6c-5.6,0-9-3.2-9-8.1l0-8.6h-23.9v6.9
		c0,19.9,15.6,25.9,32.4,25.9c16.1,0,29.4-5.5,31.5-20.4c1-7.7,0.2-12.7-0.2-14.6C439.2,394.1,405.4,388.5,402.8,378.1z
		 M607.3,427.1l-21.2-72.5h-33.4v89.1h22.1l-1.3-74.8l22.8,74.8h32.1v-89.1h-22.3L607.3,427.1z M182.4,354.6l-16.7,90.1h24.3
		l12.6-83.4l12.3,83.4h24.2l-16.6-90.1H182.4z M318.5,354.6L307.1,425l-11.4-70.4H259l-1.9,90.1h22.5l0.6-83.4l15.5,83.4h22.8
		l15.5-83.4l0.6,83.4h22.6l-2-90.1H318.5z M527.7,354.6H505v66.6c0,1.2,0,2.5-0.2,3.4c-0.5,2.2-2.4,6.5-8.7,6.5
		c-6.2,0-8.1-4.3-8.6-6.5c-0.2-1-0.3-2.3-0.2-3.4v-66.6h-22.8v64.6c0,1.7,0.1,5.1,0.2,6c1.6,16.8,14.8,22.3,31.4,22.3
		c16.6,0,29.8-5.5,31.4-22.3c0.1-0.9,0.3-4.3,0.2-6V354.6z M684.1,394.1v13.1h9.2v13c0,1.2,0,2.4-0.2,3.4c-0.4,2.4-2.7,6.6-9.2,6.6
		c-6.5,0-8.8-4.1-9.2-6.6c-0.2-1-0.2-2.3-0.2-3.4v-41.2c0-1.5,0.1-3,0.4-4.3c0.4-2.2,2.4-6.5,9-6.5c6.9,0,8.6,4.6,9,6.5
		c0.3,1.3,0.3,3.5,0.3,3.5v5h22.7v-3c0,0,0.1-3.1-0.2-6c-1.7-16.9-15.6-22.2-31.6-22.2c-16,0-29.6,5.4-31.6,22.2
		c-0.2,1.5-0.5,4.3-0.5,6v37.9c0,1.6,0.1,2.9,0.4,5.9c1.5,16.4,15.7,22.3,31.6,22.3c16,0,30.2-5.8,31.7-22.3c0.3-3,0.3-4.3,0.3-5.9
		v-24.1H684.1z"/>
</g>
<g id="LinkedIn">
</g>
</svg>
