<?xml version="1.0" encoding="utf-8"?>
<!-- Generator: Adobe Illustrator 24.2.1, SVG Export Plug-In . SVG Version: 6.00 Build 0)  -->
<svg version="1.1" xmlns="http://www.w3.org/2000/svg" xmlns:xlink="http://www.w3.org/1999/xlink" x="0px" y="0px"
	 viewBox="0 0 800 800" style="enable-background:new 0 0 800 800;" xml:space="preserve">
<style type="text/css">
	.st0{fill:#0000fd;}
	.st1{fill-rule:evenodd;clip-rule:evenodd;fill:#0000fd;}
</style>
<g id="Rowse_Honey">
</g>
<g id="Absolut">
</g>
<g id="Hilton_Hotels">
</g>
<g id="M_x26_S">
</g>
<g id="RedBull">
</g>
<g id="YoSushi">
</g>
<g id="Pepsico">
</g>
<g id="Nivea">
</g>
<g id="Nike">
</g>
<g id="Innocent">
</g>
<g id="Beefeater">
</g>
<g id="Lego">
	<g>
		<path class="st1" d="M662.7,277.7v-3.2h3.2c1.6,0,3.2,0,3.2,1.6c0,1.6-1.6,1.6-3.2,1.6H662.7L662.7,277.7z M672.3,287.3l-1.6-3.2
			c-1.6-3.2-1.6-3.2-3.2-3.2l0,0c3.2-1.6,4.8-3.2,4.8-4.8c0-3.2-1.6-4.8-4.8-4.8h-8v16h3.2v-6.4l0,0c1.6,0,3.2,0,3.2,0
			c0,1.6,1.6,3.2,1.6,3.2l1.6,3.2H672.3L672.3,287.3z M665.9,268.1c6.4,0,11.2,4.8,11.2,11.2c0,6.4-4.8,11.2-11.2,11.2
			c-6.4,0-12.8-4.8-12.8-11.2C653.1,272.9,659.5,268.1,665.9,268.1L665.9,268.1z M665.9,264.9c-8,0-14.4,6.4-14.4,14.4
			c0,8,6.4,14.4,14.4,14.4c8,0,14.4-6.4,14.4-14.4C680.3,271.3,673.9,264.9,665.9,264.9L665.9,264.9z"/>
		<g>
			<path class="st0" d="M585.8,280.9c-30.4,0-52.9,11.2-67.3,28.8c-1.6-4.8-3.2-6.4-6.4-9.6c-12.8-14.4-32-20.8-57.6-20.8
				c-24,0-46.5,8-60.9,20.8c-6.4-12.8-25.6-20.8-46.4-20.8c-28.8,0-59.2,4.8-78.5,33.6c0-9.6-1.6-16-8-22.4
				c-6.4-8-19.2-9.6-30.4-9.6c-20.8,0-36.9,9.6-48.1,27.2c-16,27.2-56.1,113.7-54.4,155.4c0,27.2,17.6,48.1,51.2,48.1
				c24,1.6,44.9-6.4,57.7-19.2c11.2,12.8,28.8,20.8,49.6,20.8c22.4,0,46.4-8,59.3-22.4c12.8,14.4,30.4,22.4,52.8,22.4
				c32,0,57.7-14.4,75.3-36.9c9.6,25.7,35.3,36.9,60.9,36.9c59.3,0,84.9-41.6,105.7-105.7c4.8-14.4,11.2-38.4,12.8-57.7
				C654.7,316.1,640.3,280.9,585.8,280.9z M233.4,457c-1.6,30.4-30.4,36.9-54.5,36.9c-17.6,0-33.6-8-33.6-28.8
				c0-36.8,35.2-118.5,52.9-145.7c8-12.8,17.6-19.2,32-19.2c16,0,19.2,6.4,19.2,16c-1.6,24-40,96.1-52.9,124.9
				C227,436.2,235,447.4,233.4,457z M348.8,391.4c-6.4,24-27.2,25.6-52.9,20.8c-1.6,6.4-6.4,17.6-9.6,30.4
				c11.2-3.2,17.6-4.8,30.4-4.8c14.4,0,24,6.4,24,19.2c0,28.8-32,36.9-54.4,36.9c-24,0-46.4-12.8-46.4-40
				c0-32.1,17.6-80.1,33.6-112.2c19.2-38.4,40-44.8,73.7-44.8c16,0,33.6,6.4,33.6,20.8c0,20.8-17.6,28.8-33.6,28.8
				c-8,1.6-19.2,1.6-25.6,0c0,0-4.8,9.6-11.2,24C342.4,367.4,355.2,373.8,348.8,391.4z M483.3,415.4c-9.6,43.3-40,78.5-84.9,78.5
				c-28.8,0-48.1-16-48.1-46.5c0-22.4,11.2-56.1,19.2-76.8c19.2-41.7,36.8-72.1,86.5-72.1c28.8,0,51.2,9.6,48,38.4
				c-1.6,19.2-11.2,32-30.4,32c-4.8,1.6-25.6,0-19.2-19.2c3.2-6.4,3.2-12.8-6.4-12.8c-8,0-14.4,6.4-17.6,11.2
				c-9.6,12.8-28.8,64.1-32,84.9c-1.6,14.4,4.8,16,11.2,16c11.2,0,22.4-11.2,27.2-28.8c0,0-20.8-1.6-16-19.2
				c6.4-17.6,16-22.4,33.6-22.4C488.1,377,484.9,402.6,483.3,415.4z M632.2,373.8c-4.8,25.7-17.6,56.1-30.4,78.5
				c-19.2,36.8-44.8,41.6-65.7,41.6c-22.4,0-46.5-8-46.5-41.6c-1.6-24,9.6-57.7,17.6-80.1c16-41.6,32-73.7,81.7-73.7
				C646.7,298.5,637.1,351.4,632.2,373.8z"/>
			<path class="st0" d="M582.6,338.6c-4.8,0-9.6,0-12.8,6.4c-9.6,11.2-35.2,81.7-33.6,96.1c0,4.8,3.2,9.6,8,9.6
				c8,0,11.2-4.8,14.4-11.2c8-14.4,32-75.3,32-91.3C590.6,343.3,590.6,338.6,582.6,338.6z"/>
		</g>
	</g>
</g>
<g id="Samsung">
</g>
<g id="LinkedIn">
</g>
</svg>
