<?xml version="1.0" encoding="utf-8"?>
<!-- Generator: Adobe Illustrator 24.2.1, SVG Export Plug-In . SVG Version: 6.00 Build 0)  -->
<svg version="1.1" xmlns="http://www.w3.org/2000/svg" xmlns:xlink="http://www.w3.org/1999/xlink" x="0px" y="0px"
	 viewBox="0 0 800 800" style="enable-background:new 0 0 800 800;" xml:space="preserve">
<style type="text/css">
	.st0{fill:#0000fd;}
	.st1{fill-rule:evenodd;clip-rule:evenodd;fill:#0000fd;}
</style>
<g id="Rowse_Honey">
</g>
<g id="Absolut">
</g>
<g id="Hilton_Hotels">
</g>
<g id="M_x26_S">
</g>
<g id="RedBull">
</g>
<g id="YoSushi">
</g>
<g id="Pepsico">
</g>
<g id="Nivea">
</g>
<g id="Nike">
</g>
<g id="Innocent">
</g>
<g id="Beefeater">
	<g>
		<path id="XMLID_35_" class="st0" d="M160.2,376.9c9.8-6.5,15.4-16.2,15.6-30.3c-0.2-21.6-14-35.2-44.3-34.2l-24.7,0l-4.7,0
			c1.6,1.3,3.9,6.3,3.9,13.5l0,124.8c0,8.5-2.5,13.7-3.9,15.8c5.7-1.1,26.4-6.4,34.3-8.6c42.1-9.2,42.9-41.4,42.9-50.1
			C179.3,401.1,175.7,382.8,160.2,376.9 M132,370.3l0-41l5.7,0c10.1-0.3,13.6,7.8,13.6,19.6c-0.1,8.3-3,20-12,20.7
			C136.5,370,132,370.3,132,370.3 M132,436.3l0-49.2c1.1-0.3,3.5-0.9,5.3-1c10.2-0.3,15.5,9.3,15.8,20.5c0,12.3-4,25.4-14.4,28.4
			C138.7,435,136.3,435.8,132,436.3"/>
		<path id="XMLID_34_" class="st0" d="M230.2,380.7l4.1-18.2c-7.5,0.1-16.5,0.9-24,1l0-33.1l13.8,0c3.4,0,7.7,1.2,9.9,3.5
			c1.6-8.5,2.7-13.8,4.4-21.5l-57.6,0c1.6,1.3,4.3,5.8,4.3,11.8l0,103.2c0,7.7-2.9,17.7-4.4,19.5c18.9-3.8,35.5-7.1,54.6-10
			c1.7-9.4,2.8-15.6,4.5-25.1c-1.4,1.3-7.2,3.4-12.9,4.2c-5.8,0.7-11.6,1.5-16.6,2.1l0-36.2C212.4,381.7,230.2,380.7,230.2,380.7"/>
		<path id="XMLID_31_" class="st0" d="M610.1,446.9c8.3,1.4,33,7.3,33,7.3c-2.9-3.8-4-8.4-4-16l0-46.4c2.9,0.1,4.7,0.1,6.8-0.1
			c0,0,14.5,46.1,21.3,67.4c7.9,2.1,28.5,8.3,30.2,8.6c-4.2-4.5-13.2-33.2-14-35.7c-5.8-18.6-9.7-29.9-15.6-46.3
			c14.2-9.3,17.5-24.5,17.7-34.7c-1-35.8-25.5-38.6-46.3-38.5l-0.4,0l-24.3,0l-4.2,0c1.3,1.1,4.2,5.4,4.2,13.5l0,107
			C614.4,437.2,611.5,445.5,610.1,446.9 M639.1,330.1l6.9,0c11.4,0.1,14.5,12.1,14.7,22.5c-0.2,9.9-3.9,24.3-21.6,21.5L639.1,330.1z
			"/>
		<path id="XMLID_28_" class="st0" d="M466.3,425.6c9.3,0.1,20.9,1.1,29.3,2.1c0,0-15-79.9-22.6-115.3l-33.9,0c-2.7,0-1,0.1-3.7,0.1
			c1.4,1.1,2.2,7.9,1.5,11.9c-5.2,28-12.1,58.5-17.6,87.3c-1.6,7.1-2.6,11.8-2.6,11.8l26.2,0.8c-1.9-3.4-1.8-8.1-1.2-11.9
			c0.8-5.1,1.7-9.9,2.7-15.9c7.2,0.1,13.9,0.3,21.1,0.5c1,6.1,2,11.1,3,17.3C469.5,418.8,467.7,424.5,466.3,425.6L466.3,425.6z
			 M447.3,379.7c2.7-16.1,5.1-32.6,7.8-48c2.6,15.4,5.1,31.6,7.8,48l0.2,0.3C457.7,380,452.7,379.8,447.3,379.7"/>
		<path id="XMLID_27_" class="st0" d="M286.6,408.9c-5.3,0.4-10.8,1-15.9,1.4l0-32.4c4.5-0.1,16.3-1.5,20.4-1.6
			c0,0,2.2-9.4,3.6-17.2c-7.5,0.1-16.5,1.4-24,1.5l0-30.2c6.3,0,9.9-0.1,12.5,0c4.8,0,6.7,0.6,11.1,3.4c1.6-8.4,2.7-13.6,4.4-21.2
			l-53.2,0l-4.2,0c1.5,1.2,4.2,6.5,4.2,12.5l0,95.4c0,6.7-3.3,14.3-4.8,15.9l4.2-0.7c16-2.4,33.4-5.6,49.9-7.3
			c0,0,2.7-13.5,4.4-22.4C297.7,407,291,408.5,286.6,408.9"/>
		<path id="XMLID_26_" class="st0" d="M404.3,405.1l-15.4,0l0-29.4l20.9,0.2l3.1-16.8l-24,0l0-28.9c3.1,0,11.2-0.1,16,0
			c3.4,0,7.6,0.9,9.7,3.4c1.7-8.3,2.8-13.5,4.4-21.2l-55.1,0l-4.5,0c1.3,1,4.3,5.5,4.3,11.3l0,87.5c0,7.1-2.8,11.6-4.2,12.8
			c2.7-0.1,1.5,0,4.2,0c16.3-0.3,31.9-0.6,48.4-0.4c1.6-7.9,2.9-14.3,4.6-22.7C415,402,410.2,405.1,404.3,405.1"/>
		<path id="XMLID_25_" class="st0" d="M594.9,418.9c-5.2-0.9-8.9-1.2-15.2-2.8l0-35c2.1,0.1,20.8,1,20.8,1
			c1.4-8.5,1.7-10.4,3.2-18.7l-24-0.4l0-32.5l13.5,0c3.5,0,8.6,2.3,10.1,4.2c1.6-8.7,2.8-14.6,4.5-22.3l-57.6,0
			c1.6,1.3,4.3,5.1,4.3,11.9l0,97.8c0.4,5.9-2.7,11.4-4.2,12.7c19.2,2.9,33.2,6.3,52.4,10.2l4.6-28C604,419.8,596.6,419,594.9,418.9
			"/>
		<path id="XMLID_24_" class="st0" d="M501.1,428.4c16.8,1.4,33.3,4.2,33.3,4.2c-0.7-0.7-4.2-5.9-4.2-14.2l0.1-88.1l7.9,0
			c4.8,0,8.7,2.3,10.5,3.6c-0.4-8.4-0.6-12.7-0.9-21.5l-61.7,0c-0.6,10.1-0.4,12.9-1,21.4c1.8-1.1,7.1-3.5,11.3-3.5l9.1,0l0,85.2
			C505.5,421.1,502.6,427.1,501.1,428.4"/>
		<path id="XMLID_21_" class="st0" d="M300.4,427.7L300.4,427.7L300.4,427.7L300.4,427.7z M343.2,330.2c0.5,0,1,0,1.5,0
			c2.8,0,5.7,0.8,9.1,3.5c1.6-8.3,2.8-13.7,4.4-21.3l-57.4,0c1.5,1.2,4.1,6,4.1,11.3l0,90.7c0,7.4-3.1,11.8-4.6,13.2
			c15.9-1.9,22.3-2.4,34-2.9l0,0h0c-3.2-3.3-4.2-9-4.2-11.9l0-36.7l20.9-0.1l3.1-16.9l-24,0.1l0-29.1c0.7,0,1.4,0,2.3,0L343.2,330.2
			z"/>
		<path id="XMLID_4_" class="st0" d="M684.9,319.4c0-3.4,2.8-6.1,6.1-6.1c3.4,0,6.1,2.7,6.1,6.1c0,3.4-2.7,6.1-6.1,6.1
			C687.6,325.5,684.9,322.7,684.9,319.4 M684.1,319.4c0,3.8,3.1,6.9,6.9,6.9c3.8,0,6.9-3.1,6.9-6.9c0-3.8-3.1-6.9-6.9-6.9
			C687.2,312.5,684.1,315.5,684.1,319.4"/>
		<path id="XMLID_1_" class="st0" d="M688.4,322.8h1v-3.1h1.9l2,3.1h1.2l-2-3.2c1.3-0.2,1.7-1.1,1.7-2.1c0-1.7-1.2-2.1-2.4-2.1h-3.3
			V322.8z M689.4,316.3h2.2c0.9,0,1.5,0.3,1.5,1.3c0,1-0.6,1.3-1.5,1.3h-2.2V316.3z"/>
		<g>
			<path class="st0" d="M316.9,482.7v6.2h-25v-32.5h7.4v26.3H316.9z"/>
			<path class="st0" d="M329.2,487.6c-2.4-1.3-4.3-3.3-5.6-5.8c-1.3-2.6-1.9-5.6-1.9-9.2c0-3.5,0.6-6.6,1.9-9.1
				c1.3-2.5,3.1-4.5,5.6-5.8c2.4-1.3,5.3-2,8.7-2s6.3,0.7,8.7,2c2.4,1.3,4.3,3.3,5.5,5.8c1.3,2.5,1.9,5.6,1.9,9.1
				c0,3.6-0.6,6.6-1.9,9.2c-1.3,2.6-3.1,4.5-5.5,5.8c-2.4,1.3-5.3,2-8.7,2S331.6,489,329.2,487.6z M344,480.3
				c1.5-1.8,2.2-4.4,2.2-7.7c0-3.3-0.7-5.8-2.2-7.7c-1.5-1.8-3.5-2.7-6.1-2.7c-2.6,0-4.6,0.9-6.1,2.7c-1.5,1.8-2.2,4.4-2.2,7.7
				c0,3.3,0.7,5.8,2.2,7.7c1.5,1.8,3.5,2.7,6.1,2.7C340.5,483.1,342.5,482.2,344,480.3z"/>
			<path class="st0" d="M392.8,456.4v32.5h-7.4l-16.8-20.8v20.8h-6.9v-32.5h7.4l16.8,20.8v-20.8H392.8z"/>
			<path class="st0" d="M424.4,457.7c2.6,0.8,4.8,2.4,6.8,4.8c1.9,2.4,2.9,5.7,2.9,9.9c0,5.3-1.5,9.4-4.5,12.3
				c-3,2.9-7.4,4.3-13.2,4.3h-13.6v-32.5h14.1C419.3,456.4,421.8,456.8,424.4,457.7z M423.8,480c1.6-1.8,2.3-4.2,2.3-7.1
				c0-2.8-0.8-5.3-2.3-7.3c-1.5-2-4.2-3-8-3h-5.8v20h5.3C419.5,482.7,422.3,481.8,423.8,480z"/>
			<path class="st0" d="M447.4,487.6c-2.4-1.3-4.3-3.3-5.6-5.8c-1.3-2.6-1.9-5.6-1.9-9.2c0-3.5,0.6-6.6,1.9-9.1
				c1.3-2.5,3.1-4.5,5.6-5.8c2.4-1.3,5.3-2,8.7-2c3.4,0,6.3,0.7,8.7,2c2.4,1.3,4.3,3.3,5.5,5.8c1.3,2.5,1.9,5.6,1.9,9.1
				c0,3.6-0.6,6.6-1.9,9.2c-1.3,2.6-3.1,4.5-5.5,5.8c-2.4,1.3-5.3,2-8.7,2C452.7,489.7,449.8,489,447.4,487.6z M462.2,480.3
				c1.5-1.8,2.2-4.4,2.2-7.7c0-3.3-0.7-5.8-2.2-7.7c-1.5-1.8-3.5-2.7-6.1-2.7c-2.6,0-4.6,0.9-6.1,2.7c-1.5,1.8-2.2,4.4-2.2,7.7
				c0,3.3,0.7,5.8,2.2,7.7c1.5,1.8,3.5,2.7,6.1,2.7C458.7,483.1,460.7,482.2,462.2,480.3z"/>
			<path class="st0" d="M510.9,456.4v32.5h-7.4l-16.8-20.8v20.8h-6.9v-32.5h7.4l16.8,20.8v-20.8H510.9z"/>
		</g>
	</g>
</g>
<g id="Lego">
</g>
<g id="Samsung">
</g>
<g id="LinkedIn">
</g>
</svg>
