<?xml version="1.0" encoding="utf-8"?>
<!-- Generator: Adobe Illustrator 24.2.1, SVG Export Plug-In . SVG Version: 6.00 Build 0)  -->
<svg version="1.1" xmlns="http://www.w3.org/2000/svg" xmlns:xlink="http://www.w3.org/1999/xlink" x="0px" y="0px"
	 viewBox="0 0 800 800" style="enable-background:new 0 0 800 800;" xml:space="preserve">
<style type="text/css">
	.st0{fill:#0000fd;}
	.st1{fill-rule:evenodd;clip-rule:evenodd;fill:#0000fd;}
</style>
<g id="Rowse_Honey">
</g>
<g id="Absolut">
</g>
<g id="Hilton_Hotels">
</g>
<g id="M_x26_S">
	<g>
		<path class="st0" d="M265.5,570.4v-40.6h25.9v5.1h-20.6V547h18.4v5h-18.4v13.2h21.6v5.1 M332.4,539.1l-4.7,1.8
			c-1.3-4.2-5.3-6.8-9.7-6.8c-4.7,0-7.8,2.5-7.8,6.4c0,9.1,22.7,4.2,22.7,18.6c0,6.5-5.8,11.9-14.5,11.9c-7.5,0-12.7-3.2-15.8-9.7
			l4.5-2.7c1.7,3.9,4.7,7.6,11.4,7.6c5.8,0,9.1-2.9,9.1-7.1c0-8.8-22.7-4.5-22.7-18.3c0-8.5,7.5-11.5,13-11.5
			C324.1,529.2,330.2,532.1,332.4,539.1 M340.9,529.8h31.8v5.1h-13.2v35.5h-5.3v-35.5h-13.2V529.8z M386.1,567.3
			c0,2-1.4,3.4-3.3,3.4c-2,0-3.3-1.5-3.3-3.4c0-1.9,1.3-3.4,3.3-3.4C384.8,563.9,386.1,565.5,386.1,567.3 M426.8,570.4h-5.2v-35.9
			h-5.1v-4.7h10.3 M468.5,540.3c0,4.1-2,7-5.6,8.9c3.8,1.7,6.8,4.7,6.8,9.5c0,7-5.2,12.1-14.3,12.1c-9.1,0-14.3-4.9-14.3-12.1
			c0-4.7,3.1-7.8,6.8-9.5c-3.5-1.9-5.5-4.8-5.5-8.9c0-7.2,5.8-10.9,13-10.9C462.7,529.4,468.5,533.1,468.5,540.3 M464.5,558.8
			c0-4.9-4.3-7.3-9-7.3s-9,2.4-9,7.3c0,5.2,3.9,7.6,9,7.6C460.6,566.4,464.5,563.9,464.5,558.8 M463.5,540.6c0-4.3-2.8-6.8-7.9-6.8
			s-7.9,2.5-7.9,6.8c0,4,3.7,6.4,7.9,6.4C459.6,547.1,463.5,544.9,463.5,540.6 M508.7,540.3c0,4.1-2,7-5.6,8.9
			c3.8,1.7,6.8,4.7,6.8,9.5c0,7-5.2,12.1-14.3,12.1c-9.1,0-14.3-4.9-14.3-12.1c0-4.7,3.1-7.8,6.8-9.5c-3.5-1.9-5.5-4.8-5.5-8.9
			c0-7.2,5.8-10.9,13-10.9C502.8,529.4,508.7,533.1,508.7,540.3 M504.7,558.8c0-4.9-4.3-7.3-9-7.3s-9,2.4-9,7.3c0,5.2,3.9,7.6,9,7.6
			C500.7,566.4,504.7,563.9,504.7,558.8 M503.6,540.6c0-4.3-2.8-6.8-7.9-6.8s-7.9,2.5-7.9,6.8c0,4,3.7,6.4,7.9,6.4
			C499.7,547.1,503.6,544.9,503.6,540.6 M538.6,560.8h-19.1v-5.1l19.1-25.9h5.1V556h4.4v4.8h-4.4v9.6h-5L538.6,560.8z M538.6,556
			V537L524.9,556H538.6z M316.2,257.4v193.9h-17.8V292.9l-63.9,123.9h-12.5l-63.9-123.6v158.1h-17.8V257.4H159l69.4,133.9
			l69.4-133.9H316.2z M504.9,454.1l-32.2-34.4C461,438,445.1,451.3,419,451.3c-33.6,0-58.3-23.3-58.3-51.9
			c0-23.9,14.7-38.6,43.1-54.7c-16.1-16.1-25-29.4-25-45.3c0-23.1,19.5-41.4,43.1-41.4c25,0,43.6,18.3,43.6,41.4
			c0,22.2-17.5,37.2-35,48.6l40,43.6l23.6-38.3l14.2,8.9l-26.1,42.5l35.8,38L504.9,454.1z M414.9,356.8
			c-25.3,13.9-36.4,25-36.4,42.2c0,19.7,17.8,36.1,40.6,36.1c20.6,0,31.1-9.4,42.5-27.8L414.9,356.8z M396.2,299.3
			c0,10.8,7.2,20,23.1,37c18.6-10.8,28.9-22.2,28.9-37c0-14.5-9.7-25.8-26.4-25.8C406.3,273.5,396.2,285.7,396.2,299.3 M668.2,298.8
			l-16.1,5.8c-6.4-20.3-24.5-33.3-48.9-33.3c-26.7,0-44.2,13.3-44.2,35.8c0,48.3,110.6,22.8,110.6,90.8c0,32.5-26.1,55.3-65,55.3
			c-36.1,0-57.8-17.2-72.8-44.7l15-9.2c10,21.1,28.3,37.5,56.1,37.5c32.2,0,48.9-14.7,48.9-39.2c0-48.6-110.6-24.7-110.6-90.8
			c0-39.2,35.3-51.9,61.4-51.9C632.1,254.9,658.8,268.2,668.2,298.8"/>
	</g>
</g>
<g id="RedBull">
</g>
<g id="YoSushi">
</g>
<g id="Pepsico">
</g>
<g id="Nivea">
</g>
<g id="Nike">
</g>
<g id="Innocent">
</g>
<g id="Beefeater">
</g>
<g id="Lego">
</g>
<g id="Samsung">
</g>
<g id="LinkedIn">
</g>
</svg>
