<?xml version="1.0" encoding="utf-8"?>
<!-- Generator: Adobe Illustrator 24.2.1, SVG Export Plug-In . SVG Version: 6.00 Build 0)  -->
<svg version="1.1" xmlns="http://www.w3.org/2000/svg" xmlns:xlink="http://www.w3.org/1999/xlink" x="0px" y="0px"
	 viewBox="0 0 800 800" style="enable-background:new 0 0 800 800;" xml:space="preserve">
<style type="text/css">
	.st0{fill:#0000fd;}
	.st1{fill-rule:evenodd;clip-rule:evenodd;fill:#0000fd;}
</style>
<g id="Rowse_Honey">
</g>
<g id="Absolut">
</g>
<g id="Hilton_Hotels">
</g>
<g id="M_x26_S">
</g>
<g id="RedBull">
</g>
<g id="YoSushi">
</g>
<g id="Pepsico">
</g>
<g id="Nivea">
</g>
<g id="Nike">
</g>
<g id="Innocent">
	<g>
		<path class="st0" d="M274.9,406.8H289v48.7h-14.1V406.8z M282,386.8c2.5,0,4.6,0.8,6.3,2.3c1.8,1.5,2.6,3.4,2.6,5.6
			c0,2.2-0.9,4-2.6,5.6c-1.7,1.5-3.8,2.3-6.2,2.3c-2.5,0-4.6-0.8-6.4-2.3c-1.8-1.6-2.6-3.5-2.6-5.7c0-2.1,0.9-4,2.6-5.5
			C277.5,387.5,279.6,386.8,282,386.8"/>
		<path class="st0" d="M303.1,406.8h14.1v5c3.2-2.3,6.1-3.9,8.7-4.9c2.6-0.9,5.3-1.4,8-1.4c5.6,0,10.3,1.7,14.2,5.1
			c3.3,2.9,4.9,7.1,4.9,12.7v32.2H339v-21.3c0-5.8-0.3-9.7-0.9-11.6c-0.6-1.9-1.6-3.4-3.1-4.4c-1.5-1-3.3-1.5-5.5-1.5
			c-2.9,0-5.3,0.8-7.3,2.5c-2,1.7-3.5,3.9-4.3,6.9c-0.4,1.5-0.6,4.8-0.6,9.9v19.5h-14.1V406.8z"/>
		<path class="st0" d="M365.9,406.8H380v5c3.2-2.3,6.1-3.9,8.7-4.9c2.6-0.9,5.3-1.4,8-1.4c5.6,0,10.3,1.7,14.2,5.1
			c3.3,2.9,4.9,7.1,4.9,12.7v32.2h-14.1v-21.3c0-5.8-0.3-9.7-0.9-11.6c-0.6-1.9-1.6-3.4-3.1-4.4c-1.5-1-3.3-1.5-5.5-1.5
			c-2.9,0-5.3,0.8-7.3,2.5c-2,1.7-3.5,3.9-4.2,6.9c-0.4,1.5-0.6,4.8-0.6,9.9v19.5h-14.1V406.8z"/>
		<path class="st0" d="M453.8,417.2c-4.4,0-8.1,1.3-11,3.9c-2.9,2.6-4.4,6-4.4,10c0,4.2,1.4,7.6,4.3,10.2c2.9,2.6,6.5,3.9,11,3.9
			c4.4,0,8.1-1.3,11.1-3.9c2.9-2.6,4.4-6,4.4-10.2s-1.4-7.5-4.3-10.1C462,418.5,458.3,417.2,453.8,417.2 M453.5,405.6
			c5.3,0,10.3,1.1,15,3.4c4.7,2.3,8.3,5.4,11,9.3c2.6,3.9,3.9,8.2,3.9,12.7c0,4.6-1.3,8.9-4,12.9c-2.6,4-6.2,7.1-10.8,9.4
			c-4.6,2.2-9.6,3.4-15.1,3.4c-8.1,0-15-2.5-20.7-7.4c-5.7-5-8.6-11-8.6-18.1c0-7.6,3.2-13.9,9.7-19
			C439.6,407.8,446.2,405.6,453.5,405.6"/>
		<path class="st0" d="M543.8,416.8l-10.7,5.6c-2-2-4-3.4-6-4.2c-2-0.8-4.3-1.2-6.9-1.2c-4.8,0-8.7,1.4-11.7,4.1
			c-3,2.7-4.5,6.2-4.5,10.4c0,4.1,1.4,7.5,4.3,10.1c2.9,2.6,6.6,3.9,11.3,3.9c5.8,0,10.2-1.8,13.5-5.5l10.1,6.6
			c-5.5,6.8-13.3,10.2-23.3,10.2c-9,0-16.1-2.5-21.2-7.6c-5.1-5.1-7.7-11-7.7-17.8c0-4.7,1.2-9,3.7-13c2.5-4,6-7.1,10.4-9.3
			c4.5-2.3,9.4-3.4,14.9-3.4c5.1,0,9.7,1,13.7,2.9C537.8,410.5,541.2,413.2,543.8,416.8"/>
		<path class="st0" d="M589.2,425.1c-0.9-2.7-2.5-4.8-5-6.5c-2.5-1.7-5.4-2.5-8.7-2.5c-3.6,0-6.7,0.9-9.5,2.8
			c-1.7,1.2-3.3,3.2-4.7,6.2H589.2z M602.1,434.7h-41.4c0.6,3.5,2.2,6.2,4.8,8.3c2.6,2,5.9,3.1,9.9,3.1c4.8,0,8.9-1.6,12.4-4.8
			l10.8,4.8c-2.7,3.6-5.9,6.3-9.7,8.1c-3.8,1.7-8.2,2.6-13.4,2.6c-8,0-14.6-2.4-19.6-7.2c-5.1-4.8-7.6-10.8-7.6-18.1
			c0-7.4,2.5-13.6,7.6-18.5c5-4.9,11.4-7.3,19-7.3c8.1,0,14.7,2.4,19.7,7.3c5.1,4.9,7.6,11.3,7.6,19.4L602.1,434.7z"/>
		<path class="st0" d="M612.5,406.8h14.1v5c3.2-2.3,6.1-3.9,8.7-4.9c2.6-0.9,5.3-1.4,8-1.4c5.6,0,10.3,1.7,14.2,5.1
			c3.3,2.9,4.9,7.1,4.9,12.7v32.2h-14.1v-21.3c0-5.8-0.3-9.7-0.9-11.6c-0.6-1.9-1.6-3.4-3.1-4.4c-1.5-1-3.3-1.5-5.5-1.5
			c-2.9,0-5.3,0.8-7.3,2.5c-2,1.7-3.5,3.9-4.3,6.9c-0.4,1.5-0.6,4.8-0.6,9.9v19.5h-14.1V406.8z"/>
		<polygon class="st0" points="677,388.8 691.1,388.8 691.1,406.8 699.5,406.8 699.5,417.3 691.1,417.3 691.1,455.6 677,455.6 
			677,417.3 669.8,417.3 669.8,406.8 677,406.8 		"/>
		<path class="st0" d="M168.4,333.9c-13.2,2.3-51.6,9-48.1,0.5c6.6-16.2,45.9-19.9,45.9-19.9s1,0.5,2.4,2.8
			c1.5,2.3,14.9,0.5,17.6-0.5c2.7-0.9,5.9-5.2,23.9-1.9C228.3,318.2,180,331.8,168.4,333.9 M232.7,310.9
			c-9.8-12.2-31.8-10.8-38.8-9.4c0,0-13-6.6-34-1.4c-21,5.2-53.8,21.3-57.9,41c-4.1,19.6,64,3.5,69.6,2.1
			C177.2,341.8,242.5,323.1,232.7,310.9"/>
		<path class="st0" d="M173.7,420.2c0,0,2.2-16.9-6.7-13.1c-8.9,3.8-8,24.2-2.3,28.6c5.6,4.4,13.5-0.1,12-7.3
			C175.2,421.2,173.7,420.2,173.7,420.2"/>
		<path class="st0" d="M198.3,416c0,0,4.4-6-1.9-10.5c-6.3-4.6-13,6.8-12,14c0.7,5.1,7.8,12.3,12.9,5
			C199.3,421.7,196.4,420.6,198.3,416"/>
		<path class="st0" d="M208.8,463.3c-28.7,15.9-58.1,17.1-58.1,17.1c-38.9,1.1-34.3-29.8-34.3-29.8c1.8-24.4,16.9-42.8,16.9-42.8
			c15.4-21.1,22-20.4,22-20.4c2.2-0.4,5.5,1.2,5.5,1.2c3,2,3.1-0.2,3.1-0.2c1.6-2.4,2.6-1,2.6-1c5.5,6.6,11.1,0.4,11.1,0.4
			c3.4-3.6,13.2-9.3,13.2-9.3c9-5.4,18.5,4.3,18.5,4.3c16.6,13.5,17.1,44.8,17.1,44.8C227.5,454.4,208.8,463.3,208.8,463.3
			 M205.8,363.7c-9.5-3.2-38.5,21.3-38.5,21.3c-3.2-12.4-10.9-11.7-10.9-11.7c-11.6-0.4-24.6,15.7-24.6,15.7
			c-20.8,21.9-26.2,41-26.2,41c-9.8,25.7-2.6,42.8-2.6,42.8c11.5,22.9,42.3,23,42.3,23c23.2,1.6,58.6-16.4,58.6-16.4
			c41.9-18.1,37.4-57.6,37.4-57.6C239,372.7,205.8,363.7,205.8,363.7"/>
	</g>
</g>
<g id="Beefeater">
</g>
<g id="Lego">
</g>
<g id="Samsung">
</g>
<g id="LinkedIn">
</g>
</svg>
