<?xml version="1.0" encoding="utf-8"?>
<!-- Generator: Adobe Illustrator 24.2.1, SVG Export Plug-In . SVG Version: 6.00 Build 0)  -->
<svg version="1.1" xmlns="http://www.w3.org/2000/svg" xmlns:xlink="http://www.w3.org/1999/xlink" x="0px" y="0px"
	 viewBox="0 0 800 800" style="enable-background:new 0 0 800 800;" xml:space="preserve">
<style type="text/css">
	.st0{fill:#0000fd;}
	.st1{fill-rule:evenodd;clip-rule:evenodd;fill:#0000fd;}
</style>
<g id="Rowse_Honey">
	<g>
		<path class="st0" d="M426.4,325.7c-3.4,1.6,2.8,9.5,12.3,11.3c-0.8-2.6-2.2-5.1-3.5-7C431.9,325.5,427.4,325.2,426.4,325.7z"/>
		<path class="st0" d="M428.3,361.9c-4.6-0.1-7.3-1.7-15.3-1.8c-2.7,0-5.5,0.1-8.3,0.8c-6.7,1.4-11.3,3.5-18,7.2
			c-3.5,1.9-5.7,3.7-8.9,5.6c-3.9,2.1-7.4,2-9-0.3c-1.9-2.8-0.7-5.8,3.1-8.4c6.9-4.8,16.4-9.4,26-11.7c7.2-1.8,14.6-2.7,23-2
			c4,0.4,7.9,1,10.3,2.4c-6.7-12.6-16-23-25.8-28.8c-8.3-4.8-17.2-6.1-24-3.7c-10.4,3.7-15.4,12.2-17.7,20.2
			c-3,10.8-1.4,24.7,4.8,41c10.8,28.4,36.5,54.9,54.4,48.1c18-6.8,23.7-38.1,12.9-66.5c-0.6-1.6-1.3-3.2-2-4.8c0,0,0,0,0,0
			C433.1,360.8,431.4,362,428.3,361.9z M437.7,393.6c0.3,1.7-0.5,3.3-2.1,4.2v0c-1.8,1-4,1-5.4,1c-2.7,0-5.8-0.1-9.5,0.8
			c-5.8,1.3-8.5,2.7-13.6,5.7c-4.9,2.9-8.2,5.2-12.4,5.1c-1.9,0-4-1.5-4.1-4.1c0.1-1.7,1.2-3.6,3.9-5.4c2.5-1.9,5.5-3.3,7.6-4.3
			c5.1-2.4,10.6-4.3,15.4-5.5c7.8-1.9,12.8-1.9,16-1C435.3,390.6,437.2,391.4,437.7,393.6z M435.2,373.7c0,2.3-1.4,3.9-5,3.9h-0.1
			c-4-0.1-6.6-1.5-11.7-1.5c-6.7,0-12.8,2.1-20.9,6.5c-3.2,1.8-7.8,5-11.1,7.1c-3.7,2.1-6.6,2.2-8.4-0.1c-1.3-1.6-1.3-4.5,2.1-7.8
			c1.8-1.6,3.5-2.8,5.4-4c4-2.5,9.6-4.9,13.7-6.4c10.1-3.5,18.2-4.6,26.3-3.7C433.5,368.6,435.2,371.7,435.2,373.7z"/>
		<path class="st0" d="M267.4,391.1c11-0.8,22.2-4.9,33.6-11.6c14.5-8.5,26.8-18.8,41.8-32.8c-0.6,32,11.2,63.8,33.1,83.3
			c9.8,8.7,22.9,14.9,34,16c3.9,0.4,6.1,0,6.5-2.2c0.5-2.7-2.6-3.8-6.8-5.6c-15.3-6.3-26.8-15.4-35.5-27.7
			c-12.6-18-20.2-37.4-19.7-64.8c0.1-3.8-0.3-6.2,0.1-10.2c5.6-5,17.3-16.7,24.9-24c4.8-4.6,4.6-8.9,2.5-10.8
			c-3.5-3.2-9-2.1-14.4,3.9c-13.9,15.3-40.4,40.3-57.2,54.5c-8.3,7.1-24.2,18.3-32.9,21.7c-10.3,4-18.2,2.5-22.5-2
			c-7-7.4-4.6-29.4,14.7-47c8-7.3,19.6-16.5,31.8-16.3c3.2,0.1,7.8,1,10.9,2.3c3.3,1.4,4.6,2.8,6.8,4.2c2,1.2,5,3.6,7.6,3.6
			c2.4,0.1,4.9-1.6,5.8-3.7c1.2-2.7-0.9-5.6-3.1-7.1c-2-1.5-4.4-2.4-6.1-3.1c-5.9-2.3-12.1-3.4-18.4-3.5
			c-13.5-0.2-25.8,4.8-35.2,10.6c-14.1,8.7-29.5,24.8-31.1,44.3c-0.7,8.6,1.7,15.9,6.4,20.8C251,390.1,260.1,391.6,267.4,391.1z"/>
		<path class="st0" d="M487.2,265.9c-30-0.7-55.6,6.3-73.5,19.4c-11,8-13.1,15.5-13.1,15.5c-1.6,4.1-1.1,8.2,1.5,9.8
			c3.6,2.2,7.3,0.8,11.2-5.3c7.2-10.9,16.6-19,34.5-25.6c12.3-4.5,25.6-6.7,39.2-6.5c30,0.3,44.6,12.3,45.3,24.6
			c0.5,8.7-4.2,22.8-30,32.5c-16,6-34.6,9.1-50.4,7.6c-2.3-4-5.7-9.6-9.2-12.5c-8.5-7.2-17.2-7.6-21.6-3.6c-3.2,2.9-4,8.7,0.4,13.9
			c3.8,4.6,12.2,6.9,19.9,8c5.9,14.1,9.3,31.7,9,47.9c-0.3,17.2-5.8,34-16.4,42.5c-2.1,1.5-3.4,2.8-2.9,4.3c0.5,1.7,2.6,1.6,5.5,1
			c7.4-1.6,12.1-7.5,16-13.4c6-9.2,8.8-22.1,9.5-36.6c0.4-9.1,0.1-19.9-2.3-26.3c9.7,8.1,22.8,15.5,36.4,17.1
			c4.6,0.5,8.1,0.7,12.1,0.2c4.3-0.5,4.2-2.1,3.6-3.6c-0.8-1.9-3.7-1.7-9.7-2.9c-15-2.7-30.5-13.6-44.1-26.7
			c16.2,0.9,36.3-0.8,53.6-7.4c22.2-8.4,35.7-22,35.5-38.7C546.8,282.5,526.4,266.9,487.2,265.9z M426.4,325.7
			c1-0.5,5.5-0.2,8.8,4.3c1.4,1.9,2.7,4.3,3.5,7C429.2,335.2,423,327.2,426.4,325.7z"/>
		<path class="st0" d="M317.1,261.3c4.8-0.6,8.5-2.9,10.1-6.1c0.7-1.1,0.6-2.9-0.3-3.7c-0.4-0.4-0.9-0.6-1.4-0.5
			c-1.2,0.1-2.1,1.1-2.9,2c-1.9,2.1-6.1,2-7.3,0.2c-1.4-2.1-0.6-4.2,1-5.6c2.3-2,7.8-1.7,10.3-0.5c7.6,3.4,11.8,8.9,19.7,17.4
			c4.9,5.3,9.2,11.6,12.2,17.2l-0.7,0.7c-4,4.5-7.3,11.8-6.9,17.1c0,1.8,1.3,3,3.6,3.1l0.1,0c3.7,0.1,6-2,6-4.3
			c0.4-5.9,3-13.1,7.7-17.3c3.3-3,7.7-4.8,12.1-4.7c4.7,0.2,9.5,3.7,12.6,7.2c1.3,1.4,3.6,1.6,6,0.6c1.9-0.8,2.5-2.6,1.5-3.8
			c-2.3-3.1-6.1-5.8-10.9-7.3c-2.4-0.8-5-1.2-7.5-1.3c-0.7-6.8-1.1-15.6-1.1-23.5c0.1-15.9,3.1-37.4,10-40.3
			c2.1-0.9,4.2-0.5,5.5,0.8c1.1,1,1.6,4.3-2.2,6c-1,0.4-2.1,0.8-2.9,0.8c-1.6,0.3-2.3,1.5-2.1,2.6c-0.1,0.7,0.7,1.6,2,2.1
			c2.8,0.7,5.8,0.4,8.6-1.2c4.7-2.6,5.3-7.3,3.5-10.8c-1.6-3.2-5.4-5.1-9.6-4.8c-5.6,0.4-10.1,3.7-13.1,7.5
			c-6.4,8.2-9.2,21.6-9.8,34.9c-0.4,9.3,0.1,19.5,0.8,27.3c-0.6,0.2-1.1,0.4-1.6,0.6c-1,0.4-2,0.9-3.1,1.5
			c-5.3-9.2-14.2-19.4-21.5-25.3c-6.4-5.1-14.6-9.1-22.6-8.8c-4.4,0.2-7.8,1.6-10.3,3.5c-5,3.8-5.9,9.5-4.1,12.9
			C310.2,260.4,313.5,261.7,317.1,261.3z"/>
		<polygon class="st0" points="268.1,432.1 268.5,432.3 268.6,432.3 270.7,433.4 271.3,433.4 271.3,433.4 273.3,432.4 273.3,432.3 
			274.1,431.9 274.5,431.4 274.5,428.7 274.5,428.6 274.2,428 274.1,428 273.4,427.7 271.2,426.5 270.7,426.5 268.5,427.7 
			267.8,428 267.5,428.6 267.5,431.4 267.8,431.9 268,432.1 		"/>
		<path class="st0" d="M290.9,436.8c-0.6,0-1.5-0.3-2.4-0.7c-0.4-0.2-0.7-0.6-0.9-0.9c-0.3-0.5-0.7-1-1.4-1c-0.5,0-0.9,0.6-0.9,1
			c0,1.9,2.9,3.4,5.3,3.4c2.8,0,5.8-1.8,5.8-5.1c0-3-2.6-3.7-5-4.3c-1.8-0.5-3.4-0.9-3.4-2.3c0-1.4,1.4-2,2.7-2
			c1.7,0,2.6,0.9,3.2,1.6c0.4,0.4,0.7,0.7,1.1,0.7l0.3-0.1l0.2-1.2v-0.2c0-0.7,0-1.1-0.7-1.5c-1.1-0.6-2.5-1-3.9-1
			c-3,0-5.3,1.9-5.3,4.5c0,3.1,2.5,3.7,4.7,4.3c1.8,0.4,3.4,0.8,3.4,2.5C293.9,435.9,292.4,436.8,290.9,436.8z"/>
		<path class="st0" d="M303.3,419.2c0-1-0.8-1.7-1.8-1.7c-1.1,0-1.9,0.8-1.9,1.8c0,1,0.7,1.8,1.7,1.8
			C302.6,421.1,303.3,420.3,303.3,419.2z"/>
		<path class="st0" d="M298.7,425.2c0,0.5,0.6,0.7,1,0.7c1,0.2,1,0.9,1,2.2v6.5c0,1.3,0,1.6-1,1.8c-0.3,0.1-0.7,0.3-0.7,0.8
			c0,0.8,0.8,0.8,1.2,0.8h3.4c0.4,0,1.2,0,1.2-0.8c0-0.5-0.4-0.7-0.9-0.9c-0.6-0.2-0.7-0.5-0.7-2.2v-7.1c0-3.7-0.4-4-1.1-4
			c-0.3,0-0.9,0.3-1.3,0.4l-0.2,0.1C299,424.5,298.7,424.7,298.7,425.2z"/>
		<path class="st0" d="M321,424.8c-1-1.1-2.5-1.7-4-1.7c-2.2,0-3.8,0.7-5.2,2.4c-0.2-1.5-0.5-2.4-1.4-2.4c-0.5,0-1,0.5-1.4,0.8
			l-0.2,0.2l-0.1,0.1c-0.3,0.2-0.7,0.6-0.7,1c0,0.4,0.5,0.6,1,0.8l0.1,0c0.4,0.1,0.5,0.5,0.5,2v6.2c0,1.8-0.2,2-0.7,2.2
			c-0.6,0.2-0.9,0.4-0.9,0.8c0,0.9,0.8,0.9,1.3,0.9h3.6c0.6,0,0.9-0.4,0.9-0.9c0-0.5-0.4-0.7-1-0.9c-0.6-0.2-0.6-0.5-0.6-2.2v-5
			c0-1.2,0.1-2,0.9-2.8c0.9-0.8,2.1-1.2,3.2-1.2c2.2,0,3.4,1.2,3.4,3.5v5.6c0,1.5-0.1,1.9-0.5,2.2l-0.3,0.2
			c-0.3,0.2-0.6,0.3-0.6,0.7l0.2,0.7l0.5,0.2l0.3,0l0.2,0h3.3c0.5,0,0.9-0.3,0.9-0.9c0-0.5-0.4-0.7-1.1-0.9
			c-0.3-0.1-0.4-0.4-0.4-2.1v-5C322.3,427.4,322,426,321,424.8z"/>
		<path class="st0" d="M338.4,434.8c0-0.4-0.3-0.7-0.7-0.7c-0.5,0-0.8,0.4-1,0.7l-0.1,0.1c-0.8,1-2.2,1.6-3.7,1.6
			c-3,0-4.5-2.7-4.5-5.4c0-3,1.7-6.1,4.2-6.1c1.6,0,2.1,0.8,2.6,1.5c0.4,0.6,0.7,1.1,1.6,1.1c0.7,0,1.2-0.7,1.2-1.3
			c0-1.6-2.3-3-4.7-3c-4.3,0-7.6,3.4-7.6,8c0,4.4,2.8,7.4,6.9,7.4c1.7,0,3.2-0.6,4.6-1.8C337.4,436.5,338.4,435.5,338.4,434.8z"/>
		<path class="st0" d="M354.2,427.2c0-2-1.9-4-5.2-4c-4.5,0-8.2,3.7-8.2,8.3c0,4,3.2,7.1,7.3,7.1c1.5,0,3.1-0.5,4.5-1.4
			c0.1-0.1,2-1.3,2-2.5c0-0.4-0.3-0.7-0.7-0.7c-0.3,0-0.6,0.3-1.1,0.7c-0.8,0.7-2,1.9-4.2,1.9c-2.4,0-4.4-1.5-4.9-3.7
			c2.4-0.3,4.7-0.5,6.7-1.3C352.2,430.8,354.2,429.5,354.2,427.2z M343.6,431.1c0-2,0.6-3.7,1.7-4.8c0.9-0.9,2.1-1.4,3.6-1.4
			c1.6,0,2.6,0.8,2.6,2.2C351.5,430.3,346.1,430.9,343.6,431.1z"/>
		<polygon class="st0" points="543.1,433.4 543.1,433.4 545.1,432.4 545.2,432.3 546,431.9 546.3,431.4 546.3,428.7 546.3,428.6 
			546,428 546,428 545.3,427.7 543.1,426.5 542.5,426.5 540.3,427.7 539.6,428 539.3,428.6 539.3,431.4 539.6,431.9 539.9,432.1 
			539.9,432.1 540.3,432.3 540.4,432.3 542.5,433.4 		"/>
		<path class="st0" d="M475.3,418.8l-0.4-0.2l-0.9,0.4l-0.2,0.1c-1.1,0.8-2.3,1.2-3.7,1.3l-0.2,0c-0.5,0-1.2,0.1-1.2,0.7
			c0,0.3,0.2,0.7,1,0.7l0.7,0l0.7,0c0.8,0,1.4,0,1.8,0.4c0.2,0.2,0.2,0.5,0.2,1.3v10.5c0,1.5,0,2-1.8,2.2l-0.2,0
			c-0.6,0-1.6,0.1-1.6,0.8c0,0.5,0.4,0.7,1.2,0.7h7.3c0.5,0,1.1,0,1.1-0.8c0-0.7-1-0.7-1.5-0.7l-0.1,0c-1.7-0.1-1.8-0.4-1.8-2v-14.5
			L475.3,418.8z"/>
		<path class="st0" d="M484.5,436.9L484.5,436.9c-0.5,0-1.4,0.1-1.4,0.7c0,0.7,0.6,0.7,0.9,0.7c4.2,0,10.5-3.7,10.5-11.6
			c0-5.1-2.4-8-6.7-8c-3.7,0-6.4,2.7-6.4,6.5c0,3.2,2.2,5.5,5.4,5.5c1.7,0,3.5-0.7,5-2C491.4,432.3,489.1,436.3,484.5,436.9z
			 M487.5,429c-2.6,0-3.5-2.3-3.5-4.2c0-2.8,1.5-4.7,3.7-4.7c2.7,0,4.1,2.3,4.1,6.6C490.4,428.3,489,429,487.5,429z"/>
		<path class="st0" d="M503.5,436.8c-1,0-3.3-0.3-3.5-2.7c0-0.6-0.2-1.3-1.1-1.3c-0.8,0-1.3,0.6-1.3,1.4c0,2.9,3.7,4,6,4
			c4.2,0,7-2.3,7-5.7c0-2.8-2.2-4.3-4.4-4.9c1.2-0.4,3.6-1.6,3.6-4.2c0-2.9-2.2-4.8-5.6-4.8c-2.7,0-5.8,1.7-5.8,3.9
			c0,0.9,0.6,1.4,1.3,1.4c0.9,0,1.4-0.3,1.4-0.9l-0.1-0.5l-0.1-0.6c0-1.8,2.2-2,2.9-2c1.6,0,3.3,1.1,3.3,3.1c0,2.5-1.4,3.7-4.2,3.9
			h-0.1c-0.5,0-1.5,0.1-1.5,0.8c0,0.7,0.6,0.8,1.7,0.8c3.1,0,4.9,1.5,4.9,4C507.9,433.6,507.6,436.8,503.5,436.8z"/>
		<path class="st0" d="M514.2,433.5c0,3.3,3.2,4.7,6.2,4.7c4.8,0,7-2.9,7-5.6c0-2.8-2.3-4.4-4.3-5.2c1.9-1,3.8-2.4,3.8-4.6
			c0-2.8-3.3-4.2-5.6-4.2c-3.4,0-6.2,2.3-6.2,5.2c0,2.5,1.9,3.8,3.5,4.6C516.8,429.2,514.2,430.8,514.2,433.5z M517.2,423.3
			c0-2,2-3.2,3.9-3.2c1.8,0,3.7,1.2,3.7,3.1c0,1.7-1.8,2.9-3.2,3.7l-0.2-0.1C519.7,426.2,517.2,425.3,517.2,423.3z M519.9,429.1
			l0.9,0.4c1.9,0.8,4.2,1.7,4.2,3.9c0,2.4-2.7,3.4-4.6,3.4c-2.5,0-4.2-1.3-4.2-3.2C516.3,431.2,518.2,429.8,519.9,429.1z"/>
		<path class="st0" d="M632.3,445.9c-0.5-1.4-1-2.1-1.9-3.2c1.1-0.5,2.1-1.5,2.1-2.8c0-0.7-0.4-1.5-1-2c-0.7-0.5-1.4-0.6-2.2-0.6h-4
			c-0.4,0-0.9-0.1-0.9,0.6l0.5,0.6l0.3,0.5v6.8c0,0.7-0.1,1-0.3,1l-0.5,0.5c0,0.6,0.5,0.6,0.9,0.6h1.5c0.4,0,0.9,0,0.9-0.5
			c0-0.4-0.3-0.5-0.6-0.6c-0.4-0.1-0.3-0.3-0.3-0.8v-2.4l2.2-0.5c0.6,0.7,1.9,2.4,1.9,3.4c0,0.4-0.7,0.2-0.7,0.8
			c0,0.6,0.5,0.5,0.9,0.5h1.5c0.4,0,0.8,0,0.8-0.5l-0.4-0.5C632.5,446.6,632.5,446.4,632.3,445.9z M626.8,442.4v-3.2
			c0-0.7,0.3-0.9,1.4-0.7c1,0,2.7,0,2.7,1.5C630.9,441.6,628,442.2,626.8,442.4z"/>
		<path class="st0" d="M628.7,434.2c-4.5,0-8.2,3.8-8.2,8.5c0,4.7,3.7,8.5,8.2,8.5c4.5,0,8.2-3.8,8.2-8.5
			C636.9,438,633.2,434.2,628.7,434.2z M628.7,450.2c-4,0-7.2-3.4-7.2-7.5c0-4.2,3.2-7.6,7.2-7.6c4,0,7.2,3.4,7.2,7.6
			C635.9,446.8,632.7,450.2,628.7,450.2z"/>
		<path class="st0" d="M621.1,513.3c-2.9,0.1-5.6,4.3-10.6,8.1c-5.6,4.2-12.9,7.4-22.1,7.6c-20.7,0.6-32.5-14.6-32.3-34.2
			c0.2-23.2,16.1-38.4,33.9-38.4c10.6,0,16,5.6,16.4,13.9c0.4,8.1-5.9,16-14.5,18.8c-8.6,2.9-17.1,2.1-22.5-1.6
			c-3.4-2.3-6.1-2.1-7.5,0c-1.3,1.8-0.8,4.1,0.9,5.9c6.5,7.2,23.1,9.5,36.1,4.7c12.2-4.4,23.4-13.6,23.4-27.5
			c0-12.1-10.5-24.5-31.3-24.5c-28.8,0-50.5,23.6-50.5,51c0,25.8,18.9,43.8,45.1,43.6c9.8-0.1,18.7-2.6,26.8-8.2
			c3.9-2.8,12.2-9.7,12.3-15.5C625,515,623.1,513.3,621.1,513.3z"/>
		<path class="st0" d="M340.4,512.9c-1.5,0.3-2.7,1.7-4.2,3.6c-12.2,15.9-32.9,24.5-57,24.5c-43.3,0-71.4-27.4-76.6-51.9
			c11.2-2,17.3-3.2,28.2-8.8c16.4-8.4,24.8-26.5,17.4-40.8c-4.6-9-14.7-16-32-15.5c-11,0.3-21.7,3.5-30.7,9.1
			c-18.5,11.5-22.3,30.8-22.3,50.7c0,0-0.1,36.9,0,39.1c0,4.1-0.6,5.7-2.7,7.2c-2.7,1.8-3.3,2.9-3.3,4.8c0,2.4,1.9,3.9,5.5,4.1
			c2.9,0.2,5.5,0.2,8.6,0.2c3.1,0,5.7,0,8.6-0.2c3.6-0.2,5.6-1.7,5.6-4.1c0-1.8-0.6-3-3.3-4.8c-2.1-1.4-2.8-3-2.8-7.2
			c0-0.1,0-30.5,0-43.8c0-20,3.9-31.6,14.2-39.1c7.1-5.1,16.3-7.4,24.8-6.2c10.1,1.5,14.3,7.4,15.6,12.1c1.6,5.6,1,11.3-1.4,16.1
			c-2.8,5.5-7.3,9.2-13.4,12.4c-5.9,3.1-12.1,4.8-23.5,6.2c-6.9,0.8-9.3,4.5-8.7,9.9c0.9,8.5,5.6,17,10,23.6
			c17.1,25.7,46.1,38.5,80.7,38.5c28.8,0,53.9-11.5,65.2-29.1c1.6-2.5,2.5-5.2,2.2-7.5C344.5,513.9,342.4,512.6,340.4,512.9z"/>
		<path class="st0" d="M290.9,450.7c-24,0-42.6,18.5-43.7,40.2c1.2,22.7,19.7,40.1,43.7,40.1c24,0,42.6-17.4,43.8-40.1
			C333.5,469.2,314.9,450.7,290.9,450.7z M318.5,493.1c0,19.6-11.1,32.7-27.6,32.7c-16.5,0-27.6-13.2-27.6-32.7c0-0.8,0-1.5,0.1-2.2
			c0-0.7-0.1-1.5-0.1-2.2c0-19.6,11.1-32.7,27.6-32.7c16.5,0,27.6,13.1,27.6,32.7c0,0.8,0,1.5-0.1,2.2
			C318.5,491.6,318.5,492.3,318.5,493.1z"/>
		<path class="st0" d="M459,449.6c-3.5-0.5-6.4,1.3-6.7,7.6c-1,22.1-9.1,48.9-21.2,67.1c-12-17.8-20.9-44-22-58.7
			c-0.2-3-0.4-6.2-1.6-8.2c-1-1.6-2.5-2.7-5.4-2.7c-2.9,0-4.4,1.1-5.4,2.7c-1.3,2-1.5,4.8-1.6,8.3c-0.7,14.4-7.5,40.2-19.8,58.6
			c-12.4-19.3-19.1-41-22.4-64.6c-1-7.2-3.3-10.8-9.2-10.2c-4.6,0.5-7.4,3.9-6,12.9c3.2,21,15.9,59.8,28.8,74.4
			c5.4,6.1,9.2,5.2,13.1-0.2c6.8-9.3,16.4-27.1,21.3-42c5.3,16.2,13.7,33.5,21.4,42.1c5.4,6.1,9.1,5,13.1-0.2
			c16.6-21.1,27.6-60.9,28.9-77.6C464.7,452.7,462.4,450.1,459,449.6z"/>
		<path class="st0" d="M509.4,485.2c-6.7-1.7-14.2-3.6-18.6-5.9c-4.7-2.4-7.5-5.6-7.5-10.5c0.1-3.9,2.1-7.6,6.2-10
			c3.4-2,7.3-2.8,12.2-2.8c6.9,0,12.8,1.9,18.1,5.9c3.2,2.4,4.8,4.9,6.9,5.8c2.6,1,5.6-0.9,5.7-3.8c0.1-2-0.8-4.4-3.1-7
			c-6.1-7.1-14.8-10.6-27.2-10.6c-9.8,0-17.6,2.8-23.6,7.9c-6,5.2-8.7,11.7-8.7,18.9c0,12.7,9.1,19.9,24.9,24.5
			c6.4,1.9,14,3.6,18.9,6.1c5.1,2.7,7.8,6.4,7.8,12.5c0,4.6-2.7,8.5-6.4,10.9c-3.6,2.4-9.4,3.7-14.7,3.7c-9.2,0-17.7-3.9-22.8-11.2
			c-2.3-3.4-2.8-4.5-4.6-5.8c-2.3-1.7-5.6-0.8-6.6,2c-0.6,1.6-0.5,4,0.7,7c1.7,4,5.5,8.5,10.6,11.8c5.7,3.7,12.4,5.9,20.5,6.1
			c10.2,0.3,19.3-2,26-6.9c7.3-5.3,11.5-12.8,11.5-22.3C535.7,498.5,527.6,489.8,509.4,485.2z"/>
	</g>
</g>
<g id="Absolut">
</g>
<g id="Hilton_Hotels">
</g>
<g id="M_x26_S">
</g>
<g id="RedBull">
</g>
<g id="YoSushi">
</g>
<g id="Pepsico">
</g>
<g id="Nivea">
</g>
<g id="Nike">
</g>
<g id="Innocent">
</g>
<g id="Beefeater">
</g>
<g id="Lego">
</g>
<g id="Samsung">
</g>
<g id="LinkedIn">
</g>
</svg>
