<?xml version="1.0" encoding="utf-8"?>
<!-- Generator: Adobe Illustrator 24.2.1, SVG Export Plug-In . SVG Version: 6.00 Build 0)  -->
<svg version="1.1" xmlns="http://www.w3.org/2000/svg" xmlns:xlink="http://www.w3.org/1999/xlink" x="0px" y="0px"
	 viewBox="0 0 800 800" style="enable-background:new 0 0 800 800;" xml:space="preserve">
<style type="text/css">
	.st0{fill:#0000fd;}
	.st1{fill-rule:evenodd;clip-rule:evenodd;fill:#0000fd;}
</style>
<g id="Rowse_Honey">
</g>
<g id="Absolut">
	<g>
		<path class="st0" d="M652.3,454.4v-88.6H667c3.9-0.1,4.4,2.7,4.4,2.7v-29.8H650h-10h-41.4v29.8c0,0,0.5-2.8,4.4-2.7h15.3v88.6
			c0,2.4-2,4.2-2,4.2h38C654.3,458.6,652.3,456.8,652.3,454.4z"/>
		<path class="st0" d="M502.9,432h-20.1v-89.1c0-2.4,2-4.2,2-4.2h-38c0,0,2,1.8,2,4.2v111.4c0,2.4-2,4.2-2,4.2h60.5v-29.3
			C507.3,429.3,506.7,432.1,502.9,432z"/>
		<ellipse class="st0" cx="681.7" cy="442.2" rx="18.6" ry="19"/>
		<path class="st0" d="M688.8,359.8c6.3,0,11.4-5.3,11.4-11.8c0-6.5-5.1-11.8-11.4-11.8c-6.3,0-11.4,5.3-11.4,11.8
			C677.5,354.5,682.5,359.8,688.8,359.8z M688.8,337.2c5.7,0,10.3,4.8,10.3,10.8c0,6-4.6,10.8-10.3,10.8c-5.7,0-10.3-4.8-10.3-10.8
			C678.5,342,683.1,337.2,688.8,337.2z"/>
		<path class="st0" d="M686.4,348.7h2.9l4,5.9h2l-4.2-5.9c0.5-0.1,0.9-0.2,1.4-0.4h0c0.4-0.2,0.8-0.4,1.1-0.7
			c0.3-0.3,0.6-0.7,0.8-1.1c0.2-0.4,0.3-0.9,0.3-1.5c0-1.2-0.4-2.1-1.1-2.7c-0.7-0.6-1.9-0.9-3.5-0.9h-5.4v13.2h1.7V348.7z
			 M686.4,342.7h3.2c0.4,0,0.9,0,1.2,0.1c0.4,0.1,0.7,0.2,1.1,0.4c0.3,0.2,0.6,0.4,0.8,0.7c0.2,0.3,0.3,0.7,0.3,1.1
			c0,0.6-0.1,1-0.4,1.3c-0.2,0.3-0.6,0.6-1,0.7c-0.4,0.2-0.9,0.2-1.4,0.3c-0.5,0-1,0-1.6,0h-2.3V342.7z"/>
		<polygon class="st0" points="144.5,460.1 144.6,460.1 144.6,460.1 		"/>
		<path class="st0" d="M251.9,396.5l0.1,0c11.7-2.7,19.3-12.5,19.3-26.3c0-19.6-14.2-31.5-41-31.5h-38.4c0,0,2,1.8,2,4.2v111.3
			c0,2.4-2,4.2-2,4.2h43.2l1.6,0c27.1,0,39.3-14.3,39.3-32.6C276.2,409.5,266.8,399.4,251.9,396.5z M227.6,363.3h3.1
			c6.2,0,11.3,3.9,11.3,11.8c0,6.5-5.1,11.8-11.3,11.8h-3.1V363.3z M231.1,434h-3.5v-26h3c7.1,0,13.5,3.8,13.5,13
			C244.1,429.4,238.3,434,231.1,434z"/>
		<path class="st0" d="M164.9,344.8c0,0-1.1-4.7,1.8-6.2h-43.4c2.9,1.5,1.8,6.2,1.8,6.2l-24,103.5c-1.8,8-5.3,10.1-5.3,10.1h38.7
			c-2.4-1.4-2.1-3.6-2.1-3.6l2.3-15.5h19.9l2.1,14.7c0,0,0.5,2.9-1.9,4.5h37.1c0,0-1.2-1.7-3-9.8L164.9,344.8z M138.1,417l6.8-47.5
			l6.6,47.5H138.1z"/>
		<path class="st0" d="M398,336.1c-33.8,0-45.2,28.2-45.2,62.8c0,35.3,12.2,62.8,45.1,62.8s45.4-26.9,45.4-62.8
			C443.2,363.3,430.6,336.1,398,336.1z M408.1,405.2c0,23.3-4.5,29.8-10.1,29.8c-5.6,0-10.1-6.2-10.1-29.8v-14
			c0-22,4.5-28.4,10.1-28.4c5.6,0,10.1,7.1,10.1,28.4V405.2z"/>
		<path class="st0" d="M560.1,342.9v80.2l0,0.4c0,7.2-3.7,11-8.2,11c-4.6,0-8.2-3.8-8.2-11l0-0.7v-79.9c0-2.4,2-4.2,2-4.2h-38.1
			c0,0,2,1.8,2,4.2v80.9l0,0.4c0,26.8,19,37.6,42.3,37.6c23.3,0,42.1-12.4,42.1-37.7l0-0.2v-81c0-2.4,2-4.2,2-4.2h-37.8
			C558.2,338.7,560.2,340.5,560.1,342.9z"/>
		<path class="st0" d="M317.8,378.6c-6.3-4.8-6.2-8.8-6.2-8.8c0-7.3,7.8-7.2,7.8-7.2c10.5,0,23.3,8.9,23.3,8.9v-31.4
			c-2.6,2.8-5.7,1-5.7,1c-6.2-3-13.4-4.5-20.4-4.5c-22.8,0-36.5,16.3-36.5,35.5c0,10.7,4.4,20.2,11.3,26.6l0.4,0.3l21,17.6
			c0,0,5,3.8,5,9.6c0,0,0.6,8-8.3,8c-12.2,0-29.1-14.9-29.1-14.9v35.3c2.7-2.5,6.8,0.1,6.8,0.1c12.5,7.1,26.8,7,26.8,7
			c36.5,0,37.6-34.7,37.6-34.7c0.7-11.5-5.3-21.2-5.3-21.2C339,394.1,317.8,378.6,317.8,378.6z"/>
	</g>
</g>
<g id="Hilton_Hotels">
</g>
<g id="M_x26_S">
</g>
<g id="RedBull">
</g>
<g id="YoSushi">
</g>
<g id="Pepsico">
</g>
<g id="Nivea">
</g>
<g id="Nike">
</g>
<g id="Innocent">
</g>
<g id="Beefeater">
</g>
<g id="Lego">
</g>
<g id="Samsung">
</g>
<g id="LinkedIn">
</g>
</svg>
