<?xml version="1.0" encoding="utf-8"?>
<!-- Generator: Adobe Illustrator 24.2.1, SVG Export Plug-In . SVG Version: 6.00 Build 0)  -->
<svg version="1.1" id="CYLNDR_x5F_LOGO_x5F_MASTER_x5F_WHITE_x5F_RGB"
	 xmlns="http://www.w3.org/2000/svg" xmlns:xlink="http://www.w3.org/1999/xlink" x="0px" y="0px" viewBox="0 0 688.1 149.1"
	 style="enable-background:new 0 0 688.1 149.1;" xml:space="preserve">
<style type="text/css">
	.st0{fill:#E6E4D9;}
</style>
<path class="st0" d="M153.3,61.4L116.4,1.1l-39.3,0C37.3,1.3,5.2,33.3,5.2,73.7c0,0.2,0,0.6,0,0.6c0,36.1,25.5,66,59.3,71.6
	c5.8,1.2,11.6,1.9,17.6,1.9c3.2,0,6.5-0.2,9.7-0.7L92,122c-1.9,0.2-3.8,0.3-5.8,0.3c-2.8,0-5.4,0-8.1-0.3c-2.3-0.2-4.6-0.7-6.8-1.2
	l0,0c0,0,0,0-0.1,0c-15.2-3.6-28.2-14.9-33.1-30c0,0-3-8.3-2.9-17c0.1-23.7,19.4-47.1,42-46.8c18.2-0.3,21.5,0.1,21.5,0.1l39.2,63.1
	v57.2h30.9V90.2l55.1-89.1l-33.5,0L153.3,61.4z"/>
<polygon class="st0" points="262.6,1.1 231.5,1.1 231.5,147.3 323.7,147.3 323.7,120.7 262.6,120.7 "/>
<path class="st0" d="M651.6,101c16.6-9,27.5-26.1,27.5-46.6c0-30.2-24-53.2-54-53.2l-58.5,0v146.3h31.2v-39.8h0.1l-0.1-26.8l0,0
	V27.1h25.2c16.6,0,25,11.5,25,27.3c0,15.8-8.1,27.3-25,27.3s-19.2,0-19.2,0l44.6,65.7h34.7L651.6,101z"/>
<path class="st0" d="M487.7,1.1l-58.2,0l0,96.4l-66-96.4l-32.2,0l0,146.3h31.2V50.9l65.9,96.5h32.4h0.2l-0.2-120.1h26.8
	C511.4,27.6,528,51,528,74.7c0,0.4,0,4,0,4.4c-0.5,20.3-13,40.2-31.9,45.1l12.9,23.8c28.9-9.3,49.8-36.4,50.3-68.9c0-0.4,0-4,0-4.4
	C559.4,34.3,527.5,1.3,487.7,1.1z"/>
</svg>
