<?xml version="1.0" encoding="utf-8"?>
<!-- Generator: Adobe Illustrator 24.2.1, SVG Export Plug-In . SVG Version: 6.00 Build 0)  -->
<svg version="1.1" xmlns="http://www.w3.org/2000/svg" xmlns:xlink="http://www.w3.org/1999/xlink" x="0px" y="0px"
	 viewBox="0 0 2000 2000" style="enable-background:new 0 0 2000 2000;" xml:space="preserve">
<style type="text/css">
	.st0{enable-background:new    ;}
	.st1{fill:#E6E4D9;}
	.animated-global-network:hover .st1 {
		fill:  #0000fd;
	}
</style>
<g id="Global_x5F_Network_1_">
	<g class="st0">
		<path class="st1" d="M59.7,826.8c-5-8.3-7.5-17.5-7.5-27.8s2.5-19.4,7.4-27.8c5-8.3,11.6-14.8,19.8-19.5c8.2-4.7,17.2-7,26.8-7
			c16.2,0,29.4,6.3,39.8,18.9l-8.7,8.7c-4.1-5-8.6-8.8-13.4-11.5c-4.9-2.6-10.7-4-17.6-4c-7.3,0-14.1,1.8-20.5,5.4
			c-6.4,3.6-11.4,8.6-15.2,15.1c-3.8,6.5-5.7,13.7-5.7,21.7c0,8,1.9,15.2,5.7,21.6c3.8,6.4,8.9,11.4,15.2,15.1
			c6.3,3.7,13.2,5.5,20.5,5.5c6.9,0,12.8-1.3,17.6-4c4.8-2.6,9.3-6.5,13.4-11.5l8.7,8.7c-10.3,12.6-23.6,18.9-39.8,18.9
			c-9.6,0-18.5-2.3-26.8-7C71.2,841.6,64.6,835.1,59.7,826.8z"/>
		<path class="st1" d="M224.1,834.4c-3.3,5.9-7.8,10.5-13.6,13.9c-5.8,3.3-12.2,5-19.3,5c-7.1,0-13.5-1.7-19.3-5
			c-5.8-3.3-10.3-8-13.5-13.9c-3.3-5.9-4.9-12.5-4.9-19.7s1.6-13.7,4.9-19.7c3.2-5.9,7.7-10.5,13.5-13.9c5.7-3.3,12.2-5,19.3-5
			c7.1,0,13.5,1.7,19.3,5c5.7,3.4,10.2,8,13.5,13.9c3.2,5.9,4.9,12.5,4.9,19.7S227.3,828.5,224.1,834.4z M165.6,814.8
			c0,5,1.1,9.6,3.2,13.7c2.1,4.1,5.1,7.4,9,9.8c3.8,2.5,8.3,3.7,13.4,3.7c5.1,0,9.6-1.2,13.4-3.7c3.8-2.4,6.8-5.7,9-9.8
			c2.1-4.1,3.2-8.6,3.2-13.7c0-5-1.1-9.5-3.2-13.7c-2.2-4.1-5.2-7.4-9-9.8c-3.9-2.4-8.3-3.7-13.4-3.7c-5.1,0-9.6,1.2-13.4,3.7
			c-3.9,2.5-6.9,5.7-9,9.8C166.7,805.2,165.6,809.8,165.6,814.8z"/>
		<path class="st1" d="M241.4,778h12v12.3c2.3-4.2,5.4-7.6,9.4-10.2c3.9-2.6,8.5-3.9,13.7-3.9c8.7,0,15.5,2.8,20.5,8.2
			c4.9,5.5,7.4,13.8,7.4,24.9v42.2h-12v-41.4c0-14.8-5.5-22.2-16.6-22.2c-4,0-7.7,1.2-11.2,3.4c-3.5,2.3-6.2,5.5-8.2,9.5
			c-2,4-3,8.5-3,13.4v37.2h-12V778z"/>
		<path class="st1" d="M320.6,778h12v12.3c2.3-4.2,5.4-7.6,9.4-10.2c3.9-2.6,8.5-3.9,13.7-3.9c8.7,0,15.5,2.8,20.5,8.2
			c4.9,5.5,7.4,13.8,7.4,24.9v42.2h-12v-41.4c0-14.8-5.5-22.2-16.6-22.2c-4,0-7.7,1.2-11.2,3.4c-3.5,2.3-6.2,5.5-8.2,9.5
			c-2,4-3,8.5-3,13.4v37.2h-12V778z"/>
		<path class="st1" d="M464.9,809.7c0,3.4-0.2,6-0.5,7.8h-57.7c0.5,7,3,12.8,7.5,17.5c4.5,4.7,10.2,7,17.1,7c9.6,0,17.3-4,23-12
			l8.2,8.5c-3.1,4.2-7.3,7.7-12.8,10.6c-5.4,2.8-11.6,4.3-18.5,4.3c-7.1,0-13.4-1.6-19-5c-5.5-3.3-9.9-7.9-13-13.7
			c-3.1-5.8-4.7-12.5-4.7-19.9c0-7.4,1.7-14,5.1-20c3.4-5.9,7.9-10.5,13.5-13.7c5.6-3.2,11.6-4.9,18-4.9c6.5,0,12.3,1.4,17.4,4.3
			c5.1,2.9,9.1,6.8,11.9,11.9C463.4,797.4,464.9,803.2,464.9,809.7z M452.7,806.1c-0.9-6-3.2-10.6-6.8-13.7
			c-3.6-3.2-8.5-4.7-14.7-4.7c-5.6,0-10.6,1.7-14.9,5c-4.3,3.4-7.2,7.8-8.7,13.4H452.7z"/>
		<path class="st1" d="M533.6,799.8c-2.6-3.6-5.8-6.5-9.5-8.8c-3.7-2.2-8-3.4-12.8-3.4c-4.4,0-8.5,1.1-12.5,3.3
			c-3.9,2.2-7,5.4-9.4,9.4c-2.4,4.1-3.6,8.9-3.6,14.4c0,5.5,1.2,10.3,3.6,14.4c2.4,4.1,5.5,7.3,9.4,9.4c3.9,2.2,8,3.3,12.5,3.3
			c4.8,0,9-1.1,12.8-3.4c3.7-2.2,6.8-5.2,9.5-8.8l8.4,8.4c-3.4,4.7-7.7,8.4-12.8,11.1c-5.2,2.7-11.1,4-17.8,4
			c-6.6,0-12.8-1.6-18.5-4.9c-5.8-3.2-10.4-7.8-13.8-13.6c-3.4-5.9-5.2-12.5-5.2-20s1.7-14.2,5.2-20c3.5-5.8,8-10.4,13.8-13.6
			c5.7-3.2,11.9-4.9,18.5-4.9c6.7,0,12.6,1.3,17.8,4c5.1,2.7,9.4,6.4,12.8,11.1L533.6,799.8z"/>
		<path class="st1" d="M557.3,778v-16.5l12-4.5v21h19.8v11.4h-19.8v39.4c0,3.8,0.9,6.9,2.6,9.2c1.7,2.4,4.3,3.5,7.6,3.5
			c2.2,0,4-0.1,5.5-0.4c1.4-0.2,3-0.7,4.6-1.3v11.4c-3.3,1.3-7,2-11.1,2c-6.9,0-12.2-2.1-15.8-6.2c-3.6-4.1-5.4-10.2-5.4-18.2v-39.4
			h-9.9V778H557.3z"/>
		<path class="st1" d="M662.8,809.7c0,3.4-0.2,6-0.5,7.8h-57.8c0.5,7,3,12.8,7.5,17.5c4.5,4.7,10.2,7,17.1,7c9.6,0,17.2-4,22.9-12
			l8.2,8.5c-3.1,4.2-7.3,7.7-12.8,10.6c-5.4,2.8-11.5,4.3-18.4,4.3c-7.1,0-13.4-1.6-19-5c-5.5-3.3-9.9-7.9-13-13.7
			c-3.1-5.8-4.7-12.5-4.7-19.9c0-7.4,1.7-14,5.1-20c3.4-5.9,7.9-10.5,13.5-13.7c5.6-3.2,11.6-4.9,18-4.9c6.5,0,12.3,1.4,17.4,4.3
			c5.1,2.9,9.1,6.8,11.9,11.9C661.4,797.4,662.8,803.2,662.8,809.7z M650.7,806.1c-0.9-6-3.1-10.6-6.8-13.7
			c-3.6-3.2-8.5-4.7-14.7-4.7c-5.6,0-10.6,1.7-14.9,5c-4.3,3.4-7.2,7.8-8.7,13.4H650.7z"/>
		<path class="st1" d="M732.4,841.9c-2.4,3.3-5.7,6-10,8.2c-4.3,2.1-9,3.2-14.3,3.2c-6.7,0-12.8-1.6-18.3-4.6
			c-5.5-3.1-9.9-7.6-13.1-13.4c-3.3-5.8-4.9-12.7-4.9-20.5s1.6-14.6,4.9-20.5c3.2-5.9,7.6-10.3,13.1-13.4c5.5-3.1,11.6-4.6,18.3-4.6
			c5.3,0,10.1,1.1,14.3,3.2c4.2,2.2,7.6,4.9,10,8.2v-46.5h12v110.6h-12V841.9z M683.8,814.8c0,5.3,1.1,10,3.4,14.1
			c2.2,4.1,5.2,7.3,9,9.6c3.8,2.3,7.8,3.5,12.1,3.5c7.5,0,13.5-2.6,18.2-7.7c4.6-5.1,6.9-11.6,6.9-19.5c0-7.9-2.3-14.4-6.9-19.5
			c-4.6-5.1-10.7-7.7-18.2-7.7c-4.3,0-8.3,1.2-12.1,3.5c-3.8,2.3-6.8,5.5-9,9.6C685,804.8,683.8,809.5,683.8,814.8z"/>
		<path class="st1" d="M807.6,778v-16.5l12-4.5v21h19.8v11.4h-19.8v39.4c0,3.8,0.9,6.9,2.6,9.2c1.7,2.4,4.3,3.5,7.6,3.5
			c2.2,0,4-0.1,5.5-0.4c1.4-0.2,3-0.7,4.6-1.3v11.4c-3.3,1.3-7,2-11.1,2c-6.9,0-12.2-2.1-15.8-6.2c-3.6-4.1-5.4-10.2-5.4-18.2v-39.4
			h-9.9V778H807.6z"/>
		<path class="st1" d="M852,741.1h12v49.2c1.8-4,4.8-7.3,9.1-10c4.2-2.7,8.9-4,14-4c8.7,0,15.5,2.8,20.5,8.2
			c5,5.5,7.4,13.8,7.4,24.9v42.2h-12v-41.4c0-14.8-5.5-22.2-16.6-22.2c-4,0-7.7,1.2-11.2,3.4c-3.4,2.3-6.2,5.5-8.2,9.5
			c-2,4-3,8.5-3,13.4v37.2h-12V741.1z"/>
		<path class="st1" d="M943.2,778v10.5c2.4-4,5.3-7,8.8-9.2c3.5-2.1,6.9-3.1,10.3-3.1c3.2,0,5.8,0.3,8,0.9v12.3
			c-2.6-0.6-5.2-0.9-7.7-0.9c-2.7,0-5.6,1-8.6,3c-3.1,2-5.6,5-7.7,8.9c-2.1,4-3.1,8.7-3.1,14.3v36.8h-12V778H943.2z"/>
		<path class="st1" d="M1041,834.4c-3.3,5.9-7.8,10.5-13.6,13.9c-5.8,3.3-12.2,5-19.3,5c-7.1,0-13.5-1.7-19.3-5
			c-5.8-3.3-10.3-8-13.5-13.9c-3.3-5.9-4.9-12.5-4.9-19.7s1.6-13.7,4.9-19.7c3.2-5.9,7.7-10.5,13.5-13.9c5.7-3.3,12.2-5,19.3-5
			c7.1,0,13.5,1.7,19.3,5c5.8,3.4,10.2,8,13.5,13.9c3.2,5.9,4.9,12.5,4.9,19.7S1044.2,828.5,1041,834.4z M982.5,814.8
			c0,5,1.1,9.6,3.2,13.7c2.1,4.1,5.1,7.4,9,9.8c3.8,2.5,8.3,3.7,13.4,3.7c5.1,0,9.6-1.2,13.4-3.7c3.8-2.4,6.8-5.7,9-9.8
			c2.1-4.1,3.2-8.6,3.2-13.7c0-5-1.1-9.5-3.2-13.7c-2.2-4.1-5.2-7.4-9-9.8c-3.9-2.4-8.3-3.7-13.4-3.7c-5.1,0-9.6,1.2-13.4,3.7
			c-3.9,2.5-6.9,5.7-9,9.8C983.6,805.2,982.5,809.8,982.5,814.8z"/>
		<path class="st1" d="M1069.6,778v41.4c0,14.8,5.5,22.2,16.7,22.2c6.7,0,12.1-2.5,16.2-7.4c4.1-5,6.1-11.3,6.1-19V778h12v73.5h-12
			v-10.8c-2.1,3.9-5.3,7-9.5,9.2c-4.3,2.2-8.8,3.4-13.6,3.4c-8.7,0-15.5-2.7-20.5-8.2c-4.9-5.5-7.4-13.8-7.4-24.9V778H1069.6z"/>
		<path class="st1" d="M1138,793.6c3.2-5.6,7.5-9.9,12.8-12.9c5.3-3,11.1-4.5,17.3-4.5c10.7,0,19.2,3.9,25.6,11.5V778h12v69
			c0,7.5-1.5,14-4.6,19.5c-3.1,5.5-7.2,9.7-12.5,12.5c-5.3,2.8-11.2,4.3-17.7,4.3c-7.3,0-13.8-1.6-19.4-4.7
			c-5.7-3.2-10.2-7.3-13.7-12.5l8.7-8.7c2.8,4.6,6.2,8.2,10.4,10.7c4.1,2.5,8.8,3.8,14.1,3.8c7,0,12.5-2.2,16.7-6.5
			c4.1-4.3,6.1-10.5,6.1-18.4v-8.5c-6.2,7.9-14.8,11.8-25.6,11.8c-6.2,0-12-1.5-17.3-4.5c-5.4-3-9.7-7.3-12.9-12.9
			c-3.3-5.6-4.9-12.2-4.9-19.7S1134.7,799.2,1138,793.6z M1144.8,813.3c0,5,1.1,9.5,3.5,13.3c2.3,3.9,5.3,6.9,9.1,9.1
			c3.8,2.2,7.8,3.2,12.1,3.2c7.5,0,13.6-2.4,18.3-7.2c4.7-4.8,7-11,7-18.5s-2.4-13.7-7-18.5c-4.7-4.8-10.8-7.2-18.3-7.2
			c-4.3,0-8.3,1.1-12.1,3.2c-3.8,2.2-6.8,5.2-9.1,9.1C1145.9,803.8,1144.8,808.3,1144.8,813.3z"/>
		<path class="st1" d="M1222.9,741.1h12v49.2c1.8-4,4.8-7.3,9.1-10c4.2-2.7,8.9-4,14-4c8.7,0,15.5,2.8,20.5,8.2
			c5,5.5,7.4,13.8,7.4,24.9v42.2h-12v-41.4c0-14.8-5.5-22.2-16.6-22.2c-4,0-7.7,1.2-11.2,3.4c-3.4,2.3-6.2,5.5-8.2,9.5
			c-2,4-3,8.5-3,13.4v37.2h-12V741.1z"/>
	</g>
	<g class="st0">
	</g>
	<g class="st0">
		<path class="st1" d="M133.2,935.8c-3.1-3.3-6.7-5.9-10.7-7.8c-4-1.9-8.4-2.9-13.1-2.9c-6,0-11.5,1.5-16.6,4.6
			c-5.1,3.1-9.1,7.2-12,12.4c-3,5.2-4.4,10.9-4.4,17.1c0,6.2,1.4,11.9,4.4,17c2.9,5.2,6.9,9.3,11.9,12.3c5,3.1,10.6,4.6,16.7,4.6
			c6.6,0,12.8-2,18.5-5.8v-16.5H106v-19.7h41.5v46.4c-5,5-10.8,8.9-17.4,11.7s-13.6,4.2-20.9,4.2c-9.8,0-18.9-2.4-27.1-7.3
			c-8.3-4.8-14.9-11.4-19.6-19.7c-4.8-8.3-7.2-17.3-7.2-27.1c0-10,2.4-19.1,7.3-27.5c4.8-8.3,11.4-14.9,19.6-19.7
			c8.2-4.8,17.3-7.3,27.1-7.3c7.4,0,14.4,1.5,21,4.3c6.6,2.9,12.4,6.9,17.4,12L133.2,935.8z"/>
		<path class="st1" d="M195.1,901.1v110.4h-18.8V901.1H195.1z"/>
		<path class="st1" d="M240,941.2c5.9-3.3,12.4-5,19.5-5c7.1,0,13.6,1.7,19.4,5c5.9,3.4,10.4,8,13.8,13.9c3.3,5.9,5,12.5,5,19.7
			s-1.7,13.8-5,19.7c-3.4,5.9-8,10.5-13.8,13.9c-5.8,3.3-12.3,5-19.4,5c-7.1,0-13.6-1.7-19.5-5c-5.9-3.3-10.5-8-13.9-13.9
			c-3.4-5.9-5-12.5-5-19.7s1.7-13.7,5-19.7C229.4,949.2,234.1,944.6,240,941.2z M245.7,989c3.5,3.9,8.1,5.8,13.8,5.8
			c5.6,0,10.2-1.9,13.7-5.8c3.5-3.9,5.3-8.6,5.3-14.2c0-5.6-1.8-10.3-5.3-14.2c-3.6-3.9-8.1-5.8-13.7-5.8c-5.7,0-10.3,1.9-13.9,5.8
			c-3.6,3.9-5.3,8.7-5.3,14.2C240.3,980.4,242.1,985.1,245.7,989z"/>
		<path class="st1" d="M394.5,995c-3.2,5.9-7.4,10.4-12.6,13.6c-5.2,3.2-10.8,4.7-16.8,4.7c-5.1,0-9.5-0.9-13.1-2.7
			c-3.6-1.8-6.8-4.3-9.4-7.5v8.4h-18.8V901.1h18.8v45.3c5.6-6.8,13.1-10.2,22.5-10.2c6,0,11.6,1.6,16.8,4.7
			c5.2,3.2,9.4,7.7,12.5,13.5c3.2,5.9,4.7,12.6,4.7,20.3C399.1,982.5,397.6,989.2,394.5,995z M361.9,994.9c5.4,0,9.8-1.9,13.3-5.8
			c3.4-3.8,5.2-8.6,5.2-14.3c0-5.9-1.7-10.7-5.2-14.5c-3.5-3.8-7.9-5.6-13.3-5.6c-6,0-10.9,1.9-14.7,5.6c-3.8,3.8-5.7,8.6-5.7,14.5
			c0,5.9,1.9,10.7,5.7,14.5C351,993,355.9,994.9,361.9,994.9z"/>
		<path class="st1" d="M496.2,938v73.5h-18.9v-8.7c-1.9,3.1-4.7,5.6-8.5,7.6c-3.8,1.9-8.1,2.9-13,2.9c-6.1,0-11.8-1.6-17.1-4.7
			c-5.3-3.2-9.6-7.7-12.8-13.5c-3.3-5.9-4.9-12.6-4.9-20.3c0-7.8,1.6-14.6,4.9-20.4c3.2-5.8,7.5-10.3,12.8-13.4
			c5.3-3.1,11-4.7,17.1-4.7c4.9,0,9.2,1,13,2.8c3.8,1.9,6.6,4.4,8.5,7.4V938H496.2z M439.9,974.8c0,6.1,1.8,11,5.5,14.7
			c3.7,3.7,8.3,5.5,13.6,5.5c5.5,0,10.1-1.9,13.8-5.7c3.7-3.8,5.6-8.6,5.6-14.5c0-6-1.9-10.9-5.6-14.6c-3.7-3.8-8.3-5.6-13.8-5.6
			c-5.4,0-10,1.8-13.6,5.5C441.8,963.6,439.9,968.6,439.9,974.8z"/>
		<path class="st1" d="M544.3,901.1v110.4h-18.8V901.1H544.3z"/>
		<path class="st1" d="M627.3,906.5h16.6l52,67.2v-67.2h20v105h-16.6l-52.1-67.2v67.2h-19.9V906.5z"/>
		<path class="st1" d="M815.6,971.2c0,2.8-0.2,5.9-0.8,9.3h-52.8c0.9,4.9,3,8.7,6.4,11.4c3.3,2.7,7.3,4.1,11.9,4.1
			c7,0,12.8-2.6,17.4-8l11.8,12.7c-3.4,3.8-7.6,6.9-12.5,9.2s-10.4,3.4-16.4,3.4c-7.1,0-13.5-1.6-19.3-4.9
			c-5.8-3.2-10.3-7.8-13.6-13.6c-3.3-5.9-5-12.5-5-20s1.7-14.2,5-20c3.3-5.8,7.9-10.4,13.6-13.6c5.7-3.2,11.9-4.9,18.8-4.9
			c6.5,0,12.5,1.5,17.8,4.6c5.4,3.1,9.7,7.3,12.8,12.6C814.1,958.7,815.6,964.7,815.6,971.2z M769.3,956.6c-2.8,2.3-4.9,5.3-6.2,9
			h33.5c-0.9-3.6-2.8-6.6-5.7-8.9c-2.9-2.3-6.5-3.5-10.8-3.5C775.7,953.2,772.1,954.3,769.3,956.6z"/>
		<path class="st1" d="M845.2,938v-13.3l18.9-7.7v21h18.5v17.5h-18.5v29c0,3.2,0.9,5.8,2.7,7.8c1.8,2,4,3,6.8,3c2.2,0,4-0.1,5.3-0.4
			c1.3-0.2,2.7-0.7,4.1-1.3v17.7c-3.9,1.3-8.2,1.9-12.9,1.9c-7.6,0-13.7-2.4-18.2-7.1c-4.5-4.7-6.8-11.7-6.8-20.9v-29.7h-9.9V938
			H845.2z"/>
		<path class="st1" d="M923,938l15.3,42.6l16.5-40.8h10.8l16.7,41l16.5-42.8h20.6l-31.2,73.5h-11.8l-16.1-37.7l-16.2,37.7h-11.7
			L901.1,938H923z"/>
		<path class="st1" d="M1052.5,941.2c5.9-3.3,12.4-5,19.5-5c7.1,0,13.6,1.7,19.4,5c5.9,3.4,10.4,8,13.8,13.9c3.3,5.9,5,12.5,5,19.7
			s-1.7,13.8-5,19.7c-3.4,5.9-7.9,10.5-13.8,13.9c-5.8,3.3-12.3,5-19.4,5c-7.1,0-13.6-1.7-19.5-5c-5.9-3.3-10.5-8-13.9-13.9
			c-3.4-5.9-5-12.5-5-19.7s1.7-13.7,5-19.7C1042,949.2,1046.6,944.6,1052.5,941.2z M1058.2,989c3.5,3.9,8.1,5.8,13.8,5.8
			c5.6,0,10.2-1.9,13.7-5.8c3.5-3.9,5.3-8.6,5.3-14.2c0-5.6-1.8-10.3-5.3-14.2c-3.6-3.9-8.1-5.8-13.7-5.8c-5.7,0-10.3,1.9-13.9,5.8
			c-3.6,3.9-5.3,8.7-5.3,14.2C1052.8,980.4,1054.6,985.1,1058.2,989z"/>
		<path class="st1" d="M1136,938h17.2l0.8,12.3c2.5-4.9,5.4-8.5,8.9-10.7c3.4-2.2,7.4-3.4,12-3.4c2.9,0,5.5,0.4,7.9,1v19.2
			c-2.9-0.8-5.7-1.2-8.4-1.2c-3.3,0-6.5,1-9.5,3.2c-3.1,2.1-5.5,4.9-7.3,8.5c-1.9,3.6-2.8,7.4-2.8,11.5v33.2H1136V938z"/>
		<path class="st1" d="M1207.1,901.1h18.8v65.4l24.6-28.5h23l-28.2,31.2l30.9,42.3h-22.6l-20.9-28.4l-6.8,7.5v20.9h-18.8V901.1z"/>
	</g>
</g>
<g id="Circle">
	<g>
		<g>
			<path class="st1" d="M1938.6,673.8c-32.5-76.9-79.1-145.9-138.4-205.2S1671.9,362.7,1595,330.2c-79.6-33.7-164.1-50.7-251.3-50.7
				s-171.7,17.1-251.3,50.7c-76.9,32.5-145.9,79.1-205.2,138.4S781.4,596.9,748.9,673.8c-0.9,2-1.7,4.1-2.5,6.1h18.4
				c31.7-74.6,76.9-141.7,134.5-199.3c57.7-57.7,125-103.1,199.8-134.7c77.5-32.8,159.8-49.4,244.7-49.4s167.2,16.6,244.7,49.4
				c74.9,31.7,142.1,77,199.8,134.7c57.7,57.7,103.1,125,134.7,199.8c32.8,77.5,49.4,159.8,49.4,244.7s-16.6,167.2-49.4,244.7
				c-31.7,74.9-77,142.1-134.7,199.8s-125,103.1-199.8,134.7c-77.5,32.8-159.8,49.4-244.7,49.4s-167.2-16.6-244.7-49.4
				c-74.9-31.7-142.1-77-199.8-134.7s-103.1-125-134.7-199.8c-8.9-21.1-16.6-42.5-23.1-64.2h-17.7c7,24,15.4,47.6,25.2,70.8
				c32.5,76.9,79.1,145.9,138.4,205.2s128.3,105.8,205.2,138.4c79.6,33.7,164.1,50.7,251.3,50.7s171.7-17.1,251.3-50.7
				c76.9-32.5,145.9-79.1,205.2-138.4s105.8-128.3,138.4-205.2c33.7-79.6,50.7-164.1,50.7-251.3S1972.3,753.4,1938.6,673.8z"/>
		</g>
	</g>
</g>
</svg>
