<?xml version="1.0" encoding="utf-8"?>
<!-- Generator: Adobe Illustrator 24.2.1, SVG Export Plug-In . SVG Version: 6.00 Build 0)  -->
<svg version="1.1" xmlns="http://www.w3.org/2000/svg" xmlns:xlink="http://www.w3.org/1999/xlink" x="0px" y="0px"
	 viewBox="0 0 2000 2000" style="enable-background:new 0 0 2000 2000;" xml:space="preserve">
<style type="text/css">
	.st0{fill:none;}
	.st1{enable-background:new    ;}
	.st2{fill:#E6E4D9;}
</style>
<g id="data_x2B_Tech">
	<g id="Data_x2B_Tech">
		<g id="Data_x2B_Tech_1_">
			<g>
				<rect x="309.5" y="463.8" class="st0" width="1381.1" height="365.9"/>
			</g>
			<g class="st1">
				<path class="st2" d="M370.8,549.5c-5-8.3-7.5-17.5-7.5-27.8s2.5-19.4,7.4-27.8c5-8.3,11.6-14.8,19.8-19.5c8.2-4.7,17.2-7,26.8-7
					c16.2,0,29.4,6.3,39.8,18.9l-8.7,8.7c-4.1-5-8.6-8.8-13.4-11.5c-4.9-2.6-10.7-4-17.6-4c-7.3,0-14.1,1.8-20.5,5.4
					s-11.4,8.6-15.2,15.1c-3.8,6.5-5.7,13.7-5.7,21.7s1.9,15.2,5.7,21.6c3.8,6.4,8.9,11.4,15.2,15.1c6.3,3.7,13.2,5.5,20.5,5.5
					c6.9,0,12.8-1.3,17.6-4c4.8-2.6,9.3-6.5,13.4-11.5l8.7,8.7c-10.3,12.6-23.6,18.9-39.8,18.9c-9.6,0-18.5-2.3-26.8-7
					C382.2,564.3,375.7,557.8,370.8,549.5z"/>
				<path class="st2" d="M537.3,557.1c-3.3,5.9-7.8,10.5-13.6,13.9c-5.8,3.3-12.2,5-19.3,5c-7.1,0-13.5-1.7-19.3-5
					s-10.3-8-13.5-13.9c-3.3-5.9-4.9-12.5-4.9-19.7s1.6-13.7,4.9-19.7c3.2-5.9,7.7-10.5,13.5-13.9c5.7-3.3,12.2-5,19.3-5
					c7.1,0,13.5,1.7,19.3,5c5.7,3.4,10.2,8,13.5,13.9c3.2,5.9,4.9,12.5,4.9,19.7S540.5,551.2,537.3,557.1z M478.8,537.5
					c0,5,1.1,9.6,3.2,13.7c2.1,4.1,5.1,7.4,9,9.8c3.8,2.5,8.3,3.7,13.4,3.7s9.6-1.2,13.4-3.7c3.8-2.4,6.8-5.7,9-9.8
					c2.1-4.1,3.2-8.6,3.2-13.7c0-5-1.1-9.5-3.2-13.7c-2.2-4.1-5.2-7.4-9-9.8c-3.9-2.4-8.3-3.7-13.4-3.7s-9.6,1.2-13.4,3.7
					c-3.9,2.5-6.9,5.7-9,9.8C479.8,527.9,478.8,532.5,478.8,537.5z"/>
				<path class="st2" d="M556.6,500.7h12V513c2.3-4.2,5.4-7.6,9.4-10.2c3.9-2.6,8.5-3.9,13.7-3.9c8.7,0,15.5,2.8,20.5,8.2
					c4.9,5.5,7.4,13.8,7.4,24.9v42.2h-12v-41.4c0-14.8-5.5-22.2-16.6-22.2c-4,0-7.7,1.2-11.2,3.4c-3.5,2.3-6.2,5.5-8.2,9.5
					s-3,8.5-3,13.4v37.2h-12L556.6,500.7L556.6,500.7z"/>
				<path class="st2" d="M637.9,500.7h12V513c2.3-4.2,5.4-7.6,9.4-10.2c3.9-2.6,8.5-3.9,13.7-3.9c8.7,0,15.5,2.8,20.5,8.2
					c4.9,5.5,7.4,13.8,7.4,24.9v42.2h-12v-41.4c0-14.8-5.5-22.2-16.6-22.2c-4,0-7.7,1.2-11.2,3.4c-3.5,2.3-6.2,5.5-8.2,9.5
					s-3,8.5-3,13.4v37.2h-12L637.9,500.7L637.9,500.7z"/>
				<path class="st2" d="M784.3,532.4c0,3.4-0.2,6-0.5,7.8H726c0.5,7,3,12.8,7.5,17.5s10.2,7,17.1,7c9.6,0,17.3-4,22.9-12l8.2,8.5
					c-3.1,4.2-7.3,7.7-12.8,10.6c-5.4,2.8-11.5,4.3-18.4,4.3c-7.1,0-13.4-1.6-19-5c-5.5-3.3-9.9-7.9-13-13.7s-4.7-12.5-4.7-19.9
					s1.7-14,5.1-20c3.4-5.9,7.9-10.5,13.5-13.7s11.6-4.9,18-4.9c6.5,0,12.3,1.4,17.4,4.3c5.1,2.9,9.1,6.8,11.9,11.9
					C782.9,520.1,784.3,525.9,784.3,532.4z M772.2,528.8c-0.9-6-3.1-10.6-6.8-13.7c-3.6-3.2-8.5-4.7-14.7-4.7
					c-5.6,0-10.6,1.7-14.9,5c-4.3,3.4-7.2,7.8-8.7,13.4H772.2z"/>
				<path class="st2" d="M855.1,522.5c-2.6-3.6-5.8-6.5-9.5-8.8c-3.7-2.2-8-3.4-12.8-3.4c-4.4,0-8.5,1.1-12.5,3.3
					c-3.9,2.2-7,5.4-9.4,9.4c-2.4,4.1-3.6,8.9-3.6,14.4s1.2,10.3,3.6,14.4c2.4,4.1,5.5,7.3,9.4,9.4c3.9,2.2,8,3.3,12.5,3.3
					c4.8,0,9-1.1,12.8-3.4c3.7-2.2,6.8-5.2,9.5-8.8l8.4,8.4c-3.4,4.7-7.7,8.4-12.8,11.1c-5.2,2.7-11.1,4-17.8,4
					c-6.6,0-12.8-1.6-18.5-4.9c-5.8-3.2-10.4-7.8-13.8-13.6c-3.4-5.9-5.2-12.5-5.2-20s1.7-14.2,5.2-20s8-10.4,13.8-13.6
					c5.7-3.2,11.9-4.9,18.5-4.9c6.7,0,12.6,1.3,17.8,4c5.1,2.7,9.4,6.4,12.8,11.1L855.1,522.5z"/>
				<path class="st2" d="M880.9,500.7v-16.5l12-4.5v21h19.8v11.4h-19.8v39.4c0,3.8,0.9,6.9,2.6,9.2c1.7,2.4,4.3,3.5,7.6,3.5
					c2.2,0,4-0.1,5.5-0.4c1.4-0.2,3-0.7,4.6-1.3v11.4c-3.3,1.3-7,2-11.1,2c-6.9,0-12.2-2.1-15.8-6.2c-3.6-4.1-5.4-10.2-5.4-18.2
					v-39.4H871v-11.4L880.9,500.7L880.9,500.7z"/>
				<path class="st2" d="M988.6,532.4c0,3.4-0.2,6-0.5,7.8h-57.8c0.5,7,3,12.8,7.5,17.5s10.2,7,17.1,7c9.6,0,17.2-4,22.9-12l8.2,8.5
					c-3.1,4.2-7.3,7.7-12.8,10.6c-5.4,2.8-11.5,4.3-18.4,4.3c-7.1,0-13.4-1.6-19-5c-5.5-3.3-9.9-7.9-13-13.7s-4.7-12.5-4.7-19.9
					s1.7-14,5.1-20c3.4-5.9,7.9-10.5,13.5-13.7s11.6-4.9,18-4.9c6.5,0,12.3,1.4,17.4,4.3c5.1,2.9,9.1,6.8,11.9,11.9
					C987.2,520.1,988.6,525.9,988.6,532.4z M976.5,528.8c-0.9-6-3.1-10.6-6.8-13.7c-3.6-3.2-8.5-4.7-14.7-4.7
					c-5.6,0-10.6,1.7-14.9,5c-4.3,3.4-7.2,7.8-8.7,13.4H976.5z"/>
				<path class="st2" d="M1060.3,564.6c-2.4,3.3-5.7,6-10,8.2c-4.3,2.1-9,3.2-14.3,3.2c-6.7,0-12.8-1.6-18.3-4.6
					c-5.5-3.1-9.9-7.6-13.1-13.4c-3.3-5.8-4.9-12.7-4.9-20.5s1.6-14.6,4.9-20.5c3.2-5.9,7.6-10.3,13.1-13.4s11.6-4.6,18.3-4.6
					c5.3,0,10.1,1.1,14.3,3.2c4.2,2.2,7.6,4.9,10,8.2v-46.5h12v110.6h-12V564.6z M1011.7,537.5c0,5.3,1.1,10,3.4,14.1
					c2.2,4.1,5.2,7.3,9,9.6s7.8,3.5,12.1,3.5c7.5,0,13.5-2.6,18.2-7.7c4.6-5.1,6.9-11.6,6.9-19.5s-2.3-14.4-6.9-19.5
					s-10.7-7.7-18.2-7.7c-4.3,0-8.3,1.2-12.1,3.5c-3.8,2.3-6.8,5.5-9,9.6C1012.8,527.5,1011.7,532.2,1011.7,537.5z"/>
				<path class="st2" d="M1139.6,500.7v-16.5l12-4.5v21h19.8v11.4h-19.8v39.4c0,3.8,0.9,6.9,2.6,9.2c1.7,2.4,4.3,3.5,7.6,3.5
					c2.2,0,4-0.1,5.5-0.4c1.4-0.2,3-0.7,4.6-1.3v11.4c-3.3,1.3-7,2-11.1,2c-6.9,0-12.2-2.1-15.8-6.2c-3.6-4.1-5.4-10.2-5.4-18.2
					v-39.4h-9.9v-11.4L1139.6,500.7L1139.6,500.7z"/>
				<path class="st2" d="M1186.1,463.8h12V513c1.8-4,4.8-7.3,9.1-10c4.2-2.7,8.9-4,14-4c8.7,0,15.5,2.8,20.5,8.2
					c5,5.5,7.4,13.8,7.4,24.9v42.2h-12v-41.4c0-14.8-5.5-22.2-16.6-22.2c-4,0-7.7,1.2-11.2,3.4c-3.4,2.3-6.2,5.5-8.2,9.5
					s-3,8.5-3,13.4v37.2h-12L1186.1,463.8L1186.1,463.8z"/>
				<path class="st2" d="M1279.4,500.7v10.5c2.4-4,5.3-7,8.8-9.2c3.5-2.1,6.9-3.1,10.3-3.1c3.2,0,5.8,0.3,8,0.9v12.3
					c-2.6-0.6-5.2-0.9-7.7-0.9c-2.7,0-5.6,1-8.6,3c-3.1,2-5.6,5-7.7,8.9c-2.1,4-3.1,8.7-3.1,14.3v36.8h-12v-73.5L1279.4,500.7
					L1279.4,500.7z"/>
				<path class="st2" d="M1379.3,557.1c-3.3,5.9-7.8,10.5-13.6,13.9c-5.8,3.3-12.2,5-19.3,5c-7.1,0-13.5-1.7-19.3-5
					s-10.3-8-13.5-13.9c-3.3-5.9-4.9-12.5-4.9-19.7s1.6-13.7,4.9-19.7c3.2-5.9,7.7-10.5,13.5-13.9c5.7-3.3,12.2-5,19.3-5
					c7.1,0,13.5,1.7,19.3,5c5.8,3.4,10.2,8,13.5,13.9c3.2,5.9,4.9,12.5,4.9,19.7S1382.5,551.2,1379.3,557.1z M1320.8,537.5
					c0,5,1.1,9.6,3.2,13.7c2.1,4.1,5.1,7.4,9,9.8c3.8,2.5,8.3,3.7,13.4,3.7s9.6-1.2,13.4-3.7c3.8-2.4,6.8-5.7,9-9.8
					c2.1-4.1,3.2-8.6,3.2-13.7c0-5-1.1-9.5-3.2-13.7c-2.2-4.1-5.2-7.4-9-9.8c-3.9-2.4-8.3-3.7-13.4-3.7s-9.6,1.2-13.4,3.7
					c-3.9,2.5-6.9,5.7-9,9.8C1321.9,527.9,1320.8,532.5,1320.8,537.5z"/>
				<path class="st2" d="M1410.1,500.7v41.4c0,14.8,5.5,22.2,16.7,22.2c6.7,0,12.1-2.5,16.2-7.4c4.1-5,6.1-11.3,6.1-19v-37.2h12
					v73.5h-12v-10.8c-2.1,3.9-5.3,7-9.5,9.2c-4.3,2.2-8.8,3.4-13.6,3.4c-8.7,0-15.5-2.7-20.5-8.2c-4.9-5.5-7.4-13.8-7.4-24.9v-42.2
					H1410.1z"/>
				<path class="st2" d="M1480.6,516.3c3.2-5.6,7.5-9.9,12.8-12.9s11.1-4.5,17.3-4.5c10.7,0,19.2,3.9,25.6,11.5v-9.8h12v69
					c0,7.5-1.5,14-4.6,19.5s-7.2,9.7-12.5,12.5s-11.2,4.3-17.7,4.3c-7.3,0-13.8-1.6-19.4-4.7c-5.7-3.2-10.2-7.3-13.7-12.5l8.7-8.7
					c2.8,4.6,6.2,8.2,10.4,10.7c4.1,2.5,8.8,3.8,14.1,3.8c7,0,12.5-2.2,16.7-6.5c4.1-4.3,6.1-10.5,6.1-18.4v-8.5
					c-6.2,7.9-14.8,11.8-25.6,11.8c-6.2,0-12-1.5-17.3-4.5c-5.4-3-9.7-7.3-12.9-12.9c-3.3-5.6-4.9-12.2-4.9-19.7
					S1477.3,521.9,1480.6,516.3z M1487.3,536c0,5,1.1,9.5,3.5,13.3c2.3,3.9,5.3,6.9,9.1,9.1c3.8,2.2,7.8,3.2,12.1,3.2
					c7.5,0,13.6-2.4,18.3-7.2c4.7-4.8,7-11,7-18.5s-2.4-13.7-7-18.5c-4.7-4.8-10.8-7.2-18.3-7.2c-4.3,0-8.3,1.1-12.1,3.2
					c-3.8,2.2-6.8,5.2-9.1,9.1C1488.5,526.5,1487.3,531,1487.3,536z"/>
				<path class="st2" d="M1567.6,463.8h12V513c1.8-4,4.8-7.3,9.1-10c4.2-2.7,8.9-4,14-4c8.7,0,15.5,2.8,20.5,8.2
					c5,5.5,7.4,13.8,7.4,24.9v42.2h-12v-41.4c0-14.8-5.5-22.2-16.6-22.2c-4,0-7.7,1.2-11.2,3.4c-3.4,2.3-6.2,5.5-8.2,9.5
					s-3,8.5-3,13.4v37.2h-12L1567.6,463.8L1567.6,463.8z"/>
			</g>
			<g class="st1">
				<path class="st2" d="M402.9,629.2c10.3,0,19.4,2.2,27.5,6.8c8,4.5,14.2,10.7,18.8,18.7s6.8,17,6.8,27.1s-2.2,19.1-6.8,27.1
					s-10.8,14.2-18.8,18.7s-17.2,6.8-27.5,6.8H369v-105h33.9V629.2z M419.4,652.9c-4.9-2.7-10.4-4-16.5-4H389v65.7h13.9
					c6.1,0,11.6-1.4,16.5-4.2s8.7-6.7,11.5-11.7c2.7-5,4.1-10.7,4.1-17c0-6.4-1.4-12.1-4.1-17.1
					C428.1,659.6,424.3,655.7,419.4,652.9z"/>
				<path class="st2" d="M539.8,660.7v73.5h-18.9v-8.7c-1.9,3.1-4.7,5.6-8.5,7.6s-8.1,2.9-13,2.9c-6.1,0-11.8-1.6-17.1-4.7
					c-5.3-3.2-9.6-7.7-12.8-13.5c-3.3-5.9-4.9-12.6-4.9-20.3c0-7.8,1.6-14.6,4.9-20.4c3.2-5.8,7.5-10.3,12.8-13.4
					c5.3-3.1,11-4.7,17.1-4.7c4.9,0,9.2,1,13,2.8c3.8,1.9,6.6,4.4,8.5,7.4v-8.4L539.8,660.7L539.8,660.7z M483.6,697.5
					c0,6.1,1.8,11,5.5,14.7s8.2,5.5,13.6,5.5c5.5,0,10.1-1.9,13.8-5.7s5.5-8.6,5.5-14.5c0-6-1.9-10.9-5.5-14.6
					c-3.7-3.8-8.3-5.6-13.8-5.6c-5.4,0-10,1.8-13.6,5.5C485.4,686.3,483.6,691.3,483.6,697.5z"/>
				<path class="st2" d="M560.8,660.7v-13.3l18.9-7.7v21h18.5v17.5h-18.5v29c0,3.2,0.9,5.8,2.7,7.8s4,3,6.8,3c2.2,0,4-0.1,5.3-0.4
					c1.4-0.2,2.7-0.7,4.1-1.3V734c-3.9,1.3-8.2,2-12.9,2c-7.6,0-13.6-2.4-18.1-7.1c-4.5-4.7-6.8-11.7-6.8-20.9v-29.7h-9.9v-17.5
					L560.8,660.7L560.8,660.7z"/>
				<path class="st2" d="M679.8,660.7v73.5h-18.9v-8.7c-1.9,3.1-4.7,5.6-8.5,7.6s-8.1,2.9-13,2.9c-6.1,0-11.8-1.6-17.1-4.7
					c-5.3-3.2-9.6-7.7-12.8-13.5c-3.3-5.9-4.9-12.6-4.9-20.3c0-7.8,1.6-14.6,4.9-20.4c3.2-5.8,7.5-10.3,12.8-13.4
					c5.3-3.1,11-4.7,17.1-4.7c4.9,0,9.2,1,13,2.8c3.8,1.9,6.6,4.4,8.5,7.4v-8.4L679.8,660.7L679.8,660.7z M623.5,697.5
					c0,6.1,1.8,11,5.5,14.7s8.2,5.5,13.6,5.5c5.5,0,10.1-1.9,13.8-5.7s5.5-8.6,5.5-14.5c0-6-1.9-10.9-5.5-14.6
					c-3.7-3.8-8.3-5.6-13.8-5.6c-5.4,0-10,1.8-13.6,5.5C625.4,686.3,623.5,691.3,623.5,697.5z"/>
				<path class="st2" d="M734.8,680.1h32.1V648h19.6v32.1h32.1v19.7h-32.1v32.1h-19.6v-32.1h-32.1V680.1z"/>
				<path class="st2" d="M951.2,629.2v19.5h-30.8v85.5h-20v-85.5h-30.8v-19.5H951.2z"/>
				<path class="st2" d="M1016.2,693.9c0,2.8-0.2,5.9-0.8,9.3h-52.8c0.9,4.9,3,8.7,6.4,11.4c3.3,2.7,7.3,4.1,11.9,4.1
					c7,0,12.8-2.6,17.4-8l11.9,12.8c-3.4,3.8-7.6,6.9-12.5,9.1c-5,2.3-10.4,3.5-16.4,3.5c-7.1,0-13.5-1.6-19.3-4.9
					c-5.8-3.2-10.3-7.8-13.6-13.6c-3.3-5.9-5-12.5-5-20s1.7-14.2,5-20s7.9-10.4,13.6-13.6c5.7-3.2,11.9-4.9,18.8-4.9
					c6.5,0,12.5,1.5,17.8,4.6c5.4,3.1,9.7,7.3,12.8,12.6C1014.6,681.4,1016.2,687.4,1016.2,693.9z M969.8,679.3
					c-2.8,2.3-4.9,5.3-6.2,9h33.5c-0.9-3.6-2.8-6.6-5.7-8.9c-2.9-2.3-6.5-3.5-10.8-3.5C976.2,675.9,972.6,677,969.8,679.3z"/>
				<path class="st2" d="M1029.8,716.8c-3.4-5.9-5.1-12.3-5.1-19.3s1.7-13.4,5-19.3c3.3-5.9,8-10.6,14-14c5.9-3.5,12.6-5.2,20-5.2
					c5.5,0,10.6,1,15.3,3c4.7,2,8.7,4.8,12,8.4l-12.9,13.1c-3.5-4-8.3-6-14.4-6c-3.5,0-6.8,0.9-9.8,2.6c-3.1,1.8-5.5,4.2-7.3,7.2
					c-1.8,3.1-2.7,6.5-2.7,10.3s0.9,7.2,2.7,10.3c1.8,3.1,4.2,5.5,7.3,7.2c3,1.8,6.3,2.6,9.8,2.6c6.1,0,10.9-2,14.4-6.1l12.9,13.2
					c-3.3,3.6-7.3,6.4-12,8.4s-9.8,3-15.3,3c-7.4,0-14.1-1.7-20-5.2C1037.8,727.4,1033.1,722.7,1029.8,716.8z"/>
				<path class="st2" d="M1102.7,623.8h18.8V670c1.9-3.2,4.6-5.8,8.2-8c3.5-2.1,7.7-3.1,12.4-3.1c8.7,0,15.5,3,20.4,9
					s7.4,14.1,7.4,24.1v42.2H1151v-39.3c0-5.6-1.2-9.9-3.5-13c-2.3-3-5.6-4.6-9.9-4.6c-4.6,0-8.5,1.9-11.5,5.6
					c-3.1,3.8-4.7,8.8-4.7,15.2v36h-18.8L1102.7,623.8L1102.7,623.8z"/>
				<path class="st2" d="M1185.4,660.7h18.8v9.5c2.1-3.3,4.8-6,8.2-8c3.3-2,7.3-3.1,11.8-3.1c8.8,0,15.7,3,20.8,9
					c5,6,7.6,14.1,7.6,24.2v42h-18.8v-39.2c0-5.6-1.2-9.9-3.4-13c-2.3-3.1-5.6-4.6-9.9-4.6c-4.5,0-8.3,1.9-11.5,5.7
					s-4.7,8.9-4.7,15.3v35.8h-18.8L1185.4,660.7L1185.4,660.7z"/>
				<path class="st2" d="M1283.5,663.9c5.9-3.3,12.4-5,19.5-5s13.6,1.7,19.4,5c5.9,3.4,10.4,8,13.8,13.9c3.3,5.9,5,12.5,5,19.7
					s-1.7,13.8-5,19.7c-3.4,5.9-7.9,10.5-13.8,13.9c-5.8,3.3-12.3,5-19.4,5s-13.6-1.7-19.5-5s-10.5-8-13.9-13.9s-5-12.5-5-19.7
					s1.7-13.7,5-19.7C1273,671.9,1277.6,667.3,1283.5,663.9z M1289.2,711.7c3.5,3.9,8.1,5.8,13.8,5.8c5.6,0,10.2-1.9,13.7-5.8
					c3.5-3.9,5.3-8.6,5.3-14.2c0-5.6-1.8-10.3-5.3-14.2c-3.6-3.9-8.1-5.8-13.7-5.8c-5.7,0-10.3,1.9-13.9,5.8
					c-3.6,3.9-5.3,8.7-5.3,14.2C1283.8,703.1,1285.6,707.8,1289.2,711.7z"/>
				<path class="st2" d="M1373.2,623.8v110.4h-18.8V623.8H1373.2z"/>
				<path class="st2" d="M1405.1,663.9c5.9-3.3,12.4-5,19.5-5s13.6,1.7,19.4,5c5.9,3.4,10.4,8,13.8,13.9c3.3,5.9,5,12.5,5,19.7
					s-1.7,13.8-5,19.7c-3.4,5.9-7.9,10.5-13.8,13.9c-5.8,3.3-12.3,5-19.4,5s-13.6-1.7-19.5-5s-10.5-8-13.9-13.9s-5-12.5-5-19.7
					s1.7-13.7,5-19.7C1394.6,671.9,1399.2,667.3,1405.1,663.9z M1410.8,711.7c3.5,3.9,8.1,5.8,13.8,5.8c5.6,0,10.2-1.9,13.7-5.8
					c3.5-3.9,5.3-8.6,5.3-14.2c0-5.6-1.8-10.3-5.3-14.2c-3.6-3.9-8.1-5.8-13.7-5.8c-5.7,0-10.3,1.9-13.9,5.8
					c-3.6,3.9-5.3,8.7-5.3,14.2C1405.4,703.1,1407.2,707.8,1410.8,711.7z"/>
				<path class="st2" d="M1472.3,695.4c0-7.3,1.6-13.7,4.8-19.3c3.2-5.5,7.3-9.8,12.4-12.8c5.1-2.9,10.4-4.4,16.1-4.4
					c4.5,0,8.6,0.9,12.2,2.8c3.6,1.9,6.3,4,7.9,6.5v-7.5h18.6v67.5c0,7.4-1.6,14-4.7,19.7c-3.2,5.8-7.4,10.2-12.8,13.4
					c-5.4,3.1-11.3,4.7-17.8,4.7c-7.2,0-13.7-1.5-19.5-4.4c-5.8-3-10.6-6.9-14.2-11.8l12.9-12c5.4,7,12,10.5,19.8,10.5
					c5.1,0,9.3-1.8,12.7-5.3c3.3-3.6,5-8.4,5-14.6v-5.7c-1.6,2.5-4.2,4.7-7.9,6.5c-3.7,1.9-7.7,2.8-12.2,2.8c-5.6,0-11-1.5-16.1-4.4
					s-9.2-7.2-12.4-12.8C1473.9,709.2,1472.3,702.8,1472.3,695.4z M1496.6,708.1c3.5,3.4,7.6,5.1,12.4,5.1c5.3,0,9.5-1.7,12.8-5
					c3.2-3.3,4.8-7.6,4.8-12.8c0-5.1-1.6-9.3-4.9-12.7c-3.3-3.3-7.5-5-12.7-5c-4.8,0-9,1.7-12.4,5c-3.5,3.4-5.2,7.6-5.2,12.7
					C1491.4,700.6,1493.1,704.8,1496.6,708.1z"/>
				<path class="st2" d="M1591.4,703.3l17.7-42.6h20.4l-44.7,103.5h-20.5l17.4-39.2l-27.9-64.3h20.5L1591.4,703.3z"/>
			</g>
		</g>
	</g>
</g>
<g id="Circle_1_">
	<g id="Circle">
		<g id="Ring">
			<g>
				<path class="st2" d="M1000,371.4c71.9,0,142,11.9,208.8,35.5h46.6c-1.4-0.6-2.7-1.2-4.1-1.8c-79.6-33.7-164.1-50.7-251.3-50.7
					s-171.7,17.1-251.3,50.7c-1.4,0.6-2.7,1.2-4.1,1.8h46.6C858,383.3,928.1,371.4,1000,371.4z"/>
				<path class="st2" d="M1628.6,1000c0,84.9-16.6,167.2-49.4,244.7c-31.7,74.9-77,142.1-134.7,199.8
					c-57.7,57.7-125,103.1-199.8,134.7c-77.5,32.8-159.8,49.4-244.7,49.4s-167.2-16.6-244.7-49.4c-74.9-31.7-142.1-77-199.8-134.7
					s-103.1-125-134.7-199.8c-32.8-77.5-49.4-159.8-49.4-244.7c0-59.1,8.1-116.9,24-172.8h-17.6c-15.5,55.9-23.4,113.7-23.4,172.8
					c0,87.2,17.1,171.7,50.7,251.3c32.5,76.9,79.1,145.9,138.4,205.2c59.3,59.3,128.3,105.8,205.2,138.4
					c79.6,33.7,164.1,50.7,251.3,50.7s171.7-17.1,251.3-50.7c76.9-32.5,145.9-79.1,205.2-138.4c59.3-59.3,105.8-128.3,138.4-205.2
					c33.7-79.6,50.7-164.1,50.7-251.3c0-59-7.8-116.9-23.4-172.8h-17.6C1620.5,883.1,1628.6,940.9,1628.6,1000z"/>
			</g>
		</g>
	</g>
</g>
</svg>
