<?xml version="1.0" encoding="utf-8"?>
<!-- Generator: Adobe Illustrator 24.2.1, SVG Export Plug-In . SVG Version: 6.00 Build 0)  -->
<svg version="1.1" xmlns="http://www.w3.org/2000/svg" xmlns:xlink="http://www.w3.org/1999/xlink" x="0px" y="0px"
	 viewBox="0 0 2000 2000" style="enable-background:new 0 0 2000 2000;" xml:space="preserve">
<style type="text/css">
	.st0{fill:none;}
	.st1{enable-background:new    ;}
	.st2{fill:#E6E4D9;}
</style>
<g id="Dynamic_Working">
	<g id="Global_x5F_Network">
		<g>
			<rect x="662.5" y="751.1" class="st0" width="1381.1" height="365.9"/>
		</g>
		<g class="st1">
			<path class="st2" d="M741.8,836.8c-5-8.3-7.5-17.5-7.5-27.8s2.5-19.4,7.4-27.8c5-8.3,11.5-14.8,19.8-19.5c8.2-4.7,17.2-7,26.8-7
				c16.2,0,29.4,6.3,39.8,18.9l-8.7,8.7c-4.1-5-8.6-8.8-13.4-11.5c-4.9-2.6-10.7-4-17.6-4c-7.3,0-14.1,1.8-20.5,5.4
				c-6.4,3.6-11.4,8.6-15.2,15.1c-3.8,6.5-5.7,13.7-5.7,21.7c0,8,1.9,15.2,5.7,21.6c3.8,6.4,8.9,11.4,15.2,15.1
				c6.3,3.7,13.2,5.5,20.5,5.5c6.9,0,12.8-1.3,17.6-4c4.8-2.6,9.3-6.5,13.4-11.5l8.7,8.7c-10.3,12.6-23.6,18.9-39.8,18.9
				c-9.6,0-18.5-2.3-26.8-7C753.2,851.6,746.7,845.1,741.8,836.8z"/>
			<path class="st2" d="M906.2,844.4c-3.3,5.9-7.8,10.5-13.6,13.9c-5.8,3.3-12.2,5-19.3,5c-7.1,0-13.5-1.7-19.3-5
				c-5.8-3.3-10.3-8-13.5-13.9c-3.2-5.9-4.9-12.5-4.9-19.7s1.6-13.7,4.9-19.7c3.2-5.9,7.7-10.5,13.5-13.9c5.8-3.3,12.2-5,19.3-5
				c7.1,0,13.5,1.7,19.3,5c5.7,3.4,10.2,8,13.5,13.9c3.2,5.9,4.9,12.5,4.9,19.7S909.4,838.5,906.2,844.4z M847.7,824.8
				c0,5,1.1,9.6,3.2,13.7c2.1,4.1,5.1,7.4,9,9.8c3.8,2.5,8.3,3.7,13.4,3.7s9.6-1.2,13.4-3.7c3.8-2.4,6.8-5.7,9-9.8
				c2.1-4.1,3.2-8.6,3.2-13.7c0-5-1.1-9.5-3.2-13.7c-2.2-4.1-5.2-7.4-9-9.8c-3.9-2.4-8.3-3.7-13.4-3.7s-9.6,1.2-13.4,3.7
				c-3.9,2.5-6.9,5.7-9,9.8C848.7,815.2,847.7,819.8,847.7,824.8z"/>
			<path class="st2" d="M923.4,788h12v12.3c2.3-4.2,5.4-7.6,9.4-10.2c3.9-2.6,8.5-3.9,13.7-3.9c8.7,0,15.5,2.8,20.5,8.2
				c5,5.5,7.4,13.8,7.4,24.9v42.2h-12v-41.4c0-14.8-5.5-22.2-16.6-22.2c-4,0-7.7,1.2-11.2,3.4c-3.5,2.3-6.2,5.5-8.2,9.5
				c-2,4-3,8.5-3,13.4v37.2h-12V788z"/>
			<path class="st2" d="M1002.6,788h12v12.3c2.3-4.2,5.4-7.6,9.4-10.2c3.9-2.6,8.5-3.9,13.7-3.9c8.7,0,15.5,2.8,20.5,8.2
				c5,5.5,7.4,13.8,7.4,24.9v42.2h-12v-41.4c0-14.8-5.5-22.2-16.6-22.2c-4,0-7.7,1.2-11.2,3.4c-3.5,2.3-6.2,5.5-8.2,9.5
				c-2,4-3,8.5-3,13.4v37.2h-12V788z"/>
			<path class="st2" d="M1146.9,819.7c0,3.4-0.2,6-0.5,7.8h-57.7c0.5,7,3,12.8,7.5,17.5c4.5,4.7,10.2,7,17.1,7c9.6,0,17.3-4,23-12
				l8.2,8.5c-3.1,4.2-7.3,7.7-12.8,10.6c-5.4,2.8-11.5,4.3-18.5,4.3c-7.1,0-13.4-1.6-19-5c-5.5-3.3-9.9-7.9-13-13.7
				c-3.1-5.8-4.7-12.5-4.7-19.9c0-7.4,1.7-14,5.1-20c3.4-5.9,7.9-10.5,13.5-13.7c5.6-3.2,11.6-4.9,18-4.9c6.5,0,12.3,1.4,17.4,4.3
				c5.1,2.9,9.1,6.8,11.9,11.9C1145.5,807.4,1146.9,813.2,1146.9,819.7z M1134.7,816.1c-0.9-6-3.2-10.6-6.8-13.7
				c-3.6-3.2-8.5-4.7-14.7-4.7c-5.6,0-10.6,1.7-14.8,5c-4.3,3.4-7.2,7.8-8.7,13.4H1134.7z"/>
			<path class="st2" d="M1215.6,809.8c-2.6-3.6-5.8-6.5-9.5-8.8c-3.7-2.2-8-3.4-12.8-3.4c-4.4,0-8.5,1.1-12.5,3.3
				c-3.9,2.2-7,5.4-9.4,9.4c-2.4,4.1-3.6,8.9-3.6,14.4c0,5.5,1.2,10.3,3.6,14.4c2.4,4.1,5.5,7.3,9.4,9.4c3.9,2.2,8,3.3,12.5,3.3
				c4.8,0,9-1.1,12.8-3.4c3.7-2.2,6.8-5.2,9.5-8.8l8.4,8.4c-3.4,4.7-7.7,8.4-12.8,11.1c-5.2,2.7-11.1,4-17.8,4
				c-6.6,0-12.8-1.6-18.5-4.9c-5.8-3.2-10.4-7.8-13.8-13.6c-3.4-5.9-5.2-12.5-5.2-20s1.7-14.2,5.2-20c3.5-5.8,8-10.4,13.8-13.6
				c5.7-3.2,11.9-4.9,18.5-4.9c6.7,0,12.6,1.3,17.8,4c5.1,2.7,9.4,6.4,12.8,11.1L1215.6,809.8z"/>
			<path class="st2" d="M1239.3,788v-16.5l12-4.5v21h19.8v11.4h-19.8v39.4c0,3.8,0.9,6.9,2.6,9.2c1.7,2.4,4.3,3.5,7.6,3.5
				c2.2,0,4-0.1,5.5-0.4c1.4-0.2,3-0.7,4.6-1.3v11.4c-3.3,1.3-7,2-11.1,2c-6.9,0-12.2-2.1-15.8-6.2c-3.6-4.1-5.4-10.2-5.4-18.2
				v-39.4h-9.9V788H1239.3z"/>
			<path class="st2" d="M1344.9,819.7c0,3.4-0.2,6-0.5,7.8h-57.8c0.5,7,3,12.8,7.5,17.5c4.5,4.7,10.2,7,17.1,7c9.6,0,17.2-4,22.9-12
				l8.2,8.5c-3.1,4.2-7.3,7.7-12.8,10.6c-5.4,2.8-11.5,4.3-18.4,4.3c-7.1,0-13.4-1.6-19-5c-5.5-3.3-9.9-7.9-13-13.7
				c-3.1-5.8-4.7-12.5-4.7-19.9c0-7.4,1.7-14,5.1-20c3.4-5.9,7.9-10.5,13.5-13.7c5.6-3.2,11.6-4.9,18-4.9c6.5,0,12.3,1.4,17.4,4.3
				c5.1,2.9,9.1,6.8,11.9,11.9C1343.5,807.4,1344.9,813.2,1344.9,819.7z M1332.7,816.1c-0.9-6-3.1-10.6-6.8-13.7
				c-3.6-3.2-8.5-4.7-14.7-4.7c-5.6,0-10.6,1.7-14.9,5c-4.3,3.4-7.2,7.8-8.7,13.4H1332.7z"/>
			<path class="st2" d="M1414.5,851.9c-2.4,3.3-5.7,6-10,8.2c-4.3,2.1-9,3.2-14.3,3.2c-6.7,0-12.8-1.6-18.3-4.6
				c-5.5-3.1-9.9-7.6-13.1-13.4c-3.3-5.8-4.9-12.7-4.9-20.5s1.6-14.6,4.9-20.5c3.2-5.9,7.6-10.3,13.1-13.4
				c5.5-3.1,11.6-4.6,18.3-4.6c5.3,0,10.1,1.1,14.3,3.2c4.2,2.2,7.6,4.9,10,8.2v-46.5h12v110.6h-12V851.9z M1365.9,824.8
				c0,5.3,1.1,10,3.4,14.1c2.2,4.1,5.2,7.3,9,9.6c3.8,2.3,7.8,3.5,12.1,3.5c7.5,0,13.5-2.6,18.2-7.7c4.6-5.1,6.9-11.6,6.9-19.5
				c0-7.9-2.3-14.4-6.9-19.5c-4.6-5.1-10.7-7.7-18.2-7.7c-4.3,0-8.3,1.2-12.1,3.5c-3.8,2.3-6.8,5.5-9,9.6
				C1367,814.8,1365.9,819.5,1365.9,824.8z"/>
			<path class="st2" d="M1489.6,788v-16.5l12-4.5v21h19.8v11.4h-19.8v39.4c0,3.8,0.9,6.9,2.6,9.2c1.7,2.4,4.3,3.5,7.6,3.5
				c2.2,0,4-0.1,5.5-0.4c1.4-0.2,3-0.7,4.6-1.3v11.4c-3.3,1.3-7,2-11.1,2c-6.9,0-12.2-2.1-15.8-6.2c-3.6-4.1-5.4-10.2-5.4-18.2
				v-39.4h-9.9V788H1489.6z"/>
			<path class="st2" d="M1534,751.1h12v49.2c1.8-4,4.8-7.3,9.1-10c4.2-2.7,8.9-4,14-4c8.7,0,15.5,2.8,20.5,8.2
				c5,5.5,7.4,13.8,7.4,24.9v42.2h-12v-41.4c0-14.8-5.5-22.2-16.6-22.2c-4,0-7.7,1.2-11.2,3.4c-3.4,2.3-6.2,5.5-8.2,9.5
				c-2,4-3,8.5-3,13.4v37.2h-12V751.1z"/>
			<path class="st2" d="M1625.2,788v10.5c2.4-4,5.3-7,8.8-9.2c3.5-2.1,6.9-3.1,10.3-3.1c3.2,0,5.8,0.3,8,0.9v12.3
				c-2.6-0.6-5.2-0.9-7.7-0.9c-2.7,0-5.6,1-8.6,3c-3.1,2-5.6,5-7.7,8.9c-2.1,4-3.1,8.7-3.1,14.3v36.8h-12V788H1625.2z"/>
			<path class="st2" d="M1723,844.4c-3.3,5.9-7.8,10.5-13.6,13.9c-5.8,3.3-12.2,5-19.3,5c-7.1,0-13.5-1.7-19.3-5
				c-5.8-3.3-10.3-8-13.5-13.9c-3.3-5.9-4.9-12.5-4.9-19.7s1.6-13.7,4.9-19.7c3.2-5.9,7.7-10.5,13.5-13.9c5.7-3.3,12.2-5,19.3-5
				c7.1,0,13.5,1.7,19.3,5c5.8,3.4,10.2,8,13.5,13.9c3.2,5.9,4.9,12.5,4.9,19.7S1726.2,838.5,1723,844.4z M1664.5,824.8
				c0,5,1.1,9.6,3.2,13.7c2.1,4.1,5.1,7.4,9,9.8c3.8,2.5,8.3,3.7,13.4,3.7c5.1,0,9.6-1.2,13.4-3.7c3.8-2.4,6.8-5.7,9-9.8
				c2.1-4.1,3.2-8.6,3.2-13.7c0-5-1.1-9.5-3.2-13.7c-2.2-4.1-5.2-7.4-9-9.8c-3.9-2.4-8.3-3.7-13.4-3.7c-5.1,0-9.6,1.2-13.4,3.7
				c-3.9,2.5-6.9,5.7-9,9.8C1665.6,815.2,1664.5,819.8,1664.5,824.8z"/>
			<path class="st2" d="M1751.7,788v41.4c0,14.8,5.5,22.2,16.7,22.2c6.7,0,12.1-2.5,16.2-7.4c4.1-5,6.1-11.3,6.1-19V788h12v73.5h-12
				v-10.8c-2.1,3.9-5.3,7-9.5,9.2c-4.3,2.2-8.8,3.4-13.6,3.4c-8.7,0-15.5-2.7-20.5-8.2c-4.9-5.5-7.4-13.8-7.4-24.9V788H1751.7z"/>
			<path class="st2" d="M1820.1,803.6c3.2-5.6,7.5-9.9,12.8-12.9c5.3-3,11.1-4.5,17.3-4.5c10.7,0,19.2,3.9,25.6,11.5V788h12v69
				c0,7.5-1.5,14-4.6,19.5c-3.1,5.5-7.2,9.7-12.5,12.5c-5.3,2.8-11.2,4.3-17.7,4.3c-7.3,0-13.8-1.6-19.4-4.7
				c-5.7-3.2-10.2-7.3-13.7-12.5l8.7-8.7c2.8,4.6,6.2,8.2,10.4,10.7c4.1,2.5,8.8,3.8,14.1,3.8c7,0,12.5-2.2,16.7-6.5
				c4.1-4.3,6.1-10.5,6.1-18.4v-8.5c-6.2,7.9-14.8,11.8-25.6,11.8c-6.2,0-12-1.5-17.3-4.5c-5.4-3-9.7-7.3-12.9-12.9
				c-3.3-5.6-4.9-12.2-4.9-19.7S1816.8,809.2,1820.1,803.6z M1826.8,823.3c0,5,1.1,9.5,3.5,13.3c2.3,3.9,5.3,6.9,9.1,9.1
				c3.8,2.2,7.8,3.2,12.1,3.2c7.5,0,13.6-2.4,18.3-7.2c4.7-4.8,7-11,7-18.5s-2.4-13.7-7-18.5c-4.7-4.8-10.8-7.2-18.3-7.2
				c-4.3,0-8.3,1.1-12.1,3.2c-3.8,2.2-6.8,5.2-9.1,9.1C1828,813.8,1826.8,818.3,1826.8,823.3z"/>
			<path class="st2" d="M1905,751.1h12v49.2c1.8-4,4.8-7.3,9.1-10c4.2-2.7,8.9-4,14-4c8.7,0,15.5,2.8,20.5,8.2
				c5,5.5,7.4,13.8,7.4,24.9v42.2h-12v-41.4c0-14.8-5.5-22.2-16.6-22.2c-4,0-7.7,1.2-11.2,3.4c-3.4,2.3-6.2,5.5-8.2,9.5
				c-2,4-3,8.5-3,13.4v37.2h-12V751.1z"/>
		</g>
		<g class="st1">
		</g>
		<g class="st1">
			<path class="st2" d="M768.5,916.5c10.3,0,19.4,2.2,27.5,6.8c8,4.5,14.2,10.7,18.8,18.7s6.8,17,6.8,27.1c0,10.1-2.2,19.1-6.8,27.1
				c-4.5,8-10.8,14.2-18.8,18.7c-8,4.5-17.2,6.8-27.5,6.8h-33.9v-105H768.5z M785,940.2c-4.9-2.7-10.4-4-16.5-4h-13.9v65.7h13.9
				c6.1,0,11.6-1.4,16.5-4.2c4.9-2.8,8.7-6.7,11.5-11.7c2.7-5,4.1-10.7,4.1-17c0-6.4-1.4-12.1-4.1-17.1
				C793.7,946.9,789.9,943,785,940.2z"/>
			<path class="st2" d="M867.3,990.6L885,948h20.4l-44.7,103.5h-20.5l17.4-39.2L829.7,948h20.5L867.3,990.6z"/>
			<path class="st2" d="M917.4,948h18.8v9.5c2.1-3.3,4.8-6,8.2-8c3.3-2,7.3-3.1,11.8-3.1c8.8,0,15.7,3,20.8,9c5,6,7.6,14.1,7.6,24.2
				v42h-18.8v-39.2c0-5.6-1.2-9.9-3.5-13c-2.3-3.1-5.6-4.6-9.9-4.6c-4.5,0-8.3,1.9-11.5,5.7c-3.2,3.8-4.7,8.9-4.7,15.3v35.9h-18.8
				V948z"/>
			<path class="st2" d="M1074.4,948v73.5h-18.9v-8.7c-1.9,3.1-4.7,5.6-8.5,7.6c-3.8,1.9-8.1,2.9-13,2.9c-6.1,0-11.8-1.6-17.1-4.7
				c-5.3-3.2-9.6-7.7-12.8-13.5c-3.3-5.9-4.9-12.6-4.9-20.3c0-7.8,1.6-14.6,4.9-20.4c3.2-5.8,7.5-10.3,12.8-13.4
				c5.3-3.1,11-4.7,17.1-4.7c4.9,0,9.2,1,13,2.8c3.8,1.9,6.6,4.4,8.5,7.4V948H1074.4z M1018.2,984.8c0,6.1,1.8,11,5.5,14.7
				c3.7,3.7,8.2,5.6,13.7,5.6c5.5,0,10.1-1.9,13.8-5.7c3.7-3.8,5.5-8.6,5.5-14.5c0-6-1.9-10.9-5.5-14.6c-3.7-3.8-8.3-5.6-13.8-5.6
				c-5.4,0-10,1.8-13.7,5.5C1020,973.6,1018.2,978.6,1018.2,984.8z"/>
			<path class="st2" d="M1119.7,949.1c3.1-1.8,6.6-2.7,10.7-2.7c5.2,0,9.7,1.1,13.5,3.2c3.8,2.2,6.9,5.6,9.5,10.4
				c2.3-3.9,5.4-7.1,9.2-9.8c3.8-2.6,8.3-3.9,13.4-3.9c5.2,0,9.9,1.3,14,3.8c4.1,2.5,7.4,6.2,9.9,11.1c2.4,4.9,3.7,10.8,3.7,17.7
				v42.6h-18.8v-39.3c0-5.5-1.1-9.8-3.2-12.8c-2.2-3-5.2-4.6-9.2-4.6c-4,0-7.4,1.6-10.2,4.7c-2.8,3.1-4.2,7.5-4.2,13.2v38.9h-18.8
				v-39.3c0-5.5-1.1-9.8-3.3-12.8c-2.2-3-5.3-4.6-9.3-4.6c-3.9,0-7.3,1.6-10.1,4.7c-2.8,3.1-4.3,7.5-4.3,13.2v38.9h-18.8V948h18.8
				v8.2C1114,953.4,1116.5,951,1119.7,949.1z"/>
			<path class="st2" d="M1232.4,914.7c3.1,0,5.8,1.2,8.1,3.5c2.3,2.3,3.5,5.1,3.5,8.2c0,3.2-1.2,6-3.5,8.2c-2.3,2.3-5,3.4-8.1,3.4
				c-3.2,0-6-1.1-8.2-3.4c-2.3-2.3-3.5-5-3.5-8.2c0-3.2,1.1-5.9,3.5-8.2C1226.4,915.9,1229.2,914.7,1232.4,914.7z M1222.9,948v73.5
				h18.9V948H1222.9z"/>
			<path class="st2" d="M1263.4,1004.1c-3.4-5.9-5.1-12.3-5.1-19.4c0-7,1.7-13.4,5-19.3c3.3-5.9,8-10.6,14-14
				c5.9-3.5,12.6-5.2,20-5.2c5.5,0,10.6,1,15.3,3c4.7,2,8.7,4.8,12,8.4l-12.9,13.1c-3.5-4-8.3-6-14.4-6c-3.5,0-6.8,0.9-9.8,2.6
				c-3.1,1.8-5.5,4.2-7.3,7.2c-1.8,3.1-2.7,6.5-2.7,10.3c0,3.8,0.9,7.2,2.7,10.3c1.8,3.1,4.2,5.5,7.3,7.2c3,1.8,6.3,2.6,9.8,2.6
				c6.1,0,10.9-2,14.4-6.1l12.9,13.2c-3.3,3.6-7.3,6.4-12,8.4c-4.7,2-9.8,3-15.3,3c-7.4,0-14.1-1.7-20-5.2
				C1271.4,1014.7,1266.7,1010,1263.4,1004.1z"/>
			<path class="st2" d="M1395.7,916.5l27,69.2l24-69.2h13l24.9,69.2l25.3-69.2h21.8l-41.4,105h-13.7l-23.7-66.5l-24.1,66.5h-13.5
				l-41.4-105H1395.7z"/>
			<path class="st2" d="M1546.9,951.2c5.9-3.3,12.4-5,19.5-5c7.1,0,13.6,1.7,19.4,5c5.9,3.4,10.4,8,13.8,13.9c3.3,5.9,5,12.5,5,19.7
				s-1.7,13.8-5,19.7c-3.4,5.9-7.9,10.5-13.8,13.9c-5.8,3.3-12.3,5-19.4,5c-7.1,0-13.6-1.7-19.5-5c-5.9-3.3-10.5-8-13.9-13.9
				c-3.4-5.9-5-12.5-5-19.7s1.7-13.7,5-19.7C1536.4,959.2,1541,954.6,1546.9,951.2z M1552.6,999c3.5,3.9,8.1,5.9,13.8,5.9
				c5.6,0,10.2-1.9,13.7-5.9c3.5-3.9,5.3-8.6,5.3-14.2c0-5.6-1.8-10.3-5.3-14.2c-3.6-3.9-8.1-5.8-13.7-5.8c-5.7,0-10.3,1.9-13.9,5.8
				c-3.6,3.9-5.3,8.7-5.3,14.2C1547.2,990.4,1549,995.1,1552.6,999z"/>
			<path class="st2" d="M1620.4,948h17.2l0.8,12.3c2.5-4.9,5.4-8.5,8.9-10.7c3.4-2.2,7.4-3.4,12-3.4c2.9,0,5.5,0.4,7.9,1v19.2
				c-2.9-0.8-5.7-1.2-8.4-1.2c-3.3,0-6.5,1-9.5,3.2c-3.1,2.1-5.5,4.9-7.3,8.5c-1.9,3.6-2.8,7.4-2.8,11.5v33.2h-18.8V948z"/>
			<path class="st2" d="M1681.5,911.1h18.8v65.4l24.6-28.5h23l-28.2,31.2l30.9,42.3h-22.6l-20.9-28.4l-6.8,7.5v20.8h-18.8V911.1z"/>
			<path class="st2" d="M1772.5,914.7c3.1,0,5.8,1.2,8.1,3.5c2.3,2.3,3.5,5.1,3.5,8.2c0,3.2-1.2,6-3.5,8.2c-2.3,2.3-5,3.4-8.1,3.4
				c-3.2,0-6-1.1-8.2-3.4c-2.3-2.3-3.5-5-3.5-8.2c0-3.2,1.1-5.9,3.5-8.2C1766.6,915.9,1769.3,914.7,1772.5,914.7z M1763.1,948v73.5
				h18.9V948H1763.1z"/>
			<path class="st2" d="M1801.9,948h18.8v9.5c2.1-3.3,4.8-6,8.2-8c3.3-2,7.3-3.1,11.8-3.1c8.8,0,15.7,3,20.8,9
				c5,6,7.6,14.1,7.6,24.2v42h-18.8v-39.2c0-5.6-1.2-9.9-3.4-13c-2.3-3.1-5.6-4.6-9.9-4.6c-4.5,0-8.3,1.9-11.5,5.7
				c-3.2,3.8-4.7,8.9-4.7,15.3v35.9h-18.8V948z"/>
			<path class="st2" d="M1884,982.7c0-7.3,1.6-13.7,4.8-19.3c3.2-5.5,7.3-9.8,12.4-12.8c5.1-2.9,10.4-4.4,16.1-4.4
				c4.5,0,8.6,0.9,12.2,2.8c3.6,1.9,6.3,4,7.9,6.5V948h18.6v67.5c0,7.4-1.6,14-4.7,19.7c-3.2,5.8-7.4,10.2-12.8,13.3
				c-5.4,3.2-11.3,4.7-17.8,4.7c-7.2,0-13.7-1.5-19.5-4.4c-5.8-3-10.6-6.9-14.2-11.8l12.9-12c5.4,7,12,10.5,19.8,10.5
				c5.1,0,9.3-1.8,12.7-5.3c3.3-3.6,5-8.4,5-14.6v-5.7c-1.6,2.5-4.2,4.7-7.9,6.5c-3.7,1.9-7.7,2.8-12.2,2.8c-5.6,0-11-1.5-16.1-4.4
				c-5.1-2.9-9.2-7.2-12.4-12.8C1885.6,996.5,1884,990.1,1884,982.7z M1908.3,995.4c3.5,3.4,7.6,5.1,12.4,5.1c5.3,0,9.5-1.7,12.8-5
				c3.2-3.3,4.8-7.6,4.8-12.8c0-5.1-1.6-9.3-4.9-12.7c-3.3-3.3-7.5-5-12.7-5c-4.8,0-9,1.7-12.4,5c-3.5,3.4-5.2,7.6-5.2,12.7
				C1903,987.9,1904.8,992.1,1908.3,995.4z"/>
		</g>
	</g>
</g>
<g id="Cirlce">
	<g id="ring">
		<g>
			<path class="st2" d="M1234.9,1169.8c-31.7,74.9-77,142.1-134.7,199.8c-57.7,57.7-125,103.1-199.8,134.7
				c-77.5,32.8-159.8,49.4-244.7,49.4s-167.2-16.6-244.7-49.4c-74.9-31.7-142.1-77-199.8-134.7s-103.1-125-134.7-199.8
				c-32.8-77.5-49.4-159.8-49.4-244.7s16.6-167.2,49.4-244.7c31.7-74.9,77-142.1,134.7-199.8s125-103.1,199.8-134.7
				c77.5-32.8,159.8-49.4,244.7-49.4s167.2,16.6,244.7,49.4c74.9,31.7,142.1,77,199.8,134.7s103.1,125,134.7,199.8
				c0.2,0.5,0.4,1.1,0.7,1.6h18.4c-1.1-2.7-2.2-5.5-3.4-8.2c-32.5-76.9-79.1-145.9-138.4-205.2c-59.3-59.3-128.3-105.8-205.2-138.4
				c-79.6-33.7-164.1-50.7-251.3-50.7S484,296.6,404.4,330.2c-76.9,32.5-145.9,79.1-205.2,138.4S93.3,596.9,60.8,673.8
				c-33.7,79.6-50.7,164.1-50.7,251.3s17.1,171.7,50.7,251.3c32.5,76.9,79.1,145.9,138.4,205.2s128.3,105.8,205.2,138.4
				c79.6,33.7,164.1,50.7,251.3,50.7s171.7-17.1,251.3-50.7c76.9-32.5,145.9-79.1,205.2-138.4c59.3-59.3,105.8-128.3,138.4-205.2
				c10.4-24.5,19.2-49.5,26.4-74.9h-17.7C1252.5,1124.6,1244.4,1147.4,1234.9,1169.8z"/>
		</g>
	</g>
</g>
</svg>
