<?xml version="1.0" encoding="utf-8"?>
<!-- Generator: Adobe Illustrator 24.2.1, SVG Export Plug-In . SVG Version: 6.00 Build 0)  -->
<svg version="1.1" xmlns="http://www.w3.org/2000/svg" xmlns:xlink="http://www.w3.org/1999/xlink" x="0px" y="0px"
	 viewBox="0 0 802.7 499.9" style="enable-background:new 0 0 802.7 499.9;" xml:space="preserve">
<style type="text/css">
	.st0{fill:none;}
	.st1{fill:#52FF3E;}
	.st2{fill:#FFFFFF;}
</style>
<g id="Clear_x5F_Space">
	<path class="st0" d="M7.7,319.6c-4.3,0-7.7-3.5-7.7-7.7V187.5c0-4.3,3.3-7.7,7.7-7.7l38-0.2c11.4,0,22,3.9,29.8,11.1
		c7.8,7.1,12.1,16.9,12.1,27.5c0,10.5-3.8,19.3-11.5,27.1l-1.7,1.7c-0.5,0.5-0.7,1.1-0.7,1.8c0,0.7,0.3,1.3,0.9,1.7l1.9,1.5
		c9.2,7.6,13.7,16.9,13.7,28.6c0,21.5-18.9,39.1-42.1,39.1H7.7z M17.8,257.6c-1.3,0-2.4,1.1-2.4,2.4v41.8c0,1.3,1.1,2.4,2.4,2.4
		h30.3c14.9,0,26.6-10.4,26.6-23.6c0-12.9-11.6-23-26.4-23H17.8z M17.8,195.2c-1.3,0-2.4,1.1-2.4,2.4v42.1c0,1.3,1.1,2.4,2.4,2.4
		h27.9c14.6,0,26.4-10.8,26.4-24c0-12.9-11.6-23.1-26.4-23.1h0L17.8,195.2z"/>
	<path class="st0" d="M720.2,319.6c-4.3,0-7.7-3.5-7.7-7.7V187.5c0-4.3,3.3-7.7,7.7-7.7l38-0.2c11.4,0,22,3.9,29.8,11.1
		c7.8,7.1,12.1,16.9,12.1,27.5c0,10.5-3.8,19.3-11.5,27.1l-1.7,1.7c-0.5,0.5-0.7,1.1-0.7,1.8c0,0.7,0.3,1.3,0.9,1.7l1.9,1.5
		c9.2,7.6,13.7,16.9,13.7,28.6c0,21.5-18.9,39.1-42.1,39.1H720.2z M730.3,257.6c-1.3,0-2.4,1.1-2.4,2.4v41.8c0,1.3,1.1,2.4,2.4,2.4
		h30.3c14.9,0,26.6-10.4,26.6-23.6c0-12.9-11.6-23-26.4-23H730.3z M730.3,195.2c-1.3,0-2.4,1.1-2.4,2.4v42.1c0,1.3,1.1,2.4,2.4,2.4
		h27.9c14.6,0,26.4-10.8,26.4-24c0-12.9-11.6-23.1-26.4-23.1h0L730.3,195.2z"/>
	<path class="st0" d="M489.9,417.4c0-4.3,3.5-7.7,7.7-7.7H622c4.3,0,7.7,3.3,7.7,7.7l0.2,38c0,11.4-3.9,22-11.1,29.8
		c-7.1,7.8-16.9,12.1-27.5,12.1c-10.5,0-19.3-3.8-27.1-11.5l-1.7-1.7c-0.5-0.5-1.1-0.7-1.8-0.7c-0.7,0-1.3,0.3-1.7,0.9l-1.5,1.9
		c-7.6,9.2-16.9,13.7-28.6,13.7c-21.5,0-39.1-18.9-39.1-42.1V417.4z M551.9,427.5c0-1.3-1.1-2.4-2.4-2.4h-41.8
		c-1.3,0-2.4,1.1-2.4,2.4v30.3c0,14.9,10.4,26.6,23.6,26.6c12.9,0,23-11.6,23-26.4V427.5z M614.3,427.4c0-1.3-1.1-2.4-2.4-2.4h-42.1
		c-1.3,0-2.4,1.1-2.4,2.4v27.9c0,14.6,10.8,26.4,24,26.4c12.9,0,23.1-11.6,23.1-26.4v0L614.3,427.4z"/>
	<path class="st0" d="M489.9,7.7c0-4.3,3.5-7.7,7.7-7.7H622c4.3,0,7.7,3.3,7.7,7.7l0.2,38c0,11.4-3.9,22-11.1,29.8
		c-7.1,7.8-16.9,12.1-27.5,12.1c-10.5,0-19.3-3.8-27.1-11.5l-1.7-1.7c-0.5-0.5-1.1-0.7-1.8-0.7c-0.7,0-1.3,0.3-1.7,0.9l-1.5,1.9
		c-7.6,9.2-16.9,13.7-28.6,13.7c-21.5,0-39.1-18.9-39.1-42.1V7.7z M551.9,17.8c0-1.3-1.1-2.4-2.4-2.4h-41.8c-1.3,0-2.4,1.1-2.4,2.4
		v30.3c0,14.9,10.4,26.6,23.6,26.6c12.9,0,23-11.6,23-26.4V17.8z M614.3,17.8c0-1.3-1.1-2.4-2.4-2.4h-42.1c-1.3,0-2.4,1.1-2.4,2.4
		v27.9c0,14.6,10.8,26.4,24,26.4c12.9,0,23.1-11.6,23.1-26.4v0L614.3,17.8z"/>
</g>
<g id="BMB_x5F_Core_x5F_SpotLight_x2B_Logo">
	<circle class="st1" cx="553.1" cy="249.6" r="159.4"/>
	<g>
		<path class="st2" d="M326.3,319.4c-3.8,0-7.7-2.9-7.7-7.7v-91.4c0-0.8-1-1-1.4-0.4L277,292.5c-1.3,2.1-4.2,3.9-6.5,3.9l-0.2,0
			c-3.1,0-5.1-1.2-6.9-4L223.3,220c-0.4-0.7-1.4-0.4-1.4,0.4l0,91.4c0,4.2-3.4,7.6-7.7,7.7l-0.2,0c-2,0-4-0.8-5.5-2.4
			c-1.5-1.5-2.3-3.5-2.3-5.6V186.6c0-3.5,2.3-6.5,5.7-7.5c0.7-0.2,1.4-0.3,2.1-0.3c2.7,0,5.2,1.4,6.6,3.8l48.4,88.2
			c0.4,0.8,1.6,0.8,2.1,0l48.4-88.3c1.4-2.3,3.8-3.7,6.5-3.7c0.7,0,1.5,0.1,2.2,0.3c2.8,0.8,5.6,3.5,5.6,7.5v125.1
			C334,316,330.6,319.4,326.3,319.4z"/>
		<path class="st2" d="M97.9,319.6c-4.3,0-7.7-3.5-7.7-7.7V187.5c0-4.3,3.3-7.7,7.7-7.7l38-0.2c11.4,0,22,3.9,29.8,11.1
			c7.8,7.1,12.1,16.9,12.1,27.5c0,10.5-3.8,19.3-11.5,27.1l-1.7,1.7c-0.5,0.5-0.7,1.1-0.7,1.8c0,0.7,0.3,1.3,0.9,1.7l1.9,1.5
			c9.2,7.6,13.7,16.9,13.7,28.6c0,21.5-18.9,39.1-42.1,39.1H97.9z M108,257.6c-1.3,0-2.4,1.1-2.4,2.4v41.8c0,1.3,1.1,2.4,2.4,2.4
			h30.3c14.9,0,26.6-10.4,26.6-23.6c0-12.9-11.6-23-26.4-23H108z M108,195.2c-1.3,0-2.4,1.1-2.4,2.4v42.1c0,1.3,1.1,2.4,2.4,2.4H136
			c14.6,0,26.4-10.8,26.4-24c0-12.9-11.6-23.1-26.4-23.1h0L108,195.2z"/>
		<path class="st2" d="M369.2,319.6c-4.3,0-7.7-3.5-7.7-7.7V187.5c0-4.3,3.3-7.7,7.7-7.7l38-0.2c11.4,0,22,3.9,29.8,11.1
			c7.8,7.1,12.1,16.9,12.1,27.5c0,10.5-3.8,19.3-11.5,27.1l-1.7,1.7c-0.5,0.5-0.7,1.1-0.7,1.8c0,0.7,0.3,1.3,0.9,1.7l1.9,1.5
			c9.2,7.6,13.7,16.9,13.7,28.6c0,21.5-18.9,39.1-42.1,39.1H369.2z M379.3,257.6c-1.3,0-2.4,1.1-2.4,2.4v41.8c0,1.3,1.1,2.4,2.4,2.4
			h30.3c14.9,0,26.6-10.4,26.6-23.6c0-12.9-11.6-23-26.4-23H379.3z M379.3,195.2c-1.3,0-2.4,1.1-2.4,2.4v42.1c0,1.3,1.1,2.4,2.4,2.4
			h27.9c14.6,0,26.4-10.8,26.4-24c0-12.9-11.6-23.1-26.4-23.1h0L379.3,195.2z"/>
	</g>
</g>
</svg>
