<?xml version="1.0" encoding="UTF-8"?>
<svg width="147px" height="45px" viewBox="0 0 147 45" version="1.1" xmlns="http://www.w3.org/2000/svg" xmlns:xlink="http://www.w3.org/1999/xlink">
    <title>Combined Shape</title>
    <g id="Master" stroke="none" stroke-width="1" fill="none" fill-rule="evenodd">
        <g id="Fill-1-Clipped" transform="translate(0.000000, -0.642056)" fill="#FEFEFE" fill-rule="nonzero">
            <path d="M22.3153622,0.712037209 C33.4046067,0.712037209 41.3818067,6.85785116 42.5719622,17.4410605 L29.4268956,17.4410605 C29.1688289,15.9038047 27.7674289,11.2385488 21.94514,11.2385488 C15.3486511,11.2385488 13.2362067,17.149014 13.2362067,22.8241302 C13.2362067,28.4949674 15.3486511,34.4075721 21.94514,34.4075721 C26.6818067,34.4075721 28.6472511,31.3319907 29.4933178,27.3738512 L42.76034,27.3738512 C42.76034,35.8870605 34.6176289,44.9298047 22.3153622,44.9298047 C8.34491778,44.9298047 -0.000326666667,35.2944093 -0.000326666667,22.8241302 C-0.000326666667,9.97408372 9.12674,0.712037209 22.3153622,0.712037209 Z M96.3724378,11.4065025 C108.321904,11.4065025 113.813171,19.5805955 113.813171,28.2061304 C113.813171,29.0608746 113.741304,29.9198979 113.546393,30.7404095 L90.7385267,30.7404095 C91.0630156,34.5658979 93.2908822,37.1675723 96.9375711,37.1675723 C99.3461933,37.1675723 101.600193,35.9287816 102.371127,34.1872002 L112.878904,34.1872002 C110.816549,40.9994793 103.841127,44.8249676 97.1695044,44.8249676 C86.5746156,44.8249676 79.30846,38.3838979 79.30846,28.2061304 C79.30846,18.9505025 86.0780822,11.4065025 96.3724378,11.4065025 Z M128.025022,13.2447909 L128.025022,43.9278607 L116.111489,43.9278607 L116.111489,13.2447909 L128.025022,13.2447909 Z M56.7872978,1.71580019 L56.7872978,15.8014281 C59.0108089,13.8448234 61.9747644,12.4765909 66.2693422,12.4765909 C72.1384533,12.4765909 77.3683867,15.8452886 77.3683867,22.8854281 L77.3683867,43.9277537 L65.4526756,43.9277537 L65.4526756,27.8459397 C65.4526756,24.2985909 64.79172,21.8178002 61.3018311,21.8178002 C59.3113422,21.8178002 56.7872978,23.1550095 56.7872978,27.8972886 L56.7872978,43.9277537 L44.8715867,43.9277537 L44.8715867,1.71580019 L56.7872978,1.71580019 Z M146.292222,1.71590716 L146.292222,43.9267909 L134.3776,43.9267909 L134.3776,1.71590716 L146.292222,1.71590716 Z M97.0584378,19.0692467 C93.44006,19.0692467 91.35266,21.0162234 90.7984156,24.52827 L102.398349,24.52827 C102.398349,21.5211537 100.19226,19.0692467 97.0584378,19.0692467 Z M128.542353,1.7152653 L116.111598,12.1208932 L116.111598,1.7152653 L128.542353,1.7152653 Z" id="Combined-Shape"></path>
        </g>
    </g>
</svg>