<?xml version="1.0" encoding="UTF-8"?>
<svg width="560px" height="251px" viewBox="0 0 560 251" version="1.1" xmlns="http://www.w3.org/2000/svg" xmlns:xlink="http://www.w3.org/1999/xlink">
    <title>Group</title>
    <g id="Page-1" stroke="none" stroke-width="1" fill="none" fill-rule="evenodd">
        <g id="MINT_black_option-3" transform="translate(-82.000000, -82.000000)" fill="#FFFFFF">
            <g id="Group" transform="translate(82.786000, 82.828000)">
                <polygon id="Fill-1" points="290.6749 165.3575 308.5429 81.3725 336.1029 146.7765 363.7589 81.0655 380.4489 165.3575 373.5399 165.3575 361.5959 105.4865 336.0909 165.5785 310.4659 105.1795 297.6629 165.3575"></polygon>
                <polygon id="Fill-2" points="398.677 165.357 405.513 165.357 405.513 82.847 398.677 82.847"></polygon>
                <polygon id="Fill-3" points="423.7999 165.3575 423.7999 82.8475 486.4669 152.2855 486.4669 82.8475 493.3029 82.8475 493.3029 169.7905 430.6369 100.7145 430.6369 165.3575"></polygon>
                <polygon id="Fill-4" points="511.59 82.8477 511.59 89.6837 531.803 89.6837 531.803 165.3577 538.639 165.3577 538.639 89.6837 558.852 89.6837 558.852 82.8477"></polygon>
                <polygon id="Fill-5" points="48.1408 196.2911 78.5948 53.1491 125.5678 164.6221 172.7038 52.6261 201.1508 196.2911 189.3748 196.2911 169.0168 94.2491 125.5468 196.6671 81.8718 93.7251 60.0508 196.2911"></polygon>
                <path d="M7.79,241.502 L241.502,241.502 L241.502,7.79 L7.79,7.79 L7.79,241.502 Z M-1.42108547e-14,249.293 L249.292,249.293 L249.292,0 L-1.42108547e-14,0 L-1.42108547e-14,249.293 Z" id="Fill-6"></path>
            </g>
        </g>
    </g>
</svg>